<?xml version="1.0" standalone="no"?>
<!DOCTYPE svg PUBLIC "-//W3C//DTD SVG 1.1//EN" "http://www.w3.org/Graphics/SVG/1.1/DTD/svg11.dtd">
<svg xmlns="http://www.w3.org/2000/svg">
<metadata>Copyright (C) 2017 by Dave Gandy</metadata>
<defs>
<font id="fa5regular" horiz-adv-x="1000" >
<font-face font-family="Font Awesome 5 Free" font-weight="400" font-stretch="normal" units-per-em="1000" ascent="850" descent="-150" />
<missing-glyph horiz-adv-x="1000" />
<glyph glyph-name="address-book-o" unicode="&#xf2b9;" d="M852 538h-39V413h39c13 0 23-11 23-24v-78c0-13-10-23-23-23h-39V163h39c13 0 23-11 23-24V61c0-13-10-23-23-23h-39v-94c0-52-42-94-94-94H94c-52 0-94 42-94 94v812c0 52 42 94 94 94h625c51 0 93-42 93-94l1-93h39c13 0 23-11 23-24v-78c0-13-10-24-23-24zM719-56v812H94V-56h625zM406 350a125 125 0 1 0 1 250 125 125 0 0 0-1-250zM231 100c-24 0-43 17-43 38v37c0 62 58 113 131 113 22 0 35-16 87-16 51 0 67 15 88 15 72 1 131-50 131-112v-37c0-21-19-38-44-38H231z" horiz-adv-x="875" />
<glyph glyph-name="address-card-o" unicode="&#xf2bb;" d="M1031 788c52 0 94-42 94-94V6c0-51-42-93-94-93H94C42-87 0-45 0 6v688c0 52 42 94 94 94h937z m0-782v688H94V6h937zM406 350a125 125 0 1 0 1 250 125 125 0 0 0-1-250zM231 100c-24 0-44 17-44 38v37c0 62 59 113 132 113 22 0 35-16 87-16 51 0 67 15 88 15 72 1 131-50 131-112v-37c0-21-19-38-44-38H231z m472 125c-8 0-15 7-15 16v31c0 8 7 15 15 15l219 1c9 0 16-7 16-16v-31c0-9-7-16-16-16H703z m0 125c-8 0-15 7-15 16v31c0 9 7 16 15 16h219c9 0 16-7 16-16v-31c0-9-7-16-16-16H703z m0 125c-8 0-15 7-15 16v31c0 8 7 15 15 15l219 1c9 0 16-7 16-16v-31c0-9-7-16-16-16H703z" horiz-adv-x="1125" />
<glyph glyph-name="angry" unicode="&#xf556;" d="M484 834a484 484 0 1 0 1-968 484 484 0 0 0-1 968z m0-875a391 391 0 1 1 0 782 391 391 0 0 1 0-782z m0 282c66 0 128-29 170-80a47 47 0 0 0-72-60c-49 58-147 58-195 0-17-20-46-22-66-6s-23 46-6 66c42 51 104 80 169 80z m-93 140a63 63 0 1 0-125 0c0 12 4 23 10 33l-55 16a47 47 0 1 0 27 90l156-47a47 47 0 0 0-13-92z m388 108c8-25-6-51-31-59l-55-16c6-10 10-21 10-33a62 62 0 1 0-125 0 47 47 0 0 0-13 92l156 47c25 7 51-7 58-32z" horiz-adv-x="968.8" />
<glyph glyph-name="arrow-alt-circle-down" unicode="&#xf358;" d="M500 834a484 484 0 1 0 0-968 484 484 0 0 0 0 968z m0-875a391 391 0 1 1 0 781 391 391 0 0 1 0-781z m-62 618c0 13 10 23 23 23h78c13 0 24-10 24-23V350h130c21 0 32-25 17-40L517 117c-10-10-24-10-34 0L290 310c-15 15-4 40 17 40h131v227z" horiz-adv-x="1000" />
<glyph glyph-name="arrow-alt-circle-left" unicode="&#xf359;" d="M16 350a484 484 0 1 0 968 0 484 484 0 0 0-968 0z m875 0a391 391 0 1 1-781 0 391 391 0 0 1 781 0z m-141 39v-78c0-13-10-23-23-23H500V157c0-21-25-32-40-17L267 333c-10 10-10 24 0 34l193 193c15 15 40 4 40-17V412l227 1c13 0 23-11 23-24z" horiz-adv-x="1000" />
<glyph glyph-name="arrow-alt-circle-right" unicode="&#xf35a;" d="M984 350a484 484 0 1 0-968 0 484 484 0 0 0 968 0z m-875 0a391 391 0 1 1 781 0 391 391 0 0 1-781 0z m141-39v78c0 13 11 23 23 23h227v131c0 21 25 32 40 17l193-193c10-10 10-24 0-34L540 140c-15-15-40-4-40 17v131H273c-12 0-23 10-23 23z" horiz-adv-x="1000" />
<glyph glyph-name="arrow-alt-circle-up" unicode="&#xf35b;" d="M500-134a484 484 0 1 0 0 968 484 484 0 0 0 0-968z m0 875a391 391 0 1 1 0-781 391 391 0 0 1 0 781z m39-641h-78c-13 0-23 11-23 23v227H307c-21 0-32 25-17 40l193 193c10 10 24 10 34 0l193-193c15-15 4-40-17-40H563V123c0-12-11-23-24-23z" horiz-adv-x="1000" />
<glyph glyph-name="bell-slash" unicode="&#xf1f6;" d="M1238-70c14-11 16-30 5-44l-19-24a31 31 0 0 0-44-5L12 770a31 31 0 0 0-5 44l19 24c11 14 31 16 44 5zM319 131h358l119-93H250a63 63 0 0 0-46 104c36 39 101 98 107 275l89-70a435 435 0 0 0-81-216z m306 532c-46 0-88-14-123-38l-74 58c38 31 84 53 135 64v40a63 63 0 0 0 125 1v-41a308 308 0 0 0 249-303c0-81 12-138 28-182l-116 91c-3 28-5 57-5 90 0 0 0 0 0 1 0 121-98 219-219 219z m0-813c-69 0-125 56-125 125h250c0-69-56-125-125-125z" horiz-adv-x="1250" />
<glyph glyph-name="bell" unicode="&#xf0f3;" d="M858 142c12-12 17-27 17-42 0-32-25-63-63-63H63a63 63 0 0 0-46 105c38 41 108 102 108 302 0 152 107 273 250 303v40a63 63 0 0 0 125 1v-41a308 308 0 0 0 250-303c0-200 70-261 108-302z m-726-11h611c-41 55-87 145-87 312 0 0 0 0 0 1a219 219 0 1 1-437 0c0-1 0-1 0-1 0-167-46-257-87-312z m306-281c-69 0-125 56-125 125h249c0-69-55-125-124-125z" horiz-adv-x="875" />
<glyph glyph-name="bookmark-empty" unicode="&#xf02e;" d="M656 850c52 0 94-42 94-94v-906L375 69 0-150v906c0 52 42 94 94 94h562z m0-837v732c0 6-5 11-11 11H106c-7 0-12-5-12-12V14l281 164z" horiz-adv-x="750" />
<glyph glyph-name="building" unicode="&#xf1ad;" d="M250 561v78c0 13 11 24 23 24h79c12 0 23-11 23-24v-78c0-13-11-24-23-24l-79 1c-12 0-23 10-23 23z m273-24c-12 1-23 11-23 24v78c0 13 11 24 23 24h79c13 0 23-11 23-24v-78c0-13-10-24-23-24l-79 1zM273 351c-12 0-23 11-23 23v79c0 12 11 23 23 23h79c12 0 23-11 23-23v-79c0-13-11-23-23-23h-79z m250 0c-12 0-23 11-23 23v79c0 12 11 23 23 23h79c13 0 23-11 23-23v-79c0-13-10-23-23-23h-79zM375 186c0-13-10-24-23-24h-79c-12 0-23 11-23 24v78c0 13 11 23 23 23h79c12 0 23-10 23-23v-78z m148-24c-12 0-23 11-23 24v78c0 13 11 23 23 23h79c13 0 23-10 23-23v-78c0-13-10-24-23-24h-79zM875-80v-70H0v70c0 13 11 24 23 24h39v859c0 26 20 47 46 47h659c26 0 47-21 47-47V-56h38c13 0 23-11 23-24zM155-54h220V77c0 12 11 23 23 23h79c12 0 23-10 23-23V-54h220v808l-564 2z" horiz-adv-x="875" />
<glyph glyph-name="calendar-alt" unicode="&#xf073;" d="M289 288h-78c-13 0-23 10-23 23v78c0 13 10 23 23 23h78c13 0 24-10 24-23v-78c0-13-11-24-24-24z m211 23c0-13-10-24-23-24l-79 1c-12 0-23 10-23 23v78c0 13 11 23 23 23h79c12 0 23-10 23-23v-78z m188 0c0-13-11-24-24-24l-78 1c-13 0-24 10-24 23l1 78c0 13 10 23 23 23h78c13 0 24-10 24-23v-78zM500 123c0-13-10-23-23-23h-79c-12 0-23 10-23 23v79c0 12 11 23 23 23h79c12 0 23-11 23-23v-79z m-187 0c0-13-11-23-24-23h-78c-13 0-23 10-23 23v79c0 12 10 23 23 23h78c13 0 24-11 24-23v-79z m375 0c0-13-11-23-24-23h-78c-13 0-24 10-24 23l1 79c0 12 10 23 23 23h78c13 0 24-11 24-23v-79z m187 508V-56c0-52-42-94-94-94H94c-52 0-94 42-94 94v687c0 52 42 94 94 94h94v102c0 13 10 23 23 23h78c13 0 24-10 24-23V725h250v102c0 13 10 23 23 23h78c13 0 24-10 24-23V725h93c52 0 94-42 94-94zM781-44v582H94V-44c0-7 5-12 11-12h665c6 0 11 5 11 12z" horiz-adv-x="875" />
<glyph glyph-name="calendar-check-o" unicode="&#xf274;" d="M781 725c52 0 94-42 94-94V-56c0-52-42-94-94-94H94c-52 0-94 42-94 94v687c0 52 42 94 94 94h94v102c0 13 10 23 23 23h78c13 0 24-10 24-23V725h250v102c0 13 10 23 23 23h78c13 0 24-10 24-23V725h93zM769-56c7 0 12 5 12 12v582H94V-44c0-7 5-12 11-12h665zM667 336L388 60c-9-9-24-9-33 0L209 208c-10 9-10 24 0 33l44 44c9 9 24 9 33 0l86-87 217 215c9 9 24 9 33 0l44-44c10-9 9-24 0-33z" horiz-adv-x="875" />
<glyph glyph-name="calendar-minus-o" unicode="&#xf272;" d="M242 209c-13 0-23 11-23 24v47c0 13 10 23 23 23h391c13 0 23-10 23-23v-47c0-13-10-24-23-24H242z m633 422V-56c0-52-42-94-94-94H94c-52 0-94 42-94 94v687c0 52 42 94 94 94h94v102c0 13 10 23 23 23h78c13 0 24-10 24-23V725h250v102c0 13 10 23 23 23h78c13 0 24-10 24-23V725h93c52 0 94-42 94-94zM781-44v582H94V-44c0-7 5-12 11-12h665c6 0 11 5 11 12z" horiz-adv-x="875" />
<glyph glyph-name="calendar-plus-o" unicode="&#xf271;" d="M656 280v-47c0-13-10-24-23-24H484V61c0-13-10-23-23-23h-47c-13 0-23 10-23 23v148H242c-13 0-23 11-23 24v47c0 13 10 23 23 23h149v149c0 13 10 23 23 23h47c13 0 23-10 23-23V303h149c13 0 23-10 23-23z m219 351V-56c0-52-42-94-94-94H94c-52 0-94 42-94 94v687c0 52 42 94 94 94h94v102c0 13 10 23 23 23h78c13 0 24-10 24-23V725h250v102c0 13 10 23 23 23h78c13 0 24-10 24-23V725h93c52 0 94-42 94-94zM781-44v582H94V-44c0-7 5-12 11-12h665c6 0 11 5 11 12z" horiz-adv-x="875" />
<glyph glyph-name="calendar-times-o" unicode="&#xf273;" d="M609 118l-33-33c-10-9-24-9-34 0L438 190 333 85c-10-9-24-9-34 0l-33 33c-9 10-9 24 0 34l105 104-105 105c-9 9-9 24 0 33l33 34c10 9 24 9 34 0l104-105 105 105c10 9 24 9 34 0l33-34c9-9 9-24 0-33L504 256l105-105c9-9 9-24 0-33z m266 513V-56c0-52-42-94-94-94H94c-52 0-94 42-94 94v687c0 52 42 94 94 94h94v102c0 13 10 23 23 23h78c13 0 24-10 24-23V725h250v102c0 13 10 23 23 23h78c13 0 24-10 24-23V725h93c52 0 94-42 94-94zM781-44v582H94V-44c0-7 5-12 11-12h665c6 0 11 5 11 12z" horiz-adv-x="875" />
<glyph glyph-name="calendar-empty" unicode="&#xf133;" d="M781 725c52 0 94-42 94-94V-56c0-52-42-94-94-94H94c-52 0-94 42-94 94v687c0 52 42 94 94 94h94v102c0 13 10 23 23 23h78c13 0 24-10 24-23V725h250v102c0 13 10 23 23 23h78c13 0 24-10 24-23V725h93zM769-56c7 0 12 5 12 12v582H94V-44c0-7 5-12 11-12h665z" horiz-adv-x="875" />
<glyph glyph-name="caret-square-down" unicode="&#xf150;" d="M244 444h387c21 0 31-26 16-40L454 212c-9-10-24-10-33 0L228 404c-15 14-5 40 16 40z m631 250V6c0-51-42-93-94-93H94C42-87 0-45 0 6v688c0 52 42 94 94 94h687c52 0 94-42 94-94zM781 18v664c0 7-5 12-12 12H107c-7 0-12-5-12-12V18c0-6 5-12 11-12h665c6 0 11 5 11 12z" horiz-adv-x="875" />
<glyph glyph-name="caret-square-left" unicode="&#xf191;" d="M531 543V157c0-21-25-32-40-17L299 333c-9 10-9 24 0 33l192 194c15 15 40 4 40-17z m344 151V6c0-51-42-93-94-93H94C42-87 0-45 0 6v688c0 52 42 94 94 94h687c52 0 94-42 94-94zM781 18v664c0 7-5 12-12 12H107c-7 0-12-5-12-12V18c0-6 5-12 11-12h665c6 0 11 5 11 12z" horiz-adv-x="875" />
<glyph glyph-name="caret-square-right" unicode="&#xf152;" d="M344 157v386c0 21 25 32 40 17l192-193c9-10 9-24 0-33L384 140c-15-15-40-4-40 17z m531 537V6c0-51-42-93-94-93H94C42-87 0-45 0 6v688c0 52 42 94 94 94h687c52 0 94-42 94-94zM781 18v664c0 7-5 12-12 12H107c-7 0-12-5-12-12V18c0-6 5-12 11-12h665c6 0 11 5 11 12z" horiz-adv-x="875" />
<glyph glyph-name="caret-square-up" unicode="&#xf151;" d="M631 256H244c-21 0-31 26-16 40l193 192c9 10 24 10 33 0l193-192c15-14 5-40-16-40z m244 438V6c0-51-42-93-94-93H94C42-87 0-45 0 6v688c0 52 42 94 94 94h687c52 0 94-42 94-94zM781 18v664c0 7-5 12-12 12H107c-7 0-12-5-12-12V18c0-6 5-12 11-12h665c6 0 11 5 11 12z" horiz-adv-x="875" />
<glyph glyph-name="chart-bar" unicode="&#xf080;" d="M775 163c-12 0-25 12-25 25v450c0 12 13 25 25 25h44c12 0 25-13 25-25V188c0-13-13-25-25-25h-44z m-375 0c-12 0-25 12-25 25v387c0 13 13 25 25 25h44c12 0 25-12 25-25V188c0-13-13-25-25-25h-44z m188 0c-13 0-25 12-25 25v262c0 13 12 25 25 25h43c13 0 25-12 25-25V188c0-13-12-25-25-25h-44z m381-94c17 0 31-14 31-31V6c0-17-14-31-31-31H63C28-25 0 3 0 38v656c0 17 14 31 31 31h32c17 0 31-14 31-31V69h875z m-756 93c-13 0-25 13-25 25v138c0 12 12 25 25 25h43c13 0 25-13 25-25V187c0-12-12-25-25-25h-43z" horiz-adv-x="1000" />
<glyph glyph-name="check-circle" unicode="&#xf058;" d="M500 834a484 484 0 1 0 0-968 484 484 0 0 0 0 968z m0-93a390 390 0 1 1 0-781 390 390 0 0 1 0 781z m274-255c9-9 9-24 0-33L437 119c-10-9-24-9-33 0L226 298c-9 9-9 24 0 33l45 44c9 9 24 9 33 0l117-118 276 274c9 9 24 9 33 0z" horiz-adv-x="1000" />
<glyph glyph-name="check-square" unicode="&#xf14a;" d="M781 788c52 0 94-42 94-94V6c0-51-42-93-94-93H94C42-87 0-45 0 6v688c0 52 42 94 94 94h687z m0-782v688H94V6h687z m-70 472L374 144c-9-9-24-9-33 0L164 323c-10 9-9 24 0 33l44 44c9 9 24 9 33 0l117-118 276 274c9 9 24 9 33 0l44-45c10-9 9-23 0-33z" horiz-adv-x="875" />
<glyph glyph-name="circle-empty" unicode="&#xf111;" d="M500 834a484 484 0 1 0 0-968 484 484 0 0 0 0 968z m0-875a391 391 0 1 1 0 781 391 391 0 0 1 0-781z" horiz-adv-x="1000" />
<glyph glyph-name="clipboard" unicode="&#xf328;" d="M656 725c52 0 94-42 94-94V-56c0-52-42-94-94-94H94c-52 0-94 42-94 94v687c0 52 42 94 94 94h156a125 125 0 0 0 250 0h156z m-281 47c-26 0-47-21-47-47s21-47 47-47 47 21 47 47-21 47-47 47zM656-44v664c0 6-5 11-12 11h-81v-70c0-13-11-23-24-23H211c-13 0-24 10-24 23v70h-82c-6 0-11-5-11-11V-44c0-7 5-12 11-12h540c6 0 11 5 11 12z" horiz-adv-x="750" />
<glyph glyph-name="clock" unicode="&#xf017;" d="M500 834a484 484 0 1 0 0-968 484 484 0 0 0 0 968z m0-875a391 391 0 1 1 0 781 391 391 0 0 1 0-781z m121 204L455 284c-6 4-10 11-10 19v320c0 13 11 24 24 24h62c13 0 24-11 24-24V347l130-95c11-8 13-23 5-33l-37-51c-7-10-22-12-32-5z" horiz-adv-x="1000" />
<glyph glyph-name="clone" unicode="&#xf24d;" d="M906 850c52 0 94-42 94-94V131c0-51-42-93-94-93h-94l1-94c0-52-42-94-94-94H94c-52 0-94 42-94 94v625c0 52 42 94 94 94h94v93c0 52 42 94 93 94h625zM707-56c7 0 12 5 12 12v82H281c-51 0-93 42-93 93v438h-82c-7 0-12-5-12-12V-44c0-7 5-12 11-12h602z m188 187c6 0 11 6 11 12v602c0 6-5 11-11 11H293c-6 0-12-5-12-11V143c0-6 6-12 12-12h602z" horiz-adv-x="1000" />
<glyph glyph-name="closed-captioning" unicode="&#xf20a;" d="M906 725c52 0 94-42 94-94V69c0-52-42-94-94-94H94C42-25 0 17 0 69v562c0 52 42 94 94 94h812zM894 69c7 0 12 5 12 12v539c0 6-5 11-12 11H107c-7 0-12-5-12-11V81c0-7 5-12 11-12h790zM483 236c3-5 3-11-1-15-104-111-337-63-337 133 0 190 237 233 337 137 4-4 4-7 2-11l-35-60c-3-6-12-8-17-3-80 62-185 29-185-61 0-94 100-138 180-64 5 5 14 4 18-2z m372 0c3-5 3-11-1-15-105-111-337-63-337 133 0 190 237 233 337 137 4-4 4-7 2-11l-35-60c-3-6-12-8-18-3-79 62-184 29-184-61 0-94 99-138 180-64 5 5 14 4 18-2z" horiz-adv-x="1000" />
<glyph glyph-name="comment-alt" unicode="&#xf27a;" d="M875 850c69 0 125-56 125-125V163c0-69-56-125-125-125H594L350-145c-5-4-9-5-14-5-12 0-24 10-24 23l1 165H125C56 38 0 94 0 163v562c0 69 56 125 125 125h750z m31-687v562c0 17-14 31-31 31H125c-17 0-31-14-31-31V163c0-18 14-32 31-32h281V14l132 99 25 18h312c17 0 31 14 31 32z" horiz-adv-x="1000" />
<glyph glyph-name="comment-dots" unicode="&#xf4ad;" d="M281 444a62 62 0 1 0 0-125 62 62 0 0 0 0 125z m219 0a62 62 0 1 0 0-125 62 62 0 0 0 0 125z m219 0a62 62 0 1 0 0-125 62 62 0 0 0 0 125zM500 788c276 0 500-182 500-407S776-25 500-25c-64 0-125 10-181 28-57-40-152-90-272-90A47 47 0 0 0 13-8c1 0 61 66 90 143A359 359 0 0 0 0 381c0 225 224 407 500 407z m0-719c224 0 406 140 406 312S724 694 500 694 94 554 94 381c0-82 42-144 78-182l40-43-21-55c-11-28-25-54-39-78 46 15 85 37 113 57l38 26 44-14c49-15 101-23 153-23z" horiz-adv-x="1000" />
<glyph glyph-name="comment-empty" unicode="&#xf075;" d="M500 788c276 0 500-182 500-407S776-25 500-25c-64 0-125 10-181 28-57-40-152-90-272-90A47 47 0 0 0 13-8c1 0 61 66 90 143A359 359 0 0 0 0 381c0 225 224 407 500 407z m0-719c224 0 406 140 406 312S724 694 500 694 94 554 94 381c0-82 42-144 78-182l40-43-21-55c-11-28-25-54-39-78 46 15 85 37 113 57l38 26 44-14c49-15 101-23 153-23z" horiz-adv-x="1000" />
<glyph glyph-name="comments" unicode="&#xf086;" d="M1039 96c30-60 73-107 74-107 12-13 15-33 8-49-7-17-23-27-41-27-105 0-189 39-245 75-37-8-76-13-116-13-169 0-313 79-374 191-19 2-37 5-55 10-56-37-140-76-245-76-18 0-34 10-41 27s-4 36 8 49c1 1 44 47 74 107C32 336 0 403 0 475c0 173 182 312 406 312 169 0 313-79 375-191 195-23 344-152 344-309 0-72-32-138-86-191zM272 276l38-9c32-7 64-11 96-11 170 0 313 100 313 219S576 694 406 694 94 594 94 475c0-56 31-99 58-125l48-48-30-61c-5-10-10-19-16-29 29 10 57 24 84 42z m701-113c27 26 58 68 58 125 0 96-94 178-220 207 1-7 1-13 1-20 0-158-152-288-350-309 57-58 151-97 257-97 32 0 64 4 95 11l39 9 34-22c27-18 55-32 84-42-5 9-11 19-16 29l-30 61z" horiz-adv-x="1125" />
<glyph glyph-name="compass" unicode="&#xf14e;" d="M680 596c32 15 66-18 51-51L602 263c-6-13-17-24-31-31L289 104a39 39 0 0 0-51 51l129 282a62 62 0 0 1 31 30zM529 306a62 62 0 1 1-89 88 62 62 0 0 1 89-88z m-45 528a484 484 0 1 0 0-968 484 484 0 0 0 0 968z m0-875a391 391 0 1 1 0 782 391 391 0 0 1 0-782z" horiz-adv-x="968.8" />
<glyph glyph-name="copy" unicode="&#xf0c5;" d="M848 721c17-17 27-40 27-66V131c0-51-42-93-94-93H625v-94c0-52-42-94-94-94H94c-52 0-94 42-94 94v625c0 51 42 93 94 93l156 1v93c0 52 42 94 94 94h336c26 0 49-10 66-27zM520-56c6 0 11 5 11 12v82H344c-52 0-94 42-94 93v438H106c-7 0-12-5-12-12V-44c0-7 5-12 11-12h415z m250 187c6 0 11 6 11 12v395H609c-26 0-47 21-47 46l1 172H356c-7 0-12-5-12-11V143c0-6 5-12 12-12h414z m11 500v19c0 3-1 6-3 8l-95 95a11 11 0 0 0-8 3h-19V631h125z" horiz-adv-x="875" />
<glyph glyph-name="copyright" unicode="&#xf1f9;" d="M500 834a484 484 0 1 0 0-968 484 484 0 0 0 0 968z m0-875a390 390 0 1 1 0 781 390 390 0 0 1 0-781z m210 198c-19-19-89-81-204-81a267 267 0 0 0-274 276c0 155 118 273 273 273 109 0 173-52 191-68a23 23 0 0 0 3-30l-35-55c-8-12-23-14-34-6-17 13-62 44-121 44-94 0-152-69-152-156 0-81 53-164 153-164 64 0 111 38 128 54 11 9 27 7 35-4l39-53a23 23 0 0 0-2-30z" horiz-adv-x="1000" />
<glyph glyph-name="credit-card" unicode="&#xf09d;" d="M1031 788c52 0 94-42 94-94V6c0-51-42-93-94-93H94C42-87 0-45 0 6v688c0 52 42 94 94 94h937z m-925-94c-7 0-12-5-12-12v-82h937v82c0 7-5 12-12 12H106zM1019 6c7 0 12 6 12 12v332H94V18c0-6 5-12 12-12h913zM375 202v-79c0-12-10-23-23-23H211c-13 0-23 11-23 23v79c0 13 10 23 23 23h141c13 0 23-10 23-23z m375 0v-79c0-12-10-23-23-23H461c-13 0-24 11-24 23l1 79c0 13 10 23 23 23h266c12 0 23-10 23-23z" horiz-adv-x="1125" />
<glyph glyph-name="dizzy" unicode="&#xf567;" d="M484 834a484 484 0 1 0 1-968 484 484 0 0 0-1 968z m0-875a391 391 0 1 1 0 782 391 391 0 0 1 0-782z m-66 426a39 39 0 0 0-55 0l-35 34-35-34a39 39 0 1 0-55 55l35 35-35 35a39 39 0 0 0 55 55l35-35 35 35a39 39 0 1 0 55-55l-35-35 35-35c16-15 16-40 0-55z m313 180c15-15 15-40 0-55l-35-35 35-35a39 39 0 0 0-56-55l-34 34-35-34a39 39 0 1 0-55 55l35 35-35 35a39 39 0 0 0 55 55l35-35 35 35c15 15 40 15 55 0zM484 319a125 125 0 1 0 0-251 125 125 0 0 0 0 251z" horiz-adv-x="968.8" />
<glyph glyph-name="dot-circle" unicode="&#xf192;" d="M500 741a390 390 0 1 1 0-781 390 390 0 0 1 0 781z m0 93a484 484 0 1 0 0-968 484 484 0 0 0 0 968z m0-328a156 156 0 1 0 0-312 156 156 0 0 0 0 312z" horiz-adv-x="1000" />
<glyph glyph-name="edit" unicode="&#xf044;" d="M786 176l62 63c10 10 27 3 27-11V-56c0-52-42-94-94-94H94c-52 0-94 42-94 94v687c0 52 42 94 94 94h534c14 0 21-17 11-27l-62-62c-3-3-7-5-12-5H94V-56h687v221c0 5 2 8 5 11z m306 395L579 58 402 38c-51-6-95 38-89 89l20 177 513 513c44 44 117 44 161 0l84-85c45-44 45-117 1-161z m-193-61L785 624 422 261l-14-128 128 14z m126 156l-84 84c-8 8-21 8-29 0l-60-60 113-114 60 61c8 8 8 21 0 29z" horiz-adv-x="1125" />
<glyph glyph-name="envelope-open-o" unicode="&#xf2b6;" d="M966 529c21-17 34-43 34-73V-56c0-52-42-94-94-94H94c-52 0-94 42-94 94v513c0 29 13 55 34 72 8 6 216 174 264 212 45 35 118 109 202 109 85 0 159-75 202-109 46-37 255-205 264-212zM906-44v495c0 4-1 7-4 9-31 25-213 171-259 208-34 27-97 88-143 88s-108-60-143-88c-46-37-228-183-259-208-3-2-4-6-4-9V-44c0-7 5-12 12-12h789c6 0 11 5 11 11z m-62 366c8-10 6-25-4-33-56-46-115-93-138-111-44-36-118-109-202-109-85 0-159 74-202 109-22 17-81 65-138 111-11 8-12 23-4 33l30 36c8 10 23 12 33 4 56-45 114-92 138-111 34-27 97-89 143-89s108 61 143 89c24 19 82 66 138 111 10 8 25 6 33-4z" horiz-adv-x="1000" />
<glyph glyph-name="envelope" unicode="&#xf0e0;" d="M906 725c52 0 94-42 94-94V69c0-52-42-94-94-94H94C42-25 0 17 0 69v562c0 52 42 94 94 94h812z m0-94H94v-79c43-36 113-92 263-208 32-26 98-88 143-88s111 62 143 88c150 116 220 172 263 208v79zM94 69h812v362c-45-35-108-85-205-161-44-35-118-108-201-107-84-1-159 73-201 107-97 76-160 126-205 161V69z" horiz-adv-x="1000" />
<glyph glyph-name="eye-slash" unicode="&#xf070;" d="M1238-70a31 31 0 0 0 5-44l-19-24a31 31 0 0 0-44-5L12 770a31 31 0 0 0-5 44l19 24a31 31 0 0 0 44 5zM580 564a218 218 0 0 0 263-206z m90-428a218 218 0 0 0-263 206z m-45 495c-39 0-77-5-114-14l-90 71c64 23 132 37 204 37 240 0 450-140 556-346a63 63 0 0 0 0-57c-28-54-63-103-104-147l-73 57c33 36 62 75 86 118a531 531 0 0 1-465 281z m0-562c39 0 77 5 114 14l90-71c-64-23-132-37-204-37A626 626 0 0 0 69 322a63 63 0 0 0 0 57c28 53 63 102 104 146l73-57c-33-36-62-75-86-118A531 531 0 0 1 625 69z" horiz-adv-x="1250" />
<glyph glyph-name="eye" unicode="&#xf06e;" d="M563 569a218 218 0 1 0-209-158 108 108 0 0 1 148 148c19 6 39 9 61 10z m555-190a63 63 0 0 0 0-57C1012 115 803-25 563-25S113 115 7 322a63 63 0 0 1-7 28c0 10 3 20 7 29 106 206 315 346 556 346s449-140 555-346zM563 69c192 0 369 107 464 281-95 174-272 281-464 281S193 524 98 350A531 531 0 0 1 563 69z" horiz-adv-x="1125" />
<glyph glyph-name="file-alt" unicode="&#xf15c;" d="M563 366v-55c0-13-11-23-24-23H211c-13 0-24 10-24 23v55c0 13 11 23 24 23h328c13 0 23-10 23-23z m-24-141c13 0 24-10 24-23v-55c0-13-11-24-24-24H211c-13 0-24 11-24 24v55c0 12 11 23 24 23h328z m211 367V-56c0-52-42-94-94-94H94c-52 0-94 42-94 94v812c0 52 42 94 94 94h398c25 0 49-10 67-27l164-164c17-18 27-42 27-67zM500 749V600h149zM656-56v562H453c-26 0-47 21-47 47v203H94V-56h562z" horiz-adv-x="750" />
<glyph glyph-name="file-archive" unicode="&#xf1c6;" d="M251 538h62v-63h-62v63z m125 187v-62h-63v62h63z m-125-62h62v-63h-62v63z m125-63v-62h-63v62h63z m347 59c17-18 27-42 27-67V-56c0-52-42-94-94-94H94c-52 0-94 42-94 94v812c0 52 42 94 94 94h398c25 0 49-10 67-27z m-223 90V600h149zM656-56v562H453c-26 0-47 21-47 47v203h-94v-31h-63v31H94V-56h562zM379 331l34-171a103 103 0 1 0-201 0l39 190v62h62v-62h43c12 0 21-8 23-19zM313 88c35 0 63 24 63 53s-28 53-63 53-63-24-63-53 28-53 63-53z m63 387v-63h-63v63h63z" horiz-adv-x="750" />
<glyph glyph-name="file-audio" unicode="&#xf1c7;" d="M723 659c17-17 27-41 27-67V-56c0-52-42-94-94-94H94c-52 0-94 42-94 94v812c0 52 42 94 94 94h398c26 0 50-10 67-27z m-74-59L500 749V600h149zM94-56h562v562H453c-26 0-47 21-47 47v203H94V-56zM375 92c0-21-25-31-40-16l-69 70h-55c-13 0-23 10-23 23v110c0 13 10 23 23 23h55l69 72c15 15 40 5 40-16V92z m81 92c17 18 17 47 0 66-44 44 23 110 67 65 53-55 53-141 0-196-43-44-112 20-67 65z" horiz-adv-x="750" />
<glyph glyph-name="file-code" unicode="&#xf1c9;" d="M293 168c7-6 7-17 1-24l-34-36a17 17 0 0 0-25-1L123 212c-8 7-8 19 0 25l112 106c7 7 18 6 25-1l34-36c6-7 5-18-2-25l-64-56 64-56z m430 491c17-18 27-42 27-67V-56c0-52-42-94-94-94H94c-52 0-94 42-94 94v812c0 52 42 94 94 94h398c25 0 49-10 67-27z m-223 90V600h149zM656-56v562H453c-26 0-47 21-47 47v203H94V-56h562zM409 432l48-14c9-2 15-12 12-21L362 29c-3-9-12-14-21-11l-48 14c-9 2-14 12-12 21l107 367c3 10 12 15 21 12z m48-150c-7 6-7 17-1 24l34 36c7 7 18 8 25 1l112-106c8-6 8-18 0-25L515 107c-7-7-18-6-25 1l-34 36c-6 7-5 18 2 25l64 56-64 56z" horiz-adv-x="750" />
<glyph glyph-name="file-excel" unicode="&#xf1c3;" d="M723 659c17-18 27-42 27-67V-56c0-52-42-94-94-94H94c-52 0-94 42-94 94v812c0 52 42 94 94 94h398c25 0 49-10 67-27z m-74-59L500 749V600h149zM94-56h562v562H453c-26 0-47 21-47 47v203H94V-56z m414 469c18 0 29-20 20-36-31-53-89-150-91-152l91-152c9-16-2-35-20-35h-56c-9 0-17 4-21 12-44 81-27 54-56 113-11-25-13-35-56-113-4-8-12-12-20-12h-57c-18 0-29 19-20 35l90 152-90 152c-9 16 2 36 20 36h57c8 0 16-5 20-13 43-79 29-56 56-112 13 29 21 48 56 112 4 8 12 13 21 13h56z" horiz-adv-x="750" />
<glyph glyph-name="file-image" unicode="&#xf1c5;" d="M723 659c17-18 27-42 27-67V-56c0-52-42-94-94-94H94c-52 0-94 42-94 94v812c0 52 42 94 94 94h398c25 0 49-10 67-27z m-74-59L500 749V600h149zM94-56h562v562H453c-26 0-47 21-47 47v203H94V-56z m62 94v125l77 77c10 9 24 9 34 0l77-77 171 170c9 10 24 10 33 0l46-45V38H156z m94 468a94 94 0 1 0 0-187 94 94 0 0 0 0 187z" horiz-adv-x="750" />
<glyph glyph-name="file-pdf" unicode="&#xf1c1;" d="M723 659c17-18 27-42 27-67V-56c0-52-42-94-94-94H94c-52 0-94 42-94 94v812c0 52 42 94 94 94h398c25 0 49-10 67-27z m-74-59L500 749V600h149zM94-56h562v562H453c-26 0-47 21-47 47v203H94V-56z m488 280c21-20 16-75-34-75-29 0-72 13-109 33-42-7-90-25-133-39-98-169-155-92-149-61 8 39 61 70 100 90 20 36 49 99 69 145-15 56-22 100-14 131 10 35 75 40 83-11 10-30-3-78-10-109 16-42 38-70 72-91 34 4 102 11 125-13zM196 73c0-2 22 9 59 68-12-11-49-42-59-68z m159 372c-5 0-5-53 3-80 10 17 11 80-3 80z m-48-267c31 12 67 29 107 37-22 17-42 40-59 70-13-35-29-74-48-107z m257 10c7 4-4 20-73 15 63-27 73-15 73-15z" horiz-adv-x="750" />
<glyph glyph-name="file-powerpoint" unicode="&#xf1c4;" d="M723 659c17-18 27-42 27-67V-56c0-52-42-94-94-94H94c-52 0-94 42-94 94v812c0 52 42 94 94 94h398c25 0 49-10 67-27z m-74-59L500 749V600h149zM94-56h562v562H453c-26 0-47 21-47 47v203H94V-56zM234 61v328c0 13 11 24 24 24h135c72 0 123-53 123-130 0-145-135-130-187-130V61c0-13-10-24-23-24h-48c-13 0-24 11-24 24z m95 171h45c16 0 27 4 35 14 17 19 17 55 1 73-8 9-20 14-34 14h-47V232z" horiz-adv-x="750" />
<glyph glyph-name="file-video" unicode="&#xf1c8;" d="M723 659c17-17 27-41 27-67V-56c0-52-42-94-94-94H94c-52 0-94 42-94 94v812c0 52 42 94 94 94h398c26 0 50-10 67-27z m-74-59L500 749V600h149zM94-56h562v562H453c-26 0-47 21-47 47v203H94V-56z m446 413c20 19 54 5 54-23V116c0-28-34-42-54-22L438 196v-73c0-21-18-39-40-39H195c-21 0-39 18-39 39v204c0 21 18 39 39 39h203c22 0 39-18 39-39l1-73z" horiz-adv-x="750" />
<glyph glyph-name="file-word" unicode="&#xf1c2;" d="M723 659c17-18 27-42 27-67V-56c0-52-42-94-94-94H94c-52 0-94 42-94 94v812c0 52 42 94 94 94h398c25 0 49-10 67-27z m-74-59L500 749V600h149zM94-56h562v562H453c-26 0-47 21-47 47v203H94V-56z m430 406h31c15 0 26-14 22-29-8-33-27-105-67-265-3-11-12-18-23-18h-48c-11 0-20 7-23 18-10 41-35 138-35 139l-5 34c-1-10-3-22-6-34L335 56c-3-11-12-18-23-18h-49c-11 0-20 7-23 18-13 51-49 202-65 265-3 15 8 29 23 29h33c11 0 21-8 23-19 10-50 36-183 37-193 1-3 1-6 1-8 2 14 1 9 49 202 2 11 12 18 22 18h26c11 0 21-7 23-18 47-195 45-184 46-194 1-4 1-6 2-9 1 16 0 12 41 202 2 11 11 19 23 19z" horiz-adv-x="750" />
<glyph glyph-name="file" unicode="&#xf15b;" d="M723 659c17-18 27-42 27-67V-56c0-52-42-94-94-94H94c-52 0-94 42-94 94v812c0 52 42 94 94 94h398c25 0 49-10 67-27z m-74-59L500 749V600h149zM94-56h562v562H453c-26 0-47 21-47 47v203H94V-56z" horiz-adv-x="750" />
<glyph glyph-name="flag-empty" unicode="&#xf024;" d="M657 694c69 0 142 25 212 55a94 94 0 0 0 131-86V194c0-32-16-61-42-78-52-34-137-78-251-78-134 0-221 62-317 62-110 0-175-22-249-56v-163c0-17-14-31-32-31H78c-17 0-31 14-31 31v794a94 94 0 1 0 136 52c43 17 96 29 157 29 134 0 221-62 317-62z m249-500v469c-61-29-165-63-249-63-117 0-200 63-317 63-81 0-157-33-199-63V147c61 28 165 47 249 47 117 0 199-63 317-63 81 0 157 33 199 63z" horiz-adv-x="1000" />
<glyph glyph-name="flushed" unicode="&#xf579;" d="M484 834a484 484 0 1 0 1-968 484 484 0 0 0-1 968z m0-875a391 391 0 1 1 0 782 391 391 0 0 1 0-782z m188 610a156 156 0 1 0 0-313 156 156 0 0 0 0 313z m0-250a94 94 0 1 1 0 187 94 94 0 0 1 0-187z m0 140c26 0 47-21 47-47s-21-46-47-46-47 21-47 47 21 46 47 46z m-219-47a156 156 0 1 0-312 0 156 156 0 0 0 312 1z m-156-93a94 94 0 1 1 0 187 94 94 0 0 1 0-187z m0 140c26 0 47-21 47-47s-21-46-47-46-47 21-47 47 21 46 47 46z m312-281a47 47 0 1 0 0-94H359a47 47 0 1 0 0 94h250z" horiz-adv-x="968.8" />
<glyph glyph-name="folder-open-empty" unicode="&#xf07c;" d="M1031 413c74 0 119-82 79-144L956 19a94 94 0 0 0-80-44H94C42-25 0 17 0 69v562c0 52 42 94 94 94h312l125-125h313c52 0 94-42 94-94v-94l93 1zM94 620V164l123 203c17 28 47 45 80 45h547v82c0 7-6 12-12 12H492L367 631H106c-7 0-12-5-12-12zM875 69l156 250H291L141 69h734z" horiz-adv-x="1125" />
<glyph glyph-name="folder-empty" unicode="&#xf07b;" d="M906 600c52 0 94-42 94-94V69c0-52-42-94-94-94H94C42-25 0 17 0 69v562c0 52 42 94 94 94h286c17 0 33-7 45-18l106-107h375z m0-531v437H518c-16 0-32 7-44 19L367 631H94V69h812z" horiz-adv-x="1000" />
<glyph glyph-name="frown-open" unicode="&#xf57a;" d="M484 834a484 484 0 1 0 1-968 484 484 0 0 0-1 968z m0-875a391 391 0 1 1 0 782 391 391 0 0 1 0-782z m-93 485a62 62 0 1 0-125 0 62 62 0 0 0 125 0z m250 62a62 62 0 1 0 0-125 62 62 0 0 0 0 125zM484 288c70 0 174-42 187-120 4-23-17-42-40-35-61 18-116 29-147 29s-86-11-147-29c-22-7-44 12-40 35 14 78 118 120 187 120z" horiz-adv-x="968.8" />
<glyph glyph-name="frown" unicode="&#xf119;" d="M484 834a484 484 0 1 0 1-968 484 484 0 0 0-1 968z m0-875a391 391 0 1 1 0 782 391 391 0 0 1 0-782zM328 381a63 63 0 1 0 0 125 63 63 0 0 0 0-125z m313 125a62 62 0 1 0 0-125 62 62 0 0 0 0 125zM484 256c79 0 153-34 203-95 17-20 14-49-6-66a47 47 0 0 0-66 6 169 169 0 0 1-261 0 47 47 0 0 0-72 60c50 61 124 95 202 95z" horiz-adv-x="968.8" />
<glyph glyph-name="futbol" unicode="&#xf1e3;" d="M945 500A484 484 0 1 0 24 200a484 484 0 0 0 921 300zM799 121c12 17 24 33 33 51 28 55 42 115 43 175l-76 71-139-43-48-147 85-119z m0 460a389 389 0 0 1-191 139l-92-51V525l125-91 138 43zM361 720c-78-26-143-75-191-140l20-103 138-43 125 91v144z m-89-611l84 120-47 145-139 44-76-71c1-109 46-186 74-225z m94-131c125-40 225-4 237 0l44 94-86 120H407L322 72z" horiz-adv-x="968.8" />
<glyph glyph-name="gem" unicode="&#xf3a5;" d="M906 850c8 0 15-4 20-10l195-288c6-9 5-20-1-28L581-141c-10-12-27-12-37 0L5 524c-6 8-7 19-1 28l195 288c5 6 12 10 20 10h687z m-37-94H758l101-187h133z m-395 0L373 569h379L651 756H474z m-218 0L133 569h133l101 187H256z m-83-281l233-312-133 312H173z m200 0L562 0l190 475H373z m346-312l233 312H852z" horiz-adv-x="1125" />
<glyph glyph-name="grimace" unicode="&#xf57f;" d="M484 834a484 484 0 1 0 1-968 484 484 0 0 0-1 968z m0-875a391 391 0 1 1 0 782 391 391 0 0 1 0-782zM328 381a63 63 0 1 0 0 125 63 63 0 0 0 0-125z m313 0a63 63 0 1 0 0 125 63 63 0 0 0 0-125z m31-31c52 0 94-42 94-94v-62c0-52-42-94-94-94H297c-52 0-94 42-94 94v62c0 52 42 94 94 94h375zM344 163v46h-78v-15c0-17 14-31 31-31h47z m0 78v46l-47 1c-17 0-31-15-31-32v-15h78z m125-78v46h-94v-46h94z m0 78v46l-94 1v-47h94z m125-78v46h-94v-46h94z m0 78v46l-94 1v-47h94z m109-47v15h-78v-47h47c17 0 31 15 31 32z m0 47v15c0 17-14 31-31 31l-47 1v-47h78z" horiz-adv-x="968.8" />
<glyph glyph-name="grin-alt" unicode="&#xf581;" d="M391 366a38 38 0 0 0-64 0c-24 36-29 73-30 109 1 37 6 73 30 109 15 23 49 24 64 0 24-36 30-73 31-109-1-36-7-73-31-109z m250 0a38 38 0 0 0-64 0c-24 36-29 73-30 109 1 37 6 73 30 109 15 23 49 24 64 0 24-36 30-73 31-109-1-36-7-73-31-109zM484 834a484 484 0 1 0 1-968 484 484 0 0 0-1 968z m0-875a391 391 0 1 1 0 782 391 391 0 0 1 0-782z m207 296c19 6 37-11 34-30-15-92-139-156-241-156s-225 64-240 156c-4 20 15 36 34 30 51-16 126-26 206-26s156 10 207 26z" horiz-adv-x="968.8" />
<glyph glyph-name="grin-beam-sweat" unicode="&#xf583;" d="M859 538c-57 0-104 51-104 114 0 49 62 148 91 190 6 11 20 11 27 0 29-42 91-141 91-190 0-63-47-114-105-114zM484 69c-101 0-225 64-240 156-4 19 15 36 34 30 51-16 126-26 206-26s156 10 207 26c19 6 38-11 34-30-15-92-139-156-241-156z m255 328c-6-1-14 1-18 8l-19 33c-15 27-37 42-61 42s-47-15-62-42l-19-33a16 16 0 0 0-29 9c7 82 63 139 110 139s103-57 109-139c1-8-4-14-11-17z m206 104a484 484 0 1 0-216 267c-21-43-30-71-34-90a391 391 0 1 1 159-203c1 1 42-5 90 26z m-617-21c-24 0-46-15-61-42l-19-33a16 16 0 0 0-29 9c6 82 63 139 109 139s103-57 110-139c0-8-5-14-12-17-6-2-14 0-18 8l-18 33c-15 27-38 42-62 42z" horiz-adv-x="968.8" />
<glyph glyph-name="grin-beam" unicode="&#xf582;" d="M484 834a484 484 0 1 0 1-968 484 484 0 0 0-1 968z m0-875a391 391 0 1 1 0 782 391 391 0 0 1 0-782z m207 296c19 6 37-11 34-30-15-92-139-156-241-156s-225 64-240 156c-4 20 15 36 34 30 51-16 126-26 206-26s156 10 207 26zM230 398c-7 2-12 8-11 16 6 82 63 139 109 139s103-57 110-139c0-8-5-14-12-16-6-2-14 0-18 7l-18 33c-15 27-38 42-62 42s-46-15-61-42l-19-33c-4-7-11-10-18-8z m312 0c-7 2-11 8-11 16 7 82 63 139 110 139s103-57 109-139c1-8-4-14-11-16-6-2-14 0-18 7l-19 33c-15 27-37 42-61 42s-47-15-62-42l-19-33c-3-7-11-10-18-7z" horiz-adv-x="968.8" />
<glyph glyph-name="grin-hearts" unicode="&#xf584;" d="M691 255c19 6 37-11 34-30-15-92-139-156-241-156s-225 64-240 156c-4 20 15 36 34 30 51-16 126-26 206-26s156 10 207 26z m-299 96l-137 35a69 69 0 0 0-47 92c13 35 52 52 88 43l13-4 4 14c10 36 45 61 81 55 42-7 67-48 57-87l-38-137c-3-9-12-14-21-11z m369 127c15-39-8-81-47-92l-137-35c-9-3-19 3-21 11l-38 137a69 69 0 0 0 56 87c37 6 72-19 82-55l3-14 14 4c36 9 75-8 88-43zM484 834a484 484 0 1 0 1-968 484 484 0 0 0-1 968z m0-875a391 391 0 1 1 0 782 391 391 0 0 1 0-782z" horiz-adv-x="968.8" />
<glyph glyph-name="grin-squint-tears" unicode="&#xf586;" d="M229 100c12 2 23-9 21-22-7-50-27-164-60-197-43-42-113-42-157 2C-10-73-11-3 32 40c33 33 146 53 197 60z m-81 81c-38-7-68-16-92-24a484 484 0 0 0 665 624c-8-24-16-55-23-95a388 388 0 0 1-474-60 391 391 0 0 1-76-445z m688 367c40 7 71 15 95 23A485 485 0 0 0 307-94c9 24 17 54 24 92a388 388 0 0 1 445 76 391 391 0 0 1 60 474z m-65 52c-12-2-23 9-21 22 7 50 27 164 60 197 43 42 113 42 157-2 43-44 44-114 1-157-33-33-146-53-197-60zM406 389c6-6 8-15 6-23l-44-176c-3-11-12-18-23-18h-1c-12 1-21 10-22 21l-9 102-102 10a23 23 0 0 0-4 46l177 44c8 2 16 0 22-6z m78 49c-1 0-13-4-23 6-5 6-8 14-6 22l44 177c3 11 14 18 25 18 11-1 20-10 21-21l10-103 102-9a23 23 0 0 0 3-46z m101-173c57 57 104 116 128 164 9 18 34 19 45 3 55-76 12-209-59-281S494 37 418 91a27 27 0 0 0 3 46c48 25 107 71 164 128z" horiz-adv-x="1000" />
<glyph glyph-name="grin-squint" unicode="&#xf585;" d="M484 834a484 484 0 1 0 1-968 484 484 0 0 0-1 968z m0-875a391 391 0 1 1 0 782 391 391 0 0 1 0-782z m207 296c19 6 37-11 34-30-15-92-139-156-241-156s-225 64-240 156c-4 19 15 36 34 30 51-16 126-26 206-26s156 10 207 26z m-459 80c-7 8-7 21 0 30l66 79-66 79c-7 8-7 21 0 30 8 8 20 11 30 5l156-94a24 24 0 0 0 0-40l-156-94c-10-6-23-3-30 5z m475-5l-157 94a24 24 0 0 0 0 40l157 94c10 5 22 3 29-5 8-9 8-22 1-30l-66-79 66-79c7-9 7-21-1-30-7-8-19-11-29-5z" horiz-adv-x="968.8" />
<glyph glyph-name="grin-stars" unicode="&#xf587;" d="M484 834a484 484 0 1 0 1-968 484 484 0 0 0-1 968z m0-875a391 391 0 1 1 0 782 391 391 0 0 1 0-782z m207 296c19 6 37-11 34-30-15-92-139-156-241-156s-225 64-240 156c-4 20 15 36 34 30 51-16 126-26 206-26s156 10 207 26zM246 367l11 68-49 49c-9 9-4 24 8 25l68 10 31 62c5 11 21 11 27 0l30-62 68-10c12-2 17-17 9-25l-50-48 12-69c2-12-11-21-22-15l-61 32-61-32c-11-6-23 3-21 15z m507 142c12-2 17-16 8-25l-49-49 11-68c2-12-10-21-21-15l-61 32-61-32c-11-6-24 3-22 15l12 68-50 49c-9 9-3 24 9 25l68 10 30 62c6 11 22 11 27 0l31-62z" horiz-adv-x="968.8" />
<glyph glyph-name="grin-tears" unicode="&#xf588;" d="M229 350c12 2 23-9 21-21-7-51-27-164-60-198-43-42-113-41-157 2-43 44-44 114-1 157 33 33 146 53 197 60z m989-60c43-43 42-113-1-157-44-43-114-44-157-1-33 33-53 146-60 197-2 12 9 23 21 21 51-7 164-27 197-60zM971 170c24-73 49-86 55-91a484 484 0 0 0-802 0c6 5 31 17 55 90a391 391 0 0 1 692 1zM240 412c-5 0-10 4-97-14a484 484 0 0 0 964 0c-86 18-92 14-97 13a391 391 0 0 1-770 1zM625 69c-101 0-225 64-241 156-3 20 16 36 35 30 51-16 126-26 206-26s156 10 206 26c20 6 38-11 35-30-16-92-140-156-241-156z m255 329c-7-2-15 0-19 7l-18 33c-15 27-38 42-62 42s-46-15-61-42l-19-33c-4-7-11-10-18-8-7 3-12 9-11 17 6 82 63 139 109 139s103-57 110-139c0-8-5-14-12-16z m-411 82c-24 0-47-15-62-42l-18-33c-4-7-12-10-19-7-6 2-11 8-11 16 7 82 63 139 110 139s103-57 109-139c1-8-4-14-11-16-6-2-14 0-18 7l-19 33c-15 27-37 42-61 42z" horiz-adv-x="1250" />
<glyph glyph-name="grin-tongue-squint" unicode="&#xf58a;" d="M484 834a484 484 0 1 0 1-968 484 484 0 0 0-1 968zM609 53h1v86l-35 17c-29 15-61-4-68-32l-6-24c-4-18-29-18-33 0l-6 24c-6 28-39 46-68 32l-35-17V55c0-69 55-126 124-127 70-1 126 56 126 125z m55-49a391 391 0 1 1-360 0c-4 15-7 32-7 49v85c-28 24-48 54-53 87-4 19 15 36 34 30 51-16 126-26 206-26s156 10 207 26c19 6 38-11 34-30-5-33-25-63-53-87V53c0-17-3-34-7-49z m73 549c7-9 7-22 0-30l-66-79 66-79c7-9 7-21 0-30-7-8-20-11-30-5l-157 94a24 24 0 0 0 0 40l157 94c9 6 22 3 29-5z m-319-89a24 24 0 0 0 0-40l-156-94c-10-6-23-3-30 5-7 9-7 21 0 30l66 79-66 79c-7 8-7 21 0 30 8 9 20 11 30 5z" horiz-adv-x="968.8" />
<glyph glyph-name="grin-tongue-wink" unicode="&#xf58b;" d="M297 498c50 0 109-33 117-82 1-10-4-19-12-24-11-6-22-1-27 3l-19 17c-29 26-90 26-119 0l-18-17a23 23 0 0 0-39 21c8 49 67 82 117 82z m344 102a156 156 0 1 0 0-312 156 156 0 0 0 0 312z m0-250a94 94 0 1 1 0 188 94 94 0 0 1 0-188z m0 141a47 47 0 1 0 0-94c-26 0-47 21-47 47s21 47 47 47zM484 834a484 484 0 1 0 1-968 484 484 0 0 0-1 968zM609 53h1v86l-35 17c-29 15-61-4-68-32l-6-24c-4-18-29-18-33 0l-6 24c-6 28-39 46-68 32l-35-17V55c0-69 55-126 124-127 70-1 126 56 126 125z m55-49a391 391 0 1 1-360 0c-4 15-7 32-7 49v85c-28 24-48 54-53 87-4 19 15 36 34 30 51-16 126-26 206-26s156 10 207 26c19 6 38-11 34-30-5-33-25-63-53-87V53c0-17-3-34-7-49z" horiz-adv-x="968.8" />
<glyph glyph-name="grin-tongue" unicode="&#xf589;" d="M484 834a484 484 0 1 0 1-968 484 484 0 0 0-1 968zM609 53h1v86l-35 17c-29 15-61-4-68-32l-6-24c-4-18-29-18-33 0l-6 24c-6 28-39 46-68 32l-35-17V55c0-69 55-126 124-127 70-1 126 56 126 125z m55-49a391 391 0 1 1-360 0c-4 15-7 32-7 49v85c-28 24-48 54-53 87-4 19 15 36 34 30 51-16 126-26 206-26s156 10 207 26c19 6 38-11 34-30-5-33-25-63-53-87V53c0-17-3-34-7-49zM329 506a62 62 0 1 0 0-125 62 62 0 0 0 0 125z m313 0a62 62 0 1 0 0-125 62 62 0 0 0 0 125z" horiz-adv-x="968.8" />
<glyph glyph-name="grin-wink" unicode="&#xf58c;" d="M641 498c50 0 109-33 117-82 3-22-23-36-39-21l-19 17c-29 25-90 25-119 0l-19-17c-16-14-42-1-38 21 7 49 66 82 117 82zM328 381a63 63 0 1 0 0 125 63 63 0 0 0 0-125z m363-126c19 6 37-11 34-30-15-92-139-156-241-156s-225 64-240 156c-4 20 15 36 34 30 51-16 126-25 206-25s156 9 207 25zM484 834a484 484 0 1 0 0-968 484 484 0 0 0 0 968z m0-875a391 391 0 1 1 0 782 391 391 0 0 1 0-782z" horiz-adv-x="968.8" />
<glyph glyph-name="grin" unicode="&#xf580;" d="M484 834a484 484 0 1 0 1-968 484 484 0 0 0-1 968z m0-875a391 391 0 1 1 0 782 391 391 0 0 1 0-782z m207 296c19 6 37-11 34-30-15-92-139-156-241-156s-225 64-240 156c-4 19 15 36 34 30 51-16 126-26 206-26s156 10 207 26zM328 381a63 63 0 1 0 0 125 63 63 0 0 0 0-125z m313 0a63 63 0 1 0 0 125 63 63 0 0 0 0-125z" horiz-adv-x="968.8" />
<glyph glyph-name="hand-lizard-o" unicode="&#xf258;" d="M1087 283c25-38 38-83 38-128V-87H688V52l-195 76c-6 2-12 3-17 3H219c-61 0-110 49-110 110 0 94 78 172 172 172h222l36 93H156C70 506 0 576 0 663v15c0 60 49 110 109 110h574c48 0 92-24 118-65zM1031 6v149c0 28-8 55-22 76L723 673c-9 14-24 22-40 22H109c-8 0-15-7-15-16v-16c0-34 28-62 62-62h417c49 0 83-49 66-95l-48-126a94 94 0 0 0-88-60H281c-43 0-78-35-78-78 0-9 7-16 16-16h257c18 0 35-3 51-10l194-75c37-14 60-49 60-88V6h250z" horiz-adv-x="1125" />
<glyph glyph-name="hand-paper-o" unicode="&#xf256;" d="M728 630c78 11 147-50 147-130V243c0-30-3-60-10-89l-59-255c-7-29-32-49-61-49H310c-21 0-40 10-51 26L24 205c-41 58-28 139 29 182 37 27 82 32 121 17v247c0 86 80 147 161 127 47 94 180 98 231 1 83 22 162-43 162-128v-21z m53-387v257c0 49-71 50-71-1V350c0-17-14-31-31-31h-14c-17 0-31 14-31 31v301c0 50-71 52-71 1V350c0-17-14-31-32-31h-13c-17 0-31 14-31 31v368c0 50-72 51-72 1V350c0-17-14-31-31-31h-13c-18 0-32 14-32 31v299c0 50-71 52-71 2V247c0-30-39-42-57-18l-53 75c-28 39-85-5-57-44L326-56h394l54 231c5 23 7 45 7 68z" horiz-adv-x="875" />
<glyph glyph-name="hand-peace-o" unicode="&#xf25b;" d="M707 475c84 26 168-37 168-125V213c0-10-1-20-3-29L818-49c-14-59-66-101-126-101H290c-46 0-90 25-113 66L71 108c-37 67-11 131 49 180L10 571c-29 74 7 157 80 187 74 29 157-7 186-82l37-154-18 184c0 79 64 144 143 144s142-65 142-144V534c52 8 100-17 127-59z m74-262v137c0 49-71 49-71 0 0-17-14-31-31-31h-14c-17 0-31 14-31 31v55c0 49-72 49-72 0l1-55c0-17-14-31-32-31h-13c-17 0-31 14-31 31v355c0 68-99 68-99 1V350c0-17-14-31-31-31h-23c-13 0-24 8-29 20L189 642c-24 62-116 26-92-37l125-326c2-3 2-7 2-11 0-10-4-18-11-24l-52-43a38 38 0 0 1-9-47L259-38c7-11 18-18 31-18h402c16 0 31 11 35 28l53 233c1 2 1 5 1 8z" horiz-adv-x="875" />
<glyph glyph-name="hand-point-down" unicode="&#xf0a7;" d="M369-150c-88 0-163 74-163 163v168c-13-3-28-4-43-4C69 177 0 245 0 356c0 89 95 112 154 148 24 15 45 33 65 51 35 30 47 46 47 59v5a66 66 0 0 0-16 44v125c0 34 25 62 56 62h450c31 0 56-28 56-62l1-125c0-17-6-32-16-44v-5c0-56 78-131 78-248v-42c0-122-75-193-178-195-35-24-80-36-123-31-13-7-28-12-43-16V13c0-89-73-163-162-163z m0 94c37 0 69 31 69 69v177c28-25 83-28 119 10 38-22 89-3 105 25 76-13 119 20 119 99v42c0 88-70 150-77 234H359c-6-49-42-84-78-115-25-22-49-43-78-60-45-29-109-52-109-69 0-45 17-86 69-86 68 0 103 52 137 52V13c0-36 32-69 69-69z m272 781a47 47 0 1 1 93 0 47 47 0 0 1-93 0z" horiz-adv-x="875" />
<glyph glyph-name="hand-point-left" unicode="&#xf0a5;" d="M0 419c0 88 74 162 163 162h168c-3 14-4 28-4 44 0 94 68 163 179 163 89 0 112-95 148-154 15-25 33-46 51-65v-1c30-34 46-46 59-46h5c12 10 27 16 44 16h125c34 0 62-26 62-57V31c0-31-28-56-62-56H813c-17 0-32 6-44 16h-5c-56 0-131-78-248-78h-42C352-87 281-12 279 91c-24 34-36 79-31 122-7 14-13 28-16 43h-69C74 256 0 330 0 419z m94 0c0-37 31-69 69-69h177a88 88 0 0 1 10-119c-22-39-3-89 25-105C362 50 395 6 474 6h42c89 0 150 70 234 78v345c-49 6-84 41-115 77-22 25-43 50-60 78-29 46-52 110-69 110-45 0-86-17-86-69 0-69 52-104 52-137H163c-36 0-69-33-69-69z m781-272a47 47 0 1 1 0-94 47 47 0 0 1 0 94z" horiz-adv-x="1000" />
<glyph glyph-name="hand-point-right" unicode="&#xf0a4;" d="M838 581c88 0 162-74 162-162 0-89-74-163-162-163h-70c-4-15-9-29-16-43 5-43-7-88-31-122-2-103-73-178-195-178h-42C367-87 292-9 236-9h-5a66 66 0 0 0-43-16H63C28-25 0 0 0 31v450c0 31 28 57 63 57h125c16 0 32-6 43-16h5c13 0 29 12 59 46v1c18 19 36 40 51 65 36 59 59 153 148 153 111 1 179-68 179-162 0-15-1-30-4-44h168z m0-231c37 0 68 32 68 69 0 36-33 69-69 69H529c0 33 52 68 52 137 0 52-41 69-86 69-17 0-40-64-68-110-18-28-39-53-61-78-31-36-66-71-115-77V84c84-8 146-78 234-78h42c79 0 112 44 99 120 28 16 47 66 25 105 38 35 35 90 10 119h178zM172 100a47 47 0 1 1-94 0 47 47 0 0 1 94 0z" horiz-adv-x="1000" />
<glyph glyph-name="hand-point-up" unicode="&#xf0a6;" d="M206 688c0 88 75 162 163 162 89 0 162-74 162-162v-70c15-4 30-9 43-16 43 5 88-7 123-31 103-2 178-73 178-195v-42c0-117-78-192-78-248v-5c9-12 15-27 15-44l1-125c0-34-26-62-57-62H306c-31 0-56 28-56 63V38c0 16 6 32 16 43v5c0 14-12 29-47 59-20 18-41 36-65 51C95 232 0 255 0 344c0 111 69 179 163 179 0 0-1 0 0 0 15 0 29-1 43-4v168z m232 0c0 37-32 68-69 68s-69-33-69-69V379c-34 0-69 52-137 52-52 0-69-41-69-86 0-17 64-40 109-68 29-18 54-39 78-61 36-31 72-66 78-115h345c7 84 77 146 77 234v42c0 79-43 112-119 99-16 28-67 47-105 25a88 88 0 0 1-119 10v178zM688 22a47 47 0 1 1 0-94 47 47 0 0 1 0 94z" horiz-adv-x="875" />
<glyph glyph-name="hand-pointer-o" unicode="&#xf25a;" d="M700 500c84 32 175-31 175-123V213c0-10-1-20-3-29L818-49c-14-59-66-101-126-101H344c-42 0-81 20-105 54L24 205c-41 58-28 140 29 182 37 27 82 32 121 17v315a130 130 0 0 0 259 0V575c40 6 81-7 111-38 53 25 118 11 156-37zM158 304c-28 39-85-5-57-44L315-41c7-10 18-15 29-15h348c17 0 31 11 35 28l53 233c1 2 1 5 1 8v164c0 49-71 49-71 0 0-17-14-31-31-31h-14c-17 0-31 14-31 31v41c0 49-71 49-71 0v-41c0-17-14-31-32-31h-13c-17 0-31 14-31 31v69c0 49-72 49-72 0v-69c0-17-14-31-31-31h-13c-18 0-32 14-32 31v342c0 49-71 49-71 0V248c0-31-39-43-57-19zM344 69v187c0 17 12 31 27 31l12 1c15 0 27-14 27-32V69c0-18-12-32-27-32h-12c-15 0-27 14-27 32z m147 0v187c0 17 13 31 28 31l11 1c16 0 28-14 28-32V69c0-18-12-32-28-32h-11c-15 0-28 14-28 32z m148 0v187c0 17 12 31 27 31l12 1c15 0 27-14 27-32V69c0-18-12-32-27-32h-12c-15 0-27 14-27 32z" horiz-adv-x="875" />
<glyph glyph-name="hand-rock" unicode="&#xf255;" d="M799 696c95 40 201-30 201-133V339c0-30-6-59-18-87L898 58c-9-23-7-37-7-83 0-35-28-63-63-63H336c-35 0-63 28-63 63 0 53 3 57-6 64L77 205C28 248 0 309 0 373v111c0 93 88 160 178 139 4 109 124 172 216 119 57 60 154 61 212 0 63 36 149 20 193-46z m107-357v224c0 67-101 66-101 1 0-17-14-31-32-31h-13c-17 0-31 14-31 31v52c0 68-102 66-102 2v-54c0-17-14-31-31-31h-14c-17 0-31 14-31 31v79c0 67-102 66-102 2v-81c0-17-14-31-31-31h-14c-17 0-31 14-31 31v52c0 68-101 67-101 2V390a31 31 0 0 0-52-23l-14 11c-6 6-11 15-11 24v81c0 66-101 66-101 1V373c0-37 16-72 44-97l191-166c24-21 38-52 38-84V6h430v14c0 26 5 51 15 75l84 194c6 16 10 33 10 50z" horiz-adv-x="1000" />
<glyph glyph-name="hand-scissors-o" unicode="&#xf257;" d="M500-87C412-87 349-3 375 80c-42 27-66 76-59 127H145C65 207 0 271 0 350s65 143 145 143l183-18-154 37a142 142 0 0 0-82 185c30 73 113 109 187 81l283-109c49 60 113 86 180 48l192-107c41-23 66-66 66-113V96c0-60-42-113-101-126L666-84c-9-2-19-3-29-3z m0 93h137c3 0 6 1 8 1l233 54c17 4 28 18 28 35v401c0 13-7 25-18 31L696 635c-16 9-36 5-47-8l-43-52a31 31 0 0 0-35-10L245 690c-63 25-99-67-37-91l303-117c12-4 20-16 20-29v-23c0-17-14-31-31-31H145c-68 0-68-98 0-98h355c17 0 31-14 31-31v-14c0-17-14-31-31-31h-55c-49 0-49-71 0-71h55c17 0 31-14 31-32v-13c0-17-14-31-31-31-49 0-49-72 0-72z" horiz-adv-x="1000" />
<glyph glyph-name="hand-spock-o" unicode="&#xf259;" d="M979 623a143 143 0 0 0 17-109L884 42a249 249 0 0 0-242-192H431s-1 0-1 0c-80 0-152 31-206 82L45 100a143 143 0 0 0-6 203c11 12 59 58 133 43l-47 161a144 144 0 0 0 127 185c-1 4-1 9-1 14 0 67 46 123 108 139 84 22 157-34 175-103l27-104 9 44c14 65 72 115 141 115 17 0 110-6 138-106 29 2 92-6 130-68z m-74-87c15 64-82 88-98 23l-48-203c-9-36-62-23-55 12l55 272c15 70-84 88-97 23l-62-303c-7-33-56-35-64-1l-93 359c-16 64-114 40-97-25l83-322c9-37-46-53-57-16l-61 207c-19 64-115 36-96-29l70-237c13-44 20-90 20-137 0-13-16-21-27-11l-100 93c-48 46-117-27-68-73L288 0c37-35 87-56 143-56h210c74 0 135 51 151 119z" horiz-adv-x="1000" />
<glyph glyph-name="handshake-o" unicode="&#xf2b5;" d="M1014 600h236V101h-125c-34 0-62 28-62 62H950c-4-16-11-32-22-45l-51-63c-31-38-82-50-125-33A119 119 0 0 0 577 6c-63-43-146-41-207 8L205 163h-18c0-34-28-62-62-62H0v499h231l92 93c21 21 49 32 78 32h443c30 0 57-12 77-32zM94 163a31 31 0 1 1 0 63 31 31 0 0 1 0-63z m762 14c5 6 4 16-3 22L642 370l-16-14c-79-72-170-23-199 8-52 57-48 146 9 198l76 69H401c-4-1-7-2-11-4L269 507h-81V256h54L432 85c31-26 81-21 108 13l30 37 72-62c6-4 23-9 35 5l59 71 46-37c7-6 17-5 23 2z m207 79v250h-88L855 627c-3 3-7 4-11 4H681c-20 0-39-7-53-21L500 493a46 46 0 0 1-3-66c18-19 49-17 68 0l108 99c12 11 32 10 44-2l21-23c12-13 11-33-2-44l-24-23 200-162c6-5 11-10 15-16h135z m93-93a31 31 0 1 1 0 63 31 31 0 0 1 0-63z" horiz-adv-x="1250" />
<glyph glyph-name="hdd" unicode="&#xf0a0;" d="M1108 390c11-16 17-35 17-54V69c0-52-42-94-94-94H94C42-25 0 17 0 69v267c0 20 6 39 17 54l205 295c17 24 45 40 77 40h527c32 0 60-16 77-40zM299 631L147 413h831L826 631H299z m732-562v250H94V69h937z m-62 125a63 63 0 1 0-125 0 63 63 0 0 0 125 0z m-188 0a63 63 0 1 0-125 0 63 63 0 0 0 125 0z" horiz-adv-x="1125" />
<glyph glyph-name="heart-empty" unicode="&#xf004;" d="M895 724a296 296 0 0 0 21-432L573-57a102 102 0 0 0-147 0L85 292a295 295 0 0 0 21 432c113 95 287 81 395-29a294 294 0 0 0 395 29z m-46-366c71 72 86 211-14 295-76 63-193 54-267-21l-68-70-68 70c-74 75-191 84-267 21a201 201 0 0 1-14-295L493 9c5-5 9-5 14 0z" horiz-adv-x="1000" />
<glyph glyph-name="hospital" unicode="&#xf0f8;" d="M250 373v79c0 12 11 23 23 23h79c12 0 23-11 23-23v-79c0-13-11-23-23-23h-79c-12 0-23 11-23 23z m273-23c-12 0-23 11-23 23v79c0 12 11 23 23 23h79c13 0 23-11 23-23v-79c0-13-10-23-23-23h-79zM375 186c0-13-10-24-23-24h-79c-12 0-23 11-23 24v78c0 13 11 23 23 23h79c12 0 23-10 23-23v-78z m148-24c-12 0-23 11-23 24v78c0 13 11 23 23 23h79c13 0 23-10 23-23v-78c0-13-10-24-23-24h-79zM875-80v-70H0v70c0 13 11 24 23 24h39v740c0 23 21 41 46 41h173v78c0 26 21 47 47 47h219c26 0 47-21 47-47v-78h173c26 0 47-18 47-41V-56h38c13 0 23-11 23-24zM155-54h220V77c0 12 11 23 23 23h79c12 0 23-10 23-23V-54h220v685H594v-47c0-25-21-46-47-46H328c-26 0-47 21-47 46v47H155V-54z m365 779h-51v51c0 6-5 11-12 11l-39 1c-6 0-12-6-12-12v-51h-50c-7 0-12-5-12-12v-39c0-6 5-12 12-12h50v-50c0-7 6-12 12-12h39c7 0 12 5 12 12v50h51c6 0 11 6 11 12v39c0 7-5 12-12 12z" horiz-adv-x="875" />
<glyph glyph-name="hourglass-o" unicode="&#xf254;" d="M719 756c0-156-63-323-190-406 127-82 190-249 190-406h8c12 0 23-11 23-24v-47c0-12-11-23-23-23H23c-12 0-23 10-23 23v47c0 13 11 24 23 24h8c0 156 63 323 190 406C94 432 31 599 31 756h-8c-12 0-23 11-23 24v47c0 12 11 23 23 23h704c13 0 23-11 23-23v-47c0-13-10-24-23-24h-8z m-594 0c0-198 112-359 250-359s250 161 250 359H125zM625-56c0 198-112 359-250 359S125 142 125-56h500z" horiz-adv-x="750" />
<glyph glyph-name="id-badge" unicode="&#xf2c1;" d="M656 850c52 0 94-42 94-94V-56c0-52-42-94-94-94H94c-52 0-94 42-94 94v812c0 52 42 94 94 94h562z m0-906v812H94V-56h562zM281 631c-17 0-31 14-31 32s14 31 31 31h188a31 31 0 0 0 0-63H281z m94-343a125 125 0 1 0 0 250 125 125 0 0 0 0-250zM200 38c-24 0-44 16-44 37v38c0 62 59 112 132 112 22 0 35-16 87-16 51 0 66 16 88 16 72 0 131-50 131-112V75c0-21-20-37-44-37H200z" horiz-adv-x="750" />
<glyph glyph-name="id-card-o" unicode="&#xf2c2;" d="M1031 788c52 0 94-42 94-94V6c0-51-42-93-94-93H94C42-87 0-45 0 6v688c0 52 42 94 94 94h937z m0-782v563H94V6h64c-2 9-2-7-2 44 0 62 59 113 131 113 23 0 36-16 88-16 51 0 66 16 88 16 72 0 131-51 131-113 0-51 0-35-2-44h439zM703 163c-8 0-15 7-15 15v31c0 9 7 16 15 16h219c9 0 16-7 16-16v-31c0-9-7-16-16-16l-219 1z m0 125c-8 0-15 7-15 15v31c0 9 7 16 15 16h219c9 0 16-7 16-16v-31c0-8-7-15-16-15H703z m0 125c-8 0-15 7-15 15v31c0 9 7 16 15 16h219c9 0 16-7 16-16v-31c0-8-7-15-16-15H703zM375 225a125 125 0 1 0 0 250 125 125 0 0 0 0-250z" horiz-adv-x="1125" />
<glyph glyph-name="image" unicode="&#xf03e;" d="M906 725c52 0 94-42 94-94V69c0-52-42-94-94-94H94C42-25 0 17 0 69v562c0 52 42 94 94 94h812zM894 69c7 0 12 5 12 12v539c0 6-5 11-12 11H107c-7 0-12-5-12-11V81c0-7 5-12 11-12h790zM251 553a78 78 0 1 0 0-156 78 78 0 0 0 0 156z m-62-390v93l77 77c9 10 24 10 33 0l77-77 233 234c10 9 24 9 34 0l171-171V162H188z" horiz-adv-x="1000" />
<glyph glyph-name="images" unicode="&#xf302;" d="M938 38V6c0-51-42-93-94-93H94C42-87 0-45 0 6v500c0 52 42 94 94 94h31v-94h-19c-7 0-12-5-12-12V19c0-6 5-12 11-12h727c7 0 12 5 12 12v20h93z m82 656H293c-6 0-12-5-12-12V206c0-7 6-12 12-12h727c6 0 11 5 11 11v477c0 7-5 12-12 12z m11 94c52 0 94-42 94-94V194c0-52-42-94-94-94H281c-52 0-94 42-94 94v500c0 52 42 94 94 94h750zM516 569a78 78 0 1 0-157 0 78 78 0 0 0 157 0zM375 381l77 77c9 10 24 10 33 0l78-77 202 202c9 10 24 10 33 0l140-139V287H375v94z" horiz-adv-x="1125" />
<glyph glyph-name="keyboard" unicode="&#xf11c;" d="M1031 725c52 0 94-42 94-94V69c0-52-42-94-94-94H94C42-25 0 17 0 69v562c0 52 42 94 94 94h937z m16-656v562c0 9-7 16-16 16H94c-9 0-16-7-16-16V69c0-9 7-16 16-16h937c9 0 16 7 16 16zM332 323c0-13-10-24-23-24h-55c-13 0-23 11-23 24v54c0 13 10 24 23 24h55c13 0 23-11 23-24v-54z m188 0c0-13-11-24-24-24h-55c-12 0-23 11-23 24v54c0 13 11 24 23 24h55c13 0 24-11 24-24v-54z m187 0c0-13-10-24-23-24h-55c-13 0-24 11-24 24l1 54c0 13 10 24 23 24h55c13 0 23-11 23-24v-54z m188 0c0-13-11-24-24-24h-55c-13 0-23 11-23 24v54c0 13 11 24 23 24h55c13 0 24-11 24-24v-54zM238 163c0-13-10-24-23-24h-55c-13 0-23 11-23 23v55c0 13 10 24 23 24h55c13 0 23-11 23-24v-55z m750 0c0-13-10-24-23-24h-55c-13 0-23 11-23 23v55c0 13 10 24 23 24h55c13 0 23-11 23-24v-55zM238 483c0-13-10-24-23-24h-55c-13 0-23 11-23 24v55c0 12 10 23 23 23h55c13 0 23-11 23-24v-54z m188 0c0-13-11-24-24-24h-54c-13 0-24 11-24 24v55c0 12 11 23 24 23h54c13 0 24-11 24-24v-54z m187 0c0-13-10-24-23-24h-55c-13 0-23 11-23 24v55c0 12 10 23 23 23h55c13 0 23-11 23-24v-54z m188 0c0-13-11-24-24-24h-54c-13 0-24 11-24 24v55c0 12 11 23 24 23h54c13 0 24-11 24-24v-54z m187 0c0-13-10-24-23-24h-55c-13 0-23 11-23 24v55c0 12 10 23 23 23h55c13 0 23-11 23-24v-54zM797 174c0-13-11-23-24-23H352c-13 0-24 10-24 23v32c0 12 11 23 24 23h421c13 0 24-11 24-23v-32z" horiz-adv-x="1125" />
<glyph glyph-name="kiss-beam" unicode="&#xf597;" d="M328 553c47 0 103-57 109-139 1-8-4-14-11-16-6-2-14 0-18 7l-18 33c-16 27-38 42-62 42s-47-15-62-42l-18-33c-4-7-12-9-18-7-7 2-12 8-11 16 6 82 63 139 109 139z m156 281a484 484 0 1 0 1-968 484 484 0 0 0-1 968z m0-875a391 391 0 1 1 0 782 391 391 0 0 1 0-782z m110 289c0-25-26-53-69-71 43-17 69-45 69-70 0-38-56-81-140-86h-1a16 16 0 0 0-6 30l33 14c26 11 41 27 41 42s-15 31-41 42l-33 14c-12 5-11 24 0 29l33 14c26 11 41 27 41 42s-15 31-41 42l-33 14c-7 3-11 11-9 18 2 8 9 13 16 12 83-4 140-48 140-86z m47 305c46 0 103-57 109-139 0-8-4-14-11-17-6-2-14 0-19 8l-18 33c-15 27-37 42-62 42-24 0-46-15-61-42l-19-33c-3-7-11-10-18-8-7 3-11 9-11 17 7 82 63 139 110 139z" horiz-adv-x="968.8" />
<glyph glyph-name="kiss-wink-heart" unicode="&#xf598;" d="M594 248c0-26-26-54-69-72 43-17 69-45 69-70 0-37-56-81-140-86h-1a16 16 0 0 0-6 30l33 14c26 11 41 27 41 42s-15 32-41 42l-33 14c-12 5-11 25 0 29l33 14c26 11 41 27 41 42s-15 32-41 42l-33 14c-7 3-11 11-9 18 2 8 9 13 16 12 83-4 140-48 140-85z m137 163c-29 25-90 25-119 0l-18-17c-5-5-16-9-27-3-9 4-13 14-12 24 8 49 67 82 117 82s109-33 117-82c1-10-4-20-12-24-9-5-20-4-27 3z m-465 32a63 63 0 1 0 125 0 63 63 0 0 0-125 0zM979 64c18-47-9-97-56-109L761-87c-11-3-21 4-24 14L692 88a82 82 0 0 0 66 103c43 7 85-23 96-64l5-17 16 4c42 11 88-10 104-50zM652-2c35-125 22-77 27-92a484 484 0 1 0 257 268c-13 3-25 6-37 6-11 19-27 34-44 47A391 391 0 1 1 653-2z" horiz-adv-x="984.4" />
<glyph glyph-name="kiss" unicode="&#xf596;" d="M328 506a62 62 0 1 0 0-125 62 62 0 0 0 0 125z m266-258c0-25-26-53-69-71 43-17 69-45 69-70 0-38-56-81-140-86h-1a16 16 0 0 0-6 30l33 14c26 11 41 27 41 42s-15 31-41 42l-33 14c-12 5-11 24 0 29l33 14c26 11 41 27 41 42s-15 31-41 42l-33 14c-7 3-11 11-9 18 2 8 9 13 16 12 83-4 140-48 140-86zM484 834a484 484 0 1 0 1-968 484 484 0 0 0-1 968z m0-875a391 391 0 1 1 0 782 391 391 0 0 1 0-782z m157 547a62 62 0 1 0 0-125 62 62 0 0 0 0 125z" horiz-adv-x="968.8" />
<glyph glyph-name="laugh-beam" unicode="&#xf59a;" d="M484 834a484 484 0 1 0 1-968 484 484 0 0 0-1 968zM761 74a388 388 0 0 1 0 552 388 388 0 0 1-553 0 388 388 0 0 1 0-552 388 388 0 0 1 553 0zM641 553c46 0 103-57 109-139 1-17-21-24-29-9l-19 33c-15 27-37 42-62 42-24 0-46-15-61-42l-19-33c-8-15-30-8-29 9 7 82 63 139 110 139zM248 405c-8-15-31-8-29 9 6 82 62 139 109 139s103-57 109-139c2-17-21-24-29-9l-18 33c-15 27-38 42-62 42s-46-15-61-42z m460-118c16 1 28-13 26-29A237 237 0 0 0 498 53h-27c-121 0-222 90-236 205-2 16 10 29 26 29h447z" horiz-adv-x="968.8" />
<glyph glyph-name="laugh-squint" unicode="&#xf59b;" d="M484 834a484 484 0 1 0 1-968 484 484 0 0 0-1 968zM761 74a388 388 0 0 1 0 552 388 388 0 0 1-553 0 388 388 0 0 1 0-552 388 388 0 0 1 553 0z m-90 393l66-79c17-20-8-48-30-35l-157 94c-15 9-15 31 0 40l157 94c22 13 46-15 30-35zM262 353c-22-13-47 15-30 36l66 78-66 79c-17 20 8 48 30 35l156-94c16-9 16-31 0-40z m446-66c16 0 28-13 26-29A237 237 0 0 0 498 53h-27c-121 0-222 90-236 205-2 16 10 29 26 29h447z" horiz-adv-x="968.8" />
<glyph glyph-name="laugh-wink" unicode="&#xf59c;" d="M484 834a484 484 0 1 0 1-968 484 484 0 0 0-1 968zM761 74a388 388 0 0 1 0 552 388 388 0 0 1-553 0 388 388 0 0 1 0-552 388 388 0 0 1 553 0zM641 530c50 0 109-33 116-82 4-22-22-36-38-22l-19 17c-29 26-90 26-119 0l-19-17c-16-14-42 0-38 22 7 49 66 82 117 82zM328 413a62 62 0 1 0 0 124 62 62 0 0 0 0-124z m380-125c16 0 28-14 26-30A237 237 0 0 0 498 53h-27c-121 0-222 90-236 205-2 16 10 30 26 30h447z" horiz-adv-x="968.8" />
<glyph glyph-name="laugh" unicode="&#xf599;" d="M484 834a484 484 0 1 0 1-968 484 484 0 0 0-1 968zM761 74a388 388 0 0 1 0 552 388 388 0 0 1-553 0 388 388 0 0 1 0-552 388 388 0 0 1 553 0zM641 413a62 62 0 1 0 0 124 62 62 0 0 0 0-124z m-313 0a62 62 0 1 0 0 124 62 62 0 0 0 0-124z m380-125c16 0 28-14 26-30A237 237 0 0 0 498 53h-27c-121 0-222 90-236 205-2 16 10 29 26 29h447z" horiz-adv-x="968.8" />
<glyph glyph-name="lemon" unicode="&#xf094;" d="M946 796c55-55 70-133 37-190-45-77 98-319-161-578C564-230 321-88 244-133c-57-33-135-18-189 37C0-41-16 37 17 94c45 77-98 319 161 578 259 258 501 116 578 161 57 33 135 18 190-37z m-44-143c26 46-54 125-99 99-130-76-323 89-559-146C9 370 174 177 98 47 72 1 153-78 197-52c130 76 323-89 559 146 235 236 70 429 146 559z m-332-17c3-21-12-41-34-43-107-14-265-172-278-279a39 39 0 1 0-78 10c18 143 203 328 346 346 22 3 41-12 44-34z" horiz-adv-x="1000" />
<glyph glyph-name="life-ring" unicode="&#xf1cd;" d="M500-134a484 484 0 1 0 0 968 484 484 0 0 0 0-968zM298 16c124-75 281-75 404 0L598 120c-63-27-133-27-196 0z m358 334a156 156 0 1 1-312 0 156 156 0 0 1 312 0z m178-202c75 124 75 281 1 404L730 448c27-63 27-133 0-196zM703 685a391 391 0 0 1-404 0l104-105c63 27 133 27 196 0zM166 552a391 391 0 0 1 0-404l104 104c-27 63-27 133 0 196z" horiz-adv-x="1000" />
<glyph glyph-name="lightbulb" unicode="&#xf0eb;" d="M344 694a31 31 0 1 0 0-63c-69 0-125-56-125-125a31 31 0 0 0-63 0c0 104 84 188 188 188zM188-47l-1 85h313v-85c0-6-2-12-5-17l-48-72c-6-9-16-14-26-14H267c-11 0-21 5-26 14l-48 72c-4 5-5 11-5 17z m156 897a344 344 0 0 0 258-570c-32-37-83-115-102-180h-94c0 10 2 19 5 28 11 35 45 127 121 214a249 249 0 0 1-188 414 249 249 0 0 1-188-414c76-88 110-179 121-214 3-9 4-18 4-28h-94 1c-19 65-70 143-103 180a343 343 0 0 0 259 570z" horiz-adv-x="687.5" />
<glyph glyph-name="list-alt" unicode="&#xf022;" d="M906 788c52 0 94-42 94-94V6c0-51-42-93-94-93H94C42-87 0-45 0 6v688c0 52 42 94 94 94h812zM894 6c7 0 12 6 12 12v664c0 7-5 12-12 12H107c-7 0-12-5-12-12V18c0-6 5-12 11-12h790z m-81 180v-47c0-13-11-23-24-23H398c-13 0-23 10-23 23v47c0 13 11 23 23 23h391c13 0 23-10 23-23z m0 187v-46c0-13-11-24-24-24H398c-13 0-23 11-23 24v46c0 13 11 24 23 24h391c13 0 23-11 23-24z m0 188v-47c0-13-11-23-24-23H398c-13 0-23 10-23 23v47c0 13 11 23 23 23h391c13 0 23-10 23-23z m-493-23a70 70 0 1 0-140 0 70 70 0 0 0 140 0z m0-188a70 70 0 1 0-140 0 70 70 0 0 0 140 0z m0-187a70 70 0 1 0-140 0 70 70 0 0 0 140 0z" horiz-adv-x="1000" />
<glyph glyph-name="map-o" unicode="&#xf279;" d="M1094 788c16 0 31-14 31-32V80c0-26-16-49-39-58L789-81a127 127 0 0 0-78 0L375 38 43-85c-4-2-8-2-12-2C15-87 0-74 0-56v676c0 27 16 49 39 58l297 103a128 128 0 0 0 78 0l336-118 332 122c4 2 8 3 12 3zM438 673V115l250-88v558zM94 34l249 91 1 1v559L94 598V34z m937 68v565l-249-92-1-1V15z" horiz-adv-x="1125" />
<glyph glyph-name="meh-blank" unicode="&#xf5a4;" d="M484 834a484 484 0 1 0 1-968 484 484 0 0 0-1 968z m0-875a391 391 0 1 1 0 782 391 391 0 0 1 0-782zM328 506a62 62 0 1 0 0-125 62 62 0 0 0 0 125z m313 0a62 62 0 1 0 0-125 62 62 0 0 0 0 125z" horiz-adv-x="968.8" />
<glyph glyph-name="meh-rolling-eyes" unicode="&#xf5a5;" d="M484 834a484 484 0 1 0 1-968 484 484 0 0 0-1 968z m0-875a391 391 0 1 1 0 782 391 391 0 0 1 0-782z m172 594a141 141 0 1 0 0-281 141 141 0 0 0 0 281z m0-219c43 0 78 35 78 79 0 26-14 49-34 63 2-5 3-11 3-17a47 47 0 1 0-90 17 77 77 0 0 1-35-63c0-44 35-79 78-79z m-203 78a141 141 0 1 0-281 0 141 141 0 0 0 281 1z m-219 0a78 78 0 1 1 157 1c0 26-15 49-35 63a47 47 0 0 0-44-63c-25 0-46 20-46 46 0 6 1 12 3 17a77 77 0 0 1-35-63z m375-250c26 0 47-21 47-46s-21-47-47-47H359c-25 0-46 21-46 47s21 46 46 46h250z" horiz-adv-x="968.8" />
<glyph glyph-name="meh" unicode="&#xf11a;" d="M484 834a484 484 0 1 0 1-968 484 484 0 0 0-1 968z m0-875a391 391 0 1 1 0 782 391 391 0 0 1 0-782zM328 381a63 63 0 1 0 0 125 63 63 0 0 0 0-125z m313 125a62 62 0 1 0 0-125 62 62 0 0 0 0 125z m15-281a47 47 0 0 0 0-94H313a47 47 0 1 0 0 94h343z" horiz-adv-x="968.8" />
<glyph glyph-name="minus-square" unicode="&#xf146;" d="M211 295c-13 0-23 11-23 24v62c0 13 10 24 23 24h453c13 0 24-11 24-24v-62c0-13-11-24-24-24H211z m664 399V6c0-51-42-93-94-93H94C42-87 0-45 0 6v688c0 52 42 94 94 94h687c52 0 94-42 94-94zM781 18v664c0 7-5 12-12 12H107c-7 0-12-5-12-12V18c0-6 5-12 11-12h665c6 0 11 5 11 12z" horiz-adv-x="875" />
<glyph glyph-name="money-bill-alt" unicode="&#xf3d1;" d="M625 569c104 0 188-98 188-219s-84-219-188-219-187 98-187 219 83 219 187 219z m78-328v31c0 9-7 16-15 16h-32v171c0 9-7 16-15 16h-27c-10 0-19-3-26-8l-30-20a16 16 0 0 1-4-21l17-26a16 16 0 0 1 22-5l1 1V288h-32c-8 0-15-7-15-16v-31c0-9 7-16 15-16h125c9 0 16 7 16 16z m485 484c34 0 62-28 62-62V38c0-35-28-63-62-63H63C28-25 0 3 0 38v625c0 34 28 62 63 62h1125z m-32-531v312c-69 0-125 56-125 125H219c0-69-56-125-125-125V194c69 0 125-56 125-125h812c0 69 56 125 125 125z" horiz-adv-x="1250" />
<glyph glyph-name="moon" unicode="&#xf186;" d="M545-150a500 500 0 1 0 92 992 94 94 0 0 0 29-174 260 260 0 0 1 177-482 94 94 0 0 0 91-151 499 499 0 0 0-389-185z m0 906A406 406 0 1 1 861 94a354 354 0 0 0-242 656c-24 4-49 6-74 6z" horiz-adv-x="1000" />
<glyph glyph-name="newspaper" unicode="&#xf1ea;" d="M1078 725c26 0 47-21 47-47V22c0-26-21-47-47-47H109C49-25 0 24 0 84v532c0 26 21 47 47 47h83c13 36 48 62 89 62h859zM94 84c0-8 7-15 15-15s16 7 16 15v485H94V84z m937-15v562H219V84c0-5-1-10-1-15h813zM336 303c-13 0-24 11-24 24l1 187c0 13 10 24 23 24h266c12 0 23-11 23-24V327c0-13-11-24-23-24H336z m55 156v-78h156v78H391z m-79-273l1 47c0 13 10 23 23 23h266c12 0 23-10 23-23v-47c0-13-11-23-23-23H336c-13 0-24 10-24 23z m376 0v47c0 13 10 23 23 23h203c13 0 23-10 23-23v-47c0-13-10-23-23-23H711c-13 0-24 10-24 23z m0 281v47c0 13 10 24 23 24h203c13 0 23-11 23-24v-47c0-13-10-23-23-23H711c-13 0-24 10-24 23z m0-140v46c0 13 10 24 23 24h203c13 0 23-11 23-24v-46c0-13-10-24-23-24H711c-13 0-24 11-24 24z" horiz-adv-x="1125" />
<glyph glyph-name="object-group" unicode="&#xf247;" d="M977 600h-24V100h24c13 0 23-10 23-23V-64c0-13-10-23-23-23H836c-13 0-24 10-24 23l1 23H188v-23c0-13-11-23-24-23H23C11-88 0-77 0-64V77c0 12 11 23 23 23h24v500H23c-12 0-23 10-23 23v141c0 13 11 23 23 23h141c13 0 23-10 23-23l1-23h625v23c0 13 10 23 23 23h141c12 0 23-10 23-23V623c0-13-11-23-23-23zM875 725v-62h63v62h-63z m-812 0v-62h62v62H63z m62-750v63H63v-63h62z m813 0v63h-63v-63h63z m-79 125v500h-23c-13 0-24 11-24 23l1 24H188v-24c0-13-11-23-24-23h-23V100h23c13 0 23-10 23-23l1-24h625v24c0 12 10 23 23 23h23z m-70 375c13 0 24-10 24-23V123c0-12-11-23-24-23H398c-12 0-23 10-23 23v102H211c-13 0-23 10-23 23v329c0 12 10 23 23 23h391c13 0 23-11 23-23V475h164z m-523 47V303h281v219H266z m468-344v219H625V248c0-12-10-23-23-23H453v-47h281z" horiz-adv-x="1000" />
<glyph glyph-name="object-ungroup" unicode="&#xf248;" d="M1102 413h-24V100h24c12 0 23-10 23-23V-64c0-13-10-23-23-23H961c-13 0-24 10-24 23l1 23H500v-23c0-13-10-23-23-23H336c-13 0-24 10-24 23l1 141c0 12 10 23 23 23h23v47H188v-24c0-13-11-23-24-23H23c-12 0-23 10-23 23v141c0 13 11 23 23 23h24v313H23c-12 0-23 11-23 23v141c0 13 11 23 23 23h141c13 0 23-10 23-23l1-23h437v23c0 13 11 23 23 23h141c13 0 23-10 23-23V623c0-13-10-23-23-23h-23v-47h171v24c0 12 11 23 24 23h141c12 0 23-11 23-23V436c0-13-10-24-23-24zM688 725v-62h62v62h-62z m0-500v-62h62v62h-62z m-563-62v62H63v-62h62z m0 500v62H63v-62h62z m63-422h437v23c0 13 11 24 23 24h24v312h-24c-12 0-23 11-23 23v24H188v-24c0-13-11-23-24-23h-23V288h23c13 0 23-11 23-24l1-23zM438-25v63h-63v-63h63z m546 125v313h-23c-13 0-24 10-24 23l1 23H766V287l23 1c13 0 24-11 24-24V123c0-12-11-23-24-23H648c-12 0-23 10-23 23v24H453v-47h24c13 0 23-11 23-23V53h438v24c0 12 10 23 23 23h23z m78-125l1 63h-63v-63h63z m1 500v63h-63v-63h63z" horiz-adv-x="1125" />
<glyph glyph-name="paper-plane-empty" unicode="&#xf1d8;" d="M859 837a94 94 0 0 0 140-95L883-14a94 94 0 0 0-129-73L536 3l-86-115c-53-72-169-35-169 56v165L58 201a94 94 0 0 0-11 168zM375-56l72 96-72 30V-56zM790 0l116 756L94 288l210-88 413 360c28 24 68-11 47-41L490 124z" horiz-adv-x="1000" />
<glyph glyph-name="pause-circle-o" unicode="&#xf28b;" d="M500 834a484 484 0 1 0 0-968 484 484 0 0 0 0 968z m0-875a391 391 0 1 1 0 781 391 391 0 0 1 0-781z m188 547V194c0-17-15-32-32-32h-94c-17 0-31 15-31 32v312c0 17 14 31 31 31l94 1c17 0 31-15 31-32z m-219 0V194c0-17-14-32-31-32h-94c-17 0-31 15-31 32v312c0 17 14 31 31 31l94 1c17 0 31-15 31-32z" horiz-adv-x="1000" />
<glyph glyph-name="play-circle" unicode="&#xf144;" d="M726 385c32-18 32-64 0-82L382 106c-31-17-70 5-70 41l1 406c0 36 38 58 69 41z m258-35a484 484 0 1 0-968 0 484 484 0 0 0 968 0z m-875 0a391 391 0 1 1 781 0 391 391 0 0 1-781 0z" horiz-adv-x="1000" />
<glyph glyph-name="plus-square" unicode="&#xf0fe;" d="M688 381v-62c0-13-11-24-24-24H492V123c0-12-10-23-23-23h-63c-13 0-23 11-23 23v172H211c-13 0-23 11-23 24v62c0 13 10 24 23 24h172v172c0 12 10 23 23 23h63c13 0 23-11 23-23V405h172c13 0 24-11 24-24z m187 313V6c0-51-42-93-94-93H94C42-87 0-45 0 6v688c0 52 42 94 94 94h687c52 0 94-42 94-94zM781 18v664c0 7-5 12-12 12H107c-7 0-12-5-12-12V18c0-6 5-12 11-12h665c6 0 11 5 11 12z" horiz-adv-x="875" />
<glyph glyph-name="question-circle-o" unicode="&#xf059;" d="M500 834a484 484 0 1 0 0-969 484 484 0 0 0 0 969z m0-875a390 390 0 1 1 1 781 390 390 0 0 1-1-781z m210 499c0-131-142-133-142-182v-12c0-13-10-23-23-23h-90c-12 0-23 10-23 23v17c0 70 53 98 93 120 34 19 55 32 55 58 0 34-43 56-77 56-46 0-67-22-96-59-8-10-22-12-33-4l-54 41c-10 8-12 22-5 32 46 68 105 106 196 106 96 0 199-75 199-173zM582 131a82 82 0 1 0-164 0 82 82 0 0 0 164 0z" horiz-adv-x="1000" />
<glyph glyph-name="registered" unicode="&#xf25d;" d="M500 834a484 484 0 1 0 0-968 484 484 0 0 0 0 968z m0-875a390 390 0 1 1 0 781 390 390 0 0 1 0-781z m216 160c8-15-3-35-21-35h-83c-9 0-17 5-21 13l-93 174h-62V108c0-13-11-24-24-24h-75c-13 0-23 11-23 24v485c0 13 10 23 23 23h154c139 0 198-64 198-166 0-62-30-116-77-143 6-9 0 0 104-188zM502 381c41 0 63 23 63 64 0 38-13 62-76 62h-53V381h66z" horiz-adv-x="1000" />
<glyph glyph-name="sad-cry" unicode="&#xf5b3;" d="M484 834a484 484 0 1 0 1-968 484 484 0 0 0-1 968zM766 80a391 391 0 1 1-562 0l-1 223a47 47 0 1 0 94 0V7a390 390 0 0 1 375 0v296a47 47 0 1 0 94 0V80zM402 392c-11-6-22-1-27 3l-18 17c-29 26-91 26-120 0l-18-17a23 23 0 0 0-39 21c8 49 67 82 117 82s109-33 117-82c1-10-4-19-12-24z m270 106c50 0 109-33 117-82 1-10-4-19-12-24-11-6-22-1-27 3l-19 17c-29 26-90 26-119 0l-18-17a23 23 0 0 0-39 21c8 49 67 82 117 82zM484 319c61 0 110-56 110-125S545 69 484 69s-109 56-109 125 49 125 109 125z" horiz-adv-x="968.8" />
<glyph glyph-name="sad-tear" unicode="&#xf5b4;" d="M484 834a484 484 0 1 0 1-968 484 484 0 0 0-1 968z m0-875a391 391 0 1 1 0 782 391 391 0 0 1 0-782z m16 297c74 0 145-33 192-90a47 47 0 1 0-72-60c-30 36-73 56-120 56-26 0-47 22-47 47s21 47 47 47zM328 381a63 63 0 1 0 0 125 63 63 0 0 0 0-125z m313 125a62 62 0 1 0 0-125 62 62 0 0 0 0 125zM317 313c6 7 17 7 22 0 22-30 71-99 71-133 0-44-37-80-82-80s-82 36-82 80c0 34 49 103 71 133z" horiz-adv-x="968.8" />
<glyph glyph-name="save" unicode="&#xf0c7;" d="M848 596c17-17 27-40 27-66V6c0-51-42-93-94-93H94C42-87 0-45 0 6v688c0 52 42 94 94 94h523c26 0 50-11 67-28z m-317 98H281V538h250v156zM769 6c7 0 12 6 12 12v507c0 3-1 6-3 8L625 686V491c0-26-21-47-47-47H234c-26 0-47 21-47 47v203h-82c-6 0-11-6-11-12V18c0-6 5-12 11-12h665zM439 397a172 172 0 1 0-1-344 172 172 0 0 0 1 344z m0-250a78 78 0 1 1-1 156 78 78 0 0 1 1-156z" horiz-adv-x="875" />
<glyph glyph-name="share-square" unicode="&#xf14d;" d="M1098 541c36-36 36-96 0-132L816 127a94 94 0 0 0-160 67v105c-197-16-194-62-164-154 28-84-65-155-139-109a330 330 0 0 0-165 283c0 77 23 142 71 194 38 42 93 75 161 96 72 23 153 32 236 35v112a94 94 0 0 0 160 66zM750 194l281 281-281 281V553c-216-2-469-21-469-234 0-102 64-167 122-203-78 235 96 277 347 281V194z m48-165c15 4 29 10 41 18 16 10 36-2 36-20v-83c0-52-42-94-94-94H94c-52 0-94 42-94 94v687c0 52 42 94 94 94h258c12 0 23-10 23-23v-9c0-10-6-18-15-22-27-10-51-22-74-36-4-2-8-4-12-4H106c-7 0-12-5-12-11V-44c0-7 5-12 12-12h664c6 0 11 5 11 12V6c0 11 7 20 17 23z" horiz-adv-x="1125" />
<glyph glyph-name="smile-beam" unicode="&#xf5b8;" d="M484 834a484 484 0 1 0 1-968 484 484 0 0 0-1 968z m0-875a391 391 0 1 1 0 782 391 391 0 0 1 0-782z m164 281c17 19 46 22 66 6 20-17 23-47 7-66a307 307 0 0 0-473 0 47 47 0 0 0 72 60 212 212 0 0 1 328 0zM267 438l-19-33c-4-7-11-10-18-8-7 3-12 9-11 17 6 82 63 139 109 139s103-57 110-139c0-8-5-14-12-16-6-2-14 0-18 7l-18 33c-15 27-38 42-62 42s-46-15-61-42z m374 115c46 0 103-57 109-139 1-8-4-14-11-16-6-2-14 0-18 7l-19 33c-15 27-37 42-61 42s-47-15-62-42l-19-33a16 16 0 0 0-29 9c7 82 63 139 110 139z" horiz-adv-x="968.8" />
<glyph glyph-name="smile-wink" unicode="&#xf4da;" d="M484 834a484 484 0 1 0 1-968 484 484 0 0 0-1 968z m0-875a391 391 0 1 1 0 782 391 391 0 0 1 0-782z m231 286c19-16 22-46 6-66a307 307 0 0 0-473 0 47 47 0 0 0 72 60 212 212 0 0 1 328 0c17 20 46 23 66 6zM328 381a63 63 0 1 0 0 125 63 63 0 0 0 0-125z m313 117c50 0 109-33 116-82 4-22-22-35-38-21l-19 17c-29 25-90 25-119 0l-19-17c-16-14-42-1-38 21 7 49 66 82 117 82z" horiz-adv-x="968.8" />
<glyph glyph-name="smile" unicode="&#xf118;" d="M484 834a484 484 0 1 0 1-968 484 484 0 0 0-1 968z m0-875a391 391 0 1 1 0 782 391 391 0 0 1 0-782zM328 381a63 63 0 1 0 0 125 63 63 0 0 0 0-125z m313 0a63 63 0 1 0 0 125 63 63 0 0 0 0-125z m7-141c17 19 47 22 66 6 20-17 23-47 7-66a307 307 0 0 0-473 0 47 47 0 0 0 72 60 212 212 0 0 1 328 0z" horiz-adv-x="968.8" />
<glyph glyph-name="snowflake-o" unicode="&#xf2dc;" d="M860 156c14-8 19-27 10-42l-15-27c-9-15-27-20-42-12l-77 45 18-68c5-16-5-33-22-38l-29-8c-17-4-34 6-38 22l-42 158-140 83V104L597-12c12-12 12-32 0-44l-22-22a30 30 0 0 0-43 0l-49 49v-90c0-17-14-31-31-31h-30c-17 0-31 14-31 31v90l-48-50a30 30 0 0 0-44 0l-22 22a32 32 0 0 0 0 44l114 116v165l-140-82-42-158c-4-17-21-27-37-22l-30 8c-16 4-26 21-22 38l18 68-76-45c-15-9-34-4-42 11L4 113c-8 15-3 35 11 43l77 45-67 18c-16 5-26 22-21 39l8 30c4 16 21 26 37 22l156-42 141 82-141 82-156-42c-16-5-33 5-37 22l-8 30c-5 17 5 34 21 39l67 17-77 45c-14 9-19 28-11 43l16 27c8 15 27 20 42 12l76-45-18 68c-4 16 6 33 22 38l30 8c16 4 33-6 37-22l42-158 140-83v165L278 712a32 32 0 0 0 0 44l22 22c12 12 31 12 43 0l49-49v90c0 17 14 31 31 31h30c17 0 31-14 31-31v-90l49 50c12 12 31 12 43 0l22-22c12-13 12-32 0-45L484 597V432l140 82 42 158c4 17 21 27 38 22l29-8c17-4 26-21 22-38l-18-68 77 45c14 9 33 4 42-11l15-28c9-15 3-34-11-42l-77-45 67-18c16-5 26-22 22-39l-8-30c-5-17-22-27-38-22l-156 42-140-82 140-82 156 42c16 4 33-6 37-22l8-30c5-17-5-34-21-39l-67-18z" horiz-adv-x="875" />
<glyph glyph-name="square" unicode="&#xf0c8;" d="M781 788c52 0 94-42 94-94V6c0-51-42-93-94-93H94C42-87 0-45 0 6v688c0 52 42 94 94 94h687zM769 6c7 0 12 6 12 12v664c0 7-5 12-12 12H107c-7 0-12-5-12-12V18c0-6 5-12 11-12h665z" horiz-adv-x="875" />
<glyph glyph-name="star-half" unicode="&#xf089;" d="M563 98V-9L307-143a62 62 0 0 0-90 66l48 284L59 409a63 63 0 0 0 35 106l285 42 127 258c12 24 34 35 57 35V717L441 471l-271-40 196-191-46-270z" horiz-adv-x="1125" />
<glyph glyph-name="star-empty" unicode="&#xf005;" d="M1031 515c52-7 72-70 35-107L860 207l48-284c9-51-45-90-90-66L563-9 307-143a62 62 0 0 0-90 66l48 284L59 408a63 63 0 0 0 35 107l285 42 127 258c23 47 90 46 113 0l127-258zM759 240l197 191-272 40-121 246-122-246-271-40 196-191-46-270L563 97 805-30z" horiz-adv-x="1125" />
<glyph glyph-name="sticky-note-o" unicode="&#xf249;" d="M875 170c0-26-10-49-27-66L684-60a93 93 0 0 0-67-28H94C42-88 0-46 0 6v688c0 52 42 94 94 94h687c52 0 94-42 94-94V170zM625 14l149 149H625V14z m156 680H94V6h437v203c0 26 21 47 47 47h203v438z" horiz-adv-x="875" />
<glyph glyph-name="stop-circle-o" unicode="&#xf28d;" d="M984 350a484 484 0 1 0-968 0 484 484 0 0 0 968 0z m-875 0a391 391 0 1 1 781 0 391 391 0 0 1-781 0z m579 156V194c0-17-15-32-32-32l-312 1c-17 0-31 14-31 31v312c0 17 14 31 31 31h312c17 0 31-14 31-31z" horiz-adv-x="1000" />
<glyph glyph-name="sun" unicode="&#xf185;" d="M965 417a79 79 0 0 0 0-131l-116-80 26-138a79 79 0 0 0-92-93L644 2l-79-117a79 79 0 0 0-130 0L356 2 217-25c-26-5-52 3-71 22s-26 45-21 71l27 138-117 80a79 79 0 0 0 0 131l117 79-27 138a79 79 0 0 0 92 93l139-27 79 117c29 44 101 44 130 0l79-117 139 27a79 79 0 0 0 92-93l-27-138zM745 249l150 102-150 102 34 178-178-35-101 151-101-150-178 34 34-178-149-102 150-101-35-178 178 34L500-44l101 150 178-35zM500 553a203 203 0 1 0-1-407 203 203 0 0 0 1 407z m0-312a109 109 0 1 1 0 218 109 109 0 0 1 0-218z" horiz-adv-x="1000" />
<glyph glyph-name="surprise" unicode="&#xf5c2;" d="M484 834a484 484 0 1 0 1-968 484 484 0 0 0-1 968z m0-875a391 391 0 1 1 0 782 391 391 0 0 1 0-782z m0 344a125 125 0 1 0 0-250 125 125 0 0 0 0 250z m-93 141a62 62 0 1 0-125 0 62 62 0 0 0 125 0z m250 62a62 62 0 1 0 0-125 62 62 0 0 0 0 125z" horiz-adv-x="968.8" />
<glyph glyph-name="thumbs-down" unicode="&#xf165;" d="M911 410c17-29 27-60 27-97 0-86-73-168-168-168h-71c9-25 17-55 17-90 0-143-74-205-186-205-120 0-114 185-140 212-45 44-97 130-135 163h-13a62 62 0 0 0-55-31H64c-35 0-63 28-63 62v469c0 35 28 63 63 63h125c15 0 30-6 41-16h21c80 0 143 78 345 78 14 0 30 0 44 0 150 0 218-77 220-186 26-36 40-84 34-131 19-36 27-79 18-123zM125 272a47 47 0 1 1 0 94 47 47 0 0 1 0-94z m645-33c41 0 74 37 74 74s-25 74-44 74c27 28 32 88-10 128 25 41 2 97-27 113 15 95-34 128-104 128h-74c-140 0-230-74-335-74V319h21c56 0 133-139 185-191 55-55 37-147 74-184 92 0 92 64 92 111 0 76-55 110-55 184h203z" horiz-adv-x="1000" />
<glyph glyph-name="thumbs-up" unicode="&#xf164;" d="M911 290c9-44 1-87-18-123 6-47-8-95-34-131-2-109-70-186-220-186-14 0-30 0-44 0-200 0-260 76-347 78-7-27-31-47-60-47H63C28-119 0-91 0-56v469c0 34 28 62 63 62h192c38 33 90 119 135 163 26 27 20 212 140 212 112 0 186-62 186-204 0-36-8-66-17-91h71c95 0 167-82 167-168 1-37-9-68-26-97zM790 185c42 40 37 100 10 128 19 0 44 37 44 74s-33 74-74 74H567c0 74 55 108 55 184 0 47 0 111-92 111-37-37-19-129-74-184-52-52-129-191-185-191h-21V18c105 0 195-74 335-74h74c70 0 119 33 104 128 29 16 52 72 27 113zM172 6a47 47 0 1 1-94 0 47 47 0 0 1 94 0z" horiz-adv-x="1000" />
<glyph glyph-name="times-circle" unicode="&#xf057;" d="M500 834a484 484 0 1 0 0-968 484 484 0 0 0 0 968z m0-875a391 391 0 1 1 0 781 391 391 0 0 1 0-781z m199 513L577 350l122-121c9-10 9-24 0-34l-44-44c-10-9-24-9-34 0L500 273 379 151c-10-9-24-9-34 0l-44 44c-9 10-9 24 0 34l122 121-122 122c-9 9-9 24 0 33l44 44c10 9 24 9 34 0l121-122 122 122c9 9 24 9 33 0l44-44c9-9 9-24 0-33z" horiz-adv-x="1000" />
<glyph glyph-name="tired" unicode="&#xf5c8;" d="M484 834a484 484 0 1 0 1-968 484 484 0 0 0-1 968z m0-875a391 391 0 1 1 0 782 391 391 0 0 1 0-782z m253 594c7-9 7-22 0-31l-66-78 66-79c7-9 7-21 0-30-7-8-20-11-30-5l-157 94a24 24 0 0 0 0 40l157 94c9 5 22 3 29-5zM430 444c0-9-5-16-12-20l-156-94c-10-6-23-3-30 5-7 9-7 21 0 30l66 79-66 79c-7 8-7 21 0 30 8 8 20 11 30 5l156-94c7-4 12-12 12-20z m54-125c89 0 197-75 211-183 3-23-14-42-30-34-45 18-110 29-181 29s-136-11-180-29c-17-8-33 11-30 34 13 108 122 183 210 183z" horiz-adv-x="968.8" />
<glyph glyph-name="trash-alt" unicode="&#xf2ed;" d="M523 38c-12 0-23 10-23 23v422c0 13 11 23 23 23h47c13 0 24-10 24-23V61c0-13-11-23-24-23h-47z m321 656c17 0 31-14 31-31v-32c0-17-14-31-31-31h-32l1-656c0-52-42-94-94-94H156c-52 0-94 42-94 94v656H31c-17 0-31 14-31 31v32c0 17 14 31 31 31h161l67 111c16 27 46 45 80 45h197c34 0 64-18 80-45l67-111h161z m-508 57l-34-57h272l-35 57c-2 3-5 5-10 5H346c-5 0-8-2-10-5zM719-56v656H156V-56h563zM305 38c-13 0-24 10-24 23v422c0 13 11 23 24 23h47c12 0 23-10 23-23V61c0-13-11-23-23-23h-47z" horiz-adv-x="875" />
<glyph glyph-name="user-circle-o" unicode="&#xf2bd;" d="M484 647a188 188 0 1 0 0-375 188 188 0 0 0 0 375z m0-281a94 94 0 1 1 0 187 94 94 0 0 1 0-187z m0 468a484 484 0 1 0 1-968 484 484 0 0 0-1 968z m0-875c97 0 186 36 254 95-29 45-78 75-135 77a391 391 0 0 0-237 0c-57-2-107-32-136-77 69-59 157-95 254-95z m318 165a391 391 0 1 1-635 0c48 61 121 101 205 101 20 0 51-19 112-19 62 0 93 19 113 19 84 0 157-40 205-101z" horiz-adv-x="968.8" />
<glyph glyph-name="user-o" unicode="&#xf007;" d="M613 256c144 0 262-117 262-262v-50c0-52-42-94-94-94H94c-52 0-94 42-94 94v50c0 145 118 262 263 262 56 0 83-31 175-31s118 31 175 31zM781-56v50c0 93-76 169-169 169-28 0-73-32-174-32s-147 32-175 32C170 163 94 87 94-6v-50h687zM438 288a281 281 0 1 0 0 562 281 281 0 0 0-1-562z m0 468a188 188 0 1 1 0-375 188 188 0 0 1 0 375z" horiz-adv-x="875" />
<glyph glyph-name="window-close-o" unicode="&#xf410;" d="M906 788c52 0 94-42 94-94V6c0-51-42-93-94-93H94C42-87 0-45 0 6v688c0 52 42 94 94 94h812z m0-770v664c0 7-5 12-12 12H107c-7 0-12-5-12-12V18c0-6 5-12 11-12h790c6 0 11 5 11 12zM696 470L576 350l120-120c9-9 9-24 0-33l-43-43c-9-9-24-9-33 0L500 274 380 154c-9-9-24-9-33 0l-43 43c-9 9-9 24 0 33l120 120-120 120c-9 9-9 24 0 33l43 43c9 9 24 9 33 0l120-120 120 120c9 9 24 9 33 0l43-43c9-9 9-24 0-33z" horiz-adv-x="1000" />
<glyph glyph-name="window-maximize" unicode="&#xf2d0;" d="M906 788c52 0 94-42 94-94V6c0-51-42-93-94-93H94C42-87 0-45 0 6v688c0 52 42 94 94 94h812z m0-770v457H94V18c0-6 5-12 11-12h790c6 0 11 5 11 12z" horiz-adv-x="1000" />
<glyph glyph-name="window-minimize" unicode="&#xf2d1;" d="M938-87H63a62 62 0 1 0 0 125h875a62 62 0 1 0 0-125z" horiz-adv-x="1000" />
<glyph glyph-name="window-restore" unicode="&#xf2d2;" d="M906 850c52 0 94-42 94-94V131c0-51-42-93-94-93h-94l1-94c0-52-42-94-94-94H94c-52 0-94 42-94 94v625c0 52 42 94 94 94h94v93c0 52 42 94 93 94h625zM719-56v406H94V-56h625z m187 187v625H281v-93h438c51 0 93-42 93-94l1-438h93z" horiz-adv-x="1000" />
</font>
</defs>
</svg>
