<svg height="512" width="512" xmlns="http://www.w3.org/2000/svg"><path d="M157.5 272h37L176 218.8zM352 256c-13.2 0-24 10.8-24 24s10.8 24 24 24 24-10.8 24-24-10.8-24-24-24M464 64H48C21.5 64 0 85.5 0 112v288c0 26.5 21.5 48 48 48h416c26.5 0 48-21.5 48-48V112C512 85.5 490.5 64 464 64M250.6 352h-17c-6.8 0-12.8-4.3-15.1-10.7L211.2 320h-70.3l-7.4 21.3A16 16 0 0 1 118.4 352h-17c-11 0-18.7-10.9-15.1-21.2L140 176.1A24 24 0 0 1 162.7 160h26.6a24 24 0 0 1 22.7 16.1l53.7 154.7c3.6 10.3-4.1 21.2-15.1 21.2M424 336c0 8.8-7.2 16-16 16h-16c-4.9 0-9-2.3-12-5.7-8.6 3.7-18.1 5.7-28 5.7-39.7 0-72-32.3-72-72s32.3-72 72-72c8.5 0 16.5 1.7 24 4.4V176c0-8.8 7.2-16 16-16h16c8.8 0 16 7.2 16 16z"/></svg>