<svg height="1000" width="875" xmlns="http://www.w3.org/2000/svg"><path d="M851.6 312.5c12.9 0 23.4 -10.5 23.4 -23.4v-78.2c0 -12.9 -10.5 -23.4 -23.4 -23.4h-39.1V93.8C812.5 42 770.5 0 718.8 0h-625C42 0 0 42 0 93.8v812.5C0 958 42 1000 93.8 1000h625c51.7 0 93.7 -42 93.7 -93.7v-93.8h39.1c12.9 0 23.4 -10.5 23.4 -23.4v-78.2c0 -12.9 -10.5 -23.4 -23.4 -23.4h-39.1v-125h39.1c12.9 0 23.4 -10.5 23.4 -23.4v-78.2c0 -12.9 -10.5 -23.4 -23.4 -23.4h-39.1v-125h39.1zM718.8 906.3h-625V93.8h625v812.5zM406.3 500c68.9 0 125 -56.1 125 -125S475.2 250 406.3 250s-125 56.1 -125 125 56 125 125 125zm-175 250h350c24.2 0 43.7 -16.8 43.7 -37.5V675C625 612.9 566.2 562.5 493.8 562.5c-21.1 0 -36.6 15.6 -87.5 15.6 -52.6 0 -65.3 -15.6 -87.5 -15.6 -72.5 0 -131.3 50.4 -131.3 112.5v37.5c0 20.7 19.5 37.5 43.8 37.5z"/></svg>