<svg height="1000" width="1125" xmlns="http://www.w3.org/2000/svg"><path d="M1031.3 62.5c51.7 0 93.7 42 93.7 93.8v687.5c0 51.7 -42 93.7 -93.7 93.7H93.8C42 937.5 0 895.5 0 843.8V156.3C0 104.5 42 62.5 93.8 62.5h937.5zm0 781.3V156.3H93.8v687.5h937.5zM406.3 500c-69 0 -125 -56.1 -125 -125s56 -125 125 -125 125 56.1 125 125 -56.1 125 -125 125zm-175 250c-24.3 0 -43.8 -16.8 -43.8 -37.5V675c0 -62.1 58.8 -112.5 131.2 -112.5 22.3 0 35 15.6 87.5 15.6 51 0 66.5 -15.6 87.5 -15.6 72.5 0 131.3 50.4 131.3 112.5v37.5c0 20.7 -19.5 37.5 -43.8 37.5H231.3zM703.1 625c-8.6 0 -15.6 -7 -15.6 -15.6v-31.3c0 -8.6 7 -15.6 15.6 -15.6h218.8c8.6 0 15.6 7 15.6 15.6v31.3c0 8.6 -7 15.6 -15.6 15.6H703.1zm0 -125c-8.6 0 -15.6 -7 -15.6 -15.6v-31.3c0 -8.6 7 -15.6 15.6 -15.6h218.8c8.6 0 15.6 7 15.6 15.6v31.3c0 8.6 -7 15.6 -15.6 15.6H703.1zm0 -125c-8.6 0 -15.6 -7 -15.6 -15.6v-31.3c0 -8.6 7 -15.6 15.6 -15.6h218.8c8.6 0 15.6 7 15.6 15.6v31.3c0 8.6 -7 15.6 -15.6 15.6H703.1z"/></svg>