<svg height="1000" width="1125" xmlns="http://www.w3.org/2000/svg"><path d="M1031.3 62.5H93.8C42 62.5 0 104.5 0 156.3v687.5c0 51.7 42 93.7 93.8 93.7h937.5c51.7 0 93.7 -42 93.7 -93.7V156.3c0 -51.8 -42 -93.8 -93.7 -93.8zm0 781.3H93.8V156.3h937.5v687.5zM406.3 500c68.9 0 125 -56.1 125 -125S475.2 250 406.3 250s-125 56.1 -125 125 56 125 125 125zm-175 250h350c24.2 0 43.7 -16.8 43.7 -37.5V675C625 612.9 566.2 562.5 493.8 562.5c-21.1 0 -36.6 15.6 -87.5 15.6 -52.6 0 -65.3 -15.6 -87.5 -15.6 -72.5 0 -131.3 50.4 -131.3 112.5v37.5c0 20.7 19.5 37.5 43.8 37.5zM703.1 625h218.8c8.6 0 15.6 -7 15.6 -15.6v-31.3c0 -8.6 -7 -15.6 -15.6 -15.6H703.1c-8.6 0 -15.6 7 -15.6 15.6v31.3c0 8.6 7 15.6 15.6 15.6zm0 -125h218.8c8.6 0 15.6 -7 15.6 -15.6v-31.3c0 -8.6 -7 -15.6 -15.6 -15.6H703.1c-8.6 0 -15.6 7 -15.6 15.6v31.3c0 8.6 7 15.6 15.6 15.6zm0 -125h218.8c8.6 0 15.6 -7 15.6 -15.6v-31.3c0 -8.6 -7 -15.6 -15.6 -15.6H703.1c-8.6 0 -15.6 7 -15.6 15.6v31.3c0 8.6 7 15.6 15.6 15.6z"/></svg>