<svg height="1000" width="875" xmlns="http://www.w3.org/2000/svg"><path d="M851.6 312.5h-39.1v125h39.1c12.9 0 23.4 10.5 23.4 23.4v78.2c0 12.9 -10.5 23.4 -23.4 23.4h-39.1v125h39.1c12.9 0 23.4 10.5 23.4 23.4v78.2c0 12.9 -10.5 23.4 -23.4 23.4h-39.1v93.8c0 51.7 -42 93.7 -93.7 93.7h-625C42 1000 0 958 0 906.3V93.8C0 42 42 0 93.8 0h625c51.7 0 93.7 42 93.7 93.8v93.7h39.1c12.9 0 23.4 10.5 23.4 23.4v78.2c0 12.9 -10.5 23.4 -23.4 23.4zM718.8 906.3V93.8h-625v812.5h625zM406.3 500c-69 0 -125 -56.1 -125 -125s56 -125 125 -125 125 56.1 125 125 -56.1 125 -125 125zm-175 250c-24.3 0 -43.8 -16.8 -43.8 -37.5V675c0 -62.1 58.8 -112.5 131.2 -112.5 22.3 0 35 15.6 87.5 15.6 51 0 66.5 -15.6 87.5 -15.6 72.5 0 131.3 50.4 131.3 112.5v37.5c0 20.7 -19.5 37.5 -43.8 37.5H231.3z"/></svg>