<svg height="512" width="512" xmlns="http://www.w3.org/2000/svg"><path d="M224 160H96C43 160 0 203 0 256v224c0 17.6 14.4 32 32 32h256c17.6 0 32-14.4 32-32V256c0-53-43-96-96-96m-64 256c-44.1 0-80-35.9-80-80s35.9-80 80-80 80 35.9 80 80-35.9 80-80 80M224 32C224 14.4 209.6 0 192 0h-64C110.4 0 96 14.4 96 32v96h128zm157.8 19.6C383 51 384 49.4 384 48s-1-3-2.2-3.6L352 32 339.6 2.2C339 1 337.4 0 336 0s-3 1-3.6 2.2L320 32l-29.8 12.4C289 45 288 46.6 288 48s1 3 2.2 3.6L320 64l12.4 29.8c.6 1.2 2.2 2.2 3.6 2.2s3-1 3.6-2.2L352 64zM448 64l12.4 29.8c.6 1.2 2.2 2.2 3.6 2.2s3-1 3.6-2.2L480 64l29.8-12.4C511 51 512 49.4 512 48s-1-3-2.2-3.6L480 32 467.6 2.2C467 1 465.4 0 464 0s-3 1-3.6 2.2L448 32l-29.8 12.4C417 45 416 46.6 416 48s1 3 2.2 3.6zm32 160-12.4-29.8C467 193 465.4 192 464 192s-3 1-3.6 2.2L448 224l-29.8 12.4c-1.2.6-2.2 2.2-2.2 3.6s1 3 2.2 3.6L448 256l12.4 29.8c.6 1.2 2.2 2.2 3.6 2.2s3-1 3.6-2.2L480 256l29.8-12.4c1.2-.6 2.2-2.2 2.2-3.6s-1-3-2.2-3.6zm-34.2-76.4c1.2-.6 2.2-2.2 2.2-3.6s-1-3-2.2-3.6L416 128 403.6 98.2C403 97 401.4 96 400 96s-3 1-3.6 2.2L384 128l-29.8 12.4c-1.2.6-2.2 2.2-2.2 3.6s1 3 2.2 3.6L384 160l12.4 29.8c.6 1.2 2.2 2.2 3.6 2.2s3-1 3.6-2.2L416 160z"/></svg>