<svg height="512" width="448" xmlns="http://www.w3.org/2000/svg"><path d="M224 373.1c-25.2-31.7-40.1-59.4-45-83.2-22.6-88 112.6-88 90.1 0-5.5 24.3-20.3 52-45 83.2zm138.1 73.3c-42 18.3-83.6-10.9-119.3-50.5 104-130.1 46.2-200-18.8-200-54.9 0-85.2 46.5-73.3 100.5 6.9 29.2 25.2 62.4 54.4 99.5-32.5 36-60.5 52.7-85.1 54.9C70 458.2 30.9 409.7 48.7 359.7 63.8 320.6 160.4 128.5 164.6 118.2c15.7-30.1 25.5-57.4 59.3-57.4 32.4 0 43.4 25.9 60.4 59.8 36 70.6 89.4 177.5 114.9 239.1 13.1 33.1-1.4 71.3-37.1 86.7m47-136.2C280.3 35.9 273.1 32 224 32c-45.5 0-64.9 31.7-84.7 72.8C33.2 317.1 22.9 347.2 22 349.8-3.2 419.1 48.7 480 111.6 480c21.7 0 60.6-6.1 112.4-62.4 58.7 63.8 101.3 62.4 112.4 62.4 62.9.1 114.8-60.9 89.6-130.2 0-3.9-16.8-38.9-16.8-39.6z"/></svg>