<svg height="512" width="448" xmlns="http://www.w3.org/2000/svg"><path d="M432 160H16A16 16 0 0 0 0 176v32a16 16 0 0 0 16 16h416a16 16 0 0 0 16-16v-32a16 16 0 0 0-16-16m0 256H16A16 16 0 0 0 0 432v32a16 16 0 0 0 16 16h416a16 16 0 0 0 16-16v-32a16 16 0 0 0-16-16M108.1 96h231.8A12.1 12.1 0 0 0 352 83.9V44.1A12.1 12.1 0 0 0 339.9 32H108.1A12.1 12.1 0 0 0 96 44.1v39.8A12.1 12.1 0 0 0 108.1 96m231.8 256A12.1 12.1 0 0 0 352 339.9v-39.8A12.1 12.1 0 0 0 339.9 288H108.1A12.1 12.1 0 0 0 96 300.1v39.8a12.1 12.1 0 0 0 12.1 12.1z"/></svg>