<svg height="512" width="448" xmlns="http://www.w3.org/2000/svg"><path d="M16 224h416a16 16 0 0 0 16-16v-32a16 16 0 0 0-16-16H16A16 16 0 0 0 0 176v32a16 16 0 0 0 16 16m416 192H16A16 16 0 0 0 0 432v32a16 16 0 0 0 16 16h416a16 16 0 0 0 16-16v-32a16 16 0 0 0-16-16m3.2-384H172.8A12.8 12.8 0 0 0 160 44.8v38.4A12.8 12.8 0 0 0 172.8 96h262.4A12.8 12.8 0 0 0 448 83.2V44.8A12.8 12.8 0 0 0 435.2 32m0 256H172.8A12.8 12.8 0 0 0 160 300.8v38.4a12.8 12.8 0 0 0 12.8 12.8h262.4A12.8 12.8 0 0 0 448 339.2v-38.4A12.8 12.8 0 0 0 435.2 288"/></svg>