<svg height="512" width="448" xmlns="http://www.w3.org/2000/svg"><path d="M12.8 352h262.4A12.8 12.8 0 0 0 288 339.2v-38.4A12.8 12.8 0 0 0 275.2 288H12.8A12.8 12.8 0 0 0 0 300.8v38.4A12.8 12.8 0 0 0 12.8 352m0-256h262.4A12.8 12.8 0 0 0 288 83.2V44.8A12.8 12.8 0 0 0 275.2 32H12.8A12.8 12.8 0 0 0 0 44.8v38.4A12.8 12.8 0 0 0 12.8 96M432 160H16A16 16 0 0 0 0 176v32a16 16 0 0 0 16 16h416a16 16 0 0 0 16-16v-32a16 16 0 0 0-16-16m0 256H16A16 16 0 0 0 0 432v32a16 16 0 0 0 16 16h416a16 16 0 0 0 16-16v-32a16 16 0 0 0-16-16"/></svg>