<svg height="512" width="448" xmlns="http://www.w3.org/2000/svg"><path d="M377.7 32H70.3C31.4 32 0 63.4 0 102.3v307.4C0 448.6 31.4 480 70.3 480h307.4c38.6 0 69.8-31.1 70.3-69.6C402 384.8 337.4 350.1 276.4 322c-32.1 43.9-84.1 81-148.6 81C57.2 403 34 357.7 30.7 326.6c-3.9-39 14.9-81.5 99.6-81.5 35.3 0 79.3 10.2 127.1 24.9 16.5-30 26.4-60.3 26.4-60.3H105.6V193h92.1v-31.2H88.3v-19h109.4V92.3h50.9v50.5h109.5v19H248.6V193h88.8s-15.2 46.6-38.4 90.9c49 16.7 100.1 36.1 148.7 52.8V102.3C447.8 63.6 416.4 32 377.7 32M47.3 322.9c1 20.2 10.2 53.8 69.9 53.8 52.1 0 92.6-39.7 117.9-72.9C190.5 285.1 150.6 272.4 125.6 272.4c-67.4 0-79.3 33-78.3 50.5"/></svg>