<svg height="512" width="640" xmlns="http://www.w3.org/2000/svg"><path d="M290.5 189c-20.2-10.1-44.1-11.2-64.7-3.9 42.6 0 71.2 20.5 85.6 50.6 8.6 17.9-5.2 38.1-23.6 38.1 18.4 0 32.2 20.1 23.6 38.1-14.7 30.8-46.1 50.8-80.3 50.8-.6 0-94.5-8.6-94.5-8.6l-66.4 33.4c-9.4 4.6-19.8.3-23.9-7.8l-44.4-89C-2.3 282.1.7 271.9 8.8 267.1l58.1-33L108 159.9c6.4-57.3 34.7-109.8 79.7-146.8 11.4-9.4 28.4-7.7 37.6 3.6 9.4 11.4 7.7 28.1-3.7 37.6C209.1 64.8 198 76.8 189.1 89.8c21.7-14.7 46.7-24.7 74.2-28 14.7-2 28.1 8.3 29.7 23 2 14.8-8.3 28.1-23 29.8-16.1 1.9-31.1 7.5-44.2 15.2 26.1-5.7 58.7-3.1 88.1 11.2 13.3 6.6 18.9 22.5 12.2 35.8-6.4 13.1-22.5 18.6-35.6 12.2m-27.2 69.5C257.2 246 245 238.2 231.1 238.2a35.5 35.5 0 0 0-35.6 35.6c0 21.4 17.8 35.6 35.6 35.6 13.9 0 26.1-7.8 32.2-20.3 4.5-9.5 13.6-15 23.4-15.3-9.8-.3-18.9-5.8-23.4-15.3m374.8-37.2c4.2 8.6 1.2 18.9-6.9 23.6L573.1 278 532 352.2c-6.4 57.2-34.7 109.7-79.7 146.7-11 9.1-27.8 8.1-37.6-3.6-9.4-11.4-7.7-28.1 3.7-37.5 12.5-10.6 23.6-22.6 32.5-35.6-21.7 14.7-46.7 24.7-74.2 28.1-10 2.5-27.6-5.7-29.7-23.1-2-14.7 8.3-28.1 23-29.7 16.1-2 31.1-7.5 44.2-15.3-26.1 5.7-58.7 3.1-88.1-11.1-13.3-6.7-18.9-22.6-12.2-35.9 6.4-13.1 22.5-18.6 35.6-12.2 20.2 10.1 44.1 11.2 64.7 3.9-42.6 0-71.2-20.5-85.6-50.6-8.6-17.9 5.2-38.1 23.6-38.1-18.4 0-32.2-20.1-23.6-38 14-29.4 44.1-50.9 82-50.9l92.8 8.6 66.4-33.3c9.4-4.7 19.8-.4 23.9 7.7zM408.9 202.7c-13.9 0-26.1 7.7-32.2 20.2-4.5 9.5-13.6 15-23.4 15.3 9.8.3 18.9 5.9 23.4 15.3 6.1 12.5 18.3 20.3 32.2 20.3a35.5 35.5 0 0 0 35.6-35.6c0-21.4-17.8-35.5-35.6-35.5"/></svg>