<svg height="512" width="576" xmlns="http://www.w3.org/2000/svg"><path d="M13 352h32.4C67.2 454.7 181.9 512 288 512c106.2 0 220.9-57.4 242.6-160H563c10.7 0 16.1-12.9 8.5-20.5l-67-67a12.01 12.01 0 0 0-17 0l-67 67c-7.6 7.6-2.2 20.5 8.5 20.5h35.1c-20.3 54.3-84.9 86.6-144.1 94V256h52c6.6 0 12-5.4 12-12v-40c0-6.6-5.4-12-12-12h-52v-5.5c37.3-13.1 64-48.7 64-90.5C384 43.8 341.6.7 289.4 0 235.7-.7 192 42.5 192 96c0 41.8 26.7 77.3 64 90.5v5.5h-52c-6.6 0-12 5.4-12 12v40c0 6.6 5.4 12 12 12h52v190C197.1 438.6 132.2 406.3 111.9 352H147c10.7 0 16.1-12.9 8.5-20.5l-67-67a12.01 12.01 0 0 0-17 0l-67 67C-3.1 339.1 2.3 352 13 352M288 64c17.6 0 32 14.4 32 32s-14.4 32-32 32S256 113.6 256 96s14.4-32 32-32"/></svg>