<svg height="1000" width="968.8" xmlns="http://www.w3.org/2000/svg"><path d="M484.4 15.6C216.8 15.6 0 232.4 0 500s216.8 484.4 484.4 484.4S968.8 767.6 968.8 500 752 15.6 484.4 15.6zm0 875C268.9 890.6 93.8 715.4 93.8 500S268.9 109.4 484.4 109.4 875 284.6 875 500 699.8 890.6 484.4 890.6zm0 -281.2c-65.6 0 -127.4 28.9 -169.6 79.3 -16.6 19.9 -13.8 49.4 6.1 66s49.4 14.1 66 -5.9c48.5 -58 146.5 -58 194.9 0 15.9 19 45.3 23.3 66.1 5.9 19.9 -16.6 22.4 -46.1 6 -66C611.7 638.3 550 609.4 484.4 609.4zM390.6 468.8c20.1 0 38.9 -13.1 44.9 -33.4 7.5 -24.9 -6.6 -51 -31.4 -58.4L247.9 330.1c-25 -7.6 -51 6.6 -58.4 31.4 -7.5 24.8 6.6 51 31.4 58.4l55.1 16.6c-6.1 9.6 -10.4 20.3 -10.4 32.4 0 34.6 28 62.5 62.5 62.5s62.5 -28.1 62.5 -62.6zM779.3 361.5c-7.4 -24.8 -33.4 -38.8 -58.4 -31.4L564.6 377c-24.8 7.4 -38.8 33.5 -31.4 58.4 6.1 20.3 24.8 33.4 44.9 33.4 0 34.5 28 62.5 62.5 62.5s62.5 -28 62.5 -62.5c0 -12.2 -4.3 -22.9 -10.3 -32.5l55.1 -16.6c24.8 -7.2 38.8 -33.4 31.4 -58.2z"/></svg>