<svg height="512" width="448" xmlns="http://www.w3.org/2000/svg"><path d="M400 32H48C21.5 32 0 53.5 0 80v352c0 26.5 21.5 48 48 48h352c26.5 0 48-21.5 48-48V80C448 53.5 426.5 32 400 32M127 384.5c-5.5 9.6-17.8 12.8-27.3 7.3C90.1 386.3 86.9 374 92.4 364.5l14.3-24.7q24.15-7.35 39.6 11.4zm138.9-53.9H84c-11 0-20-9-20-20s9-20 20-20h51l65.4-113.2L179.9 142c-5.5-9.6-2.2-21.8 7.3-27.3 9.6-5.5 21.8-2.2 27.3 7.3l8.9 15.4 8.9-15.4c5.5-9.6 17.8-12.8 27.3-7.3 9.6 5.5 12.8 17.8 7.3 27.3l-85.8 148.6h62.1c20.2 0 31.5 23.7 22.7 40m98.1 0h-29l19.6 33.9c5.5 9.6 2.2 21.8-7.3 27.3-9.6 5.5-21.8 2.2-27.3-7.3C287.1 327.6 262.5 284.8 246 256.4c-16.7-29-4.8-58 7.1-67.8 13.1 22.7 32.7 56.7 58.9 102h52c11 0 20 9 20 20 0 11.1-9 20-20 20"/></svg>