<svg height="512" width="512" xmlns="http://www.w3.org/2000/svg"><path d="m255.9 120.9 9.1-15.7c5.6-9.8 18.1-13.1 27.9-7.5s13.1 18.1 7.5 27.9l-87.5 151.5h63.3c20.5 0 32 24.1 23.1 40.8H113.8c-11.3 0-20.4-9.1-20.4-20.4s9.1-20.4 20.4-20.4h52l66.6-115.4-20.8-36.1a20.446 20.446 0 0 1 7.5-27.9c9.8-5.6 22.2-2.3 27.9 7.5zm-78.7 218-19.6 34c-5.6 9.8-18.1 13.1-27.9 7.5s-13.1-18.1-7.5-27.9l14.6-25.2c16.4-5.1 29.8-1.2 40.4 11.6m168.9-61.7h53.1c11.3 0 20.4 9.1 20.4 20.4S410.5 318 399.2 318h-29.5l19.9 34.5c5.6 9.8 2.3 22.2-7.5 27.9-9.8 5.6-22.2 2.3-27.9-7.5C320.7 314.8 295.5 271.3 278.8 242.3c-17.1-29.5-4.9-59.1 7.2-69.1 13.4 23 33.4 57.7 60.1 104M256 8C119 8 8 119 8 256s111 248 248 248S504 393 504 256 393 8 256 8m216 248c0 118.7-96.1 216-216 216C137.3 472 40 375.9 40 256 40 137.3 136.1 40 256 40c118.7 0 216 96.1 216 216"/></svg>