<svg height="512" width="448" xmlns="http://www.w3.org/2000/svg"><path d="M350.9 129q38.85 7.05 63.9 42c14.6 20.7 24.6 46.7 29.9 78 4.7 28.7 4.4 57.3-1 86-8 47.3-23.9 87-47.9 119-28.6 38.7-64.6 58-107.9 58-10.6 0-22.3-3.3-34.9-10-8.7-5.3-18.3-8-29-8s-20.3 2.7-29 8c-12.6 6.7-24.3 10-34.9 10C116.8 512 80.8 492.7 52.2 454 28.2 422 12.2 382.3 4.3 335c-5.4-28.7-5.7-57.3-1-86 5.3-31.3 15.3-57.3 29.9-78q25.05-34.95 63.9-42c16-2.7 38-.3 66 7q35.85 10.05 60.9 24 24.9-13.95 60.9-24c28-7.3 50-9.7 66-7m-55-41c-9.3 8.7-21.6 15-36.9 19-10.7 3.3-22.3 5-35 5l-15-1c-1.3-9.3-1.3-20 0-32 2.7-24 10.3-42.3 23-55 9.3-8.7 21.6-15 36.9-19 10.7-3.3 22.3-5 35-5l15 1 1 15c0 12.7-1.7 24.3-5 35-4 15.3-10.3 27.7-19 37"/></svg>