<svg height="512" width="512" xmlns="http://www.w3.org/2000/svg"><path d="M352.2 425.8 273 505c-9.4 9.3-24.6 9.3-33.9 0l-79.2-79.2c-15.2-15.1-4.4-41 16.9-41H228V284H127.2v51.2c0 21.3-25.9 32.1-41 16.9L7 272.9C-2.3 263.6-2.3 248.4 7 239l79.2-79.2c15.1-15.1 41-4.4 41 17V228H228V127.2h-51.2c-21.4 0-32.1-25.9-17-41L239 7c9.4-9.3 24.6-9.3 33.9 0l79.2 79.2c15.2 15.1 4.4 41-16.9 41H284V228h100.8v-51.2c0-21.3 25.9-32.1 41-16.9l79.2 79.2c9.3 9.3 9.3 24.5 0 33.9l-79.2 79.2c-15.1 15.1-41 4.4-41-17V284H284v100.8h51.2c21.4 0 32.1 25.9 17 41"/></svg>