<svg height="1000" width="1000" xmlns="http://www.w3.org/2000/svg"><path d="M500 984.4C232.4 984.4 15.6 767.6 15.6 500S232.4 15.6 500 15.6 984.4 232.4 984.4 500 767.6 984.4 500 984.4zm0 -875C284.2 109.4 109.4 284.2 109.4 500S284.2 890.6 500 890.6 890.6 715.8 890.6 500 715.8 109.4 500 109.4zM539.1 750h-78.2c-12.9 0 -23.4 -10.5 -23.4 -23.4V500H306.6c-20.9 0 -31.2 -25.2 -16.6 -40L483.4 266.6c9.2 -9.2 24 -9.2 33.2 0L710 460c14.8 14.8 4.3 40 -16.6 40H562.5v226.6c0 12.9 -10.5 23.4 -23.4 23.4z"/></svg>