<svg height="512" width="512" xmlns="http://www.w3.org/2000/svg"><path d="M216 260c0 15.5-12.5 28-28 28s-28-12.5-28-28c0-44.1 35.9-80 80-80s80 35.9 80 80c0 15.5-12.5 28-28 28s-28-12.5-28-28c0-13.2-10.8-24-24-24s-24 10.8-24 24M240 84C143 84 64 163 64 260c0 15.5 12.5 28 28 28s28-12.5 28-28c0-66.2 53.8-120 120-120s120 53.8 120 120c0 75.2-71 70.3-72 143.6v.4c0 28.7-23.3 52-52 52-15.5 0-28 12.5-28 28s12.5 28 28 28c59.5 0 107.9-48.3 108-107.8.6-34.4 72-48.2 72-144.2C416 163 337 84 240 84m-80 236c-17.7 0-32 14.3-32 32s14.3 32 32 32 32-14.3 32-32-14.3-32-32-32M32 448C14.3 448 0 462.3 0 480s14.3 32 32 32 32-14.3 32-32S49.7 448 32 448M512 260q0-2.25 0-4.5c-1.9-115-75.8-217-184-254-14.6-5-30.6 2.8-35.6 17.5-5 14.6 2.9 30.5 17.5 35.5C395.8 83.9 454.5 165 456 256.5v.1c0 1.2 0 2.3 0 3.4 0 15.5 12.5 28 28 28s28-12.5 28-28M153 439 73 359l-34 34 80 80z"/></svg>