<svg height="512" width="512" xmlns="http://www.w3.org/2000/svg"><path d="M478.2 334.1 336 256l142.2-78.1c11.8-6.5 16-21.4 9.2-33L468 111.1c-6.8-11.6-21.8-15.5-33.3-8.5L296 186.7l3.5-162.2C299.8 11.1 288.9 0 275.5 0h-39c-13.4 0-24.3 11.1-24 24.5l3.5 162.2L77.3 102.6C65.8 95.6 50.8 99.5 44 111.1l-19.4 33.8c-6.8 11.6-2.6 26.5 9.2 33L176 256 33.8 334.1c-11.8 6.5-16 21.4-9.2 33L44 400.9c6.8 11.6 21.8 15.5 33.3 8.5L216 325.3l-3.5 162.2c-.3 13.4 10.6 24.5 24 24.5h39c13.4 0 24.3-11.1 24-24.5L296 325.3l138.7 84.1c11.5 7 26.5 3.1 33.3-8.5l19.4-33.8c6.8-11.6 2.6-26.5-9.2-33"/></svg>