<svg height="512" width="512" xmlns="http://www.w3.org/2000/svg"><path d="M256 8C118.9 8 8 118.9 8 256s110.9 248 248 248c48.2 0 95.3-14.1 135.4-40.2 12-7.8 14.6-24.3 5.6-35.4L386.8 416c-7.7-9.4-21.2-11.7-31.4-5.2C325.9 429.8 291.3 440 256 440 154.5 440 72 357.5 72 256S154.5 72 256 72c100.1 0 184 57.6 184 160 0 38.8-21.1 79.7-58.2 83.7-17.3-.5-16.9-12.9-13.4-30l23.4-121.1C394.7 149.8 383.3 136 368.2 136h-45a13.5 13.5 0 0 0-13.4 12v.1c-14.7-17.9-40.4-21.8-60-21.8C175.3 126.3 112 188.5 112 277.8c0 65.3 36.8 105.8 96 105.8 27 0 57.4-15.6 75-38.3 9.5 34.1 40.6 34.1 70.7 34.1C462.6 379.4 504 307.8 504 232 504 95.7 394 8 256 8m-21.7 304.4c-22.2 0-36-15.6-36-40.7 0-45 30.7-72.8 58.6-72.8 22.3 0 35.6 15.3 35.6 40.8 0 45.1-33.9 72.7-58.2 72.7"/></svg>