<svg height="512" width="448" xmlns="http://www.w3.org/2000/svg"><path d="M318.4 208h-39.1c-1.5 27-6.6 51.4-14.2 70.4 27.7-13.2 48-39.2 53.3-70.4m0-32c-5.3-31.2-25.6-57.2-53.3-70.4 7.7 19.1 12.7 43.4 14.2 70.4zM224 97.3c-7.7 7.5-20.8 34.4-23.4 78.7h46.8C244.8 131.7 231.7 104.8 224 97.3m-41.1 8.3c-27.7 13.2-48 39.2-53.3 70.4h39.1c1.5-27 6.5-51.3 14.2-70.4m0 172.8C175.2 259.3 170.2 235 168.7 208h-39.1c5.3 31.2 25.6 57.2 53.3 70.4M247.4 208h-46.8c2.6 44.3 15.7 71.2 23.4 78.7 7.7-7.5 20.8-34.4 23.4-78.7M448 358.4V25.6C448 9.6 438.4 0 422.4 0H96C41.6 0 0 41.6 0 96v320c0 54.4 41.6 96 96 96h326.4c12.8 0 25.6-9.6 25.6-25.6v-16q0-9.6-9.6-19.2c-3.2-16-3.2-60.8 0-73.6q9.6-4.8 9.6-19.2M224 64c70.7 0 128 57.3 128 128S294.7 320 224 320 96 262.7 96 192 153.3 64 224 64m160 384H96C76.8 448 64 435.2 64 416s16-32 32-32h288z"/></svg>