<svg height="512" width="448" xmlns="http://www.w3.org/2000/svg"><path d="M224 224a32 32 0 1 0 32 32 32.1 32.1 0 0 0-32-32m214.2-96C427.3 108.5 397.7 77.3 321.9 86.1 300.4 34.9 267.6 0 224 0s-76.4 34.9-97.9 86.1C50.3 77.4 20.7 108.5 9.8 128c-16.3 29.4-15 73.1 25.2 128C-5.2 310.9-6.5 354.6 9.8 384c29.2 52.4 101.7 43.6 116.3 41.9 21.5 51.2 54.3 86.1 97.9 86.1s76.4-34.9 97.9-86.1c14.6 1.7 87.1 10.5 116.3-41.9 16.4-29.4 15-73.1-25.2-128 40.2-54.9 41.6-98.6 25.2-128M63.3 352c-4-7.2-.1-24.7 15-48.2 6.9 6.5 14.2 12.8 21.9 19.1 1.6 13.7 4 27.1 6.8 40.1-24.7.9-39.9-4.4-43.7-11m36.9-162.9q-11.55 9.45-21.9 19.2c-15.1-23.5-19-41-15-48.3 3.4-6.1 16.4-11.5 37.9-11.5 1.8 0 3.9.4 5.8.4-2.9 13.4-5.2 26.7-6.8 40.2M224 64c9.5 0 22.3 13.5 33.9 37.3-11.3 3.7-22.5 8-33.9 12.8-11.4-4.8-22.6-9.1-33.9-12.8C201.7 77.5 214.5 64 224 64m0 384c-9.5 0-22.3-13.5-33.9-37.2 11.3-3.8 22.5-8 33.9-12.9 11.4 4.9 22.6 9.1 33.9 12.9C246.3 434.5 233.5 448 224 448m0-112a80 80 0 1 1 80-80 80 80 0 0 1-80 80m160.7 16c-3.7 6.6-19 11.9-43.7 11 2.8-13 5.2-26.4 6.8-40.1 7.7-6.3 15-12.6 21.9-19.1 15.1 23.5 19 41 15 48.2m-15-143.7a417 417 0 0 0-21.9-19.2c-1.6-13.5-3.9-26.8-6.8-40.2 1.9 0 4-.4 5.8-.4 21.5 0 34.5 5.4 37.9 11.5 4 7.3.1 24.8-15 48.3"/></svg>