<svg height="512" width="640" xmlns="http://www.w3.org/2000/svg"><path d="M640 199.9v54l-320 200L0 254v-54l320 200zm-194.5 72 47.1-29.4C455.4 186.7 391.9 149.9 319.9 149.9s-135.5 36.7-172.6 92.4h.3c2.5-2.3 5.1-4.5 7.7-6.7 89.7-74.4 219.4-58.1 290.2 36.3m-220.1 18.8C242.3 278.8 261.9 272 282.8 272c34.4 0 65.2 18.4 86.4 47.6l45.4-28.4C393.7 261.3 359 241.7 319.8 241.7c-38.9 0-73.4 19.4-94.4 49M103.6 161.1C235.4 56.8 421.8 84.7 521.1 223.2l.7 1 48.8-30.4C517.1 112.1 424.8 58.1 319.9 58.1c-103.5 0-196.6 53.5-250.5 135.6 9.9-10.5 22.7-23.5 34.2-32.6m467 32.7"/></svg>