<svg height="512" width="512" xmlns="http://www.w3.org/2000/svg"><path d="m162.9 238.7 8.8 30.7h-25.6l9.1-30.7c1.3-4.4 2.6-10 3.9-15.2 1.2 5.2 2.5 10.8 3.8 15.2m166.5-32.1h-14.5v98.8h14.5c29.8 0 46.2-17.7 46.2-49.8 0-32.2-17.5-49-46.2-49M512 112v288c0 26.5-21.5 48-48 48H48C21.5 448 0 426.5 0 400V112C0 85.5 21.5 64 48 64h416c26.5 0 48 21.5 48 48M245.5 336.1l-57.1-168A12 12 0 0 0 177 160h-35.9a12 12 0 0 0-11.4 8.1l-57.1 168C70 343.9 75.8 352 84 352h29.1a12 12 0 0 0 11.6-8.7l8.6-29.9h51.3l8.8 30a12 12 0 0 0 11.5 8.6h29.2c8.2 0 14-8.1 11.4-15.9m184.7-80.5c0-59-38-95.6-99-95.6h-57.4c-6.6 0-12 5.4-12 12v168c0 6.6 5.4 12 12 12h57.4c61 0 99-36.9 99-96.4"/></svg>