<svg height="512" width="384" xmlns="http://www.w3.org/2000/svg"><path d="M97.1 362.6C88.4 353.9 93 356.4 72 350.8c-9.5-2.6-17.9-7.5-25.4-13.3L1.2 448.7c-4.4 10.8 3.8 22.5 15.4 22l52.7-2 36.3 38.3c8 8.4 22 5.8 26.4-5l52-127.6c-10.8 6.1-22.8 9.6-35.3 9.6-19.5 0-37.8-7.6-51.6-21.4m285.7 86.1L337.4 337.5c-7.5 5.8-15.9 10.7-25.4 13.3-21.1 5.6-16.4 3.2-25.1 11.8C273.1 376.4 254.8 384 235.3 384c-12.5 0-24.5-3.6-35.4-9.6L252 502c4.4 10.8 18.4 13.4 26.4 5l36.3-38.3 52.7 2c11.6.5 19.8-11.2 15.4-22M263 340c15.3-15.6 17-14.2 38.8-20.1 13.9-3.8 24.7-14.9 28.5-29 7.4-28.4 5.5-25 25.9-45.8 10.2-10.3 14.1-25.4 10.4-39.5-7.4-28.4-7.5-24.5 0-52.9 3.8-14.1-.2-29.2-10.4-39.6C335.8 92.4 337.7 95.8 330.3 67.4c-3.8-14.1-14.6-25.2-28.5-29C273.9 30.8 277.3 32.8 256.8 12 246.7 1.7 231.8-2.4 217.9 1.4 190.1 9 194 9 166 1.4 152.2-2.4 137.3 1.6 127.2 12c-20.5 20.8-17.1 18.8-45 26.4-13.9 3.8-24.7 14.9-28.5 29-7.4 28.4-5.5 25-25.9 45.7-10.2 10.4-14.2 25.5-10.4 39.6 7.4 28.4 7.5 24.4 0 52.8-3.7 14.2.2 29.3 10.4 39.6 20.4 20.8 18.5 17.4 25.9 45.8 3.8 14.1 14.6 25.2 28.5 29 22.4 6.1 24.1 5.1 38.8 20.1 13.2 13.5 33.8 15.9 49.7 5.8a39.7 39.7 0 0 1 42.6 0c15.9 10.1 36.5 7.7 49.7-5.8M97.7 176c0-53.1 42.2-96.1 94.3-96.1s94.3 43 94.3 96.1-42.2 96-94.3 96S97.7 229 97.7 176"/></svg>