<svg height="512" width="640" xmlns="http://www.w3.org/2000/svg"><path d="M180.4 203c-.7 22.7 10.6 32.7 10.9 39.1a8.2 8.2 0 0 1-4.1 6.2l-12.8 9a10.7 10.7 0 0 1-5.6 1.9c-.5 0-8.2 1.8-20.5-25.6a78.6 78.6 0 0 1-62.6 29.5c-16.3.8-60.4-9.3-58.2-56.3-1.6-38.2 34.1-62 71-60 7.1 0 21.6.4 47 6.3v-15.7C148.2 111 130.8 90.5 100.7 93.5c-2.4 0-19.4-.5-45.9 10.1-7.3 3.4-8.3 2.9-10.7 2.9-7.4 0-4.4-21.5-3-24.2 5.2-6.4 35.9-18.4 66-18.2a76.9 76.9 0 0 1 55.7 17.3 70.3 70.3 0 0 1 17.6 52.3zM94 235.4c32.4-.5 46.1-20 49.3-30.5 2.4-10 2-16.4 2-27.4-9.6-2.3-23.6-4.8-39.5-4.8C90.6 171.5 63 178.3 64 204.9c-1.2 16.8 11.2 31.4 30 30.5m170.9 23c-7.9.8-11.5-4.8-12.7-10.3L202.4 83.4c-.9-2.8-1.6-5.6-1.9-8.6a4.6 4.6 0 0 1 3.9-5.2c.2 0-2.2 0 22.2 0 8.8-.9 11.7 6 12.6 10.4l35.7 140.8L308 80c.6-3.2 3-11.1 12.8-10.3H338c2.2-.2 11.1-.5 12.7 10.4l33.4 142.6L421 80.1c.5-2.2 2.7-11.4 12.7-10.4h19.7c.8-.1 6.1-.8 5.2 8.6-.4 1.9 3.4-10.7-52.7 169.9-1.2 5.5-4.8 11.1-12.7 10.4h-18.7c-10.9 1.1-12.5-9.7-12.7-10.8L328.7 110.7l-32.8 137c-.2 1.1-1.7 11.9-12.7 10.7zm273.5 5.7c-5.9 0-33.9-.3-57.4-12.3a12.8 12.8 0 0 1-7.8-11.9v-10.8c0-8.4 6.2-6.9 8.8-5.9 10.1 4.1 16.5 7.2 28.9 9.6 36.6 7.6 52.7-2.3 56.7-4.4 13.1-7.8 14.2-25.7 5.2-35-10.5-8.8-15.5-9.1-53.1-21-4.6-1.3-43.7-13.6-43.8-52.3-.6-28.3 25.1-56.2 69.5-56 12.7 0 46.5 4.1 55.6 15.6 1.4 2.1 2 4.6 1.9 7.1v10.1c0 4.4-1.6 6.6-4.9 6.6-7.7-.8-21.3-11.1-49.1-10.7-6.9-.4-39.9.9-38.4 25-.4 18.9 26.6 26 29.7 26.8 36.4 11 48.6 12.8 63.1 29.6 17.1 22.3 7.9 48.3 4.4 55.5-19.1 37.5-68.5 34.4-69.3 34.4m40.2 104.8c-70 51.8-171.7 79.3-258.5 79.3A469.1 469.1 0 0 1 2.8 327.5c-6.5-5.9-.7-14 7.2-9.5a637.4 637.4 0 0 0 316.9 84.1 630.2 630.2 0 0 0 241.6-49.5c11.8-5 21.7 7.8 10.1 16.3m29.2-33.3c-9-11.5-59.3-5.3-81.8-2.6-6.8.7-8-5.2-1.8-9.5 40.1-28.2 105.9-20.1 113.4-10.6 7.6 9.4-2 75.4-39.5 106.9-5.8 4.8-11.3 2.3-8.7-4.1 8.4-21.3 27.3-68.5 18.4-80.1"/></svg>