<svg height="512" width="640" xmlns="http://www.w3.org/2000/svg"><path d="M576 64H205.3A64 64 0 0 0 160 82.8L9.4 233.4c-12.5 12.5-12.5 32.7 0 45.2L160 429.3c12 12 28.3 18.7 45.3 18.7H576c35.4 0 64-28.6 64-64V128C640 92.7 611.4 64 576 64m-84.7 254.1c6.3 6.2 6.3 16.3 0 22.6l-22.6 22.6c-6.3 6.3-16.4 6.3-22.6 0l-62.1-62-62.1 62c-6.2 6.3-16.3 6.3-22.6 0l-22.6-22.6c-6.3-6.3-6.3-16.4 0-22.6L338.8 256l-62.1-62.1c-6.3-6.2-6.3-16.3 0-22.6l22.6-22.6c6.3-6.3 16.4-6.3 22.6 0l62.1 62.1 62.1-62.1c6.2-6.3 16.3-6.3 22.6 0l22.6 22.6c6.3 6.3 6.3 16.4 0 22.6l-62 62.1z"/></svg>