<svg height="512" width="576" xmlns="http://www.w3.org/2000/svg"><path d="M218.9 336.4c34.9-34.9 44.2-59.7 54.1-86 10.6-28.3 21.6-57.6 61.3-97.4s69.1-50.7 97.4-61.3c23.9-9 46.6-17.7 76.8-45.4L470.8 8.9A31 31 0 0 0 430.6 6.1c-13.6 10.1-25.1 14.4-41 20.3C247 79.5 209.3 191.3 200.7 214.1c-29.8 78.8-89.6 94.7-98.8 98.1-24.8 9.2-54.7 20.4-91 50.4C-3 374-3.6 395 9.1 407.6l35.7 35.5C80 410.5 107 400.1 133 390.4c26.3-9.8 51.1-19.1 85.9-54m348-232L531.2 68.9c-35.2 32.6-62.2 43-88.3 52.8-26.2 9.8-51 19.1-85.9 54s-44.2 59.7-54 86C292.3 290 281.3 319.2 241.6 359s-69 50.7-97.3 61.3c-23.9 9-46.7 17.7-76.8 45.3l37.7 37.5a31 31 0 0 0 40.2 2.8c13.6-10.1 25.1-14.3 40.9-20.2 142.2-53 180-164.1 189-187.7C405 219.2 464.8 203.3 474 199.9c24.9-9.3 54.7-20.4 91.1-50.4 13.9-11.4 14.5-32.5 1.8-45.1"/></svg>