<svg height="512" width="512" xmlns="http://www.w3.org/2000/svg"><path d="M511 102.9A23.8 23.8 0 0 0 481.5 87l-15.1 4.5A111.8 111.8 0 0 0 417.9 44.1l3.7-14.5a23.7 23.7 0 0 0-46-11.9l-3.7 14.4a112 112 0 0 0-22.3 1.4 387 387 0 0 0-44.4 10.4l-4.3-12a23.7 23.7 0 0 0-44.7 15.9l4.3 12a383.4 383.4 0 0 0-58.7 31.9l-8-10.7a23.9 23.9 0 0 0-33.3-4.8 23.6 23.6 0 0 0-4.8 33.1l8 10.7A386 386 0 0 0 117 167.4l-11-8a23.7 23.7 0 1 0-28 38.2l11.1 8a383.4 383.4 0 0 0-30.9 58.8l-12.9-4.5a23.6 23.6 0 1 0-15.5 44.7l13 4.5a386 386 0 0 0-9.3 40.5A111.6 111.6 0 0 0 32.4 375L17 379.6a23.6 23.6 0 0 0 13.5 45.3l15-4.5A111.5 111.5 0 0 0 94 467.7l-3.8 14.7a23.7 23.7 0 0 0 17 28.9 24.7 24.7 0 0 0 6 .7 23.7 23.7 0 0 0 23-17.7l3.8-14.6c1.4 0 2.8.3 4.1.3A111.2 111.2 0 0 0 205 461.5l11.4 11.7a23.7 23.7 0 0 0 34.1-32.9l-12.2-12.5a111 111 0 0 0 16.1-41.4 159 159 0 0 1 5.2-20.7l12 5.6a23.7 23.7 0 1 0 20.2-42.7l-11.7-5.5c.9-1.4 1.6-2.8 2.5-4.1a158 158 0 0 1 10.5-12.5 159.5 159.5 0 0 1 15.5-15.3 162 162 0 0 1 13.3-10.4c1.5-1 3.1-1.9 4.6-2.8l5.2 11.8a23.7 23.7 0 0 0 43.5-19.1l-5.3-12.1a159 159 0 0 1 16.4-4.1 111 111 0 0 0 45-18.6l13.4 12a23.7 23.7 0 1 0 31.9-35l-13-11.6A110.8 110.8 0 0 0 479.2 137l15.8-4.7a23.6 23.6 0 0 0 16-29.4M160 368a48 48 0 1 1 48-48 48 48 0 0 1-48 48m80-136a24 24 0 1 1 24-24 24 24 0 0 1-24 24"/></svg>