<svg height="512" width="640" xmlns="http://www.w3.org/2000/svg"><path d="M272.4 226.4a17.7 17.7 0 0 0 9.1-23.4l-4-9.1a121 121 0 0 1 12.3-3.1A83.3 83.3 0 0 0 323.6 177l10 9a17.8 17.8 0 1 0 23.9-26.3l-9.7-8.7a83.1 83.1 0 0 0 11.6-48.2l11.9-3.5a17.7 17.7 0 1 0-10.2-34l-11.3 3.3A84 84 0 0 0 313.4 33.1l2.8-10.9a17.8 17.8 0 0 0-34.4-8.9l-2.9 10.8a83.3 83.3 0 0 0-16.7 1.1c-11.4 1.8-22.2 5-33.1 8.2l-3.4-9.5a17.8 17.8 0 0 0-33.5 11.9l3.5 9.8a286.7 286.7 0 0 0-44 23.6l-6.3-8.4a17.9 17.9 0 0 0-24.9-3.6A17.7 17.7 0 0 0 116.8 82l6.5 8.6a286.6 286.6 0 0 0-35 35.3l-8.8-6.4a17.8 17.8 0 0 0-24.9 3.9 17.7 17.7 0 0 0 3.9 24.8l8.9 6.4a286.6 286.6 0 0 0-23 43.9l-10.5-3.6a17.7 17.7 0 1 0-11.6 33.6l10.4 3.5c-2.8 10-5.8 19.8-7.5 30.2a83.2 83.2 0 0 0-.9 19l-11.5 3.5a17.7 17.7 0 1 0 10.1 34l11.3-3.4a83.5 83.5 0 0 0 36.3 35.5l-2.8 11a17.8 17.8 0 0 0 34.4 8.9l2.9-11c1 0 2.1.3 3.1.3a83.4 83.4 0 0 0 45.7-13.9l8.6 8.8a17.8 17.8 0 0 0 25.5-24.7l-9.1-9.4a83.4 83.4 0 0 0 12.1-31 119 119 0 0 1 3.8-15.5l9 4.2a17.7 17.7 0 1 0 15.2-32.1l-8.8-4.1c.6-1 1.2-2.1 1.9-3.1a120 120 0 0 1 7.8-9.4 122 122 0 0 1 11.7-11.4 120 120 0 0 1 9.9-7.8c1.2-.8 2.4-1.4 3.5-2.1l3.9 8.8a17.9 17.9 0 0 0 16.3 10.6 18.1 18.1 0 0 0 7.3-1.5M128 256a32 32 0 1 1 32-32 32 32 0 0 1-32 32m80-96a16 16 0 1 1 16-16 16 16 0 0 1-16 16m431.3 45.3a17.8 17.8 0 0 0-17.1-12.7 17.6 17.6 0 0 0-5.1.8l-11.2 3.3a83.6 83.6 0 0 0-36.4-35.4l2.8-11.1a17.8 17.8 0 0 0-34.4-8.9l-2.9 11c-1 0-2.1-.3-3.1-.3a83.3 83.3 0 0 0-45.7 13.9l-8.5-8.8a17.8 17.8 0 0 0-25.6 24.7l9.1 9.4a83.3 83.3 0 0 0-12 31 119 119 0 0 1-3.9 15.6l-9-4.3a17.7 17.7 0 1 0-15.2 32.1l8.8 4.1c-.6 1-1.2 2.1-1.9 3.1a118 118 0 0 1-7.9 9.5 119 119 0 0 1-11.6 11.3 122 122 0 0 1-10 7.8c-1.1.8-2.3 1.4-3.4 2.2l-4-8.9a17.9 17.9 0 0 0-16.3-10.6 18.1 18.1 0 0 0-7.2 1.5 17.7 17.7 0 0 0-9.1 23.4l4 9.1a119 119 0 0 1-12.3 3.1 83.3 83.3 0 0 0-33.8 13.9l-10-9a17.8 17.8 0 1 0-23.9 26.2l9.7 8.8a83.1 83.1 0 0 0-11.6 48.2l-11.9 3.5a17.7 17.7 0 1 0 10.2 34l11.3-3.4a84 84 0 0 0 36.4 35.6l-2.8 10.9a17.8 17.8 0 0 0 34.4 8.9l2.9-10.8a83.3 83.3 0 0 0 16.7-1.1c11.4-1.9 22.2-5.1 33.1-8.2l3.4 9.4a17.8 17.8 0 0 0 33.5-11.9l-3.4-9.8a287.7 287.7 0 0 0 43.9-23.5l6.3 8.4a17.9 17.9 0 0 0 24.9 3.6 17.7 17.7 0 0 0 3.7-24.9l-6.5-8.6a287.4 287.4 0 0 0 35-35.4l8.8 6.5a17.8 17.8 0 1 0 21-28.7l-8.9-6.4a287 287 0 0 0 23-43.9l10.5 3.5a17.7 17.7 0 1 0 11.6-33.5L607.3 280c2.8-10 5.8-19.8 7.6-30.2a83.3 83.3 0 0 0 .8-19.1l11.6-3.4a17.7 17.7 0 0 0 12-22M416 416a32 32 0 1 1 32-32 32 32 0 0 1-32 32"/></svg>