<svg height="512" width="512" xmlns="http://www.w3.org/2000/svg"><path d="m496.3 202.5-110-15.4L428.1 82.7C434.7 66.1 416.5 50.6 401.5 60.1L307.4 120l-34-107.2C270.6 4.3 263.3 0 256 0s-14.6 4.3-17.3 12.8L204.6 120 110.5 60.1c-15-9.5-33.2 6-26.6 22.6l41.9 104.4-110 15.4C-1.8 205-5.9 228.8 9.7 237.2l98.2 52.7-74.5 83.5c-10.9 12.2-1.7 30.9 13.3 30.9 1.3 0 2.7-.1 4.1-.4l108.5-23.7-4.1 112.6c-.4 11.6 8.9 19.2 18.4 19.2 5.2 0 10.4-2.2 14.2-7.2L256 415.9l68.2 88.9c3.8 5 9 7.2 14.2 7.2 9.5 0 18.8-7.6 18.4-19.2l-4.1-112.6 108.6 23.7c17.3 3.7 29.2-17.2 17.3-30.5l-74.5-83.6 98.2-52.6c15.6-8.4 11.5-32.2-6.1-34.7zM338.5 311.7l-51.9-11.3 2 53.8L256 311.7l-32.6 42.5 2-53.8-51.9 11.3 35.6-39.9-46.9-25.2 52.5-7.4-20-49.9 45 28.6L256 166.7l16.3 51.2 44.9-28.6-19.9 49.9 52.5 7.4-46.9 25.2z"/></svg>