<svg height="512" width="640" xmlns="http://www.w3.org/2000/svg"><path d="M256 336c0-16.2 1.3-8.7-85.1-181.5-17.6-35.3-68.2-35.4-85.8 0C-2.1 328.8 0 320.3 0 336c0 44.2 57.3 80 128 80s128-35.8 128-80M128 176l72 144H56zm512 160c0-16.2 1.3-8.7-85.1-181.5-17.6-35.3-68.2-35.4-85.8 0C381.9 328.8 384 320.3 384 336c0 44.2 57.3 80 128 80s128-35.8 128-80M440 320l72-144 72 144zm88 128H352V153.3C375.5 143 393.2 121.8 398.4 96H528c8.8 0 16-7.2 16-16V48c0-8.8-7.2-16-16-16H383.6C369 12.7 346.1 0 320 0s-49 12.7-63.6 32H112c-8.8 0-16 7.2-16 16v32c0 8.8 7.2 16 16 16h129.6c5.2 25.8 22.9 47 46.4 57.3V448H112c-8.8 0-16 7.2-16 16v32c0 8.8 7.2 16 16 16h416c8.8 0 16-7.2 16-16v-32c0-8.8-7.2-16-16-16"/></svg>