<svg height="512" width="640" xmlns="http://www.w3.org/2000/svg"><path d="M96 464v32c0 8.8 7.2 16 16 16h224c8.8 0 16-7.2 16-16V153.3c4.6-2 8.9-4.4 13-7.2l142 47.7c8.4 2.8 17.5-1.8 20.3-10.1l10.2-30.4c2.8-8.3-1.7-17.4-10.1-20.2L399 90c.4-3.3 1-6.6 1-10C400 35.8 364.2 0 320 0c-29.7 0-55.3 16.4-69.1 40.4L133 .8C124.6-2 115.5 2.5 112.7 10.9l-10.2 30.4c-2.8 8.3 1.7 17.4 10.1 20.2l132 44.3c7.3 21.2 23 38.5 43.4 47.4V448H112c-8.8 0-16 7.2-16 16M0 304c0 44.2 57.3 80 128 80s128-35.8 128-80c0-15.7 2.1-7.2-85.1-181.5-17.6-35.4-68.2-35.3-85.8 0C-1.3 295.3 0 287.8 0 304m56-16 72-144 72 144zm328 144c0 44.2 57.3 80 128 80s128-35.8 128-80c0-15.7 2.1-7.2-85.1-181.5-17.6-35.4-68.2-35.3-85.8 0C382.7 423.3 384 415.8 384 432m56-16 72-144 72 144z"/></svg>