<svg height="512" width="640" xmlns="http://www.w3.org/2000/svg"><path d="M528 448H352V153.3c20.4-9 36.1-26.3 43.4-47.5l132-44.3c8.4-2.8 12.9-11.9 10.1-20.2L527.3 10.9C524.5 2.5 515.4-2 507 .8L389.1 40.4C375.3 16.4 349.7 0 320 0c-44.2 0-80 35.8-80 80 0 3.4.6 6.7 1 10l-128.4 43.1c-8.4 2.8-12.9 11.9-10.1 20.2l10.2 30.4c2.8 8.4 11.9 12.9 20.3 10.1l142-47.7c4.1 2.8 8.4 5.2 13 7.2V496c0 8.8 7.2 16 16 16h224c8.9 0 16-7.2 16-16v-32c0-8.8-7.2-16-16-16M640 304c0-16.2 1.3-8.7-85.1-181.5-17.6-35.3-68.2-35.4-85.8 0C381.9 296.8 384 288.3 384 304c0 44.2 57.3 80 128 80s128-35.8 128-80M440 288l72-144 72 144zM170.9 250.5c-17.6-35.3-68.2-35.4-85.8 0C-2.1 424.8 0 416.3 0 432c0 44.2 57.3 80 128 80s128-35.8 128-80c0-16.2 1.3-8.7-85.1-181.5M56 416l72-144 72 144z"/></svg>