<svg height="512" width="640" xmlns="http://www.w3.org/2000/svg"><path d="M0 160v192c0 35.3 28.7 64 64 64h96V96H64C28.7 96 0 124.7 0 160M576 96h-96v320h96c35.3 0 64-28.7 64-64V160c0-35.3-28.7-64-64-64M192 416h256V96H192zM368 184c13.3 0 24 10.7 24 24s-10.7 24-24 24-24-10.7-24-24 10.7-24 24-24m0 96c13.3 0 24 10.7 24 24s-10.7 24-24 24-24-10.7-24-24 10.7-24 24-24m-96-96c13.3 0 24 10.7 24 24s-10.7 24-24 24-24-10.7-24-24 10.7-24 24-24m0 96c13.3 0 24 10.7 24 24s-10.7 24-24 24-24-10.7-24-24 10.7-24 24-24"/></svg>