<svg height="512" width="496" xmlns="http://www.w3.org/2000/svg"><path d="M212.3 10.3C168.5 16.6 126.1 34.4 90.1 64.1l77.4 77.4c27.8-35.8 43.3-81.2 44.8-131.2M248 222 405.9 64.1C363.5 29.1 312.3 10.6 260.4 8c-1.2 63.9-21.5 122.3-58.7 167.7zM56.1 98.1C26.4 134.1 8.6 176.5 2.3 220.3c50-1.5 95.5-17 131.2-44.8zm272.2 204.2C373.6 265.2 432 244.9 496 243.6 493.4 191.7 474.9 140.5 439.9 98.1L282 256zM248 290 90.1 447.9c42.4 34.9 93.6 53.5 145.5 56.1 1.3-64 21.6-122.4 58.7-167.7zm191.9 123.9c29.7-36 47.5-78.4 53.8-122.2-50.1 1.6-95.5 17.1-131.2 44.8zM167.7 209.7C122.3 246.9 63.9 267.3 0 268.4c2.6 51.9 21.1 103.1 56.1 145.5L214 256zm116 292c43.8-6.3 86.2-24.1 122.2-53.8l-77.4-77.4c-27.7 35.7-43.2 81.2-44.8 131.2"/></svg>