<svg height="512" width="512" xmlns="http://www.w3.org/2000/svg"><path d="M32 384a95.4 95.4 0 0 0 32 71.1V496a16 16 0 0 0 16 16h32a16 16 0 0 0 16-16v-16h256v16a16 16 0 0 0 16 16h32a16 16 0 0 0 16-16v-40.9A95.4 95.4 0 0 0 480 384v-48H32zM496 256H80V69.3a21.3 21.3 0 0 1 36.3-15l19.3 19.2c-13.2 29.9-7.7 59.1 8.6 79.7l-.2.2a16 16 0 0 0 0 22.6l11.3 11.3a16 16 0 0 0 22.6 0L283.3 81.9a16 16 0 0 0 0-22.6L272 48a16 16 0 0 0-22.6 0l-.2.2C228.6 31.9 199.4 26.4 169.5 39.6L150.2 20.3A69.3 69.3 0 0 0 32 69.3V256H16A16 16 0 0 0 0 272v16a16 16 0 0 0 16 16h480a16 16 0 0 0 16-16v-16a16 16 0 0 0-16-16"/></svg>