<svg height="512" width="512" xmlns="http://www.w3.org/2000/svg"><path d="M448.6 225.6c26.9.2 35.6-7.4 38.9-12.3 12.5-16.4-7-47.6-52.8-71.4C452.4 108.3 464.8 78.2 471 56.6c3.4-11.8 1.1-19 .5-20.2-1.8 10.5-15.9 48.4-48.2 100-25-11.2-56.5-20.1-93.8-23.8C320.6 95.7 294.6 48.8 269 23.7 252.2 7.1 238.7 1.1 228.2.2h-.1c-13.8-1.5-22.6 5.9-27.4 11-17.2 18.6-24.3 48.9-25 84.1C168.5 82.9 158.6 70.7 147.2 69.4h-.2c-20.6-3.5-38.3 29.2-36 81.2-38.3 1.4-71 5.8-93 11.3-9.9 2.4-16.2 7.2-17.7 9.7 1-.4 22.4-9.2 111.5-9.2 5.3 53 29.8 101.8 26 93.2-9.7 15.4-38.2 62.3-47.3 97.7-5.8 22.8-4.3 37.6.2 47.1 5.6 12.8 16.4 16.7 23.2 18.3 25 5.7 55.4-3.7 86.7-21.2-7.5 12.9-13.9 28.5-9.1 39.4 7.3 19.6 44.5 18.6 88.5-9.5 20.1 32.2 40 58 55.7 74.1a39.8 39.8 0 0 0 8.7 7.1c5.2 3.2 8.6 3.4 8.6 3.4-8.2-6.7-34-38-62.5-91.8 22.2-16 45.6-38.8 67.4-69.2 122.8 4.6 143.3-24.8 148-31.7 14.7-19.9 3.5-57.4-57.3-93.7m-77.8 106.2c23.8-37.7 30.3-67.7 29.4-92.3 27.9 17.6 47.2 37.6 49.1 58.8 1.1 13-8.1 29.2-78.5 33.5m-153.9 55.9c9.8-6.2 19.5-13.1 29.2-20.5 6.7 13.3 13.6 26.1 20.6 38.2-40.6 21.9-68.8 12.7-49.8-17.7m215-171.4C421.6 211 410.7 206 399.5 201.3a723 723 0 0 0 22.8-36.9c39 24.1 45.9 53.2 9.6 51.9M279.2 398c-5.5-11.4-11-23.5-16.5-36.4 43.2 1.2 62.4-18.8 63.3-20.5 0 .1-25 15.7-62.6 12.3a719 719 0 0 0 85.1-84q13.1-15.3 24.9-31.1c-.3-.3-1.5-3-16.5-12-51.7 60.3-102.3 98-132.7 115.9C203.6 331 183.3 310.4 168.5 280.7c-20-39.9-30-82.4-31.6-116.1 12.3 1 25.3 2.2 38.8 3.9-22.3 36.8-14.4 63-13.4 64.3 0-.1-1-29.2 20.1-59.6A695.2 695.2 0 0 0 227.1 326c.9-.4 1.8.9 18.6-8.2C219.4 243.3 212 179.6 211.7 144.3c20-12.4 48.2-19.8 81.7-17.8 44.5 2.7 86.3 15.3 116.3 30.7q-10.7 15.7-23.3 32.5C365.6 152 339.1 145.8 337.5 146c.1 0 25.9 14.1 41.5 47.2A717.6 717.6 0 0 0 263.7 161.5a647 647 0 0 0-39.4-6c-.1.4-1.8 1.8-2.2 20.3 77.9 14.5 136.7 39.9 167.3 57.2.7 23.6-7 51.6-25.5 79.6-24.6 37.3-56.3 67.2-84.7 85.4m27.4-287c-44.6-1.7-73.6 7.4-94.7 20.7 2-52.3 21.3-76.4 38.2-75.3C267 52.1 305 108.5 306.6 111m-130.7 3.1c.5 12.1 1.6 24.6 3.2 37.3-14.5-.9-28.7-1.3-42.4-1.3 0 3.3-.1-51 24.7-49.6h.1c5.8 1.1 10.6 6.9 14.4 13.6m-28 162c20.7 39.7 43.3 60.6 65.2 72.3-46.8 24.8-77.5 20-84.9 4.5-.2-.2-11.1-15.3 19.7-76.8m210 74.8"/></svg>