<svg height="1000" width="1250" xmlns="http://www.w3.org/2000/svg"><path d="M1238.3 920L70.3 6.9C56.8 -3.9 37.2 -1.8 26.4 11.7L6.9 36.1C-3.9 49.6 -1.8 69.3 11.7 80l1168 913.1c13.5 10.8 33.1 8.6 43.9 -4.8l19.5 -24.4c10.8 -13.5 8.7 -33.2 -4.8 -43.9zM319.4 718.8c32.6 -43.1 67.3 -109 80.9 -216l-88.9 -69.5C305.1 610.5 240.2 669 204.3 707.6c-11.7 12.6 -16.9 27.7 -16.8 42.4 .2 32 25.4 62.5 62.7 62.5h546.2L676.5 718.7H319.4zM625 187.5c120.8 0 218.8 97.9 218.8 218.8 0 .3 -.2 .7 -.2 1.1 .1 32.9 2.3 62 5.5 89.3l116.3 90.9C949.1 544.4 937.3 487 937.3 406.3 937.3 254.5 830.9 133 687.5 103.2V62.5C687.5 28 659.5 0 625 0s-62.5 28 -62.5 62.5v40.7c-50.8 10.6 -96.5 33.1 -135 63.9l74.6 58.3c35 -23.9 77.3 -37.9 122.9 -37.9zm0 812.5c69 0 124.9 -56 124.9 -125H500.1c0 69 55.9 125 124.9 125z"/></svg>