<svg height="512" width="640" xmlns="http://www.w3.org/2000/svg"><path d="M634 471 36 3.5C29.1-2 19-.9 13.5 6l-10 12.5C-2 25.4-.9 35.5 6 41l598 467.5c6.9 5.5 17 4.4 22.5-2.5l10-12.5c5.5-6.9 4.4-17-2.5-22.5M163.5 368c16.7-22 34.5-55.8 41.4-110.6l-45.4-35.5c-3.3 90.7-36.5 120.7-54.9 140.4-6 6.4-8.6 14.1-8.6 21.7.1 16.4 13 32 32.1 32h279.7l-61.4-48zM320 96c61.9 0 112 50.1 112 112 0 .2-.1.4-.1.6.1 16.8 1.2 31.8 2.8 45.7l59.6 46.6C485.9 278.7 479.9 249.4 479.9 208 479.9 130.3 425.4 68.1 352 52.8V32C352 14.3 337.7 0 320 0s-32 14.3-32 32v20.8c-26 5.5-49.4 17-69.1 32.8l38.2 29.8C275 103.2 296.6 96 320 96m0 416c35.3 0 64-28.6 64-64H256c0 35.4 28.7 64 64 64"/></svg>