<svg height="512" width="448" xmlns="http://www.w3.org/2000/svg"><path d="M439.4 362.3C420.1 341.5 383.9 310.3 383.9 208 383.9 130.3 329.4 68.1 256 52.8V32C256 14.3 241.7 0 224 0s-32 14.3-32 32v20.8C118.6 68.1 64.1 130.3 64.1 208c0 102.3-36.2 133.5-55.5 154.3C2.6 368.7-.1 376.4 0 384c.1 16.4 13 32 32.1 32h383.8c19.1 0 32-15.6 32.1-32 .1-7.6-2.6-15.3-8.6-21.7M67.5 368C88.8 340 112 293.7 112.1 208.6c0-.2-.1-.4-.1-.6C112 146.1 162.1 96 224 96s112 50.1 112 112c0 .2-.1.4-.1.6.2 85.1 23.4 131.4 44.6 159.4zM224 512c35.3 0 64-28.6 64-64H160c0 35.4 28.7 64 64 64"/></svg>