<svg height="1000" width="875" xmlns="http://www.w3.org/2000/svg"><path d="M858.2 707.6C820.4 667.1 749.8 606.1 749.8 406.3 749.8 254.5 643.4 133 500 103.2V62.5C500 28 472 0 437.5 0S375 28 375 62.5v40.7C231.6 133 125.2 254.5 125.2 406.3c0 199.8 -70.6 260.8 -108.4 301.3C5.1 720.2 -.1 735.3 0 750c.2 32 25.4 62.5 62.7 62.5h749.6c37.3 0 62.5 -30.5 62.7 -62.5 .1 -14.7 -5.1 -29.8 -16.8 -42.4zm-726.3 11.2c41.4 -54.7 86.8 -145.2 87 -311.4 0 -.4 -.1 -.8 -.1 -1.1 0 -120.9 97.9 -218.8 218.7 -218.8s218.8 97.9 218.8 218.8c0 .3 -.2 .7 -.2 1.1 .2 166.2 45.6 256.7 87 311.4H131.9zM437.5 1000c69 0 124.9 -56 124.9 -125H312.6c0 69 55.9 125 124.9 125z"/></svg>