<svg height="1000" width="875" xmlns="http://www.w3.org/2000/svg"><path d="M858.2 707.6c11.7 12.6 16.9 27.7 16.8 42.4 -.2 32 -25.4 62.5 -62.7 62.5H62.7C25.4 812.5 .2 782 0 750c-.1 -14.7 5.1 -29.8 16.8 -42.4C54.6 667.1 125.2 606.1 125.2 406.3 125.2 254.5 231.6 133 375 103.2V62.5C375 28 403 0 437.5 0S500 28 500 62.5v40.7C643.4 133 749.8 254.5 749.8 406.3c0 199.8 70.6 260.8 108.4 301.3zm-726.3 11.2h611.2c-41.4 -54.7 -86.8 -145.2 -87 -311.4 0 -.4 .1 -.8 .1 -1.2 0 -120.8 -97.9 -218.7 -218.7 -218.7S218.7 285.4 218.7 406.2c0 .4 .2 .8 .2 1.2 -.2 166.2 -45.6 256.7 -87 311.4zM437.5 1000c-69 0 -124.9 -56 -124.9 -125h249.8c0 69 -55.9 125 -124.9 125z"/></svg>