<svg height="512" width="640" xmlns="http://www.w3.org/2000/svg"><path d="m633.8 458.1-90.6-70c.2-1.4.8-2.7.8-4.1 0-7.6-2.6-15.3-8.6-21.7C516.1 341.5 479.9 310.3 479.9 208 479.9 130.3 425.4 68.1 352 52.8V32C352 14.3 337.7 0 320 0s-32 14.3-32 32v20.8c-40.3 8.4-74.6 31.1-97.6 62.6L45.5 3.4C38.5-2 28.4-.8 23 6.2L3.4 31.4c-5.4 7-4.2 17.1 2.8 22.5l588.3 454.7c7 5.5 17.1 4.2 22.5-2.8l19.6-25.2c5.4-7 4.2-17.1-2.8-22.5M157.2 251.5c-8.6 68-36.4 93.4-52.6 110.8-6 6.4-8.7 14.1-8.6 21.7.1 16.4 13 32 32.1 32H370zM320 512c35.3 0 64-28.6 64-64H256c0 35.4 28.7 64 64 64"/></svg>