<svg height="1000" width="1250" xmlns="http://www.w3.org/2000/svg"><path d="M1238.3 920c13.5 10.7 15.6 30.4 4.8 43.9l-19.5 24.4c-10.8 13.4 -30.4 15.6 -43.9 4.8L11.7 80C-1.8 69.3 -3.9 49.6 6.9 36.1L26.4 11.7C37.2 -1.8 56.8 -3.9 70.3 6.9zM319.4 718.8h357.1l119.9 93.7H250.2c-37.3 0 -62.5 -30.5 -62.7 -62.5 -.1 -14.7 5.1 -29.8 16.8 -42.4C240.2 669 305.1 610.5 311.4 433.3l88.9 69.5c-13.6 107 -48.3 172.9 -80.9 215.9zM625 187.5c-45.6 0 -87.9 14 -122.9 37.9l-74.6 -58.3c38.5 -30.8 84.2 -53.3 135 -63.9V62.5C562.5 28 590.5 0 625 0s62.5 28 62.5 62.5v40.7c143.4 29.8 249.8 151.3 249.8 303 0 80.8 11.8 138.2 28.1 181.4L849.1 496.7c-3.2 -27.3 -5.4 -56.4 -5.5 -89.3 0 -.4 .1 -.8 .1 -1.2C843.7 285.4 745.8 187.5 625 187.5zm0 812.5c-69 0 -124.9 -56 -124.9 -125h249.8c0 69 -55.9 125 -124.9 125z"/></svg>