<svg height="512" width="640" xmlns="http://www.w3.org/2000/svg"><path d="M368 32h-96c-17.7 0-32 14.3-32 32v96c0 17.7 14.3 32 32 32h96c17.7 0 32-14.3 32-32V64C400 46.3 385.7 32 368 32M208 88h-84.7C113.8 64.6 90.8 48 64 48 28.7 48 0 76.7 0 112s28.7 64 64 64c26.8 0 49.8-16.6 59.3-40H203c-55.4 32.5-95.9 87.3-109.6 152h49.4c11.3-41.6 36.8-77.2 71.1-101.6-3.7-8-5.9-17-5.9-26.4zm-48 232H64c-17.7 0-32 14.3-32 32v96c0 17.7 14.3 32 32 32h96c17.7 0 32-14.3 32-32v-96c0-17.7-14.3-32-32-32M576 48c-26.8 0-49.7 16.6-59.2 40H432v72c0 9.4-2.2 18.4-5.9 26.4 34.3 24.4 59.8 60 71.1 101.6h49.4C532.9 223.3 492.4 168.5 437 136h79.8c9.5 23.4 32.4 40 59.2 40 35.3 0 64-28.7 64-64S611.3 48 576 48m0 272h-96c-17.7 0-32 14.3-32 32v96c0 17.7 14.3 32 32 32h96c17.7 0 32-14.3 32-32v-96c0-17.7-14.3-32-32-32"/></svg>