<svg height="512" width="448" xmlns="http://www.w3.org/2000/svg"><path d="M448 358.4V25.6C448 9.6 438.4 0 422.4 0H96C41.6 0 0 41.6 0 96v320c0 54.4 41.6 96 96 96h326.4c12.8 0 25.6-9.6 25.6-25.6v-16q0-9.6-9.6-19.2c-3.2-16-3.2-60.8 0-73.6q9.6-4.8 9.6-19.2M144 144c0-8.8 7.2-16 16-16h48V80c0-8.8 7.2-16 16-16h32c8.8 0 16 7.2 16 16v48h48c8.8 0 16 7.2 16 16v32c0 8.8-7.2 16-16 16h-48v112c0 8.8-7.2 16-16 16h-32c-8.8 0-16-7.2-16-16V192h-48c-8.8 0-16-7.2-16-16zm236.8 304H96C76.8 448 64 435.2 64 416s16-32 32-32h284.8z"/></svg>