<svg height="512" width="640" xmlns="http://www.w3.org/2000/svg"><path d="M512.5 192c-16.4-.1-32 3-46.4 8.5L388.4 75.3A24 24 0 0 0 368 64h-64c-8.8 0-16 7.2-16 16v16c0 8.8 7.2 16 16 16h50.6l14.9 24H256v-16c0-8.8-7.2-16-16-16h-87.5c-13.4 0-24.7 11-24.5 24.4.2 13.1 10.9 23.6 24 23.6h48.7l-29.4 47.5c-13.4-4.8-27.9-7.5-43-7.5C58.1 191.8.4 249 0 319.2-.4 390.3 57.1 448 128 448c59.6 0 109.8-40.8 124-96h52a24 24 0 0 0 20.4-11.4l86-138.8 14.9 24c-25.4 23.5-41.4 57.1-41.3 94.5.1 68.8 57.9 127 126.7 127.7 70.6.7 128.2-55.8 129.3-126C641.1 251.1 583.5 192.3 512.5 192m-325.7 73.8c9.7 10.5 16.6 23.6 19.6 38.2h-43.3zM128 400C83.9 400 48 364.1 48 320s35.9-80 80-80c5.9 0 11.6.7 17.1 1.9l-45.5 73.5c-9.9 15.9 1.6 36.6 20.4 36.6h81.3c-12.4 28.2-40.6 48-73.3 48m162.6-96H255c-4-31.8-19.5-59.9-42.4-80l24.8-40h127.5zm217.1 95.9c-41-2.2-74.1-35.7-75.6-76.8-.9-21.1 6.6-40.5 19.3-55.2l44.4 71.6c4.7 7.5 14.6 9.8 22.1 5.1l13.6-8.4c7.5-4.7 9.8-14.6 5.1-22.1l-44.5-71.6A80 80 0 0 1 512 240c44.1 0 80 35.9 80 80 0 45.5-38.2 82.3-84.3 79.9"/></svg>