<svg height="512" width="640" xmlns="http://www.w3.org/2000/svg"><path d="M400 96A48 48 0 1 0 352 48a48 48 0 0 0 48 48m-4 121a31.9 31.9 0 0 0 20 7h64a32 32 0 0 0 0-64h-52.8L356 103a31.9 31.9 0 0 0-40.8.7l-112 96a32 32 0 0 0 3.1 50.9l81.7 54.5V416a32 32 0 0 0 64 0V288a32 32 0 0 0-14.2-26.6l-41.4-27.6 58.2-49.9zm116 39a128 128 0 1 0 128 128A128 128 0 0 0 512 256m0 192a64 64 0 1 1 64-64 64 64 0 0 1-64 64M128 256a128 128 0 1 0 128 128A128 128 0 0 0 128 256m0 192a64 64 0 1 1 64-64 64 64 0 0 1-64 64"/></svg>