<svg height="512" width="448" xmlns="http://www.w3.org/2000/svg"><path d="M448 384c-28 0-31.3-32-74.5-32-43.4 0-46.8 32-74.7 32-27.7 0-31.5-32-74.8-32-42.8 0-47.2 32-74.5 32-28.1 0-31.2-32-74.7-32C31.2 352 28.1 384 0 384v-80c0-26.5 21.5-48 48-48h16V112h64v144h64V112h64v144h64V112h64v144h16c26.5 0 48 21.5 48 48zm0 128H0v-96c43.4 0 46.8-32 74.8-32 27.9 0 31.2 32 74.7 32 42.8 0 47.2-32 74.5-32 28.1 0 31.2 32 74.8 32 43.3 0 46.7-32 74.7-32 27.5 0 31.3 32 74.5 32zM96 96C78.3 96 64 81.8 64 64 64 33 96 41 96 0c12 0 32 29.5 32 56S113.8 96 96 96m128 0C206.3 96 192 81.8 192 64c0-31 32-23 32-64 12 0 32 29.5 32 56s-14.2 40-32 40m128 0C334.3 96 320 81.8 320 64c0-31 32-23 32-64 12 0 32 29.5 32 56s-14.2 40-32 40"/></svg>