<svg height="512" width="512" xmlns="http://www.w3.org/2000/svg"><path d="M504 256c0 137-111 248-248 248S8 393 8 256 119 8 256 8s248 111 248 248M362.3 220.7c5-33-20.1-50.8-54.5-62.6l11.1-44.7-27.2-6.8-10.8 43.5c-7.2-1.7-14.5-3.4-21.8-5.1L270 101.2l-27.2-6.8-11.1 44.7c-6-1.3-11.8-2.7-17.4-4.1v-.1l-37.5-9.4-7.3 29.1s20.2 4.6 19.8 4.9c11 2.7 13 10 12.7 15.8l-12.7 50.9c.7.2 1.7.5 2.8.9-.9-.2-1.9-.4-2.9-.7l-17.8 71.4c-1.3 3.3-4.7 8.3-12.4 6.4.2.4-19.8-4.9-19.8-4.9l-13.5 31.1 35.4 8.9c6.6 1.6 13 3.3 19.4 5l-11.3 45.2 27.2 6.8 11.2-44.8a1038 1038 0 0 0 21.7 5.7l-11.2 44.5 27.3 6.8 11.2-45.2c46.4 8.8 81.3 5.3 96-36.7 11.8-33.8-.6-53.3-25-66 17.8-4.1 31.2-15.8 34.7-39.9m-62.1 87.1c-8.4 33.8-65.3 15.6-83.8 11l15-59.9c18.4 4.6 77.6 13.7 68.8 48.9m8.4-87.6c-7.7 30.7-55 15.1-70.4 11.3l13.5-54.4c15.4 3.9 64.9 11 56.9 43.1"/></svg>