<svg height="512" width="496" xmlns="http://www.w3.org/2000/svg"><path d="M78.4 67.2C173.8-22 324.5-24 421.5 71c14.3 14.1-6.4 37.1-22.4 21.5C314.3 10.1 183.3 12.2 100.2 89.3 83.9 104.4 63.7 81 78.4 67.2m98.9 418.6c19.3 5.7 29.3-23.6 7.9-30C73 421.9 9.4 306.1 37.7 194.8c5-19.6-24.9-28.1-30.2-7.1-32.1 127.4 41.1 259.8 169.8 298.1m148.1-2c121.9-40.2 192.9-166.9 164.4-291-4.5-19.7-34.9-13.8-30 7.9C484 308.4 422.7 418.6 316.6 454.1c-21.2 7-10.4 36 8.8 29.7m-62.9-79 .2-71.8c0-8.2-6.6-14.8-14.8-14.8s-14.8 6.7-14.8 14.8l-.2 71.8c0 8.2 6.6 14.8 14.8 14.8s14.8-6.6 14.8-14.8m71-269c2.1 90.9 4.7 131.9-85.5 132.5C155.5 267.6 161.1 224 162.5 135.8c0-21.8-32.5-19.6-32.5 0v71.6c0 69.3 60.7 90.9 118 90.1 57.3.8 118-20.8 118-90.1v-71.6c0-19.6-32.5-21.8-32.5 0"/></svg>