<svg height="512" width="576" xmlns="http://www.w3.org/2000/svg"><path d="M392 64h166.5L576 0H192v352h288l17.5-64H392c-4.4 0-8-3.6-8-8v-16c0-4.4 3.6-8 8-8h114.2l17.4-64H392c-4.4 0-8-3.6-8-8v-16c0-4.4 3.6-8 8-8h140.4l17.4-64H392c-4.4 0-8-3.6-8-8V72c0-4.4 3.6-8 8-8M158.8 335 133 271.8c-2.8-6.9-9.8-11-17.2-10.3l-45 4.4C53.5 219 53.1 166.1 70.8 118.2l45 4.4c7.4.7 14.4-3.4 17.2-10.2l25.8-63.3c3-7.4.2-15.9-6.7-20.1L112.8 4.9C98.5-3.9 80.1-.5 69 12c-92.6 103.6-92 259.5 2 362.5 9.9 10.8 29.2 12.4 41.7 4.8l39.4-24.2c6.9-4.2 9.7-12.7 6.7-20.1M480 384H192c-35.3 0-64 28.6-64 64v32c0 17.7 14.3 32 32 32h352c17.7 0 32-14.3 32-32v-32c0-35.4-28.6-64-64-64m-144 96c-17.7 0-32-14.3-32-32s14.3-32 32-32 32 14.3 32 32-14.3 32-32 32"/></svg>