<svg height="512" width="512" xmlns="http://www.w3.org/2000/svg"><path d="M416 384H160c-35.3 0-64 28.6-64 64v32c0 17.7 14.3 32 32 32h320c17.7 0 32-14.3 32-32v-32c0-35.4-28.6-64-64-64m-128 96c-17.7 0-32-14.3-32-32s14.3-32 32-32 32 14.3 32 32-14.3 32-32 32M328 64h166.5L512 0H48C21.5 0 0 21.5 0 48v160c0 26.5 21.5 48 48 48h103.3l8.7 96h256l17.5-64H328c-4.4 0-8-3.6-8-8v-16c0-4.4 3.6-8 8-8h114.2l17.4-64H328c-4.4 0-8-3.6-8-8v-16c0-4.4 3.6-8 8-8h140.4l17.4-64H328c-4.4 0-8-3.6-8-8V72c0-4.4 3.6-8 8-8M64 192V64h69.8l11.7 128z"/></svg>