<svg height="512" width="384" xmlns="http://www.w3.org/2000/svg"><path d="M380.1 510.8a8 8 0 0 1-10.9-2.7L243.8 301.7a31.9 31.9 0 0 0 13-9.5l126 207.6a8 8 0 0 1-2.6 11zM142.8 314.3l-32.5 89.5 36.1 88.3c6.7 16.4 25.4 24.2 41.7 17.5 16.4-6.7 24.2-25.4 17.5-41.7zM96 88c24.3 0 44-19.7 44-44S120.3 0 96 0 52 19.7 52 44s19.7 44 44 44m154.8 169.1-120-152C126.1 99.1 119.1 96 112 96H80c-7.1 0-14.2 3.2-18.9 9.3L0 183.8v95.7c0 13.4 11 24.8 24.5 24.5 13-.3 23.5-10.9 23.5-24v-79.8l16-20.5v140.7L9.9 469.1c-6 16.6 2.6 34.9 19.2 41 16.6 6 34.9-2.6 41-19.2L136 309.6V202.4l-31.4-39.8a4 4 0 1 1 6.3-4.9l102.3 129.2c9.1 11.6 24.3 11.3 33.7 3.9 10.4-8.2 12.1-23.3 3.9-33.7"/></svg>