<svg height="512" width="512" xmlns="http://www.w3.org/2000/svg"><path d="M172.2 226.8c-14.6-2.9-28.2 8.9-28.2 23.8V301c0 10.2 7.1 18.4 16.7 22 18.2 6.8 31.3 24.4 31.3 45 0 26.5-21.5 48-48 48S96 394.5 96 368V120C96 106.7 85.3 96 72 96H24C10.7 96 0 106.7 0 120v248c0 89.5 82.1 160.2 175 140.7C229.4 497.3 273.3 453.3 284.7 399c17.4-82.9-37-157.2-112.5-172.2M209 0c-9.2-.5-17 6.8-17 16v31.6c0 8.5 6.6 15.5 15 15.9 129.4 7 233.4 112 240.9 241.5.5 8.4 7.5 15 15.9 15h32.1c9.2 0 16.5-7.8 16-17C503.4 139.8 372.2 8.6 209 0m.3 96C200 95.3 192 102.7 192 112.1v32.1c0 8.4 6.5 15.3 14.8 15.9 76.8 6.3 138 68.2 144.9 145.2.8 8.3 7.6 14.7 15.9 14.7h32.2c9.3 0 16.8-8 16.1-17.3C407.5 192.6 319.4 104.5 209.3 96"/></svg>