<svg height="512" width="640" xmlns="http://www.w3.org/2000/svg"><path d="M598.9 244.6C624.1 232 640 206.2 640 178v-7.6C640 129.3 606.7 96 565.6 96c-32 0-60.4 20.5-70.6 50.9-7.6 23-11.6 45.1-38.1 45.1H183.1c-27.4 0-31.6-25.5-38.2-45.1C134.8 116.5 106.4 96 74.4 96 33.3 96 0 129.3 0 170.4v7.6c0 28.2 15.9 54 41.1 66.6 9.4 4.7 9.4 18.1 0 22.8C15.9 280 0 305.8 0 334v7.6C0 382.7 33.3 416 74.4 416c32 0 60.4-20.5 70.5-50.9 7.7-23 11.6-45.1 38.2-45.1h273.8c27.4 0 31.6 25.5 38.1 45.1 10.2 30.4 38.6 50.9 70.6 50.9 41.1 0 74.4-33.3 74.4-74.4V334c0-28.2-15.9-54-41.1-66.6-9.4-4.7-9.4-18.1 0-22.8"/></svg>