<svg height="512" width="448" xmlns="http://www.w3.org/2000/svg"><path d="M302.5 512c23.2 0 44.4-12.6 56-32.7C374.7 451.3 384 418.8 384 384c0-36.1-10.1-69.8-27.4-98.6L400 241.9l9.4 9.4c6.2 6.3 16.4 6.3 22.6 0L443.3 240c6.3-6.2 6.3-16.4 0-22.6l-52.7-52.7c-6.2-6.3-16.4-6.3-22.6 0L356.7 176c-6.3 6.2-6.3 16.4 0 22.6l9.4 9.4-39.5 39.4C315.1 236 302.1 226.1 288 217.9V63.7h16c8.8 0 15.9-7.1 16-16V16C320 7.2 312.8 0 304 0L80 .3C71.2.3 64.1 7.4 64 16.2V48c0 8.8 7.2 16 16 16h16v153.9C38.7 251.1 0 313 0 384c0 34.8 9.3 67.3 25.5 95.3 11.6 20.1 32.8 32.7 56 32.7zM120.1 259.4 144 245.6V63.9l96-.1v181.8l23.9 13.8c24.9 14.4 44.2 35.8 56.6 60.6h-257C76 295.2 95.3 273.8 120.1 259.4"/></svg>