<svg height="512" width="512" xmlns="http://www.w3.org/2000/svg"><path d="M352 96C352 43 309 0 256 0s-96 43-96 96 43 96 96 96 96-43 96-96M233.6 241.1C174.3 204.8 78.2 194.8 29.8 192.1 13.6 191.1 0 203.5 0 219.1v222.8c0 14.4 11.6 26.3 26.5 27.1 43.6 2.3 132 10.7 193 41.4 9.4 4.7 20.5-1.7 20.5-11.8v-246c0-4.7-2.3-9-6.4-11.5m248.6-49c-48.3 2.7-144.5 12.7-203.8 49-4.1 2.5-6.4 7-6.4 11.6v245.8c0 10.2 11.2 16.6 20.6 11.9 61-30.7 149.3-39.1 192.9-41.4 14.9-.8 26.5-12.7 26.5-27V219.1c0-15.6-13.5-28-29.8-27.1z"/></svg>