<svg height="512" width="448" xmlns="http://www.w3.org/2000/svg"><path d="M240 224h-32a16 16 0 0 0-16 16v32a16 16 0 0 0 16 16h32a16 16 0 0 0 16-16v-32a16 16 0 0 0-16-16m96 0h-32a16 16 0 0 0-16 16v32a16 16 0 0 0 16 16h32a16 16 0 0 0 16-16v-32a16 16 0 0 0-16-16m96 0h-32a16 16 0 0 0-16 16v32a16 16 0 0 0 16 16h32a16 16 0 0 0 16-16v-32a16 16 0 0 0-16-16m-288 0h-32a16 16 0 0 0-16 16v32a16 16 0 0 0 16 16h32a16 16 0 0 0 16-16v-32a16 16 0 0 0-16-16m96 192h-32a16 16 0 0 0-16 16v32a16 16 0 0 0 16 16h32a16 16 0 0 0 16-16v-32a16 16 0 0 0-16-16m96 0h-32a16 16 0 0 0-16 16v32a16 16 0 0 0 16 16h32a16 16 0 0 0 16-16v-32a16 16 0 0 0-16-16m96 0h-32a16 16 0 0 0-16 16v32a16 16 0 0 0 16 16h32a16 16 0 0 0 16-16v-32a16 16 0 0 0-16-16m0-96h-32a16 16 0 0 0-16 16v32a16 16 0 0 0 16 16h32a16 16 0 0 0 16-16v-32a16 16 0 0 0-16-16m0-192h-32a16 16 0 0 0-16 16v32a16 16 0 0 0 16 16h32a16 16 0 0 0 16-16v-32a16 16 0 0 0-16-16M240 320h-32a16 16 0 0 0-16 16v32a16 16 0 0 0 16 16h32a16 16 0 0 0 16-16v-32a16 16 0 0 0-16-16m0-192h-32a16 16 0 0 0-16 16v32a16 16 0 0 0 16 16h32a16 16 0 0 0 16-16v-32a16 16 0 0 0-16-16m-96 288h-32a16 16 0 0 0-16 16v32a16 16 0 0 0 16 16h32a16 16 0 0 0 16-16v-32a16 16 0 0 0-16-16M240 32h-32a16 16 0 0 0-16 16v32a16 16 0 0 0 16 16h32a16 16 0 0 0 16-16V48A16 16 0 0 0 240 32m96 0h-32a16 16 0 0 0-16 16v32a16 16 0 0 0 16 16h32a16 16 0 0 0 16-16V48A16 16 0 0 0 336 32m96 0h-32a16 16 0 0 0-16 16v32a16 16 0 0 0 16 16h32a16 16 0 0 0 16-16V48A16 16 0 0 0 432 32M48 224H16A16 16 0 0 0 0 240v32a16 16 0 0 0 16 16h32a16 16 0 0 0 16-16v-32A16 16 0 0 0 48 224m0 192H16A16 16 0 0 0 0 432v32a16 16 0 0 0 16 16h32a16 16 0 0 0 16-16v-32A16 16 0 0 0 48 416m0-96H16A16 16 0 0 0 0 336v32a16 16 0 0 0 16 16h32a16 16 0 0 0 16-16v-32A16 16 0 0 0 48 320m0-192H16A16 16 0 0 0 0 144v32a16 16 0 0 0 16 16h32a16 16 0 0 0 16-16v-32A16 16 0 0 0 48 128m0-96H16A16 16 0 0 0 0 48v32a16 16 0 0 0 16 16h32A16 16 0 0 0 64 80V48A16 16 0 0 0 48 32m96 0h-32A16 16 0 0 0 96 48v32a16 16 0 0 0 16 16h32a16 16 0 0 0 16-16V48A16 16 0 0 0 144 32"/></svg>