<svg height="512" width="640" xmlns="http://www.w3.org/2000/svg"><path d="M425.7 256c-16.9 0-32.8-9-41.4-23.4L320 126l-64.2 106.6c-8.7 14.5-24.6 23.5-41.5 23.5-4.5 0-9-.6-13.3-1.9L64 215v178c0 14.7 10 27.5 24.2 31l216.2 54.1c10.2 2.5 20.9 2.5 31 0L551.8 424C566 420.4 576 407.6 576 393V215l-137 39.1c-4.3 1.3-8.8 1.9-13.3 1.9M638.3 143.8 586.8 41c-3.1-6.2-9.8-9.8-16.7-8.9L320 64l91.7 152.1c3.8 6.3 11.4 9.3 18.5 7.3l197.9-56.5C638 164 642.8 153 638.3 143.8M53.2 41 1.7 143.8c-4.6 9.2.3 20.2 10.1 23l197.9 56.5c7.1 2 14.7-1 18.5-7.3L320 64 69.8 32.1C62.9 31.3 56.3 34.8 53.2 41"/></svg>