<svg height="512" width="640" xmlns="http://www.w3.org/2000/svg"><path d="M128 256c0 35.3-28.7 64-64 64S0 291.3 0 256s28.7-64 64-64 64 28.7 64 64M64 384c-17.7 0-32 14.3-32 32s14.3 32 32 32 32-14.3 32-32S81.7 384 64 384M64 32C28.7 32 0 60.7 0 96s28.7 64 64 64 64-28.7 64-64S99.3 32 64 32m160 192c-17.7 0-32 14.3-32 32s14.3 32 32 32 32-14.3 32-32-14.3-32-32-32m0 160c-17.7 0-32 14.3-32 32s14.3 32 32 32 32-14.3 32-32-14.3-32-32-32m0-352c-35.3 0-64 28.7-64 64s28.7 64 64 64 64-28.7 64-64S259.3 32 224 32m224 192c-17.7 0-32 14.3-32 32s14.3 32 32 32 32-14.3 32-32-14.3-32-32-32m0 160c-17.7 0-32 14.3-32 32s14.3 32 32 32 32-14.3 32-32-14.3-32-32-32m0-352c-35.3 0-64 28.7-64 64s28.7 64 64 64 64-28.7 64-64S483.3 32 448 32m160 192c-17.7 0-32 14.3-32 32s14.3 32 32 32 32-14.3 32-32-14.3-32-32-32m0 160c-17.7 0-32 14.3-32 32s14.3 32 32 32 32-14.3 32-32-14.3-32-32-32m0-320c-17.7 0-32 14.3-32 32s14.3 32 32 32 32-14.3 32-32S625.7 64 608 64"/></svg>