<svg height="512" width="640" xmlns="http://www.w3.org/2000/svg"><path d="M150.9 192h33.8c11 0 18.6-10.8 14.8-21.2C194.6 157.2 192 142.8 192 128s2.6-29.2 7.5-42.8C203.3 74.8 195.7 64 184.7 64h-33.8c-7 0-13.4 4.5-15.4 11.2-4.9 17-7.5 34.7-7.5 52.8s2.6 35.8 7.5 52.8c2 6.7 8.4 11.2 15.4 11.2M89.9 23.3C95.6 12.7 88 0 76 0H40.6C34.4 0 28.5 3.6 25.9 9.3 9.4 45.5 0 85.7 0 128c0 24.8 3.1 68.3 26.7 118.9 2.6 5.6 8.4 9.1 14.6 9.1h34.8c12.1 0 19.7-12.7 14-23.4C40.3 139.3 73.4 54.5 89.9 23.3m524.2-14C611.5 3.6 605.6 0 599.3 0h-35.4c-12 0-19.6 12.7-14 23.3 18.3 34.2 48.4 119.4.3 209.2-5.7 10.7 1.8 23.5 13.9 23.5h35.2c6.3 0 12.1-3.6 14.7-9.3 16.6-36.2 26-76.3 26-118.7S630.6 45.5 614.1 9.3M489.1 64h-33.8c-11 0-18.6 10.8-14.8 21.2 4.9 13.6 7.5 28 7.5 42.8s-2.6 29.2-7.5 42.8c-3.8 10.4 3.8 21.2 14.8 21.2h33.8c7 0 13.4-4.5 15.4-11.2 4.9-17 7.5-34.7 7.5-52.8s-2.6-35.8-7.5-52.8C502.5 68.5 496.1 64 489.1 64M372.8 164.1c7-10.3 11.2-22.7 11.2-36.1C384 92.7 355.3 64 320 64s-64 28.7-64 64c0 13.4 4.2 25.8 11.2 36.1L136.7 477.5c-3.4 8.2.5 17.6 8.7 21l29.5 12.3c8.1 3.4 17.5-.5 20.9-8.6L245 384h150l49.2 118.1c3.4 8.2 12.8 12.1 20.9 8.7l29.5-12.4c8.2-3.3 12-12.7 8.7-20.9zM271.6 320 320 203.8 368.4 320z"/></svg>