<svg height="512" width="384" xmlns="http://www.w3.org/2000/svg"><path d="M310.2 242.6c27.7-14.1 45.4-39.4 41.3-81.3C346.1 104 299 84.8 236.6 79.4V0h-48.5v77.2c-12.6 0-25.5.3-38.4.6V0h-48.6v79.4c-17.8.5-38.6.3-97.3 0v51.7c38.3-.7 58.4-3.2 63 21.4v217.4C63.9 389.4 48.3 386.6 13.5 386l-9.7 57.7c88.4 0 97.3.3 97.3.3v68h48.6v-67.1c13.2.4 26.1.4 38.4.4V512h48.5v-68c81.3-4.4 135.7-24.9 142.9-101.5 5.7-61.4-23.3-88.8-69.3-99.9m-159.6-108c27.4 0 113.1-8.6 113.1 48.5 0 54.5-85.7 48.2-113.1 48.2zm0 251.7V279.8c32.8 0 133.1-9.1 133.1 53.3 0 60.2-100.3 53.2-133.1 53.2"/></svg>