<svg height="1000" width="875" xmlns="http://www.w3.org/2000/svg"><path d="M250 289.1v-78.2c0 -12.9 10.5 -23.4 23.4 -23.4h78.2c12.9 0 23.4 10.5 23.4 23.4v78.2c0 12.9 -10.5 23.4 -23.4 23.4h-78.2C260.5 312.5 250 302 250 289.1zm273.4 23.4C510.5 312.5 500 302 500 289.1v-78.2c0 -12.9 10.5 -23.4 23.4 -23.4h78.2c12.9 0 23.4 10.5 23.4 23.4v78.2c0 12.9 -10.5 23.4 -23.4 23.4h-78.2zM273.4 500C260.5 500 250 489.5 250 476.6v-78.2c0 -12.9 10.5 -23.4 23.4 -23.4h78.2c12.9 0 23.4 10.5 23.4 23.4v78.2c0 12.9 -10.5 23.4 -23.4 23.4h-78.2zm250 0C510.5 500 500 489.5 500 476.6v-78.2c0 -12.9 10.5 -23.4 23.4 -23.4h78.2c12.9 0 23.4 10.5 23.4 23.4v78.2c0 12.9 -10.5 23.4 -23.4 23.4h-78.2zM375 664.1c0 12.9 -10.5 23.4 -23.4 23.4h-78.2C260.5 687.5 250 677 250 664.1v-78.2c0 -12.9 10.5 -23.4 23.4 -23.4h78.2c12.9 0 23.4 10.5 23.4 23.4v78.2zm148.4 23.4C510.5 687.5 500 677 500 664.1v-78.2c0 -12.9 10.5 -23.4 23.4 -23.4h78.2c12.9 0 23.4 10.5 23.4 23.4v78.2c0 12.9 -10.5 23.4 -23.4 23.4h-78.2zM875 929.7v70.3H0v-70.3c0 -12.9 10.5 -23.4 23.4 -23.4h38.1V46.9C61.5 20.9 82.4 0 108.4 0h658.2c26 0 46.9 20.9 46.9 46.9v859.4h38.1c12.9 0 23.4 10.5 23.4 23.4zM155.3 904.3H375V773.4c0 -12.9 10.5 -23.4 23.4 -23.4h78.2c12.9 0 23.4 10.5 23.4 23.4v130.9h219.7V95.7L156.3 93.8z"/></svg>