<svg height="1000" width="875" xmlns="http://www.w3.org/2000/svg"><path d="M250 289.1v-78.2c0 -12.9 10.5 -23.4 23.4 -23.4h78.2c12.9 0 23.4 10.5 23.4 23.4v78.2c0 12.9 -10.5 23.4 -23.4 23.4h-78.2C260.5 312.5 250 302 250 289.1zm273.4 23.4h78.2c12.9 0 23.4 -10.5 23.4 -23.4v-78.2c0 -12.9 -10.5 -23.4 -23.4 -23.4h-78.2c-12.9 0 -23.4 10.5 -23.4 23.4v78.2c0 12.9 10.5 23.4 23.4 23.4zM273.4 500h78.2c12.9 0 23.4 -10.5 23.4 -23.4v-78.2C375 385.5 364.5 375 351.6 375h-78.2c-12.9 0 -23.4 10.5 -23.4 23.4v78.2c0 12.9 10.5 23.4 23.4 23.4zm250 0h78.2c12.9 0 23.4 -10.5 23.4 -23.4v-78.2C625 385.5 614.5 375 601.6 375h-78.2c-12.9 0 -23.4 10.5 -23.4 23.4v78.2c0 12.9 10.5 23.4 23.4 23.4zM375 664.1v-78.2c0 -12.9 -10.5 -23.4 -23.4 -23.4h-78.2c-12.9 0 -23.4 10.5 -23.4 23.4v78.2c0 12.9 10.5 23.4 23.4 23.4h78.2c12.9 0 23.4 -10.5 23.4 -23.4zm148.4 23.4h78.2c12.9 0 23.4 -10.5 23.4 -23.4v-78.2c0 -12.9 -10.5 -23.4 -23.4 -23.4h-78.2c-12.9 0 -23.4 10.5 -23.4 23.4v78.2c0 12.9 10.5 23.4 23.4 23.4zM875 929.7v70.3H0v-70.3c0 -12.9 10.5 -23.4 23.4 -23.4h38.1V46.9C61.5 20.9 82.4 0 108.4 0h658.2c26 0 46.9 20.9 46.9 46.9v859.4h38.1c12.9 0 23.4 10.5 23.4 23.4zM155.3 904.3H375V773.4c0 -12.9 10.5 -23.4 23.4 -23.4h78.2c12.9 0 23.4 10.5 23.4 23.4v130.9h219.7V95.7L156.3 93.8l-1 810.5z"/></svg>