<svg height="512" width="448" xmlns="http://www.w3.org/2000/svg"><path d="M436 480h-20V24C416 10.7 405.3 0 392 0H56C42.7 0 32 10.7 32 24v456H12c-6.6 0-12 5.4-12 12v20h448v-20c0-6.6-5.4-12-12-12M128 76c0-6.6 5.4-12 12-12h40c6.6 0 12 5.4 12 12v40c0 6.6-5.4 12-12 12h-40c-6.6 0-12-5.4-12-12zm0 96c0-6.6 5.4-12 12-12h40c6.6 0 12 5.4 12 12v40c0 6.6-5.4 12-12 12h-40c-6.6 0-12-5.4-12-12zm52 148h-40c-6.6 0-12-5.4-12-12v-40c0-6.6 5.4-12 12-12h40c6.6 0 12 5.4 12 12v40c0 6.6-5.4 12-12 12m76 160h-64v-84c0-6.6 5.4-12 12-12h40c6.6 0 12 5.4 12 12zm64-172c0 6.6-5.4 12-12 12h-40c-6.6 0-12-5.4-12-12v-40c0-6.6 5.4-12 12-12h40c6.6 0 12 5.4 12 12zm0-96c0 6.6-5.4 12-12 12h-40c-6.6 0-12-5.4-12-12v-40c0-6.6 5.4-12 12-12h40c6.6 0 12 5.4 12 12zm0-96c0 6.6-5.4 12-12 12h-40c-6.6 0-12-5.4-12-12V76c0-6.6 5.4-12 12-12h40c6.6 0 12 5.4 12 12z"/></svg>