<svg height="512" width="576" xmlns="http://www.w3.org/2000/svg"><path d="M576 240c0-23.6-13-44-32-55.1V32C544 23.3 537 0 512 0c-7.1 0-14.2 2.4-20 7l-85 68c-42.7 34.2-96.3 53-151 53H64C28.6 128 0 156.7 0 192v96c0 35.4 28.6 64 64 64h33.7c-1.4 10.5-2.2 21.1-2.2 32 0 39.8 9.3 77.4 25.6 110.9 5.2 10.7 16.5 17.1 28.4 17.1h74.3c26 0 41.6-29.8 25.9-50.6C233.3 439.9 223.5 413.1 223.5 384c0-11.1 1.6-21.8 4.4-32H256c54.7 0 108.3 18.8 151 52.9l85 68.1a32 32 0 0 0 20 7c24.9 0 32-22.8 32-32V295.1C563 284 576 263.6 576 240m-96 141.4L446.9 355C392.9 311.8 325.1 288 256 288v-96c69.1 0 136.9-23.8 190.9-67L480 98.6z"/></svg>