<svg height="512" width="512" xmlns="http://www.w3.org/2000/svg"><path d="M488 128h-8V80C480 35.2 380.8 0 256 0S32 35.2 32 80v48h-8C10.8 128 0 138.7 0 152v80c0 13.3 10.8 24 24 24h8v160c0 17.7 14.3 32 32 32v32c0 17.7 14.3 32 32 32h32c17.7 0 32-14.3 32-32v-32h192v32c0 17.7 14.3 32 32 32h32c17.7 0 32-14.3 32-32v-32h6.4c16 0 25.6-12.8 25.6-25.6V256h8c13.3 0 24-10.7 24-24v-80c0-13.3-10.7-24-24-24M112 400C94.3 400 80 385.7 80 368s14.3-32 32-32 32 14.3 32 32-14.3 32-32 32m16-112c-17.7 0-32-14.3-32-32V128c0-17.7 14.3-32 32-32h256c17.7 0 32 14.3 32 32v128c0 17.7-14.3 32-32 32zm272 112c-17.7 0-32-14.3-32-32s14.3-32 32-32 32 14.3 32 32-14.3 32-32 32"/></svg>