<svg height="512" width="640" xmlns="http://www.w3.org/2000/svg"><path d="M496 224c-79.6 0-144 64.4-144 144s64.4 144 144 144S640 447.6 640 368 575.6 224 496 224m64 150.3c0 5.3-4.4 9.7-9.7 9.7h-60.6c-5.3 0-9.7-4.4-9.7-9.7v-76.6c0-5.3 4.4-9.7 9.7-9.7h12.6c5.3 0 9.7 4.4 9.7 9.7V352h38.3c5.3 0 9.7 4.4 9.7 9.7zM496 192c5.4 0 10.7.3 16 .8V144c0-25.6-22.4-48-48-48h-80V48C384 22.4 361.6 0 336 0H176c-25.6 0-48 22.4-48 48v48H48C22.4 96 0 118.4 0 144v80h395.1c28.6-20.1 63.4-32 100.9-32M320 96H192V64h128zm6.8 224H208c-8.8 0-16-7.2-16-16v-48H0v144c0 25.6 22.4 48 48 48h291.4C327.1 424 320 396.8 320 368c0-16.7 2.5-32.7 6.8-48"/></svg>