<svg height="512" width="576" xmlns="http://www.w3.org/2000/svg"><path d="M288 32C133.3 32 7.8 132.3 7.8 256S133.3 480 288 480 568.2 379.7 568.2 256 442.7 32 288 32m-85.4 357.2-138.5 1.4L141.3 99.8h133.5c63.1 0 84.9 28.7 78 72.9a60 60 0 0 1-1.5 6.8 77.4 77.4 0 0 0-17.2-1.9c-42.4 0-76.7 33.8-76.7 75.6 0 37.2 27.1 68 62.9 74.5-18.2 37.1-56.1 60.9-117.7 61.5M358 207.1h32l-22.2 90.3h-35.4l-11.2-35.6-7.8 35.6h-37.8l26.6-90.3h31.3l15 36.8zm145.9 182.1H306.8L322.6 328a79 79 0 0 0 11.5.8c42.3 0 76.7-33.8 76.7-75.6 0-32.7-21-60.5-50.4-71.1l21.3-82.3h92.5l-53 205.3h103.9zM211.7 269.4H187l-13.8 56.5h24.7c16.1 0 32.1-3.2 37.9-26.7 5.6-22.3-8-29.8-24.1-29.8M233 170h-21.3L200 217.7h21.4c18 0 35.4-14.6 39.2-30.1C265.2 168.7 251.1 170 233 170"/></svg>