<svg height="512" width="448" xmlns="http://www.w3.org/2000/svg"><path d="M400 0H48C22.4 0 0 22.4 0 48v416c0 25.6 22.4 48 48 48h352c25.6 0 48-22.4 48-48V48C448 22.4 425.6 0 400 0M128 435.2c0 6.4-6.4 12.8-12.8 12.8H76.8C70.4 448 64 441.6 64 435.2v-38.4C64 390.4 70.4 384 76.8 384h38.4c6.4 0 12.8 6.4 12.8 12.8zm0-128c0 6.4-6.4 12.8-12.8 12.8H76.8C70.4 320 64 313.6 64 307.2v-38.4C64 262.4 70.4 256 76.8 256h38.4c6.4 0 12.8 6.4 12.8 12.8zm128 128c0 6.4-6.4 12.8-12.8 12.8h-38.4c-6.4 0-12.8-6.4-12.8-12.8v-38.4c0-6.4 6.4-12.8 12.8-12.8h38.4c6.4 0 12.8 6.4 12.8 12.8zm0-128c0 6.4-6.4 12.8-12.8 12.8h-38.4c-6.4 0-12.8-6.4-12.8-12.8v-38.4c0-6.4 6.4-12.8 12.8-12.8h38.4c6.4 0 12.8 6.4 12.8 12.8zm128 128c0 6.4-6.4 12.8-12.8 12.8h-38.4c-6.4 0-12.8-6.4-12.8-12.8V268.8c0-6.4 6.4-12.8 12.8-12.8h38.4c6.4 0 12.8 6.4 12.8 12.8zm0-256c0 6.4-6.4 12.8-12.8 12.8H76.8C70.4 192 64 185.6 64 179.2V76.8C64 70.4 70.4 64 76.8 64h294.4c6.4 0 12.8 6.4 12.8 12.8z"/></svg>