<svg height="1000" width="875" xmlns="http://www.w3.org/2000/svg"><path d="M608.8 731.8L575.6 765c-9.2 9.2 -24 9.2 -33.2 0L437.5 660 332.6 764.8c-9.2 9.2 -24 9.2 -33.2 0l-33.2 -33.2c-9.2 -9.1 -9.2 -24 0 -33.2L371.1 593.6 266.2 488.7c-9.2 -9.2 -9.2 -24.1 0 -33.2l33.2 -33.2c9.2 -9.2 24 -9.2 33.2 0l104.9 104.8L542.4 422.3c9.2 -9.2 24 -9.2 33.2 0l33.2 33.2c9.2 9.1 9.2 24 0 33.2L503.7 593.8l104.9 104.8c9.4 9.2 9.4 24.1 .2 33.2zM875 218.8v687.5c0 51.7 -42 93.7 -93.7 93.7H93.8C42 1000 0 958 0 906.3V218.8C0 167 42 125 93.8 125h93.7V23.4C187.5 10.5 198 0 210.9 0h78.2c12.9 0 23.4 10.5 23.4 23.4V125h250V23.4C562.5 10.5 573 0 585.9 0h78.2c12.9 0 23.4 10.5 23.4 23.4V125h93.8c51.7 0 93.7 42 93.7 93.8zm-93.7 675.7v-582H93.8v582c0 6.5 5.2 11.8 11.7 11.8h664c6.5 0 11.8 -5.3 11.8 -11.8z"/></svg>