<svg height="512" width="448" xmlns="http://www.w3.org/2000/svg"><path d="m311.7 374.7-17 17a12.01 12.01 0 0 1-17 0L224 337.9l-53.7 53.7a12.01 12.01 0 0 1-17 0l-17-17a12.01 12.01 0 0 1 0-17L190 303.9l-53.7-53.7a12.01 12.01 0 0 1 0-17l17-17a12.01 12.01 0 0 1 17 0l53.7 53.7 53.7-53.7a12.01 12.01 0 0 1 17 0l17 17c4.7 4.7 4.7 12.3 0 17L257.9 304l53.7 53.7c4.8 4.7 4.8 12.3.1 17M448 112v352c0 26.5-21.5 48-48 48H48C21.5 512 0 490.5 0 464V112C0 85.5 21.5 64 48 64h48V12C96 5.4 101.4 0 108 0h40c6.6 0 12 5.4 12 12v52h128V12c0-6.6 5.4-12 12-12h40c6.6 0 12 5.4 12 12v52h48c26.5 0 48 21.5 48 48m-48 346V160H48v298c0 3.3 2.7 6 6 6h340c3.3 0 6-2.7 6-6"/></svg>