<svg height="512" width="448" xmlns="http://www.w3.org/2000/svg"><path d="M436 160H12C5.4 160 0 154.6 0 148v-36C0 85.5 21.5 64 48 64h48V12C96 5.4 101.4 0 108 0h40c6.6 0 12 5.4 12 12v52h128V12c0-6.6 5.4-12 12-12h40c6.6 0 12 5.4 12 12v52h48c26.5 0 48 21.5 48 48v36c0 6.6-5.4 12-12 12M12 192h424c6.6 0 12 5.4 12 12v260c0 26.5-21.5 48-48 48H48C21.5 512 0 490.5 0 464V204c0-6.6 5.4-12 12-12m257.3 160 48.1-48.1a12.01 12.01 0 0 0 0-17l-28.3-28.3a12.01 12.01 0 0 0-17 0L224 306.7l-48.1-48.1a12.01 12.01 0 0 0-17 0l-28.3 28.3a12.01 12.01 0 0 0 0 17l48.1 48.1-48.1 48.1a12.01 12.01 0 0 0 0 17l28.3 28.3c4.7 4.7 12.3 4.7 17 0L224 397.3l48.1 48.1c4.7 4.7 12.3 4.7 17 0l28.3-28.3a12.01 12.01 0 0 0 0-17z"/></svg>