<svg height="512" width="448" xmlns="http://www.w3.org/2000/svg"><path d="M400 64h-48V12C352 5.4 346.6 0 340 0h-40c-6.6 0-12 5.4-12 12v52H160V12C160 5.4 154.6 0 148 0h-40C101.4 0 96 5.4 96 12v52H48C21.5 64 0 85.5 0 112v352c0 26.5 21.5 48 48 48h352c26.5 0 48-21.5 48-48V112C448 85.5 426.5 64 400 64m-6 400H54a6 6 0 0 1-6-6V160h352v298a6 6 0 0 1-6 6M341.2 263.4 198.8 404.5c-4.7 4.7-12.3 4.7-16.9 0l-75.1-75.7c-4.7-4.8-4.7-12.4 0-17l22.8-22.6c4.7-4.6 12.3-4.6 16.9.1l44.1 44.5L301.7 223.6c4.7-4.7 12.3-4.6 17 .1l22.5 22.7c4.7 4.7 4.7 12.3 0 17"/></svg>