<svg height="1000" width="875" xmlns="http://www.w3.org/2000/svg"><path d="M781.3 125h-93.8V23.4C687.5 10.5 677 0 664.1 0h-78.2C573 0 562.5 10.5 562.5 23.4V125h-250V23.4C312.5 10.5 302 0 289.1 0h-78.2C198 0 187.5 10.5 187.5 23.4V125H93.8C42 125 0 167 0 218.8v687.5C0 958 42 1000 93.8 1000h687.5c51.7 0 93.7 -42 93.7 -93.7V218.8C875 167 833 125 781.3 125zm-11.8 781.3h-664A11.7 -11.7 0 0 0 93.8 894.5v-582h687.5v582a11.7 -11.7 0 0 0 -11.8 11.8zM666.3 514.4L388.4 790.1c-9.2 9.1 -24.1 9 -33.2 -.2L208.6 642.1c-9.2 -9.2 -9.1 -24 .1 -33.2l44.4 -44c9.2 -9.1 24 -9 33.1 .2l86.1 86.8 217 -215.2c9.2 -9.1 24 -9 33.1 .1l44 44.4c9.2 9.2 9.1 24 -.1 33.2z"/></svg>