<svg height="1000" width="1000" xmlns="http://www.w3.org/2000/svg"><path d="M500 15.6C232.4 15.6 15.6 232.4 15.6 500S232.4 984.4 500 984.4 984.4 767.6 984.4 500 767.6 15.6 500 15.6zm0 875C284.2 890.6 109.4 715.8 109.4 500S284.2 109.4 500 109.4 890.6 284.2 890.6 500 715.8 890.6 500 890.6zM698.8 378.5L577.3 500l121.5 121.5c9.2 9.2 9.2 24 0 33.2l-44.1 44.1c-9.2 9.2 -24 9.2 -33.2 0L500 577.3 378.5 698.8c-9.2 9.2 -24 9.2 -33.2 0l-44.1 -44.1c-9.2 -9.2 -9.2 -24 0 -33.2L422.7 500 301.2 378.5c-9.2 -9.2 -9.2 -24 0 -33.2l44.1 -44.1c9.2 -9.2 24 -9.2 33.2 0L500 422.7 621.5 301.2c9.2 -9.2 24 -9.2 33.2 0l44.1 44.1c9.2 9.2 9.2 24 0 33.2z"/></svg>