<svg height="512" width="512" xmlns="http://www.w3.org/2000/svg"><path d="M503.5 360.3c-1.6-.9-32.4-16.9-76.8-25.9 64.2-75.1 84-161.6 84.9-165.6 1.2-5.3-.4-10.9-4.3-14.8-3-3-7.1-4.7-11.3-4.7-1.1 0-2.3.2-3.4.4-3.9.9-86.6 19.6-160.6 79.8 0-1.5 0-3 0-4.4C332 106.3 272 11.4 269.5 7.4A16 16 0 0 0 256 0c-5.4 0-10.5 2.8-13.5 7.4C240 11.3 180 106.3 180 225.1c0 1.4 0 2.9 0 4.4C106 169.3 23.3 150.6 19.4 149.7c-1.1-.2-2.3-.4-3.4-.4-4.2 0-8.3 1.7-11.3 4.7A16 16 0 0 0 .4 168.8c.9 4 20.7 90.5 84.9 165.6-44.4 9-75.2 25-76.8 25.9a16 16 0 0 0 0 28.2c2.5 1.3 60.8 31.8 133.5 31.8 6.1 0 12-.1 17.5-.4-11.4 22.3-16.5 38.4-16.8 39.3-1.8 5.6-.3 11.9 3.9 16.1a16 16 0 0 0 16.1 4c1.8-.6 37.7-12 77.3-39.3v64c0 4.4 3.6 8 8 8h16c4.4 0 8-3.6 8-8v-64c39.6 27.3 75.5 38.7 77.3 39.3a16 16 0 0 0 16.1-4c4.2-4.2 5.7-10.4 3.9-16.1-.3-.9-5.4-17-16.8-39.2 5.5.2 11.4.3 17.5.3 72.7 0 131-30.5 133.5-31.7 5.2-2.8 8.5-8.3 8.5-14.2s-3.3-11.4-8.5-14.1"/></svg>