<svg height="512" width="512" xmlns="http://www.w3.org/2000/svg"><path d="M480 128h-32V80c0-8.8-7.2-16-16-16h-96c-8.8 0-16 7.2-16 16v48H192V80c0-8.8-7.2-16-16-16H80c-8.8 0-16 7.2-16 16v48H32C14.3 128 0 142.3 0 160v256c0 17.7 14.3 32 32 32h448c17.7 0 32-14.3 32-32V160c0-17.7-14.3-32-32-32M192 264c0 4.4-3.6 8-8 8H72c-4.4 0-8-3.6-8-8v-16c0-4.4 3.6-8 8-8h112c4.4 0 8 3.6 8 8zm256 0c0 4.4-3.6 8-8 8h-40v40c0 4.4-3.6 8-8 8h-16c-4.4 0-8-3.6-8-8v-40h-40c-4.4 0-8-3.6-8-8v-16c0-4.4 3.6-8 8-8h40v-40c0-4.4 3.6-8 8-8h16c4.4 0 8 3.6 8 8v40h40c4.4 0 8 3.6 8 8z"/></svg>