<svg height="512" width="640" xmlns="http://www.w3.org/2000/svg"><path d="M544 192h-16L419.2 56a64 64 0 0 0-50-24H155.3c-26.1 0-49.7 15.9-59.4 40.2L48 194.3C20.4 201.4 0 226.2 0 256v112c0 8.8 7.2 16 16 16h48c0 53 43 96 96 96s96-43 96-96h128c0 53 43 96 96 96s96-43 96-96h48c8.8 0 16-7.2 16-16v-80c0-53-43-96-96-96M160 432c-26.5 0-48-21.5-48-48s21.5-48 48-48 48 21.5 48 48-21.5 48-48 48m72-240H116.9l38.4-96H232zm48 0V96h89.2l76.8 96zm200 240c-26.5 0-48-21.5-48-48s21.5-48 48-48 48 21.5 48 48-21.5 48-48 48"/></svg>