<svg height="512" width="640" xmlns="http://www.w3.org/2000/svg"><path d="m143.3 220.8-12.5 46.4c-3 11.2-3.6 22.9-2.4 34.4l-35.2 29c-6.5 5.4-16.3-.5-14.6-8.8L94 245.1a8.967 8.967 0 0 0-8-10.8L8.2 226.8C-.3 225.9-3 214.9 4 210.2l65.2-43.3c4.5-2.9 5.4-9.1 2-13.3L21.5 93.2c-5.4-6.5.4-16.3 8.7-14.6L106.9 94c5.3 1.1 10.3-2.6 10.8-8l7.6-77.8c.8-8.5 11.8-11.3 16.5-4.2l43.3 65.2c3 4.4 9.2 5.4 13.3 2l60.4-49.8c6.6-5.4 16.3.5 14.6 8.8l-11.3 56.2c-2.7 3-5.4 6.1-7.9 9.4l-32.2 43-10.7 14.3c-32.7 8.7-59.1 34.5-68 67.7m494.5 132.5-12.4 46.4c-3.1 11.7-9.4 21.6-17.5 29.3a67 67 0 0 1-8.8 7l-14 52.3c-1.1 4.2-3.1 8.1-5.6 11.4-7.7 9.8-20.8 14.6-33.6 11.2L515 502.6c-17.1-4.5-27.2-22.1-22.6-39.2l8.2-30.9L253.4 366.3l-8.3 30.9c-4.6 17-22.1 27.2-39.2 22.6L175 411.5C162.2 408.1 153.3 397.4 151.6 385c-.6-4.1-.4-8.4.8-12.7l13.9-52.2a66.6 66.6 0 0 1-4-10.4c-3.2-10.8-3.7-22.6-.6-34.2l12.5-46.4c5.3-19.8 19.3-34.8 36.8-42.2a64.3 64.3 0 0 1 18.5-4.7l18.2-24.3L279.8 115c3.5-4.7 7.2-8.9 11.2-12.9 8-7.9 17-14.4 26.8-19.5 4.8-2.5 9.8-4.7 15-6.5 10.3-3.6 21.2-5.6 32.2-6 11.1-.4 22.4.8 33.5 3.8l122.7 32.8c11.1 3 21.4 7.6 30.8 13.5a111.1 111.1 0 0 1 34.7 34.5c8.8 13.9 14.6 29.8 16.7 47l6.3 53.3 3.6 30a64.5 64.5 0 0 1 22.8 29.9c4.4 11.9 5.3 25.2 1.7 38.4m-382.2-119c-18.6-4.9-34.2 4.1-39.2 22.6-4.9 18.5 4.1 34.1 22.7 39.1 18.5 4.9 45.5 15.5 50.5-3 4.9-18.5-15.5-53.7-34-58.7m290.6 28.2-6.4-53.3c-.5-4.9-1.9-9.5-3.8-13.8-5.8-13-17.2-23-31.4-26.9L381.9 135.7A48 48 0 0 0 331 153.3l-32.1 43 172 46zm18.5 54.7c-18.6-5-53.8 15.3-58.8 33.7-4.9 18.5 23.7 22.9 42.3 27.9 18.5 5 34.2-4.1 39.1-22.5 5-18.5-4.1-34.2-22.6-39.1"/></svg>