<svg height="512" width="512" xmlns="http://www.w3.org/2000/svg"><path d="M500 176h-59.9l-16.6-41.6C406.4 91.6 365.6 64 319.5 64h-127c-46.1 0-86.9 27.6-104 70.4L71.9 176H12c-7.8 0-13.5 7.3-11.6 14.9l6 24c1.3 5.4 6.1 9.1 11.6 9.1h20.1C24.6 235.7 16 252.8 16 272v48c0 16.1 6.2 30.7 16 41.9V416c0 17.7 14.3 32 32 32h32c17.7 0 32-14.3 32-32v-32h256v32c0 17.7 14.3 32 32 32h32c17.7 0 32-14.3 32-32v-54.1c9.8-11.2 16-25.8 16-41.9v-48c0-19.2-8.6-36.3-22.1-48H494c5.5 0 10.3-3.7 11.6-9.1l6-24C513.5 183.3 507.8 176 500 176M147.9 158.2c7.3-18.2 25-30.2 44.6-30.2h127c19.6 0 37.3 11.9 44.6 30.2L384 208H128zM96 319.8C76.8 319.8 64 307 64 287.9S76.8 256 96 256s48 28.7 48 47.9-28.8 15.9-48 15.9m320 0c-19.2 0-48 3.2-48-15.9S396.8 256 416 256s32 12.8 32 31.9-12.8 31.9-32 31.9"/></svg>