<svg height="512" width="576" xmlns="http://www.w3.org/2000/svg"><path d="M504.7 320H211.6l6.5 32h268.4c15.4 0 26.9 14.3 23.4 29.3l-5.5 24.3c18.7 9.1 31.6 28.2 31.6 50.4 0 31.2-25.5 56.4-56.8 56-29.8-.4-54.4-24.6-55.2-54.5-.4-16.2 6.1-31 16.8-41.5H231.2c10.4 10.2 16.8 24.3 16.8 40 0 31.8-26.5 57.4-58.7 55.9C160.8 510.6 137.6 487.6 136.1 459c-1.2-22 10.4-41.4 28-51.6L93.9 64H24C10.7 64 0 53.3 0 40V24C0 10.7 10.7 0 24 0h102.5c11.4 0 21.3 8 23.5 19.2l9.2 44.8H552c15.4 0 26.8 14.3 23.4 29.3l-47.3 208c-2.5 10.9-12.2 18.7-23.4 18.7M403 192h-43v-60c0-6.6-5.4-12-12-12h-24c-6.6 0-12 5.4-12 12v60h-43c-10.7 0-16.1 12.9-8.5 20.5l67 67c4.7 4.7 12.3 4.7 17 0l67-67c7.6-7.6 2.2-20.5-8.5-20.5"/></svg>