<svg height="512" width="512" xmlns="http://www.w3.org/2000/svg"><path d="M290.6 192c-20.2 0-106.8 2-162.6 85.9V192C128 139.1 84.9 96 32 96 14.3 96 0 110.3 0 128s14.3 32 32 32c17.6 0 32 14.4 32 32v256c0 35.3 28.7 64 64 64h176c8.8 0 16-7.2 16-16v-16c0-17.7-14.3-32-32-32h-32l128-96v144c0 8.8 7.2 16 16 16h32c8.8 0 16-7.2 16-16V289.9c-10.3 2.6-20.9 4.5-32 4.5-61.8 0-113.5-44-125.4-102.4M448 96h-64L320 32v134.4c0 53 43 96 96 96s96-43 96-96V32zm-72 80c-8.8 0-16-7.2-16-16s7.2-16 16-16 16 7.2 16 16-7.2 16-16 16m80 0c-8.8 0-16-7.2-16-16s7.2-16 16-16 16 7.2 16 16-7.2 16-16 16"/></svg>