<svg height="512" width="576" xmlns="http://www.w3.org/2000/svg"><path d="M239.7 79.9c-96.9 0-175.8 78.6-175.8 175.8 0 96.9 78.9 175.8 175.8 175.8 97.2 0 175.8-78.9 175.8-175.8C415.5 158.5 336.9 79.9 239.7 79.9m-39.9 279.6C158.1 343.6 128.4 303.1 128.4 255.7s29.7-87.9 71.4-104.1zm79.8.3V151.6c41.7 16.2 71.4 56.7 71.4 104.1s-29.7 87.9-71.4 104.1M528 32H48C21.5 32 0 53.5 0 80v352c0 26.5 21.5 48 48 48h480c26.5 0 48-21.5 48-48V80C576 53.5 554.5 32 528 32M329.7 448h-90.3C133.2 448 45.6 362.5 45.6 257.8 45.6 143.2 133.2 64 239.4 64h90.3c105 0 200.7 79.2 200.7 193.8C530.4 362.5 434.7 448 329.7 448"/></svg>