<svg height="512" width="576" xmlns="http://www.w3.org/2000/svg"><path d="M431.5 244.3V212c41.2 0 38.5.2 38.5.2 7.3 1.3 13.3 7.3 13.3 16 0 8.8-6 14.5-13.3 15.8-1.2.4-3.3.3-38.5.3m42.8 20.2c-2.8-.7-3.3-.5-42.8-.5v35c39.6 0 40 .2 42.8-.5 7.5-1.5 13.5-8 13.5-17 0-8.7-6-15.5-13.5-17M576 80v352c0 26.5-21.5 48-48 48H48C21.5 480 0 458.5 0 432V80C0 53.5 21.5 32 48 32h480c26.5 0 48 21.5 48 48M182 192.3h-57C125 259.4 135.7 302 89.2 302 69.7 302 50.4 296.3 32 287.2v28c30 8.3 68 8.3 68 8.3 97.9 0 82-47.7 82-131.2m178.5 4.5c-63.4-16-165-14.9-165 59.3 0 77.1 108.2 73.6 165 59.2V287C312.9 311.7 253 309 253 256s59.8-55.6 107.5-31.2zM544 286.5c0-18.5-16.5-30.5-38-32v-.8c19.5-2.7 30.3-15.5 30.3-30.2 0-19-15.7-30-37-31 0 0 6.3-.3-120.3-.3v127.5h122.7c24.3.1 42.3-12.9 42.3-33.2"/></svg>