<svg height="512" width="512" xmlns="http://www.w3.org/2000/svg"><path d="m458.6 255.9 46-45c13.7-13 7.3-36-10.7-40.3l-62.6-16 17.7-62C453.9 74.7 437.1 57.9 419.3 62.9l-62 17.7-16-62.7C337.1.2 313.8-6.3 301 7.2l-45 46.4L211 7.2C198.4-6.1 175 0 170.7 17.9l-16 62.7-62-17.7C74.9 57.9 58.1 74.7 63 92.6l17.7 62-62.6 16c-18 4.3-24.4 27.3-10.7 40.3l46 45-46 45c-13.7 13-7.3 36.1 10.7 40.4l62.6 16-17.7 62c-4.9 17.8 11.9 34.6 29.7 29.6l62-17.6 16 62.6c4.4 18.6 27.7 24.1 40.3 10.7l45-46 45 46c12.5 13.5 36 7.5 40.3-10.7l16-62.6 62 17.6c17.8 5 34.6-11.8 29.7-29.6l-17.7-62 62.6-16c18-4.3 24.4-27.4 10.7-40.4z"/></svg>