<svg height="512" width="640" xmlns="http://www.w3.org/2000/svg"><path d="M208 352c-2.4 0-4.8.4-7.1 1.1C188 357.3 174.3 360 160 360s-28-2.7-41-6.9c-2.2-.8-4.6-1.1-7-1.1C49.9 352-.3 402.5 0 464.6.1 490.9 21.7 512 48 512h224c26.3 0 47.9-21.1 48-47.4C320.3 402.5 270.1 352 208 352m-48-32c53 0 96-43 96-96s-43-96-96-96-96 43-96 96 43 96 96 96M592 0H208c-26.5 0-48 22.3-48 49.6V96c23.4 0 45.1 6.8 64 17.8V64h352v288h-64v-64H384v64h-76.2c19.1 16.7 33.1 38.7 39.6 64H592c26.5 0 48-22.2 48-49.6V49.6C640 22.3 618.5 0 592 0"/></svg>