<svg height="1000" width="1000" xmlns="http://www.w3.org/2000/svg"><path d="M775 687.5c-12.5 0 -25 -12.5 -25 -25v-450c0 -12.5 12.5 -25 25 -25h43.8c12.4 0 25 12.5 25 25v450c0 12.5 -12.6 25 -25 25H775zm-375 0c-12.5 0 -25 -12.5 -25 -25V275c0 -12.5 12.5 -25 25 -25h43.8c12.4 0 25 12.5 25 25v387.5c0 12.5 -12.6 25 -25 25H400zm187.5 0c-12.5 0 -25 -12.5 -25 -25V400c0 -12.5 12.5 -25 25 -25h43.8c12.4 0 25 12.5 25 25v262.5c0 12.5 -12.6 25 -25 25h-43.8zm381.3 93.8c17.2 0 31.2 13.9 31.2 31.2v31.3c0 17.2 -14 31.2 -31.2 31.2H62.5C28 875 0 847 0 812.5V156.3C0 139 14 125 31.3 125h31.2c17.3 0 31.3 14 31.3 31.3v625h875zM212.5 687.5c-12.5 0 -25 -12.5 -25 -25V525c0 -12.5 12.5 -25 25 -25h43.8c12.4 0 25 12.5 25 25v137.5c0 12.5 -12.6 25 -25 25h-43.8z"/></svg>