<svg height="512" width="512" xmlns="http://www.w3.org/2000/svg"><path d="M332.8 320h38.4c6.4 0 12.8-6.4 12.8-12.8V172.8c0-6.4-6.4-12.8-12.8-12.8h-38.4c-6.4 0-12.8 6.4-12.8 12.8v134.4c0 6.4 6.4 12.8 12.8 12.8m96 0h38.4c6.4 0 12.8-6.4 12.8-12.8V76.8C480 70.4 473.6 64 467.2 64h-38.4C422.4 64 416 70.4 416 76.8v230.4c0 6.4 6.4 12.8 12.8 12.8m-288 0h38.4c6.4 0 12.8-6.4 12.8-12.8v-70.4c0-6.4-6.4-12.8-12.8-12.8h-38.4c-6.4 0-12.8 6.4-12.8 12.8v70.4c0 6.4 6.4 12.8 12.8 12.8m96 0h38.4c6.4 0 12.8-6.4 12.8-12.8V108.8C288 102.4 281.6 96 275.2 96h-38.4c-6.4 0-12.8 6.4-12.8 12.8v198.4c0 6.4 6.4 12.8 12.8 12.8M496 384H64V80C64 71.2 56.8 64 48 64H16C7.2 64 0 71.2 0 80v336c0 17.7 14.3 32 32 32h464c8.8 0 16-7.2 16-16v-32c0-8.8-7.2-16-16-16"/></svg>