<svg height="1000" width="1000" xmlns="http://www.w3.org/2000/svg"><path d="M976.6 781.3c12.9 0 23.4 10.5 23.4 23.4v46.9c0 12.9 -10.5 23.4 -23.4 23.4H23.4C10.5 875 0 864.5 0 851.6V148.4C0 135.5 10.5 125 23.4 125h46.9c12.9 0 23.5 10.5 23.5 23.4v632.9h882.8zM281.3 664.1V523.4c0 -12.9 -10.6 -23.4 -23.5 -23.4h-46.9c-12.9 0 -23.4 10.5 -23.4 23.4v140.7c0 12.9 10.5 23.4 23.4 23.4h46.9c12.9 0 23.5 -10.5 23.5 -23.4zm187.5 0V273.4c0 -12.9 -10.6 -23.4 -23.5 -23.4h-46.9c-12.9 0 -23.4 10.5 -23.4 23.4v390.7c0 12.9 10.5 23.4 23.4 23.4h46.9c12.9 0 23.5 -10.5 23.5 -23.4zm187.5 0V398.4c0 -12.9 -10.6 -23.4 -23.5 -23.4h-46.9c-12.9 0 -23.4 10.5 -23.4 23.4v265.7c0 12.9 10.5 23.4 23.4 23.4h46.9c12.9 0 23.5 -10.5 23.5 -23.4zm187.5 0V210.9c0 -12.9 -10.6 -23.4 -23.5 -23.4h-46.9c-12.9 0 -23.4 10.5 -23.4 23.4v453.2c0 12.9 10.5 23.4 23.4 23.4h46.9c12.9 0 23.5 -10.5 23.5 -23.4z"/></svg>