<svg height="1000" width="1125" xmlns="http://www.w3.org/2000/svg"><path d="M1039.1 754.3C1092.8 701.4 1125 635 1125 562.5 1125 406.3 975.6 277.1 780.9 254.1 719.3 141.6 574.8 62.5 406.3 62.5 181.8 62.5 0 202.3 0 375c0 72.3 32.2 138.7 85.9 191.8C56.1 626.8 13.1 673.2 12.3 674 0 687.1 -3.5 706.3 3.7 722.9c7 16.6 23.4 27.3 41.4 27.3 104.5 0 188.9 -39.5 244.5 -75.8 18 4.1 36.6 7.2 55.5 9.6 61.3 112.1 205.3 191 373.7 191 40.6 0 79.6 -4.7 116.7 -13.3 55.7 36.2 139.9 75.8 244.6 75.8 17.9 0 34.2 -10.7 41.4 -27.3 7 -16.6 3.7 -35.8 -8.6 -48.9 -.8 -.6 -44 -47 -73.8 -107zM271.9 574l-33.4 21.7c-27.6 17.8 -55.7 31.8 -84.2 41.8 5.3 -9.2 10.5 -18.9 15.6 -28.9l30.3 -60.7L151.8 500c-26.4 -26.2 -58 -68.9 -58 -125 0 -118.6 143.1 -218.7 312.5 -218.7S718.8 256.4 718.8 375 575.6 593.8 406.3 593.8c-32.3 0 -64.5 -3.8 -95.8 -11L271.9 574zm701.3 113.5L925 735.2l30.3 60.7c5.1 10 10.3 19.7 15.6 28.9 -28.5 -10 -56.6 -24 -84.2 -41.8l-33.4 -21.7 -38.8 9c-31.3 7.2 -63.5 11 -95.7 11C613.3 781.3 519.1 742 462.3 684.2 660.2 663.1 812.5 533 812.5 375c0 -6.6 -.8 -13.1 -1.4 -19.5 125.8 28.3 220.2 110.9 220.2 207 0 56.1 -31.7 98.8 -58.1 125z"/></svg>