<svg height="1000" width="1000" xmlns="http://www.w3.org/2000/svg"><path d="M500 15.6C232.5 15.6 15.6 232.5 15.6 500S232.5 984.4 500 984.4 984.4 767.5 984.4 500 767.5 15.6 500 15.6zm0 93.8c215.9 0 390.6 174.7 390.6 390.6 0 215.9 -174.7 390.6 -390.6 390.6C284.1 890.6 109.4 715.9 109.4 500 109.4 284.1 284.1 109.4 500 109.4m273.8 254.4l-44 -44.4c-9.1 -9.2 -23.9 -9.2 -33.1 -.1L420.6 593.2 303.8 475.4c-9.1 -9.2 -23.9 -9.2 -33.1 -.1l-44.4 44c-9.2 9.1 -9.3 24 -.1 33.2l177.3 178.7c9.1 9.2 23.9 9.2 33.1 .1L773.7 396.9c9.2 -9.1 9.3 -23.9 .1 -33.1z"/></svg>