<svg height="1000" width="1000" xmlns="http://www.w3.org/2000/svg"><path d="M500 15.6c267.5 0 484.4 216.9 484.4 484.4S767.5 984.4 500 984.4 15.6 767.5 15.6 500 232.5 15.6 500 15.6zm0 93.8C284.1 109.4 109.4 284.1 109.4 500c0 215.9 174.7 390.6 390.6 390.6 215.9 0 390.6 -174.7 390.6 -390.6C890.6 284.1 715.9 109.4 500 109.4zm273.8 254.4c9.2 9.2 9.1 24 -.1 33.2L436.6 731.3c-9.2 9.2 -24 9.1 -33.1 -.1L226.2 552.5c-9.2 -9.2 -9.1 -24.1 .1 -33.2l44.4 -44c9.2 -9.1 24 -9.1 33.1 .1l116.8 117.8L696.7 319.3c9.2 -9.1 24 -9.1 33.1 .1z"/></svg>