<svg height="512" width="512" xmlns="http://www.w3.org/2000/svg"><path d="M255.9.2h-64v64h64zM0 64.2v64h64v-64zM128 .2H64v64h64zm64 255.9v64h64v-64zM0 192.1v64h64v-64zM383.9.2h-64v64h64zm128 0h-64v64h64zM128 256.1H64v64h64zM511.8 448v-64h-64v64zm0-128v-64h-64v64zM383.9 512h64v-64h-64zm128-319.9v-64h-64v64zM128 512h64v-64h-64zM0 512h64v-64H0zm255.9 0h64v-64h-64zM0 320.1v64h64v-64zM319.9 128.2v-64h-64v64zm-64 127.9h64v-64h-64zm-64 128v64h64v-64zm128-64h64v-64h-64zm0-127.9h64v-64h-64zm0 191.9v64h64v-64zm-255.9 0v64h64v-64zM192 128.2v-64h-64v64zm191.9 255.9h64v-64h-64zm-128-192v-64h-64v64zm128-127.9v64h64v-64zm-128 255.9v64h64v-64zm-64-128H128v64h64zm191.9 64h64v-64h-64zM128 128.2H64v64h64zm0 191.9v64h64v-64z"/></svg>