<svg height="512" width="512" xmlns="http://www.w3.org/2000/svg"><path d="M74 208H64a16 16 0 0 0-16 16v16a16 16 0 0 0 16 16h15.9A535.8 535.8 0 0 1 64 384h128A535.8 535.8 0 0 1 176.1 256H192a16 16 0 0 0 16-16v-16a16 16 0 0 0-16-16h-10l33.9-90.4A16 16 0 0 0 200.9 96H144V64h24a8 8 0 0 0 8-8V40a8 8 0 0 0-8-8h-24V8a8 8 0 0 0-8-8h-16a8 8 0 0 0-8 8v24H88a8 8 0 0 0-8 8v16a8 8 0 0 0 8 8h24v32H55.1a16 16 0 0 0-15 21.6zm173.2 251.6L224 448v-16a16 16 0 0 0-16-16H48a16 16 0 0 0-16 16v16L8.8 459.6A16 16 0 0 0 0 473.9V496a16 16 0 0 0 16 16h224a16 16 0 0 0 16-16v-22.1a16 16 0 0 0-8.8-14.3m92.7-157.8-3.3 82.2h126.8l-3.3-82.2L484.7 281A32 32 0 0 0 496 256.5V198a6 6 0 0 0-6-6h-26.4a6 6 0 0 0-6 6v26h-24.7v-26a6 6 0 0 0-6-6h-53.8a6 6 0 0 0-6 6v26h-24.7v-26a6 6 0 0 0-6-6H310a6 6 0 0 0-6 6v58.6a32 32 0 0 0 11.4 24.4zM384 304a16 16 0 0 1 32 0v32h-32zm119.2 155.6L480 448v-16a16 16 0 0 0-16-16H336a16 16 0 0 0-16 16v16l-23.1 11.6a16 16 0 0 0-8.9 14.3V496a16 16 0 0 0 16 16h192a16 16 0 0 0 16-16v-22.1a16 16 0 0 0-8.8-14.3"/></svg>