<svg height="512" width="512" xmlns="http://www.w3.org/2000/svg"><path d="M256 112A56 56 0 1 0 200 56a56 56 0 0 0 56 56m176 336H80a16 16 0 0 0-16 16v32a16 16 0 0 0 16 16h352a16 16 0 0 0 16-16v-32a16 16 0 0 0-16-16m72.9-263.8-28.5-16c-7.5-5-17-2.4-22.3 4.7a47.6 47.6 0 0 1-47.3 18.3C383.7 186.9 368 164.9 368 141.4A13.4 13.4 0 0 0 354.6 128h-38.8c-6 0-11.6 4-12.8 9.9a48 48 0 0 1-94 0C207.8 132 202.2 128 196.2 128h-38.8A13.4 13.4 0 0 0 144 141.4c0 25.7-19 48.8-44.7 50.5A47.5 47.5 0 0 1 57.8 172.7c-5.3-7-14.7-9.4-22.1-4.5l-28.6 16a16 16 0 0 0-5.4 20.5L104.2 416h303.6L510.3 204.6a16 16 0 0 0-5.4-20.4"/></svg>