<svg height="512" width="384" xmlns="http://www.w3.org/2000/svg"><path d="m19 272.5 40.6 18a32 32 0 0 0 24.9.5l12.8-5.1a32 32 0 0 0 18.8-20.5l9.2-30.7a24 24 0 0 1 12.5-15.6L159.9 208v50.3a48 48 0 0 1-26.5 43l-57.2 28.6A80 80 0 0 0 32 401.5V416h319.9V224c0-106-86-192-192-192H12A12 12 0 0 0 0 44a16.9 16.9 0 0 0 1.8 7.6L16 80l-9 9a24 24 0 0 0-7 17v137.2a32 32 0 0 0 19 29.3M52 128a20 20 0 1 1-20 20 20 20 0 0 1 20-20m316 320H16A16 16 0 0 0 0 464v32a16 16 0 0 0 16 16h352a16 16 0 0 0 16-16v-32a16 16 0 0 0-16-16"/></svg>