<svg height="512" width="496" xmlns="http://www.w3.org/2000/svg"><path d="M131.5 217.5 55.1 100.1C102.7 40.9 174.1 8.3 247.1 8c42.3-.3 85.5 10.5 124.8 33.2 43.4 25.2 76.4 61.4 97.4 103L264 133.4C205.9 130 150.6 162.7 131.5 217.5m32.9 38.5c0 46.2 37.4 83.6 83.6 83.6s83.6-37.4 83.6-83.6S294.2 172.4 248 172.4s-83.6 37.3-83.6 83.6m314.9-89.2L339.6 174c37.9 44.3 38.5 108.2 6.6 157.2L234.1 503.6c46.5 2.5 94.4-7.7 137.8-32.9 107.4-62 150.9-192 107.4-303.9M133.7 303.6 40.4 120.1C14.9 159.1 0 205.9 0 256c0 124 90.8 226.7 209.5 244.9l63.7-124.8C215.6 386.9 160 355.3 133.7 303.6"/></svg>