<svg height="512" width="640" xmlns="http://www.w3.org/2000/svg"><path d="M464.5 246.7 352 179.2V128h48c8.8 0 16-7.2 16-16V80c0-8.8-7.2-16-16-16h-48V16C352 7.2 344.8 0 336 0h-32c-8.8 0-16 7.2-16 16v48h-48c-8.8 0-16 7.2-16 16v32c0 8.8 7.2 16 16 16h48v51.2l-112.5 67.5A32 32 0 0 0 160 274.1V512h96v-96c0-35.4 28.6-64 64-64s64 28.6 64 64v96h96V274.1c0-11.2-5.9-21.6-15.5-27.4M0 396v100c0 8.8 7.2 16 16 16h112V320L19.4 366.5A32 32 0 0 0 0 396m620.6-29.5L512 320v192h112c8.8 0 16-7.2 16-16V396c0-12.8-7.6-24.4-19.4-29.5"/></svg>