<svg height="512" width="640" xmlns="http://www.w3.org/2000/svg"><path d="M616 192H480V24C480 10.7 469.3 0 456 0H312c-13.3 0-24 10.7-24 24v72h-64V16C224 7.2 216.8 0 208 0h-16c-8.8 0-16 7.2-16 16v80h-64V16C112 7.2 104.8 0 96 0H80C71.2 0 64 7.2 64 16v80H24C10.7 96 0 106.7 0 120v360c0 17.7 14.3 32 32 32h576c17.7 0 32-14.3 32-32V216c0-13.3-10.7-24-24-24M128 404c0 6.6-5.4 12-12 12H76c-6.6 0-12-5.4-12-12v-40c0-6.6 5.4-12 12-12h40c6.6 0 12 5.4 12 12zm0-96c0 6.6-5.4 12-12 12H76c-6.6 0-12-5.4-12-12v-40c0-6.6 5.4-12 12-12h40c6.6 0 12 5.4 12 12zm0-96c0 6.6-5.4 12-12 12H76c-6.6 0-12-5.4-12-12v-40c0-6.6 5.4-12 12-12h40c6.6 0 12 5.4 12 12zm128 192c0 6.6-5.4 12-12 12h-40c-6.6 0-12-5.4-12-12v-40c0-6.6 5.4-12 12-12h40c6.6 0 12 5.4 12 12zm0-96c0 6.6-5.4 12-12 12h-40c-6.6 0-12-5.4-12-12v-40c0-6.6 5.4-12 12-12h40c6.6 0 12 5.4 12 12zm0-96c0 6.6-5.4 12-12 12h-40c-6.6 0-12-5.4-12-12v-40c0-6.6 5.4-12 12-12h40c6.6 0 12 5.4 12 12zm160 96c0 6.6-5.4 12-12 12h-40c-6.6 0-12-5.4-12-12v-40c0-6.6 5.4-12 12-12h40c6.6 0 12 5.4 12 12zm0-96c0 6.6-5.4 12-12 12h-40c-6.6 0-12-5.4-12-12v-40c0-6.6 5.4-12 12-12h40c6.6 0 12 5.4 12 12zm0-96c0 6.6-5.4 12-12 12h-40c-6.6 0-12-5.4-12-12V76c0-6.6 5.4-12 12-12h40c6.6 0 12 5.4 12 12zm160 288c0 6.6-5.4 12-12 12h-40c-6.6 0-12-5.4-12-12v-40c0-6.6 5.4-12 12-12h40c6.6 0 12 5.4 12 12zm0-96c0 6.6-5.4 12-12 12h-40c-6.6 0-12-5.4-12-12v-40c0-6.6 5.4-12 12-12h40c6.6 0 12 5.4 12 12z"/></svg>