<svg height="512" width="576" xmlns="http://www.w3.org/2000/svg"><path d="M288 115 69.5 307.7c-1.7 1.5-3.7 2.1-5.5 3.4V496a16 16 0 0 0 16 16h416a16 16 0 0 0 16-16V311.1c-1.7-1.2-3.7-1.8-5.3-3.2zm96 261a8 8 0 0 1-8 8h-56v56a8 8 0 0 1-8 8h-48a8 8 0 0 1-8-8v-56h-56a8 8 0 0 1-8-8v-48a8 8 0 0 1 8-8h56v-56a8 8 0 0 1 8-8h48a8 8 0 0 1 8 8v56h56a8 8 0 0 1 8 8zM570.7 236.3 314.8 10.3a39.9 39.9 0 0 0-53.5 0l-256 226a16 16 0 0 0-1.2 22.6l21.4 23.8a16 16 0 0 0 22.6 1.2L277.4 81.6a16 16 0 0 1 21.2 0l229.3 202.3a16 16 0 0 0 22.6-1.2l21.4-23.8a16 16 0 0 0-1.2-22.6"/></svg>