<svg height="512" width="384" xmlns="http://www.w3.org/2000/svg"><path d="M336 64h-80C256 28.7 227.3 0 192 0s-64 28.7-64 64H48C21.5 64 0 85.5 0 112v352c0 26.5 21.5 48 48 48h288c26.5 0 48-21.5 48-48V112C384 85.5 362.5 64 336 64M96 424C82.7 424 72 413.3 72 400s10.7-24 24-24 24 10.7 24 24-10.7 24-24 24m0-96C82.7 328 72 317.3 72 304s10.7-24 24-24 24 10.7 24 24-10.7 24-24 24m0-96C82.7 232 72 221.3 72 208s10.7-24 24-24 24 10.7 24 24-10.7 24-24 24M192 40c13.3 0 24 10.7 24 24s-10.7 24-24 24S168 77.3 168 64s10.7-24 24-24m128 368c0 4.4-3.6 8-8 8H168c-4.4 0-8-3.6-8-8v-16c0-4.4 3.6-8 8-8h144c4.4 0 8 3.6 8 8zm0-96c0 4.4-3.6 8-8 8H168c-4.4 0-8-3.6-8-8v-16c0-4.4 3.6-8 8-8h144c4.4 0 8 3.6 8 8zm0-96c0 4.4-3.6 8-8 8H168c-4.4 0-8-3.6-8-8v-16c0-4.4 3.6-8 8-8h144c4.4 0 8 3.6 8 8z"/></svg>