<svg height="1000" width="750" xmlns="http://www.w3.org/2000/svg"><path d="M656.3 125c51.7 0 93.7 42 93.7 93.8v687.5c0 51.7 -42 93.7 -93.7 93.7H93.8C42 1000 0 958 0 906.3V218.8C0 167 42 125 93.8 125H250C250 56.1 306.1 0 375 0s125 56.1 125 125h156.3zM375 78.1c-26 0 -46.9 20.9 -46.9 46.9s20.9 46.9 46.9 46.9S421.9 151 421.9 125 401 78.1 375 78.1zm281.3 816.4v-664c0 -6.5 -5.3 -11.7 -11.8 -11.7h-82v70.3c0 12.9 -10.5 23.4 -23.4 23.4H210.9c-12.9 0 -23.4 -10.5 -23.4 -23.4v-70.3h-82c-6.5 0 -11.7 5.2 -11.7 11.7v664c0 6.5 5.2 11.8 11.7 11.8h539c6.5 0 11.8 -5.3 11.8 -11.8z"/></svg>