<svg height="1000" width="750" xmlns="http://www.w3.org/2000/svg"><path d="M656.3 125H500C500 56.1 443.9 0 375 0S250 56.1 250 125H93.8C42 125 0 167 0 218.8v687.5C0 958 42 1000 93.8 1000h562.5c51.7 0 93.7 -42 93.7 -93.7V218.8C750 167 708 125 656.3 125zm-11.8 781.3h-539A11.7 -11.7 0 0 0 93.8 894.5v-664a11.7 -11.7 0 0 0 11.7 -11.7h82v70.3c0 12.9 10.5 23.4 23.4 23.4h328.2c12.9 0 23.4 -10.5 23.4 -23.4v-70.3h82a11.7 -11.7 0 0 0 11.8 11.7v664a11.7 -11.7 0 0 0 -11.8 11.8zM375 78.1c25.9 0 46.9 21 46.9 46.9s-21 46.9 -46.9 46.9 -46.9 -21 -46.9 -46.9 21 -46.9 46.9 -46.9"/></svg>