<svg height="1000" width="1000" xmlns="http://www.w3.org/2000/svg"><path d="M500 15.6c267.6 0 484.4 216.8 484.4 484.4S767.6 984.4 500 984.4 15.6 767.6 15.6 500 232.4 15.6 500 15.6zm0 875c215.8 0 390.6 -174.8 390.6 -390.6S715.8 109.4 500 109.4 109.4 284.2 109.4 500 284.2 890.6 500 890.6zM620.7 686.7L454.9 566.2c-6.1 -4.5 -9.6 -11.5 -9.6 -18.9V226.6c0 -12.9 10.6 -23.5 23.5 -23.5h62.5c12.8 0 23.4 10.6 23.4 23.5v276.7l130.5 94.9c10.5 7.7 12.7 22.3 5 32.9l-36.7 50.5c-7.6 10.4 -22.2 12.7 -32.8 5.1z"/></svg>