<svg height="1000" width="1000" xmlns="http://www.w3.org/2000/svg"><path d="M906.3 0h-625c-51.8 0 -93.8 42 -93.8 93.8v93.7H93.8C42 187.5 0 229.5 0 281.3v625C0 958 42 1000 93.8 1000h625c51.7 0 93.7 -42 93.7 -93.7v-93.8h93.8c51.7 0 93.7 -42 93.7 -93.7v-625C1000 42 958 0 906.3 0zM707 906.3H105.5A11.7 -11.7 0 0 0 93.8 894.5V293a11.7 -11.7 0 0 0 11.7 -11.7h82v437.5c0 51.7 42 93.7 93.8 93.7h437.5v82A11.7 -11.7 0 0 0 707 906.3zM894.5 718.8H293A11.7 -11.7 0 0 0 281.3 707V105.5A11.7 -11.7 0 0 0 293 93.8h601.5a11.7 -11.7 0 0 0 11.8 11.7V707a11.7 -11.7 0 0 0 -11.8 11.8z"/></svg>