<svg height="1000" width="1000" xmlns="http://www.w3.org/2000/svg"><path d="M906.3 0C958 0 1000 42 1000 93.8v625c0 51.7 -42 93.7 -93.7 93.7h-93.8v93.8c0 51.7 -42 93.7 -93.7 93.7h-625C42 1000 0 958 0 906.3v-625c0 -51.8 42 -93.8 93.8 -93.8h93.7V93.8C187.5 42 229.5 0 281.3 0h625zM707 906.3c6.5 0 11.8 -5.3 11.8 -11.8v-82H281.3c-51.8 0 -93.8 -42 -93.8 -93.7V281.3h-82c-6.5 0 -11.7 5.2 -11.7 11.7v601.5c0 6.5 5.2 11.8 11.7 11.8H707zM894.5 718.8c6.5 0 11.8 -5.3 11.8 -11.8V105.5C906.3 99 901 93.8 894.5 93.8H293c-6.5 0 -11.7 5.2 -11.7 11.7V707c0 6.5 5.2 11.8 11.7 11.8h601.5z"/></svg>