<svg height="1000" width="1000" xmlns="http://www.w3.org/2000/svg"><path d="M906.3 125c51.7 0 93.7 42 93.7 93.8v562.5c0 51.7 -42 93.7 -93.7 93.7H93.8C42 875 0 833 0 781.3V218.8C0 167 42 125 93.8 125h812.5zm-11.8 656.3c6.5 0 11.8 -5.3 11.8 -11.8v-539c0 -6.5 -5.3 -11.7 -11.8 -11.7h-789c-6.5 0 -11.7 5.2 -11.7 11.7v539c0 6.5 5.2 11.8 11.7 11.8h789zM482.2 613.9c3.3 4.7 3 10.9 -.9 15C376.6 739.8 143.7 691.6 143.7 496.3c0 -190 237.7 -233.4 337 -136.9 4.1 3.9 4.8 6.2 1.9 11.1l-34.2 59.6c-3.7 6 -12.1 7.8 -17.7 3.3C351 370.9 245.9 404.3 245.9 494.3c0 93.8 99.6 137.7 180.1 63.7 5.4 -4.9 13.8 -4.1 17.9 1.8zm371.9 0c3.3 4.7 2.9 10.9 -1 15C748.4 740 515.6 691.6 515.6 496.3c0 -190 237.7 -233.4 336.9 -136.9 4.1 3.9 4.9 6.2 2 11.1l-34.2 59.6c-3.7 6 -12.1 7.8 -17.8 3.3C722.9 370.9 617.8 404.3 617.8 494.3c0 93.8 99.6 137.7 180.1 63.7 5.4 -4.9 13.8 -4.1 17.9 1.8z"/></svg>