<svg height="512" width="512" xmlns="http://www.w3.org/2000/svg"><path d="M464 64H48C21.5 64 0 85.5 0 112v288c0 26.5 21.5 48 48 48h416c26.5 0 48-21.5 48-48V112C512 85.5 490.5 64 464 64m-6 336H54c-3.3 0-6-2.7-6-6V118c0-3.3 2.7-6 6-6h404c3.3 0 6 2.7 6 6v276c0 3.3-2.7 6-6 6M246.9 314.3c1.7 2.4 1.5 5.6-.5 7.7C192.8 378.8 73.6 354.1 73.6 254.1c0-97.3 121.7-119.5 172.5-70.1 2.1 2 2.5 3.2 1 5.7l-17.5 30.5c-1.9 3.1-6.2 4-9.1 1.7-40.8-32-94.6-14.9-94.6 31.2 0 48 51 70.5 92.2 32.6 2.8-2.5 7.1-2.1 9.2.9zm190.4 0c1.7 2.4 1.5 5.6-.5 7.7C383.2 378.9 264 354.1 264 254.1 264 156.8 385.7 134.6 436.5 184c2.1 2 2.5 3.2 1 5.7L420 220.2c-1.9 3.1-6.2 4-9.1 1.7-40.8-32-94.6-14.9-94.6 31.2 0 48 51 70.5 92.2 32.6 2.8-2.5 7.1-2.1 9.2.9z"/></svg>