<svg height="512" width="512" xmlns="http://www.w3.org/2000/svg"><path d="M464 64H48C21.5 64 0 85.5 0 112v288c0 26.5 21.5 48 48 48h416c26.5 0 48-21.5 48-48V112C512 85.5 490.5 64 464 64M218.1 287.7c2.8-2.5 7.1-2.1 9.2.9l19.5 27.7c1.7 2.4 1.5 5.6-.5 7.7C192.7 380.8 73.5 356.1 73.5 256.1 73.5 158.8 195.2 136.6 246 186c2.1 2 2.5 3.2 1 5.7l-17.5 30.5c-1.9 3.1-6.2 4-9.1 1.7-40.8-32-94.6-14.9-94.6 31.2.1 48 51.1 70.5 92.3 32.6m190.4 0c2.8-2.5 7.1-2.1 9.2.9l19.5 27.7c1.7 2.4 1.5 5.6-.5 7.7C383.2 380.9 264 356.1 264 256.1 264 158.8 385.7 136.6 436.5 186c2.1 2 2.5 3.2 1 5.7L420 222.2c-1.9 3.1-6.2 4-9.1 1.7-40.8-32-94.6-14.9-94.6 31.2 0 48 51 70.5 92.2 32.6"/></svg>