<svg height="512" width="576" xmlns="http://www.w3.org/2000/svg"><path d="M350.5 225.5C343.6 188.3 311.2 160 272 160c-12.3 0-23.9 3-34.3 8C220.3 143.9 192.1 128 160 128c-53 0-96 43-96 96 0 .5.2 1.1.2 1.6C27.6 232.9 0 265.2 0 304c0 44.2 35.8 80 80 80h256c44.2 0 80-35.8 80-80 0-39.2-28.2-71.7-65.5-78.5m217.4-1.7c-70.4 13.3-135-40.3-135-110.8 0-40.6 21.9-78 57.5-98.1 5.5-3.1 4.1-11.4-2.1-12.5A146.8 146.8 0 0 0 461.8 0C383.9 0 320.7 61.2 317.4 137.9c26.7 11.9 48.2 33.8 58.9 61.7 37.1 14.3 64 47.4 70.2 86.8 5.1.5 10 1.5 15.2 1.5 44.7 0 85.6-20.2 112.6-53.3 4.2-4.8-.2-12-6.4-10.8M364.5 418.1c-7.6-4.3-17.4-1.8-21.8 6l-36.6 64c-4.4 7.7-1.7 17.4 6 21.8 2.5 1.4 5.2 2.1 7.9 2.1 5.5 0 10.9-2.9 13.9-8.1l36.6-64c4.3-7.7 1.7-17.4-6-21.8m-96 0c-7.6-4.3-17.4-1.8-21.8 6l-36.6 64c-4.4 7.7-1.7 17.4 6 21.8 2.5 1.4 5.2 2.1 7.9 2.1 5.5 0 10.9-2.9 13.9-8.1l36.6-64c4.3-7.7 1.7-17.4-6-21.8m-96 0c-7.6-4.3-17.4-1.8-21.8 6l-36.6 64c-4.4 7.7-1.7 17.4 6 21.8 2.5 1.4 5.2 2.1 7.9 2.1 5.5 0 10.9-2.9 13.9-8.1l36.6-64c4.3-7.7 1.7-17.4-6-21.8m-96 0c-7.6-4.3-17.4-1.8-21.8 6l-36.6 64c-4.4 7.7-1.7 17.4 6 21.8 2.5 1.4 5.2 2.1 7.9 2.1 5.5 0 10.9-2.9 13.9-8.1l36.6-64c4.3-7.7 1.7-17.4-6-21.8"/></svg>