<svg height="512" width="576" xmlns="http://www.w3.org/2000/svg"><path d="M342.8 352.7C348.5 343.1 352 332 352 320c0-35.3-28.7-64-64-64-17.2 0-32.8 6.9-44.3 17.9C227.4 244.3 196.2 224 160 224c-53 0-96 43-96 96 0 2 .5 3.8.6 5.7C27.1 338.8 0 374.1 0 416c0 53 43 96 96 96h240c44.2 0 80-35.8 80-80 0-41.9-32.3-75.8-73.2-79.3m222.5-54.3C472.2 316.1 386.8 244.7 386.8 150.7c0-54.2 29-104 76.1-130.8 7.3-4.1 5.4-15.1-2.8-16.7C448.4 1.1 436.7 0 425 0 319.1 0 233.1 85.9 233.1 192c0 8.5.7 16.8 1.8 25 5.9 4.3 11.6 8.9 16.7 14.2A95.3 95.3 0 0 1 288 224c52.9 0 96 43.1 96 96 0 3.6-.2 7.2-.6 10.7 23.6 10.8 42.4 29.5 53.5 52.6C491.3 379.9 540.6 354 574 312.9c5.3-6.5-.5-16.1-8.7-14.5"/></svg>