<svg height="512" width="448" xmlns="http://www.w3.org/2000/svg"><path d="m318.1 154-9.4 7.6C286.2 142.3 257.2 128 225.4 128 153.8 128 96 188.8 96 260.3c0 6.6.4 13.1 1.4 19.4-2-56 41.8-97.4 92.6-97.4 24.2 0 46.2 9.4 62.6 24.7l-25.2 20.4c-8.3-.9-16.8 1.8-23.1 8.1-11.1 11-11.1 28.9 0 40 11.1 11 28.9 11 40 0 6.3-6.3 9-14.9 8.1-23.1l75.2-88.8c6.3-6.5-3.3-15.9-9.5-9.6m-83.8 111.5c-5.6 5.5-14.6 5.5-20.2 0-5.6-5.6-5.6-14.6 0-20.2s14.6-5.6 20.2 0 5.6 14.7 0 20.2M224 32C100.5 32 0 132.5 0 256s100.5 224 224 224S448 379.5 448 256 347.5 32 224 32m0 384C135.8 416 64 344.2 64 256S135.8 96 224 96s160 71.8 160 160S312.2 416 224 416"/></svg>