<svg height="512" width="616" xmlns="http://www.w3.org/2000/svg"><path d="M148.6 304c8.2 68.5 67.4 115.5 146 111.3 51.2 43.3 136.8 45.8 186.4-5.6 69.2 1.1 118.5-44.6 131.5-99.5C627.3 247.7 594.3 177.7 520.4 155.1 487.4 67 389 53.6 333.9 70.1c-57.3 17.3-84.3 53.2-99.3 109.7-7.8 2.7-26.5 8.9-45 24.1 11.7 0 15.2 8.9 15.2 19.5v20.4c0 10.7-8.7 19.5-19.5 19.5h-20.2c-10.7 0-19.5-6-19.5-16.7V240H98.8C95 240 88 244.3 88 251.9v40.4c0 6.4 5.3 11.8 11.7 11.8h48.9zm227.4 8c-10.7 46.3 21.7 72.4 55.3 86.8C324.1 432.6 259.7 348 296 288c-33.2 21.6-33.7 71.2-29.2 92.9C248.9 368.5 213 348.5 209.4 301.1c-3-39.9 21.5-75.7 57-93.9C297 191.4 369.9 198.7 400 248 385.9 200 346.2 177.9 298.2 173.2c30.9-30.7 64.4-50.3 114.2-43.7 69.8 9.3 133.2 82.8 67.7 150.5 35-16.3 48.7-54.4 47.5-76.9l10.5 19.6c11.8 22 15.2 47.6 9.4 72-9.2 39-40.6 68.8-79.7 76.5C435.7 377.5 384.7 366.1 376 312M128 208H88.2C79.3 208 72 200.7 72 191.8v-39.6C72 143.3 79.3 136 88.2 136H128c8.9 0 16.2 7.3 16.2 16.2v39.6c0 8.9-7.3 16.2-16.2 16.2M10.1 168C4.5 168 0 163.5 0 157.9v-27.8C0 124.5 4.5 120 10.1 120h27.7c5.5 0 10.1 4.5 10.1 10.1v27.8c0 5.6-4.5 10.1-10.1 10.1zM168 142.7v-21.4c0-5.1 4.2-9.3 9.3-9.3h21.4c5.1 0 9.3 4.2 9.3 9.3v21.4c0 5.1-4.2 9.3-9.3 9.3h-21.4c-5.1 0-9.3-4.2-9.3-9.3M56 235.5v25c0 6.3-5.1 11.5-11.4 11.5H19.4C13.1 272 8 266.8 8 260.5v-25C8 229.2 13.1 224 19.4 224h25.1c6.4 0 11.5 5.2 11.5 11.5"/></svg>