<svg height="512" width="640" xmlns="http://www.w3.org/2000/svg"><path d="M407.9 319.9 177.1 317a4.6 4.6 0 0 1-3.6-1.9 4.6 4.6 0 0 1-.5-4.2 6.1 6.1 0 0 1 5.3-4.1l233-2.9c27.6-1.3 57.5-23.6 68-50.8l13.3-34.5a7.9 7.9 0 0 0 .5-3 7.7 7.7 0 0 0-.2-1.6A151.9 151.9 0 0 0 201.3 198.4 68.1 68.1 0 0 0 94.2 269.6C41.9 271.1 0 313.7 0 366.1a96 96 0 0 0 1 14 4.5 4.5 0 0 0 4.5 3.8l426.1.1s.1 0 .1 0a5.6 5.6 0 0 0 5.3-4l3.2-11.3c3.9-13.4 2.5-25.8-4.1-34.9-6-8.4-16-13.3-28.2-13.9m106-98.8c-2.2 0-4.3.1-6.4.2a3.8 3.8 0 0 0-3.4 2.6l-9 31.2c-3.9 13.4-2.5 25.8 4.1 34.9 6 8.4 16 13.3 28.2 13.9l49.2 2.9a4.5 4.5 0 0 1 3.5 1.9 4.6 4.6 0 0 1 .5 4.2 6.2 6.2 0 0 1-5.3 4.1l-51.1 2.9c-27.8 1.3-57.7 23.6-68.2 50.8l-3.7 9.6a2.7 2.7 0 0 0 2.4 3.7c.1 0 .1 0 .2 0h175.9a4.7 4.7 0 0 0 4.5-3.4 124.8 124.8 0 0 0 4.7-34C640 277.3 583.5 221.1 513.9 221.1"/></svg>