<svg height="512" width="512" xmlns="http://www.w3.org/2000/svg"><path d="M0 405.3V448c0 35.3 86 64 192 64s192-28.7 192-64v-42.7C342.7 434.4 267.2 448 192 448S41.3 434.4 0 405.3M320 128c106 0 192-28.7 192-64S426 0 320 0 128 28.7 128 64s86 64 192 64M0 300.4V352c0 35.3 86 64 192 64s192-28.7 192-64v-51.6C342.7 334.4 267.1 352 192 352S41.3 334.4 0 300.4m416 11c57.3-11.1 96-31.7 96-55.4v-42.7c-23.2 16.4-57.3 27.6-96 34.5zM192 160C86 160 0 195.8 0 240s86 80 192 80 192-35.8 192-80S298 160 192 160m219.3 56.3C471.3 205.5 512 184.3 512 160v-42.7c-35.5 25.1-96.5 38.6-160.7 41.8 29.5 14.3 51.2 33.5 60 57.2"/></svg>