<svg height="1000" width="1000" xmlns="http://www.w3.org/2000/svg"><path d="M500 62.5c276.2 0 500 181.8 500 406.3S776.2 875 500 875c-64.1 0 -125 -10.2 -181.4 -27.9C261.7 887.3 167 937.5 46.9 937.5c-18.8 0 -35.8 -11.1 -43.2 -28.3 -7.4 -17.2 -3.9 -37.1 9 -50.8 1 -.8 61.5 -66 90.6 -143C38.9 646.9 0 561.7 0 468.7 0 244.3 223.8 62.5 500 62.5zm0 718.8c224 0 406.3 -140.3 406.3 -312.5S724 156.3 500 156.3 93.8 296.5 93.8 468.8c0 82.4 42.3 144.7 77.7 182.4l40.2 42.6L191 748.6c-10.7 28.4 -24.6 54.9 -38.9 78.5 46.1 -14.8 84.4 -36.9 112.4 -56.6l38 -26.9 44.4 14c49.4 15.6 101 23.7 153.1 23.7z"/></svg>