<svg height="512" width="640" xmlns="http://www.w3.org/2000/svg"><path d="M64 240c0 49.6 21.4 95 57 130.7C108.4 421 66.7 465.9 66.2 466.5c-2.2 2.3-2.8 5.7-1.5 8.7 1.3 2.9 4.1 4.8 7.3 4.8 66.3 0 116-31.8 140.6-51.4 32.7 12.3 69 19.4 107.4 19.4 27.4 0 53.7-3.6 78.4-10L72.9 186.4C67.3 203.5 64 221.4 64 240m569.8 218.1L519.4 369.7C554.6 334.1 576 289.2 576 240 576 125.1 461.4 32 320 32 254.9 32 195.8 52.1 150.6 84.7L45.5 3.4C38.5-2 28.5-.8 23 6.2L3.4 31.4c-5.4 7-4.2 17 2.8 22.4l588.4 454.7c7 5.4 17 4.2 22.5-2.8l19.6-25.3c5.4-6.8 4.1-16.9-2.9-22.3"/></svg>