<svg height="1000" width="1125" xmlns="http://www.w3.org/2000/svg"><path d="M1039.1 754.3c29.8 60 73 106.4 73.8 107 12.3 13.1 15.6 32.3 8.6 48.9 -7.2 16.6 -23.5 27.3 -41.4 27.3 -104.7 0 -188.9 -39.6 -244.6 -75.8C798.4 870.3 759.4 875 718.8 875 550.4 875 406.4 796.1 345.1 684c-18.9 -2.4 -37.5 -5.5 -55.5 -9.6 -55.6 36.3 -140 75.8 -244.5 75.8 -18 0 -34.4 -10.7 -41.4 -27.3C-3.5 706.2 0 687.1 12.3 674c.8 -.8 43.8 -47.2 73.6 -107.2C32.2 513.7 0 447.3 0 375 0 202.3 181.8 62.5 406.3 62.5c168.5 0 313 79.1 374.6 191.6 194.7 23 344.1 152.2 344.1 308.4 0 72.5 -32.2 138.9 -85.9 191.8zM271.9 574l38.6 8.8c31.3 7.2 63.5 10.9 95.7 10.9 169.4 0 312.5 -100.1 312.5 -218.7S575.6 156.2 406.2 156.2 93.7 256.4 93.7 375c0 56.1 31.7 98.8 58.1 125l48.4 47.9 -30.3 60.7c-5.1 10 -10.3 19.7 -15.6 28.9 28.5 -10 56.6 -24 84.2 -41.8zm701.3 113.5c26.4 -26.2 58.1 -68.9 58.1 -125 0 -96.1 -94.4 -178.7 -220.2 -207 .6 6.4 1.4 12.9 1.4 19.5 0 158 -152.3 288.1 -350.2 309.2 56.8 57.8 151 97.1 256.5 97.1 32.2 0 64.4 -3.8 95.7 -11l38.8 -9 33.4 21.7c27.6 17.8 55.7 31.8 84.2 41.8 -5.3 -9.2 -10.5 -18.9 -15.6 -28.9L925 735.2z"/></svg>