<svg height="512" width="576" xmlns="http://www.w3.org/2000/svg"><path d="M416 192C416 103.6 322.9 32 208 32S0 103.6 0 192c0 34.3 14.1 65.9 38 92C24.6 314.2 2.5 338.2 2.2 338.5A8 8 0 0 0 8 352c36.6 0 66.9-12.2 88.7-25 32.2 15.8 70.3 25 111.3 25 114.9 0 208-71.6 208-160m-224 96v-16.3c-11.3-.6-22.3-4.5-31.4-11.3-3.9-3-4.1-8.8-.5-12.2L171.8 237c2.8-2.6 6.9-2.8 10.1-.7 3.9 2.4 8.3 3.7 12.9 3.7h28.1c6.5 0 11.8-5.9 11.8-13.2 0-5.9-3.6-11.2-8.8-12.7l-45-13.5C162.3 195 149.3 177.2 149.3 157.2c0-24.5 19.1-44.4 42.7-45.1V96c0-4.4 3.6-8 8-8h16c4.4 0 8 3.6 8 8v16.3c11.3.6 22.3 4.5 31.4 11.3 3.9 3 4.1 8.8.5 12.2L244.2 147c-2.8 2.6-6.9 2.7-10.1.7-3.9-2.4-8.3-3.7-12.9-3.7h-28.1c-6.5 0-11.8 5.9-11.8 13.2 0 5.9 3.6 11.2 8.8 12.7l45 13.5c18.6 5.6 31.6 23.4 31.6 43.4 0 24.5-19.1 44.4-42.7 45.1V288c0 4.4-3.6 8-8 8h-16c-4.4 0-8-3.6-8-8m346 124c23.9-26 38-57.7 38-92C576 253.1 522.5 195.8 446.7 171.9c.8 6.6 1.3 13.3 1.3 20.1 0 105.9-107.7 192-240 192-10.8 0-21.3-.8-31.7-1.9C207.8 439.6 281.8 480 368 480c41 0 79.1-9.2 111.3-25 21.8 12.8 52.1 25 88.7 25 3.2 0 6.1-1.9 7.3-4.8 1.3-3 .7-6.4-1.5-8.7-.3-.3-22.4-24.2-35.8-54.5"/></svg>