<svg height="1000" width="1000" xmlns="http://www.w3.org/2000/svg"><path d="M500 62.5C223.8 62.5 0 244.3 0 468.8c0 92.9 38.9 178.1 103.3 246.6 -29.1 77 -89.6 142.2 -90.6 143C-.2 872.1 -3.7 892 3.7 909.2s24.4 28.3 43.2 28.3c120.1 0 214.8 -50.2 271.7 -90.4C375 864.8 435.9 875 500 875c276.2 0 500 -181.8 500 -406.2S776.2 62.5 500 62.5zm0 718.8c-52.1 0 -103.7 -8.1 -153.1 -23.7l-44.4 -14 -38 26.9c-28 19.7 -66.3 41.8 -112.4 56.6C166.4 803.5 180.3 777 191 748.6l20.7 -54.8 -40.2 -42.6C136.1 613.5 93.8 551.2 93.8 468.8 93.8 296.5 276 156.3 500 156.3s406.3 140.2 406.3 312.5S724 781.3 500 781.3z"/></svg>