<svg height="512" width="576" xmlns="http://www.w3.org/2000/svg"><path d="M532 386.2c27.5-27.1 44-61.1 44-98.2C576 208 499.5 141.9 399.8 130.1 368.3 72.5 294.3 32 208 32 93.1 32 0 103.6 0 192c0 37 16.5 71 44 98.2C28.7 320.9 6.7 344.7 6.3 345.1c-6.3 6.7-8.1 16.5-4.4 25 3.6 8.5 12 14 21.2 14 53.5 0 96.7-20.2 125.2-38.8 9.2 2.1 18.7 3.7 28.4 4.9C208.1 407.6 281.8 448 368 448c20.8 0 40.8-2.4 59.8-6.8C456.3 459.7 499.4 480 553 480c9.2 0 17.5-5.5 21.2-14 3.6-8.5 1.9-18.3-4.4-25-.4-.3-22.5-24.1-37.8-54.8M139.2 293.9 122.1 305C108 314.1 93.6 321.3 79 326.4c2.7-4.7 5.4-9.7 8-14.8l15.5-31.1L77.7 256C64.2 242.6 48 220.7 48 192 48 131.3 121.3 80 208 80s160 51.3 160 112S294.7 304 208 304c-16.5 0-33-1.9-49-5.6zM498.3 352l-24.7 24.4 15.5 31.1c2.6 5.1 5.3 10.1 8 14.8C482.5 417.2 468.1 410 454 400.9l-17.1-11.1-19.9 4.6c-16 3.7-32.5 5.6-49 5.6-54 0-102.2-20.1-131.3-49.7C338 339.5 416 272.9 416 192c0-3.4-.4-6.7-.7-10C479.7 196.5 528 238.8 528 288c0 28.7-16.2 50.6-29.7 64"/></svg>