<svg height="512" width="512" xmlns="http://www.w3.org/2000/svg"><path d="M256 32C114.6 32 0 125.1 0 240c0 49.6 21.4 95 57 130.7C44.5 421.1 2.7 466 2.2 466.5A8 8 0 0 0 8 480c66.3 0 116-31.7 140.6-51.4 32.7 12.3 69 19.4 107.4 19.4 141.4 0 256-93.1 256-208S397.4 32 256 32m24 302.4V352c0 8.8-7.2 16-16 16h-16c-8.8 0-16-7.2-16-16v-17.7c-11.4-1.4-22.3-5.2-31.8-11.5-6.2-4.1-6.8-13.1-1.5-18.4l17.5-17.5c3.7-3.7 9.3-4.2 14.1-2 3.2 1.4 6.7 2.2 10.3 2.2h32.7c4.7 0 8.5-3.8 8.5-8.4 0-3.8-2.5-7.1-6.1-8.1l-50.1-14.3c-22.3-6.4-40-24.7-42.9-47.7-4.1-32.1 19-59.4 49.3-63V128c0-8.8 7.2-16 16-16h16c8.8 0 16 7.2 16 16v17.7c11.4 1.4 22.3 5.2 31.8 11.5 6.2 4.1 6.8 13.1 1.5 18.4l-17.5 17.5c-3.7 3.7-9.3 4.2-14.1 2a24.5 24.5 0 0 0-10.3-2.2h-32.7c-4.7 0-8.5 3.8-8.5 8.4 0 3.8 2.5 7.1 6.1 8.1l50.1 14.3c22.3 6.4 40 24.7 42.9 47.7 4.1 32.1-19 59.4-49.3 63"/></svg>