<svg height="1000" width="968.8" xmlns="http://www.w3.org/2000/svg"><path d="M679.6 253.6L397.7 382.5a62.4 -62.4 0 0 1 -30.8 30.8L238 695.2c-14.9 32.5 18.6 66 51.2 51.2L571.1 617.5a62.4 -62.4 0 0 1 30.8 -30.8L730.7 304.8c14.9 -32.5 -18.6 -66 -51.1 -51.2zM528.5 544.1c-24.4 24.4 -63.9 24.4 -88.2 0 -24.4 -24.4 -24.4 -63.8 0 -88.2 24.3 -24.4 63.8 -24.4 88.2 0 24.3 24.4 24.3 63.8 0 88.2zM484.4 15.6C216.9 15.6 0 232.5 0 500s216.9 484.4 484.4 484.4S968.8 767.5 968.8 500 751.9 15.6 484.4 15.6zm0 875C269 890.6 93.8 715.4 93.8 500S269 109.4 484.4 109.4 875 284.6 875 500 699.8 890.6 484.4 890.6z"/></svg>