<svg height="1000" width="968.8" xmlns="http://www.w3.org/2000/svg"><path d="M679.6 253.6c32.5 -14.8 66 18.7 51.1 51.2L601.9 586.7c-6.2 13.7 -17.2 24.6 -30.8 30.8L289.2 746.4C256.6 761.2 223.1 727.7 238 695.2L366.9 413.3a61.614 61.614 0 0 1 30.8 -30.8zM528.5 544.1c24.3 -24.4 24.3 -63.8 0 -88.2s-63.9 -24.4 -88.2 0 -24.4 63.8 0 88.2 63.8 24.4 88.2 0zM484.4 15.6c267.5 0 484.4 216.9 484.4 484.4S751.9 984.4 484.4 984.4 0 767.5 0 500 216.9 15.6 484.4 15.6zm0 875C699.8 890.6 875 715.4 875 500S699.8 109.4 484.4 109.4 93.8 284.6 93.8 500 269 890.6 484.4 890.6z"/></svg>