<svg height="512" width="496" xmlns="http://www.w3.org/2000/svg"><path d="m347.9 129.9-144.3 65.9a31.9 31.9 0 0 0-15.8 15.8l-65.9 144.3c-7.7 16.7 9.5 33.9 26.2 26.2l144.3-65.9a31.9 31.9 0 0 0 15.8-15.8l65.9-144.3c7.7-16.7-9.5-33.8-26.2-26.2m-77.3 148.7c-12.5 12.5-32.7 12.5-45.2 0s-12.5-32.7 0-45.2c12.5-12.4 32.7-12.4 45.2 0 12.5 12.5 12.5 32.7 0 45.2M248 8C111 8 0 119 0 256s111 248 248 248S496 393 496 256 385 8 248 8m0 448C137.7 456 48 366.3 48 256S137.7 56 248 56s200 89.7 200 200S358.3 456 248 456"/></svg>