<svg height="512" width="576" xmlns="http://www.w3.org/2000/svg"><path d="m550.5 241-50.1-86.8c1.1-2.1 1.9-4.5 1.9-7.2 0-8.1-6.7-14.8-14.7-15L432.1 36.1c.5-1.6 1.1-3.2 1.1-4.8 0-8.6-7-15.3-15.3-15.3-4.8 0-8.8 2.1-11.8 5.6H299.5C296.8 18.1 292.8 16 288 16s-8.8 2.1-11.5 5.6H170.4c-2.9-3.5-7-5.6-11.8-5.6-8.3 0-15.2 6.7-15.2 15.3 0 1.6.5 3.5 1 4.8l-56 97.2c-5.3 2.4-9.1 7.5-9.1 13.7 0 .5.3 1.1.3 1.6l-53.3 92.1c-7.2 1.4-12.6 7.5-12.6 15 0 7.3 5.1 13.4 12.1 15l55.1 95.4c-.5 1.6-.8 2.9-.8 4.8 0 7.2 5.1 13.4 12.1 14.7l51.7 89.8c-.5 1.6-1.1 3.5-1.1 5.3 0 8.6 7 15.3 15.3 15.3 4.8 0 8.8-2.1 11.5-5.4h106.9c2.7 3.3 6.9 5.4 11.5 5.4s8.8-2.1 11.5-5.4h107.2c2.6 3 6.7 4.9 10.9 4.9 8.6 0 15.3-7 15.3-15.3 0-1.6-.3-2.9-.8-4.3l51.7-90.3c7-1.3 12.1-7.5 12.1-14.7 0-1.6-.3-3.2-.8-4.8L550 270.7c6.9-1.3 12.3-7.5 12.3-15 0-7.2-5.1-13.4-11.8-14.7m-397 209.7-43.6-75.8h43.6zm0-83.8h-43.6c-.3-1.1-.8-2.1-1.4-3.2l45-47.4zm0-62.4-50.3 53.3c-1.4-.5-2.7-1.4-4-1.6L43.4 259.8c.6-1.4.6-2.7.6-4.1s0-2.4-.3-3.4l52-90c2.7-.3 5.3-1.1 7.7-2.7l50.1 51.9zm0-102.3-45.8-47.4c1.4-2.2 2.2-4.9 2.2-7.8 0-.3-.3-.8-.3-1.1l43.9-15.8zm0-80.7-43.6 15.8 43.6-75.5zm326.6 39.1.8 1.4-35.4 167.1-63.7-67.2 98-101.5zM291.8 355.1l11.5 11.8h-22.8zm-.3-11.2-83.3-85.5L287.7 174l83.1 87.6zm5.3 5.9 79.3-82.3 67.5 71.3-5.9 28.1h-124zM410.4 44.4c1.1.5 2.2 1.1 3.5 1.3l57.9 100.7v.6c0 2.9.8 5.6 2.1 7.8L376.4 256l-83-87.6zm-9.1-2.1L287.7 162.5l-57-60.2L397 42.3zm-123.5 0c2.7 2.6 6.2 4.2 10.2 4.2s7.5-1.6 10.2-4.2h75L224.8 95.8 173.9 42.3zm-116.2 5.6 1-2.2a34 34 0 0 0 2.7-.8l51.2 53.9-54.9 19.8zm0 79.3 60.8-22 59.7 63.2-79.5 84.1-41-42zm0 92.6 36.4 37.8-36.4 38.3zm0 87.9 42-44.5 82.8 86-17.1 17.7H161.6zm6.9 162.1c-1.6-1.7-3.4-2.7-5.9-3.5l-1-1.6v-89.8h99.9l-91.6 94.9zm129.9 0c-2.6-2.5-6.4-4.3-10.4-4.3s-7.8 1.8-10.4 4.3h-96.5l91.6-94.9H311l91.6 94.9zm120-11.8-4.2 7.5c-1.4.2-2.4.8-3.5 1.3l-89.2-91.9h114.4zm12.9-22.3 12.9-60.8h21.9zm34.8-68.8h-20.3l4.5-21.2 17.2 18.2c-.6.8-1.1 1.9-1.4 3m66.2-107.4-55.5 96.7c-1.3.5-2.6 1.1-4 1.9l-20.6-22 34.6-163.9 45.8 79.2c-.3 1.4-.8 2.7-.8 4.3 0 1.4.2 2.4.5 3.8"/></svg>