<svg height="512" width="512" xmlns="http://www.w3.org/2000/svg"><path d="m510.4 254.8-12.1-76.3a132.5 132.5 0 0 0-37.2-72.9L406.4 50.8C386.6 31.1 361.2 18.1 333.7 13.8L257 1.6c-27.5-4.3-55.7.1-80.6 12.8l-69.1 35.2a132.3 132.3 0 0 0-57.8 57.8l-35.1 68.9A132.6 132.6 0 0 0 1.6 257.2l12.1 76.3a132.5 132.5 0 0 0 37.1 72.9l54.8 54.8a132.1 132.1 0 0 0 72.7 37l76.7 12.2c27.5 4.3 55.7-.1 80.5-12.8l69.2-35.2a132.3 132.3 0 0 0 57.7-57.8l35.2-68.8c12.7-25 17.2-53.4 12.8-81M176 368c-17.7 0-32-14.3-32-32s14.3-32 32-32 32 14.3 32 32-14.3 32-32 32m32-160c-17.7 0-32-14.3-32-32s14.3-32 32-32 32 14.3 32 32-14.3 32-32 32m160 128c-17.7 0-32-14.3-32-32s14.3-32 32-32 32 14.3 32 32-14.3 32-32 32"/></svg>