<svg height="512" width="512" xmlns="http://www.w3.org/2000/svg"><path d="M510.5 255.8C440.5 255 384 198.1 384 128 313.9 128 257 71.5 256.2 1.5c-27.3-4.1-55.1.3-79.7 12.8l-69.2 35.2a132.2 132.2 0 0 0-57.8 57.9l-35.1 68.8a132.6 132.6 0 0 0-12.8 81l12.1 76.3a132.5 132.5 0 0 0 37.2 72.9l54.7 54.8a132 132 0 0 0 72.7 37l76.8 12.2c27.5 4.3 55.7-.1 80.5-12.8l69.1-35.2a132.3 132.3 0 0 0 57.8-57.8l35.1-68.9c12.6-24.6 17-52.6 12.9-79.9M176 368c-17.7 0-32-14.3-32-32s14.3-32 32-32 32 14.3 32 32-14.3 32-32 32m32-160c-17.7 0-32-14.3-32-32s14.3-32 32-32 32 14.3 32 32-14.3 32-32 32m160 128c-17.7 0-32-14.3-32-32s14.3-32 32-32 32 14.3 32 32-14.3 32-32 32"/></svg>