<svg height="1000" width="875" xmlns="http://www.w3.org/2000/svg"><path d="M847.5 128.8c17 17 27.5 40.4 27.5 66.3v523.6c0 51.8 -42 93.8 -93.8 93.8H625v93.7c0 51.8 -42 93.8 -93.8 93.8H93.7C42 1000 0 958 0 906.2v-625c0 -51.7 42 -93.7 93.7 -93.7H250V93.7C250 42 292 0 343.7 0h336.2c25.9 0 49.3 10.5 66.3 27.5zm-328 777.5c6.5 0 11.8 -5.3 11.8 -11.8v-82H343.8c-51.8 0 -93.8 -42 -93.8 -93.7V281.3H105.5c-6.5 0 -11.7 5.2 -11.7 11.7v601.5c0 6.5 5.2 11.8 11.7 11.8h414zm250 -187.5c6.5 0 11.8 -5.3 11.8 -11.8V312.5H609.4c-25.9 0 -46.9 -21 -46.9 -46.9V93.8h-207c-6.5 0 -11.7 5.2 -11.7 11.7V707c0 6.5 5.2 11.8 11.7 11.8h414zm11.8 -500v-18.9c0 -3.2 -1.4 -6.1 -3.5 -8.2L683.3 97.2a11.42 11.42 0 0 0 -8.2 -3.5h-18.9v125h125z"/></svg>