<svg height="512" width="512" xmlns="http://www.w3.org/2000/svg"><path d="M256 8C119 8 8 119 8 256s111 248 248 248S504 393 504 256 393 8 256 8m0 448C145.5 456 56 366.5 56 256S145.5 56 256 56s200 89.5 200 200S366.5 456 256 456M363.4 354.9c-9.7 9.7-45.6 41.4-104.1 41.4-82.4 0-140.5-61.4-140.5-141.5 0-79.2 60.3-139.4 139.8-139.4 55.5 0 88.7 26.6 97.6 34.7a12 12 0 0 1 1.9 15.4l-18.2 28.1c-3.8 5.9-11.9 7.3-17.5 2.9C313.8 189.7 290.6 174 260.7 174c-48.3 0-77.9 35.3-77.9 80 0 41.6 26.9 83.7 78.3 83.7 32.6 0 56.8-19 65.7-27.2 5.3-4.8 13.6-4 17.8 1.7l19.9 27.2a11.9 11.9 0 0 1-1.1 15.5"/></svg>