<svg height="1000" width="1000" xmlns="http://www.w3.org/2000/svg"><path d="M500 15.6C232.5 15.6 15.6 232.5 15.6 500S232.5 984.4 500 984.4 984.4 767.5 984.4 500 767.5 15.6 500 15.6zm0 875C284.1 890.6 109.4 715.9 109.4 500 109.4 284.1 284.1 109.4 500 109.4c215.9 0 390.6 174.7 390.6 390.6 0 215.9 -174.7 390.6 -390.6 390.6zM709.7 693.2c-18.8 19 -89 80.9 -203.3 80.9C345.4 774.1 232 654.1 232 497.6 232 343 349.8 225.3 505 225.3c108.5 0 173.3 52 190.6 67.9a23.4 -23.4 0 0 0 3.8 30l-35.5 54.9c-7.5 11.6 -23.3 14.2 -34.1 5.7 -16.8 -13.2 -62.2 -44 -120.6 -44 -94.3 0 -152.1 69 -152.1 156.4 0 81.2 52.5 163.4 152.8 163.4 63.8 0 111.1 -37.1 128.4 -53.1 10.3 -9.5 26.6 -7.9 34.8 3.4l38.8 53a23.3 -23.3 0 0 0 -2.2 30.3z"/></svg>