<svg height="512" width="512" xmlns="http://www.w3.org/2000/svg"><path d="M474.3 330.4C450.6 422.3 380.1 475 272.4 478.8v-49.2c0-48 26.4-74.4 74.4-74.4 62 0 99.2-37.2 99.2-99.2 0-61.4-36.5-98.3-97.4-99.1-33-69.3-146.5-64.6-177.2 0C110.5 157.7 74 194.6 74 256c0 62.1 37.3 99.4 99.4 99.4 48 0 74.5 26.2 74.5 74.4V479C113.5 474 36.8 393.9 36.8 256 36.8 114.2 118.2 32.8 260 32.8c114.8 0 189.9 53.2 214.7 148.8H500C473.9 71.5 388.2 8 259.8 8 105 8 12 101.2 12 255.8c0 155.3 93.2 248.5 247.8 248.2 128.3 0 213.9-63.8 239.7-173.6zM357 182.3c41.4 3.5 64.2 29 64.2 73.7 0 48-26.4 74.4-74.4 74.4-28.6 0-49.3-9.6-61.6-27.3 83.1-16.6 75.6-99.7 71.8-120.8m-81.7 97.4c-2.4-10.3-16.3-87 56.3-97 2.2 10.1 16.5 87.1-56.3 97M260 132c28.6 0 49 9.7 61.4 27.6-28.3 5.5-49.3 20.6-61.5 43.5-12.3-22.9-33.3-38-61.6-43.5 12.4-17.7 33.2-27.3 61.5-27.3zm-71.5 50.7c73.2 10.6 58.9 86.8 56.5 97-72.4-9.8-59-86.9-56.3-97zm-15.3 147.7c-48 0-74.4-26.4-74.4-74.4 0-44.4 22.9-70 64.2-73.7-6.7 37.2-1.4 106.6 71.7 120.8-12.2 17.6-32.9 27.3-61.2 27.3zm53.2 12.4A80.8 80.8 0 0 0 260 309.3c7.8 14.4 19.3 25.5 33.8 33.5a80.3 80.3 0 0 0-33.6 33.8c-8-14.5-19-26.2-33.5-33.8z"/></svg>