<svg height="512" width="496" xmlns="http://www.w3.org/2000/svg"><path d="M247.7 8C103.6 8 0 124.8 0 256c0 136.3 111.7 248 247.7 248C377.9 504 496 403.1 496 256 496 117 388.4 8 247.7 8m.6 450.7C136.3 458.7 44.7 366.2 44.7 256c0-23.2 3.7-45.2 10.9-66l65.7 29.1h-4.7v29.5h23.3c0 6.2-.4 3.2-.4 19.5h-22.8v29.5h27c11.4 67 67.2 101.3 124.6 101.3 26.6 0 50.6-7.9 64.8-15.8l-10-46.1c-8.7 4.6-28.2 10.8-47.3 10.8-28.2 0-58.1-10.9-67.3-50.2h90.3l128.3 56.8c-1.5 2.1-56.2 104.3-178.8 104.3M231.6 268.1l-.5-.4.9.4zm77.2-19.5h3.7v-29.5h-70.3l-28.6-12.6c2.5-5.5 5.4-10.5 8.8-14.3 12.9-15.8 31.1-22.4 51.1-22.4 18.3 0 35.3 5.4 46.1 10l11.6-47.3c-15-6.6-37-12.4-62.3-12.4-39 0-72.2 15.8-95.9 42.3-5.3 6.1-9.8 12.9-13.9 20.1L77.5 146.4C142.1 49.6 235.2 52.8 248.2 52.8c113 0 203 90.2 203 203.4 0 18.7-2.1 36.3-6.3 52.9z"/></svg>