<svg height="512" width="496" xmlns="http://www.w3.org/2000/svg"><path d="m245.8 214.9-33.2 17.3c-9.4-19.6-25.2-20-27.4-20-22.2 0-33.3 14.6-33.3 43.9 0 23.5 9.2 43.8 33.3 43.8 14.4 0 24.6-7.1 30.5-21.3l30.6 15.5c-6.2 11.5-25.7 39-65.1 39-22.6 0-74-10.3-74-77 0-58.7 43-77.1 72.6-77.1 30.8 0 52.7 12 66 35.9m143.1 0-32.8 17.3c-9.5-19.8-25.7-20-27.9-20-22.1 0-33.2 14.6-33.2 43.9 0 23.5 9.2 43.8 33.2 43.8 14.5 0 24.7-7.1 30.5-21.3l31 15.5c-2.1 3.8-21.3 39-65 39-22.7 0-74-9.8-74-77 0-58.7 43-77.1 72.6-77.1 30.7 0 52.6 12 65.6 35.9M247.6 8.1C104.7 8.1 0 123.1 0 256.1c0 138.4 113.6 248 247.6 248 129.9 0 248.4-100.9 248.4-248C496 118.2 389.4 8.1 247.6 8.1m.8 450.8C135.9 458.9 44.7 365.8 44.7 256.1 44.7 150.6 130.2 52.8 248.5 52.8c112.5 0 202.8 89.4 202.8 203.2 0 121.7-99.7 202.9-202.9 202.9"/></svg>