<svg height="1000" width="1125" xmlns="http://www.w3.org/2000/svg"><path d="M1031.1 62.5H93.9C42 62.5 0 104.5 0 156.3v687.5c0 51.7 42 93.7 93.9 93.7h937.2c51.9 0 93.9 -42 93.9 -93.7V156.3c0 -51.8 -42 -93.8 -93.9 -93.8zm-925.4 93.8h913.6c6.5 0 11.8 5.2 11.8 11.7v82H93.9v-82c0 -6.5 5.3 -11.7 11.8 -11.7zm913.6 687.5H105.7c-6.5 0 -11.8 -5.3 -11.8 -11.8V500h937.2v332c0 6.5 -5.3 11.8 -11.8 11.8zM375 648.4v78.2c0 12.9 -10.5 23.4 -23.4 23.4H210.9c-12.9 0 -23.4 -10.5 -23.4 -23.4v-78.2c0 -12.9 10.5 -23.4 23.4 -23.4h140.7c12.9 0 23.4 10.5 23.4 23.4zm375 0v78.2c0 12.9 -10.5 23.4 -23.4 23.4H460.9c-12.9 0 -23.4 -10.5 -23.4 -23.4v-78.2c0 -12.9 10.5 -23.4 23.4 -23.4h265.7c12.9 0 23.4 10.5 23.4 23.4z"/></svg>