<svg height="512" width="448" xmlns="http://www.w3.org/2000/svg"><path d="M225.8 0c.3.1 216.6 124.5 217.1 124.7 3 1.2 3.7 3.5 3.7 6.6q-.1 125.1 0 250.3a5.9 5.9 0 0 1-3.3 5.8c-21.4 12-207.9 118.3-219 124.6h-3C142 466.3 3.1 386.6 2.9 386.5a3.3 3.3 0 0 1-1.8-3.3c0-.8 0-225.9-.1-253.1a5 5 0 0 1 2.9-4.9C27.2 112.1 213.2 6 224.1 0zm-10.4 20.4-.2-.1Q118.1 75.5 21 130.9c0 .1.1.2.1.3L52 142.9c-7.7 6-8.3 6-10.7 5.1-.1 0-24.1-9.3-26.8-10v230.4c.9-1.4 64.1-110.9 64.2-111 1.6-2.8 3-1.9 9.1-1.5 1.4.1 1.5.2.8 1.4-41.2 71.3-36.4 63-67.5 117-.8 1.4-.6 1.1 1.2 1.1h186.5c1.5 0 1.7-.2 1.7-1.6v-8.9c0-1.4 2.4-.8-18.3-1-7.5-.1-14.2-3.3-21.4-12.7-7.4-9.7-14.6-19.5-21.9-29.2-2.2-3.1-3.4-2.4-16.7-2.4-1.8 0-1.8 0-1.8 1.8.3 26.2.2 25.3 1 32.7.5 4.3 2.2 4.2 9.7 4.8 3.1.2 3.9 4.1.5 4.9-1.5.4-31.6.5-33.6-.1a2.4 2.4 0 0 1 .3-4.7c3.2-.8 6.1.8 6.6-4.5 1.3-13.6 1.2-9 1.1-79.4 0-10.8-.3-12.6-5.3-13.5-1.3-.3-3.6-.2-4.7-.6-2.9-1-2-4.8 1.7-4.9 33.7 0 46.1-1 56.1 4.9 7.7 4.6 12 11.5 12.5 20.4.9 14.6-6.5 22.4-15 32.6a1.5 1.5 0 0 0 0 2.2c2.6 3.3 5 6.7 7.7 9.9 27.6 33.2 24.1 30.5 41.3 33 .9.1 1-.4 1-1.1v-11c0-1 .3-1.5 1.4-1.3a72.4 72.4 0 0 0 23.6-.3c1.1-.1 1.5.2 1.5 1.3 0 .1.8 26.7.8 26.8 0 1.6.7 1.7 1.9 1.7h186.7Q386.5 304.6 346 234.3c2.3-.6-.4 0 6.7-1.4 2-.3 2-.4 3.1 1.5 7.3 12.6 77.3 134 77.4 134V138c-1.8.5-103.3 38.7-105.8 39.7-1.1.4-1.5.2-1.9-.9-.6-1.9-1.3-3.8-2.1-5.6-.3-.8-.1-1.1.7-1.4.1 0 95.5-35.9 103-38.8C361.6 93.5 296.5 56 231.1 18.4l86.8 150.4-.3.3c-9.6-.9-10.5-1.6-11.8-3.9-1-1.7-73.5-127.7-82-142.2-9.1 14.7-83.6 146.3-85.4 146.4-2.9.1-5.8 0-9.2 0q43.2-74.7 86.2-149m51.9 129.9a38 38 0 0 0 5.6-.8c1.7-.3 2.5.2 2.6 1.9 0 .1 0 19.1-.9 20.5s-1.9 1.2-2.6-.2c-5-9.7 6.2-9.7-39.1-12-.7 0-1 .2-1 .9 0 .1 3.7 122 3.7 122.1 0 .9.5 1.2 1.2 1.5a84 84 0 0 1 8.7 4.1c7.3 4.3 11.4 10.8 12.4 19.3 1.5 11.8-2.7 35.7-32.2 37.1-2.7.1-28.2 1.1-34.1-23.2-4.7-19.3 8.2-32.7 19.9-36.4a2.5 2.5 0 0 0 2-2.7c.1-5.6 3-107.1 3.7-121.3 0-1.1-.6-1.2-1.4-1.2-32.3.5-36.7-.3-40.2 8.5-2.4 6.2-4.1 1.3-3.9.3q1.6-9 3.3-18c.4-2.2 1.4-2.7 3.4-1.9 5.6 2.1 6.7 1.7 37.3 1.9 1.7 0 1.7-.1 1.8-1.8.7-27.5.6-22.6 1-29.6a2.7 2.7 0 0 0-1.7-2.8c-5.5-2.9-8.7-7.5-8.9-13.9C207.6 87.8 225.7 81 235.3 91.1c6.9 7.2 5.8 18.9-2.4 24.2a4.3 4.3 0 0 0-2.2 4.3c0 .6-.2-4.3 1 30.1 0 .9.4 1.1 1.2 1.1.1 0 23-.1 34.5-.4zm-199-8.6c19.8-4.5 32.6-.6 52.5 1.7 2.7.3 3.7 1.2 3.6 4-.2 5-1.2 22.3-1.3 23.1a2.6 2.6 0 0 1-1.6 2.4c-4 1.7-3.6-4.5-4-7.3C114.4 143.2 43.6 132.9 42.9 191c-.3 23.9 17 53.6 54.1 50.9 27.2-2 19-20.2 24.8-20.5a2.7 2.7 0 0 1 3 3.4c-1.8 10.8-3.4 18.9-3.4 19.1-1.6 9.2-86.7 22.1-93.4-42C25.3 176 38.4 148.5 68.3 141.7m80 87.7h-19.5a2.6 2.6 0 0 1-2.7-1.8c2.4-3.8 5.9.9 5.9-6.2-.1-25.7.2-38 .2-40.1 0-3.4-.5-4.6-3.3-4.9-7-.7-3.1-3.4-1.1-3.4 11.8-.1 22.6-.2 30 .7 8.8 1.1 16.7 12.7 8 22.7-2 2.2-4 4.4-6.2 6.7 1 1.1 6.9 8.8 17.3 19.7 2.7 2.8 6.2 3.5 9.9 3.1a2.2 2.2 0 0 0 2.2-2.1c.3-3.4.3 4.7.5-40.6 0-5.6-.4-6.6-3.3-6.8-3.9-.4-4-2.3-.7-3.4l19.1-.1c.3 0 4.5.5 1 3.4 0 0-.1 0-.2 0-3.6.3-4 1-4 4.6-.3 43.9.1 40.2.4 42.8.1.9.3 2.3 5.1 2.2 2.5 0 3.9 3.3 0 3.4-10.4.1-20.7 0-31.1 0-10.7 0-13.5-6.2-24.2-20.8-1.6-2.2-8.3-2.3-8.2-.3.9 16.4 0 17.7 4 17.6 4.7-.1 4.7 3.6.8 3.6zm275-10.2c-1.2 7.1.1 10.4-5.3 10.4-61.6-.5-47.9-.3-50.7-.3a18.4 18.4 0 0 1-3.7-.8c-2.5-.6 1.5-1.2-.4-5.6-1.4-3.3-2.7-6.8-4.1-10.2a1.9 1.9 0 0 0-2-1.4 138 138 0 0 0-14.5.1 2.2 2.2 0 0 0-1.7 1c-1.5 3.6-3 7.3-4.5 11-1.2 3.3 7.9 1.3 12.2 2.2 3 .6 4.5 3.7.7 3.7h-26.4c-2.9 0-3.1-3.1-.7-3.2a6.3 6.3 0 0 0 5.9-3.5c1.5-3 2.8-6 4.1-9.1 18.2-42.1 17.1-40.1 18.4-41.6a1.8 1.8 0 0 1 3 0c2.9 3.4 18.4 44.7 23.6 52 2 2.7 5.8 2 6.4 2 3.6.1 4-1.2 4.1-4.3.1-1.9.1 1.1.1-41.3 0-4.4-2.4-3.7-5.6-4.2-.2 0-2.5-.7 0-3.1.2-.2-.9-.2 21.7-.2 2.3 0 5.3 2.8-1.2 3.5a2.6 2.6 0 0 0-2.7 2.8c-.1 1.7-.2 38.9.3 41.2a3.1 3.1 0 0 0 3.2 2.5c13.3.4 14.9.4 16-3.4 1.7-5.8 4.1-2.6 3.7-.2zm-104.8 64.4c-4.2 0-4.4-3.4-.6-3.4 35.9-.2 28.1.4 37.2-.7 1.7-.2 2.4.3 2.3 1.9-.3 3.4-.7 6.8-1 10.2-.3 2.1-3.2 2.6-3.4-.2-.4-5.3-2.2-4.4-15.7-5-1.5-.1-1.6 0-1.6 1.5V304c0 1.6 0 1.6 1.6 1.5 3.1-.3 10.3.3 15.7-1.5.5-.2 3.3-1.8 3.1 1.7 0 .2-.8 10.4-1.2 11.4-.5 1.3-1.9 1.5-2.6.3-1.1-2 0-5.1-3.7-5.3-15.4-.9-12.9-2.5-12.9 6 0 12.3-.8 16.1 3.9 16.3 16.6.4 14.4 0 16.4-5.7.9-2.4 3.5-1.8 3.2.5-.4 3.2-.8 6.5-1.2 9.7 0 .3-.2 2.4-4.7 2.4-37.1-.1-34.5-.2-35.2-.4-2.7-.5-2.2-3 .2-3.4 1.1-.2 4 .5 4.2-2.6 2.4-56.2-.1-51.3-3.9-51.3zm-.4-109.5c2.5.6 3.2 1.7 3 4.6-.3 5.3-.4 9-.6 9.7-.6 2.2-3.1 2.1-3.3-.3-.4-4.8-3.1-7.8-7.6-9.1-26.3-7.7-32.8 15.5-27.1 30.2 5.8 15.4 22 15.9 28.8 13.8 5.9-1.9 5.9-6.5 6.9-7.6 1.3-1.3 2.3-1.8 3.1 1.1 0 .1.6 11.9-6 12.8-1.6.2-19.3 3.7-32.6-3.4-21-11.2-16.8-35.5-6.9-45.4 14-14 39.9-7 42.3-6.4m-28.3 106c3.3 0 3.7 3 .2 3.5-2.6.3-5-.5-5 5.4 0 2-.2 29.1.4 41.5.1 2.3 1.1 3.5 3.4 3.6 22 1.2 15-1.6 18.8-6.3 1.8-2.3 2.8.8 2.8 1.1.3 13.6-4 12.4-5.2 12.4l-38.2-.2c-1.9-.3-2.1-3-.4-3.4 2-.5 4.9.4 5.1-2.8 1-15.9.6-44.7.3-47.8-.2-3.8-2.8-3.3-5.6-3.7-2.5-.4-2-3.2.3-3.2 1.5-.1 18-.1 23.1-.1m-31.6-57.8c0 4.1 2.8 3.5 6 3.6 2.6.1 2.5 3.4-.1 3.5-6.5 0-13.7 0-21.6-.1-3.8 0-3.4-3.3 0-3.4 4.5 0 3.2 1.6 3.4-45.5 0-5.1-3.3-3.5-4.7-4.2-2.6-1.3-1.4-3.1.4-3.2 1.3 0 20.2-.4 21.2.2s1.8 1.7-.5 2.9c-1 .5-3.8-.3-4.1 2.5 0 .2-.8 1.6-.1 43.8zm-36.9 274.3a2.9 2.9 0 0 0 3.2 0c17-9.8 182-103.5 197.4-112.5-.1-.4 11.3-.2-181.5-.3-1.2 0-1.6.4-1.5 1.6 0 .1 1.2 44.5 1.2 50.4a28.3 28.3 0 0 1-1.4 7.7c-.5 1.8.4-.5-13.5 32.2-.7 1.7-1 2.2-2-.1-4.1-10.3-8.2-20.7-12.5-31a23.6 23.6 0 0 1-2-10.7c.1-2.5.8-16.2 1.5-48 0-2 0-2-2-2h-183c2.6 1.6 178.3 102.5 196 112.7zM130.4 307.9c0 2.4.3 2.8 2.7 3 11.6 1.1 21 3.7 25.7-7.3 6-14.5 2.6-34.5-12.5-38.9-2-.6-16-2.7-16 1.5.1 8.1 0 11.6.1 41.7m105.7-15.1c0 2.1 1.1 38.7 1.1 39.1.3 10-25.6 5.8-25.2-2.5.1-2 1.3-37.5 1.1-39.5-14.1 7.5-14.4 40.2 6.4 48.8a17.9 17.9 0 0 0 22.4-7c4.9-7.8 6.8-29.5-5.4-39a2.5 2.5 0 0 1-.4.1m-12.3-198c-9.8 0-9.7 14.8 0 14.9s10.1-14.9 0-14.9m-80.1 103.8c0 1.8.4 2.4 2.1 2.6 13.7 1.4 12.6-11 12.2-13.3-1.7-11.2-14.4-10.2-14.3-7.8 0 4.5-.1 13.6 0 18.6zM356 205l-6.1-15.8c-2.2 5.5-4.2 10.6-6.2 15.8z"/></svg>