<svg height="512" width="512" xmlns="http://www.w3.org/2000/svg"><path d="M500 224h-30.4C455.7 130.3 381.7 56.3 288 42.4V12C288 5.4 282.6 0 276 0h-40c-6.6 0-12 5.4-12 12v30.4C130.3 56.3 56.3 130.3 42.4 224H12c-6.6 0-12 5.4-12 12v40c0 6.6 5.4 12 12 12h30.4c13.9 93.7 87.9 167.7 181.6 181.6V500c0 6.6 5.4 12 12 12h40c6.6 0 12-5.4 12-12v-30.4C381.7 455.7 455.7 381.7 469.6 288H500c6.6 0 12-5.4 12-12v-40c0-6.6-5.4-12-12-12M288 404.6V364c0-6.6-5.4-12-12-12h-40c-6.6 0-12 5.4-12 12v40.6C165.8 392.2 119.8 346.2 107.4 288H148c6.6 0 12-5.4 12-12v-40c0-6.6-5.4-12-12-12h-40.6C119.8 165.8 165.8 119.8 224 107.4V148c0 6.6 5.4 12 12 12h40c6.6 0 12-5.4 12-12v-40.6c58.2 12.4 104.2 58.4 116.6 116.6H364c-6.6 0-12 5.4-12 12v40c0 6.6 5.4 12 12 12h40.6C392.2 346.2 346.2 392.2 288 404.6M288 256c0 17.7-14.3 32-32 32s-32-14.3-32-32 14.3-32 32-32 32 14.3 32 32"/></svg>