<svg height="512" width="640" xmlns="http://www.w3.org/2000/svg"><path d="M544 32h-16.4C513 12.7 490.1 0 464 0c-44.2 0-80 35.8-80 80v21L12.1 393.6A30.2 30.2 0 0 0 0 417.7c0 22.5 23.6 37.1 43.7 27.1L165.3 384h96.5l44.4 120.1c2.2 6.2 9.1 9.4 15.3 7.2l22.6-8.2c6.2-2.3 9.4-9.2 7.2-15.4L312.9 384H352c1.9 0 3.8-.2 5.7-.3l44.5 120.4c2.2 6.2 9.1 9.4 15.4 7.2l22.5-8.2c6.2-2.3 9.4-9.2 7.2-15.4L406 376.1C485.7 352.8 544 279.3 544 192v-80l96-16C640 60.6 597 32 544 32m-80 72c-13.2 0-24-10.7-24-24s10.8-24 24-24 24 10.7 24 24-10.7 24-24 24"/></svg>