<svg height="512" width="512" xmlns="http://www.w3.org/2000/svg"><path d="m507.3 185.7-181-181a16 16 0 0 0-22.6 0L281 27.3a16 16 0 0 0 0 22.6l181 181a16 16 0 0 0 22.6 0l22.7-22.6a16 16 0 0 0 0-22.6m-179.5 66.4-67.9-67.9L315 129.1 269.7 83.9 160.1 193.6a96.1 96.1 0 0 0-25.7 46.2l-27.7 120.3-102 102a16 16 0 0 0 0 22.6l22.6 22.7a16 16 0 0 0 22.6 0l102-102 120.2-27.8A95.9 95.9 0 0 0 318.4 352L428.1 242.3 382.9 197zm-54.6 54.6a32 32 0 0 1-15.4 8.5l-79.4 18.4 18.4-79.3a32.2 32.2 0 0 1 8.5-15.5l9.3-9.3 67.9 67.9z"/></svg>