<svg height="512" width="512" xmlns="http://www.w3.org/2000/svg"><path d="M488.6 250.2 392 214V105.5c0-15-9.3-28.4-23.4-33.7l-100-37.5c-8.1-3.1-17.1-3.1-25.3 0l-100 37.5c-14.1 5.3-23.4 18.7-23.4 33.7V214l-96.6 36.2C9.3 255.5 0 268.9 0 283.9V394c0 13.6 7.7 26.1 19.9 32.2l100 50c10.1 5.1 22.1 5.1 32.2 0l103.9-52 103.9 52c10.1 5.1 22.1 5.1 32.2 0l100-50C504.3 420.1 512 407.6 512 394V283.9c0-15-9.3-28.4-23.4-33.7M358 214.8l-85 31.9v-68.2l85-37zM154 104.1 256 65.9l102 38.2v.6l-102 41.4L154 104.7zm84 291.1-85 42.5v-79.1l85-38.8zm0-112-102 41.4L34 283.2v-.6l102-38.2 102 38.2zm240 112-85 42.5v-79.1l85-38.8zm0-112-102 41.4L274 283.2v-.6l102-38.2 102 38.2z"/></svg>