<svg height="512" width="448" xmlns="http://www.w3.org/2000/svg"><path d="M278.1 256 444.5 89.6a12.01 12.01 0 0 0 0-17c-32.8-32.8-86-32.8-118.8 0L210.2 188.1l-24.9-24.8c4.3-11 6.7-22.9 6.7-35.3C192 75 149 32 96 32S0 75 0 128s43 96 96 96c4.5 0 9-.3 13.4-.9l32.9 32.9-32.9 32.9C105 288.3 100.5 288 96 288 43 288 0 331 0 384s43 96 96 96 96-43 96-96c0-12.4-2.4-24.3-6.7-35.3l24.9-24.8 115.5 115.5c32.8 32.8 86 32.8 118.8 0a12.01 12.01 0 0 0 0-17zM96 160C78.4 160 64 145.6 64 128S78.4 96 96 96s32 14.4 32 32-14.4 32-32 32m0 256C78.4 416 64 401.6 64 384s14.4-32 32-32 32 14.4 32 32-14.4 32-32 32"/></svg>