<svg height="512" width="512" xmlns="http://www.w3.org/2000/svg"><path d="M216 260c0 15.5-12.5 28-28 28s-28-12.5-28-28c0-44.1 35.9-80 80-80s80 35.9 80 80c0 15.5-12.5 28-28 28s-28-12.5-28-28c0-13.2-10.8-24-24-24s-24 10.8-24 24M240 84C143 84 64 163 64 260c0 15.5 12.5 28 28 28s28-12.5 28-28c0-66.2 53.8-120 120-120s120 53.8 120 120c0 75.2-71 70.3-72 143.6v.4c0 28.7-23.3 52-52 52-15.5 0-28 12.5-28 28s12.5 28 28 28c59.5 0 107.9-48.3 108-107.8.6-34.4 72-48.2 72-144.2C416 163 337 84 240 84M508.5 31.8 480.2 3.5a12.01 12.01 0 0 0-17 0l-87 87a12.01 12.01 0 0 0 0 17l28.3 28.3c4.7 4.7 12.3 4.7 17 0l87-87a12.01 12.01 0 0 0 0-17M169 314.7c-4.7-4.6-12.3-4.6-17 0L3.5 463.2a12.01 12.01 0 0 0 0 17l28.3 28.3c4.7 4.7 12.3 4.7 17 0L197.3 360c4.6-4.7 4.6-12.3 0-17z"/></svg>