<svg height="512" width="480" xmlns="http://www.w3.org/2000/svg"><path d="M205.9 512 237 473.6c12.3-.2 25.6-1.4 36.5-6.6 38.9-18.6 38.4-61.9 38.3-63.8-.1-5-.8-4.4-28.9-37.4H362c-.2 50.1-7.3 68.5-10.2 75.7-9.4 23.7-43.9 62.8-95.2 69.4-8.7 1.1-32.8 1.2-50.7 1.1M406.3 344.3c38.6 0 58.5-13.6 73.7-30.9l-175.5-.3-17.4 31.3zM362.7 120.4v168.3h-73.5l-32.7 55.5H250c-52.3 0-58.1-56.5-58.3-58.9-1.2-13.2-21.3-11.6-20.1 1.8 1.4 15.8 8.8 40 26.4 57.1h-91C81.5 344.2-3.8 317.4 0 230.2V16.9C0 .9 9.7.3 15 .1h82c.2 0 .3.1.5.1 4.3-.4 50.1-2.1 50.1 43.7 0 13.3 20.2 13.4 20.2 0C167.8 25.7 162.3 11.1 152 .2h84.2c108.7-.4 126.5 79.4 126.5 120.2m-132.5 56 64 29.3C307.5 160.2 252 134 230.2 176.4"/></svg>