<svg height="512" width="512" xmlns="http://www.w3.org/2000/svg"><path d="m495 225.1-17.2 1C472.5 186.7 457 150.5 433.9 120.3l13-11.4c6.9-6.1 7.2-16.8.7-23.3L426.4 64.4c-6.5-6.5-17.2-6.2-23.3.7l-11.4 13C361.5 55 325.4 39.5 285.9 34.2l1-17.2C287.5 7.8 280.2 0 271 0h-30c-9.2 0-16.5 7.8-15.9 17l1 17.2C186.6 39.5 150.5 55 120.3 78.1l-11.4-13c-6.1-6.9-16.8-7.2-23.3-.7L64.4 85.6c-6.5 6.5-6.2 17.2.7 23.3l13 11.4C55 150.5 39.5 186.7 34.2 226.1l-17.2-1C7.8 224.5 0 231.8 0 241v30c0 9.2 7.8 16.5 17 15.9l17.2-1c5.3 39.5 20.8 75.6 43.9 105.8l-13 11.4c-6.9 6.1-7.2 16.8-.7 23.3l21.2 21.2c6.5 6.5 17.2 6.2 23.3-.7l11.4-13c30.2 23.1 66.4 38.6 105.9 43.9l-1.1 17.2c-.6 9.2 6.7 17 15.9 17h30c9.2 0 16.5-7.8 15.9-17l-1-17.2c39.5-5.3 75.6-20.8 105.8-43.9l11.4 13c6.1 6.9 16.8 7.2 23.3.7l21.2-21.2c6.5-6.5 6.2-17.2-.7-23.3l-13-11.4c23.1-30.2 38.6-66.4 43.9-105.8l17.2 1c9.2.6 17-6.7 17-15.9v-30c0-9.2-7.8-16.5-17-15.9M281.8 98.6c24.8 4.1 47.7 13.7 67.3 27.8l-42.7 48.3c-8.7-5.5-18.3-9.6-28.6-12zm-51.6 0 4 64.1c-10.3 2.4-19.9 6.6-28.7 12l-42.6-48.3c19.6-14.1 42.4-23.7 67.3-27.8m-103.8 64.3 48.3 42.7c-5.5 8.7-9.6 18.3-12 28.6l-64.1-4c4.1-24.8 13.7-47.7 27.8-67.3M98.6 281.8l64.1-4c2.4 10.3 6.5 19.9 12 28.7l-48.3 42.6C112.3 329.5 102.7 306.7 98.6 281.8m131.6 131.6c-24.9-4.1-47.7-13.7-67.3-27.8l42.6-48.3c8.8 5.5 18.4 9.6 28.7 12zM256 288c-17.7 0-32-14.3-32-32s14.3-32 32-32 32 14.3 32 32-14.3 32-32 32m25.8 125.4-4-64.1c10.3-2.4 19.9-6.5 28.6-12l42.7 48.3c-19.6 14.1-42.5 23.7-67.3 27.8m103.8-64.3-48.3-42.7c5.5-8.7 9.6-18.3 12-28.6l64.1 4c-4.1 24.8-13.7 47.7-27.8 67.3M349.3 234.2c-2.4-10.3-6.5-19.9-12-28.6l48.3-42.7c14.1 19.6 23.7 42.5 27.8 67.3z"/></svg>