<svg height="512" width="448" xmlns="http://www.w3.org/2000/svg"><path d="M384 32H64C28.6 32 0 60.6 0 96v320c0 35.4 28.6 64 64 64h320c35.4 0 64-28.6 64-64V96C448 60.6 419.4 32 384 32M128 384c-17.7 0-32-14.3-32-32s14.3-32 32-32 32 14.3 32 32-14.3 32-32 32m0-192c-17.7 0-32-14.3-32-32s14.3-32 32-32 32 14.3 32 32-14.3 32-32 32m96 96c-17.7 0-32-14.3-32-32s14.3-32 32-32 32 14.3 32 32-14.3 32-32 32m96 96c-17.7 0-32-14.3-32-32s14.3-32 32-32 32 14.3 32 32-14.3 32-32 32m0-192c-17.7 0-32-14.3-32-32s14.3-32 32-32 32 14.3 32 32-14.3 32-32 32"/></svg>