<svg height="512" width="640" xmlns="http://www.w3.org/2000/svg"><path d="M592 192H473.3c12.6 29.6 7.1 65.2-17 89.3L320 417.6V464c0 26.5 21.5 48 48 48h224c26.5 0 48-21.5 48-48V240c0-26.5-21.5-48-48-48M480 376c-13.2 0-24-10.7-24-24s10.8-24 24-24 24 10.7 24 24-10.7 24-24 24M433.6 189.3 258.7 14.4c-19.2-19.2-50.2-19.2-69.4 0L14.4 189.3c-19.2 19.2-19.2 50.2 0 69.4l174.9 174.9c19.2 19.2 50.2 19.2 69.4 0L433.6 258.7c19.2-19.2 19.2-50.2 0-69.4M96 248C82.8 248 72 237.3 72 224s10.8-24 24-24 24 10.7 24 24-10.7 24-24 24m128 128c-13.2 0-24-10.7-24-24s10.8-24 24-24 24 10.7 24 24-10.7 24-24 24m0-128c-13.2 0-24-10.7-24-24s10.8-24 24-24 24 10.7 24 24-10.7 24-24 24m0-128c-13.2 0-24-10.7-24-24s10.8-24 24-24 24 10.7 24 24-10.7 24-24 24m128 128c-13.2 0-24-10.7-24-24s10.8-24 24-24 24 10.7 24 24-10.7 24-24 24"/></svg>