<svg height="512" width="480" xmlns="http://www.w3.org/2000/svg"><path d="M106.8 215.1 1.2 370.9c-3.1 5 .1 11.5 5.9 12.2l208.3 22.1L106.7 215.1zM7.4 315.4 82.7 193.1l-76.6-46C3.4 145.5 0 147.4 0 150.5v162.8c0 4.1 5.3 5.6 7.4 2.1m10.9 108.2 194.4 87.7c5.3 2.4 11.3-1.5 11.3-7.3v-65.7L20.4 416c-4.4-.5-6.2 5.6-2.2 7.6zM99.5 165.8 179.4 22.9c4.3-7.1-3.6-15.3-10.8-11.2L17.8 110.3c-2.5 1.7-2.4 5.3.1 6.8zM240 176h109.2L253.6 7.6C250.5 2.5 245.3 0 240 0s-10.5 2.5-13.6 7.6L130.8 176zm233.9-28.9-76.6 46 75.3 122.3c2.1 3.5 7.4 2 7.4-2.1V150.5c0-3.1-3.4-5-6.1-3.4m-93.4 18.7 81.6-48.7c2.5-1.5 2.6-5.1.1-6.8L311.4 11.7c-7.2-4.1-15.1 4.1-10.8 11.2zm79 250.2L256 438.3V504c0 5.8 6.1 9.7 11.4 7.3l194.4-87.7c4-2 2.2-8.1-2.2-7.6zM373.2 215.1 264.6 405.2l208.3-22.1c5.8-.7 9-7.2 5.9-12.2L373.3 215.1zM240 208H139.6L240 383.8 340.4 208z"/></svg>