<svg height="512" width="640" xmlns="http://www.w3.org/2000/svg"><path d="M608 96H32C14.3 96 0 110.3 0 128v256c0 17.7 14.3 32 32 32h576c17.7 0 32-14.3 32-32V128c0-17.7-14.3-32-32-32M304 352c0 4.4-3.6 8-8 8H72c-4.4 0-8-3.6-8-8v-8c0-4.4 3.6-8 8-8h224c4.4 0 8 3.6 8 8zM72 288v-16c0-4.4 3.6-8 8-8h16c4.4 0 8 3.6 8 8v16c0 4.4-3.6 8-8 8H80c-4.4 0-8-3.6-8-8m64 0v-16c0-4.4 3.6-8 8-8h16c4.4 0 8 3.6 8 8v16c0 4.4-3.6 8-8 8h-16c-4.4 0-8-3.6-8-8m64 0v-16c0-4.4 3.6-8 8-8h16c4.4 0 8 3.6 8 8v16c0 4.4-3.6 8-8 8h-16c-4.4 0-8-3.6-8-8m64 0v-16c0-4.4 3.6-8 8-8h16c4.4 0 8 3.6 8 8v16c0 4.4-3.6 8-8 8h-16c-4.4 0-8-3.6-8-8m40-64c0 8.8-7.2 16-16 16H80c-8.8 0-16-7.2-16-16v-48c0-8.8 7.2-16 16-16h208c8.8 0 16 7.2 16 16zm272 128c0 4.4-3.6 8-8 8H344c-4.4 0-8-3.6-8-8v-8c0-4.4 3.6-8 8-8h224c4.4 0 8 3.6 8 8z"/></svg>