<svg height="512" width="512" xmlns="http://www.w3.org/2000/svg"><path d="m472.3 195.9-67.1-23C386 166.3 371.7 152 367.1 134.6l-16-60.5C339.5 30.4 274.5 17 241.1 51.5L195 99.2c-13.3 13.7-33.5 21-54.2 19.3l-71.9-5.6c-52-4-86.9 44.9-59 82.9l38.5 52.4c11.1 15.1 12.9 33.9 4.7 50.2l-28.4 57C4 396.7 47.5 440.3 98.1 429.2l70-15.2c20.1-4.4 41.5 0 57.1 11.7l54.3 40.8c39.3 29.6 101 7.6 104.4-37.2l4.7-61.9c1.4-17.8 12.8-33.8 30.7-43l62-31.7c44.8-23 39.5-80.2-9-96.8M160 256a32 32 0 1 1 32-32 32 32 0 0 1-32 32m128 96a32 32 0 1 1 32-32 32 32 0 0 1-32 32m16-128a16 16 0 1 1 16-16 16 16 0 0 1-16 16"/></svg>