<svg height="1000" width="968.8" xmlns="http://www.w3.org/2000/svg"><path d="M484.4 15.6C752 15.6 968.8 232.4 968.8 500S752 984.4 484.4 984.4 0 767.6 0 500 216.8 15.6 484.4 15.6zm0 875C699.8 890.6 875 715.4 875 500S699.8 109.4 484.4 109.4 93.8 284.6 93.8 500s175.1 390.6 390.6 390.6zM418.4 465c-15.5 15.5 -40.1 15.5 -55.5 .4l-34.8 -34.7 -34.7 34.7c-15.3 15.3 -40.1 15.3 -55.3 0 -15.2 -15.2 -15.2 -40 0 -55.2l34.9 -35 -34.9 -35c-15.2 -15.2 -15.2 -40 0 -55.2 15.2 -15.3 40 -15.3 55.3 0l34.7 34.7 35 -34.9c15.2 -15.3 40 -15.3 55.3 0s15.2 40 0 55.2l-35 35 35 34.8c15.2 15.2 15.2 40 0 55.2zM730.9 285c15 15.2 15 39.8 0 55l-35 35 34.8 35.2c15.2 15.2 15.2 40 0 55.2 -15.3 15.3 -40.1 15.3 -55.3 0l-34.8 -34.7 -34.7 34.7c-15.3 15.3 -40.1 15.3 -55.3 0 -15.2 -15.2 -15.2 -40 0 -55.2l34.9 -35 -34.9 -35c-15.2 -15.2 -15.2 -40 0 -55.2 15.2 -15.3 40 -15.3 55.3 0l34.7 34.7 35 -34.7c15.2 -15.3 40 -15.3 55.3 0zM484.4 531.3c68.9 0 125 56 125 125s-56.1 125 -125 125 -125 -56.1 -125 -125 56 -125 125 -125z"/></svg>