<svg height="512" width="496" xmlns="http://www.w3.org/2000/svg"><path d="M248 8C111 8 0 119 0 256s111 248 248 248S496 393 496 256 385 8 248 8m0 448C137.7 456 48 366.3 48 256S137.7 56 248 56s200 89.7 200 200S358.3 456 248 456M214.2 238.1c7.8-7.8 7.8-20.5 0-28.3L196.3 192l17.9-17.9c7.8-7.8 7.8-20.5 0-28.3s-20.5-7.8-28.3 0L168 163.7l-17.8-17.8c-7.8-7.8-20.5-7.8-28.3 0s-7.8 20.5 0 28.3l17.9 17.9L121.9 210c-7.8 7.8-7.8 20.5 0 28.3s20.5 7.8 28.3 0L168 220.5l17.8 17.8c7.9 7.7 20.5 7.7 28.4-.2m160-92.2c-7.8-7.8-20.5-7.8-28.3 0L328 163.7l-17.8-17.8c-7.8-7.8-20.5-7.8-28.3 0s-7.8 20.5 0 28.3l17.9 17.9L281.9 210c-7.8 7.8-7.8 20.5 0 28.3s20.5 7.8 28.3 0L328 220.5l17.8 17.8c7.8 7.8 20.5 7.8 28.3 0s7.8-20.5 0-28.3l-17.8-18 17.9-17.9c7.7-7.8 7.7-20.4 0-28.2M248 272c-35.3 0-64 28.7-64 64s28.7 64 64 64 64-28.7 64-64-28.7-64-64-64"/></svg>