<svg height="1000" width="968.8" xmlns="http://www.w3.org/2000/svg"><path d="M484.4 15.6C216.8 15.6 0 232.4 0 500s216.8 484.4 484.4 484.4S968.8 767.6 968.8 500 752 15.6 484.4 15.6zm0 875C268.9 890.6 93.8 715.4 93.8 500S268.9 109.4 484.4 109.4 875 284.6 875 500 699.8 890.6 484.4 890.6zM418.4 465c15.2 -15.2 15.2 -40 0 -55.2l-35 -34.8 35 -35c15.2 -15.2 15.2 -40 0 -55.2 -15.3 -15.3 -40.1 -15.3 -55.3 0l-35 34.9L293.4 285c-15.3 -15.3 -40.1 -15.3 -55.3 0 -15.2 15.2 -15.2 40 0 55.2l34.9 35 -34.9 35c-15.2 15.2 -15.2 40 0 55.2 15.2 15.3 40 15.3 55.3 0l34.7 -34.7 34.8 34.7c15.4 15.1 40 15.1 55.5 -.4zM730.9 285c-15.3 -15.3 -40.1 -15.3 -55.3 0l-35 34.7L605.9 285c-15.3 -15.3 -40.1 -15.3 -55.3 0 -15.2 15.2 -15.2 40 0 55.2l34.9 35 -34.9 35c-15.2 15.2 -15.2 40 0 55.2 15.2 15.3 40 15.3 55.3 0l34.7 -34.7 34.8 34.7c15.2 15.3 40 15.3 55.3 0 15.2 -15.2 15.2 -40 0 -55.2L695.9 375l35 -35c15 -15.2 15 -39.8 0 -55zM484.4 531.3c-69 0 -125 56 -125 125s56 125 125 125 125 -56.1 125 -125 -56.1 -125 -125 -125z"/></svg>