<svg height="1000" width="875" xmlns="http://www.w3.org/2000/svg"><path d="M847.5 128.8L746.2 27.5A93.8 -93.8 0 0 1 679.9 0H343.8C292 0 250 42 250 93.8v93.7H93.8C42 187.5 0 229.5 0 281.3v625C0 958 42 1000 93.8 1000h437.5c51.7 0 93.7 -42 93.7 -93.7v-93.8h156.3c51.7 0 93.7 -42 93.7 -93.7V195.1a93.8 -93.8 0 0 1 -27.5 -66.3zm-328 777.5h-414A11.7 -11.7 0 0 0 93.8 894.5V293a11.7 -11.7 0 0 0 11.7 -11.7H250v437.5c0 51.7 42 93.7 93.8 93.7h187.5v82a11.7 -11.7 0 0 0 -11.8 11.8zm250 -187.5h-414A11.7 -11.7 0 0 0 343.8 707V105.5a11.7 -11.7 0 0 0 11.7 -11.7h207v171.8c0 25.9 21 46.9 46.9 46.9h171.9V707a11.7 -11.7 0 0 0 -11.8 11.8zm11.8 -500h-125v-125h18.8c3.1 0 6.1 1.2 8.2 3.4l94.5 94.5a11.7 -11.7 0 0 0 3.5 8.2v18.9z"/></svg>