<svg height="512" width="512" xmlns="http://www.w3.org/2000/svg"><path d="M288 167.2v-28.1C259.8 102.8 240.9 59.8 233.9 13.9 231.8.4 214.9-4.9 206.1 5.6 185 30.5 168.4 59.7 157.2 92.1c34.2 38.3 80 64.6 130.8 75.1M400 64c-44.2 0-80 35.9-80 80.1v59.4C215.6 197.3 127 133 87 41.8 81.5 29.3 63.8 28.6 58 40.9 41.4 76 32 115.2 32 156.6c0 70.8 34.1 136.9 85.1 185.9 13.2 12.7 26.1 23.2 38.9 32.8l-143.9 36C1.4 414-3.4 426.4 2.6 435.7 20 462.6 63 508.2 155.8 512c8 .3 16-2.6 22.1-7.9L243.1 448H320c88.4 0 160-71.5 160-159.9V128l32-64zm0 96.1c-8.8 0-16-7.2-16-16s7.2-16 16-16 16 7.2 16 16-7.2 16-16 16"/></svg>