<svg height="1000" width="875" xmlns="http://www.w3.org/2000/svg"><path d="M368.8 1000c89 0 162.5 -73.8 162.5 -162.5v-69.6a181.9 -181.9 0 0 1 43 -15.5c43 4.9 87.9 -6.9 122.7 -31.2C799.5 718.9 875 648.1 875 526v-41.6C875 367.1 796.9 292 796.9 235.9v-5.2c9.6 -11.2 15.6 -26.4 15.6 -43.2v-125C812.5 28 787.3 0 756.3 0h-450C275.2 0 250 28 250 62.5v125c0 16.8 6 32 15.6 43.2v5.2c0 13.6 -12.1 29.1 -46.2 59l-.3 .2 -.3 .3c-19.4 17.3 -40.7 35.4 -64.9 50.5C94.8 382.4 0 405.2 0 493.8c0 111.1 68.9 179.6 162.5 179.6 15.7 0 30.3 -1.6 43.8 -4.2v168.3c0 88.1 74.4 162.5 162.5 162.5zm0 -93.7c-36.6 0 -68.8 -32.8 -68.8 -68.8V528.1c-33.8 0 -68.7 51.6 -137.5 51.6 -51.6 0 -68.7 -40.3 -68.7 -86 0 -17.1 63.8 -39.9 109.5 -68.2 28.5 -17.7 53.2 -38.1 77.9 -60.1 35.9 -31.5 71.6 -66.1 77.3 -115.4h345.3c7.3 83.6 77.5 145.5 77.5 234.4V526c0 79.1 -43.4 111.5 -119.8 98.8C645.8 653.3 595.1 672 556.7 650c-35.6 37.9 -90.5 34.8 -119.2 9.7v177.8c0 37.1 -31.7 68.8 -68.7 68.8zM640.6 125c0 -25.9 21 -46.9 46.9 -46.9s46.9 21 46.9 46.9 -21 46.9 -46.9 46.9 -46.9 -21 -46.9 -46.9z"/></svg>