<svg height="512" width="512" xmlns="http://www.w3.org/2000/svg"><path d="M216 0h80c13.3 0 24 10.7 24 24v168h87.7c17.8 0 26.7 21.5 14.1 34.1L269.7 378.3c-7.5 7.5-19.8 7.5-27.3 0L90.1 226.1C77.5 213.5 86.4 192 104.2 192H192V24C192 10.7 202.7 0 216 0m296 376v112c0 13.3-10.7 24-24 24H24C10.7 512 0 501.3 0 488V376c0-13.3 10.7-24 24-24h146.7l49 49c20.1 20.1 52.5 20.1 72.6 0l49-49H488c13.3 0 24 10.7 24 24m-124 88c0-11-9-20-20-20s-20 9-20 20 9 20 20 20 20-9 20-20m64 0c0-11-9-20-20-20s-20 9-20 20 9 20 20 20 20-9 20-20"/></svg>