<svg height="512" width="480" xmlns="http://www.w3.org/2000/svg"><path d="M480 398.1 336 315.9v64.7h-91.3c30.8-35 81.8-95.9 111.8-149.3C391.7 168.7 372.6 107.9 343.7 78c-4.4-4.6-62.2-62.9-166-41.2C118.6 49.2 88.3 80.2 73.4 104.1c-13.1 20.9-17 39.8-18.2 47.7-5.5 33 19.4 67.1 56.7 67.1 31.7 0 57.3-25.7 57.3-57.4 0-27.1-19.7-52.1-48-56.8C123 97.4 138.9 83.6 147.5 80c41.1-17.3 78 5.2 83.3 33.5 8.3 44.3-37.1 90.4-69.7 127.6C84.5 328.1 18.3 396.8 0 415.9l336-.1V480zM369.9 371l47.1 27.2-47.1 27.2zM134.2 161.4c0 12.4-10 22.4-22.4 22.4s-22.4-10-22.4-22.4S99.4 139 111.8 139s22.4 10.1 22.4 22.4M82.5 380.5c25.6-27.4 97.7-104.7 150.8-169.9 35.1-43.1 40.3-82.4 28.4-112.7C254.3 79.1 244.2 67.7 237.4 62.2c45.3 2.1 68 23.4 82.2 38.3 0 0 42.4 48.2 5.8 113.3-37 65.9-110.9 147.5-128.5 166.7z"/></svg>