<svg height="512" width="512" xmlns="http://www.w3.org/2000/svg"><path d="M457 344.4c-25 20.4-52.6 37.2-82.5 49.1l54.3 94.2 54 23c9.8 4.2 20.9-2.2 22.2-12.8l7-58.2zm42.5-94.5c4.9-7.7 1.9-18-6.1-22.4l-28-15.6c-7.5-4.1-16.6-1.5-21.3 5.7C403 281.1 332.3 320 256 320c-23.9 0-47.2-4.2-69.4-11.5l67.3-116.7c.7 0 1.4.2 2.1.2s1.3-.2 2-.2l51.1 88.5c31.3-9 59.6-25.8 82.6-48.9l-51.8-89.7C347.4 128 352 112.6 352 96 352 43 309 0 256 0s-96 43-96 96c0 16.6 4.6 32 12.1 45.7L103.8 260C91.2 248.4 79.8 235.4 70.1 221c-4.8-7.1-14-9.6-21.4-5.4l-27.8 16.1c-7.8 4.6-10.6 14.9-5.6 22.5 15.6 23.6 34.7 44.2 56 62L0 439.7l7 58.2c1.3 10.6 12.4 17 22.2 12.8l53.9-23L153.9 365c32.2 12.3 66.7 19 102.1 19 99.1 0 190.9-51 243.5-134.1M256 64c17.7 0 32 14.3 32 32s-14.3 32-32 32S224 113.7 224 96s14.3-32 32-32"/></svg>