<svg height="512" width="640" xmlns="http://www.w3.org/2000/svg"><path d="M18.3 255.8 192 224l-91.3 68.6C90.6 302.7 97.8 320 112 320h222.7C325.3 293.6 320 265.5 320 236.6v-42.3L200.3 106.7a64.01 64.01 0 0 0-77.1 4.6L5.8 227.6C-6.6 238 2.4 258.1 18.3 255.8m556.9 34.1L474.5 239.6A48 48 0 0 1 448 196.7V160h64l28.1 22.6c6 6 14.1 9.4 22.6 9.4h31a32 32 0 0 0 28.6-17.7l14.3-28.6a32 32 0 0 0-3-33.6L559.1 12.8C553 4.7 543.5 0 533.5 0H296c-7.1 0-10.7 8.6-5.6 13.6L352 64l-59.6 24.8c-5.9 3-5.9 11.4 0 14.3L352 128v108.6c0 72.1 36 139.4 96 179.4-195.6 6.8-344.6 41-434.1 60.9C5.8 478.7 0 485.9 0 494.2 0 504 8 512 17.8 512h499c63.3 0 119.7-47.6 123-110.8C642.4 354 617.1 310.8 575.2 289.9m-86-223.6 45.6 11.4c-2.7 10.9-12.4 18.8-24.1 18.2-13-.7-25.8-12.5-21.5-29.6"/></svg>