<svg height="512" width="448" xmlns="http://www.w3.org/2000/svg"><path d="M384 352c-.4 0-.7.1-1 .1l-39.2-65.3c5.1-9.2 8.2-19.6 8.2-30.8s-3.1-21.6-8.2-30.8L383 159.9c.3 0 .7.1 1 .1 35.4 0 64-28.7 64-64S419.4 32 384 32c-23.6 0-44 13-55.1 32H119.1C108 45 87.6 32 64 32 28.6 32 0 60.6 0 96c0 23.6 12.9 44 32 55.1v209.8C12.9 372 0 392.4 0 416c0 35.4 28.6 64 64 64 23.6 0 44-12.9 55.1-32h209.8c11.1 19.1 31.5 32 55.1 32 35.3 0 64-28.6 64-64s-28.6-64-64-64m-288 8.9V151.1A63.8 63.8 0 0 0 119.1 128h208.4L289 192.1c-.3 0-.6-.1-1-.1-35.3 0-64 28.7-64 64s28.7 64 64 64c.4 0 .7-.1 1-.1l38.5 64.1H119.1A63.7 63.7 0 0 0 96 360.9M272 256c0-8.8 7.2-16 16-16s16 7.2 16 16-7.2 16-16 16-16-7.2-16-16M400 96c0 8.8-7.2 16-16 16s-16-7.2-16-16 7.2-16 16-16 16 7.2 16 16M64 80c8.8 0 16 7.2 16 16s-7.2 16-16 16S48 104.8 48 96 55.2 80 64 80M48 416c0-8.8 7.2-16 16-16s16 7.2 16 16-7.2 16-16 16S48 424.8 48 416m336 16c-8.8 0-16-7.2-16-16s7.2-16 16-16 16 7.2 16 16-7.2 16-16 16"/></svg>