<svg height="512" width="512" xmlns="http://www.w3.org/2000/svg"><path d="M256 8C119.3 8 8 119.3 8 256s111.3 248 248 248S504 392.7 504 256 392.7 8 256 8m164 114.4c29.5 36 47.3 81.9 47.8 131.9-7-1.5-77-15.7-147.5-6.8-5.7-14-11.2-26.4-18.6-41.6C380 173.9 415.5 128.4 420 122.4M396.4 97.9c-3.8 5.4-35.7 48.3-111 76.5-34.7-63.8-73.2-116.2-79-124 67.1-16.2 137.9 1.3 190 47.5M165.9 64.6c5.6 7.7 43.5 60.1 78.6 122.5-99.1 26.3-186.4 26-195.9 25.8C62.4 147.2 106.7 92.6 165.9 64.6M44.2 256.3c0-2.1 0-4.3.1-6.5 9.2.2 111.9 1.6 217.7-30.1 6 11.9 11.8 23.9 17.2 36C202.6 277.2 133 339.2 98.6 398 64.8 360.4 44.2 310.7 44.2 256.3M126 423.4c22.1-45.2 82.2-103.6 167.6-132.7 29.7 77.3 42 142 45.1 160.6-68.1 29-150 21.1-212.7-27.9m248.4 8.5C372.2 419 360.9 357 333.2 280.9c66.4-10.6 124.7 6.8 132 9-9.5 59-43.3 109.9-90.8 142"/></svg>