<svg height="512" width="576" xmlns="http://www.w3.org/2000/svg"><path d="M288 32C128.9 32 0 89.3 0 160v192c0 70.7 128.9 128 288 128S576 422.7 576 352V160C576 89.3 447.1 32 288 32m-83 158.4c-4.4 16.6-14.5 30.5-28.3 40.4C100.2 217.5 48 190.8 48 160c0-30.2 50.1-56.4 124-70l25.6 44.3c9.9 17.1 12.5 37 7.4 56.1m83 49.6c-21.1 0-41.4-1-60.9-2.7C235.2 211.2 259.3 192 288 192s52.8 19.2 60.9 45.3C329.4 239 309.1 240 288 240M352 96c0 35.3-28.7 64-64 64S224 131.3 224 96V83c20.4-1.9 41.8-3 64-3s43.6 1.1 64 3zm46.9 134.9C385.1 221 375 207 370.5 190.4c-5.1-19.1-2.5-39 7.4-56.1l25.7-44.4C477.7 103.5 528 129.8 528 160c0 30.8-52.4 57.5-129.1 70.9"/></svg>