<svg height="512" width="512" xmlns="http://www.w3.org/2000/svg"><path d="m431.3 122 73.6-47.4a16 16 0 0 0 4.4-22.2l-8.9-13.3a16 16 0 0 0-22.1-4.4l-110.1 71C318.4 96.9 271.2 96 256 96 219.6 96 0 100.5 0 208.2v160.2c0 30.2 27.5 57.7 72 77.8V344.3a24 24 0 1 1 48 0v119c33.1 9.1 71.1 15 112 16.7V376.4a24 24 0 1 1 48 0V480c40.9-1.7 78.9-7.6 112-16.7v-119a24 24 0 1 1 48 0v101.9c44.5-20.1 72-47.6 72-77.8V208.2c0-43.4-35.8-69.8-80.7-86.1zM256 272.2c-114.9 0-208-28.6-208-64s93.1-64.1 208-64.1c17.1 0 33.7.7 49.7 1.9l-72.8 47a16 16 0 0 0-4.5 22.2l8.9 13.3a16 16 0 0 0 22.2 4.4l118.6-76.5c52 11.6 85.9 30.4 85.9 51.8 0 35.4-93.1 64-208 64"/></svg>