<svg height="512" width="448" xmlns="http://www.w3.org/2000/svg"><path d="M319.5 114.7C297.3 100.7 276 95.2 254.8 81.2c-13-8.8-31.3-30-46.5-48.3-2.7 29.3-11.5 41.2-22 49.5-21.3 17-34.8 22.2-53.5 32.3C117 123 32 181.5 32 290.5 32 399.7 123.8 480 225.8 480 327.5 480 416 406 416 294 416 181.7 333 123 319.5 114.7m2.5 325.6c-20.1 20.1-90.1 28.7-116.7 4.2-4.8-4.8.3-12 6.5-12 0 0 17 13.3 51.5 13.3 27 0 46-7.7 54.5-14 6.1-4.6 8.4 4.3 4.2 8.5m-54.5-52.6c8.7-3.6 29-3.8 36.8 1.3 4.1 2.8 16.1 18.8 6.2 23.7C302.1 416.9 309.3 397 284 397c-14.7 0-19.5 5.2-26.7 11-7 6-9.8 8-12.2 4.7-6-8.2 15.9-22.3 22.4-25M360 405c-15.2-1-45.5-48.8-65-49.5-30.9-.9-104.1 80.7-161.3 42C94.9 370.9 119.1 292.7 185.5 292.3c49.5-.5 83.8 49 108.5 48.5 21.3-.3 61.8-41.8 81.8-41.8 48.7 0 23.3 109.3-15.8 106"/></svg>