<svg height="512" width="512" xmlns="http://www.w3.org/2000/svg"><path d="M128.7 195.3 45.9 143.6c-8-5.1-19-2.2-22.9 6.4A254.2 254.2 0 0 0 .5 239.3c-.6 9.1 7.1 16.7 16.2 16.7h97.1c8 0 14.1-6.2 15-14.2 1.1-9.3 3.3-18.3 6.3-26.9 2.5-7.3.2-15.5-6.4-19.6M319 8C298.9 2.8 277.8 0 256 0s-42.9 2.8-63 8c-9.2 2.3-13.9 12.6-10.4 21.4l37.4 104a16 16 0 0 0 15.1 10.6h41.8c6.7 0 12.8-4.2 15-10.6l37.5-104C332.9 20.6 328.2 10.4 319 8M112 288H16c-8.8 0-16 7.2-16 16v64c0 8.8 7.2 16 16 16h96c8.8 0 16-7.2 16-16v-64c0-8.8-7.2-16-16-16m0 128H16c-8.8 0-16 7.2-16 16v64c0 8.8 7.2 16 16 16h96c8.8 0 16-7.2 16-16v-64c0-8.8-7.2-16-16-16m77.3-283.7L153 41.5c-3.5-8.8-14.1-13-22.4-8.3A257.3 257.3 0 0 0 59 93.1c-6.1 7.3-3.9 18.5 4.2 23.5l82.9 51.9c6.5 4 14.7 2.6 20.1-2.8q7.8-7.8 16.8-14.1c6.3-4.4 9.2-12.2 6.3-19.3M398.2 256h97.1c9.1 0 16.7-7.6 16.2-16.7A254.1 254.1 0 0 0 489 150c-3.9-8.6-14.9-11.5-22.9-6.4l-82.8 51.7c-6.6 4.1-8.9 12.3-6.4 19.6 3 8.6 5.2 17.6 6.3 26.9.9 7.9 7 14.2 15 14.2M453 93.1A257.3 257.3 0 0 0 381.4 33.2c-8.3-4.7-18.9-.5-22.4 8.3l-36.3 90.8c-2.9 7.2 0 14.9 6.3 19.3q9 6.3 16.8 14.1c5.4 5.4 13.6 6.8 20.1 2.8l82.9-51.9c8.1-5 10.3-16.2 4.2-23.5M496 288h-96c-8.8 0-16 7.2-16 16v64c0 8.8 7.2 16 16 16h96c8.8 0 16-7.2 16-16v-64c0-8.8-7.2-16-16-16m0 128h-96c-8.8 0-16 7.2-16 16v64c0 8.8 7.2 16 16 16h96c8.8 0 16-7.2 16-16v-64c0-8.8-7.2-16-16-16M240 177.6V472c0 4.4 3.6 8 8 8h16c4.4 0 8-3.6 8-8V177.6c-5.2-.9-10.5-1.6-16-1.6s-10.8.7-16 1.6m-64 41.5V472c0 4.4 3.6 8 8 8h16c4.4 0 8-3.6 8-8V189.4c-12.8 7.4-23.8 17.4-32 29.7m128-29.7V472c0 4.4 3.6 8 8 8h16c4.4 0 8-3.6 8-8V219.1c-8.2-12.3-19.2-22.3-32-29.7"/></svg>