<svg height="512" width="512" xmlns="http://www.w3.org/2000/svg"><path d="M481.9 134.5C440.9 54.2 352.3 8 255.9 8 137.1 8 37.5 91.7 13.5 203.7c26-46.5 86.2-79.2 149.4-79.2 79.3 0 121.1 48.9 122.3 50.2 22 23.8 33 50.4 33 83.1 0 10.4-5.3 25.8-15.1 38.6-1.6 2-6.4 4.8-6.4 11 0 5 3.3 9.9 9.1 14 27.9 19.3 80.4 16.8 80.5 16.8A115.4 115.4 0 0 0 444.9 322a118.9 118.9 0 0 0 59-102.4c.5-43.5-15.5-72.3-22-85.1M212.8 475.7a154.9 154.9 0 0 1-46.7-45C133.2 383.3 131.9 335.1 146 294.7a155.5 155.5 0 0 1 57-78.9c59-45.2 94.8-5.7 99.1-1a80 80 0 0 0-4.9-10.2c-9.3-15.9-24-36.4-56.6-53.5C206.9 133.4 170 132.5 163 132.5c-38.7 0-77.9 13-107.6 35.7C35.7 183.3 12.8 208.7 8.6 243c-1.1 12.3-2.8 62.8 23 118.3a248 248 0 0 0 248.3 141.6c-38.1-6.6-65.8-26.7-67.1-27.2m250.7-98.4a7.8 7.8 0 0 0-7.9-.2 182 182 0 0 1-20.4 9.1 197.5 197.5 0 0 1-69.6 12.6c-91.7 0-171.5-63.1-171.5-144a61.1 61.1 0 0 1 6.5-26.8 168.7 168.7 0 0 0-38.8 50c-14.9 29.4-33 88.1 13.4 151.7 6.5 8.9 23 30 56 47.6 23.6 12.7 49 19.6 71.7 19.6 35.1 0 115.4-33.4 163-108.8a7.8 7.8 0 0 0-2.4-10.8"/></svg>