<svg height="1000" width="1125" xmlns="http://www.w3.org/2000/svg"><path d="M785.7 673.6l62.5 -62.5c9.8 -9.7 26.8 -2.9 26.8 11.2v284c0 51.7 -42 93.7 -93.7 93.7H93.8C42 1000 0 958 0 906.3V218.8C0 167 42 125 93.8 125h534.1c13.9 0 20.9 16.8 11.2 26.8l-62.5 62.5c-3 2.9 -6.9 4.5 -11.2 4.5H93.8v687.5h687.5V684.6c0 -4.1 1.5 -8 4.4 -11zm305.9 -394.1L578.7 792.4l-176.6 19.5c-51.1 5.7 -94.7 -37.5 -89 -89l19.5 -176.6L845.5 33.4c44.7 -44.7 117 -44.7 161.5 0l84.4 84.4c44.7 44.7 44.7 117.2 .2 161.7zm-193 60.3L785.2 226.4 422.3 589.5 408 717l127.5 -14.3L898.6 339.8zm126.6 -155.6L940.8 99.8c-8 -8 -21.1 -8 -28.9 0l-60.3 60.4L965 273.6l60.4 -60.3c7.8 -8.2 7.8 -21.1 -.2 -29.1z"/></svg>