<svg height="512" width="576" xmlns="http://www.w3.org/2000/svg"><path d="m402.3 344.9 32-32c5-5 13.7-1.5 13.7 5.7V464c0 26.5-21.5 48-48 48H48C21.5 512 0 490.5 0 464V112C0 85.5 21.5 64 48 64h273.5c7.1 0 10.7 8.6 5.7 13.7l-32 32c-1.5 1.5-3.5 2.3-5.7 2.3H48v352h352V350.5c0-2.1.8-4.1 2.3-5.6M558.9 143.1 296.3 405.7l-90.4 10c-26.2 2.9-48.5-19.2-45.6-45.6l10-90.4L432.9 17.1c22.9-22.9 59.9-22.9 82.7 0l43.2 43.2c22.9 22.9 22.9 60 .1 82.8M460.1 174 402 115.9 216.2 301.8l-7.3 65.3 65.3-7.3zm64.8-79.7L481.7 51.1c-4.1-4.1-10.8-4.1-14.8 0L436 82l58.1 58.1L525 109.2c4-4.2 4-10.8-.1-14.9"/></svg>