<svg height="512" width="496" xmlns="http://www.w3.org/2000/svg"><path d="M287.6 54.2C276.8 52 265.5 50.9 254.1 50.6V32.4c78.1 2.2 146.1 44 184.6 106.6l-15.8 9.1c-6.1-9.7-12.7-18.8-20.2-27.1l-18 15.5C358.7 106.9 323.3 85.8 282.8 78.1zM53.4 322.4l23-7.7C70 296.4 66.4 276.5 66.4 256s3.3-40.4 9.7-58.7l-22.7-7.7c3.6-10.8 8.3-21.3 13.6-31l-15.8-9.1C34 181 24.1 217.5 24.1 256s10 75 27.1 106.6L67 353.5c-5.3-10-9.7-20.3-13.6-31.1M213.1 434c-40.4-8-75.8-29.1-101.9-58.7l-18 15.8C85.7 382.5 78.8 373.4 73 363.7l-16 9.4c38.5 62.3 106.8 104.3 184.9 106.6v-18.3c-11.3-.3-22.7-1.7-33.5-3.6zM93.3 120.9l18 15.5c26-29.6 61.4-50.7 101.9-58.4l-4.7-23.8C219.3 52 230.6 50.9 242 50.6V32.4C163.9 34.6 95.9 76.4 57.4 139l15.8 9.1c6-9.7 12.6-18.9 20.1-27.2m309.4 270.2-18-15.8c-26 29.6-61.4 50.7-101.9 58.7l4.7 23.8c-10.8 1.9-22.1 3.3-33.5 3.6v18.3c78.1-2.2 146.4-44.3 184.9-106.6l-16.1-9.4c-5.7 9.7-12.6 18.8-20.1 27.4M496 256c0 137-111 248-248 248S0 393 0 256 111 8 248 8s248 111 248 248m-12.2 0C483.8 125.9 378.1 20.2 248 20.2S12.2 125.9 12.2 256 117.9 491.8 248 491.8 483.8 386.1 483.8 256m-39-106.6-15.8 9.1c5.3 9.7 10 20.2 13.6 31l-22.7 7.7c6.4 18.3 9.7 38.2 9.7 58.7s-3.6 40.4-10 58.7l23 7.7c-3.9 10.8-8.3 21-13.6 31l15.8 9.1C462 331 471.9 294.5 471.9 256S462 181 444.8 149.4m-183 177.7c16.3-3.3 30.4-11.6 40.7-23.5l51.2 44.8c11.9-13.6 21.3-29.3 27.1-46.8l-64.2-22.1c2.5-7.5 3.9-15.2 3.9-23.5s-1.4-16.1-3.9-23.5l64.5-22.1C375 193 365.6 177.2 353.7 163.6l-51.2 44.8c-10.2-11.9-24.4-20.5-40.7-23.8l13.3-66.4c-8.6-1.9-17.7-2.8-27.1-2.8s-18.5.8-27.1 2.8l13.3 66.4c-16.3 3.3-30.4 11.9-40.7 23.8l-51.2-44.8c-11.9 13.6-21.3 29.3-27.4 46.8l64.5 22.1c-2.5 7.5-3.9 15.2-3.9 23.5s1.4 16.1 3.9 23.5l-64.2 22.1c5.8 17.4 15.2 33.2 27.1 46.8l51.2-44.8c10.2 11.9 24.4 20.2 40.7 23.5l-13.3 66.7c8.6 1.7 17.7 2.8 27.1 2.8s18.5-1.1 27.1-2.8z"/></svg>