<svg height="512" width="512" xmlns="http://www.w3.org/2000/svg"><path d="M494.6 164.5C489.9 160.6 382.9 74.6 359.3 55.9 337.2 38.2 299.4 0 256 0 212.8 0 175.4 37.7 152.7 55.9 128.2 75.3 21.6 161.1 17.5 164.4A48 48 0 0 0 0 201.5V464c0 26.5 21.5 48 48 48h416c26.5 0 48-21.5 48-48V201.5a48 48 0 0 0-17.4-37M464 458a6 6 0 0 1-6 6H54a6 6 0 0 1-6-6V204.3c0-1.8.8-3.5 2.2-4.6C66.1 186.9 159 112.1 182.6 93.4 200.8 78.9 232.4 48 256 48c23.7 0 55.9 31.4 73.4 45.4 23.6 18.7 116.5 93.5 132.4 106.3a6 6 0 0 1 2.2 4.7zM432 270.3c4.3 5.2 3.5 12.8-1.7 17-29 23.3-59.3 47.6-71 56.8C336.6 362.3 299.2 400 256 400c-43.5 0-81.3-38.2-103.3-55.9-11.3-8.9-41.8-33.4-71-56.8-5.2-4.2-6-11.8-1.7-17l15.3-18.5c4.1-5.1 11.6-5.9 16.7-1.8 28.6 23 58.6 47.1 70.6 56.6 17.5 14 49.7 45.4 73.4 45.4 23.6 0 55.2-30.9 73.4-45.4 12-9.5 42-33.6 70.6-56.6 5.1-4.1 12.6-3.3 16.8 1.8z"/></svg>