<svg height="1000" width="1000" xmlns="http://www.w3.org/2000/svg"><path d="M966 321.3C956.8 313.7 747.8 145.6 701.8 109.1 658.7 74.6 584.8 0 500 0 415.6 0 342.5 73.7 298.2 109.1c-47.8 38 -256 205.5 -264 212A93.8 -93.8 0 0 1 0 393.5v512.8C0 958 42 1000 93.8 1000h812.5c51.7 0 93.7 -42 93.7 -93.7V393.6a93.8 -93.8 0 0 1 -34 -72.3zm-59.7 573.2a11.7 -11.7 0 0 0 -11.8 11.8h-789A11.7 -11.7 0 0 0 93.8 894.5V399.1c0 -3.5 1.5 -6.9 4.3 -9.1 31 -25 212.5 -171 258.5 -207.6C392.1 154.1 453.9 93.8 500 93.8c46.3 0 109.1 61.2 143.4 88.6C689.4 219 870.9 365 901.9 390a11.7 -11.7 0 0 0 4.3 9.2v495.3zM843.8 527.9c8.3 10.1 6.7 25 -3.4 33.2 -56.6 45.5 -115.8 93 -138.6 111C657.5 707.6 584.4 781.3 500 781.3c-84.9 0 -158.8 -74.7 -201.8 -109.2 -22.1 -17.5 -81.6 -65.2 -138.6 -111 -10.1 -8.2 -11.7 -23.1 -3.4 -33.2L186 491.7c8.2 -9.9 22.8 -11.4 32.8 -3.3 55.9 44.9 114.4 91.8 137.8 110.4 34.3 27.4 97.1 88.7 143.4 88.7 46.1 0 107.9 -60.3 143.4 -88.7 23.4 -18.6 81.9 -65.5 137.8 -110.4 10 -8.1 24.6 -6.6 32.8 3.3l29.8 36.2z"/></svg>