<svg height="512" width="512" xmlns="http://www.w3.org/2000/svg"><path d="M512 464c0 26.5-21.5 48-48 48H48C21.5 512 0 490.5 0 464V200.7a48 48 0 0 1 18.4-37.8C43.3 143.4 63.9 127.6 182.6 41.4 199.4 29.2 232.8-.3 256 0c23.2-.4 56.6 29.2 73.4 41.4 118.7 86.2 139.3 102 164.2 121.5a48 48 0 0 1 18.4 37.8zM446.3 267.4c-2.5-3.7-7.7-4.6-11.3-1.9-22.9 16.9-55.5 40.7-105.6 77.1C312.6 354.8 279.2 384.3 256 384c-23.2.3-56.6-29.1-73.4-41.4C132.5 306.2 99.9 282.4 77 265.5c-3.6-2.7-8.8-1.8-11.3 1.9l-9.1 13.2a8 8 0 0 0 1.8 11c22.9 16.9 55.5 40.6 105.3 76.8 20.3 14.8 56.6 47.8 92.3 47.6 35.7.2 72-32.8 92.3-47.6 49.8-36.2 82.4-59.9 105.3-76.8a8 8 0 0 0 1.8-11z"/></svg>