<svg height="1000" width="1000" xmlns="http://www.w3.org/2000/svg"><path d="M966 321.3c20.8 17.2 34 43.2 34 72.3v512.7c0 51.7 -42 93.7 -93.7 93.7H93.8C42 1000 0 958 0 906.3V393.5c0 -29.1 13.3 -55.2 34.2 -72.4 8 -6.5 216.2 -174 264 -212C342.5 73.7 415.6 0 500 0c84.8 0 158.7 74.6 201.8 109.1 46 36.5 255 204.6 264.2 212.2zm-59.7 573.2V399.2c0 -3.7 -1.7 -7 -4.4 -9.2C870.9 365 689.4 219 643.4 182.4 609.1 155 546.3 93.8 500 93.8c-46.1 0 -107.9 60.3 -143.4 88.6C310.6 219 129.1 365 98.1 390c-2.8 2.2 -4.3 5.6 -4.3 9.1v495.4c0 6.5 5.2 11.7 11.7 11.7h789c6.5 0 11.8 -5.2 11.8 -11.7zM843.8 527.9c8.3 10.1 6.7 25 -3.4 33.2 -56.6 45.5 -115.8 93 -138.6 111C657.5 707.6 584.4 781.3 500 781.3c-84.9 0 -158.8 -74.7 -201.8 -109.2 -22.1 -17.5 -81.6 -65.2 -138.6 -111 -10.1 -8.2 -11.7 -23.1 -3.4 -33.2L186 491.7c8.2 -9.9 22.8 -11.4 32.8 -3.3 55.9 44.9 114.4 91.8 137.8 110.5 34.3 27.3 97.1 88.6 143.4 88.6 46.1 0 107.9 -60.3 143.4 -88.6 23.4 -18.7 81.9 -65.6 137.8 -110.5 10 -8.1 24.6 -6.6 32.8 3.3z"/></svg>