<svg height="1000" width="1000" xmlns="http://www.w3.org/2000/svg"><path d="M906.3 125c51.7 0 93.7 42 93.7 93.8v562.5c0 51.7 -42 93.7 -93.7 93.7H93.8C42 875 0 833 0 781.3V218.8C0 167 42 125 93.8 125h812.5zm0 93.8H93.8v79.6c43.7 35.7 113.6 91.2 262.8 208 32.9 25.9 98.1 88.1 143.4 87.3 45.3 .8 110.5 -61.4 143.4 -87.3C792.6 389.6 862.5 334.1 906.3 298.4v-79.6zM93.8 781.3h812.5V418.7c-44.8 35.7 -108.3 85.7 -205 161.5C657.2 614.8 583.4 687.9 500 687.5c-83.8 .4 -158.6 -73.7 -201.3 -107.3C202 504.4 138.5 454.4 93.8 418.7v362.6z"/></svg>