<svg height="512" width="512" xmlns="http://www.w3.org/2000/svg"><path d="M176 216h160c8.8 0 16-7.2 16-16v-16c0-8.8-7.2-16-16-16H176c-8.8 0-16 7.2-16 16v16c0 8.8 7.2 16 16 16m-16 80c0 8.8 7.2 16 16 16h160c8.8 0 16-7.2 16-16v-16c0-8.8-7.2-16-16-16H176c-8.8 0-16 7.2-16 16zm96 121.1c-16.4 0-32.8-5-46.9-15.2L0 250.9V464c0 26.5 21.5 48 48 48h416c26.5 0 48-21.5 48-48V250.9l-209.1 151c-14.1 10.2-30.5 15.2-46.9 15.2M493.6 162.9C484.8 156 476.4 149.5 464 140.1V96C464 69.5 442.5 48 416 48h-77.6c-3-2.2-5.8-4.3-9-6.6C312.6 29.2 279.2-.3 256 0c-23.2-.3-56.6 29.2-73.4 41.4-3.2 2.3-6 4.4-9 6.6H96C69.5 48 48 69.5 48 96v44.1C35.6 149.5 27.2 156 18.4 162.9A48 48 0 0 0 0 200.7v10.7l96 69.3V96h320v184.7l96-69.3v-10.7C512 186 505.2 172.1 493.6 163z"/></svg>