<svg height="512" width="384" xmlns="http://www.w3.org/2000/svg"><path d="M384 348c-1.7 10.8-13.7 110-15.5 132C250.6 475.7 148.6 475.3 0 480v-25.5c45.5-8.9 60.6-8 61-35.2 1.8-72.4 3.5-244.2 0-322C60 68.8 48.9 70.5 0 61.3V35.8c73.9 2.3 255.9 8.5 363-3.8-3.5 38.3-7.8 126.5-7.8 126.5H332C320.9 115.7 313.2 68 277.3 68h-137c-10.3 0-10.8 3.5-10.8 9.8v163.7c58 .5 88.5-2.5 88.5-2.5 29.8-1 27.6-8.5 40.8-65.3h25.7c-4.4 101.4-3.9 61.9-1.7 160.3H257c-9.2-40.1-9.1-61-39.5-61.5 0 0-21.5-2-88-2v139c0 26 14.2 38.2 44.2 38.2H263c63.6 0 66.6-24.9 98.8-99.7z"/></svg>