<svg height="512" width="384" xmlns="http://www.w3.org/2000/svg"><path d="M120.8 132.2c1.6 22.3-17.5 21.6-21.6 21.6-68.9 0-73.6-1-83.6 3.3-.5.3-.7 0-.3-.3L123.8 46.5c.4-.4.6-.3.4.3-4.4 10-3.4 15.1-3.4 85.4m79 308c-14.7-37.1 13-76.9 52.5-76.6 17.5 0 22.6 23.2 8 31.4-6.2 3.3-25 1.8-25.1 19.2-.1 17.1 19.6 25 31.2 24.9A45.6 45.6 0 0 0 312 393.4c0-11.7-7.8-47.3-47.5-55.4-7.8-1.5-65-6.3-68.4-50.5-3.7 16.9-17.4 63.5-43.1 69.1-8.7 1.9-69.7 7.6-112.9-36.8 0 0-18.6-15.2-28.3-57.9C8.5 246.1 2.6 222.2.7 199.9c0-18 11.1-30.5 25.1-32.2 81 0 90 2.3 101-7.8 9.8-9.3 7.8-15.5 7.8-102.8 1-8.3 7.8-30.8 53.4-24.1 6 .8 31.9 4.1 37.5 30.6l64.2 11.2c20.5 3.7 71 7 80.6 57.9 22.7 121.1 8.9 238.5 7.8 238.5-16 114.3-111 108.8-111 108.8-19-.2-54.3-9.4-67.3-39.8m81-204.8c-1 1.9-2.2 6 .8 7 14.1 4.9 39.8 6.8 45.9 5.5 3.1-.2 3-4.4 2.5-6.6-3.6-21.9-40.9-26.5-49.3-6z"/></svg>