<svg height="1000" width="1125" xmlns="http://www.w3.org/2000/svg"><path d="M532.6 701.4C375.4 683.8 266.6 531.7 304.2 375.2l228.4 326.2zm29.9 64.2C362.2 765.6 187.3 658.8 93.8 500 136.2 427.9 195.5 366.5 266.3 321l-53.8 -76.9C130.9 297.3 62.3 368.6 13 452.4a93.7 -93.7 0 0 1 0 95.2c110.1 186.8 315.4 311.8 549.5 311.8a650.2 -650.2 0 0 1 77.4 -4.6l-62.5 -89.4a555 -555 0 0 0 -14.9 .2zm549.5 -218C1047.1 657.7 949.1 746.3 831.6 800.5l94 134.3c7.4 10.6 4.9 25.2 -5.7 32.6l-40.5 28.4c-10.6 7.4 -25.3 4.8 -32.7 -5.8L199.4 65.2C192 54.6 194.5 40 205.1 32.6L245.6 4.2c10.6 -7.4 25.3 -4.8 32.7 5.8l108.4 154.9c55.9 -15.8 114.9 -24.3 175.8 -24.3 234.1 0 439.4 125 549.5 311.8a93.8 -93.8 0 0 0 0 95.2zM1031.3 500C945 353.6 789.7 251.4 609.1 236.3c-19.2 19.7 -31 46.6 -31 76.2 0 60.4 49 109.4 109.4 109.4s109.4 -49 109.4 -109.4v-.1c59.8 111.9 32.7 254.4 -72.2 335.4l52.2 74.5C884 676.9 973.3 598.4 1031.3 500z"/></svg>