<svg height="512" width="640" xmlns="http://www.w3.org/2000/svg"><path d="M634 471 36 3.5A16 16 0 0 0 13.5 6l-10 12.5A16 16 0 0 0 6 41l598 467.5a16 16 0 0 0 22.5-2.5l10-12.5A16 16 0 0 0 634 471M296.8 146.5l134.8 105.3C429.4 191.9 380.5 144 320 144a112.3 112.3 0 0 0-23.2 2.5m46.4 219L208.4 260.2C210.7 320.1 259.5 368 320 368a113 113 0 0 0 23.2-2.5M320 112c98.6 0 189.1 55 237.9 144a285.5 285.5 0 0 1-44 60.2l37.8 29.5a333.7 333.7 0 0 0 52.9-75.1 32.4 32.4 0 0 0 0-29.2C550.3 135.6 442.9 64 320 64c-36.7 0-71.7 7-104.6 18.8l46.4 36.3c18.9-4.3 38.3-7.1 58.2-7.1m0 288C221.3 400 130.9 345 82.1 256a285.5 285.5 0 0 1 44-60.2L88.4 166.3a333.6 333.6 0 0 0-52.9 75.1 32.4 32.4 0 0 0 0 29.2C89.7 376.4 197.1 448 320 448c36.7 0 71.7-7.1 104.6-18.8l-46.4-36.3c-18.9 4.3-38.3 7.1-58.2 7.1"/></svg>