<svg height="1000" width="1250" xmlns="http://www.w3.org/2000/svg"><path d="M1238.3 919.9c7.1 5.7 11.7 14.6 11.7 24.5 0 7.3 -2.6 14.1 -6.9 19.5l-19.5 24.4c-5.7 7.1 -14.5 11.7 -24.4 11.7 -7.4 0 -14.2 -2.6 -19.5 -6.9L11.7 80.1C4.6 74.4 0 65.5 0 55.6 0 48.3 2.6 41.5 6.9 36.1L26.4 11.7C32.1 4.6 40.9 0 50.8 0 58.2 0 65 2.6 70.3 6.9zM579.7 286.1c14.6 -3.2 29.7 -4.8 45.3 -4.8 118.1 0 213.6 93.5 217.9 210.6zm90.6 427.8c-14.6 3.2 -29.7 4.8 -45.3 4.8 -118.1 0 -213.6 -93.5 -217.9 -210.6zM625 218.8c-38.8 0 -76.7 5.4 -113.7 13.8l-90.7 -70.9C484.9 138.7 553.3 125 625 125c240.1 0 449.8 139.8 555.8 346.5 4.3 8.5 6.8 18.3 6.8 28.6 0 10.2 -2.5 19.8 -6.8 28.4 -27.7 53.8 -62.3 102.9 -103.3 146.7l-73.7 -57.6c33.6 -35.3 62.3 -74.5 85.9 -117.6C994.3 326.2 817.7 218.7 625 218.7zm0 562.5c38.8 0 76.7 -5.5 113.7 -13.9l90.7 70.9C765.1 861.2 696.7 875 625 875 384.9 875 175.2 735.2 69.3 528.5 65 520 62.6 510.2 62.6 499.9c0 -10.2 2.4 -19.8 6.7 -28.4C97 417.7 131.7 368.6 172.6 324.8l73.7 57.6c-33.7 35.3 -62.4 74.5 -86 117.6 95.4 173.8 272 281.3 464.7 281.3z"/></svg>