<svg height="1000" width="1125" xmlns="http://www.w3.org/2000/svg"><path d="M1112 452.4C1001.9 265.5 796.5 140.6 562.5 140.6c-234.1 0 -439.4 125 -549.5 311.8a93.7 -93.7 0 0 1 0 95.2c110.1 186.9 315.5 311.8 549.5 311.8 234.1 0 439.4 -125 549.5 -311.8a93.7 -93.7 0 0 1 0 -95.2zM562.5 765.6C362.2 765.6 187.3 658.8 93.8 500 180 353.6 335.3 251.4 515.9 236.3c19.2 19.7 31 46.6 31 76.2 0 60.4 -49 109.4 -109.4 109.4S328.1 372.9 328.1 312.5v-.1c-19.9 37.3 -31.2 79.9 -31.2 125.1 0 146.7 118.9 265.6 265.6 265.6S828.1 584.2 828.1 437.5c0 -60.6 -20.3 -116.5 -54.5 -161.2 108.6 45.3 199.1 124.3 257.7 223.7C937.7 658.8 762.8 765.6 562.5 765.6z"/></svg>