<svg height="1000" width="1125" xmlns="http://www.w3.org/2000/svg"><path d="M562.5 281.3c.2 0 .5 0 .7 0 120.4 0 218.2 97.7 218.2 218.2S683.6 717.7 563.2 717.7 345 619.9 345 499.5c0 -21 3 -41.3 8.5 -60.5 15.6 8.8 33.6 14 52.7 14.1 60.4 0 109.4 -49 109.4 -109.3 -.1 -19.2 -5.3 -37.2 -14.1 -52.8 19.3 -6 39.8 -9.4 61 -9.7zm555.7 190.2c4.3 8.5 6.8 18.3 6.8 28.6 0 10.2 -2.5 19.8 -6.8 28.4C1012.3 735.1 802.6 875 562.5 875S112.7 735.2 6.8 528.5A63.466 63.466 0 0 1 0 499.9c0 -10.2 2.5 -19.8 6.8 -28.4C112.7 264.9 322.4 125 562.5 125s449.8 139.8 555.7 346.5zM562.5 781.3c192.7 0 369.3 -107.5 464.7 -281.3C931.8 326.2 755.2 218.8 562.5 218.8S193.2 326.2 97.8 500c95.4 173.8 272 281.3 464.7 281.3z"/></svg>