<svg height="512" width="512" xmlns="http://www.w3.org/2000/svg"><path d="M352.6 128c-28.1 0-54.1 4.5-77.1 12.9L287.9 17.8C289 7.3 279.8-1.2 269.3.1 189.6 10.1 128 77.6 128 159.4c0 28.1 4.5 54.1 12.9 77.1L17.8 224.1C7.3 223-1.2 232.2.1 242.7 10.1 322.4 77.6 384 159.4 384c28.1 0 54.1-4.5 77.1-12.9l-12.4 123.2c-1.1 10.4 8.1 18.9 18.6 17.6C322.4 501.9 384 434.4 384 352.6c0-28.1-4.5-54.1-12.9-77.1l123.2 12.4c10.4 1.1 18.9-8.1 17.6-18.6C501.9 189.6 434.4 128 352.6 128M256 288a32 32 0 1 1 32-32 32 32 0 0 1-32 32"/></svg>