<svg height="512" width="512" xmlns="http://www.w3.org/2000/svg"><path d="M256 32.9 32.9 256 256 479.1 479.1 256zM88.3 255.8c2-2 12-12.3 96.5-97.4 41.5-41.8 86.2-43.8 119.8-18.7 24.6 18.4 62.1 58.9 62.1 59 .7.7 1.1 2.8.6 3.3-11.2 11.9-22.7 23.6-33.5 34.7-34.2-32.3-40.5-38.2-48.5-43.9-17.8-12.7-41.4-10.1-57 5.1-2.1 2.1-1.8 3.4.2 5.3 2.9 3 28.1 28.4 35 35.8-11.9 11.6-23.6 23-35.6 34.7-12.1-12.6-24.5-25.6-36.6-38.1-21.4 21-41.7 41.1-61.8 61A42569 42569 0 0 1 88.3 255.8m234.9 101.6c-35.5 35.5-78.1 38.2-107 20.5-22.1-13.5-39.4-32.1-73-66.8 12.1-12.4 23.8-24.5 35.4-36.4 33 32 37.1 36.1 44.7 42.1 18.5 14.8 42.5 13.7 59.3-1.8 3.7-3.4 3.7-3.6.1-7.2C272.2 297.1 261.6 286.4 251 275.6c-1.3-1.3-3.1-2.5-.8-4.7 10.8-10.7 21.5-21.5 32.2-32.3.2-.2.6-.3 1.9-1 12.4 12.8 24.9 25.9 37.2 38.7 21.1-20.7 41.3-40.7 61.3-60.4 13.7 13.4 27.1 26.6 40.9 40C403.5 276.8 342 338.6 323.2 357.4M256 0 0 256l256 256L512 256zM16 256 256 16l240 240L256 496z"/></svg>