<svg height="512" width="512" xmlns="http://www.w3.org/2000/svg"><path d="M352 256h-38.6C297.7 242.6 277.9 232.9 256 228v-47.6l-32-3.3-32 3.3V228c-21.9 5-41.7 14.6-57.4 28H16A16 16 0 0 0 0 272v96a16 16 0 0 0 16 16h92.8c20.6 37.7 64.2 64 115.2 64s94.6-26.3 115.2-64H352a32 32 0 0 1 32 32 32 32 0 0 0 32 32h64a32 32 0 0 0 32-32A160 160 0 0 0 352 256M81.6 159.9l142.4-15 142.4 15c9.4 1 17.6-6.8 17.6-16.8v-30.2c0-10-8.2-17.8-17.6-16.8L256 107.7V80A16 16 0 0 0 240 64h-32a16 16 0 0 0-16 16v27.7L81.6 96.1C72.2 95.1 64 102.9 64 112.9v30.2c0 10 8.2 17.8 17.6 16.8"/></svg>