<svg height="1000" width="750" xmlns="http://www.w3.org/2000/svg"><path d="M722.5 191.3c17 17 27.5 40.4 27.5 66.3v648.6c0 51.8 -42 93.8 -93.8 93.8H93.7C42 1000 0 958 0 906.2V93.7C0 42 42 0 93.7 0h398.7c25.9 0 49.3 10.5 66.3 27.5zM648.7 250L500 101.3V250h148.7zM93.8 906.3h562.5V343.8H453.1c-25.9 0 -46.8 -21 -46.8 -46.9V93.8H93.8v812.5zM540.4 493.5c19.5 -19.5 53.4 -5.8 53.4 22.1v218.7c0 28 -33.8 41.7 -53.4 22.1L437.5 653.6v73c0 21.5 -17.5 39 -39.1 39H195.3c-21.6 0 -39 -17.5 -39 -39V523.4c0 -21.5 17.4 -39 39 -39h203.1c21.6 0 39.1 17.5 39.1 39v73z"/></svg>