<svg height="1000" width="750" xmlns="http://www.w3.org/2000/svg"><path d="M722.5 191.2c17.5 17.6 27.5 41.6 27.5 66.4v648.7c0 51.7 -42 93.7 -93.8 93.7H93.7C42 1000 0 958 0 906.3V93.8C0 42 42 0 93.7 -.2h398.7c24.8 0 48.6 10 66.2 27.5zM648.6 250L500 101.4V250h148.6zM93.8 906.3h562.5V343.8H453.1c-26 0 -46.8 -20.9 -46.8 -46.9V93.8H93.8v812.5zM582.4 625.6c20.5 20.5 15.6 75.6 -34.2 75.6 -28.9 0 -72 -13.3 -108.9 -33.2 -42.2 7 -89.9 24.8 -133.6 39.2C207.8 876 150.6 799 157 768.2c7.8 -39.1 60.6 -70.2 99.6 -90.3 20.5 -35.9 49.6 -98.6 69.2 -145.3C311.3 476.8 303.5 433 312.1 401.6c9.4 -34.6 75 -39.7 83.2 11.5 9.2 30.1 -2.9 77.9 -10.5 109.4 15.8 41.6 38.2 69.9 71.8 90.4 34 -4.3 102 -10.8 125.8 12.7zM195.5 777.5c0 1.4 22.3 -9.1 59.4 -68.3 -11.5 10.7 -49.4 41.6 -59.4 68.3zM354.9 405.3c-4.9 0 -5.1 52.5 3.5 79.7 9.6 -17 10.9 -79.7 -3.5 -79.7zm-47.7 266.8c31.1 -11.9 66.4 -29.1 107.1 -37.5 -21.9 -16.2 -42.6 -39.9 -58.8 -69.4 -13.1 34.6 -29.3 73.9 -48.3 106.9zm257.1 -9.8c7 -4.7 -4.3 -20.3 -72.9 -15.2 63.1 26.9 72.9 15.2 72.9 15.2z"/></svg>