<svg height="512" width="384" xmlns="http://www.w3.org/2000/svg"><path d="M377 105 279.1 7c-4.5-4.5-10.6-7-17-7H256v128h128v-6.1c0-6.3-2.5-12.4-7-16.9M128.4 336C110.5 336 96 348.1 96 363c0 15 14.6 27 32.5 27s32.4-12.1 32.4-27-14.6-27-32.5-27M224 136V0h-63.6v32h-32V0H24C10.7 0 0 10.7 0 24v464c0 13.3 10.7 24 24 24h336c13.3 0 24-10.7 24-24V160H248c-13.2 0-24-10.8-24-24M95.9 32h32v32h-32zm32.3 384C95 416 70.2 385.6 76.8 353.1L96.4 256v-32h32v-32h-32v-32h32v-32h-32V96h32V64h32v32h-32v32h32v32h-32v32h32v32h-32v32h22.1c5.7 0 10.7 4.1 11.8 9.7l17.3 87.7C186 385.8 161.2 416 128.2 416"/></svg>