<svg height="512" width="384" xmlns="http://www.w3.org/2000/svg"><path d="M377 105 279.1 7c-4.5-4.5-10.6-7-17-7H256v128h128v-6.1c0-6.3-2.5-12.4-7-16.9m-153 31V0H24C10.7 0 0 10.7 0 24v464c0 13.3 10.7 24 24 24h336c13.3 0 24-10.7 24-24V160H248c-13.2 0-24-10.8-24-24M64 72c0-4.4 3.6-8 8-8h80c4.4 0 8 3.6 8 8v16c0 4.4-3.6 8-8 8H72c-4.4 0-8-3.6-8-8zm0 80v-16c0-4.4 3.6-8 8-8h80c4.4 0 8 3.6 8 8v16c0 4.4-3.6 8-8 8H72c-4.4 0-8-3.6-8-8m144 263.9V440c0 4.4-3.6 8-8 8h-16c-4.4 0-8-3.6-8-8v-24.3c-11.3-.6-22.3-4.5-31.4-11.3-3.9-3-4.1-8.8-.5-12.2L155.8 381c2.8-2.6 6.9-2.7 10.1-.7 3.9 2.4 8.3 3.7 12.9 3.7h28.1c6.5 0 11.8-5.9 11.8-13.2 0-5.9-3.6-11.2-8.8-12.7l-45-13.5C146.3 339 133.3 321.2 133.3 301.2c0-24.5 19.1-44.4 42.7-45.1V232c0-4.4 3.6-8 8-8h16c4.4 0 8 3.6 8 8v24.3c11.3.6 22.3 4.5 31.4 11.3 3.9 3 4.1 8.8.5 12.2L228.2 291c-2.8 2.6-6.9 2.8-10.1.7-3.9-2.4-8.3-3.7-12.9-3.7h-28.1c-6.5 0-11.8 5.9-11.8 13.2 0 5.9 3.6 11.2 8.8 12.7l45 13.5c18.6 5.6 31.6 23.4 31.6 43.4 0 24.5-19.1 44.5-42.7 45.1"/></svg>