<svg height="1000" width="750" xmlns="http://www.w3.org/2000/svg"><path d="M722.5 191.2L558.6 27.3C541 9.8 517.2 -.2 492.4 -.2H93.8C42 0 0 42 0 93.8v812.5C0 958 42 1000 93.8 1000h562.5c51.7 0 93.7 -42 93.7 -93.7V257.6c0 -24.8 -10 -48.8 -27.5 -66.4zM648.6 250H500V101.4L648.6 250zM93.8 906.3V93.8h312.5v203.1c0 26 20.8 46.9 46.8 46.9h203.2v562.5H93.8zM234.4 789.1V460.9c0 -12.9 10.5 -23.4 23.4 -23.4H393c71.6 0 122.6 52.7 122.6 129.5 0 145.1 -134.2 129.9 -186.5 129.9v92.2c0 12.9 -10.5 23.4 -23.4 23.4h-47.9c-12.9 0 -23.4 -10.5 -23.4 -23.4zm94.7 -170.7H374c15.5 0 27.2 -4.7 35.4 -14.1 16.6 -19.1 16.4 -55.7 .2 -73.8 -8 -9 -19.4 -13.7 -34 -13.7h-46.7v101.6z"/></svg>