<svg height="512" width="384" xmlns="http://www.w3.org/2000/svg"><path d="M384 121.9v6.1H256V0h6.1c6.3 0 12.4 2.5 16.9 7l98 98a24 24 0 0 1 7 16.9M248 160c-13.2 0-24-10.8-24-24V0H24C10.7 0 0 10.7 0 24v464c0 13.3 10.7 24 24 24h336c13.3 0 24-10.7 24-24V160zM123.2 400.5a5.4 5.4 0 0 1-7.6.3L50.7 339.9a5.4 5.4 0 0 1 0-7.8l64.9-60.9a5.4 5.4 0 0 1 7.6.3l19.6 20.9a5.4 5.4 0 0 1-.4 7.7L101.7 336l40.7 35.9a5.4 5.4 0 0 1 .4 7.7zm51.3 50.5L147 443a5.4 5.4 0 0 1-3.6-6.7l61.4-211.6a5.4 5.4 0 0 1 6.7-3.7l27.5 8a5.4 5.4 0 0 1 3.6 6.7l-61.4 211.6a5.4 5.4 0 0 1-6.7 3.7M335.3 339.9l-64.9 60.9a5.4 5.4 0 0 1-7.6-.3l-19.6-20.9a5.4 5.4 0 0 1 .4-7.7L284.4 336l-40.8-35.9a5.4 5.4 0 0 1-.4-7.7l19.6-20.9a5.4 5.4 0 0 1 7.6-.3l64.9 60.9a5.4 5.4 0 0 1 0 7.8"/></svg>