<svg height="512" width="384" xmlns="http://www.w3.org/2000/svg"><path d="M369.9 97.9 286.1 14.1A48 48 0 0 0 252.1 0H48C21.5 0 0 21.5 0 48v416c0 26.5 21.5 48 48 48h288c26.5 0 48-21.5 48-48V131.9a48 48 0 0 0-14.1-34M332.1 128H256V51.9zM48 464V48h160v104c0 13.3 10.7 24 24 24h104v288zm144-76c0 10.7-12.9 16-20.5 8.5l-35.5-36h-28c-6.6 0-12-5.4-12-12v-56c0-6.6 5.4-12 12-12h28l35.5-37c7.6-7.5 20.5-2.2 20.5 8.5zm41.2-47.2c9.1-9.3 9.1-24.1 0-33.4-22.1-22.7 12.2-56.2 34.4-33.5 27.2 28 27.2 72.5 0 100.4C245.8 396.7 210.7 364 233.2 340.8"/></svg>