<svg height="1000" width="750" xmlns="http://www.w3.org/2000/svg"><path d="M722.5 191.3c17 17 27.5 40.4 27.5 66.3v648.6c0 51.8 -42 93.8 -93.8 93.8H93.7C42 1000 0 958 0 906.2V93.7C0 42 42 0 93.7 0h398.7c25.9 0 49.3 10.5 66.3 27.5zM648.7 250L500 101.3V250h148.7zM93.8 906.3h562.5V343.8H453.1c-25.9 0 -46.8 -21 -46.8 -46.9V93.8H93.8v812.5zM375 757.8c0 20.8 -25.2 31.3 -40 16.5l-69.4 -70.2h-54.7c-12.9 0 -23.4 -10.5 -23.4 -23.5V571.3c0 -13 10.5 -23.5 23.4 -23.5h54.7L335 475.7c14.8 -14.8 40 -4.3 40 16.5v265.6zm80.5 -92.1c17.6 -18.1 17.7 -47.1 0 -65.3C412.2 556 479.4 490.5 522.6 535c53.2 54.6 53.2 141.5 .1 196.1C480.1 774.8 411.4 711 455.5 665.7z"/></svg>