<svg height="1000" width="750" xmlns="http://www.w3.org/2000/svg"><path d="M722.5 191.2c17.5 17.6 27.5 41.6 27.5 66.4v648.7c0 51.7 -42 93.7 -93.8 93.7H93.7C42 1000 0 958 0 906.3V93.8C0 42 42 0 93.7 -.2h398.7c24.8 0 48.6 10 66.2 27.5zM648.6 250L500 101.4V250h148.6zM93.8 906.3h562.5V343.8H453.1c-26 0 -46.8 -20.9 -46.8 -46.9V93.8H93.8v812.5zm62.5 -93.8v-125l77.1 -77.1c9.2 -9.2 24 -9.2 33.2 0l77.2 77.1L514.6 516.6c9.2 -9.2 24.1 -9.2 33.3 0l45.9 45.9v250H156.3zM250 343.8c51.8 0 93.8 41.9 93.8 93.7s-42 93.8 -93.8 93.8 -93.7 -42 -93.7 -93.8 41.9 -93.7 93.7 -93.7z"/></svg>