<svg height="1000" width="750" xmlns="http://www.w3.org/2000/svg"><path d="M250.6 312.5h62.5V375h-62.5v-62.5zM375.6 125v62.5h-62.5V125h62.5zm-125 62.5h62.5V250h-62.5v-62.5zm125 62.5v62.5h-62.5V250h62.5zm346.9 -58.8c17.5 17.6 27.5 41.6 27.5 66.4v648.7c0 51.7 -42 93.7 -93.8 93.7H93.7C42 1000 0 958 0 906.3V93.8C0 42 42 0 93.7 -.2h398.7c24.8 0 48.6 10 66.2 27.5zM500 101.4V250h148.6zm156.3 804.9V343.8H453.1c-26 0 -46.8 -20.9 -46.8 -46.9V93.8h-94.4V125h-62.5V93.8H93.8v812.5h562.5zm-277 -387.4l33.8 171.3c12.5 63.3 -36 122.3 -100.6 122.3 -64.8 0 -113.3 -59.4 -100.4 -122.9L250.6 500v-62.5h62.5V500h43.2c11.3 0 20.8 8 23 18.9zm-66.2 243c34.9 0 63.3 -23.6 63.3 -52.7S348 656.4 313.1 656.4c-35 0 -63.3 23.7 -63.3 52.8 0 29.1 28.3 52.7 63.3 52.7zM375.6 375v62.5h-62.5V375h62.5z"/></svg>