<svg height="1000" width="750" xmlns="http://www.w3.org/2000/svg"><path d="M722.5 191.2L558.6 27.3C541 9.8 517.2 -.2 492.4 -.2H93.8C42 0 0 42 0 93.8v812.5C0 958 42 1000 93.8 1000h562.5c51.7 0 93.7 -42 93.7 -93.7V257.6c0 -24.8 -10 -48.8 -27.5 -66.4zM648.6 250H500V101.4L648.6 250zM93.8 906.3V93.8h312.5v203.1c0 26 20.8 46.9 46.8 46.9h203.2v562.5H93.8zm62.5 -93.8h437.5v-250l-45.9 -45.9c-9.2 -9.2 -24.1 -9.2 -33.3 0L343.8 687.5l-77.2 -77.1c-9.2 -9.2 -24 -9.2 -33.2 0l-77.1 77.1v125zM250 343.8c-51.8 0 -93.7 41.9 -93.7 93.7s41.9 93.8 93.7 93.8 93.8 -42 93.8 -93.8 -42 -93.7 -93.8 -93.7z"/></svg>