<svg height="1000" width="750" xmlns="http://www.w3.org/2000/svg"><path d="M722.5 191.3L558.7 27.5A93.8 -93.8 0 0 1 492.4 0H93.8C42 0 0 42 0 93.8v812.5C0 958 42 1000 93.8 1000h562.5c51.7 0 93.7 -42 93.7 -93.7V257.6a93.8 -93.8 0 0 1 -27.5 -66.3zM648.7 250H500V101.3L648.7 250zM93.8 906.3V93.8h312.5v203.1c0 25.9 20.9 46.9 46.8 46.9h203.2v562.5H93.8zM375 757.8c0 20.8 -25.2 31.3 -40 16.5l-69.4 -70.2h-54.7c-12.9 0 -23.4 -10.5 -23.4 -23.5V571.3c0 -13 10.5 -23.5 23.4 -23.5h54.7L335 475.7c14.8 -14.8 40 -4.3 40 16.5v265.6zm80.5 -92.1c17.6 -18.1 17.7 -47.1 0 -65.3C412.2 556 479.4 490.5 522.7 535c53.1 54.6 53.1 141.5 0 196.1C480.1 774.8 411.4 711 455.5 665.7z"/></svg>