<svg height="1000" width="750" xmlns="http://www.w3.org/2000/svg"><path d="M722.5 191.3L558.7 27.5A93.8 -93.8 0 0 1 492.4 0H93.8C42 0 0 42 0 93.8v812.5C0 958 42 1000 93.8 1000h562.5c51.7 0 93.7 -42 93.7 -93.7V257.6a93.8 -93.8 0 0 1 -27.5 -66.3zM648.7 250H500V101.3L648.7 250zM93.8 906.3V93.8h312.5v203.1c0 25.9 20.9 46.9 46.8 46.9h203.2v562.5H93.8zM540.4 493.5L437.5 596.4v-73c0 -21.5 -17.5 -39 -39.1 -39H195.3c-21.6 0 -39 17.5 -39 39v203.2c0 21.5 17.4 39 39 39h203.1c21.6 0 39.1 -17.5 39.1 -39v-73l102.9 102.8c19.6 19.6 53.4 5.9 53.4 -22.1V515.6c0 -27.9 -33.9 -41.6 -53.4 -22.1z"/></svg>