<svg height="1000" width="750" xmlns="http://www.w3.org/2000/svg"><path d="M722.5 191.2L558.6 27.3C541 9.8 517.2 -.2 492.4 -.2H93.8C42 0 0 42 0 93.8v812.5C0 958 42 1000 93.8 1000h562.5c51.7 0 93.7 -42 93.7 -93.7V257.6c0 -24.8 -10 -48.8 -27.5 -66.4zM648.6 250H500V101.4L648.6 250zM93.8 906.3V93.8h312.5v203.1c0 26 20.8 46.9 46.8 46.9h203.2v562.5H93.8zM582.4 625.6c-23.8 -23.5 -91.8 -17 -125.8 -12.7 -33.6 -20.5 -56 -48.8 -71.8 -90.4 7.6 -31.5 19.7 -79.3 10.5 -109.4C387.1 361.9 321.5 367 312.1 401.6c-8.6 31.4 -.8 75.2 13.7 131C306.3 579.3 277.1 642 256.6 677.9c-39 20.1 -91.8 51.2 -99.6 90.3 -6.4 30.8 50.8 107.8 148.7 -61C349.4 692.8 397.1 675 439.3 668c36.9 19.9 80 33.2 108.9 33.2 49.8 0 54.7 -55.1 34.2 -75.6zM195.5 777.5c10 -26.7 47.9 -57.6 59.4 -68.3 -37.1 59.2 -59.4 69.7 -59.4 68.3zM354.9 405.3c14.4 0 13.1 62.7 3.5 79.7 -8.6 -27.2 -8.4 -79.7 -3.5 -79.7zm-47.7 266.8c19 -33 35.2 -72.3 48.3 -106.9 16.2 29.5 36.9 53.2 58.8 69.4 -40.7 8.4 -76 25.6 -107.1 37.5zm257.1 -9.8s-9.8 11.7 -72.9 -15.2c68.6 -5.1 79.9 10.5 72.9 15.2z"/></svg>