<svg height="1000" width="750" xmlns="http://www.w3.org/2000/svg"><path d="M722.5 191.2L558.6 27.3C541 9.8 517.2 -.2 492.4 -.2H93.8C42 0 0 42 0 93.8v812.5C0 958 42 1000 93.8 1000h562.5c51.7 0 93.7 -42 93.7 -93.7V257.6c0 -24.8 -10 -48.8 -27.5 -66.4zM648.6 250H500V101.4L648.6 250zM93.8 906.3V93.8h312.5v203.1c0 26 20.8 46.9 46.8 46.9h203.2v562.5H93.8zM523.6 500c-11.1 0 -20.7 7.8 -22.8 18.6 -40.3 190.8 -39.9 186.3 -41 202.1 -.4 -2.3 -.8 -5.1 -1.4 -8.4 -1.6 -10 .6 .4 -46.1 -194.3 -2.5 -10.6 -11.9 -18 -22.8 -18h-26c-10.8 0 -20.1 7.4 -22.9 17.8C293 711.1 293.8 705.7 292.2 720.3c-.2 -2.1 -.4 -4.9 -1 -8.2C289.8 702 263.7 568.9 253.9 518.8c-2.1 -11 -11.7 -19 -23 -19H198c-15.2 0 -26.3 14.3 -22.8 28.9 15.6 63.7 52.1 213.9 64.8 265.6 2.6 10.6 12 17.8 22.9 17.8h49.2c10.8 0 20.1 -7.2 22.7 -17.8l34.9 -139.4c3 -12.1 4.9 -23.5 5.9 -33.8l5.7 33.8c.1 .8 24.6 98.6 34.9 139.4 2.6 10.4 11.9 17.8 22.7 17.8h48.2c10.8 0 20.1 -7.2 22.7 -17.8 40.6 -159.9 59 -232.4 67.3 -265.6 3.8 -14.8 -7.4 -29.1 -22.6 -29.1h-30.9z"/></svg>