<svg height="1000" width="750" xmlns="http://www.w3.org/2000/svg"><path d="M722.5 191.2L558.6 27.3C541 9.8 517.2 -.2 492.4 -.2H93.8C42 0 0 42 0 93.8v812.5C0 958 42 1000 93.8 1000h562.5c51.7 0 93.7 -42 93.7 -93.7V257.6c0 -24.8 -10 -48.8 -27.5 -66.4zM648.6 250H500V101.4L648.6 250zM93.8 906.3V93.8h312.5v203.1c0 26 20.8 46.9 46.8 46.9h203.2v562.5H93.8zm414 -468.8h-56.2c-8.6 0 -16.4 4.7 -20.5 12.3 -35.2 64.7 -43.4 82.8 -55.9 112.7C348 505.7 361.7 528.7 319.3 449.8c-4.1 -7.6 -12.1 -12.3 -20.7 -12.3h-56.4c-18.2 0 -29.3 19.5 -20.3 35.2L312.3 625l-90.4 152.3c-9.2 15.7 2.1 35.2 20.3 35.2h56.4c8.6 0 16.4 -4.7 20.5 -12.3 42.4 -78.1 45 -87.9 55.9 -112.7 29.1 59 11.5 31.1 55.9 112.7 4.1 7.6 12.1 12.3 20.7 12.3h56.2c18.2 0 29.3 -19.5 20.3 -35.2L437.5 625c1.4 -2.1 59.2 -98.6 90.4 -152.3 9.2 -15.7 -2.1 -35.2 -20.1 -35.2z"/></svg>