<svg height="1000" width="750" xmlns="http://www.w3.org/2000/svg"><path d="M562.5 484.4v54.7c0 12.9 -10.5 23.4 -23.4 23.4H210.9c-12.9 0 -23.4 -10.5 -23.4 -23.4v-54.7c0 -12.9 10.5 -23.5 23.4 -23.5h328.2c12.9 0 23.4 10.6 23.4 23.5zM539.1 625c12.9 0 23.4 10.5 23.4 23.4v54.7c0 12.9 -10.5 23.5 -23.4 23.5H210.9c-12.9 0 -23.4 -10.6 -23.4 -23.5v-54.7c0 -12.9 10.5 -23.4 23.4 -23.4h328.2zM750 257.6v648.7c0 51.7 -42 93.7 -93.7 93.7H93.8C42 1000 0 958 0 906.3V93.8C0 42 42 0 93.8 0h398.6c24.8 0 48.6 10 66.2 27.5l163.9 163.9c17.5 17.4 27.5 41.4 27.5 66.2zM500 101.4V250h148.6zm156.3 804.9V343.8H453.1c-26 0 -46.8 -20.9 -46.8 -46.9V93.8H93.8v812.5h562.5z"/></svg>