<svg height="1000" width="750" xmlns="http://www.w3.org/2000/svg"><path d="M722.5 191.2c17.5 17.6 27.5 41.6 27.5 66.4v648.7c0 51.7 -42 93.7 -93.8 93.7H93.7C42 1000 0 958 0 906.3V93.8C0 42 42 0 93.7 -.2h398.7c24.8 0 48.6 10 66.2 27.5zM648.6 250L500 101.4V250h148.6zM93.8 906.3h562.5V343.8H453.1c-26 0 -46.8 -20.9 -46.8 -46.9V93.8H93.8v812.5zM234.4 789.1V460.9c0 -12.9 10.5 -23.4 23.4 -23.4H393c71.6 0 122.6 52.7 122.6 129.5 0 145.1 -134.2 129.9 -186.5 129.9v92.2c0 12.9 -10.5 23.4 -23.4 23.4h-47.9c-12.9 0 -23.4 -10.5 -23.4 -23.4zm94.7 -170.7H374c15.5 0 27.2 -4.7 35.4 -14.1 16.6 -19.1 16.4 -55.7 .2 -73.8 -8 -9 -19.4 -13.7 -34 -13.7h-46.7v101.6h.2z"/></svg>