<svg height="512" width="384" xmlns="http://www.w3.org/2000/svg"><path d="M224 136V0H24C10.7 0 0 10.7 0 24v464c0 13.3 10.7 24 24 24h336c13.3 0 24-10.7 24-24V160H248c-13.2 0-24-10.8-24-24m68.5 179.5 11.3 11.3c6.3 6.2 6.3 16.4 0 22.6l-29.9 29.9 30.1 30.1c6.3 6.2 6.3 16.4 0 22.6l-11.3 11.3c-6.3 6.3-16.4 6.3-22.6 0l-30.1-30-30.1 30c-6.2 6.3-16.3 6.3-22.6 0L176 432c-6.2-6.2-6.2-16.4 0-22.6l30.1-30.1L146.7 320H128v48c0 8.8-7.2 16-16 16H96c-8.8 0-16-7.2-16-16V208c0-8.8 7.2-16 16-16h80c35.3 0 64 28.7 64 64 0 24.2-13.6 45.1-33.5 55.9l33.5 33.5 29.9-29.9c6.2-6.3 16.4-6.3 22.6 0M176 272h-48v-32h48c8.8 0 16 7.2 16 16s-7.2 16-16 16M384 121.9v6.1H256V0h6.1c6.4 0 12.5 2.5 17 7l97.9 98c4.5 4.5 7 10.6 7 16.9"/></svg>