<svg height="512" width="384" xmlns="http://www.w3.org/2000/svg"><path d="M224 136V0H24C10.7 0 0 10.7 0 24v464c0 13.3 10.7 24 24 24h336c13.3 0 24-10.7 24-24V160H248c-13.2 0-24-10.8-24-24m-96 144c0 4.4-3.6 8-8 8h-8c-8.8 0-16 7.2-16 16v32c0 8.8 7.2 16 16 16h8c4.4 0 8 3.6 8 8v16c0 4.4-3.6 8-8 8h-8C85.5 384 64 362.5 64 336v-32c0-26.5 21.5-48 48-48h8c4.4 0 8 3.6 8 8zm44.3 104H160c-4.4 0-8-3.6-8-8v-16c0-4.4 3.6-8 8-8h12.3c5.9 0 10.4-3.5 10.4-6.6 0-1.3-.8-2.7-2.1-3.9l-21.9-18.7c-8.5-7.2-13.4-17.5-13.4-28.2 0-21.3 19.1-38.6 42.5-38.6H200c4.4 0 8 3.6 8 8v16c0 4.4-3.6 8-8 8h-12.3c-5.9 0-10.4 3.5-10.4 6.6 0 1.3.8 2.7 2.1 3.9l21.9 18.7c8.5 7.3 13.4 17.5 13.4 28.2 0 21.3-19 38.6-42.4 38.6M256 264v20.8c0 20.3 5.7 40.2 16 56.9 10.3-16.7 16-36.6 16-56.9V264c0-4.4 3.6-8 8-8h16c4.4 0 8 3.6 8 8v20.8c0 35.5-12.9 68.9-36.3 94.1-3 3.2-7.2 5.1-11.7 5.1s-8.7-1.9-11.7-5.1C236.9 353.7 224 320.3 224 284.8V264c0-4.4 3.6-8 8-8h16c4.4 0 8 3.6 8 8M377 105 279.1 7c-4.5-4.5-10.6-7-17-7H256v128h128v-6.1c0-6.3-2.5-12.4-7-16.9"/></svg>