<svg height="512" width="576" xmlns="http://www.w3.org/2000/svg"><path d="M218.2 424.1c-3-5.9-8.1-6.5-10.2-6.5s-7.2.6-10 6.2l-7.7 15.3c-6.4 12.8-25 11.4-29.5-2L144 386.6l-10.6 31.9C127.5 436.1 111 448 92.4 448H80c-8.8 0-16-7.2-16-16s7.2-16 16-16h12.4c4.8 0 9.1-3.1 10.6-7.7l18.2-54.6c3.3-9.8 12.5-16.4 22.8-16.4s19.5 6.6 22.8 16.4l13.9 41.6c19.7-16.2 54-9.7 66 14.2 1.8 3.8 5.4 5.9 9.3 6.3v-82.2L384 206.5V160H248c-13.2 0-24-10.8-24-24V0H24C10.7 0 0 10.7 0 24v464c0 13.3 10.7 24 24 24h336c13.3 0 24-10.7 24-24v-40l-128-.1c-16.1-.3-30.6-9.3-37.8-23.8M384 121.9c0-6.3-2.5-12.4-7-16.9L279.1 7c-4.5-4.5-10.6-7-17-7H256v128h128zM288 347v69h69L518.7 253.2l-67.9-67.9zM568.5 167.3l-31.8-31.8c-10-10-26.1-10-36 0l-27.3 27.2 67.9 67.9 27.2-27.3c10-9.9 10-26 0-36"/></svg>