<svg height="1000" width="750" xmlns="http://www.w3.org/2000/svg"><path d="M722.5 191.2c17.5 17.6 27.5 41.6 27.5 66.4v648.7c0 51.7 -42 93.7 -93.8 93.7H93.7C42 1000 0 958 0 906.3V93.8C0 42 42 0 93.7 -.2h398.7c24.8 0 48.6 10 66.2 27.5zM648.6 250L500 101.4V250h148.6zM93.8 906.3h562.5V343.8H453.1c-26 0 -46.8 -20.9 -46.8 -46.9V93.8H93.8v812.5zm414 -468.8c18 0 29.3 19.5 20.1 35.2 -31.2 53.7 -89 150.2 -90.4 152.3l90.6 152.3c9 15.7 -2.1 35.2 -20.3 35.2h-56.2c-8.6 0 -16.6 -4.7 -20.7 -12.3C386.5 718.6 404.1 746.5 375 687.5c-10.9 24.8 -13.5 34.6 -55.9 112.7 -4.1 7.6 -11.9 12.3 -20.5 12.3h-56.4c-18.2 0 -29.5 -19.5 -20.3 -35.2L312.3 625 221.9 472.7c-9 -15.7 2.1 -35.2 20.3 -35.2h56.4c8.6 0 16.6 4.7 20.7 12.3 42.4 78.9 28.7 55.9 55.9 112.7 12.5 -29.9 20.7 -48 55.9 -112.7 4.1 -7.6 11.9 -12.3 20.5 -12.3h56.2z"/></svg>