<svg height="1000" width="750" xmlns="http://www.w3.org/2000/svg"><path d="M292.8 681.8c6.8 6.5 7.2 17.4 .8 24.3l-34 36.3c-3.2 3.5 -7.8 5.5 -12.5 5.5 -4.3 0 -8.6 -1.8 -11.7 -4.7L122.7 637.5c-7.3 -6.6 -7.3 -18.2 0 -25L235.4 506.8c6.6 -6.4 17.5 -6.2 24.2 .8l34 36.3 .3 .4c6.3 7.1 5.5 18 -1.5 24.3L228.3 625l64.1 56.4zM722.5 191.2c17.5 17.6 27.5 41.6 27.5 66.4v648.7c0 51.7 -42 93.7 -93.8 93.7H93.7C42 1000 0 958 0 906.3V93.8C0 42 42 0 93.7 -.2h398.7c24.8 0 48.6 10 66.2 27.5zM500 101.4V250h148.6zm156.3 804.9V343.8H453.1c-26 0 -46.8 -20.9 -46.8 -46.9V93.8H93.8v812.5h562.5zM409.4 418l47.6 13.6c9.2 2.6 14.5 12.2 11.8 21.3L361.9 820.5c-2.5 9 -12.1 14.5 -21.3 11.7L293 818.4c-9.2 -2.6 -14.5 -12.2 -11.7 -21.3L388.1 429.7c2.7 -9.2 12.1 -14.5 21.3 -11.7zm47.8 150.2c-6.8 -6.5 -7.2 -17.4 -.8 -24.3l34 -36.3c6.5 -7 17.4 -7.2 24.2 -.8l112.7 105.7c7.3 6.6 7.3 18.2 0 25L514.6 743.2c-6.8 6.4 -17.7 6 -24.2 -.8l-34 -36.3 -.3 -.4c-6.3 -7.1 -5.5 -18 1.5 -24.3L521.7 625l-64.1 -56.4z"/></svg>