<svg height="1000" width="750" xmlns="http://www.w3.org/2000/svg"><path d="M722.5 191.2c17.5 17.6 27.5 41.6 27.5 66.4v648.7c0 51.7 -42 93.7 -93.8 93.7H93.7C42 1000 0 958 0 906.3V93.8C0 42 42 0 93.7 -.2h398.7c24.8 0 48.6 10 66.2 27.5zM648.6 250L500 101.4V250h148.6zM93.8 906.3h562.5V343.8H453.1c-26 0 -46.8 -20.9 -46.8 -46.9V93.8H93.8v812.5zM523.6 500v-.4h30.9c15.2 0 26.4 14.3 22.6 29.1 -8.3 33.2 -26.7 105.7 -67.3 265.6 -2.6 10.6 -11.9 17.8 -22.7 17.8h-48.2c-10.8 0 -20.1 -7.4 -22.7 -17.8C405.9 753.5 381.4 655.7 381.3 654.9l-5.7 -33.8c-1 10.3 -2.9 21.7 -5.9 33.8l-34.9 139.4c-2.6 10.6 -11.9 17.8 -22.7 17.8h-49.2c-10.9 0 -20.3 -7.2 -22.9 -17.8C227.3 742.6 190.8 592.4 175.2 528.7c-3.5 -14.6 7.6 -28.9 22.8 -28.9h32.9c11.3 0 20.9 8 23 18.9 9.8 50.2 35.9 183.3 37.3 193.4 .6 3.3 .8 6.1 1 8.2 1.6 -14.6 .8 -9.2 48.4 -202.5 2.8 -10.4 12.1 -17.8 22.9 -17.8h26c10.9 0 20.3 7.4 22.8 18 46.7 194.7 44.5 184.3 46.1 194.3 .6 3.3 1 6.1 1.4 8.4 1.1 -15.8 .7 -11.3 41 -202.1 2.1 -10.8 11.7 -18.6 22.8 -18.6z"/></svg>