<svg height="1000" width="750" xmlns="http://www.w3.org/2000/svg"><path d="M722.5 191.3L558.7 27.5A93.8 -93.8 0 0 1 492.4 0H93.8C42 0 0 42 0 93.8v812.5C0 958 42 1000 93.8 1000h562.5c51.7 0 93.7 -42 93.7 -93.7V257.6a93.8 -93.8 0 0 1 -27.5 -66.3zM500 101.3L648.7 250H500V101.3zm156.3 805H93.8V93.8h155.6V125h62.5V93.8h94.4v203.1c0 25.9 20.9 46.9 46.8 46.9h203.2v562.5zM375.5 187.5H313V125h62.5v62.5zm-62.5 0V250h-62.5v-62.5H313zm0 125V375h-62.5v-62.5H313zm62.5 0H313V250h62.5v62.5zm3.8 206.4a23.4 -23.4 0 0 1 -23 -18.9H313v-62.5h-62.5V500l-38.4 189.7c-12.9 63.4 35.6 122.8 100.4 122.8 64.6 0 113 -59 100.5 -122.3L379.3 518.9zm-66.3 243c-35 0 -63.3 -23.7 -63.3 -52.8 0 -29.2 28.3 -52.8 63.3 -52.8s63.4 23.6 63.4 52.8c0 29.1 -28.4 52.8 -63.4 52.8zm62.5 -324.4H313V375h62.5v62.5z"/></svg>