<svg height="1000" width="750" xmlns="http://www.w3.org/2000/svg"><path d="M722.5 191.3L558.7 27.5A93.8 -93.8 0 0 1 492.4 0H93.8C42 0 0 42 0 93.8v812.5C0 958 42 1000 93.8 1000h562.5c51.7 0 93.7 -42 93.7 -93.7V257.6a93.8 -93.8 0 0 1 -27.5 -66.3zM648.7 250H500V101.3L648.7 250zM93.8 906.3V93.8h312.5v203.1c0 25.9 20.9 46.9 46.8 46.9h203.2v562.5H93.8zM292.3 681.4L228.2 625l64.1 -56.4a17.2 -17.2 0 0 1 1.2 -24.7l-34 -36.2c-6.6 -7.1 -17.5 -7.2 -24.3 -.8L122.6 612.5c-7.2 6.7 -7.2 18.3 0 25l112.6 105.6a17.1 -17.1 0 0 1 11.8 4.7 17.1 -17.1 0 0 1 12.5 -5.5l34 -36.2a17.2 -17.2 0 0 1 -1.2 -24.7zM457 431.7l-47.7 -13.8A17.2 -17.2 0 0 1 388 429.6L281.3 797c-2.6 9.1 2.6 18.7 11.7 21.3l47.7 13.8c9.1 2.7 18.7 -2.6 21.3 -11.7L468.7 453c2.6 -9.1 -2.6 -18.6 -11.7 -21.3zm170.4 180.8L514.8 506.9c-6.9 -6.5 -17.8 -6.2 -24.3 .8l-34 36.2a17.2 -17.2 0 0 1 1.2 24.7l64.1 56.4 -64.1 56.4a17.2 -17.2 0 0 1 -1.2 24.7l34 36.2a17.2 -17.2 0 0 1 24.3 .8L627.4 637.5c7.2 -6.7 7.2 -18.3 0 -25z"/></svg>