<svg height="512" width="384" xmlns="http://www.w3.org/2000/svg"><path d="M224 136V0H24C10.7 0 0 10.7 0 24v464c0 13.3 10.7 24 24 24h336c13.3 0 24-10.7 24-24V160H248c-13.2 0-24-10.8-24-24M64 72c0-4.4 3.6-8 8-8h80c4.4 0 8 3.6 8 8v16c0 4.4-3.6 8-8 8H72c-4.4 0-8-3.6-8-8zm0 64c0-4.4 3.6-8 8-8h80c4.4 0 8 3.6 8 8v16c0 4.4-3.6 8-8 8H72c-4.4 0-8-3.6-8-8zm192.8 248H304c8.8 0 16 7.2 16 16s-7.2 16-16 16h-47.2c-16.4 0-31.3-9.1-38.6-23.9-3-5.9-8.1-6.5-10.2-6.5s-7.2.6-10 6.2l-7.7 15.3A16 16 0 0 1 176 416c-.4 0-.7 0-1.1-.1-6.5-.4-12-4.7-14.1-10.9L144 354.6l-10.6 31.9C127.5 404.1 111 416 92.4 416H80c-8.8 0-16-7.2-16-16s7.2-16 16-16h12.4c4.8 0 9.1-3.1 10.6-7.7l18.2-54.6c3.3-9.8 12.5-16.4 22.8-16.4s19.5 6.6 22.8 16.4l13.9 41.6c19.7-16.2 54-9.7 66 14.2 2 4.1 5.9 6.5 10.1 6.5M377 105 279.1 7c-4.5-4.5-10.6-7-17-7H256v128h128v-6.1c0-6.3-2.5-12.4-7-16.9"/></svg>