<svg height="512" width="576" xmlns="http://www.w3.org/2000/svg"><path d="M512 320s-64 92.6-64 128 28.7 64 64 64 64-28.6 64-64S512 320 512 320m-9.4-102.9L294.9 9.4C288.7 3.1 280.5 0 272.3 0s-16.4 3.1-22.6 9.4L168.1 91 81.9 4.8c-6.2-6.3-16.3-6.3-22.6 0L36.7 27.4c-6.3 6.2-6.3 16.4 0 22.6l86.2 86.2-94.8 94.7c-37.5 37.5-37.5 98.3 0 135.8l117.2 117.2c18.8 18.7 43.3 28.1 67.9 28.1s49.1-9.4 67.9-28.1L502.6 262.3c12.5-12.5 12.5-32.7 0-45.2M386.4 288H65.9c1.4-3.8 3.6-8 7.5-11.8l13.1-13.1 81.6-81.7 58.6 58.6c12.5 12.5 32.8 12.5 45.3 0s12.4-32.7 0-45.2l-58.6-58.6 58.9-59 162.5 162.5z"/></svg>