<svg height="512" width="512" xmlns="http://www.w3.org/2000/svg"><path d="M256.1 246c-13.2 0-24 10.7-24 24 1.2 72.2-8.1 141.9-27.7 211.5-2.7 9.7 2.2 30.5 23.1 30.5 10.5 0 20.2-6.9 23.1-17.5C264.2 446.6 281.7 369.1 280.1 270c0-13.3-10.7-24-24-24m-.8-81.8c-61.3 0-104 47.1-103.2 101.1.7 48-3.8 95.9-13.4 142.6-2.7 13 5.7 25.7 18.7 28.3 13 2.7 25.6-5.6 28.3-18.6 10.4-50.1 15.2-101.6 14.4-153-.4-26 19.9-52.5 54.5-52.4 31.3.5 57.1 25.4 57.6 55.5.7 48.1-2.8 96.3-10.6 143.6-2.2 13 6.7 25.4 19.7 27.5 20 3.4 26.8-15.1 27.6-19.7C357.2 369 361 317.9 360.2 267c-.9-55.8-48-101.9-104.9-102.8M144.6 144.5c-10.3-8.4-25.4-6.8-33.8 3.4-25.6 31.5-39.4 71.3-38.7 112 .6 37.6-2.5 75.3-9.1 112.1-2.4 13 6.3 25.5 19.3 27.9 20.1 3.5 27.1-14.8 27.9-19.4 7.2-39.8 10.5-80.6 9.9-121.3-.5-29.9 9.2-57.9 28-81 8.3-10.3 6.7-25.4-3.5-33.7M254 82.1c-15.4-.4-30.8 1.5-45.7 5-12.9 3.1-20.9 16-17.9 28.9 3.1 12.9 16 20.8 28.9 17.8 11.1-2.6 22.5-3.8 34-3.7 75.5 1.2 137.7 61.5 138.9 134.6.6 37.9-1.3 76.1-5.6 113.6-1.5 13.2 8 25.1 21.1 26.6 16.8 2 25.5-11.9 26.6-21.1A929 929 0 0 0 440.2 264C438.6 165.2 355.1 83.6 254 82.1m252.1 121.5c-2.8-12.9-15.5-21.2-28.6-18.3-12.9 2.9-21.1 15.7-18.3 28.6 4.7 21.4 5 37.4 4.7 61.6-.1 13.3 10.6 24.1 23.8 24.2h.2c13.2 0 23.9-10.6 24-23.8.2-22.2.4-44.1-5.8-72.3M466 112.9C417.3 43.5 337.6 1.3 252.8 0 183-.8 118.5 24.9 70.5 72.9 24.1 119.4-.9 181 .1 246.7L0 268.1c-.4 13.3 10 24.3 23.3 24.7.2 0 .5 0 .7 0 12.9 0 23.6-10.3 24-23.3l.1-23.6c-.8-52.5 19.2-101.9 56.3-139C143.2 68.1 195.8 47.2 252.1 48c69.5 1.1 134.7 35.6 174.6 92.4 7.6 10.9 22.6 13.5 33.5 5.9 10.8-7.6 13.4-22.6 5.8-33.5z"/></svg>