<svg height="512" width="512" xmlns="http://www.w3.org/2000/svg"><path d="M503.5 241.5c-.1-1.6-.2-3.1-.2-4.7v-.1l-.4-4.7v-.1a246 246 0 0 0-7.3-41.2c0-.1 0-.1-.1-.2l-1.1-4c-.1-.3-.1-.5-.2-.6-.4-1.2-.8-2.5-1.1-3.7-.1-.3-.1-.6-.3-.9-.3-1.2-.7-2.4-1-3.5-.2-.3-.3-.6-.4-1-.4-1.2-.7-2.2-1.2-3.4l-.4-1.1c-.3-1.1-.8-2.3-1.2-3.4a8 8 0 0 0-.3-1c-.5-1.1-.9-2.3-1.3-3.3-.2-.3-.3-.6-.4-.9-.5-1.2-1-2.3-1.4-3.5 0-.1-.2-.2-.2-.3-1.5-3.9-3.2-7.7-5-11.4l-.3-.7c-.5-1-.9-1.8-1.3-2.7-.3-.5-.5-1.1-.8-1.5-.3-.9-.8-1.6-1.2-2.4-.3-.6-.6-1.2-1-1.8s-.8-1.5-1.2-2.3c-.3-.6-.7-1.3-1-1.9s-.9-1.5-1.2-2.2a18 18 0 0 0-1.2-2c-.4-.7-.9-1.3-1.2-2s-.9-1.3-1.2-2-.9-1.3-1.2-1.9-.9-1.5-1.4-2.2a16 16 0 0 0-1.2-1.8l-1.4-2.1a16 16 0 0 0-1.2-1.8c-.5-.7-1.1-1.6-1.6-2.3-.3-.5-.7-1.1-1-1.5l-1.8-2.6c-.4-.4-.6-.8-1-1.3-1-1.3-1.8-2.5-2.8-3.7A249 249 0 0 0 430.3 79.2 187 187 0 0 0 412 62.5c-4-3.5-8.2-6.8-12.5-9.9A162.5 162.5 0 0 0 374.9 37.5c-2.4-1.3-4.8-2.5-7.2-3.7A254 254 0 0 0 312.3 14.2c-1.9-.3-3.9-.8-5.7-1.2h-.1c-1-.1-1.8-.3-2.7-.5a236 236 0 0 0-38-4h-10.7a234.6 234.6 0 0 0-45.4 5c-33.6 7.1-63.3 21.3-82.9 39-1.1 1-2 1.7-2.5 2.2l-.4.5h.1l-.1.1.1-.1a.1.1 0 0 0 .1-.1l-.1.1a.4.4 0 0 1 .2-.1c14.7-8.8 35-16 49.5-19.6l5.9-1.4c.3-.2.8-.2 1.2-.3 1.6-.3 3.3-.7 5.1-1.1.3 0 .6-.1.9-.1 64.1-11.7 132.5 7.5 180.2 53a171.5 171.5 0 0 1 26.9 32.8c30.3 49.2 27.5 111.1 3.8 147.6-34.4 53-111.3 71.2-159 24.8a84.2 84.2 0 0 1-25.5-59 74 74 0 0 1 6.2-31c1.7-3.8 13.1-25.7 18.2-24.6-13-2.7-37.5 2.6-54.7 28.2-15.3 22.9-14.5 58.2-5 83.3a132.8 132.8 0 0 1-12.1-39.3c-12.2-82.5 43.3-153 94.3-170.5C232.6 53.9 163.7 55.6 112.4 93.3c-29.9 22-51.2 53.1-62.5 90.4 1.7-20.9 9.6-52.1 25.8-83.9-17.2 8.9-39 37-49.8 62.9C10.3 200.1 4.9 244.8 9.8 287.4c.4 3.3.7 6.4 1.1 9.6 19.9 117.2 122 206.4 244.8 206.4C392.8 503.4 504 392.2 504 255c-.1-4.5-.2-9.1-.5-13.5"/></svg>