<svg height="512" width="448" xmlns="http://www.w3.org/2000/svg"><path d="m434 26.3-168 28C254.7 56.2 256 67.8 256 72h-58.3C208.4 36.1 181.4 0 144 0 104.6 0 77.6 39.7 91.8 76.2 39.7 89.3 16.4 130.4 1.7 167.1c-4.9 12.3 1.1 26.3 13.4 31.2s26.3-1.1 31.2-13.4C75.1 113 107 120 168 120v27.1c-41.5 10.8-72 49.2-72 94.1V488c0 13.3 10.7 24 24 24h144c13.3 0 24-10.7 24-24V240c0-44.7-30.6-82.3-72-93v-27h40c0 3-1.7 15.7 10 17.7l168 28c7.3 1.2 14-4.4 14-11.9V38.2c0-7.5-6.7-13.1-14-11.9M144 72c-8.8 0-16-7.2-16-16s7.2-16 16-16 16 7.2 16 16-7.2 16-16 16"/></svg>