<svg height="512" width="512" xmlns="http://www.w3.org/2000/svg"><path d="M130.6 123.5c.2 0 .1 0 0 0m351.5 45.3c-10.7-25.5-32.1-53-49-61.7 13.7 26.9 21.7 53.9 24.7 74 0 0 0 .2.1.4C430.3 112.8 383.5 85.1 345.3 24.7c-1.9-3.1-3.9-6.1-5.7-9.3q-1.5-2.55-2.7-5.1A45 45 0 0 1 333.2.7a.6.6 0 0 0-.5-.7.9.9 0 0 0-.5 0l-.1.1-.2.1.1-.1c-54.2 31.7-76.7 87.3-82.5 122.7a130 130 0 0 0-48.3 12.4 6.3 6.3 0 0 0-3.1 7.7 6.1 6.1 0 0 0 7.8 3.8l.5-.2a117.8 117.8 0 0 1 42.1-11l1.5-.1c2-.1 4-.2 6-.2a122.6 122.6 0 0 1 35 4.8c.7.2 1.3.4 2 .6 1.9.6 3.8 1.2 5.6 1.9 1.4.5 2.7 1 4.1 1.6 1.1.4 2.2.9 3.2 1.3q2.5 1.2 5 2.4c.8.4 1.5.7 2.3 1.1q2.4 1.3 4.7 2.6 1.5.9 3 1.8a124.9 124.9 0 0 1 42.7 44.2c-13-9.2-36.4-18.2-58.8-14.3 87.7 43.9 64.1 194.9-57.4 189.2a108.4 108.4 0 0 1-31.8-6.1c-2.4-.9-4.8-1.9-7.1-3-1.4-.6-2.8-1.2-4.2-2C174.5 346 149.9 316.9 146.8 281.6c0 0 11.3-42 80.7-42 7.5 0 28.9-20.9 29.3-27-.1-2-42.6-18.8-59.1-35.1-8.9-8.8-13.1-13-16.8-16.1a70 70 0 0 0-6.3-4.8A113 113 0 0 1 173.9 97c-25 11.4-44.5 29.5-58.7 45.4h-.1c-9.7-12.3-9-52.7-8.4-61.1-.2-.5-7.3 3.7-8.2 4.3A178.5 178.5 0 0 0 74.7 106a214 214 0 0 0-22.8 27.4 205.8 205.8 0 0 0-32.7 73.9c-.1.2-2.4 10.2-4 22.4q-.4 2.9-.8 5.8c-.6 3.7-1 7.7-1.4 14 0 .2 0 .5-.1.7-.2 2.7-.3 5.4-.5 8.1 0 .4 0 .8 0 1.3 0 134.7 109.2 243.8 243.9 243.8 120.7 0 220.8-87.5 240.5-202.6.4-3.1.7-6.2 1.1-9.4 4.8-41.8-.6-85.8-15.8-122.5z"/></svg>