<svg height="512" width="496" xmlns="http://www.w3.org/2000/svg"><path d="M248 8C111 8 0 119 0 256s111 248 248 248S496 393 496 256 385 8 248 8m0 488.2C115.3 496.2 7.8 388.7 7.8 256S115.3 15.8 248 15.8 488.2 123.3 488.2 256 380.7 496.2 248 496.2m0-459.9C126.7 36.3 28.3 134.7 28.3 256S126.7 475.7 248 475.7 467.7 377.3 467.7 256 369.3 36.3 248 36.3m0 431.2C131.2 467.5 36.5 372.8 36.5 256S131.2 44.5 248 44.5 459.5 139.2 459.5 256 364.8 467.5 248 467.5m186.2-163a191.6 191.6 0 0 1-20.1 48.7L340 317.3l61.5 54.9a193.5 193.5 0 0 1-37.2 37.2l-54.8-61.5 35.8 74.2a191 191 0 0 1-48.6 20.3l-27.3-78.5 4.8 82.9c-8.6 1.2-17.4 1.8-26.3 1.8s-17.7-.6-26.4-1.8l4.8-82.4-27.1 78a191.4 191.4 0 0 1-48.7-20.2l35.9-74.3-54.8 61.6A193.8 193.8 0 0 1 94.3 372.2l61.6-54.9-74.2 36A191.6 191.6 0 0 1 61.5 304.6l77.9-27.1-82.3 4.7C56 273.7 55.4 264.9 55.4 256c0-9 .6-17.8 1.8-26.5l82.4 4.8-78-27.2a191.7 191.7 0 0 1 20.3-48.7l74.2 36L94.6 139.5a193.8 193.8 0 0 1 37.2-37.2l54.8 61.5L150.8 89.6a191.5 191.5 0 0 1 48.6-20.1l26.9 77.3-4.7-81.6c8.6-1.2 17.4-1.8 26.3-1.8s17.7.6 26.3 1.8l-4.7 82.1 27-77.7c17.3 4.5 33.6 11.3 48.7 20.1l-35.9 74.1 54.8-61.4a193 193 0 0 1 37.2 37.2l-61.5 54.8L414 158.5a191.5 191.5 0 0 1 20.2 48.7l-77.8 27.1 82.2-4.8c1.2 8.7 1.8 17.5 1.8 26.5 0 8.9-.6 17.6-1.8 26.2l-82.1-4.8z"/></svg>