<svg height="512" width="512" xmlns="http://www.w3.org/2000/svg"><path d="M336.2 80C287 80 242.9 48 174.3 48 143 48 116 54.5 93.5 63.2a48 48 0 0 0 2.2-20.8C93.1 19.6 74.2 1.6 51.2.1 23.2-1.7 0 20.4 0 48c0 17.8 9.7 33.3 24 41.6V496c0 8.8 7.2 16 16 16h16c8.8 0 16-7.2 16-16v-83.4C109.9 395.3 143.3 384 199.8 384c49.2 0 93.3 32 161.9 32 58.5 0 102-22.6 128.6-40 13.5-8.8 21.7-23.9 21.7-40.1v-240C512 61.5 476.7 38.2 445.1 51.8 409.2 67.3 371.6 80 336.2 80M464 336c-21.8 15.4-60.8 32-102.3 32-59.9 0-102-32-161.9-32-43.3 0-96.4 9.4-127.8 24V128C93.8 112.6 132.8 96 174.3 96c59.9 0 102 32 161.9 32 43.2 0 96.3-17.4 127.8-32z"/></svg>