<svg height="1000" width="1000" xmlns="http://www.w3.org/2000/svg"><path d="M656.6 156.3c69.3 0 142.6 -24.8 212.7 -55.1 61.8 -26.7 130.7 18.9 130.7 86.2V656c0 31.6 -15.9 61.1 -42.4 78.4 -51.9 33.9 -136.9 78.1 -251.1 78.1C572.5 812.5 486.2 750 390.3 750c-110.5 0 -175.7 22 -249.7 55.8v163c0 17.2 -14 31.2 -31.2 31.2H78.1c-17.2 0 -31.2 -14 -31.2 -31.2V174.9C18.9 158.7 0 128.4 0 93.8 0 39.9 45.4 -3.3 100 .2c44.9 2.9 81.8 38 86.9 82.7 .4 3.6 .6 7.1 .6 10.8 0 10.4 -1.7 20.4 -4.8 29.7 43.8 -17 96.5 -29.6 157.7 -29.6 134 0 220.2 62.5 316.2 62.5zm249.7 500V187.5C844.7 216.1 741.1 250 656.6 250c-117 0 -199.2 -62.5 -316.2 -62.5 -81 0 -157.2 32.4 -199.8 62.5v453.1c61.4 -28.5 165 -46.8 249.7 -46.8 117 0 199.1 62.5 316.2 62.5 81 0 157.2 -32.4 199.8 -62.5z"/></svg>