<svg height="1000" width="1000" xmlns="http://www.w3.org/2000/svg"><path d="M656.6 156.3c-96 0 -182.2 -62.5 -316.2 -62.5 -61.2 0 -113.9 12.6 -157.7 29.6a93.8 -93.8 0 0 1 4.2 -40.5C181.8 38.2 144.9 3.1 100 .2 45.4 -3.3 0 39.9 0 93.8c0 34.6 18.9 64.9 46.9 81.1v793.9c0 17.2 14 31.2 31.2 31.2h31.3c17.2 0 31.2 -14 31.2 -31.2v-163C214.6 772 279.8 750 390.3 750c95.9 0 182.2 62.5 316.2 62.5 114.2 0 199.2 -44.2 251.1 -78.1C984.1 717.1 1000 687.6 1000 656V187.4c0 -67.3 -68.9 -112.9 -130.7 -86.2 -70.1 30.3 -143.4 55.1 -212.7 55.1zm249.7 500c-42.6 30.1 -118.8 62.5 -199.8 62.5 -117.1 0 -199.2 -62.5 -316.2 -62.5 -84.7 0 -188.3 18.3 -249.7 46.8V250c42.6 -30.1 118.8 -62.5 199.8 -62.5 117 0 199.2 62.5 316.2 62.5 84.5 0 188.1 -33.9 249.7 -62.5v468.8z"/></svg>