<svg height="1000" width="875" xmlns="http://www.w3.org/2000/svg"><path d="M847.5 253.8L683.7 90A93.8 -93.8 0 0 1 617.4 62.5H93.8C42 62.5 0 104.5 0 156.3v687.5c0 51.7 42 93.7 93.8 93.7h687.5c51.7 0 93.7 -42 93.7 -93.7V320.1a93.8 -93.8 0 0 1 -27.5 -66.3zM531.3 156.3v156.2h-250V156.3h250zm238.2 687.5h-664A11.7 -11.7 0 0 0 93.8 832V168a11.7 -11.7 0 0 0 11.7 -11.7h82v203.1c0 25.9 21 46.9 46.9 46.9h343.7c25.9 0 46.9 -21 46.9 -46.9V163.8l152.8 152.9a11.7 -11.7 0 0 0 3.5 8.2V832a11.7 -11.7 0 0 0 -11.8 11.8zm-332 -390.7c-94.8 0 -171.9 77.1 -171.9 171.9s77.1 171.9 171.9 171.9S609.4 719.8 609.4 625 532.3 453.1 437.5 453.1zm0 250c-43.1 0 -78.1 -35 -78.1 -78.1s35 -78.1 78.1 -78.1 78.1 35 78.1 78.1 -35 78.1 -78.1 78.1z"/></svg>