<svg height="1000" width="968.8" xmlns="http://www.w3.org/2000/svg"><path d="M484.4 15.6C216.8 15.6 0 232.4 0 500s216.8 484.4 484.4 484.4S968.8 767.6 968.8 500 752 15.6 484.4 15.6zm0 875C268.9 890.6 93.8 715.4 93.8 500S268.9 109.4 484.4 109.4 875 284.6 875 500 699.8 890.6 484.4 890.6zM671.9 281.3c-86.4 0 -156.3 69.9 -156.3 156.2s69.9 156.3 156.3 156.3 156.2 -70 156.2 -156.3S758.2 281.3 671.9 281.3zm0 250c-51.8 0 -93.8 -42 -93.8 -93.8s42 -93.7 93.8 -93.7 93.7 41.9 93.7 93.7 -42 93.8 -93.7 93.8zm0 -140.7c-26 0 -46.9 20.9 -46.9 46.9s20.9 46.9 46.9 46.9 46.9 -20.9 46.9 -46.9 -20.9 -46.9 -46.9 -46.9zm-218.8 46.9c0 -86.3 -69.9 -156.2 -156.2 -156.2S140.6 351.2 140.6 437.5s69.9 156.3 156.3 156.3 156.2 -70 156.2 -156.3zm-156.2 93.8c-51.8 0 -93.8 -42 -93.8 -93.8s42 -93.7 93.8 -93.7 93.7 41.9 93.7 93.7 -42 93.8 -93.7 93.8zm0 -140.7c-26 0 -46.9 20.9 -46.9 46.9s20.9 46.9 46.9 46.9 46.9 -20.9 46.9 -46.9 -20.9 -46.9 -46.9 -46.9zm312.5 281.3h-250c-25.8 0 -46.9 21.1 -46.9 46.9s21.1 46.8 46.9 46.8h250c25.8 0 46.9 -21.1 46.9 -46.8s-21.1 -46.9 -46.9 -46.9z"/></svg>