<svg height="1000" width="968.8" xmlns="http://www.w3.org/2000/svg"><path d="M484.4 15.6C752 15.6 968.8 232.4 968.8 500S752 984.4 484.4 984.4 0 767.6 0 500 216.8 15.6 484.4 15.6zm0 875C699.8 890.6 875 715.4 875 500S699.8 109.4 484.4 109.4 93.8 284.6 93.8 500s175.1 390.6 390.6 390.6zM671.9 281.3c86.3 0 156.2 69.9 156.2 156.2S758.2 593.8 671.9 593.8 515.6 523.8 515.6 437.5 585.5 281.3 671.9 281.3zm0 250c51.7 0 93.7 -42 93.7 -93.8s-42 -93.7 -93.7 -93.7 -93.8 41.9 -93.8 93.7 42 93.8 93.8 93.8zm0 -140.7c26 0 46.9 20.9 46.9 46.9s-20.9 46.9 -46.9 46.9S625 463.5 625 437.5s20.9 -46.9 46.9 -46.9zm-218.8 46.9c0 86.3 -69.9 156.3 -156.2 156.3S140.6 523.8 140.6 437.5 210.5 281.3 296.9 281.3s156.2 69.9 156.2 156.2zm-156.2 93.8c51.7 0 93.7 -42 93.7 -93.8s-42 -93.7 -93.7 -93.7 -93.8 41.9 -93.8 93.7 42 93.8 93.8 93.8zm0 -140.7c26 0 46.9 20.9 46.9 46.9s-20.9 46.9 -46.9 46.9S250 463.5 250 437.5s20.9 -46.9 46.9 -46.9zm312.5 281.3c25.8 0 46.9 21.1 46.9 46.9s-21.1 46.8 -46.9 46.8h-250c-25.8 0 -46.9 -21.1 -46.9 -46.8s21.1 -46.9 46.9 -46.9h250z"/></svg>