<svg height="512" width="384" xmlns="http://www.w3.org/2000/svg"><path d="M197.8 427.8c12.9 11.7 33.7 33.3 33.2 50.7 0 .8-.1 1.6-.1 2.5-1.8 19.8-18.8 31.1-39.1 31-25-.1-39.9-16.8-38.7-35.8 1-16.2 20.5-36.7 32.4-47.6 2.3-2.1 2.7-2.7 5.6-3.6 3.4 0 3.9.3 6.7 2.8M331.9 67.3C315.6 41.6 293.3 26.7 268.6 15.2 243.1 4.5 214-.2 192 0c-44.1 0-71.2 13.2-81.1 17.3C57.3 45.2 26.5 87.2 28 158.6c7.1 82.2 97 176 155.8 233.8 1.7 1.6 4.5 4.5 6.2 5.1l3.3.1c2.1-.7 1.8-.5 3.5-2.1C249.1 346.3 337.5 249.7 352.7 179.8c7-39.2 3.1-72.5-20.8-112.5M186.8 351.9c-28-51.1-65.2-130.7-69.3-189C114.1 115.4 128.9 31.7 186.8 26.2zM328.7 180c-16.4 56.8-77.3 128-118.9 170.3C237.6 298.4 275 217 277 158.4 278.6 112.5 267.2 52.6 229 27c88.8 18.3 115.5 98.1 99.7 153"/></svg>