<svg height="512" width="496" xmlns="http://www.w3.org/2000/svg"><path d="M481.5 60.3C476.7 42.1 462.4 27.8 444.2 22.9 420.3 16.5 383 8.9 339.4 8L496 164.8c-.8-43.5-8.2-80.6-14.5-104.5m-467 391.4c4.8 18.2 19.1 32.5 37.3 37.4 23.9 6.4 61.2 14 104.8 14.9L0 347.2c.8 43.5 8.2 80.6 14.5 104.5M4.2 283.4 220.4 500C352.9 480.6 469.2 381.3 491.9 228.6L275.6 12C143.1 31.4 26.8 130.7 4.2 283.4M321.5 159.8c3.1-3.1 8.2-3.1 11.3 0l11.3 11.3c3.1 3.1 3.1 8.2 0 11.3l-28.3 28.3 28.3 28.3c3.1 3.1 3.1 8.2 0 11.3l-11.3 11.3c-3.1 3.1-8.2 3.1-11.3 0l-28.3-28.3L270.6 256l28.3 28.3c3.1 3.1 3.1 8.2 0 11.3l-11.3 11.3c-3.1 3.1-8.2 3.1-11.3 0L248 278.6l-22.6 22.6 28.3 28.3c3.1 3.1 3.1 8.2 0 11.3l-11.3 11.3c-3.1 3.1-8.2 3.1-11.3 0l-28.3-28.3-28.3 28.3c-3.1 3.1-8.2 3.1-11.3 0l-11.3-11.3c-3.1-3.1-3.1-8.2 0-11.3l28.3-28.3L151.9 273c-3.1-3.1-3.1-8.2 0-11.3l11.3-11.3c3.1-3.1 8.2-3.1 11.3 0l28.3 28.3 22.6-22.6-28.3-28.3c-3.1-3.1-3.1-8.2 0-11.3l11.3-11.3c3.1-3.1 8.2-3.1 11.3 0l28.3 28.3 22.6-22.6-28.3-28.3c-3.1-3.1-3.1-8.2 0-11.3L253.6 160c3.1-3.1 8.2-3.1 11.3 0l28.3 28.3z"/></svg>