<svg height="512" width="448" xmlns="http://www.w3.org/2000/svg"><path d="M303.7 96.2C314.8 85.1 419.2 19.2 442.9 43c23.7 23.7-42.1 128.1-53.2 139.2s-39.4.9-63.1-22.9c-23.8-23.7-34.1-52-22.9-63.1M109.9 68.1C73.6 47.5 22 24.6 5.6 41.1c-16.6 16.6 7.1 69.4 27.9 105.7C52 114.6 78.3 87.5 109.9 68.1M406.7 174c3.3 11.3 2.7 20.7-2.7 26.1-20.3 20.3-87.5-27-109.3-70.1-18-32.3-11.1-53.4 14.9-48.7 5.7-3.6 12.3-7.6 19.6-11.6C299.4 54.2 265.6 45.4 229.7 45.4 110.6 45.4 14.1 141.9 14.1 261c0 119 96.5 215.6 215.6 215.6S445.3 380.1 445.3 261c0-38.4-10.1-74.5-27.7-105.8-3.9 7-7.6 13.3-10.9 18.8"/></svg>