<svg height="512" width="576" xmlns="http://www.w3.org/2000/svg"><path d="M446.5 97.4C439.7 60.2 407.2 32 368 32s-71.7 28.3-78.5 65.5C126.8 113-.5 250.1 0 417c.1 34.9 29.1 63 64 63h304c8.8 0 16-7.2 16-16 0-17.7-14.3-32-32-32h-79.5l35.8-48.3c24.1-36.3 10.4-88.3-33.7-106.6-23.9-10-51.5-4.7-72.2 10.9l-32.8 24.5c-7.1 5.4-17.1 4-22.4-3.1s-3.9-17.2 3.2-22.5l34.8-26c36.8-27.7 88.2-27.7 125.1 0 10.9 8.1 45.9 39 40.8 93.2L469.6 480H560c8.8 0 16-7.2 16-16 0-17.7-14.3-32-32-32h-53.6L391.9 327.3l154.4-86.6A58.2 58.2 0 0 0 576 189.9c0-21.4-11.7-40.9-30.5-51.2-40.5-22.2-99-41.3-99-41.3M368 136c-13.3 0-24-10.7-24-24s10.7-24 24-24 24 10.7 24 24-10.7 24-24 24"/></svg>