<svg height="1000" width="968.8" xmlns="http://www.w3.org/2000/svg"><path d="M484.4 15.6C216.8 15.6 0 232.4 0 500s216.8 484.4 484.4 484.4S968.8 767.6 968.8 500 752 15.6 484.4 15.6zm0 875C268.9 890.6 93.8 715.4 93.8 500S268.9 109.4 484.4 109.4 875 284.6 875 500 699.8 890.6 484.4 890.6zM390.6 406.3c0 -34.6 -27.9 -62.5 -62.5 -62.5s-62.5 27.9 -62.5 62.5 28 62.5 62.5 62.5 62.5 -28 62.5 -62.5zm250 -62.5c-34.5 0 -62.5 27.9 -62.5 62.5s28 62.5 62.5 62.5 62.5 -28 62.5 -62.5 -27.9 -62.5 -62.5 -62.5zM484.4 562.5c-69.6 0 -173.5 41.6 -187.1 119.5 -3.9 23.1 17.5 42 40 35.4 60.9 -18.8 116 -29.9 147.1 -29.9s86.1 11.1 147 29.9c22.3 6.8 44 -12.3 40.1 -35.4C657.8 604.1 553.9 562.5 484.4 562.5z"/></svg>