<svg height="512" width="496" xmlns="http://www.w3.org/2000/svg"><path d="M248 8C111 8 0 119 0 256s111 248 248 248S496 393 496 256 385 8 248 8m0 448C137.7 456 48 366.3 48 256S137.7 56 248 56s200 89.7 200 200S358.3 456 248 456M200 208c0-17.7-14.3-32-32-32s-32 14.3-32 32 14.3 32 32 32 32-14.3 32-32m128-32c-17.7 0-32 14.3-32 32s14.3 32 32 32 32-14.3 32-32-14.3-32-32-32m-80 112c-35.6 0-88.8 21.3-95.8 61.2-2 11.8 9 21.5 20.5 18.1C203.9 357.7 232.1 352 248 352s44.1 5.7 75.3 15.3c11.4 3.5 22.5-6.3 20.5-18.1C336.8 309.3 283.6 288 248 288"/></svg>