<svg height="1000" width="968.8" xmlns="http://www.w3.org/2000/svg"><path d="M484.4 15.6C752 15.6 968.8 232.4 968.8 500S752 984.4 484.4 984.4 0 767.6 0 500 216.8 15.6 484.4 15.6zm0 875C699.8 890.6 875 715.4 875 500S699.8 109.4 484.4 109.4 93.8 284.6 93.8 500s175.1 390.6 390.6 390.6zM328.1 468.8c-34.5 0 -62.5 -28 -62.5 -62.5s28 -62.5 62.5 -62.5 62.5 27.9 62.5 62.5 -27.9 62.5 -62.5 62.5zm312.5 -125c34.6 0 62.5 27.9 62.5 62.5s-27.9 62.5 -62.5 62.5 -62.5 -28 -62.5 -62.5 28 -62.5 62.5 -62.5zm-156.2 250c78.5 0 152.3 34.5 202.7 94.9 16.4 19.9 13.9 49.4 -6 66 -20.9 17.2 -50.2 12.9 -66.1 -6.1 -32.4 -39 -80 -61.3 -130.6 -61.3s-98.3 22.5 -130.7 61.3c-16.6 20 -46.1 22.5 -66 6.1 -19.9 -16.6 -22.7 -46.1 -6.1 -66C332 628.3 405.9 593.8 484.4 593.8z"/></svg>