<svg height="1000" width="968.8" xmlns="http://www.w3.org/2000/svg"><path d="M484.4 15.6C752 15.6 968.8 232.4 968.8 500S752 984.4 484.4 984.4 0 767.6 0 500 216.8 15.6 484.4 15.6zm0 875C699.8 890.6 875 715.4 875 500S699.8 109.4 484.4 109.4 93.8 284.6 93.8 500s175.1 390.6 390.6 390.6zM390.6 406.3c0 34.5 -27.9 62.5 -62.5 62.5s-62.5 -28 -62.5 -62.5 28 -62.5 62.5 -62.5 62.5 27.9 62.5 62.5zm250 -62.5c34.6 0 62.5 27.9 62.5 62.5s-27.9 62.5 -62.5 62.5 -62.5 -28 -62.5 -62.5 28 -62.5 62.5 -62.5zM484.4 562.5c69.5 0 173.4 41.6 187.1 119.5 3.9 23.1 -17.8 42.2 -40.1 35.4 -60.9 -18.8 -116 -29.9 -147 -29.9s-86.2 11.1 -147.1 29.9c-22.5 6.6 -43.9 -12.3 -40 -35.4C310.9 604.1 414.8 562.5 484.4 562.5z"/></svg>