<svg height="1000" width="968.8" xmlns="http://www.w3.org/2000/svg"><path d="M484.4 15.6C216.8 15.6 0 232.4 0 500s216.8 484.4 484.4 484.4S968.8 767.6 968.8 500 752 15.6 484.4 15.6zm0 875C268.9 890.6 93.8 715.4 93.8 500S268.9 109.4 484.4 109.4 875 284.6 875 500 699.8 890.6 484.4 890.6zM328.1 468.8c34.6 0 62.5 -28 62.5 -62.5s-27.9 -62.5 -62.5 -62.5 -62.5 27.9 -62.5 62.5 28 62.5 62.5 62.5zm312.5 -125c-34.5 0 -62.5 27.9 -62.5 62.5s28 62.5 62.5 62.5 62.5 -28 62.5 -62.5 -27.9 -62.5 -62.5 -62.5zm-156.2 250c-78.5 0 -152.4 34.5 -202.8 94.9 -16.6 19.9 -13.8 49.4 6.1 66 19.9 16.4 49.4 13.9 66 -6.1 32.4 -38.8 80.1 -61.3 130.7 -61.3s98.2 22.3 130.6 61.3c15.9 19 45.2 23.3 66.1 6.1 19.9 -16.6 22.4 -46.1 6 -66C636.7 628.3 562.9 593.8 484.4 593.8z"/></svg>