<svg height="1000" width="968.8" xmlns="http://www.w3.org/2000/svg"><path d="M944.9 350.4C1027.5 604.7 888.3 877.9 634 960.5c-49.8 16.3 -100.2 23.9 -149.8 23.9C280.1 984.4 90.2 854.3 23.8 649.6 -58.8 395.3 80.5 122.1 334.8 39.5 384.6 23.2 435 15.6 484.6 15.6c204.1 0 393.9 130.1 460.3 334.8zM799.4 728.7c11.9 -16.4 23.6 -33 32.8 -51.2 28 -54.8 42 -114.2 42.4 -174.2l-76 -71.1 -138.8 43.2 -47.7 146.9 85.4 118.9zm0 -459.8C751.6 203.7 684.8 154.9 608.2 129.5l-92.6 51.2v144.1L641 415.6l138.1 -42.9zM361.1 129.7c-77.9 26 -143.5 75.2 -191 140.4l19.7 102.6 137.9 42.9 125.4 -90.8V180.7zm-89.6 611.5l84.9 -120.5L309 475.6 170.1 432.2l-76.2 71.1c1 108.8 45.7 186 73.9 225.2zm94.1 130.9c125.2 39.8 225.6 3.5 237.7 0l43.8 -94L560.5 657.6H407l-85.1 120.5z"/></svg>