<svg height="512" width="496" xmlns="http://www.w3.org/2000/svg"><path d="M483.8 179.4C449.8 74.6 352.6 8 248.1 8c-25.4 0-51.2 3.9-76.7 12.2C41.2 62.5-30.1 202.4 12.2 332.6 46.2 437.4 143.4 504 247.9 504c25.4 0 51.2-3.9 76.7-12.2C454.8 449.5 526.1 309.6 483.8 179.4m-74.5 193.7-52.2 6.4-43.7-60.9 24.4-75.2 71.1-22.1 38.9 36.4c-.2 30.7-7.4 61.1-21.7 89.2-4.7 9.3-10.7 17.8-16.8 26.2m0-235.4-10.4 53.1-70.7 22L264 166.3V92.5l47.4-26.2c39.2 13 73.4 38 97.9 71.4M184.9 66.4 232 92.5v73.8l-64.2 46.5-70.6-22L87.1 138.3C111.4 104.9 145 79.7 184.9 66.4M139 379.5 85.9 373C71.5 352.9 48.6 313.4 48.1 257.7l39-36.4 71.1 22.2 24.3 74.3zm48.2 67-22.4-48.1 43.6-61.7H287l44.3 61.7-22.4 48.1c-6.2 1.8-57.6 20.4-121.7 0"/></svg>