<svg height="512" width="512" xmlns="http://www.w3.org/2000/svg"><path d="M504 256c0 137-111 248-248 248S8 393 8 256 119 8 256 8s248 111 248 248m-48 0v-.3l-26.1 22.8L367.3 220l16.4-84.4 34.3 3.1C393.1 104.5 358 78.6 317.3 65.5l13.7 32L256 139 181 97.5l13.7-32C154.1 78.6 118.9 104.4 94 138.7l34.6-3.1 16.1 84.4-62.6 58.5L56 255.7v.3c0 43 13.5 84 38.5 118l7.7-33.9 85.1 10.4 36.3 77.9-29.9 17.8c40.2 13.1 84.3 13.1 124.6 0l-29.9-17.8 36.3-77.9 85.1-10.4 7.7 33.9c25-34 38.5-75 38.5-118m-248.1 69.6L178 234.3l78-56.6 78 56.6-29.6 91.3z"/></svg>