<svg height="512" width="512" xmlns="http://www.w3.org/2000/svg"><path d="M249.9 33.5v26C236.3 80.2 226 168.1 225.4 274.9c11.7-15.6 19.1-33.3 19.1-48.2v-16.9c0-5.3.8-10.6 2.2-15.7.7-2.1 1.4-4.1 2.6-5.8 1.3-1.7 3.5-3.8 6.7-3.8 3.3 0 5.5 2.1 6.7 3.8 1.2 1.8 2 3.7 2.6 5.8 1.5 5.1 2.2 10.4 2.2 15.7v16.9c0 14.9 7.4 32.6 19.1 48.2C286 168.1 275.7 80.2 262.1 59.5v-26zm-26.4 147.8c-9.5 2.1-18.7 5.1-27.4 9 8.9 16.2 9.7 32.7 1.7 37.3s-21.9-4.2-31.4-19.8c-11.6 8.8-21.9 19.3-30.5 31.1 14.7 9.6 22.8 22.9 18.3 30.7-4.6 7.7-20.1 7.1-35.5-1-5.8 13.2-9.7 27.5-11.6 42.4 9.6.2 18.6 2.4 26.1 6.1 17.8-.3 32.8-2 40.5-4.3 5.6-26.3 23-48.2 46.3-59.5.8-25.5 1.9-49.6 3.5-72m65 0c1.6 22.4 2.7 46.5 3.5 72 23.2 11.3 40.7 33.2 46.3 59.5 7.7 2.3 22.7 4 40.5 4.3 7.5-3.7 16.5-5.9 26.1-6.1-1.9-14.9-5.8-29.2-11.6-42.4-15.4 8.1-30.9 8.7-35.5.9-4.5-7.7 3.6-21 18.3-30.6a149.9 149.9 0 0 0-30.5-31.1c-9.5 15.6-23.4 24.4-31.4 19.8s-7.2-21.1 1.7-37.3a147.5 147.5 0 0 0-27.4-9.1zm-32.5 8.5c-3.2 0-5.9 8.9-6.1 20v16.9c0 41.4-49.1 95-93.5 95-52 0-122.8-1.4-156.4 29.2v2.5c9.4 17.1 20.6 33.2 33.2 48 12.5-21.1 51.6-41 108-41.4 45.7 1 79 20.3 90.8 40.9 0 0-.1 0 0 0 7.6 2.2 15.8 3.3 24 3.2 8.2 0 16.4-1 24-3.2C291.8 380.3 325.1 361 370.8 360c56.4.4 95.5 20.3 108 41.4 12.6-14.8 23.8-30.9 33.2-48v-2.5C478.4 320.3 407.6 321.7 355.6 321.7c-44.5 0-93.5-53.6-93.5-95v-16.9c-.2-11.1-2.9-20-6.1-20m0 96.6c22.4 0 40.6 18.2 40.6 40.6s-18.2 40.7-40.6 40.7S215.4 349.5 215.4 327c0-22.4 18.2-40.6 40.6-40.6m0 7.7c-18.2 0-33 14.7-33 32.9s14.8 33 33 33 33-14.8 33-33-14.8-32.9-33-32.9m0 6.1c14.8 0 26.8 12 26.8 26.8s-12 26.9-26.8 26.9S229.2 341.8 229.2 327s12-26.8 26.8-26.8m-114.8 66.7c-10.2.1-21.6.4-30.5 1.7.4 4.4 1.5 18.6 7.1 29.7 9.1-2.5 18.4-3.9 27.6-3.9 41.3 1 71.5 34.4 78.3 74.5l.1 4.7c10.4 1.9 21.2 2.9 32.2 2.9s21.8-1 32.2-2.9l.1-4.7c6.8-40.1 37-73.5 78.3-74.5 9.2 0 18.5 1.3 27.6 3.9 5.6-11.1 6.7-25.3 7.1-29.8-8.9-1.3-20.3-1.5-30.5-1.6-18.7.4-35.2 4.2-48.6 9.7-12.5 16-29.2 30-49.6 33-.1 0-.1.1-.2.1s-.1 0-.2 0c-5.2 1.1-10.6 1.6-16.2 1.6-5.5 0-10.9-.5-16.2-1.6 0 0-.1 0-.1 0-.1 0-.2-.1-.3-.1-20.4-3-37-17-49.6-33-13.4-5.5-29.9-9.3-48.6-9.7"/></svg>