<svg height="512" width="512" xmlns="http://www.w3.org/2000/svg"><path d="m505 199.4-22.7-22.7c-9.3-9.3-24.5-9.3-33.9 0l-5.7 5.7L329.6 69.3l5.7-5.7c9.3-9.4 9.3-24.6 0-33.9L312.6 7c-9.3-9.3-24.5-9.3-33.9 0L154.2 131.5c-9.3 9.4-9.3 24.5 0 33.9l22.7 22.6c9.3 9.4 24.5 9.4 33.9 0l5.7-5.6 39.6 39.6L175 303l-5.6-5.6c-12.5-12.5-32.8-12.5-45.3 0L9.4 412.1c-12.5 12.5-12.5 32.8 0 45.3l45.2 45.2c12.5 12.5 32.8 12.5 45.3 0L214.6 387.9c12.5-12.5 12.5-32.8 0-45.3L209 337l81-81.1 39.6 39.6-5.6 5.7c-9.4 9.4-9.4 24.6 0 33.9l22.6 22.7c9.4 9.3 24.5 9.3 33.9 0L505 233.3c9.3-9.4 9.3-24.6 0-33.9"/></svg>