<svg height="1000" width="1125" xmlns="http://www.w3.org/2000/svg"><path d="M906.3 0H218.8c-7.9 0 -15.3 3.9 -19.6 10.5L3.9 298c-5.7 8.6 -5.1 20 1.4 27.8l539 665.6c9.4 11.5 27 11.5 36.4 0l539 -665.6c6.5 -8 7.1 -19.2 1.4 -27.8L926 10.5C921.5 3.9 914.3 0 906.3 0zm-37.7 93.8l123.6 187.5H858.6L757.6 93.8h111zm-394.8 0H651l101 187.5H373L473.8 93.8zm-217.4 0h111l-101 187.5H132.8L256.4 93.8zM172.5 375h100.4l133.4 312.5L172.5 375zm200.9 0h378.2L562.5 850.2 373.4 375zm345.4 312.5L852 375h100.3L718.8 687.5z"/></svg>