<svg height="512" width="384" xmlns="http://www.w3.org/2000/svg"><path d="M186.1.1C81 3.2 0 94.9 0 200.1V464c0 14.2 17.2 21.4 27.3 11.3l24.9-18.5c6.7-5 16-4 21.5 2.2l43 48.3c6.2 6.3 16.4 6.3 22.6 0L180 461.5c6.4-7.2 17.6-7.2 24 0l40.7 45.8c6.2 6.3 16.4 6.3 22.6 0l43-48.3c5.5-6.2 14.8-7.2 21.5-2.2l24.9 18.5c10.1 10.1 27.3 2.9 27.3-11.3V192C384 84 294.8-3.2 186.1.1M128 224c-17.7 0-32-14.3-32-32s14.3-32 32-32 32 14.3 32 32-14.3 32-32 32m128 0c-17.7 0-32-14.3-32-32s14.3-32 32-32 32 14.3 32 32-14.3 32-32 32"/></svg>