<svg height="512" width="512" xmlns="http://www.w3.org/2000/svg"><path d="M32 448c0 17.7 14.3 32 32 32h160V320H32zm256 32h160c17.7 0 32-14.3 32-32V320H288zM480 160h-42.1c6.2-12.1 10.1-25.5 10.1-40C448 71.5 408.5 32 360 32c-41.6 0-68.5 21.3-103 68.3C222.5 53.3 195.6 32 154 32c-48.5 0-88 39.5-88 88 0 14.5 3.8 27.9 10.1 40H32C14.3 160 0 174.3 0 192v80c0 8.8 7.2 16 16 16h480c8.8 0 16-7.2 16-16v-80c0-17.7-14.3-32-32-32m-326.1 0c-22.1 0-40-17.9-40-40s17.9-40 40-40c19.9 0 34.6 3.3 86.1 80zm206.1 0h-86.1C325.3 83.5 339.6 80 360 80c22.1 0 40 17.9 40 40s-17.9 40-40 40"/></svg>