<svg height="512" width="640" xmlns="http://www.w3.org/2000/svg"><path d="M240.6 194.1c1.9-30.8 17.3-61.2 44-79.8C279.4 103.5 268.7 96 256 96h-29.4l30.7-22c7.2-5.1 8.9-15.1 3.7-22.3l-9.3-13C246.6 31.5 236.6 29.8 229.4 35l-32 22.9 11.5-30.6C212 19 207.8 9.8 199.5 6.7l-15-5.6C176.2-2 167 2.2 163.9 10.5l-19.9 53L124.1 10.4C121 2.1 111.8-2.1 103.5 1l-15 5.6C80.2 9.7 76 19 79.2 27.2l11.5 30.6L58.6 35C51.4 29.9 41.4 31.5 36.3 38.7l-9.3 13c-5.1 7.2-3.5 17.2 3.7 22.3l30.7 22H32C14.3 96 0 110.3 0 128v352c0 17.7 14.3 32 32 32h168.9c-5.5-9.5-8.9-20.3-8.9-32V256c0-29.9 20.8-55 48.6-61.9M224 480c0 17.7 14.3 32 32 32h160V384H224zm224 32h160c17.7 0 32-14.3 32-32v-96H448zM608 224h-20.4c2.6-7.6 4.4-15.5 4.4-23.8C592 164.7 565 128 519.9 128c-48.1 0-75.9 47.7-87.9 75.3C419.9 175.7 392.1 128 344.1 128 299 128 272 164.7 272 200.2c0 8.3 1.7 16.2 4.4 23.8H256c-17.7 0-32 14.3-32 32v96h192V224h15.3l.7-.2.7.2H448v128h192v-96c0-17.7-14.3-32-32-32m-272 0q-4.05-2.1-7.2-4.8c-7.3-6.4-8.8-13.8-8.8-19 0-9.7 6.4-24.2 24.1-24.2 18.7 0 35.6 27.4 44.5 48zm199.2-4.8q-3.15 2.7-7.2 4.8h-52.6c8.8-20.3 25.8-48 44.5-48 17.7 0 24.1 14.5 24.1 24.2 0 5.2-1.5 12.6-8.8 19"/></svg>