<svg height="512" width="448" xmlns="http://www.w3.org/2000/svg"><path d="M100.6 334.2c48.6 3.4 58.9 2.2 58.9 12 0 20-65.5 20-65.5 1.5 0-5.1 3.3-9.4 6.6-13.5m27.9-116.6c-32.2 0-33.7 44.5-.7 44.5 32.5 0 31.7-44.5.7-44.5M448 80v352a48 48 0 0 1-48 48H48A48 48 0 0 1 0 432V80A48 48 0 0 1 48 32h352a48 48 0 0 1 48 48m-227 69.3c0 14.5 8.4 22.9 22.9 22.9 14.7 0 23.1-8.4 23.1-22.9S258.6 127 243.9 127c-14.5 0-22.9 7.8-22.9 22.3M199.2 195h-49.6c-25-6.6-81.5-4.8-81.5 46.8 0 18.8 9.4 32 21.8 38.1C74.2 294.2 66.8 301 66.8 310.6c0 6.9 2.8 13.2 11.2 16.8-8.9 8.4-14 14.4-14 25.9 0 20.1 17.5 31.7 63.5 31.7 44.2 0 69.9-16.5 69.9-45.7 0-36.7-28.2-35.4-94.8-39.4l8.4-13.4c17 4.7 74.2 6.2 74.2-42.5 0-11.7-4.8-19.8-9.4-25.6l23.4-1.8zm84.3 109.8-13-1.7c-3.8-.5-4.1-1-4.1-5.1V192.5h-52.6l-2.7 20.6c15.7 5.5 17 4.9 17 10.2V298c0 5.6-.3 4.6-17 6.9v20h72.4zM384 315l-6.9-22.4C336.2 308 339.3 280.2 339.3 275.9v-60.7h37.8v-25.4h-35.8c-2.9 0-2 2.5-2-38.7h-24.2c-2.8 27.7-11.7 38.9-34 41.5v22.6c20.5 0 19.8-.9 19.8 2.5v66.6c0 28.7 11.5 40.9 41.7 40.9 14.5 0 30.5-4.8 41.4-10.2"/></svg>