<svg height="512" width="512" xmlns="http://www.w3.org/2000/svg"><path d="M216.3 158.4H137C97 147.9 6.5 150.6 6.5 233.2c0 30.1 15 51.2 35 61-25.1 23-37 33.8-37 49.2 0 11 4.5 21.1 17.9 26.8C8.1 383.6 0 393.4 0 411.6c0 32.2 28.1 50.9 101.6 50.9 70.8 0 111.8-26.5 111.8-73.2 0-58.7-45.1-56.5-151.6-63l13.4-21.6c27.3 7.6 118.7 10 118.7-67.9 0-18.7-7.7-31.7-15-41l37.4-2.9zm-63.4 241.9c0 32-104.9 32.1-104.9 2.4 0-8.1 5.3-15 10.6-21.5 77.7 5.3 94.3 3.3 94.3 19.1M102.1 265.7c-52.8 0-50.5-71.2 1.2-71.2 49.5 0 50.8 71.2-1.2 71.2m133.3 100.5v-32.1c26.7-3.6 27.2-2 27.2-11V203.6c0-8.5-2-7.4-27.2-16.2l4.4-33H324v168.7c0 6.5.4 7.4 6.5 8.2l20.7 2.8v32.1zm52.4-244.3c-23.2 0-36.6-13.4-36.6-36.6s13.4-35.8 36.6-35.8c23.6 0 37 12.6 37 35.8s-13.4 36.6-37 36.6M512 350.5c-17.5 8.5-43.1 16.2-66.3 16.2-48.4 0-66.6-19.5-66.6-65.4V194.8c0-5.5 1-4.1-31.8-4.1v-36.2c35.8-4.1 50-22 54.5-66.3h38.6c0 65.9-1.3 61.8 3.3 61.8H501v40.7h-60.6v97.1c0 7-4.9 51.5 60.6 26.9z"/></svg>