<svg height="512" width="480" xmlns="http://www.w3.org/2000/svg"><path d="M186.1 328.7c0 20.9-10.9 55.1-36.7 55.1s-36.7-34.2-36.7-55.1 10.9-55.1 36.7-55.1 36.7 34.2 36.7 55.1M480 278.2c0 31.9-3.2 65.7-17.5 95C424.6 449.8 320.4 448 245.8 448 170 448 59.6 450.7 20.2 373.2 5.6 344.2 0 310.1 0 278.2 0 236.3 13.9 196.7 41.5 164.6c-5.2-15.8-7.7-32.4-7.7-48.8C33.8 94.3 38.7 83.5 48.4 64c45.3 0 74.3 9 108.8 36 29-6.9 58.8-10 88.7-10 27 0 54.2 2.9 80.4 9.2C360.3 72.5 389.3 64 434.1 64c9.8 19.5 14.6 30.3 14.6 51.8 0 16.4-2.6 32.7-7.7 48.2 27.5 32.4 39 72.3 39 114.2m-64.3 50.5c0-43.9-26.7-82.6-73.5-82.6-18.9 0-37 3.4-56 6-14.9 2.3-29.8 3.2-45.1 3.2-15.2 0-30.1-.9-45.1-3.2-18.7-2.6-37-6-56-6-46.8 0-73.5 38.7-73.5 82.6 0 87.8 80.4 101.3 150.4 101.3h48.2c70.3 0 150.6-13.4 150.6-101.3m-82.6-55.1c-25.8 0-36.7 34.2-36.7 55.1s10.9 55.1 36.7 55.1 36.7-34.2 36.7-55.1-10.9-55.1-36.7-55.1"/></svg>