<svg height="512" width="592" xmlns="http://www.w3.org/2000/svg"><path d="M565.7 118.1c-2.3-6.1-9.3-9.2-15.3-6.6-5.7 2.4-8.5 8.9-6.3 14.6 10.9 29 16.9 60.5 16.9 93.3C561 354 460.7 465.1 330.8 482.1V358.4c7.9-1.5 15.5-3.6 23-6.2v104C460.5 430.3 539.7 334.1 539.7 219.4 539.7 127.6 488.9 47.6 413.9 6.1c-5.7-3.2-13-.9-15.9 5-2.7 5.5-.6 12.2 4.7 15.1 67.9 37.6 113.9 110 113.9 193.2 0 93.3-57.9 173.1-139.8 205.4v-92.2c14.2-4.5 24.9-17.7 24.9-33.5 0-13.1-6.8-24.4-17.3-30.5 8.3-79.5 44.5-58.6 44.5-83.9V170C428.9 132 341 8.2 299.9 5.3c-2.5-.2-5-.2-7.6 0C251.1 8.3 163.2 132 163.2 170v14.8c0 25.3 36.3 4.3 44.5 83.9-10.6 6.1-17.3 17.4-17.3 30.5 0 15.8 10.6 29 24.8 33.5v92.2C133.3 392.7 75.4 312.9 75.4 219.5c0-83.1 46-155.5 113.9-193.2 5.4-3 7.4-9.6 4.7-15.1a11.487 11.487 0 0 0-15.9-5C103.1 47.7 52.3 127.7 52.3 219.5c0 114.7 79.2 210.8 185.9 236.8v-104c7.6 2.5 15.1 4.6 23 6.2v123.7C131.4 465.2 31 354.1 31 219.5c0-32.8 6-64.3 16.9-93.3 2.2-5.8-.6-12.2-6.3-14.6-6-2.6-13 .4-15.3 6.6C14.5 149.7 8 183.8 8 219.5c0 155.1 122.6 281.6 276.3 287.8V361.4c6.8.4 15 .5 23.4 0v145.8C461.4 501.1 584 374.6 584 219.5c0-35.7-6.5-69.8-18.3-101.4M365.9 275.5c13 0 23.7 10.5 23.7 23.7 0 13.1-10.6 23.7-23.7 23.7-13 0-23.7-10.5-23.7-23.7 0-13.1 10.6-23.7 23.7-23.7m-139.8 47.3c-13.2 0-23.7-10.7-23.7-23.7s10.5-23.7 23.7-23.7c13.1 0 23.7 10.6 23.7 23.7 0 13-10.5 23.7-23.7 23.7"/></svg>