<svg height="512" width="640" xmlns="http://www.w3.org/2000/svg"><path d="M639.4 433.6C631 413.2 607.6 403.5 587.2 412l-22.1 9.2L526.4 319.3c47.9-35 64.8-100.3 34.5-152.8L474.3 16c-8-13.9-25.1-19.7-40-13.6L320 49.8 205.7 2.4c-14.9-6.2-32-.3-40 13.6L79.1 166.5C48.9 219 65.7 284.3 113.6 319.2L74.9 421.1l-22.1-9.2C32.4 403.4 9.1 413.1.6 433.5c-1.7 4.1.2 8.8 4.3 10.5l162.3 67.4c4.1 1.7 8.7-.2 10.4-4.3C186 486.7 176.4 463.3 156 454.8l-22.1-9.2L173.3 342c4.4.5 8.8 1.3 13.1 1.3 51.7 0 99.4-33.1 113.4-85.3L320 182.6l20.2 75.4c14 52.2 61.7 85.3 113.4 85.3 4.3 0 8.7-.8 13.1-1.3L506 445.6l-22.1 9.2c-20.4 8.5-30.1 31.9-21.6 52.3 1.7 4.1 6.4 6 10.4 4.3L635.1 444c4-1.7 6-6.3 4.3-10.4M275.9 162.1 163.8 115.6l36.5-63.4 94.5 39.2zm88.2 0L345.2 91.4l94.5-39.2 36.5 63.4z"/></svg>