<svg height="512" width="576" xmlns="http://www.w3.org/2000/svg"><path d="M574.1 280.4 528.8 98.7c-6-23.7-21.6-44.1-43-55.9-21.5-11.7-47-14.1-70.2-6.3l-15.3 5.1c-8.4 2.8-12.9 11.9-10.1 20.2l5.1 15.2c2.7 8.4 11.8 12.9 20.2 10.1l13.2-4.4c10.8-3.6 23-3.5 33.1 1.8 10.3 5.3 17.6 14.5 20.4 25.8l38.5 153.8c-22.2-6.8-49.8-12.4-81.2-12.4-34.8 0-74 7-114.9 26.7h-73.2C210.6 258.7 171.3 251.6 136.6 251.6c-31.5 0-59.1 5.7-81.2 12.5L93.8 110.3C96.6 99 103.9 89.8 114.2 84.5c10.2-5.3 22.3-5.4 33.1-1.8l13.2 4.4c8.4 2.8 17.5-1.7 20.2-10.1l5.1-15.2c2.8-8.4-1.7-17.4-10.1-20.2l-15.3-5.1c-23.2-7.8-48.7-5.4-70.2 6.3-21.4 11.8-37 32.1-43 55.8L1.9 280.4A64.2 64.2 0 0 0 0 295.9v70.2C0 429 51.6 480 115.2 480h37.1c60.3 0 110.4-45.9 114.9-105.4l2.9-38.6h35.8l2.9 38.6c4.5 59.5 54.6 105.4 114.9 105.4h37.1C524.4 480 576 429 576 366.1v-70.2c0-5.3-.6-10.5-1.9-15.5m-370.7 89.4c-2 25.9-24.4 46.2-51.1 46.2h-37.1C87 416 64 393.6 64 366.1v-37.5c18.1-6.5 43.4-13 72.6-13 23.8 0 47.2 4.4 69.9 13zM512 366.1c0 27.5-23 49.9-51.2 49.9h-37.1c-26.7 0-49.1-20.3-51.1-46.2l-3.1-41.2c22.7-8.6 46.1-12.9 69.9-12.9 29.2 0 54.5 6.4 72.6 12.9z"/></svg>