<svg height="512" width="448" xmlns="http://www.w3.org/2000/svg"><path d="M407.1 211.2c-3.5-1.4-11.6-3.8-15.4-3.8-37.1 0-62.2 16.8-93.5 34.5l-.9-.9c7-47.3 23.5-91.9 23.5-140.4C320.8 29.1 282.6 0 212.4 0 97.3 0 39 113.7 39 198.4 39 286.3 90.3 335 177.6 335c12 0 11-1 11 3.8C171.7 467.7 97.8 471.9 97.8 433.4c0-39.2 45-58.6 45.5-61-.3-12.2-47-27.6-58.9-27.6C50.5 344.9 32 396 32 424.1 32 476 64.8 512 117.5 512c77.4 0 134-77.8 151.4-145.4C284 306.1 280.1 303.3 288.6 299c32.2-16.2 57.5-27 93.8-27 17.8 0 30.5 3.7 58.9 8.4 2.9 0 6.7-2.9 6.7-5.8 0-8-33.4-60.5-40.9-63.4M231.8 126.8c-9.3 44.7-18.6 89.6-27.8 134.3-2.3 10.2-13.3 7.8-22 7.8-38.3 0-49-41.8-49-73.1 0-47 18-109.3 61.8-133.4 7-4.1 14.8-6.7 22.6-6.7 18.6 0 20 13.3 20 28.7-.1 14.3-2.7 28.5-5.6 42.4"/></svg>