<svg height="512" width="496" xmlns="http://www.w3.org/2000/svg"><path d="M248 8C111 8 0 119 0 256s111 248 248 248S496 393 496 256 385 8 248 8m160 215.5v6.9c0 5.9-3.3 11.3-8.6 13.9L384 252a15.5 15.5 0 0 1-15.5-1l-18.2-12.1a15.5 15.5 0 0 0-13.5-1.8l-2.6.8c-9.7 3.3-13.7 14.8-8 23.4l13.2 19.8c2.9 4.3 7.7 6.9 12.9 6.9h8.2c8.6 0 15.5 6.9 15.5 15.5v11.3c0 3.4-1.1 6.7-3.1 9.3l-18.7 25c-1.5 1.9-2.4 4.1-2.9 6.5l-4.3 22.8c-.6 3.3-2.3 6.3-4.7 8.5a159.6 159.6 0 0 0-25 29.2l-13.1 19.6a27.8 27.8 0 0 1-23 12.3c-10.6 0-20.2-5.9-24.9-15.3A78.9 78.9 0 0 1 248 397.4v-29.9c0-8.6-6.9-15.5-15.5-15.5h-25.9c-14.5 0-28.4-5.8-38.6-16a54.7 54.7 0 0 1-16-38.6v-14.1c0-17.2 8.1-33.4 21.8-43.7l27.6-20.7A54.7 54.7 0 0 1 234.2 208h.9c8.5 0 16.8 2 24.4 5.8l14.7 7.3c3.7 1.9 8 2.2 11.9.9l47.3-15.8c6.3-2.1 10.6-8 10.6-14.7 0-8.6-7-15.5-15.5-15.5h-10.1c-4.1 0-8.1-1.6-11-4.5l-6.9-7A15.5 15.5 0 0 0 289.6 160h-90.1c-8.6 0-15.5-6.9-15.5-15.5v-4.4c0-7.1 4.8-13.3 11.7-15l14.5-3.7c3.7-.9 7-3.2 9.1-6.4l8.1-12.1c2.9-4.3 7.7-6.9 12.9-6.9h24.2c8.6 0 15.5-6.9 15.5-15.5V58.8C359.2 71.6 422.9 131 441.9 208h-18.4c-8.6 0-15.5 6.9-15.5 15.5"/></svg>