<svg height="512" width="496" xmlns="http://www.w3.org/2000/svg"><path d="M248 8C111 8 0 119 0 256s111 248 248 248S496 393 496 256 385 8 248 8m-11.3 240.2c-2.9 4.8-8.1 7.8-13.8 7.8h-.3c-4.2 0-8.3 1.7-11.3 4.7l-5.6 5.7c-3.2 3.1-3.2 8.1 0 11.3l5.6 5.6c3 3 4.7 7.1 4.7 11.3v9.4c0 8.8-7.2 16-16 16h-6.1c-6.1 0-11.6-3.4-14.3-8.9L157 265.9c-2.5-4.9-9-5.9-12.8-2.1l-19.5 19.5c-3 3-7.1 4.7-11.3 4.7H50.8C49.1 277.6 48 266.9 48 256 48 145.7 137.7 56 248 56c21.5 0 42.2 3.5 61.6 9.8l-50.1 38.5c-5.1 3.5-4.7 11.1.8 13.9l10.9 5.4c5.4 2.7 8.8 8.2 8.8 14.3V216c0 4.4-3.6 8-8 8h-3.1c-3 0-5.8-1.7-7.1-4.4-1.6-3.1-6-3.3-7.8-.3zM408 358.4c0 4.3-1.7 8.3-4.7 11.3l-9.6 9.6c-3 3-7 4.7-11.3 4.7h-15.1c-4.3 0-8.3-1.7-11.3-4.7l-13.1-13a26.8 26.8 0 0 0-25.4-7l-21.2 5.3c-1.3.3-2.6.5-3.9.5H282c-4.2 0-8.3-1.7-11.3-4.7l-11.9-11.9a8 8 0 0 1-2.3-5.7v-10.2c0-3.3 2-6.2 5-7.4l39.4-15.8c1.9-.8 3.8-1.8 5.5-3l23.7-16.9a8 8 0 0 1 4.7-1.5h12.1c3.2 0 6.1 1.9 7.4 4.9l5.3 12.9a4 4 0 0 0 3.7 2.4h3.8c1.8 0 3.4-1.1 3.8-2.8l4.2-14.5c.5-1.7 2.1-2.9 3.9-2.9h6c2.3 0 4 1.8 4 4v12.9c0 2.2.9 4.2 2.4 5.7l11.9 11.9c3 3 4.7 7.1 4.7 11.3z"/></svg>