<svg height="512" width="496" xmlns="http://www.w3.org/2000/svg"><path d="M248 8C111 8 0 119 0 256s111 248 248 248S496 393 496 256 385 8 248 8m82.3 357.6c-3.9 3.9-8 8-11.3 11.3-3 3-5.1 6.7-6.2 10.7-1.5 5.7-2.7 11.4-4.8 16.9l-17.3 46.8c-13.8 3-28 4.7-42.7 4.7v-27.4c1.7-12.6-7.6-36.2-22.6-51.2-6-6-9.4-14.2-9.4-22.7v-32c0-11.6-6.3-22.3-16.5-27.9-14.3-8-34.8-19.1-48.8-26.2-11.4-5.7-22.1-13.1-31.6-21.7l-.8-.7a114.8 114.8 0 0 1-18.1-20.8C90.8 211.7 75.6 189 65.6 174.3 86.1 128.8 123 92.3 168.8 72.4l24 12C203.5 89.7 216 82 216 70.1V58.8c8-1.3 16.1-2.1 24.4-2.4l28.3 28.3c6.2 6.2 6.2 16.4 0 22.6L264 112l-10.3 10.3c-3.2 3.2-3.2 8.2 0 11.4l4.7 4.6c3.1 3.2 3.1 8.2 0 11.4l-8 8a8 8 0 0 1-5.7 2.3h-9c-2.1 0-4.1.8-5.6 2.3l-9.9 9.6a8 8 0 0 0-1.6 9.3l15.6 31.2c2.7 5.3-1.2 11.6-7.1 11.6h-5.7c-1.9 0-3.8-.7-5.2-2l-9.3-8a16 16 0 0 0-15.6-3.1l-31.1 10.4a11.9 11.9 0 0 0-8.2 11.3c0 4.5 2.6 8.7 6.6 10.7l11.1 5.5c9.4 4.7 19.8 7.2 30.3 7.2s22.6 27.3 32 32h66.8c8.5 0 16.6 3.4 22.6 9.4l13.7 13.7a30.5 30.5 0 0 1 8.9 21.5 46.5 46.5 0 0 1-13.7 33M417 274.3c-5.8-1.5-10.8-5-14.1-10l-18-27a24 24 0 0 1 0-26.6l19.6-29.4c2.3-3.5 5.5-6.3 9.2-8.1l13-6.5c13.5 26.9 21.3 57.2 21.3 89.3 0 8.7-.7 17.2-1.8 25.5z"/></svg>