<svg height="512" width="448" xmlns="http://www.w3.org/2000/svg"><path d="M156.8 126.8c37.6 60.6 64.2 113.1 84.3 162.5-8.3 33.8-18.8 66.5-31.3 98.3-13.2-52.3-26.5-101.3-56-148.5 6.5-36.4 2.3-73.6 3-112.3M109.3 200H16.1c-6.5 0-10.5 7.5-6.5 12.7C51.8 267 81.3 330.5 101.3 400h103.5C188.6 330.3 166.1 266.3 122.3 206.5c-3-4-8-6.5-13-6.5m47.8-88c68.5 108 130 234.5 138.2 368H409C397 342 340.6 215 265.8 112zM408.9 43.5C407.1 36.7 400.7 32 393.7 32h-88.3c-5.3 0-9 5-7.8 10.3 13.2 46.5 22.3 95.5 26.5 146 48.2 86.2 79.7 178.3 90.6 270.8C430.5 398.6 440 325.6 440 256.1 440 182.5 427.9 111 408.9 43.5"/></svg>