<svg height="512" width="640" xmlns="http://www.w3.org/2000/svg"><path d="M105.7 215v41.3h57.1a49.7 49.7 0 0 1-21.1 32.6c-9.6 6.5-21.7 10.2-36 10.2-27.6 0-50.9-18.9-59.3-44.2a65.6 65.6 0 0 1 0-41c8.4-25.5 31.7-44.4 59.3-44.4a56.4 56.4 0 0 1 40.5 16.1L176.5 155a101.2 101.2 0 0 0-70.8-27.8 105.5 105.5 0 0 0-94.4 59.1 107.6 107.6 0 0 0 0 96.1v.2a105.4 105.4 0 0 0 94.4 59c28.5 0 52.6-9.5 70-25.9 20-18.6 31.4-46.2 31.4-78.9A134 134 0 0 0 205.4 215zm389.4-4q-15.15-14.1-41.4-14.1c-22.4 0-39.3 8.3-50.5 24.8l20.9 13.3q11.4-17 31.3-17a34 34 0 0 1 22.7 8.8 28.1 28.1 0 0 1 9.7 21.2v5.5c-9.1-5.1-20.6-7.7-34.6-7.7-16.5 0-29.7 3.8-39.5 11.7s-14.9 18.3-14.9 31.6a39.7 39.7 0 0 0 14 31.3c9.2 8.3 21 12.5 34.8 12.5 16.3 0 29.2-7.3 39-21.9h1v17.7h22.6V250c.1-16.6-4.9-29.7-15.1-39m-19.2 89.3a37.3 37.3 0 0 1-26.6 11.2A28.6 28.6 0 0 1 431 305.2a19.4 19.4 0 0 1-7.8-15.6c0-7 3.3-12.8 9.6-17.4s14.5-7 24-7c13.2-.2 23.5 2.8 30.8 8.7q0 15.3-11.7 26.4m-93.6-142A55.7 55.7 0 0 0 341.7 142h-62.6v186.7h23.6v-75.6h39c16 0 29.5-5.4 40.5-15.9q1.35-1.35 2.7-2.7a54.5 54.5 0 0 0-2.6-76.2m-16.6 62.2a30.6 30.6 0 0 1-23.4 9.7h-39.6V165h39.6a32 32 0 0 1 22.6 9.2 33.2 33.2 0 0 1 .8 46.3M614.3 201l-36.5 91.7h-.5L539.9 201h-25.7L566 320.6l-29.4 64.3H561L640 201z"/></svg>