<svg height="512" width="496" xmlns="http://www.w3.org/2000/svg"><path d="M248 8C111 8 0 119 0 256s111 248 248 248S496 393 496 256 385 8 248 8m0 448C137.7 456 48 366.3 48 256S137.7 56 248 56s200 89.7 200 200S358.3 456 248 456M168 240c17.7 0 32-14.3 32-32s-14.3-32-32-32-32 14.3-32 32 14.3 32 32 32m160 0c17.7 0 32-14.3 32-32s-14.3-32-32-32-32 14.3-32 32 14.3 32 32 32m16 16H152c-26.5 0-48 21.5-48 48v32c0 26.5 21.5 48 48 48h192c26.5 0 48-21.5 48-48v-32c0-26.5-21.5-48-48-48m-168 96h-24c-8.8 0-16-7.2-16-16v-8h40zm0-40h-40v-8c0-8.8 7.2-16 16-16h24zm64 40h-48v-24h48zm0-40h-48v-24h48zm64 40h-48v-24h48zm0-40h-48v-24h48zm56 24c0 8.8-7.2 16-16 16h-24v-24h40zm0-24h-40v-24h24c8.8 0 16 7.2 16 16z"/></svg>