<svg height="1000" width="968.8" xmlns="http://www.w3.org/2000/svg"><path d="M484.4 15.6C216.8 15.6 0 232.4 0 500s216.8 484.4 484.4 484.4S968.8 767.6 968.8 500 752 15.6 484.4 15.6zm0 875C268.9 890.6 93.8 715.4 93.8 500S268.9 109.4 484.4 109.4 875 284.6 875 500 699.8 890.6 484.4 890.6zM328.1 468.8c34.6 0 62.5 -28 62.5 -62.5s-27.9 -62.5 -62.5 -62.5 -62.5 27.9 -62.5 62.5 28 62.5 62.5 62.5zm312.5 0c34.6 0 62.5 -28 62.5 -62.5s-27.9 -62.5 -62.5 -62.5 -62.5 27.9 -62.5 62.5 28 62.5 62.5 62.5zm31.3 31.2h-375c-51.8 0 -93.8 42 -93.8 93.8v62.5c0 51.7 42 93.7 93.8 93.7h375c51.7 0 93.7 -42 93.7 -93.7v-62.5c0 -51.8 -42 -93.8 -93.7 -93.8zM343.8 687.5h-46.9c-17.2 0 -31.3 -14.1 -31.3 -31.2v-15.7h78.2v46.9zm0 -78.1h-78.2v-15.6c0 -17.2 14.1 -31.3 31.3 -31.3h46.9v46.9zm125 78.1H375v-46.9h93.8v46.9zm0 -78.1H375v-46.9h93.8v46.9zm125 78.1H500v-46.9h93.8v46.9zm0 -78.1H500v-46.9h93.8v46.9zm109.3 46.9c0 17.1 -14 31.2 -31.2 31.2H625v-46.9h78.1v15.7zm0 -46.9H625v-46.9h46.9c17.2 0 31.2 14.1 31.2 31.3v15.6z"/></svg>