<svg height="1000" width="968.8" xmlns="http://www.w3.org/2000/svg"><path d="M484.4 15.6C752 15.6 968.8 232.4 968.8 500S752 984.4 484.4 984.4 0 767.6 0 500 216.8 15.6 484.4 15.6zm0 875C699.8 890.6 875 715.4 875 500S699.8 109.4 484.4 109.4 93.8 284.6 93.8 500s175.1 390.6 390.6 390.6zM328.1 468.8c-34.5 0 -62.5 -28 -62.5 -62.5s28 -62.5 62.5 -62.5 62.5 27.9 62.5 62.5 -27.9 62.5 -62.5 62.5zm312.5 0c-34.5 0 -62.5 -28 -62.5 -62.5s28 -62.5 62.5 -62.5 62.5 27.9 62.5 62.5 -27.9 62.5 -62.5 62.5zm31.3 31.2c51.7 0 93.7 42 93.7 93.8v62.5c0 51.7 -42 93.7 -93.7 93.7h-375c-51.8 0 -93.8 -42 -93.8 -93.7v-62.5c0 -51.8 42 -93.8 93.8 -93.8h375zM343.8 687.5v-46.9h-78.2v15.7c0 17.1 14.1 31.2 31.3 31.2h46.9zm0 -78.1v-46.9h-46.9c-17.2 0 -31.3 14.1 -31.3 31.3v15.6h78.2zm125 78.1v-46.9H375v46.9h93.8zm0 -78.1v-46.9H375v46.9h93.8zm125 78.1v-46.9H500v46.9h93.8zm0 -78.1v-46.9H500v46.9h93.8zm109.3 46.9v-15.7H625v46.9h46.9c17.2 0 31.2 -14.1 31.2 -31.2zm0 -46.9v-15.6c0 -17.2 -14 -31.3 -31.2 -31.3H625v46.9h78.1z"/></svg>