<svg height="1000" width="968.8" xmlns="http://www.w3.org/2000/svg"><path d="M859.4 312.5c57.6 0 104.1 -51.4 104.1 -114.6C963.5 149 901.6 50.4 873.2 7.8c-7 -10.3 -20.9 -10.3 -27.7 0C817.2 50.4 755.3 149 755.3 197.9c0 63.2 46.5 114.6 104.1 114.6zm-375 468.8C585.7 781.3 709.6 717 725.2 625c3.3 -19.3 -15 -36.1 -34.6 -29.9C640 611.3 564.8 620.7 484.4 620.7S328.9 611.3 278.1 595.1c-19.1 -6 -37.9 10.4 -34.5 29.9 15.6 92 139.4 156.3 240.8 156.3zM738.9 452.5c7 -2.1 11.7 -8.7 11.1 -16.2C743.6 354.1 687.1 296.9 640.6 296.9S537.7 354.1 531.3 436.3c-.6 7.3 4.1 14.1 11.1 16.2 6.8 2.2 14.4 -.9 18.1 -7.2l18.6 -33.2c15 -26.7 37.5 -42.2 61.5 -42.2s46.5 15.5 61.5 42.2l18.6 33.2c4.1 7 12.1 9 18.2 7.2zM944.5 349.2c-48 30.7 -89.8 25.2 -90.6 25.2C867.4 413.9 875 456.1 875 500c0 215.4 -175.2 390.6 -390.6 390.6S93.8 715.4 93.8 500 268.9 109.4 484.4 109.4c77.7 0 150 23 210.9 62.3 3.3 -18.6 12.3 -47.1 33.6 -89.3C657 40.2 573.6 15.6 484.4 15.6 216.8 15.6 0 232.4 0 500s216.8 484.4 484.4 484.4S968.8 767.6 968.8 500c0 -52.7 -8.6 -103.3 -24.3 -150.8zm-616.4 20.7c24 0 46.5 15.5 61.5 42.2l18.6 33.2c4.1 7.2 12.1 9.2 18.2 7.2 7 -2.1 11.7 -8.7 11.1 -16.2C431.1 354.1 374.6 296.9 328.1 296.9S225.2 354.1 218.8 436.3c-.6 7.3 4.1 14.1 11.1 16.2 6.8 2.2 14.4 -.9 18.1 -7.2l18.6 -33.2c15 -26.9 37.5 -42.2 61.5 -42.2z"/></svg>