<svg height="1000" width="968.8" xmlns="http://www.w3.org/2000/svg"><path d="M484.4 15.6C216.8 15.6 0 232.4 0 500s216.8 484.4 484.4 484.4S968.8 767.6 968.8 500 752 15.6 484.4 15.6zm0 875C268.9 890.6 93.8 715.4 93.8 500S268.9 109.4 484.4 109.4 875 284.6 875 500 699.8 890.6 484.4 890.6zM690.6 594.9C640 611.1 564.8 620.5 484.4 620.5S328.9 611.1 278.1 594.9c-19.3 -6 -37.9 10.6 -34.5 29.9 15.4 92 139.2 156.3 240.8 156.3S709.6 716.8 725.2 624.8c3.1 -19.1 -15 -35.9 -34.6 -29.9zM232.2 515.2c7.1 8.2 19.4 11.2 29.9 4.9l156.3 -93.7c7 -4.3 11.3 -11.9 11.3 -20.1s-4.3 -15.9 -11.3 -20.2L262.1 292.4c-10 -5.9 -22.3 -3.7 -29.9 4.9 -7.4 8.8 -7.4 21.5 -.2 30.2l65.7 78.8L232 485c-7.4 8.8 -7.2 21.6 .2 30.2zm474.4 4.9c10.6 6.3 22.9 3.3 29.9 -4.9 7.4 -8.8 7.4 -21.4 .2 -30.2l-65.6 -78.7 65.6 -78.8c7.4 -8.7 7.2 -21.4 -.2 -30.2 -7.4 -8.6 -19.9 -10.6 -29.9 -4.9l-156.2 93.7c-7 4.3 -11.3 11.9 -11.3 20.2s4.3 15.8 11.3 20.1l156.2 93.7z"/></svg>