<svg height="1000" width="968.8" xmlns="http://www.w3.org/2000/svg"><path d="M484.4 15.6C216.8 15.6 0 232.4 0 500s216.8 484.4 484.4 484.4S968.8 767.6 968.8 500 752 15.6 484.4 15.6zm0 875C268.9 890.6 93.8 715.4 93.8 500S268.9 109.4 484.4 109.4 875 284.6 875 500 699.8 890.6 484.4 890.6zM690.6 594.9C640 611.1 564.8 620.5 484.4 620.5S328.9 611.1 278.1 594.9c-19.1 -6 -37.9 10.4 -34.5 29.9C259 717 382.8 781.1 484.4 781.1S709.6 716.8 725.2 624.8c3.1 -19.1 -15 -35.9 -34.6 -29.9zM245.5 482.6c-1.9 12.1 10.6 21.5 21.5 15.4l61.1 -31.8 61.2 31.8c10.9 6.1 23.4 -3.3 21.4 -15.4L399 414.5l49.6 -48.1c8.8 -8.8 3.7 -23.8 -8.4 -25.8l-68.1 -9.7 -30.3 -61.8c-5.7 -11.3 -21.5 -11.3 -27.2 0l-30.2 61.8 -68.2 9.7c-12.1 1.8 -17.4 16.8 -8.4 25.8l49.6 48.1 -11.9 68.1zm507.2 -142l-68.1 -9.7 -30.3 -61.8c-5.7 -11.3 -21.5 -11.3 -27.2 0l-30.2 61.8 -68.2 9.7c-12.1 1.8 -17.4 16.8 -8.4 25.8l49.6 48.1 -11.7 68.1c-1.9 12.1 10.6 21.5 21.5 15.4l61.1 -31.8L702 498c10.9 6.1 23.4 -3.3 21.4 -15.4l-11.7 -68.1 49.6 -48.1c8.8 -9 3.5 -23.8 -8.6 -25.8z"/></svg>