<svg height="512" width="496" xmlns="http://www.w3.org/2000/svg"><path d="M440 160c29.5 0 53.3-26.3 53.3-58.7 0-25-31.7-75.5-46.2-97.3-3.6-5.3-10.7-5.3-14.2 0-14.5 21.8-46.2 72.3-46.2 97.3 0 32.4 23.8 58.7 53.3 58.7M248 400c51.9 0 115.3-32.9 123.3-80 1.7-9.9-7.7-18.5-17.7-15.3C327.7 313 289.2 317.8 248 317.8S168.4 313 142.4 304.7C132.6 301.6 123 310 124.7 320c8 47.1 71.4 80 123.3 80M378.3 231.7c3.6-1.1 6-4.5 5.7-8.3C380.7 181.3 351.8 152 328 152s-52.7 29.3-56 71.4c-.3 3.7 2.1 7.2 5.7 8.3 3.5 1.1 7.4-.5 9.3-3.7l9.5-17c7.7-13.7 19.2-21.6 31.5-21.6s23.8 7.9 31.5 21.6l9.5 17c2.1 3.6 6.2 4.6 9.3 3.7m105.3-52.9c-24.6 15.7-46 12.9-46.4 12.9 6.9 20.2 10.8 41.8 10.8 64.3 0 110.3-89.7 200-200 200S48 366.3 48 256 137.7 56 248 56c39.8 0 76.8 11.8 108 31.9 1.7-9.5 6.3-24.1 17.2-45.7C336.4 20.6 293.7 8 248 8 111 8 0 119 0 256s111 248 248 248S496 393 496 256c0-27-4.4-52.9-12.4-77.2M168 189.4c12.3 0 23.8 7.9 31.5 21.6l9.5 17c2.1 3.7 6.2 4.7 9.3 3.7 3.6-1.1 6-4.5 5.7-8.3C220.7 181.3 191.8 152 168 152s-52.7 29.3-56 71.4c-.3 3.7 2.1 7.2 5.7 8.3 3.5 1.1 7.4-.5 9.3-3.7l9.5-17c7.7-13.8 19.2-21.6 31.5-21.6"/></svg>