<svg height="512" width="496" xmlns="http://www.w3.org/2000/svg"><path d="M152 180c-25.7 0-55.9 16.9-59.8 42.1-.8 5 1.7 10 6.1 12.4s9.9 1.8 13.7-1.6l9.5-8.5c14.8-13.2 46.2-13.2 61 0l9.5 8.5c2.5 2.2 8 4.7 13.7 1.6 4.4-2.4 6.9-7.4 6.1-12.4C207.9 196.9 177.7 180 152 180m176-52c-44.2 0-80 35.8-80 80s35.8 80 80 80 80-35.8 80-80-35.8-80-80-80m0 128c-26.5 0-48-21.5-48-48s21.5-48 48-48 48 21.5 48 48-21.5 48-48 48m0-72c-13.3 0-24 10.7-24 24s10.7 24 24 24 24-10.7 24-24-10.7-24-24-24M248 8C111 8 0 119 0 256s111 248 248 248S496 393 496 256 385 8 248 8m64 400c0 35.6-29.1 64.5-64.9 64C212 471.5 184 442.2 184 407v-42.8l17.7-8.8c15-7.5 31.5 1.7 34.9 16.5l2.8 12.1c2.1 9.2 15.2 9.2 17.3 0l2.8-12.1c3.4-14.8 19.8-24.1 34.9-16.5l17.7 8.8V408zm28.2 25.3c2.2-8.1 3.8-16.5 3.8-25.3v-43.5C358.2 352.1 368.4 337 371.3 320c1.7-9.9-7.7-18.5-17.7-15.3C327.7 313 289.2 317.8 248 317.8S168.4 313 142.4 304.7C132.5 301.6 123 310 124.7 320c2.9 17 13.1 32.1 27.3 44.5V408c0 8.8 1.6 17.2 3.8 25.3C91.8 399.9 48 333 48 256 48 145.7 137.7 56 248 56s200 89.7 200 200c0 77-43.8 143.9-107.8 177.3"/></svg>