<svg height="1000" width="968.8" xmlns="http://www.w3.org/2000/svg"><path d="M640.6 351.6c-50.2 0 -109.1 33 -116.9 82.2 -3.4 21.9 22.5 35.7 38.7 21.2l18.7 -16.6c28.9 -25.7 90.2 -25.7 119.1 0l18.6 16.6c16.6 14.5 42.1 .5 38.8 -21.2 -7.8 -49.2 -66.8 -82.2 -117 -82.2zM328.1 468.8c34.5 0 62.5 -28 62.5 -62.5s-28 -62.5 -62.5 -62.5 -62.5 27.9 -62.5 62.5 28 62.5 62.5 62.5zM690.5 595c-50.6 16.2 -125.8 25.5 -206.1 25.5S328.9 611.2 278.2 595c-19.4 -6.1 -37.9 10.5 -34.6 30 15.5 92.1 139.3 156.3 240.8 156.3S709.6 717.1 725.1 625c3.3 -19.4 -15 -36.1 -34.6 -30zM484.4 15.6C216.9 15.6 0 232.5 0 500s216.9 484.4 484.4 484.4S968.8 767.5 968.8 500 751.9 15.6 484.4 15.6zm0 875C269 890.6 93.8 715.4 93.8 500S269 109.4 484.4 109.4 875 284.6 875 500 699.8 890.6 484.4 890.6z"/></svg>