<svg height="1000" width="968.8" xmlns="http://www.w3.org/2000/svg"><path d="M484.4 15.6C216.8 15.6 0 232.4 0 500s216.8 484.4 484.4 484.4S968.8 767.6 968.8 500 752 15.6 484.4 15.6zm0 875C268.9 890.6 93.8 715.4 93.8 500S268.9 109.4 484.4 109.4 875 284.6 875 500 699.8 890.6 484.4 890.6zM690.6 594.9C640 611.1 564.8 620.5 484.4 620.5S328.9 611.1 278.1 594.9c-19.3 -6 -37.9 10.6 -34.5 29.9 15.4 92 139.2 156.3 240.8 156.3S709.6 716.8 725.2 624.8c3.1 -19.1 -15 -35.9 -34.6 -29.9zM328.1 468.8c34.6 0 62.5 -28 62.5 -62.5s-27.9 -62.5 -62.5 -62.5 -62.5 27.9 -62.5 62.5 28 62.5 62.5 62.5zm312.5 0c34.6 0 62.5 -28 62.5 -62.5s-27.9 -62.5 -62.5 -62.5 -62.5 27.9 -62.5 62.5 28 62.5 62.5 62.5z"/></svg>