<svg height="1000" width="1250" xmlns="http://www.w3.org/2000/svg"><path d="M228.7 500.2C178.3 507.4 64.6 527 31.6 560c-42.7 42.7 -42 113 1.8 156.8s113.9 44.5 156.8 1.8c33 -33.1 52.6 -146.7 59.8 -197.1 1.6 -12.5 -9 -23.1 -21.3 -21.3zm989.7 59.8c-33 -33 -146.7 -52.6 -197.1 -59.8 -12.3 -1.8 -22.9 8.8 -21.1 21.1 7.2 50.4 26.8 164.1 59.8 197.1 42.7 42.7 113 42 156.8 -1.8 43.6 -43.6 44.3 -113.9 1.6 -156.6zM971.1 680.5C905.9 805.3 775.2 890.6 625 890.6c-150.2 0 -280.9 -85.3 -346.1 -210.1 -24.4 73 -49.2 85.7 -55.3 90.8C310.7 899.8 458 984.4 625 984.4s314.3 -84.6 401.4 -213.1c-6.3 -5.3 -31.1 -18 -55.3 -90.8zm-731.5 -242C269.3 252.3 430.7 109.4 625 109.4c194.3 0 355.7 142.9 385.4 329.1 4.1 -.4 10.1 -4.7 96.6 13.6C1082.8 207 876.4 15.6 625 15.6S167.2 207 143 452c86.9 -18.4 92 -14.1 96.6 -13.5zM625 781.3C726.4 781.3 850.2 717 865.8 625c3.3 -19.3 -15 -36.1 -34.5 -29.9C780.7 611.3 705.5 620.7 625 620.7S469.5 611.3 418.8 595.1c-19.2 -6 -37.9 10.4 -34.6 29.9 15.6 92 139.4 156.3 240.8 156.3zM879.5 452.5c7 -2.1 11.7 -8.7 11.1 -16.2C884.2 354.1 827.7 296.9 781.3 296.9s-103 57.2 -109.4 139.4c-.6 7.3 4.1 14.1 11.1 16.2 6.8 2.2 14.5 -.9 18.2 -7.2l18.5 -33.2c15.1 -26.7 37.5 -42.2 61.6 -42.2s46.4 15.5 61.5 42.2l18.5 33.2c4.1 7 12.1 9 18.2 7.2zM468.8 369.9c24 0 46.4 15.5 61.5 42.2l18.5 33.2c4.1 7.2 12.1 9.2 18.2 7.2 7 -2.1 11.7 -8.7 11.1 -16.2C571.7 354.1 515.2 296.9 468.8 296.9s-103 57.2 -109.4 139.4c-.6 7.3 4.1 14.1 11.1 16.2 6.8 2.2 14.5 -.9 18.2 -7.2l18.5 -33.2c15.1 -26.9 37.5 -42.2 61.6 -42.2z"/></svg>