<svg height="1000" width="968.8" xmlns="http://www.w3.org/2000/svg"><path d="M640.6 351.6c50.2 0 109.2 33 117 82.2 3.3 21.7 -22.2 35.7 -38.8 21.2l-18.6 -16.6c-29 -25.7 -90.2 -25.7 -119.1 0L562.4 455c-16.2 14.5 -42.1 .7 -38.7 -21.2 7.8 -49.2 66.7 -82.2 116.9 -82.2zM328.1 468.8c-34.5 0 -62.5 -28 -62.5 -62.5s28 -62.5 62.5 -62.5 62.5 27.9 62.5 62.5 -28 62.5 -62.5 62.5zM690.5 595c19.6 -6.1 37.9 10.6 34.6 30C709.6 717.1 585.8 781.3 484.4 781.3S259.1 717.1 243.6 625c-3.3 -19.5 15.2 -36.1 34.6 -30 50.7 16.2 125.8 25.5 206.2 25.5S639.9 611.2 690.5 595zM484.4 15.6c267.5 0 484.4 216.9 484.4 484.4S751.9 984.4 484.4 984.4 0 767.5 0 500 216.9 15.6 484.4 15.6zm0 875C699.8 890.6 875 715.4 875 500S699.8 109.4 484.4 109.4 93.8 284.6 93.8 500 269 890.6 484.4 890.6z"/></svg>