<svg height="1000" width="968.8" xmlns="http://www.w3.org/2000/svg"><path d="M484.4 15.6C216.8 15.6 0 232.4 0 500s216.8 484.4 484.4 484.4S968.8 767.6 968.8 500 752 15.6 484.4 15.6zm125 781.3c0 69.5 -56.9 126 -126.8 125 -68.5 -1 -123.2 -58.2 -123.2 -127v-83.6l34.5 -17.2c29.3 -14.6 61.6 3.4 68.2 32.3l5.5 23.6c4.1 18 29.7 18 33.8 0l5.4 -23.6c6.7 -28.9 38.7 -47.1 68.2 -32.3l34.6 17.2v85.6zm55.1 49.4c4.3 -15.8 7.4 -32.2 7.4 -49.4v-85c27.7 -24.2 47.6 -53.7 53.3 -86.9 3.3 -19.3 -15 -36.1 -34.6 -29.9C640 611.3 564.8 620.7 484.4 620.7S328.9 611.3 278.1 595.1c-19.3 -6 -37.9 10.4 -34.5 29.9 5.6 33.2 25.5 62.7 53.3 86.9v85c0 17.2 3.1 33.6 7.4 49.4C179.3 781.1 93.8 650.4 93.8 500c0 -215.4 175.1 -390.6 390.6 -390.6S875 284.6 875 500c0 150.4 -85.5 281.1 -210.5 346.3zm72 -549c-7.4 -8.6 -20.1 -10.8 -29.9 -4.9l-156.2 93.7c-7 4.3 -11.3 11.9 -11.3 20.2s4.3 15.8 11.3 20.1l156.2 93.7c10.6 6.3 22.9 3.3 29.9 -4.9 7.4 -8.8 7.4 -21.4 .2 -30.2l-65.6 -78.7 65.6 -78.8c7.4 -8.7 7.2 -21.6 -.2 -30.2zm-318.1 88.8L262.1 292.4c-9.8 -5.9 -22.3 -3.9 -29.9 4.9 -7.4 8.8 -7.4 21.5 -.2 30.2l65.7 78.8L232 485c-7.4 8.8 -7.2 21.4 .2 30.2 7.1 8.2 19.4 11.2 29.9 4.9l156.3 -93.7c7 -4.3 11.3 -11.9 11.3 -20.1s-4.3 -15.9 -11.3 -20.2z"/></svg>