<svg height="1000" width="968.8" xmlns="http://www.w3.org/2000/svg"><path d="M859.4 312.5c-57.6 0 -104.1 -51.4 -104.1 -114.6C755.3 149 817.2 50.4 845.5 7.8c6.8 -10.3 20.7 -10.3 27.7 0 28.4 42.6 90.3 141.2 90.3 190.1 0 63.2 -46.5 114.6 -104.1 114.6zm-375 468.8C383 781.3 259.2 717 243.6 625c-3.4 -19.5 15.4 -35.9 34.5 -29.9 50.8 16.2 125.8 25.6 206.3 25.6S640 611.3 690.6 595.1c19.6 -6.2 37.9 10.6 34.6 29.9C709.6 717 585.7 781.3 484.4 781.3zM738.9 452.5c-6.1 1.8 -14.1 -.2 -18.2 -7.2l-18.6 -33.2c-15 -26.7 -37.5 -42.2 -61.5 -42.2s-46.5 15.5 -61.5 42.2l-18.6 33.2c-3.7 6.3 -11.3 9.4 -18.1 7.2 -7 -2.1 -11.7 -8.9 -11.1 -16.2 6.4 -82.2 62.8 -139.4 109.3 -139.4s103 57.2 109.4 139.4c.6 7.5 -4.1 14.1 -11.1 16.2zM944.5 349.2c15.7 47.5 24.3 98.1 24.3 150.8 0 267.6 -216.8 484.4 -484.4 484.4S0 767.6 0 500 216.8 15.6 484.4 15.6c89.2 0 172.6 24.6 244.5 66.8 -21.3 42.2 -30.3 70.7 -33.6 89.3C634.4 132.4 562.1 109.4 484.4 109.4 268.9 109.4 93.8 284.6 93.8 500s175.1 390.6 390.6 390.6S875 715.4 875 500c0 -43.9 -7.6 -86.1 -21.1 -125.6 .8 0 42.6 5.5 90.6 -25.2zm-616.4 20.7c-24 0 -46.5 15.3 -61.5 42.2L248 445.3c-3.7 6.3 -11.3 9.4 -18.1 7.2 -7 -2.1 -11.7 -8.9 -11.1 -16.2 6.4 -82.2 62.8 -139.4 109.3 -139.4s103 57.2 109.4 139.4c.6 7.4 -4.1 14.1 -11.1 16.2 -6.1 2 -14.1 0 -18.2 -7.2l-18.6 -33.2c-15 -26.7 -37.5 -42.2 -61.5 -42.2z"/></svg>