<svg height="1000" width="968.8" xmlns="http://www.w3.org/2000/svg"><path d="M391.2 484.4c-14.6 22.2 -48 23.4 -63.9 0C303.1 447.9 297.7 411.5 296.7 375c1.2 -36.5 6.4 -72.9 30.6 -109.4 14.9 -22.2 48.3 -23.4 63.9 0 24.2 36.5 29.7 72.9 30.7 109.4 -1.2 36.5 -6.5 72.9 -30.7 109.4zm250 0c-14.6 22.2 -48 23.4 -63.9 0C553.1 447.9 547.7 411.5 546.7 375c1.2 -36.5 6.4 -72.9 30.6 -109.4 14.9 -22.2 48.3 -23.4 63.9 0 24.2 36.5 29.7 72.9 30.7 109.4 -1.2 36.5 -6.5 72.9 -30.7 109.4zM484.4 15.6C752 15.6 968.8 232.4 968.8 500S752 984.4 484.4 984.4 0 767.6 0 500 216.8 15.6 484.4 15.6zm0 875C699.8 890.6 875 715.4 875 500S699.8 109.4 484.4 109.4 93.8 284.6 93.8 500s175.1 390.6 390.6 390.6zM690.6 594.9c19.6 -6 37.7 10.8 34.6 29.9 -15.6 92 -139.3 156.3 -240.8 156.3S259 717 243.6 624.8c-3.4 -19.5 15.2 -35.9 34.5 -29.9 50.8 16.2 125.8 25.6 206.3 25.6S640 611.1 690.6 594.9z"/></svg>