<svg height="1000" width="968.8" xmlns="http://www.w3.org/2000/svg"><path d="M484.4 15.6C752 15.6 968.8 232.4 968.8 500S752 984.4 484.4 984.4 0 767.6 0 500 216.8 15.6 484.4 15.6zm0 875C699.8 890.6 875 715.4 875 500S699.8 109.4 484.4 109.4 93.8 284.6 93.8 500s175.1 390.6 390.6 390.6zM690.6 594.9c19.6 -6 37.7 10.8 34.6 29.9 -15.6 92 -139.3 156.3 -240.8 156.3S259 716.8 243.6 624.8c-3.4 -19.3 15.2 -35.9 34.5 -29.9 50.8 16.2 125.8 25.6 206.3 25.6S640 611.1 690.6 594.9zM232.2 515.2c-7.4 -8.6 -7.6 -21.4 -.2 -30.2l65.7 -78.7L232 327.5c-7.2 -8.7 -7.2 -21.4 .2 -30.2 7.6 -8.6 19.9 -10.8 29.9 -4.9l156.3 93.7c7 4.3 11.3 11.9 11.3 20.2s-4.3 15.8 -11.3 20.1l-156.3 93.7c-10.5 6.3 -22.8 3.3 -29.9 -4.9zm474.4 4.9L550.4 426.4c-7 -4.3 -11.3 -11.9 -11.3 -20.1s4.3 -15.9 11.3 -20.2l156.2 -93.7c10 -5.7 22.5 -3.7 29.9 4.9 7.4 8.8 7.6 21.5 .2 30.2l-65.6 78.8 65.6 78.7c7.2 8.8 7.2 21.4 -.2 30.2 -7 8.2 -19.3 11.2 -29.9 4.9z"/></svg>