<svg height="1000" width="968.8" xmlns="http://www.w3.org/2000/svg"><path d="M484.4 15.6C752 15.6 968.8 232.4 968.8 500S752 984.4 484.4 984.4 0 767.6 0 500 216.8 15.6 484.4 15.6zm0 875C699.8 890.6 875 715.4 875 500S699.8 109.4 484.4 109.4 93.8 284.6 93.8 500s175.1 390.6 390.6 390.6zM690.6 594.9c19.6 -6 37.7 10.8 34.6 29.9 -15.6 92 -139.3 156.3 -240.8 156.3S259 716.8 243.6 624.8c-3.4 -19.5 15.4 -35.9 34.5 -29.9 50.8 16.2 125.8 25.6 206.3 25.6S640 611.1 690.6 594.9zM229.9 452.5c-7 -2.1 -11.7 -8.9 -11.2 -16.2 6.5 -82.2 62.9 -139.4 109.4 -139.4s103 57.2 109.4 139.4c.6 7.5 -4.1 14.1 -11.1 16.2 -6.1 2 -14.1 0 -18.2 -7.2l-18.6 -33.2c-15 -26.7 -37.5 -42.2 -61.5 -42.2s-46.5 15.5 -61.5 42.2L248 445.3c-3.7 6.3 -11.3 9.4 -18.1 7.2zm312.5 0c-7 -2.1 -11.7 -8.9 -11.2 -16.2 6.5 -82.2 62.9 -139.4 109.4 -139.4s103 57.2 109.4 139.4c.6 7.5 -4.1 14.1 -11.1 16.2 -6.1 2 -14.1 0 -18.2 -7.2l-18.6 -33.2c-15 -26.7 -37.5 -42.2 -61.5 -42.2s-46.5 15.5 -61.5 42.2l-18.6 33.2c-3.7 6.3 -11.3 9.4 -18.1 7.2z"/></svg>