<svg height="1000" width="968.8" xmlns="http://www.w3.org/2000/svg"><path d="M690.6 594.9C640 611.1 564.8 620.5 484.4 620.5S328.9 611.1 278.1 594.9c-19.1 -6 -37.9 10.4 -34.5 29.9C259 717 382.8 781.1 484.4 781.1S709.6 716.8 725.2 624.8c3.1 -19.1 -15 -35.9 -34.6 -29.9zM392.2 499.4c8.8 2.4 18 -2.9 20.5 -11.7l37.9 -136.5c10.9 -39.7 -14.5 -80.3 -56.3 -86.9 -36.3 -5.9 -71.1 19.1 -81 54.5l-3.9 13.8 -13.9 -3.7c-35.5 -9.2 -74.6 8.4 -87.7 43 -15 39.4 7.4 81.8 47.3 92.2l137.1 35.3zM760.9 371.9c-13 -34.4 -52.1 -52.2 -87.7 -43l-13.8 3.7 -3.9 -13.8c-9.8 -35.4 -44.6 -60.4 -81.1 -54.5 -41.8 6.6 -67.2 47.2 -56.2 86.9l37.9 136.5c2.3 8.8 11.5 14.1 20.5 11.7l137.1 -35.5c39.8 -10.4 62.3 -52.6 47.2 -92zM484.4 15.6C216.8 15.6 0 232.4 0 500s216.8 484.4 484.4 484.4S968.8 767.6 968.8 500 752 15.6 484.4 15.6zm0 875C268.9 890.6 93.8 715.4 93.8 500S268.9 109.4 484.4 109.4 875 284.6 875 500 699.8 890.6 484.4 890.6z"/></svg>