<svg height="512" width="496" xmlns="http://www.w3.org/2000/svg"><path d="M248 8C111 8 0 119 0 256s111 248 248 248S496 393 496 256 385 8 248 8m64 400c0 35.6-29.1 64.5-64.9 64C212 471.5 184 442.2 184 407v-42.8l17.7-8.8c15-7.5 31.5 1.7 34.9 16.5l2.8 12.1c2.1 9.2 15.2 9.2 17.3 0l2.8-12.1c3.4-14.8 19.8-24.1 34.9-16.5l17.7 8.8V408zm28.2 25.3c2.2-8.1 3.8-16.5 3.8-25.3v-43.5C358.2 352.1 368.4 337 371.3 320c1.7-9.9-7.7-18.5-17.7-15.3C327.7 313 289.2 317.8 248 317.8S168.4 313 142.4 304.7C132.5 301.6 123 310 124.7 320c2.9 17 13.1 32.1 27.3 44.5V408c0 8.8 1.6 17.2 3.8 25.3C91.8 399.9 48 333 48 256 48 145.7 137.7 56 248 56s200 89.7 200 200c0 77-43.8 143.9-107.8 177.3M168 176c-17.7 0-32 14.3-32 32s14.3 32 32 32 32-14.3 32-32-14.3-32-32-32m160 0c-17.7 0-32 14.3-32 32s14.3 32 32 32 32-14.3 32-32-14.3-32-32-32"/></svg>