<svg height="1000" width="968.8" xmlns="http://www.w3.org/2000/svg"><path d="M484.4 15.6C216.8 15.6 0 232.4 0 500s216.8 484.4 484.4 484.4S968.8 767.6 968.8 500 752 15.6 484.4 15.6zm0 875C268.9 890.6 93.8 715.4 93.8 500S268.9 109.4 484.4 109.4 875 284.6 875 500 699.8 890.6 484.4 890.6zM690.6 594.9C640 611.1 564.8 620.5 484.4 620.5S328.9 611.1 278.1 594.9c-19.1 -6 -37.9 10.4 -34.5 29.9 15.4 92 139.2 156.3 240.8 156.3S709.6 716.8 725.2 624.8c3.1 -19.1 -15 -35.9 -34.6 -29.9zM229.9 452.5c6.8 2.2 14.4 -.9 18.1 -7.2l18.6 -33.2c15 -26.7 37.5 -42.2 61.5 -42.2s46.5 15.5 61.5 42.2l18.6 33.2c4.1 7.2 12.1 9.2 18.2 7.2 7 -2.1 11.7 -8.7 11.1 -16.2C431.1 354.1 374.6 296.9 328.1 296.9S225.2 354.1 218.8 436.3c-.6 7.3 4.1 14.1 11.1 16.2zm312.5 0c6.8 2.2 14.4 -.9 18.1 -7.2l18.6 -33.2c15 -26.7 37.5 -42.2 61.5 -42.2s46.5 15.5 61.5 42.2l18.6 33.2c4.1 7.2 12.1 9.2 18.2 7.2 7 -2.1 11.7 -8.7 11.1 -16.2C743.6 354.1 687.1 296.9 640.6 296.9S537.7 354.1 531.3 436.3c-.6 7.3 4.1 14.1 11.1 16.2z"/></svg>