<svg height="1000" width="968.8" xmlns="http://www.w3.org/2000/svg"><path d="M296.9 351.6c50.2 0 109.2 33 116.8 82.2 1.5 9.8 -3.3 19.5 -11.9 24.2 -11.2 6.1 -21.9 1.2 -26.8 -3.1l-18.6 -16.6c-28.9 -25.8 -90.2 -25.8 -119.1 0l-18.6 16.6c-7.4 6.6 -18.1 7.8 -26.7 3.1 -8.6 -4.7 -13.5 -14.4 -11.9 -24.2 7.6 -49.2 66.6 -82.2 116.8 -82.2zM640.6 250c86.4 0 156.3 69.9 156.3 156.3S727 562.5 640.6 562.5 484.4 492.6 484.4 406.3 554.3 250 640.6 250zm0 250c51.8 0 93.8 -42 93.8 -93.7s-42 -93.8 -93.8 -93.8 -93.7 42 -93.7 93.8 42 93.7 93.7 93.7zm0 -140.6c26 0 46.9 20.9 46.9 46.9s-20.9 46.8 -46.9 46.8 -46.8 -20.9 -46.8 -46.8 20.8 -46.9 46.8 -46.9zM484.4 15.6C752 15.6 968.8 232.4 968.8 500S752 984.4 484.4 984.4 0 767.6 0 500 216.8 15.6 484.4 15.6zm125 781.3h.2v-85.6L575 694.1c-29.5 -14.8 -61.5 3.4 -68.2 32.3l-5.4 23.6c-4.1 18 -29.7 18 -33.8 0l-5.5 -23.6c-6.6 -28.9 -38.9 -46.9 -68.2 -32.3l-34.5 17.2v83.6c0 68.8 54.7 126 123.2 127 69.9 1 126.8 -55.5 126.8 -125zm55.1 49.4C789.5 781.1 875 650.4 875 500 875 284.6 699.8 109.4 484.4 109.4S93.8 284.6 93.8 500c0 150.4 85.5 281.1 210.5 346.3 -4.3 -15.8 -7.4 -32.2 -7.4 -49.4v-85C269.1 687.7 249.2 658.2 243.6 625c-3.4 -19.5 15.2 -35.9 34.5 -29.9 50.8 16.2 125.8 25.6 206.3 25.6S640 611.3 690.6 595.1c19.6 -6.2 37.9 10.6 34.6 29.9 -5.7 33.2 -25.6 62.7 -53.3 86.9v85c0 17.2 -3.1 33.6 -7.4 49.4z"/></svg>