<svg height="512" width="496" xmlns="http://www.w3.org/2000/svg"><path d="M328 180c-25.7 0-55.9 16.9-59.9 42.1-1.7 11.2 11.5 18.3 19.9 10.9l9.5-8.5c14.8-13.2 46.2-13.2 61 0l9.5 8.5c8.5 7.4 21.6.2 19.9-10.9C383.9 196.9 353.7 180 328 180m-160 60c17.7 0 32-14.3 32-32s-14.3-32-32-32-32 14.3-32 32 14.3 32 32 32m185.6 64.6c-26 8.3-64.5 13.1-105.6 13.1s-79.6-4.8-105.6-13.1C132.5 301.5 123 310 124.7 320c8 47.1 71.4 80 123.3 80s115.3-32.9 123.3-80c1.6-9.9-7.7-18.5-17.7-15.4M248 8C111 8 0 119 0 256s111 248 248 248S496 393 496 256 385 8 248 8m0 448C137.7 456 48 366.3 48 256S137.7 56 248 56s200 89.7 200 200S358.3 456 248 456"/></svg>