<svg height="1000" width="968.8" xmlns="http://www.w3.org/2000/svg"><path d="M484.4 15.6C752 15.6 968.8 232.4 968.8 500S752 984.4 484.4 984.4 0 767.6 0 500 216.8 15.6 484.4 15.6zm125 781.3h.2v-85.6L575 694.1c-29.5 -14.8 -61.5 3.4 -68.2 32.3l-5.4 23.6c-4.1 18 -29.7 18 -33.8 0l-5.5 -23.6c-6.6 -28.9 -38.9 -46.9 -68.2 -32.3l-34.5 17.2v83.6c0 68.8 54.7 126 123.2 127 69.9 1 126.8 -55.5 126.8 -125zm55.1 49.4C789.5 781.1 875 650.4 875 500 875 284.6 699.8 109.4 484.4 109.4S93.8 284.6 93.8 500c0 150.4 85.5 281.1 210.5 346.3 -4.3 -15.8 -7.4 -32.2 -7.4 -49.4v-85C269.1 687.7 249.2 658.2 243.6 625c-3.4 -19.5 15.2 -35.9 34.5 -29.9 50.8 16.2 125.8 25.6 206.3 25.6S640 611.3 690.6 595.1c19.6 -6.2 37.9 10.6 34.6 29.9 -5.7 33.2 -25.6 62.7 -53.3 86.9v85c0 17.2 -3.1 33.6 -7.4 49.4zm72 -549c7.4 8.6 7.6 21.5 .2 30.2l-65.6 78.7 65.6 78.8c7.2 8.7 7.2 21.4 -.2 30.2 -7 8.2 -19.3 11.2 -29.9 4.9L550.4 426.4c-7 -4.3 -11.3 -11.9 -11.3 -20.2s4.3 -15.8 11.3 -20.1l156.2 -93.7c9.8 -5.9 22.5 -3.7 29.9 4.9zm-318.1 88.8c7 4.3 11.3 11.9 11.3 20.1s-4.3 15.9 -11.3 20.2l-156.3 93.7c-10.5 6.3 -22.8 3.3 -29.9 -4.9 -7.4 -8.8 -7.6 -21.5 -.2 -30.2l65.7 -78.8L232 327.5c-7.2 -8.7 -7.2 -21.4 .2 -30.2 7.6 -8.8 20.1 -10.8 29.9 -4.9z"/></svg>