<svg height="1000" width="968.8" xmlns="http://www.w3.org/2000/svg"><path d="M484.4 15.6C752 15.6 968.8 232.4 968.8 500S752 984.4 484.4 984.4 0 767.6 0 500 216.8 15.6 484.4 15.6zm0 875C699.8 890.6 875 715.4 875 500S699.8 109.4 484.4 109.4 93.8 284.6 93.8 500s175.1 390.6 390.6 390.6zM690.6 594.9c19.6 -6 37.7 10.8 34.6 29.9 -15.6 92 -139.3 156.3 -240.8 156.3S259 717 243.6 624.8c-3.4 -19.5 15.4 -35.9 34.5 -29.9 50.8 16.2 125.8 25.6 206.3 25.6S640 611.1 690.6 594.9zM245.5 482.6l11.9 -68.1 -49.6 -48.1c-9 -9 -3.7 -24 8.4 -25.8l68.2 -9.7 30.2 -61.8c5.7 -11.3 21.5 -11.3 27.2 0l30.3 61.8 68.1 9.7c12.1 2 17.2 17 8.4 25.8L399 414.5l11.7 68.1c2 12.1 -10.5 21.5 -21.4 15.4l-61.2 -31.8L267 498c-10.9 6.1 -23.4 -3.3 -21.5 -15.4zm507.2 -142c12.1 2 17.4 16.8 8.6 25.8l-49.6 48.1 11.7 68.1c2 12.1 -10.5 21.5 -21.4 15.4l-61.2 -31.8L579.7 498c-11 6.1 -23.5 -3.3 -21.5 -15.4l11.7 -68.1 -49.6 -48.1c-9 -9 -3.7 -24 8.4 -25.8l68.2 -9.7 30.2 -61.8c5.7 -11.3 21.5 -11.3 27.2 0l30.3 61.8z"/></svg>