<svg height="1000" width="968.8" xmlns="http://www.w3.org/2000/svg"><path d="M296.9 351.6c-50.2 0 -109.2 33 -116.8 82.2 -1.6 9.8 3.3 19.5 11.9 24.2 8.6 4.7 19.3 3.5 26.8 -3.1l18.5 -16.6c28.9 -25.8 90.2 -25.8 119.1 0l18.6 16.6c4.9 4.3 15.6 9.2 26.8 3.1 8.6 -4.7 13.4 -14.4 11.9 -24.2 -7.6 -49.2 -66.6 -82.2 -116.8 -82.2zM640.6 250c-86.3 0 -156.2 69.9 -156.2 156.3s69.9 156.2 156.2 156.2S796.9 492.6 796.9 406.3 727 250 640.6 250zm0 250c-51.7 0 -93.7 -42 -93.7 -93.7s42 -93.8 93.7 -93.8 93.8 42 93.8 93.8 -42 93.7 -93.8 93.7zm0 -140.6c-26 0 -46.8 20.9 -46.8 46.9s20.8 46.8 46.8 46.8 46.9 -20.9 46.9 -46.8 -20.9 -46.9 -46.9 -46.9zM484.4 15.6C216.8 15.6 0 232.4 0 500s216.8 484.4 484.4 484.4S968.8 767.6 968.8 500 752 15.6 484.4 15.6zm125 781.3c0 69.5 -56.9 126 -126.8 125 -68.5 -1 -123.2 -58.2 -123.2 -127v-83.6l34.5 -17.2c29.3 -14.6 61.6 3.4 68.2 32.3l5.5 23.6c4.1 18 29.7 18 33.8 0l5.4 -23.6c6.7 -28.9 38.7 -47.1 68.2 -32.3l34.6 17.2v85.6zm55.1 49.4c4.3 -15.8 7.4 -32.2 7.4 -49.4v-85c27.7 -24.2 47.6 -53.7 53.3 -86.9 3.3 -19.3 -15 -36.1 -34.6 -29.9C640 611.3 564.8 620.7 484.4 620.7S328.9 611.3 278.1 595.1c-19.3 -6 -37.9 10.4 -34.5 29.9 5.6 33.2 25.5 62.7 53.3 86.9v85c0 17.2 3.1 33.6 7.4 49.4C179.3 781.1 93.8 650.4 93.8 500c0 -215.4 175.1 -390.6 390.6 -390.6S875 284.6 875 500c0 150.4 -85.5 281.1 -210.5 346.3z"/></svg>