<svg height="1000" width="968.8" xmlns="http://www.w3.org/2000/svg"><path d="M690.6 594.9c19.6 -6 37.7 10.8 34.6 29.9 -15.6 92 -139.3 156.3 -240.8 156.3S259 717 243.6 624.8c-3.4 -19.5 15.4 -35.9 34.5 -29.9 50.8 16.2 125.8 25.6 206.3 25.6S640 611.1 690.6 594.9zM392.2 499.4L255.1 464.1c-39.9 -10.4 -62.3 -52.8 -47.3 -92.2 13.1 -34.6 52.2 -52.2 87.7 -43l13.9 3.7 3.9 -13.8c9.9 -35.4 44.7 -60.4 81 -54.5 41.8 6.6 67.2 47.2 56.3 86.9l-37.9 136.5c-2.5 8.8 -11.7 14.1 -20.5 11.7zM760.9 371.9c15.1 39.4 -7.4 81.6 -47.2 92l-137.1 35.5c-9 2.4 -18.2 -2.9 -20.5 -11.7L518.2 351.2c-11 -39.7 14.4 -80.3 56.2 -86.9 36.5 -5.9 71.3 19.1 81.1 54.4l3.9 13.9 13.8 -3.7c35.6 -9.2 74.7 8.6 87.7 43zM484.4 15.6C752 15.6 968.8 232.4 968.8 500S752 984.4 484.4 984.4 0 767.6 0 500 216.8 15.6 484.4 15.6zm0 875C699.8 890.6 875 715.4 875 500S699.8 109.4 484.4 109.4 93.8 284.6 93.8 500s175.1 390.6 390.6 390.6z"/></svg>