<svg height="512" width="496" xmlns="http://www.w3.org/2000/svg"><path d="M248 8C111 8 0 119 0 256s111 248 248 248S496 393 496 256 385 8 248 8m63.7 128.7c7.6-11.4 24.7-11.7 32.7 0 12.4 18.4 15.1 36.9 15.7 55.3-.5 18.4-3.3 36.9-15.7 55.3-7.6 11.4-24.7 11.7-32.7 0C299.3 228.9 296.6 210.4 296 192c.5-18.4 3.3-36.9 15.7-55.3m-160 0c7.6-11.4 24.7-11.7 32.7 0 12.4 18.4 15.1 36.9 15.7 55.3-.5 18.4-3.3 36.9-15.7 55.3-7.6 11.4-24.7 11.7-32.7 0C139.3 228.9 136.6 210.4 136 192c.5-18.4 3.3-36.9 15.7-55.3M248 432c-60.6 0-134.5-38.3-143.8-93.3-2-11.8 9.3-21.6 20.7-17.9C155.1 330.5 200 336 248 336s92.9-5.5 123.1-15.2c11.4-3.7 22.6 6.1 20.7 17.9C382.5 393.7 308.6 432 248 432"/></svg>