<svg height="1000" width="1000" xmlns="http://www.w3.org/2000/svg"><path d="M228.7 750.2C178.3 757.4 64.6 777 31.6 810c-42.7 42.7 -42 113 1.8 156.8s113.9 44.5 156.8 1.8c33 -33.1 52.6 -146.7 59.8 -197.1 1.6 -12.5 -9 -23.1 -21.3 -21.3zm-80.5 -81.4C78.7 523.4 103.5 343.9 223.8 223.8 297.7 150 395.7 109.4 500 109.4c70.7 0 138.3 19.1 197.7 54.1 7.4 -39.7 15.6 -70.5 23.4 -94.4C652 33.6 576 15.6 500 15.6c-124 0 -247.9 47.3 -342.6 141.8C12.7 302.1 -20.9 515.6 55.9 692.6c23.8 -8 54.1 -16.2 92.3 -23.8zM836.3 302.3c87.9 149.7 68.2 345.6 -60.1 473.9C702.3 850 604.3 890.6 500 890.6 440.4 890.6 383.2 877 331.3 852c-7.7 38 -15.7 68.3 -23.9 92.1 61.4 26.6 127 40.3 192.8 40.3 124 0 247.8 -47.3 342.6 -141.8C995.3 690 1024.6 460.9 931.1 278.9c-24.1 7.8 -55.1 15.8 -94.8 23.4zm-65 -52.5C821.7 242.6 935.4 223 968.4 190c42.7 -42.7 42 -113 -1.8 -156.8S852.7 -11.3 809.8 31.4c-33 33.1 -52.6 146.7 -59.8 197.1 -1.6 12.5 9 23.1 21.3 21.3zM406.1 461.3c-5.9 -5.8 -14.1 -8.2 -22.3 -6.2L207 499.4c-11.1 2.7 -18.5 13.1 -17.7 24.6 .9 11.4 9.9 20.5 21.2 21.5l102.2 9.4 9.4 102.1c.9 11.4 10.1 20.3 21.5 21.3h1.7c10.8 0 20.1 -7.2 22.9 -17.8l44.1 -176.7c2 -8.2 -.4 -16.6 -6.2 -22.5zm77.5 -49l176.8 -44.1c11.1 -2.8 18.5 -13.1 17.7 -24.6 -1 -11.4 -9.9 -20.6 -21.3 -21.5l-102.1 -9.4 -9.4 -102.2c-1 -11.3 -10.1 -20.3 -21.5 -21.2 -10.9 -.2 -21.8 6.6 -24.6 17.7l-44.1 176.8c-2 8 .4 16.4 6.2 22.3 9.8 9.7 22.1 6.2 22.3 6.2zm101.6 172.9C528.3 642 468.6 688.5 421.3 712.9c-18 9.4 -19.5 34.2 -3.3 45.7 75.9 54.1 209 12.1 280.6 -59.8S812.5 494.1 758.4 418.2c-11.3 -16.1 -36.1 -14.9 -45.7 3.3 -24 47.3 -70.7 106.8 -127.5 163.7z"/></svg>