<svg height="1000" width="1250" xmlns="http://www.w3.org/2000/svg"><path d="M228.7 500.2c12.3 -1.8 22.9 8.8 21.3 21.3 -7.2 50.4 -26.8 164 -59.8 197.1C147.3 761.3 77.1 760.5 33.4 716.8 -10.4 673 -11.1 602.7 31.6 560c33 -33 146.7 -52.6 197.1 -59.8zm989.7 59.8c42.7 42.7 42 113 -1.6 156.6 -43.8 43.8 -114.1 44.5 -156.8 1.8 -33 -33 -52.6 -146.7 -59.8 -197.1 -1.8 -12.3 8.8 -22.9 21.1 -21.1 50.4 7.2 164.1 26.8 197.1 59.8zM971.1 680.5c24.2 72.8 49 85.5 55.3 90.8C939.3 899.8 792 984.4 625 984.4S310.7 899.8 223.6 771.3c6.1 -5.1 30.9 -17.8 55.3 -90.8C344.1 805.3 474.8 890.6 625 890.6S905.9 805.3 971.1 680.5zm-731.5 -242c-4.6 -.6 -9.7 -4.9 -96.6 13.5C167.2 207 373.6 15.6 625 15.6s457.8 191.4 482 436.5c-86.5 -18.3 -92.5 -14 -96.6 -13.6C980.7 252.3 819.3 109.4 625 109.4S269.3 252.3 239.6 438.5zM625 781.3C523.6 781.3 399.8 717 384.2 625c-3.3 -19.5 15.4 -35.9 34.6 -29.9 50.7 16.2 125.7 25.6 206.2 25.6s155.7 -9.4 206.3 -25.6c19.5 -6.2 37.8 10.6 34.5 29.9C850.2 717 726.4 781.3 625 781.3zM879.5 452.5c-6.1 1.8 -14.1 -.2 -18.2 -7.2l-18.5 -33.2c-15.1 -26.7 -37.5 -42.2 -61.5 -42.2s-46.5 15.5 -61.6 42.2l-18.5 33.2c-3.7 6.3 -11.4 9.4 -18.2 7.2 -7 -2.1 -11.7 -8.9 -11.1 -16.2 6.4 -82.2 62.9 -139.4 109.4 -139.4s102.9 57.2 109.3 139.4c.6 7.5 -4.1 14.1 -11.1 16.2zM468.8 369.9c-24.1 0 -46.5 15.3 -61.6 42.2l-18.5 33.2c-3.7 6.3 -11.4 9.4 -18.2 7.2 -7 -2.1 -11.7 -8.9 -11.1 -16.2 6.4 -82.2 62.9 -139.4 109.4 -139.4s102.9 57.2 109.3 139.4c.6 7.4 -4.1 14.1 -11.1 16.2 -6.1 2 -14.1 0 -18.2 -7.2l-18.5 -33.2c-15.1 -26.7 -37.5 -42.2 -61.5 -42.2z"/></svg>