<svg height="1000" width="1000" xmlns="http://www.w3.org/2000/svg"><path d="M228.7 750.2c12.3 -1.8 22.9 8.8 21.3 21.3 -7.2 50.4 -26.8 164 -59.8 197.1 -42.9 42.7 -113.1 41.9 -156.8 -1.8C-10.4 923 -11.1 852.7 31.6 810c33 -33 146.7 -52.6 197.1 -59.8zm-80.5 -81.4c-38.2 7.6 -68.5 15.8 -92.3 23.8C-20.9 515.6 12.7 302.1 157.4 157.4 252.1 62.9 376 15.6 500 15.6c76 0 152 18 221.1 53.5 -7.8 23.9 -16 54.7 -23.4 94.4 -59.4 -35 -127 -54.1 -197.7 -54.1 -104.3 0 -202.3 40.6 -276.2 114.4C103.5 343.9 78.7 523.4 148.2 668.8zM836.3 302.3c39.7 -7.6 70.7 -15.6 94.8 -23.4 93.5 182 64.2 411.1 -88.3 563.7C748 937.1 624.2 984.4 500.2 984.4c-65.8 0 -131.4 -13.7 -192.8 -40.3 8.2 -23.8 16.2 -54.1 23.8 -92.1 52 25 109.2 38.6 168.8 38.6 104.3 0 202.3 -40.6 276.2 -114.4C904.5 647.9 924.2 452 836.3 302.3zm-65 -52.5C759 251.6 748.4 241 750 228.5c7.2 -50.4 26.8 -164 59.8 -197.1 42.9 -42.7 113.1 -41.9 156.8 1.8 43.8 43.8 44.5 114.1 1.8 156.8 -33 33 -146.7 52.6 -197.1 59.8zM406.1 461.3c5.8 5.9 8.2 14.3 6.2 22.5l-44.1 176.7c-2.8 10.6 -12.1 17.8 -22.9 17.8h-1.7c-11.4 -1 -20.6 -9.9 -21.5 -21.3l-9.4 -102.1 -102.2 -9.4c-11.3 -1 -20.3 -10.1 -21.2 -21.5 -.8 -11.5 6.6 -21.9 17.7 -24.6l176.8 -44.3c8.2 -2 16.4 .4 22.3 6.2zm77.5 -49c-.2 0 -12.5 3.5 -22.3 -6.2 -5.8 -5.9 -8.2 -14.3 -6.2 -22.3L499.2 207c2.8 -11.1 13.7 -17.9 24.6 -17.7 11.4 .9 20.5 9.9 21.5 21.2l9.4 102.2 102.1 9.4c11.4 .9 20.3 10.1 21.3 21.5 .8 11.5 -6.6 21.8 -17.7 24.6zm101.6 172.9C642 528.3 688.7 468.8 712.7 421.5c9.6 -18.2 34.4 -19.4 45.7 -3.3 54.1 75.9 11.9 208.8 -59.8 280.6S493.9 812.7 418 758.6c-16.2 -11.5 -14.7 -36.3 3.3 -45.7 47.3 -24.4 107 -70.9 163.9 -127.7z"/></svg>