<svg height="512" width="448" xmlns="http://www.w3.org/2000/svg"><path d="M96 288H32C14.3 288 0 302.3 0 320v64c0 17.7 14.3 32 32 32h64c17.7 0 32-14.3 32-32v-64c0-17.7-14.3-32-32-32m160 0h-64c-17.7 0-32 14.3-32 32v64c0 17.7 14.3 32 32 32h64c17.7 0 32-14.3 32-32v-64c0-17.7-14.3-32-32-32m160 0h-64c-17.7 0-32 14.3-32 32v64c0 17.7 14.3 32 32 32h64c17.7 0 32-14.3 32-32v-64c0-17.7-14.3-32-32-32M96 96H32C14.3 96 0 110.3 0 128v64c0 17.7 14.3 32 32 32h64c17.7 0 32-14.3 32-32v-64C128 110.3 113.7 96 96 96m160 0h-64c-17.7 0-32 14.3-32 32v64c0 17.7 14.3 32 32 32h64c17.7 0 32-14.3 32-32v-64c0-17.7-14.3-32-32-32m160 0h-64c-17.7 0-32 14.3-32 32v64c0 17.7 14.3 32 32 32h64c17.7 0 32-14.3 32-32v-64c0-17.7-14.3-32-32-32"/></svg>