<svg height="512" width="320" xmlns="http://www.w3.org/2000/svg"><path d="M96 32H32C14.3 32 0 46.3 0 64v64c0 17.7 14.3 32 32 32h64c17.7 0 32-14.3 32-32V64C128 46.3 113.7 32 96 32m0 160H32C14.3 192 0 206.3 0 224v64c0 17.7 14.3 32 32 32h64c17.7 0 32-14.3 32-32v-64c0-17.7-14.3-32-32-32m0 160H32C14.3 352 0 366.3 0 384v64c0 17.7 14.3 32 32 32h64c17.7 0 32-14.3 32-32v-64c0-17.7-14.3-32-32-32M288 32h-64c-17.7 0-32 14.3-32 32v64c0 17.7 14.3 32 32 32h64c17.7 0 32-14.3 32-32V64C320 46.3 305.7 32 288 32m0 160h-64c-17.7 0-32 14.3-32 32v64c0 17.7 14.3 32 32 32h64c17.7 0 32-14.3 32-32v-64c0-17.7-14.3-32-32-32m0 160h-64c-17.7 0-32 14.3-32 32v64c0 17.7 14.3 32 32 32h64c17.7 0 32-14.3 32-32v-64c0-17.7-14.3-32-32-32"/></svg>