<svg height="512" width="512" xmlns="http://www.w3.org/2000/svg"><path d="M502.6 39 473 9.4a32 32 0 0 0-45.3 0l-46.2 46.3a35.1 35.1 0 0 0-8.6 13.8L360.8 106l-76.3 76.3C272.3 173.5 259 166.5 244.4 163.1c-33.4-7.8-67-.9-89.9 22a82.5 82.5 0 0 0-20.2 33.5c-6 18.6-23.2 32.7-42.2 34.5-23.7 2.2-45.7 11.4-62.6 28.4C-16.1 327-7.9 409 47.6 464.4s137.4 63.6 183 18.1c17-16.9 26.1-38.9 28.4-62.7 1.8-18.8 15.9-36.1 34.4-42.1a82.6 82.6 0 0 0 33.5-20.3c22.9-22.9 29.8-56.3 22-89.7-3.4-14.7-10.3-28-19.1-40.2L406 151.2l36.5-12.1a35.1 35.1 0 0 0 13.8-8.6l46.3-46.3a32 32 0 0 0 0-45.2M208 352a48 48 0 1 1 48-48 48 48 0 0 1-48 48"/></svg>