<svg height="512" width="512" xmlns="http://www.w3.org/2000/svg"><path d="M477.5 128C463 103 285.1 0 256.2 0S49.3 102.8 34.8 128s-14.4 230.8 0 256 192.4 128 221.4 128S463 409.1 477.5 384s14.5-231 0-256M316.1 414.2c-4 0-40.9-35.7-38-38.7.9-.8 6.3-1.4 17.6-1.8 0-26.2.6-68.6.9-86.3 0-2-.4-3.4-.4-5.9h-79.9c0 7.1-.5 36.2 1.3 72.9.2 4.6-1.6 6-5.7 6-10.1 0-20.3-.2-30.4-.1-4.1 0-5.9-1.6-5.8-6.1.9-33.5 3-84-.1-212.7v-3.2c-9.7-.3-16.4-1-17.3-1.8-2.9-2.9 34.6-38.7 38.5-38.7s41.2 35.8 38.3 38.7c-.9.9-7.9 1.5-16.8 1.8v3.2c-2.4 25.7-2 79.6-2.6 105.4h80.2c0-4.6.4-34.8-1.2-83.7-.1-3.4 1-5.1 4.2-5.2 11.1 0 22.2-.1 33.3 0 3.4 0 4.6 1.7 4.5 5.4C333 354.6 336 341.3 336 373.7c8.9.3 16.8 1 17.7 1.8 2.9 2.9-33.6 38.7-37.6 38.7"/></svg>