<svg height="512" width="576" xmlns="http://www.w3.org/2000/svg"><path d="m571.3 193.9-22.6-22.6c-6.3-6.2-16.4-6.2-22.7 0l-11.3 11.3-28.9-28.9c5.7-21.3.4-44.9-16.3-61.6L424.2 46.9C361.8-15.6 260.5-15.6 198 46.9l90.5 45.2v18.8c0 16.9 6.7 33.2 18.7 45.2l49.2 49.2c16.7 16.7 40.3 21.9 61.6 16.3l28.9 28.9-11.3 11.3c-6.3 6.3-6.3 16.4 0 22.6l22.6 22.7c6.2 6.2 16.4 6.2 22.6 0l90.5-90.5c6.3-6.3 6.3-16.4 0-22.7M284.6 178.7c-3.7-3.7-6.9-7.7-9.9-11.9L19.6 405c-25.5 23.8-26.2 64.1-1.5 88.9s65.1 24 88.9-1.5L345.2 237.3c-4-2.9-7.9-5.9-11.5-9.4z"/></svg>