<svg height="512" width="512" xmlns="http://www.w3.org/2000/svg"><path d="M509.3 307.3C504.3 295.6 492.8 288 480 288h-64V80C416 58 398 40 376 40s-40 18-40 40v134c0 5.5-4.5 10-10 10h-20c-5.5 0-10-4.5-10-10V40C296 18 278 0 256 0s-40 18-40 40v174c0 5.5-4.5 10-10 10h-20c-5.5 0-10-4.5-10-10V80C176 58 158 40 136 40S96 58 96 80v208H32c-12.7 0-24.3 7.6-29.3 19.3a32 32 0 0 0 5.9 34.5l102.7 110.1C147 490.1 199.7 512 256 512s109-21.9 144.7-60.1L503.4 341.8a32 32 0 0 0 5.9-34.5M256 416c-53 0-96-64-96-64s43-64 96-64 96 64 96 64-43 64-96 64m0-96c-17.7 0-32 14.3-32 32s14.3 32 32 32 32-14.3 32-32-14.3-32-32-32"/></svg>