<svg height="1000" width="875" xmlns="http://www.w3.org/2000/svg"><path d="M707.3 375C790.5 348.9 875 412.2 875 500v136.7c0 10.3 -1.2 20.1 -3.4 29.7L818 898.8C804.4 958.1 752 1000 691.9 1000H290.2c-46.6 0 -89.8 -25.4 -112.7 -66.4L70.4 742.2C32.8 675 59 610.8 118.7 562.1L9.8 279C-18.7 205 17.1 121.6 90.3 92.2c73.5 -29.5 156.9 7.1 185.7 81.9l36.5 154L294.6 144.5C294.6 64.8 358.7 0 437.5 0s142.9 64.8 142.9 144.5v171.2c51.2 -7.2 100.1 17 126.9 59.3zm73.9 261.7V500c0 -49.1 -71.4 -49.1 -71.4 0 0 17.3 -14 31.3 -31.2 31.3h-13.4c-17.3 0 -31.3 -14 -31.3 -31.3v-54.7c0 -49.1 -71.4 -49.1 -71.4 0V500c0 17.3 -14 31.3 -31.3 31.3h-13.3c-17.3 0 -31.3 -14 -31.3 -31.3V144.5c0 -67.2 -98.2 -67.1 -98.2 0V500c0 17.3 -14 31.3 -31.3 31.3h-22.7c-13.3 0 -24.6 -8.4 -29.1 -20.1L188.5 207.8C164.8 146.2 72.7 181.6 97.3 245.3l125.1 325.3c1.4 3.5 2.1 7.3 2.1 11.2 0 9.8 -4.5 18.5 -11.5 24.3l-52 42.5c-13.9 11.3 -17.7 31.9 -8.8 47.8l107.1 191.4c6.4 11.4 18.2 18.5 30.9 18.5h401.7c16.6 0 30.9 -11.8 34.8 -28.5l53.5 -232.4c.7 -2.9 1 -5.8 1 -8.7z"/></svg>