<svg height="512" width="448" xmlns="http://www.w3.org/2000/svg"><path d="M408.8 128c-22.4-.4-40.8 18.4-40.8 40.8V256h-8V79.8C360 57.4 341.6 38.6 319.2 39 297.5 39.4 280 57.2 280 79v177h-8V40.8C272 18.4 253.6-.4 231.2 0 209.5.4 192 18.2 192 40v216h-8V80.8C184 58.4 165.6 39.6 143.2 40 121.5 40.4 104 58.2 104 80v236L72.4 272.5c-13-17.9-38.1-21.8-55.9-8.9-17.9 13-21.8 38.1-8.8 55.9l125.6 172.7a48 48 0 0 0 38.8 19.8h197.6c22.2 0 41.6-15.3 46.7-37l26.5-112.7a192 192 0 0 0 5.1-43.9V168c0-21.8-17.5-39.6-39.2-40"/></svg>