<svg height="512" width="448" xmlns="http://www.w3.org/2000/svg"><path d="M358.2 179.4c-19.5-24.8-52.7-32-79.9-19.1-15.1-15.7-36.2-22.5-56.6-19.7V67C221.7 30.1 192 0 155.4 0S89.1 30.1 89.1 67v161.1C69.2 220.7 45.9 223 27.1 237c-29.4 21.8-35.8 63.3-14.6 93.2l109.7 154c12.4 17.4 32.5 27.8 53.8 27.8h178.3c30.8 0 57.6-21.5 64.5-51.8l27.5-119A68 68 0 0 0 448 326v-84c0-46.8-46.6-79.3-89.8-62.6M81 279.7l27.1 38.1c9 12.6 29 6.3 29-9.3V67c0-25.1 36.6-25.2 36.6 0v175c0 8.8 7.2 16 16 16h6.9c8.8 0 16-7.2 16-16v-35c0-25.1 36.5-25.2 36.5 0v35c0 8.8 7.2 16 16 16h6.9c8.8 0 16-7.2 16-16v-21c0-25.1 36.6-25.2 36.6 0v21c0 8.8 7.1 16 16 16h6.8c8.9 0 16-7.2 16-16 0-25.1 36.6-25.2 36.6 0v84c0 1.5-.2 3-.5 4.4l-27.4 119c-2 8.6-9.3 14.6-17.8 14.6H176c-5.8 0-11.3-2.9-14.7-7.7L51.6 302.3C37.2 282.1 66.6 259.5 81 279.7M176.1 400v-96c0-8.8 6.3-16 14-16h6c7.8 0 14 7.2 14 16v96c0 8.8-6.2 16-14 16h-6c-7.7 0-14-7.2-14-16m75.5 0v-96c0-8.8 6.2-16 14-16h6c7.7 0 14 7.2 14 16v96c0 8.8-6.3 16-14 16h-6c-7.8 0-14-7.2-14-16m75.4 0v-96c0-8.8 6.3-16 14-16h6c7.7 0 14 7.2 14 16v96c0 8.8-6.3 16-14 16h-6c-7.7 0-14-7.2-14-16"/></svg>