<svg height="1000" width="875" xmlns="http://www.w3.org/2000/svg"><path d="M368.8 1000c-88.1 0 -162.6 -74.4 -162.6 -162.5V669.2c-13.4 2.6 -28 4.2 -43.7 4.2C68.9 673.4 0 604.9 0 493.7 0 405.2 94.8 382.4 153.9 345.9c24.2 -15.1 45.5 -33.2 64.9 -50.5l.3 -.3 .3 -.2c34.1 -29.9 46.2 -45.4 46.2 -59v-5.2C256 219.5 250 204.3 250 187.5v-125C250 28 275.2 0 306.3 0h450c31 0 56.2 28 56.2 62.5v125c0 16.8 -6 32 -15.6 43.2v5.2c0 56.1 78.1 131.2 78.1 248.5V526c0 122.1 -75.5 192.9 -178 195.2 -34.8 24.3 -79.7 36.1 -122.7 31.2 -13.4 6.8 -28 12.1 -43.1 15.5v69.6c0 88.7 -73.4 162.5 -162.5 162.5zm0 -93.7c37 0 68.7 -31.7 68.7 -68.8V659.7c28.7 25.1 83.6 28.2 119.2 -9.7 38.4 22 89.1 3.3 104.8 -25.2 76.4 12.7 119.8 -19.7 119.8 -98.8v-41.6c0 -88.9 -70.2 -150.8 -77.5 -234.4H358.5c-5.7 49.3 -41.4 83.9 -77.3 115.4 -24.7 22 -49.4 42.4 -77.9 60.1C157.6 453.8 93.8 476.6 93.8 493.7c0 45.7 17.1 86 68.7 86 68.8 0 103.7 -51.6 137.5 -51.6v309.4c0 36 32.2 68.7 68.7 68.7zM640.6 125c0 25.9 21 46.9 46.9 46.9s46.9 -21 46.9 -46.9 -21 -46.9 -46.9 -46.9 -46.9 21 -46.9 46.9z"/></svg>