<svg height="512" width="640" xmlns="http://www.w3.org/2000/svg"><path d="M106.7 170.6h.1L156.3 150a7.3 7.3 0 0 0 3.7-6 7.3 7.3 0 0 0-3.7-6l-49.6-20.7L86 67.7a6.7 6.7 0 0 0-11.9 0l-20.7 49.6h-.1L3.7 138A7.3 7.3 0 0 0 0 144a7.3 7.3 0 0 0 3.7 6l49.6 20.6L74 220.3a6.7 6.7 0 0 0 11.9 0l20.7-49.7zm364.7 296.8-1-.4-1-.5a38.7 38.7 0 0 1 0-69.1l1-.5 1-.5 37.5-15.6 15.6-37.5.4-1 .5-.9c3.8-7.8 10.6-13.7 18.3-17.4 0-1.3.3-2.7.3-4V144a32 32 0 0 0-64 0v72a8 8 0 0 1-8 8h-16a8 8 0 0 1-8-8V64a32 32 0 0 0-64 0v152a8 8 0 0 1-8 8h-16a8 8 0 0 1-8-8V32a32 32 0 0 0-64 0v184a8 8 0 0 1-8 8h-16a8 8 0 0 1-8-8V64a32 32 0 0 0-64 0v241l-23.6-32.5a40 40 0 0 0-64.7 47.1l125.6 172.6a48.1 48.1 0 0 0 38.8 19.8h197.6c19.2 0 35.6-11.7 43.2-28.8v-.2zM349.8 339.5 320 351.9l-12.4 29.8a4 4 0 0 1-7.2 0L288 351.9l-29.8-12.4a4 4 0 0 1 0-7.1L288 319.9l12.4-29.7a4 4 0 0 1 7.2 0l12.4 29.7 29.8 12.5a4 4 0 0 1 0 7.1M640 431.9a7.3 7.3 0 0 0-3.7-6l-49.5-20.7h-.1L566 355.6a6.7 6.7 0 0 0-11.9 0l-20.7 49.7h-.1L483.7 426a7.3 7.3 0 0 0-3.7 6 7.3 7.3 0 0 0 3.7 5.9l49.6 20.7 20.7 49.6a6.7 6.7 0 0 0 11.9 0l20.7-49.6h.1l49.6-20.7a7.3 7.3 0 0 0 3.6-5.9z"/></svg>