<svg height="512" width="448" xmlns="http://www.w3.org/2000/svg"><path d="M105.6 83.2v86.2a115.5 115.5 0 0 0-22.4-2.2C35.3 167.2 0 202.3 0 259.2c0 45.3 48.5 57 78.8 75.7 12.4 7.7 23.3 17 33.2 25.9l.2.1.1.1c17.5 15.3 23.7 23.2 23.7 30.2v2.7c-5 5.7-8 13.5-8 22.1v64c0 17.7 12.9 32 28.8 32h230.4c15.9 0 28.8-14.3 28.8-32v-64c0-8.6-3-16.4-8-22.1v-2.7c0-28.7 40-67.1 40-127.2v-21.3c0-62.5-38.7-98.8-91.1-99.9-17.9-12.5-40.8-18.5-62.8-16a93 93 0 0 0-22.1-8V83.2C272 37.8 234.4 0 188.8 0c-45.1 0-83.2 38.1-83.2 83.2m118.4 0v91c14.7-12.8 42.8-14.4 61.1 5 19.6-11.3 45.6-1.7 53.6 12.9 39.1-6.5 61.3 10.1 61.3 50.6V264c0 45.5-35.9 77.2-39.7 120H183.6c-3-25.2-21.3-43-39.6-59.1-12.7-11.2-25.3-21.7-39.9-30.8C80.7 279.6 48 268 48 259.2c0-23.4 8.8-44 35.2-44 35.2 0 53.1 26.4 70.4 26.4V83.2C153.6 64.8 170.1 48 188.8 48c19 0 35.2 16.2 35.2 35.2M352 424c13.3 0 24 10.7 24 24s-10.7 24-24 24-24-10.7-24-24 10.7-24 24-24"/></svg>