<svg height="1000" width="875" xmlns="http://www.w3.org/2000/svg"><path d="M707.3 375C680.5 332.7 631.6 308.5 580.4 315.7V144.5C580.4 64.8 516.3 0 437.5 0 358.7 0 294.6 64.8 294.6 144.5l17.9 183.6L276 174.1C247.2 99.3 163.8 62.7 90.3 92.2 17.1 121.6 -18.7 205 9.8 279l108.9 283.1C59 610.8 32.8 675 70.4 742.2l107.1 191.4c22.9 41 66.1 66.4 112.7 66.4h401.7C752 1000 804.4 958.1 818 898.8l53.6 -232.4a132.4 -132.4 0 0 1 3.4 -29.7V500C875 412.2 790.5 348.9 707.3 375zm73.9 261.7c0 2.9 -.3 5.8 -1 8.7l-53.5 232.4c-3.9 16.7 -18.2 28.5 -34.8 28.5H290.2c-12.7 0 -24.5 -7.1 -30.9 -18.5L152.2 696.4c-8.9 -15.9 -5.1 -36.5 8.8 -47.8l52 -42.5a31.3 -31.3 0 0 1 9.4 -35.5L97.3 245.3c-24.6 -63.7 67.5 -99.1 91.2 -37.5l116.8 303.4a31.3 -31.3 0 0 1 29.1 20.1h22.7c17.3 0 31.3 -14 31.3 -31.3V144.5c0 -67.1 98.2 -67.2 98.2 0V500c0 17.3 14 31.3 31.3 31.3h13.3c17.3 0 31.3 -14 31.3 -31.3v-54.7c0 -49.1 71.4 -49.1 71.4 0V500c0 17.3 14 31.3 31.3 31.3h13.4c17.2 0 31.2 -14 31.2 -31.3 0 -49.1 71.4 -49.1 71.4 0v136.7z"/></svg>