<svg height="1000" width="875" xmlns="http://www.w3.org/2000/svg"><path d="M206.3 162.5C206.3 74.4 280.7 0 368.8 0c89 0 162.5 73.8 162.5 162.5v69.6c15 3.4 29.6 8.7 43 15.5 43 -4.9 87.9 6.9 122.7 31.2 102.5 2.3 178 73.1 178 195.2v41.6c0 117.3 -78.1 192.4 -78.1 248.5v5.2c9.6 11.2 15.6 26.4 15.6 43.2v125c0 34.5 -25.2 62.5 -56.2 62.5h-450C275.2 1000 250 972 250 937.5v-125c0 -16.8 6 -32 15.6 -43.2v-5.2c0 -13.6 -12.1 -29.1 -46.2 -59l-.3 -.2 -.3 -.3c-19.4 -17.3 -40.7 -35.4 -64.9 -50.5C94.8 617.6 0 594.8 0 506.3 0 395.1 68.9 326.6 162.5 326.6c.1 0 -.1 0 0 0 15 0 29.6 1.4 43.8 4.2V162.5zm231.2 0c0 -37.1 -31.7 -68.8 -68.8 -68.8 -36.5 0 -68.7 32.8 -68.7 68.8v309.4c-33.8 0 -68.7 -51.6 -137.5 -51.6 -51.6 0 -68.8 40.3 -68.8 85.9 0 17.2 63.9 40 109.6 68.3 28.5 17.7 53.2 38.1 77.9 60.1 35.9 31.5 71.5 66.1 77.3 115.4h345.3c7.3 -83.6 77.5 -145.5 77.5 -234.4V474c0 -79.1 -43.4 -111.5 -119.8 -98.8C645.8 346.7 595.1 328 556.7 350c-35.6 -37.9 -90.5 -34.8 -119.2 -9.7V162.5zm250 665.6c-25.9 0 -46.9 21 -46.9 46.9s21 46.9 46.9 46.9 46.9 -21 46.9 -46.9 -21 -46.9 -46.9 -46.9z"/></svg>