<svg height="512" width="512" xmlns="http://www.w3.org/2000/svg"><path d="M464.8 80C437.9 79.6 416 101.2 416 128h-8V96.8C408 70.5 387.1 48.5 360.8 48 333.9 47.6 312 69.2 312 96v32h-8V80.8C304 54.5 283.1 32.5 256.8 32 229.9 31.6 208 53.2 208 80v48h-8V96.8C200 70.5 179.1 48.5 152.8 48 125.9 47.6 104 69.2 104 96v136l-8-7.1v-48.1C96 150.5 75.1 128.5 48.8 128 21.9 127.6 0 149.2 0 176v66.4c0 27.4 11.7 53.5 32.2 71.8l111.7 99.3c10.2 9.1 16.1 22.2 16.1 35.9v6.7c0 13.3 10.7 24 24 24h240c13.3 0 24-10.7 24-24v-2.9c0-12.8 2.6-25.5 7.5-37.3l49-116.3c5-11.8 7.5-24.5 7.5-37.3V128.8C512 102.5 491.1 80.4 464.8 80"/></svg>