<svg height="1000" width="875" xmlns="http://www.w3.org/2000/svg"><path d="M727.7 220v-21.1C727.7 113.7 648.5 49.1 565.5 70.8 515.4 -25.8 381.7 -21.8 335.1 72.3c-80.7 -20.6 -161 40.9 -161 126.9v246.4c-39 -14.5 -84.6 -9.9 -121.2 17.3 -57.4 42.6 -70 123.7 -28.5 181.9l234.4 329a62.5 -62.5 0 0 1 50.9 26.2H745c29.1 0 54.4 -20.1 60.9 -48.5l59 -255.7A397.7 -397.7 0 0 1 875 606.6v-257C875 270.3 805.6 209 727.7 220zm53.5 386.6c0 22.9 -2.6 45.8 -7.7 68.1l-53.4 231.6H325.8l-225 -315.9c-28.2 -39.6 29.3 -83.5 57.4 -44.1l53 74.4c17.5 24.6 56.7 12.2 56.7 -18.2V199.2c0 -50.1 71.4 -48.4 71.4 1.4V500c0 17.3 14 31.3 31.2 31.3h13.4c17.3 0 31.3 -14 31.3 -31.3V130.9c0 -50.2 71.4 -48.5 71.4 1.3V500c0 17.3 14 31.3 31.3 31.3h13.3c17.3 0 31.3 -14 31.3 -31.3V197.5c0 -50.1 71.4 -48.4 71.4 1.4V500c0 17.3 14 31.3 31.3 31.3h13.4c17.2 0 31.2 -14 31.2 -31.3V351c0 -51.3 71.4 -50.1 71.4 -1.4v257z"/></svg>