<svg height="1000" width="1000" xmlns="http://www.w3.org/2000/svg"><path d="M798.6 154.4C754.8 88.2 669.4 71.8 605.6 108.3 548 46.9 451 47.6 394 108.3 301.9 55.5 181.7 118.2 177.8 227 87.6 205.9 0 273.4 0 366.1v111.2c0 64 27.9 124.9 76.5 167.3l190.9 166.1c8.3 7.3 6 10.9 6 64.3 0 34.5 28 62.5 62.5 62.5h492.2c34.5 0 62.5 -28 62.5 -62.5 0 -45.9 -2 -60 7.8 -82.8l83.7 -194.6c11.9 -27.7 17.9 -57 17.9 -87V287C1000 183.8 893.9 113.9 798.6 154.4zm107.7 356.2a126 -126 0 0 0 -10.4 50l-83.6 194.6c-10.2 23.8 -15.4 48.9 -15.4 74.7v13.9H367.2v-20.1c0 -32 -14 -62.5 -38.3 -83.7L138.1 573.9C109.9 549.3 93.8 514.1 93.8 477.3V366.1c0 -64.9 101.5 -65.5 101.5 1.3v80.5a31.3 -31.3 0 0 1 10.7 23.6l13.7 11.9a31.3 -31.3 0 0 1 51.8 -23.6V232.1c0 -64.6 101.5 -65.8 101.5 1.4v52.2c0 17.3 14 31.3 31.3 31.3H418c17.2 0 31.2 -14 31.2 -31.3v-80.3c0 -64.8 101.6 -65.8 101.6 1.3v79c0 17.3 14 31.3 31.2 31.3h13.7C613 317 627 303 627 285.7v-53.6c0 -64.5 101.5 -65.9 101.5 1.4v52.2c0 17.3 14 31.3 31.3 31.3h13.6c17.3 0 31.3 -14 31.3 -31.3 0 -64.7 101.6 -65.6 101.6 1.3v223.6z"/></svg>