<svg height="512" width="512" xmlns="http://www.w3.org/2000/svg"><path d="M501 116.2C481.6 84.7 449.8 80.4 434.7 81.2 420.6 30.3 372.7 27.1 364 27.1A74 74 0 0 0 291.7 86l-4.6 22.7L273.4 55.4C264.3 20.1 227-8.6 183.8 2.4a73.9 73.9 0 0 0-55.2 78.9 73.7 73.7 0 0 0-64.8 94.4l24.3 82.2C49.9 250.4 25.3 274.1 20 279.8A73.7 73.7 0 0 0 23.2 384l91.4 86a154.2 154.2 0 0 0 106 42h107.5a127.3 127.3 0 0 0 124.2-98.1l57.7-242a73.2 73.2 0 0 0-9-55.7m-37.7 44.6-57.7 241.9A79.5 79.5 0 0 1 328.1 464H220.6a106.3 106.3 0 0 1-73.1-29L56.1 349C31.3 325.7 66.6 288.1 91.4 311.5l51.1 48.1c5.4 5.2 13.5.8 13.5-5.8a246.8 246.8 0 0 0-10.2-70.1l-36-121.6c-9.7-32.9 39.7-47.2 49.4-14.6l31.3 105.8c5.6 18.9 33.8 10.7 29-8L177.1 80.2c-8.5-33.1 41.4-45.6 49.8-12.8l47.4 184c4.4 17.3 29.1 16.5 32.7-.8L338.8 95.7c6.8-33.1 57.5-24.1 50.1 11.9l-28.6 139.2c-3.7 18.1 23.7 24.6 28.1 6.2l24.8-104.1c7.9-33.4 57.9-21.1 50.1 11.9"/></svg>