<svg height="512" width="512" xmlns="http://www.w3.org/2000/svg"><path d="M0 220.8C0 266.4 37.8 304 83.2 304h35.6a93 93 0 0 0 8 22.1c-2.5 22 3.5 44.9 16 62.8 1.1 52.4 37.4 91.1 99.9 91.1H264c60.1 0 98.5-40 127.2-40h2.7c5.7 5 13.5 8 22.1 8h64c17.7 0 32-12.9 32-28.8V188.8C512 172.9 497.7 160 480 160h-64c-8.6 0-16.4 3-22.1 8h-2.7c-7 0-14.9-6.2-30.2-23.7l-.1-.1-.1-.2c-8.9-9.9-18.2-20.8-25.9-33.2C316.2 80.5 304.5 32 259.2 32c-56.9 0-92 35.3-92 83.2 0 8 .8 15.5 2.2 22.4H83.2C38.1 137.6 0 175.7 0 220.8m48 0c0-18.7 16.8-35.2 35.2-35.2h158.4c0-17.3-26.4-35.2-26.4-70.4 0-26.4 20.6-35.2 44-35.2 8.8 0 20.4 32.7 34.9 56.1 9.1 14.6 19.6 27.2 30.8 39.9 16.1 18.3 33.9 36.6 59.1 39.6v176.7C341.2 396.1 309.5 432 264 432h-21.3c-40.5 0-57.1-22.2-50.6-61.3-14.6-8-24.2-34-12.9-53.6-19.4-18.3-17.8-46.4-5-61.1h-91C64.2 256 48 239.8 48 220.8M448 360c13.3 0 24 10.7 24 24s-10.7 24-24 24-24-10.7-24-24 10.7-24 24-24"/></svg>