<svg height="512" width="512" xmlns="http://www.w3.org/2000/svg"><path d="M44.8 155.8H194q-8.7-12.3-14.1-24.9C166.2 99.1 189.8 64 224 64c18.6 0 32.2 10.9 40 29.1 12.1 28.3 78.6 64.3 107.5 77.3 17.9 8 28.5 25.5 28.5 43.9v171.5c0 11.8-8.6 21.9-20.3 23.7C332.9 416.7 318 448 256 447.8c-2.7 0-13.3.2-16 .2-50.7 0-81.6-22.1-72.6-71.3C148.8 367.4 136.7 337.3 151 314.4c-24.7-21.2-22.7-53.9-6.3-70.9H44.8C20.6 243.5 0 223.3 0 199.7c0-23.3 21.4-43.9 44.8-43.9M440 176h48c13.3 0 24 10.7 24 24v192c0 13.3-10.7 24-24 24h-48c-13.3 0-24-10.7-24-24V200c0-13.3 10.7-24 24-24m24 212c11 0 20-9 20-20s-9-20-20-20-20 9-20 20 9 20 20 20"/></svg>