<svg height="1000" width="1000" xmlns="http://www.w3.org/2000/svg"><path d="M0 431.3c0 89 73.8 162.5 162.5 162.5h69.6a181.9 -181.9 0 0 1 15.5 43c-4.9 43 6.9 87.9 31.2 122.7 2.3 102.5 73.1 178 195.2 178h41.6c117.3 0 192.4 -78.1 248.5 -78.1h5.2c11.2 9.6 26.4 15.6 43.2 15.6h125c34.5 0 62.5 -25.2 62.5 -56.2v-450c0 -31.1 -28 -56.3 -62.5 -56.3h-125c-16.8 0 -32 6 -43.2 15.6h-5.2c-13.6 0 -29.1 -12.1 -59 -46.2l-.2 -.3 -.3 -.3c-17.3 -19.4 -35.4 -40.7 -50.5 -64.9C617.6 157.3 594.8 62.5 506.3 62.5 395.1 62.5 326.6 131.4 326.6 225c0 15.7 1.6 30.3 4.2 43.8H162.5C74.4 268.8 0 343.2 0 431.3zm93.8 0c0 -36.6 32.7 -68.8 68.7 -68.8h309.4c0 -33.8 -51.6 -68.8 -51.6 -137.5 0 -51.6 40.3 -68.7 86 -68.7 17.1 0 39.9 63.8 68.2 109.5 17.7 28.5 38.1 53.2 60.1 77.9 31.5 35.9 66.1 71.6 115.4 77.3v345.3c-83.6 7.3 -145.5 77.5 -234.4 77.5H474c-79.1 0 -111.5 -43.4 -98.8 -119.8C346.7 708.3 328 657.6 350 619.2 312.1 583.6 315.2 528.7 340.3 500H162.5c-37.1 0 -68.7 -31.7 -68.7 -68.7zM875 703.1c25.9 0 46.9 21 46.9 46.9s-21 46.9 -46.9 46.9 -46.9 -21 -46.9 -46.9 21 -46.9 46.9 -46.9z"/></svg>