<svg height="1000" width="1000" xmlns="http://www.w3.org/2000/svg"><path d="M978.6 226.9c13.5 21.8 21.4 47.7 21.4 75.2 0 11.6 -1.4 22.9 -4 33.6L883.5 808.3C857.6 918.1 759 1000 641.5 1000H430.9c-.1 0 -.4 0 -.5 0 -80 0 -152.7 -31.2 -206.6 -82.1L45.4 750C17.4 723.7 0 686.4 0 645.1c0 -38.2 14.9 -72.9 39.1 -98.6 10.4 -11.1 58.4 -57.4 133.1 -42.7L124.6 343.3c-3.9 -13 -5.8 -26.8 -5.8 -41 0 -75.6 58.3 -137.6 132.4 -143.5 -.4 -4.8 -.6 -9.5 -.6 -14.4 0 -67.2 46 -123.7 108.3 -139.8C443.4 -16.8 516.2 39.2 534 108.3l26.7 103.9 9.1 -44.2C583.5 102.5 641.5 53.1 710.9 52.9c17.1 0 110.6 6.4 138.2 105.6 29.4 -1.4 91.6 6.9 129.5 68.4zM904.8 314C920.2 249.6 822.6 225.6 807 290.7l-48.4 203.5C750 530.1 696.5 517.4 703.8 482l55.7 -271.8c14.5 -70.4 -84.6 -88 -97.9 -23.4l-62.1 302.7c-6.9 33.8 -55.2 35.3 -63.8 1.6L443.2 131.6c-16.4 -64 -114 -39.5 -97.4 25.1l82.9 322.4c9.4 36.5 -45.6 52.5 -56.5 15.6L310.9 288.1C292 224.3 195.5 252.4 214.5 316.7L284.8 554c12.9 43.5 19.9 89.5 19.9 137.1 0 12.7 -15.7 21.3 -26.3 11.3l-99.9 -93.9c-48.4 -45.7 -117.3 27.7 -68.9 73.2l178.5 167.9c37.2 35.1 87.4 56.7 142.5 56.7H640.8c.1 0 .2 -.1 .4 -.1 73.4 0 135 -51.1 151.1 -119.6z"/></svg>