<svg height="1000" width="1250" xmlns="http://www.w3.org/2000/svg"><path d="M1014.1 249.8H1250v499.4h-125c-34.2 0 -62.1 -27.7 -62.3 -61.9H949.6c-3.5 16 -10.3 31.4 -21.3 44.9l-51.2 63.1c-30.8 37.9 -81.8 49.8 -125 32.8C725.8 860.5 692.4 875 656.8 875c-29.5 0 -55.8 -10 -80.2 -31.1 -62.1 42.8 -145.9 41.6 -206.3 -7.4L205.1 687.3h-17.8c-.2 34.2 -27.9 61.9 -62.3 61.9H0V249.8h230.5l92.9 -93C343.9 136.5 371.9 125 400.8 125h442.9c30.2 0 57.5 12.2 77.4 31.8zM93.8 686.7c17.1 0 31.2 -13.8 31.2 -31.2 0 -17.2 -14.1 -31.3 -31.2 -31.3s-31.3 14.1 -31.3 31.3c0 17.2 14.1 31.2 31.3 31.2zm761.7 -13.5c5.2 -6.6 4.3 -16.6 -2.4 -22L641.8 479.7l-16 14.6c-78.7 71.9 -169.4 23.1 -198.3 -8.6 -52.1 -56.6 -48.8 -145.3 8.6 -197.8l75.6 -69.3H401c-3.9 1.5 -7.3 2.9 -11.2 4.4L269.3 343.4h-81.8v250.2h54.1l190 171.8c31.5 25.6 80.9 20.5 108 -12.9L570.1 715l71.9 61.6c5.9 4.6 23.4 9.5 35.1 -4.7l58.6 -71.3 46.7 37.9c6.9 5.4 16.6 4.3 22.1 -2.4zm207 -79.6v-250h-87.3L854.7 223.2c-2.7 -2.9 -6.7 -4.5 -10.8 -4.5l-163.4 .4c-19.6 0 -38.3 7.3 -52.8 20.5L499.6 357c-18.9 17.2 -20.5 46.9 -2.3 66.2 17.3 18.4 49 17 67.5 0l107.9 -98.8c12.7 -11.5 32.4 -10.7 44.1 2l21.3 22.8c11.7 12.7 10.7 32.4 -2 44.2l-24.4 22.2 200.6 162.9c5.5 4.5 10.6 9.6 15 15.1h135.2zm93.8 93.1c17.1 0 31.2 -13.8 31.2 -31.2 0 -17.2 -14.1 -31.3 -31.2 -31.3s-31.3 14.1 -31.3 31.3c0 17.2 14.1 31.2 31.3 31.2z"/></svg>