<svg height="512" width="448" xmlns="http://www.w3.org/2000/svg"><path d="M362.1 192c-13.7-21.7-38.7-34-65-30.4V74C297.1 33.2 264.3 0 224 0s-73.1 33.2-73.1 74l9.1 94L141.3 89.2C126.6 50.8 83.8 32.1 46.2 47.2 8.7 62.2-9.6 105 5 142.8l55.8 145C30.2 312.7 16.8 345.6 36 380l54.9 98c11.7 21 33.8 34 57.7 34h205.7c30.7 0 57.5-21.4 64.5-51.8l27.5-119A67.8 67.8 0 0 0 448 326v-70c0-45-43.3-77.3-85.9-64M400 326c0 1.5-.2 3-.5 4.4l-27.4 119c-2 8.6-9.3 14.6-17.8 14.6H148.6c-6.5 0-12.6-3.6-15.8-9.4l-54.9-98c-4.5-8.2-2.6-18.7 4.5-24.5l26.7-21.8a16 16 0 0 0 4.8-18.1L49.8 125.6C37.2 93 84.4 74.8 96.5 106.4l59.8 155.3a16 16 0 0 0 14.9 10.3h11.7c8.8 0 16-7.2 16-16V74c0-34.4 50.2-34.4 50.2 0v182c0 8.8 7.2 16 16 16h6.9c8.8 0 16-7.2 16-16v-28c0-25.1 36.6-25.2 36.6 0v28c0 8.8 7.1 16 16 16h6.8c8.9 0 16-7.2 16-16 0-25.1 36.6-25.2 36.6 0z"/></svg>