<svg height="512" width="512" xmlns="http://www.w3.org/2000/svg"><path d="M256 480h70c5.1 0 10.2-.6 15.2-1.7l119-27.5c30.4-7 51.8-33.8 51.8-64.5V180.6c0-23.9-13-46-34-57.7L380 68C345.6 48.8 312.7 62.2 287.8 92.8L142.8 37C105 22.4 62.2 40.7 47.2 78.2c-15.1 37.7 3.6 80.4 42 95.1L168 192l-94-9.1C33.2 182.9 0 215.7 0 256s33.2 73.1 74 73.1h87.6c-3.6 26.3 8.7 51.3 30.4 65-13.3 42.6 19 85.9 64 85.9m0-48c-25.2 0-25.1-36.6 0-36.6 8.8 0 16-7.1 16-16v-6.8c0-8.9-7.2-16-16-16h-28c-25.2 0-25.1-36.6 0-36.6h28c8.8 0 16-7.2 16-16v-6.9c0-8.8-7.2-16-16-16H74c-34.4 0-34.4-50.2 0-50.2h182c8.8 0 16-7.2 16-16v-11.7a16 16 0 0 0-10.3-14.9L106.4 128.5C74.8 116.4 93 69.2 125.6 81.8l166.6 64.1a16 16 0 0 0 18.1-4.8l21.8-26.7c5.8-7.1 16.3-9 24.5-4.5l98 54.9c5.8 3.2 9.4 9.3 9.4 15.8v205.7c0 8.5-6 15.8-14.6 17.8l-119 27.4a19.7 19.7 0 0 1-4.4.5z"/></svg>