<svg height="512" width="576" xmlns="http://www.w3.org/2000/svg"><path d="M556.7 290.5 410.3 64.8C397 44.3 374.4 32 349.9 32H56C25.1 32 0 57.1 0 88v8c0 44.1 35.9 80 80 80h196l-18.3 48H144c-48.5 0-88 39.5-88 88 0 30.9 25.1 56 56 56h131.6c2.9 0 5.9.5 8.6 1.6l99.8 38.8V480h224V355.8c0-23.2-6.7-45.8-19.3-65.3M528 432H400v-23.6c0-19.9-12-37.5-30.6-44.7l-99.8-38.8a71.7 71.7 0 0 0-26-4.9H112c-4.4 0-8-3.6-8-8 0-22.1 17.9-40 40-40h113.7c19.8 0 37.8-12.4 44.8-30.9l24.6-64.3c9-23.5-8.4-48.8-33.6-48.8H80C62.4 128 48 113.6 48 96v-8c0-4.4 3.6-8 8-8h293.9c8.2 0 15.7 4.1 20.2 10.9l146.3 225.8a71.8 71.8 0 0 1 11.6 39.1z"/></svg>