<svg height="1000" width="1000" xmlns="http://www.w3.org/2000/svg"><path d="M500 937.5C412.2 937.5 348.9 853 375 769.8 332.7 743 308.5 694.1 315.7 642.9H144.5C64.8 642.9 0 578.8 0 500 0 421.2 64.8 357.1 144.5 357.1L328.1 375l-154 -36.5C99.3 309.7 62.7 226.3 92.2 152.8 121.6 79.6 205 43.8 279 72.3l283.1 108.9C610.8 121.5 675 95.3 742.2 132.9L933.6 240c41 22.9 66.4 66.1 66.4 112.7v401.7c0 60.1 -41.9 112.5 -101.2 126.1l-232.4 53.6c-9.7 2.2 -19.7 3.4 -29.7 3.4zm0 -93.8h136.7c3 0 5.9 -.3 8.7 -1l232.4 -53.5c16.7 -3.9 28.5 -18.2 28.5 -34.8V352.7c0 -12.7 -7.1 -24.5 -18.5 -30.9L696.4 214.7c-15.9 -8.9 -36.5 -5.1 -47.8 8.8l-42.5 52c-5.8 7.1 -14.5 11.5 -24.3 11.5 -3.9 0 -7.7 -.7 -11.2 -2.1L245.3 159.8c-63.7 -24.6 -99.1 67.5 -37.5 91.2l303.4 116.8c11.7 4.5 20 15.8 20 29.1v22.7c0 17.3 -13.9 31.3 -31.2 31.3H144.5c-67.1 0 -67.2 98.2 0 98.2H500c17.3 0 31.2 14 31.2 31.3v13.3C531.2 611 517.3 625 500 625h-54.7c-49.1 0 -49.1 71.4 0 71.4H500c17.3 0 31.2 14 31.2 31.3v13.4c0 17.2 -13.9 31.2 -31.2 31.2 -49.1 0 -49.1 71.4 0 71.4z"/></svg>