<svg height="512" width="384" xmlns="http://www.w3.org/2000/svg"><path d="M91.8 467.2V318q-12.3 8.7-24.9 14.1C35.1 345.8 0 322.2 0 288c0-18.6 10.9-32.2 29.1-40 28.3-12.1 64.3-78.6 77.3-107.5 8-17.9 25.5-28.5 43.9-28.5h171.5c11.8 0 21.9 8.6 23.7 20.3 7.2 46.8 38.5 61.7 38.3 123.7 0 2.7.2 13.3.2 16 0 50.7-22.1 81.6-71.3 72.6-9.3 18.6-39.4 30.7-62.3 16.5-21.2 24.6-53.9 22.6-70.9 6.2v99.9c0 24.1-20.2 44.8-43.8 44.8-23.3 0-43.9-21.4-43.9-44.8M112 72V24C112 10.7 122.7 0 136 0h192c13.3 0 24 10.7 24 24v48c0 13.3-10.7 24-24 24H136C122.7 96 112 85.3 112 72M324 48c0-11-9-20-20-20s-20 9-20 20 9 20 20 20 20-9 20-20"/></svg>