<svg height="1000" width="875" xmlns="http://www.w3.org/2000/svg"><path d="M727.7 220C805.6 209 875 270.3 875 349.6v257c0 30.7 -3.5 60.4 -10.1 89.2l-59 255.7c-6.5 28.4 -31.8 48.5 -60.9 48.5H309.7c-21.1 0 -39.6 -10.3 -50.9 -26.2L24.4 644.8C-17.1 586.6 -4.5 505.5 52.9 462.9c36.6 -27.2 82.2 -31.8 121.2 -17.3V199.2c0 -86 80.3 -147.5 161 -126.9 46.6 -94.1 180.3 -98.1 230.4 -1.5 83 -21.7 162.2 42.9 162.2 128.1V220zm53.5 386.6v-257c0 -48.7 -71.4 -49.9 -71.4 1.4v149c0 17.3 -14 31.3 -31.2 31.3h-13.4c-17.3 0 -31.3 -14 -31.3 -31.3V198.9c0 -49.8 -71.4 -51.5 -71.4 -1.4V500c0 17.3 -14 31.2 -31.3 31.2h-13.3c-17.3 0 -31.3 -13.9 -31.3 -31.2V132.2c0 -49.8 -71.4 -51.5 -71.4 -1.3V500c0 17.3 -14 31.2 -31.3 31.2h-13.4c-17.2 0 -31.2 -13.9 -31.2 -31.2V200.6c0 -49.8 -71.4 -51.5 -71.4 -1.4v403.3c0 30.4 -39.2 42.8 -56.7 18.2l-53 -74.4c-28.1 -39.4 -85.6 4.5 -57.4 44.1l225 315.8h394.3l53.4 -231.5c5.1 -22.3 7.7 -45.2 7.7 -68.1z"/></svg>