<svg height="512" width="640" xmlns="http://www.w3.org/2000/svg"><path d="M0 128.2V384h64a32 32 0 0 0 32-32V184L23.8 128.2zm48 191.9a16 16 0 1 1-16 16 16 16 0 0 1 16-16m80 31.8h18.3l90.5 81.9a64 64 0 0 0 90-9.3l.2-.2 17.9 15.5a37.2 37.2 0 0 0 52.3-5.4l8.8-10.8L128 208.7zM544 128.2v223.9a32 32 0 0 0 32 32h64V128.2zm48 223.9a16 16 0 1 1 16-16 16 16 0 0 1-16 16M303.3 202.7l59.6-54.6a16 16 0 0 1 21.6 23.6l-26.1 23.9L504 313.8a73 73 0 0 1 7.9 7.7V128L457.3 73.4A31.8 31.8 0 0 0 434.7 64h-85.9a31.9 31.9 0 0 0-21.6 8.4l-88.1 80.7-25.6-19.9L289.1 64h-83.8a32 32 0 0 0-22.6 9.4l-20.3 20.3L45.5 3.4A16 16 0 0 0 23 6.2L3.4 31.5a16 16 0 0 0 2.8 22.4l588.3 454.7a16 16 0 0 0 22.5-2.8l19.6-25.2a16 16 0 0 0-2.8-22.5z"/></svg>