<svg height="512" width="512" xmlns="http://www.w3.org/2000/svg"><path d="M512 199.7c0 23.6-20.6 43.8-44.8 43.8h-99.9c16.4 17 18.4 49.7-6.2 70.9 14.2 22.9 2.1 53-16.5 62.3 9 49.2-21.9 71.3-72.6 71.3-2.7 0-13.3-.2-16-.2-62 .2-76.9-31.1-123.7-38.3C120.6 407.7 112 397.6 112 385.8V214.3c0-18.4 10.6-35.9 28.5-43.9 28.9-13 95.4-49 107.5-77.3C255.8 74.9 269.4 64 288 64c34.2 0 57.8 35.1 44.1 66.9q-5.4 12.6-14.1 24.9h149.2c23.4 0 44.8 20.6 44.8 43.9M96 200v192c0 13.3-10.7 24-24 24H24C10.7 416 0 405.3 0 392V200c0-13.3 10.7-24 24-24h48c13.3 0 24 10.7 24 24M68 368c0-11-9-20-20-20s-20 9-20 20 9 20 20 20 20-9 20-20"/></svg>