<svg height="1000" width="1000" xmlns="http://www.w3.org/2000/svg"><path d="M500 937.5h136.7c10 0 20 -1.2 29.7 -3.4l232.4 -53.6c59.3 -13.6 101.2 -66 101.2 -126.1V352.7c0 -46.6 -25.4 -89.8 -66.4 -112.7L742.2 132.9C675 95.3 610.8 121.5 562.1 181.2L279 72.3C205 43.8 121.6 79.6 92.2 152.8c-29.5 73.5 7.1 156.9 81.9 185.7l154 36.5L144.5 357.1C64.8 357.1 0 421.2 0 500c0 78.8 64.8 142.9 144.5 142.9h171.2c-7.2 51.2 17 100.1 59.3 126.9 -26.1 83.2 37.2 167.7 125 167.7zm0 -93.8c-49.1 0 -49.1 -71.4 0 -71.4 17.3 0 31.3 -14 31.3 -31.2v-13.4c0 -17.3 -14 -31.3 -31.3 -31.3h-54.7c-49.1 0 -49.1 -71.4 0 -71.4H500c17.3 0 31.3 -14 31.3 -31.3v-13.3c0 -17.3 -14 -31.3 -31.3 -31.3H144.5c-67.2 0 -67.1 -98.2 0 -98.2H500c17.3 0 31.3 -14 31.3 -31.3v-22.7a31.3 -31.3 0 0 1 -20.1 -29.1L207.8 251c-61.6 -23.7 -26.2 -115.8 37.5 -91.2l325.3 125.1a31.3 -31.3 0 0 1 35.5 -9.4l42.5 -52c11.3 -13.9 31.9 -17.7 47.8 -8.8l191.4 107.1c11.4 6.4 18.5 18.2 18.5 30.9v401.7c0 16.6 -11.8 30.9 -28.5 34.8l-232.4 53.5a38.6 -38.6 0 0 0 -8.7 1H500z"/></svg>