<svg height="512" width="576" xmlns="http://www.w3.org/2000/svg"><path d="m271.1 144.3 54.2 14.3a8.6 8.6 0 0 1 6.7 8.1c0 4.6-4.1 8.4-9.2 8.4h-35.6A30 30 0 0 1 276 172.9c-5.2-2.2-11.2-1.7-15.3 2l-19 17.5a11.7 11.7 0 0 0-2.2 2.7 11.4 11.4 0 0 0 3.9 15.7 83.8 83.8 0 0 0 34.5 11.5V240c0 8.8 7.8 16 17.4 16h17.3c9.6 0 17.4-7.2 17.4-16v-17.6c32.9-3.6 57.8-31 53.5-63-3.1-23-22.5-41.3-46.6-47.7L282.7 97.4a8.6 8.6 0 0 1-6.6-8.1c0-4.6 4-8.4 9.1-8.4h35.6a30 30 0 0 1 11.2 2.2c5.2 2.2 11.3 1.7 15.3-2l19-17.5a11.3 11.3 0 0 0 2.2-2.6 11.4 11.4 0 0 0-3.9-15.8A83.8 83.8 0 0 0 330.1 33.7V16c0-8.8-7.8-16-17.4-16h-17.3C285.8 0 278 7.2 278 16v17.6c-32.9 3.6-57.8 31-53.5 63 3.1 23 22.5 41.3 46.6 47.7m294.2 183.8c-11.8-10.7-30.2-10-42.6 0L430.3 402a63.6 63.6 0 0 1-40 14H272a16 16 0 0 1 0-32h78.3c15.9 0 30.7-10.9 33.2-26.6a31 31 0 0 0 .5-5.5A32 32 0 0 0 352 320H192a117.7 117.7 0 0 0-74.1 26.3L71.4 384H16A16 16 0 0 0 0 400v96a16 16 0 0 0 16 16h356.8a64 64 0 0 0 40-14L564 377a32 32 0 0 0 1.3-48.9"/></svg>