<svg height="1000" width="1125" xmlns="http://www.w3.org/2000/svg"><path d="M1087.3 567.5L801.4 126.6c-26 -40.1 -70.1 -64.1 -118 -64.1h-574C49.1 62.5 0 111.6 0 171.9v15.6c0 86.2 70.1 156.3 156.3 156.3h382.8l-35.8 93.7h-222c-94.8 0 -171.9 77.1 -171.9 171.9 0 60.3 49 109.4 109.4 109.4h256.9c5.8 0 11.5 1 17 3.1l194.8 75.8v139.8H1125V695c0 -45.4 -13 -89.5 -37.7 -127.5zm-56 276.3h-250v-46.1c0 -39 -23.5 -73.3 -59.8 -87.4L526.7 634.6a140.1 -140.1 0 0 1 -51 -9.6H218.8c-8.7 0 -15.7 -7 -15.7 -15.6 0 -43.1 35.1 -78.1 78.2 -78.1h222c38.6 0 73.8 -24.3 87.6 -60.3l48 -125.6C656.4 299.4 622.4 250 573.2 250H156.3c-34.5 0 -62.5 -28 -62.5 -62.5v-15.6c0 -8.6 7 -15.6 15.6 -15.6h574c16 0 30.7 7.9 39.4 21.3l285.8 440.9a140.3 -140.3 0 0 0 22.7 76.5v148.8z"/></svg>