<svg height="1000" width="1000" xmlns="http://www.w3.org/2000/svg"><path d="M798.6 154.4C893.9 113.9 1000 183.8 1000 287v223.6c0 30 -6 59.3 -17.9 87l-83.7 194.6c-9.8 22.8 -7.8 36.9 -7.8 82.8 0 34.5 -28 62.5 -62.5 62.5H335.9c-34.5 0 -62.5 -28 -62.5 -62.5 0 -53.4 2.3 -57 -6 -64.3L76.5 644.6C27.9 602.2 0 541.3 0 477.3V366.1C0 273.4 87.6 205.9 177.8 227 181.7 118.2 301.9 55.5 394 108.3c57 -60.7 154 -61.4 211.6 0 63.8 -36.5 149.2 -20.1 193 46.1zm107.7 356.2V287c0 -66.9 -101.6 -66 -101.6 -1.3 0 17.3 -14 31.3 -31.3 31.3h-13.6c-17.3 0 -31.3 -14 -31.3 -31.3v-52.2C728.5 166.2 627 167.6 627 232.1v53.6C627 303 613 317 595.7 317H582c-17.2 0 -31.2 -14 -31.2 -31.3v-79c0 -67.1 -101.6 -66.1 -101.6 -1.3v80.3c0 17.3 -14 31.3 -31.2 31.3h-13.7C387 317 373 303 373 285.7v-52.2c0 -67.2 -101.5 -66 -101.5 -1.4v227.7c0 17.3 -14 31.3 -31.3 31.3 -7.8 0 -15 -2.9 -20.5 -7.7L206 471.5c-6.5 -5.7 -10.7 -14.2 -10.7 -23.6v-80.5c0 -66.8 -101.5 -66.2 -101.5 -1.3v111.2c0 36.8 16.1 72 44.3 96.6L328.9 740c24.3 21.2 38.3 51.7 38.3 83.7v20h429.7v-13.8c0 -25.8 5.2 -50.9 15.4 -74.7l83.6 -194.6c6.6 -15.3 10.4 -32.2 10.4 -49.9v-.1z"/></svg>