<svg height="1000" width="1000" xmlns="http://www.w3.org/2000/svg"><path d="M0 431.3C0 343.2 74.4 268.7 162.5 268.7h168.3c-2.6 -13.4 -4.2 -28 -4.2 -43.7 0 -93.6 68.5 -162.5 179.7 -162.5 88.5 0 111.3 94.8 147.8 153.9 15.1 24.2 33.2 45.5 50.5 64.9l.3 .3 .2 .3c29.9 34.1 45.4 46.2 59 46.2h5.2c11.2 -9.6 26.4 -15.6 43.2 -15.6h125c34.5 0 62.5 25.2 62.5 56.3v450c0 31 -28 56.2 -62.5 56.2h-125c-16.8 0 -32 -6 -43.2 -15.6h-5.2c-56.1 0 -131.2 78.1 -248.5 78.1H474c-122.1 0 -192.9 -75.5 -195.2 -178C254.5 724.7 242.7 679.8 247.6 636.8c-6.8 -13.4 -12.1 -28 -15.5 -43.1h-69.6C73.8 593.7 0 520.3 0 431.2zm93.8 0c0 37 31.6 68.7 68.7 68.7h177.8c-25.1 28.7 -28.2 83.6 9.7 119.2 -22 38.4 -3.3 89.1 25.2 104.8 -12.7 76.4 19.7 119.8 98.8 119.8h41.6c88.9 0 150.8 -70.2 234.4 -77.5V421c-49.3 -5.7 -83.9 -41.4 -115.4 -77.3 -22 -24.7 -42.4 -49.4 -60.1 -77.9C546.2 220.1 523.4 156.3 506.3 156.3c-45.7 0 -86 17.1 -86 68.7 0 68.8 51.6 103.7 51.6 137.5H162.5c-36 0 -68.7 32.2 -68.7 68.7zM875 703.1c-25.9 0 -46.9 21 -46.9 46.9s21 46.9 46.9 46.9 46.9 -21 46.9 -46.9 -21 -46.9 -46.9 -46.9z"/></svg>