<svg height="512" width="512" xmlns="http://www.w3.org/2000/svg"><path d="M408.9 79.1C386.5 45.2 342.8 36.8 310.1 55.5 280.6 24 230.9 24.4 201.7 55.4 154.6 28.4 93 60.5 91 116.2 44.8 105.4 0 140 0 187.4v57c0 32.7 14.3 63.9 39.2 85.6l97.7 85.1c4.2 3.7 3.1 5.6 3.1 32.9 0 17.7 14.3 32 32 32h252c17.7 0 32-14.3 32-32 0-23.5-1-30.7 4-42.4L502.8 306c6.1-14.2 9.2-29.2 9.2-44.6V147C512 94.1 457.7 58.3 408.9 79.1M464 261.4a64.5 64.5 0 0 1-5.3 25.6l-42.8 99.7c-5.2 12.1-7.9 25-7.9 38.2v7.1H188v-10.3c0-16.4-7.1-32-19.6-42.8L70.7 293.8C56.3 281.3 48 263.2 48 244.4v-57c0-33.2 52-33.5 52 .7v41.2a16 16 0 0 0 5.5 12.1l7 6.1A16 16 0 0 0 139 235.4V118.9c0-33.1 52-33.8 52 .6v26.8c0 8.8 7.2 16 16 16h7c8.8 0 16-7.2 16-16v-41.2c0-33.1 52-33.6 52 .7v40.5c0 8.8 7.2 16 16 16h7c8.8 0 16-7.2 16-16v-27.4c0-33.1 52-33.8 52 .6v26.8c0 8.8 7.2 16 16 16h7c8.8 0 16-7.2 16-16 0-33.2 52-33.6 52 .7z"/></svg>