<svg height="1000" width="875" xmlns="http://www.w3.org/2000/svg"><path d="M206.3 162.5v168.3a225.6 -225.6 0 0 1 -43.8 -4.2C68.9 326.6 0 395.1 0 506.3c0 88.5 94.8 111.3 153.9 147.8 24.2 15.1 45.5 33.2 64.9 50.5l.3 .3 .3 .2c34.1 29.9 46.2 45.4 46.2 59v5.2C256 780.5 250 795.7 250 812.5v125c0 34.5 25.2 62.5 56.3 62.5h450c31 0 56.2 -28 56.2 -62.5v-125c0 -16.8 -6 -32 -15.6 -43.2v-5.2C796.9 708 875 632.9 875 515.6V474C875 351.9 799.5 281.1 697 278.8 662.2 254.5 617.3 242.7 574.3 247.6a181.9 -181.9 0 0 1 -43 -15.5v-69.6C531.3 73.8 457.8 0 368.8 0 280.7 0 206.3 74.4 206.3 162.5zm231.2 0v177.8c28.7 -25.1 83.6 -28.2 119.2 9.7 38.4 -22 89.1 -3.3 104.8 25.2 76.4 -12.7 119.8 19.7 119.8 98.8v41.6c0 88.9 -70.2 150.8 -77.5 234.4H358.5c-5.8 -49.3 -41.4 -83.9 -77.3 -115.4 -24.7 -22 -49.4 -42.4 -77.9 -60.1C157.6 546.2 93.8 523.4 93.8 506.3c0 -45.7 17.1 -86 68.7 -86 68.8 0 103.7 51.6 137.5 51.6V162.5c0 -36 32.2 -68.7 68.8 -68.7 37 0 68.7 31.6 68.7 68.7zm250 665.6c25.9 0 46.9 21 46.9 46.9s-21 46.9 -46.9 46.9 -46.9 -21 -46.9 -46.9 21 -46.9 46.9 -46.9z"/></svg>