<svg height="512" width="576" xmlns="http://www.w3.org/2000/svg"><path d="M496 224a48 48 0 1 0-48-48 48 48 0 0 0 48 48M311.5 178.4A56.8 56.8 0 0 1 328 176a56 56 0 0 1 19 3.5l15.4-48.6A24 24 0 0 0 342 99.7c-11.5-1.3-22.2 6.5-25.7 17.6l-20.9 66.1zM93.7 386.3c.8-.2 1.5-.5 2.3-.7v-25.7a156 156 0 0 1 107.1-148l73.7-22.7L310.9 81A24 24 0 0 0 290.6 49.9c-11.5-1.3-22.2 6.5-25.7 17.6l-33.5 106.4A8 8 0 0 1 216.2 169L259.5 31.3A24 24 0 0 0 239.2.1C227.7-1.2 217 6.6 213.5 17.7l-47.9 151.7a8 8 0 1 1-15.3-4.8l38.6-122A24 24 0 0 0 168.5 11.4C157 10 146.3 17.8 142.8 28.9l-60 189.9-2-50.1A24 24 0 0 0 56.9 144.6C43.7 144.5 32.2 155.1 32 168.4v112.7a123.7 123.7 0 0 0 61.7 105.2M519.1 336H360a8 8 0 0 1 0-16h128a24 24 0 0 0 23.5-28.8C509.4 279.8 498.7 272 487.1 272H288l47.1-17.1a24 24 0 0 0-14.2-45.8l-107.7 33.2A123.9 123.9 0 0 0 128 360v25.6a79.8 79.8 0 0 1 58 108.7 118.9 118.9 0 0 0 62 17.7h208a24 24 0 0 0 23.5-28.8C477.4 471.8 466.7 464 455.1 464H360a8 8 0 0 1 0-16h128a24 24 0 0 0 23.5-28.8C509.4 407.8 498.7 400 487.1 400H360a8 8 0 0 1 0-16h160a24 24 0 0 0 23.5-28.8C541.4 343.8 530.7 336 519.1 336M416 64A32 32 0 1 0 384 32a32 32 0 0 0 32 32M112 416a48 48 0 1 0 48 48 48 48 0 0 0-48-48"/></svg>