<svg height="1000" width="1250" xmlns="http://www.w3.org/2000/svg"><path d="M1014.1 249.8l-93 -93A109.9 -109.9 0 0 1 843.8 125h-443c-28.9 0 -56.9 11.5 -77.4 31.8l-92.9 93H0v499.4h125c34.4 0 62.1 -27.7 62.3 -61.9h17.8l165.2 149.2c60.4 49 144.2 50.2 206.3 7.4C601 865 627.3 875 656.8 875c35.6 0 69 -14.5 95.3 -46.9 43.2 17 94.2 5.1 125 -32.8l51.2 -63.1c11 -13.4 17.8 -28.9 21.3 -44.9h113.1c.2 34.2 28.1 61.9 62.3 61.9h125V249.8h-235.9zM93.8 686.7c-17.2 0 -31.3 -14 -31.3 -31.2s14.1 -31.3 31.3 -31.3 31.2 14.1 31.2 31.3c0 17.4 -14.1 31.2 -31.2 31.2zm761.7 -13.5l-51 62.9c-5.5 6.7 -15.2 7.8 -22.1 2.4l-46.7 -37.9 -58.6 71.3c-11.7 14.2 -29.2 9.4 -35.1 4.7L570.1 715l-30.5 37.5c-27.1 33.4 -76.5 38.5 -108 12.9l-190 -171.8h-54.1V343.4h81.8L389.8 223c4 -1.5 7.3 -2.9 11.2 -4.4h110.7l-75.6 69.3c-57.4 52.5 -60.7 141.2 -8.6 197.8 28.9 31.7 119.6 80.5 198.3 8.6l16 -14.6 211.3 171.5c6.7 5.4 7.6 15.4 2.4 22zm207 -79.6H927.3c-4.4 -5.5 -9.5 -10.6 -15 -15.1L711.7 415.6l24.4 -22.2c12.7 -11.8 13.7 -31.5 2 -44.2l-21.3 -22.8c-11.7 -12.7 -31.4 -13.5 -44.1 -2l-107.9 98.8c-18.5 17 -50.2 18.4 -67.5 0 -18.2 -19.3 -16.6 -49 2.3 -66.2L627.7 239.6c14.5 -13.2 33.2 -20.5 52.8 -20.5l163.4 -.3c4.1 0 8.1 1.5 10.8 4.4l120.5 120.4h87.3v250zm93.8 93.1c-17.2 0 -31.3 -14 -31.3 -31.2s14.1 -31.3 31.3 -31.3 31.2 14.1 31.2 31.3c0 17.4 -14.1 31.2 -31.2 31.2z"/></svg>