<svg height="1000" width="1000" xmlns="http://www.w3.org/2000/svg"><path d="M837.5 268.8c88.1 0 162.5 74.4 162.5 162.5 0 89 -73.8 162.5 -162.5 162.5h-69.6c-3.4 15 -8.7 29.6 -15.5 43 4.9 43 -6.9 87.9 -31.2 122.7 -2.3 102.5 -73.1 178 -195.2 178h-41.6C367.1 937.5 292 859.4 235.9 859.4h-5.2C219.5 869 204.3 875 187.5 875h-125C28 875 0 849.8 0 818.8v-450c0 -31.1 28 -56.3 62.5 -56.3h125c16.8 0 32 6 43.2 15.6h5.2c13.6 0 29.1 -12.1 59 -46.2l.2 -.3 .3 -.3c17.3 -19.4 35.4 -40.7 50.5 -64.9C382.4 157.3 405.2 62.5 493.7 62.5c111.2 0 179.7 68.9 179.7 162.5 0 .1 0 -.1 0 0 0 15 -1.4 29.6 -4.2 43.8h168.3zm0 231.2c37.1 0 68.8 -31.7 68.8 -68.8 0 -36.5 -32.8 -68.7 -68.8 -68.7H528.1c0 -33.8 51.6 -68.7 51.6 -137.5 0 -51.6 -40.3 -68.8 -85.9 -68.8 -17.2 0 -40 63.9 -68.3 109.6 -17.7 28.5 -38.1 53.2 -60.1 77.9C333.9 379.6 299.3 415.2 250 421v345.3c83.6 7.3 145.5 77.5 234.4 77.5H526c79.1 0 111.5 -43.4 98.8 -119.8C653.3 708.3 672 657.6 650 619.2c37.9 -35.6 34.8 -90.5 9.7 -119.2h177.8zM171.9 750c0 -25.9 -21 -46.9 -46.9 -46.9s-46.9 21 -46.9 46.9 21 46.9 46.9 46.9 46.9 -21 46.9 -46.9z"/></svg>