<svg height="512" width="384" xmlns="http://www.w3.org/2000/svg"><path d="M135.7 0c23.6 0 43.8 20.6 43.8 44.8v99.9c17-16.4 49.7-18.4 70.9 6.3 22.9-14.3 53-2.2 62.3 16.4 49.2-9 71.3 21.9 71.3 72.6 0 2.7-.2 13.3-.2 16 .2 62-31.1 76.9-38.3 123.7-1.8 11.7-11.9 20.3-23.7 20.3H150.3c-18.4 0-35.9-10.6-43.9-28.5C93.4 342.6 57.4 276.1 29.1 264 10.9 256.2 0 242.6 0 224c0-34.2 35.1-57.8 66.9-44.1q12.6 5.4 24.9 14.1V44.8C91.8 21.3 112.4 0 135.7 0m.3 416h192c13.3 0 24 10.7 24 24v48c0 13.3-10.7 24-24 24H136c-13.3 0-24-10.7-24-24v-48c0-13.3 10.7-24 24-24m168 28c-11 0-20 9-20 20s9 20 20 20 20-9 20-20-9-20-20-20"/></svg>