<svg height="1000" width="1000" xmlns="http://www.w3.org/2000/svg"><path d="M41.2 745.7L293.3 983a62.5 -62.5 0 0 1 42.9 17h464c27.7 0 52.1 -18.2 60 -44.7l62.1 -209.6a226.5 -226.5 0 0 1 9.3 -64.4v-72c0 -7.9 1 -15.8 2.8 -23.5l62 -260.6C1016.1 242.4 952.8 163.6 868.4 164 860.3 115.5 824.3 71.9 771 58.6 701.1 41.1 629.9 83.3 612.3 153.8l-33 205.6L537 101.6C520.8 31.1 450.4 -12.8 380.1 3.3 322.3 16.6 282.2 66.6 278.8 123.1c-83.3 1.6 -143.5 79.2 -125.2 159.8l60.7 266.6C161.2 505.6 82.9 510.5 35.6 560.7c-49.6 52.7 -47.1 135.4 5.6 185zM103.8 625c14.1 -15 37.6 -15.6 52.5 -1.6l103.5 97.4c19.9 18.7 52.7 4.6 52.7 -22.7V562.4c0 -2.4 -.3 -4.7 -.8 -7L245.1 262.1c-11 -48.1 61.5 -64.2 72.3 -16.4l59.4 261.2a31.3 -31.3 0 0 1 30.5 24.3h16.8c20.1 0 34.9 -18.6 30.4 -38.2L373.3 139.2c-11 -47.8 61.3 -64.6 72.3 -16.6L533.9 507a31.3 -31.3 0 0 1 30.5 24.3h25.8a31.3 -31.3 0 0 1 30.3 -23.7l82.8 -331.1c11.9 -47.7 83.9 -29.6 72 18l-74.5 297.9c-4.9 19.7 10 38.9 30.3 38.9H750a31.3 -31.3 0 0 1 30.4 -24.1L833 286.3c11.4 -47.7 83.6 -30.6 72.2 17.2l-62 260.6a195.5 -195.5 0 0 1 -5.3 45.2v72c0 12.8 -1.9 25.5 -5.5 37.7l-55.5 187.3H348.6L105.4 677.4C90.5 663.4 89.8 639.9 103.8 625z"/></svg>