<svg height="512" width="448" xmlns="http://www.w3.org/2000/svg"><path d="M372.6 112.6v-10.8c0-43.6-40.5-76.7-83.1-65.5-25.6-49.5-94.1-47.5-118 .7C130.3 26.5 89.1 57.9 89.1 102v126.1c-19.9-7.4-43.3-5-62 8.9-29.4 21.8-35.8 63.3-14.6 93.2l120 168.4a32 32 0 0 0 26 13.4h222.9c14.9 0 27.9-10.3 31.2-24.8l30.2-131a203.6 203.6 0 0 0 5.2-45.6V179c0-40.6-35.5-72-75.4-66.4m27.4 198c0 11.7-1.3 23.4-4 34.8L368.7 464H166.8L51.6 302.3C37.2 282 66.6 259.5 81 279.7l27.1 38.1c9 12.6 29 6.3 29-9.3V102c0-25.6 36.6-24.8 36.6.7V256c0 8.8 7.2 16 16 16h6.9c8.8 0 16-7.2 16-16V67c0-25.7 36.5-24.8 36.5.7V256c0 8.8 7.2 16 16 16h6.9c8.8 0 16-7.2 16-16V101.1c0-25.6 36.6-24.8 36.6.7V256c0 8.8 7.1 16 16 16h6.8c8.9 0 16-7.2 16-16v-76.3c0-26.3 36.6-25.6 36.6-.7z"/></svg>