<svg height="1000" width="875" xmlns="http://www.w3.org/2000/svg"><path d="M699.6 350.3C661.5 301.9 596.7 287.9 543.6 313 514 282.4 472.9 269.1 433 274.7V130.9C433 58.7 375 0 303.6 0S174.1 58.7 174.1 130.9v314.7c-38.9 -14.5 -84.5 -10 -121.2 17.3 -57.4 42.6 -70 123.7 -28.5 181.9l214.3 300.8c24.3 34.1 63.5 54.4 105.1 54.4H692c60.1 0 112.4 -42 126.1 -101.2l53.5 -232.4a132.6 -132.6 0 0 1 3.4 -29.7v-164C875 381.2 783.9 317.8 699.6 350.3zm-541.4 196l53 74.4c17.5 24.6 56.7 12.2 56.7 -18.2V130.9c0 -49.1 71.4 -49.2 71.4 0v341.8c0 17.2 14 31.2 31.2 31.2h13.4c17.3 0 31.3 -14 31.3 -31.2v-68.4c0 -49.1 71.4 -49.1 71.4 0v68.4c0 17.2 14 31.2 31.3 31.2h13.4c17.2 0 31.2 -14 31.2 -31.2v-41.1c0 -49 71.4 -49.1 71.4 0v41.1c0 17.2 14 31.2 31.3 31.2h13.4c17.2 0 31.2 -14 31.2 -31.2 0 -49.1 71.4 -49.2 71.4 0v164c0 2.9 -.3 5.8 -.9 8.7l-53.6 232.4c-3.9 16.7 -18.2 28.5 -34.7 28.5H343.8c-11.3 0 -22 -5.7 -28.8 -15.1L100.8 590.4C72.6 550.9 130 506.8 158.2 546.3zm185.8 235V593.8c0 -17.3 12.3 -31.3 27.4 -31.3h11.7c15.1 0 27.3 14 27.3 31.3v187.5c0 17.2 -12.2 31.2 -27.3 31.2h-11.7c-15.1 0 -27.4 -14 -27.4 -31.2zm147.3 0V593.8c0 -17.3 12.3 -31.3 27.4 -31.3h11.7c15.1 0 27.4 14 27.4 31.3v187.5c0 17.2 -12.3 31.2 -27.4 31.2h-11.7c-15.1 0 -27.4 -14 -27.4 -31.2zm147.4 0V593.8c0 -17.3 12.2 -31.3 27.3 -31.3h11.7c15.1 0 27.4 14 27.4 31.3v187.5c0 17.2 -12.3 31.2 -27.4 31.2H666c-15.1 0 -27.3 -14 -27.3 -31.2z"/></svg>