<svg height="512" width="576" xmlns="http://www.w3.org/2000/svg"><path d="M159.9 175.8h64v64a16 16 0 0 0 16 16h64a16 16 0 0 0 16-16v-64h64a16 16 0 0 0 16-16v-64a16 16 0 0 0-16-16h-64v-64a16 16 0 0 0-16-16h-64a16 16 0 0 0-16 16v64h-64a16 16 0 0 0-16 16v64a16 16 0 0 0 16 16m408.2 160.3a39.9 39.9 0 0 0-56-8.4l-119.6 88.1H271.9a16 16 0 0 1 0-32h78.2c16 0 30.8-10.8 33.4-26.6a32.1 32.1 0 0 0-31.6-37.4h-160a117.7 117.7 0 0 0-74.2 26.3l-46.5 37.7H15.9a16.1 16.1 0 0 0-16 16v96a16.1 16.1 0 0 0 16 16h347a104.8 104.8 0 0 0 61.7-20.2l135-99.6a40 40 0 0 0 8.5-55.9"/></svg>