<svg height="512" width="448" xmlns="http://www.w3.org/2000/svg"><path d="M188.8 512c45.6 0 83.2-37.8 83.2-83.2v-35.6a93 93 0 0 0 22.1-8c22 2.5 44.9-3.5 62.8-16 52.4-1.1 91.1-37.4 91.1-99.9V248c0-60.1-40-98.5-40-127.2v-2.7c5-5.7 8-13.5 8-22.1V32C416 14.3 403.1 0 387.2 0H156.8C140.9 0 128 14.3 128 32v64c0 8.6 3 16.4 8 22.1v2.7c0 7-6.2 14.9-23.7 30.2l-.1.1-.2.1c-9.9 8.9-20.8 18.2-33.2 25.9C48.5 195.8 0 207.5 0 252.8c0 56.9 35.3 92 83.2 92 8 0 15.5-.8 22.4-2.2v86.2c0 45.1 38.1 83.2 83.2 83.2m0-48c-18.7 0-35.2-16.8-35.2-35.2V270.4c-17.3 0-35.2 26.4-70.4 26.4C56.8 296.8 48 276.2 48 252.8c0-8.8 32.7-20.4 56.1-34.9 14.6-9.1 27.2-19.6 39.9-30.8C162.3 171 180.6 153.2 183.6 128h176.7c3.8 42.8 39.7 74.5 39.7 120v21.3c0 40.5-22.2 57.1-61.3 50.6-8 14.6-34 24.2-53.6 12.9-18.3 19.4-46.4 17.8-61.1 5v91c0 19-16.2 35.2-35.2 35.2M328 64c0-13.3 10.7-24 24-24s24 10.7 24 24-10.7 24-24 24S328 77.3 328 64"/></svg>