<svg height="512" width="640" xmlns="http://www.w3.org/2000/svg"><path d="m358.6 195.6 145.6 118.2a63.4 63.4 0 0 1 22.2 37.9H624a16.1 16.1 0 0 0 16-16V143.9A16 16 0 0 0 624 128H512L457.4 73.4A32 32 0 0 0 434.8 64h-85.9a32 32 0 0 0-21.6 8.4l-88.1 80.7-25.7-19.9L289.1 64h-83.8a32 32 0 0 0-22.6 9.4l-20.3 20.3L45.5 3.4A16 16 0 0 0 23 6.2L3.4 31.5a16 16 0 0 0 2.8 22.4l588.3 454.7a16 16 0 0 0 22.5-2.8l19.6-25.2a16 16 0 0 0-2.8-22.5L303.4 202.7l32.7-29.9 27-24.7a16 16 0 0 1 21.6 23.6zM16 128A16.1 16.1 0 0 0 0 144v191.9a16 16 0 0 0 16 16h130.3l90.5 81.9a64 64 0 0 0 90-9.3l.2-.2 17.9 15.5a37.2 37.2 0 0 0 52.3-5.4l8.8-10.8L23.6 128z"/></svg>