<svg height="1000" width="875" xmlns="http://www.w3.org/2000/svg"><path d="M699.6 350.3C783.9 317.8 875 381.2 875 472.7v164c0 10.3 -1.2 20.1 -3.4 29.7l-53.5 232.4C804.4 958 752.1 1000 692 1000H343.8c-41.6 0 -80.8 -20.3 -105.1 -54.4L24.4 644.8C-17.1 586.6 -4.5 505.5 52.9 462.9c36.7 -27.3 82.3 -31.8 121.2 -17.3V130.9C174.1 58.7 232.2 0 303.6 0S433 58.7 433 130.9v143.8c39.9 -5.6 81 7.7 110.6 38.3 53.1 -25.1 117.9 -11.1 156 37.3zm-541.4 196c-28.2 -39.5 -85.6 4.6 -57.4 44.1L315 891.2c6.8 9.4 17.5 15 28.8 15H692c16.5 0 30.8 -11.7 34.7 -28.4l53.6 -232.4c.6 -2.9 .9 -5.8 .9 -8.7v-164c0 -49.2 -71.4 -49.1 -71.4 0 0 17.2 -14 31.2 -31.2 31.2h-13.4c-17.3 0 -31.3 -14 -31.3 -31.2v-41.1c0 -49.1 -71.4 -49 -71.4 0v41.1c0 17.2 -14 31.2 -31.2 31.2h-13.4c-17.3 0 -31.3 -14 -31.3 -31.2v-68.4c0 -49.1 -71.4 -49.1 -71.4 0v68.4c0 17.2 -14 31.2 -31.3 31.2h-13.4c-17.2 0 -31.2 -14 -31.2 -31.2V130.9c0 -49.2 -71.4 -49.1 -71.4 0v471.6c0 30.4 -39.2 42.8 -56.7 18.2zm185.8 235V593.8c0 -17.3 12.3 -31.3 27.4 -31.3h11.7c15.1 0 27.3 14 27.3 31.3v187.5c0 17.2 -12.2 31.2 -27.3 31.2h-11.7c-15.1 0 -27.4 -14 -27.4 -31.2zm147.3 0V593.8c0 -17.3 12.3 -31.3 27.4 -31.3h11.7c15.1 0 27.4 14 27.4 31.3v187.5c0 17.2 -12.3 31.2 -27.4 31.2h-11.7c-15.1 0 -27.4 -14 -27.4 -31.2zm147.4 0V593.8c0 -17.3 12.2 -31.3 27.3 -31.3h11.7c15.1 0 27.4 14 27.4 31.3v187.5c0 17.2 -12.3 31.2 -27.4 31.2H666c-15.1 0 -27.3 -14 -27.3 -31.2z"/></svg>