<svg height="1000" width="1125" xmlns="http://www.w3.org/2000/svg"><path d="M1087.3 567.5c24.7 38 37.7 82.1 37.7 127.5v242.5H687.5V797.7L492.7 721.9c-5.5 -2.1 -11.2 -3.1 -17 -3.1H218.8c-60.4 0 -109.4 -49.1 -109.4 -109.4 0 -94.8 77.1 -171.9 171.9 -171.9h222l35.8 -93.7H156.3C70.1 343.8 0 273.7 0 187.5v-15.6C0 111.6 49.1 62.5 109.4 62.5h574c47.9 0 92 24 118 64.1zm-56 276.3V695c0 -.1 -.1 -.2 -.1 -.3 0 -28.1 -8.3 -54.3 -22.6 -76.2L722.8 177.6c-8.7 -13.4 -23.4 -21.4 -39.4 -21.4h-574c-8.6 0 -15.6 7.1 -15.6 15.7v15.6c0 34.5 28 62.5 62.5 62.5h416.9c49.2 0 83.2 49.4 65.7 95.4l-48 125.6c-13.8 36 -49 60.2 -87.6 60.2h-222c-43.1 0 -78.2 35.1 -78.2 78.2 0 8.6 7 15.6 15.7 15.6h256.9s.1 .1 .2 .1c17.9 0 35 3.3 50.8 9.5l194.8 75.7c36.3 14.1 59.8 48.4 59.8 87.4v46h250z"/></svg>