<svg height="512" width="640" xmlns="http://www.w3.org/2000/svg"><path d="M232 160c-4.4 0-8 3.6-8 8v120h32V168c0-4.4-3.6-8-8-8zm-64 0c-4.4 0-8 3.6-8 8v120h32V168c0-4.4-3.6-8-8-8zm224 0c-4.4 0-8 3.6-8 8v120h32V168c0-4.4-3.6-8-8-8zm64 0c-4.4 0-8 3.6-8 8v120h32V168c0-4.4-3.6-8-8-8zm88 8c0-4.4-3.6-8-8-8h-16c-4.4 0-8 3.6-8 8v120h32zm-440-8c-4.4 0-8 3.6-8 8v120h32V168c0-4.4-3.6-8-8-8zm520 0h-32c-8.8 0-16 7.2-16 16v112c0 17.7-14.3 32-32 32H352V128c0-8.8-7.2-16-16-16h-32c-8.8 0-16 7.2-16 16v192H96C78.3 320 64 305.7 64 288V176c0-8.8-7.2-16-16-16H16c-8.8 0-16 7.2-16 16v112c0 53 43 96 96 96h192v64H112c-8.8 0-16 7.2-16 16v32c0 8.8 7.2 16 16 16h416c8.8 0 16-7.2 16-16v-32c0-8.8-7.2-16-16-16H352v-64h192c53 0 96-43 96-96V176c0-8.8-7.2-16-16-16m-16-32c13.3 0 24-11.9 24-26.7S608 48 608 48s-24 38.6-24 53.3 10.8 26.7 24 26.7m-576 0c13.3 0 24-11.9 24-26.7S32 48 32 48 8 86.6 8 101.3 18.8 128 32 128M320 80c13.3 0 24-11.9 24-26.7S320 0 320 0s-24 38.6-24 53.3S306.8 80 320 80m-208 48c13.3 0 24-11.9 24-26.7S112 48 112 48 88 86.6 88 101.3 98.8 128 112 128m64 0c13.3 0 24-11.9 24-26.7S176 48 176 48s-24 38.6-24 53.3 10.8 26.7 24 26.7m64 0c13.3 0 24-11.9 24-26.7S240 48 240 48s-24 38.6-24 53.3 10.8 26.7 24 26.7m160 0c13.3 0 24-11.9 24-26.7S400 48 400 48s-24 38.6-24 53.3 10.8 26.7 24 26.7m64 0c13.3 0 24-11.9 24-26.7S464 48 464 48s-24 38.6-24 53.3 10.8 26.7 24 26.7m64 0c13.3 0 24-11.9 24-26.7S528 48 528 48s-24 38.6-24 53.3 10.8 26.7 24 26.7"/></svg>