<svg height="512" width="448" xmlns="http://www.w3.org/2000/svg"><path d="m440.7 182.1 7.1-40C449.1 134.8 443.5 128 436 128h-74.8l14.6-81.9C377.1 38.8 371.5 32 364 32h-40.6a12 12 0 0 0-11.8 9.9L296.2 128h-98.7l14.7-81.9C213.5 38.8 207.8 32 200.3 32h-40.6a12 12 0 0 0-11.8 9.9L132.5 128H53.4a12 12 0 0 0-11.8 9.9l-7.1 40c-1.3 7.3 4.3 14.1 11.8 14.1h74.8L98.2 320H19.1a12 12 0 0 0-11.8 9.9l-7.1 40C-1.1 377.2 4.5 384 12 384h74.8l-14.6 81.9C70.9 473.2 76.5 480 84 480h40.6a12 12 0 0 0 11.8-9.9L151.8 384h98.7l-14.7 81.9c-1.3 7.3 4.4 14.1 11.9 14.1h40.6a12 12 0 0 0 11.8-9.9L315.5 384h79.1a12 12 0 0 0 11.8-9.9l7.1-40c1.3-7.3-4.3-14.1-11.8-14.1h-74.8l22.9-128h79.1a12 12 0 0 0 11.8-9.9M261.9 320h-98.6l22.8-128h98.6z"/></svg>