<svg height="1000" width="1125" xmlns="http://www.w3.org/2000/svg"><path d="M1108.2 460.2L903 165.2A93.8 -93.8 0 0 1 826 125H299a93.8 -93.8 0 0 1 -77 40.2l-205.2 295A93.8 -93.8 0 0 1 0 513.8v267.5C0 833 42 875 93.8 875h937.5c51.7 0 93.7 -42 93.7 -93.7V513.8c0 -19.2 -5.9 -37.8 -16.8 -53.6zM299 218.8h527l152.2 218.7H146.8L299 218.8zm732.3 562.5H93.8v-250h937.5v250zm-62.5 -125c0 34.5 -28 62.5 -62.5 62.5s-62.5 -28 -62.5 -62.5 27.9 -62.5 62.5 -62.5 62.5 27.9 62.5 62.5zm-187.5 0c0 34.5 -28 62.5 -62.5 62.5s-62.5 -28 -62.5 -62.5 27.9 -62.5 62.5 -62.5 62.5 27.9 62.5 62.5z"/></svg>