<svg height="1000" width="1125" xmlns="http://www.w3.org/2000/svg"><path d="M1108.2 460.2c10.9 15.8 16.8 34.4 16.8 53.6v267.5c0 51.7 -42 93.7 -93.8 93.7H93.7C42 875 0 833 0 781.3V513.8c0 -19.9 6.2 -38.4 16.8 -53.6L222 165.2C239 140.9 267.1 125 299 125h527c31.9 0 60 15.9 77 40.2zM299 218.8L146.8 437.5h831.4L826 218.8H299zm732.3 562.5v-250H93.8v250h937.5zm-62.5 -125c0 34.5 -28 62.5 -62.5 62.5s-62.5 -28 -62.5 -62.5 27.9 -62.5 62.5 -62.5 62.5 27.9 62.5 62.5zm-187.5 0c0 34.5 -28 62.5 -62.5 62.5s-62.5 -28 -62.5 -62.5 27.9 -62.5 62.5 -62.5 62.5 27.9 62.5 62.5z"/></svg>