<svg height="512" width="512" xmlns="http://www.w3.org/2000/svg"><path d="M272 240a16 16 0 1 0 16 16 16 16 0 0 0-16-16m-64-64a16 16 0 1 0 16 16 16 16 0 0 0-16-16m301.2 99C488.3 227.9 460.8 123.3 436.1 88.3A207.9 207.9 0 0 0 266.1 0H192C86 0 0 86 0 192a191.2 191.2 0 0 0 64 142.8V512h256v-64h64a64 64 0 0 0 64-64v-64h32a32 32 0 0 0 29.2-45M368 240h-12.1c-28.5 0-42.8 34.5-22.6 54.6l8.5 8.6a16 16 0 1 1-22.6 22.6l-8.6-8.5C290.5 297.1 256 311.4 256 339.9V352a16 16 0 0 1-32 0v-12.1c0-28.5-34.5-42.8-54.6-22.6l-8.6 8.5a16 16 0 0 1-22.6-22.6l8.6-8.6C166.9 274.5 152.6 240 124.1 240H112a16 16 0 0 1 0-32h12.1c28.5 0 42.8-34.5 22.7-54.6l-8.6-8.6a16 16 0 0 1 22.6-22.6l8.6 8.6c20.1 20.1 54.6 5.8 54.6-22.7V96a16 16 0 0 1 32 0v12.1c0 28.5 34.5 42.8 54.6 22.7l8.6-8.6a16 16 0 0 1 22.6 22.6l-8.5 8.6c-20.2 20.1-5.9 54.6 22.6 54.6H368a16 16 0 0 1 0 32"/></svg>