<svg height="512" width="512" xmlns="http://www.w3.org/2000/svg"><path d="M192 208c0-17.7-14.3-32-32-32h-16c-35.3 0-64 28.7-64 64v48c0 35.4 28.7 64 64 64h16c17.7 0 32-14.3 32-32zm176 144c35.4 0 64-28.6 64-64v-48c0-35.3-28.6-64-64-64h-16c-17.7 0-32 14.3-32 32v112c0 17.7 14.3 32 32 32zM256 0C113.2 0 4.6 118.8 0 256v16c0 8.8 7.2 16 16 16h16c8.8 0 16-7.2 16-16v-16C48 141.3 141.3 48 256 48s208 93.3 208 208h-.1c.1 2.4.1 165.7.1 165.7 0 23.4-18.9 42.3-42.3 42.3H320c0-26.5-21.5-48-48-48h-32c-26.5 0-48 21.5-48 48s21.5 48 48 48h181.7c49.9 0 90.3-40.4 90.3-90.3V256C507.4 118.8 398.8 0 256 0"/></svg>