<svg height="512" width="512" xmlns="http://www.w3.org/2000/svg"><path d="M160 288h-16c-35.3 0-64 28.7-64 64.1v63.8c0 35.4 28.7 64.1 64 64.1h16c17.7 0 32-14.4 32-32.1V320.1C192 302.4 177.7 288 160 288m208 0h-16c-17.7 0-32 14.4-32 32.1v127.8c0 17.7 14.3 32.1 32 32.1h16c35.4 0 64-28.7 64-64.1v-63.8C432 316.7 403.4 288 368 288M256 32C112.9 32 4.6 151.1 0 288v112c0 8.8 7.2 16 16 16h16c8.8 0 16-7.2 16-16V288C48 173.3 141.3 80.2 256 80.2S464 173.3 464 288v112c0 8.8 7.2 16 16 16h16c8.8 0 16-7.2 16-16V288C507.4 151.1 399.1 32 256 32"/></svg>