<svg height="512" width="640" xmlns="http://www.w3.org/2000/svg"><path d="M616 304a24 24 0 1 0-24-24 24 24 0 0 0 24 24m-64 112a24 24 0 1 0 24 24 24 24 0 0 0-24-24m-64-56a24 24 0 1 0 24 24 24 24 0 0 0-24-24m128 104a24 24 0 1 0 24 24 24 24 0 0 0-24-24m0-104a24 24 0 1 0 24 24 24 24 0 0 0-24-24m-64-40a24 24 0 1 0 24 24 24 24 0 0 0-24-24m-74.8-45C456.2 227.9 428.7 123.3 404.1 88.3A208.1 208.1 0 0 0 234.1 0H192C86 0 0 86 0 192c0 56.8 24.8 107.6 64 142.9V512h224v-32h64a64 64 0 0 0 64-64h-96a32 32 0 0 1 0-64h96v-32h32a32 32 0 0 0 29.2-45M288 224a32 32 0 1 1 32-32 32.1 32.1 0 0 1-32 32"/></svg>