<svg height="512" width="640" xmlns="http://www.w3.org/2000/svg"><path d="M454.1 319.2c19.6-3.8 31.6-25 23.1-44.2C456.2 227.9 428.7 123.3 404.1 88.3A208.1 208.1 0 0 0 234.1 0H192A190.6 190.6 0 0 0 84.2 33.3L45.5 3.4A16 16 0 0 0 23 6.2L3.4 31.5a16 16 0 0 0 2.8 22.4l588.3 454.7a16 16 0 0 0 22.5-2.8l19.6-25.2a16 16 0 0 0-2.8-22.5zM313.4 210.4 263.6 172c5.9-7.1 14.4-12 24.4-12a32.1 32.1 0 0 1 32 32c0 7-2.8 13.2-6.6 18.4M616 304a24 24 0 1 0-24-24 24 24 0 0 0 24 24m-64 64a24 24 0 1 0-24-24 24 24 0 0 0 24 24m-264 16a32 32 0 0 1 32-32h19.5L20.7 105.6A190.9 190.9 0 0 0 0 192c0 56.8 24.8 107.6 64 142.9V512h224v-32h64a64 64 0 0 0 64-64h-96a32 32 0 0 1-32-32m328-24a24 24 0 1 0 24 24 24 24 0 0 0-24-24"/></svg>