<svg height="1000" width="1000" xmlns="http://www.w3.org/2000/svg"><path d="M895.3 125.6C782.4 30.7 608 44.9 500 154.9 392 44.9 217.6 30.5 104.7 125.6 -42.2 249.2 -20.7 450.8 84 557.6l342.6 349c19.5 20 45.7 31.1 73.4 31.1 27.9 0 53.9 -10.9 73.4 -30.9L916 557.8C1020.5 451 1042.4 249.4 895.3 125.6zm-46.1 366.2l-342.6 349c-4.6 4.7 -8.6 4.7 -13.2 0l-342.6 -349C79.5 419.1 65 281.6 165 197.5c76 -63.9 193.2 -54.3 266.6 20.5l68.4 69.7L568.4 218c73.8 -75.2 191 -84.4 266.6 -20.7 99.8 84.1 84.9 222.4 14.2 294.5z"/></svg>