<svg height="1000" width="1000" xmlns="http://www.w3.org/2000/svg"><path d="M895.3 125.6C1042.4 249.4 1020.5 451 916 557.8l-342.6 349c-19.5 20 -45.5 30.9 -73.4 30.9 -27.7 0 -53.9 -11.1 -73.4 -31.1L84 557.6C-20.7 450.8 -42.2 249.2 104.7 125.6 217.6 30.5 392 44.9 500 154.9 608 44.9 782.4 30.7 895.3 125.6zm-46.1 366.2C919.9 419.7 934.8 281.4 835 197.3 759.4 133.6 642.2 142.8 568.4 218L500 287.7 431.6 218C358.2 143.2 241 133.6 165 197.5 65 281.6 79.5 419.1 150.8 491.8l342.6 349c4.6 4.7 8.6 4.7 13.2 0z"/></svg>