<svg height="512" width="640" xmlns="http://www.w3.org/2000/svg"><path d="M304 384h272c17.7 0 32-14.3 32-32C608 228.3 507.7 128 384 128V64h176c8.8 0 16-7.2 16-16V16C576 7.2 568.8 0 560 0H144c-8.8 0-16 7.2-16 16v32c0 8.8 7.2 16 16 16h176v64H112L68.8 70.4C65.8 66.4 61 64 56 64H16C5.6 64-2 73.8.5 83.9L32 192l160 64 86.4 115.2A32 32 0 0 0 304 384M416 195.5c62.6 12.8 112 61.9 124.8 124.5H416zm219.4 263.3-22.2-22.2c-6.2-6.2-16.2-6.1-22.6 0-7.1 6.8-13.9 11.3-24.7 11.3H240c-8.8 0-16 7.2-16 16V496c0 8.8 7.2 16 16 16h325.9c14.9 0 35.3-.5 68.5-29.5 7-6.2 7.6-17.1 1-23.7"/></svg>