<svg height="512" width="384" xmlns="http://www.w3.org/2000/svg"><path d="M81 472.2c-4.3 17.2 6.1 34.6 23.2 38.8 2.6.7 5.3 1 7.8 1 14.4 0 27.4-9.7 31.1-24.2l25.2-101L115.5 334zM95.8 276.1 137 117c2.2-8.4-3.1-17-11.9-19.1C81.2 87.4 36.7 113 25.8 155.1L.5 253.2c-2.2 8.5 3.1 17 11.9 19.1L76 287.6c8.8 2.1 17.7-3.1 19.8-11.5M368 160h-16c-8.8 0-16 7.2-16 16v16h-34.7l-46.8-46.8C243.4 134.1 228.6 128 212.9 128c-27 0-50.5 18.3-57 44.5L129 280.2a32 32 0 0 0 8.4 30.4l86.6 86.7V480c0 17.7 14.3 32 32 32s32-14.3 32-32v-82.7c0-17.1-6.7-33.2-18.7-45.3l-46.9-46.8c.2-.5.5-.9.7-1.4l19.8-79.6 22.5 22.4c6 6 14.1 9.4 22.6 9.4h48v240c0 8.8 7.2 16 16 16h16c8.8 0 16-7.2 16-16V176c0-8.8-7.2-16-16-16M240 96c26.5 0 48-21.5 48-48S266.5 0 240 0s-48 21.5-48 48 21.5 48 48 48"/></svg>