<svg height="512" width="512" xmlns="http://www.w3.org/2000/svg"><path d="M504 255.5C504.3 392.2 392.8 503.9 256.2 504c-59 0-113.2-20.5-155.8-54.9-11.1-9-11.9-25.6-1.9-35.6l11.3-11.3c8.6-8.6 22.3-9.5 31.9-2C173.1 425.1 212.8 440 256 440c101.7 0 184-82.3 184-184S357.7 72 256 72c-48.8 0-93.1 19-126.1 49.9l50.8 50.8c10.1 10.1 2.9 27.3-11.3 27.3H24C15.2 200 8 192.8 8 184V38.6C8 24.4 25.2 17.2 35.3 27.3l49.4 49.4C129.2 34.1 189.6 8 256 8c136.8 0 247.7 110.8 248 247.5m-180.9 78.8 9.8-12.6c8.1-10.5 6.3-25.6-4.2-33.7L288 256.3V152c0-13.3-10.7-24-24-24h-16c-13.3 0-24 10.7-24 24v135.7l65.4 50.8c10.5 8.2 25.5 6.3 33.7-4.2"/></svg>