<svg height="512" width="512" xmlns="http://www.w3.org/2000/svg"><path d="M260.4 254.9 131.5 33.1a2.2 2.2 0 0 0-3.8 0L.3 254.9a2.2 2.2 0 0 0 0 2.2l128.8 221.8a2.2 2.2 0 0 0 3.8 0L260.4 257.1a2.2 2.2 0 0 0 0-2.2m39-25.7a2.2 2.2 0 0 0 1.9 1.1h66.5a2.2 2.2 0 0 0 1.9-3.4L259.1 33.1A2.2 2.2 0 0 0 257.2 32h-66.5a2.2 2.2 0 0 0-1.9 3.3zm212.3 25.7L384.9 33.1A2.2 2.2 0 0 0 383 32h-66.6a2.2 2.2 0 0 0-1.9 3.3L440.7 256 314.5 476.7a2.2 2.2 0 0 0 1.9 3.3H383a2.2 2.2 0 0 0 1.9-1.1L511.7 257.1a2.2 2.2 0 0 0 0-2.2m-145.7 30h-66.5a2.2 2.2 0 0 0-1.9 1.1L188.8 476.7a2.2 2.2 0 0 0 1.9 3.3h66.5a2.2 2.2 0 0 0 1.9-1.1L367.9 288.3a2.2 2.2 0 0 0-1.9-3.4"/></svg>