<svg height="512" width="448" xmlns="http://www.w3.org/2000/svg"><path d="M144 192c26.5 0 48-21.5 48-48S170.5 96 144 96s-48 21.5-48 48 21.5 48 48 48m112-48c0 26.5 21.5 48 48 48s48-21.5 48-48S330.5 96 304 96s-48 21.5-48 48M224 96c26.5 0 48-21.5 48-48S250.5 0 224 0s-48 21.5-48 48 21.5 48 48 48m-16.2 139.1C207.9 222.7 194.7 215 184 221.4c-34.3 20.3-71.4 32.7-108.7 36.2-9.7.9-15.6 11.3-11.6 20.2 6.2 13.9 11.1 28.6 14.7 43.8s-5.3 30.6-20.2 35.1-30.1 7.6-45.3 9.1c-9.7 1-15.7 11.3-11.7 20.2 15 32.8 22.9 69.5 23 107.7.1 14.4 15.2 23.1 27.6 16 33.2-19 68.9-30.5 104.8-33.9 9.7-.9 15.6-11.3 11.6-20.2C162 441.7 157.1 427 153.5 411.8s5.3-30.6 20.2-35.1 30.1-7.6 45.3-9.1c9.7-1 15.7-11.3 11.7-20.2C215.2 313.2 207.4 274.9 207.8 235.1M435 365.6c-15.2-1.6-30.3-4.7-45.3-9.1C374.8 352 365.9 336.6 369.5 321.4q5.4-22.8 14.7-43.8c4-8.9-1.9-19.3-11.6-20.2-37.3-3.5-74.4-15.9-108.7-36.2-10.7-6.3-23.9 1.4-23.8 13.7 0 1.6-.2 3.2-.2 4.9.2 33.3 7 65.7 19.9 94 5.7 12.4 5.2 26.6-.6 38.9 4.9 1.2 9.9 2.2 14.8 3.7 14.9 4.5 23.8 19.9 20.2 35.1q-5.4 22.8-14.7 43.8c-4 8.9 1.9 19.3 11.6 20.2 35.9 3.4 71.6 14.9 104.8 33.9 12.5 7.1 27.6-1.6 27.6-16 .2-38.2 8-75 23-107.7 4.3-8.7-1.8-19.1-11.5-20.1"/></svg>