<svg height="512" width="576" xmlns="http://www.w3.org/2000/svg"><path d="M280.4 148.3 96 300.1V464a16 16 0 0 0 16 16l112.1-.3a16 16 0 0 0 15.9-16V368a16 16 0 0 1 16-16h64a16 16 0 0 1 16 16v95.6a16 16 0 0 0 16 16.1l112 .3a16 16 0 0 0 16-16V300L295.7 148.3a12.2 12.2 0 0 0-15.3 0m291.2 103.2L488 182.6V44A12 12 0 0 0 476 32h-56a12 12 0 0 0-12 12v72.7L318.5 43a48 48 0 0 0-61 0L4.3 251.5a12 12 0 0 0-1.6 16.9l25.5 31a12 12 0 0 0 16.9 1.6L280.4 107.3a12.2 12.2 0 0 1 15.3 0L530.9 301a12 12 0 0 0 16.9-1.6l25.5-31a12 12 0 0 0-1.7-16.9"/></svg>