<svg height="512" width="512" xmlns="http://www.w3.org/2000/svg"><path d="M76.4 370.3A37.8 37.8 0 1 1 44.3 337.9C-34 226.5 96.3 147.3 96.3 147.3c-5.8 43-8.2 91.2-8.2 91.2-67.3 41.5.9 64.1 39.8 72.9a140.4 140.4 0 0 0 131.6 91.9c2 0 3.8-.2 5.7-.3l.1 18.9C166.1 423.3 106.6 392.8 76.4 370.3m108-327.7A37.6 37.6 0 0 0 181 21.4a38 38 0 1 0-31.2 54.3c-22.5 29.9-53.8 89.5-52.4 190l21.8-.2c0-.9-.1-1.7-.1-2.7A140.4 140.4 0 0 1 207 132.7C215 95 237.7 18.4 280.8 88.4c0 0 48.1 2.4 91.2 8.3 0 0-77.9-128-187.6-54.1m304.2 134.2a37.9 37.9 0 1 0-53.9-28.7C403 126.1 344.9 99 251.3 100.3l.1 22.5c2.7-.1 5.4-.4 8.2-.4a140.4 140.4 0 0 1 130.5 88.8c39.1 9 105 31.6 38.4 72.5 0 0-2.3 48.2-8.2 91.2 0 0 133.5-81.2 49-194.6a37.5 37.5 0 0 0 19.3-3.5M374.1 436.2c21.4-32.4 46.4-89.6 45.1-179.6l-19.5.1c.1 2.1.3 4.1.3 6.2a140.3 140.3 0 0 1-91.4 131.4c-8.9 39-31.4 106.7-72.8 39.5 0 0-48.1-2.3-91.2-8.2 0 0 80 131.3 191.9 51a37.5 37.5 0 0 0 3.7 14 37.9 37.9 0 1 0 33.9-54.3z"/></svg>