<svg height="512" width="576" xmlns="http://www.w3.org/2000/svg"><path d="M575.9 76.6c0-8.1-3-15.9-8.6-21.8-3.7-4-8.5-9.1-13.7-14.5 11.1-6.8 19.5-17.5 22.2-30.7C576.9 4.7 573 0 567.9 0h-120c-70.7 0-128 57.3-128 128H160c-28.8 0-54.4 13-72 33.1V160C39.5 160 0 199.5 0 248v56c0 8.8 7.2 16 16 16h16c8.8 0 16-7.2 16-16v-56c0-13.2 6.9-24.4 16.8-31.7-.2 2.6-.8 5.1-.8 7.7 0 27.6 11.8 52.4 30.5 69.9l-25.7 68.6a63.9 63.9 0 0 0-2.1 38l24.8 99.4A16 16 0 0 0 107 512h66c10.4 0 18-9.8 15.5-19.9L162.2 386.9 186 323.3l134 22.3V496c0 8.8 7.2 16 16 16h64c8.8 0 16-7.2 16-16V318.2C435.7 298 448 270.5 448 240c0-.2-.1-.4-.1-.6V136.9l16 7.1 18.9 37.7c7.5 14.9 25.1 21.6 40.5 15.4L555.9 184A32 32 0 0 0 576 154.3zm-64 19.4c-8.8 0-16-7.2-16-16s7.2-16 16-16 16 7.2 16 16-7.1 16-16 16"/></svg>