<svg height="512" width="640" xmlns="http://www.w3.org/2000/svg"><path d="M480 320a96 96 0 1 0-96-96 96 96 0 0 0 96 96m48 32a22.9 22.9 0 0 0-7.1 1.1 124.8 124.8 0 0 1-81.8 0A22.8 22.8 0 0 0 432 352 112 112 0 0 0 320 464.6c.1 26.3 21.7 47.4 48 47.4h224c26.3 0 47.9-21.1 48-47.4A112 112 0 0 0 528 352m-198.1 10.4A145 145 0 0 1 352 344.6V128A32 32 0 0 0 320 96h-32V32A32 32 0 0 0 256 0H96A32 32 0 0 0 64 32v64H32A32 32 0 0 0 0 128v368a16 16 0 0 0 16 16h288.3A78.6 78.6 0 0 1 288 464.8a143.1 143.1 0 0 1 41.9-102.3zM144 404a12 12 0 0 1-12 12H92A12 12 0 0 1 80 404v-40a12 12 0 0 1 12-12h40a12 12 0 0 1 12 12zm0-128a12 12 0 0 1-12 12H92A12 12 0 0 1 80 276v-40a12 12 0 0 1 12-12h40a12 12 0 0 1 12 12zm48-122a6 6 0 0 1-6 6h-20a6 6 0 0 1-6-6v-26h-26a6 6 0 0 1-6-6v-20a6 6 0 0 1 6-6h26V70a6 6 0 0 1 6-6h20a6 6 0 0 1 6 6v26h26a6 6 0 0 1 6 6v20a6 6 0 0 1-6 6h-26zm80 250a12 12 0 0 1-12 12h-40a12 12 0 0 1-12-12v-40a12 12 0 0 1 12-12h40a12 12 0 0 1 12 12zm0-128a12 12 0 0 1-12 12h-40a12 12 0 0 1-12-12v-40a12 12 0 0 1 12-12h40a12 12 0 0 1 12 12z"/></svg>