<svg height="512" width="448" xmlns="http://www.w3.org/2000/svg"><path d="M448 492v20H0v-20c0-6.6 5.4-12 12-12h20V120C32 106.7 42.7 96 56 96h88V24C144 10.7 154.7 0 168 0h112c13.3 0 24 10.7 24 24v72h88c13.3 0 24 10.7 24 24v360h20c6.6 0 12 5.4 12 12M308 192h-40c-6.6 0-12 5.4-12 12v40c0 6.6 5.4 12 12 12h40c6.6 0 12-5.4 12-12v-40c0-6.6-5.4-12-12-12m-168 64h40c6.6 0 12-5.4 12-12v-40c0-6.6-5.4-12-12-12h-40c-6.6 0-12 5.4-12 12v40c0 6.6 5.4 12 12 12m104 128h-40c-6.6 0-12 5.4-12 12v84h64v-84c0-6.6-5.4-12-12-12m64-96h-40c-6.6 0-12 5.4-12 12v40c0 6.6 5.4 12 12 12h40c6.6 0 12-5.4 12-12v-40c0-6.6-5.4-12-12-12m-116 12c0-6.6-5.4-12-12-12h-40c-6.6 0-12 5.4-12 12v40c0 6.6 5.4 12 12 12h40c6.6 0 12-5.4 12-12zM182 96h26v26a6 6 0 0 0 6 6h20a6 6 0 0 0 6-6V96h26a6 6 0 0 0 6-6V70a6 6 0 0 0-6-6h-26V38a6 6 0 0 0-6-6h-20a6 6 0 0 0-6 6v26h-26a6 6 0 0 0-6 6v20a6 6 0 0 0 6 6"/></svg>