<svg height="512" width="448" xmlns="http://www.w3.org/2000/svg"><path d="M128 244v-40c0-6.6 5.4-12 12-12h40c6.6 0 12 5.4 12 12v40c0 6.6-5.4 12-12 12h-40c-6.6 0-12-5.4-12-12m140 12h40c6.6 0 12-5.4 12-12v-40c0-6.6-5.4-12-12-12h-40c-6.6 0-12 5.4-12 12v40c0 6.6 5.4 12 12 12m-76 84v-40c0-6.6-5.4-12-12-12h-40c-6.6 0-12 5.4-12 12v40c0 6.6 5.4 12 12 12h40c6.6 0 12-5.4 12-12m76 12h40c6.6 0 12-5.4 12-12v-40c0-6.6-5.4-12-12-12h-40c-6.6 0-12 5.4-12 12v40c0 6.6 5.4 12 12 12m180 124v36H0v-36c0-6.6 5.4-12 12-12h19.5V85c0-11.6 10.7-21 24-21H144V24C144 10.7 154.7 0 168 0h112c13.3 0 24 10.7 24 24v40h88.5c13.3 0 24 9.4 24 21v379H436c6.6 0 12 5.4 12 12M79.5 463H192v-67c0-6.6 5.4-12 12-12h40c6.6 0 12 5.4 12 12v67h112.5V112H304v24c0 13.3-10.7 24-24 24H168c-13.3 0-24-10.7-24-24v-24H79.5zM266 64h-26V38a6 6 0 0 0-6-6h-20a6 6 0 0 0-6 6v26h-26a6 6 0 0 0-6 6v20a6 6 0 0 0 6 6h26v26a6 6 0 0 0 6 6h20a6 6 0 0 0 6-6V96h26a6 6 0 0 0 6-6V70a6 6 0 0 0-6-6"/></svg>