<svg height="1000" width="875" xmlns="http://www.w3.org/2000/svg"><path d="M250 476.6v-78.2c0 -12.9 10.5 -23.4 23.4 -23.4h78.2c12.9 0 23.4 10.5 23.4 23.4v78.2c0 12.9 -10.5 23.4 -23.4 23.4h-78.2C260.5 500 250 489.5 250 476.6zM523.4 500C510.5 500 500 489.5 500 476.6v-78.2c0 -12.9 10.5 -23.4 23.4 -23.4h78.2c12.9 0 23.4 10.5 23.4 23.4v78.2c0 12.9 -10.5 23.4 -23.4 23.4h-78.2zM375 664.1c0 12.9 -10.5 23.4 -23.4 23.4h-78.2C260.5 687.5 250 677 250 664.1v-78.2c0 -12.9 10.5 -23.4 23.4 -23.4h78.2c12.9 0 23.4 10.5 23.4 23.4v78.2zm148.4 23.4C510.5 687.5 500 677 500 664.1v-78.2c0 -12.9 10.5 -23.4 23.4 -23.4h78.2c12.9 0 23.4 10.5 23.4 23.4v78.2c0 12.9 -10.5 23.4 -23.4 23.4h-78.2zM875 929.7v70.3H0v-70.3c0 -13 10.5 -23.4 23.4 -23.4h38.1V166.1c0 -22.7 21 -41.1 46.9 -41.1h172.9V46.9C281.3 21 302.2 0 328.1 0h218.8c25.9 0 46.9 21 46.9 46.9V125h172.8c25.9 0 46.9 18.4 46.9 41.1v740.2h38.1c12.9 0 23.4 10.4 23.4 23.4zM155.3 904.3H375V773.4c0 -12.9 10.5 -23.4 23.4 -23.4h78.2c12.9 0 23.4 10.5 23.4 23.4v130.9h219.7V218.8H593.8v46.8c0 25.9 -21 46.9 -46.9 46.9H328.1c-25.9 0 -46.8 -21 -46.8 -46.9v-46.8h-126v685.5zM519.5 125h-50.7V74.2c0 -6.4 -5.3 -11.7 -11.8 -11.7h-39c-6.5 0 -11.7 5.3 -11.7 11.7V125h-50.8c-6.5 0 -11.7 5.3 -11.7 11.7v39.1c0 6.4 5.2 11.7 11.7 11.7h50.8v50.8c0 6.4 5.2 11.7 11.7 11.7h39c6.5 0 11.8 -5.3 11.8 -11.7v-50.8h50.7c6.5 0 11.8 -5.3 11.8 -11.7v-39.1c0 -6.4 -5.3 -11.7 -11.8 -11.7z"/></svg>