<svg height="1000" width="875" xmlns="http://www.w3.org/2000/svg"><path d="M250 476.6v-78.2c0 -12.9 10.5 -23.4 23.4 -23.4h78.2c12.9 0 23.4 10.5 23.4 23.4v78.2c0 12.9 -10.5 23.4 -23.4 23.4h-78.2C260.5 500 250 489.5 250 476.6zM523.4 500h78.2c12.9 0 23.4 -10.5 23.4 -23.4v-78.2C625 385.5 614.5 375 601.6 375h-78.2c-12.9 0 -23.4 10.5 -23.4 23.4v78.2c0 12.9 10.5 23.4 23.4 23.4zM375 664.1v-78.2c0 -12.9 -10.5 -23.4 -23.4 -23.4h-78.2c-12.9 0 -23.4 10.5 -23.4 23.4v78.2c0 12.9 10.5 23.4 23.4 23.4h78.2c12.9 0 23.4 -10.5 23.4 -23.4zm148.4 23.4h78.2c12.9 0 23.4 -10.5 23.4 -23.4v-78.2c0 -12.9 -10.5 -23.4 -23.4 -23.4h-78.2c-12.9 0 -23.4 10.5 -23.4 23.4v78.2c0 12.9 10.5 23.4 23.4 23.4zM875 929.7v70.3H0v-70.3c0 -13 10.5 -23.4 23.4 -23.4h38.1V166.1c0 -22.7 21 -41.1 46.9 -41.1h172.9V46.9C281.3 21 302.2 0 328.1 0h218.8c25.9 0 46.9 21 46.9 46.9V125h172.8c25.9 0 46.9 18.4 46.9 41.1v740.2h38.1c12.9 0 23.4 10.4 23.4 23.4zM155.3 904.3H375V773.4c0 -12.9 10.5 -23.4 23.4 -23.4h78.2c12.9 0 23.4 10.5 23.4 23.4v130.9h219.7V218.8H593.8v46.8c0 25.9 -21 46.9 -46.9 46.9H328.1c-25.9 0 -46.8 -21 -46.8 -46.9v-46.8h-126v685.5zM519.5 125h-50.7V74.2A11.7 -11.7 0 0 1 457 62.5h-39a11.7 -11.7 0 0 1 -11.7 11.7V125h-50.8a11.7 -11.7 0 0 1 -11.7 11.7v39.1a11.7 -11.7 0 0 1 11.7 11.7h50.8v50.8A11.7 -11.7 0 0 1 418 250h39a11.7 -11.7 0 0 1 11.8 -11.7v-50.8h50.7a11.7 -11.7 0 0 1 11.8 -11.7v-39.1A11.7 -11.7 0 0 1 519.5 125z"/></svg>