<svg height="512" width="512" xmlns="http://www.w3.org/2000/svg"><path d="M414.2 177.7c1 8.2 7.8 14.3 15.8 14.3h16.1c9.5 0 17.1-8.6 16-18.3C457.7 134.5 439.7 99.1 411.9 76.5 394.6 62.3 383.1 39.7 380 14.3 379 6.1 372.2 0 364.2 0h-16.1c-9.5 0-17.1 8.6-16 18.4 4.3 39.1 22.4 74.5 50.1 97.1 17.4 14.2 28.9 36.8 32 62.1zm-108 0c1 8.2 7.8 14.3 15.8 14.3h16.1c9.5 0 17.1-8.6 16-18.3C349.7 134.5 331.7 99.1 303.9 76.5 286.6 62.3 275.1 39.7 272 14.3 271 6.1 264.2 0 256.2 0h-16.1c-9.5 0-17.1 8.6-16 18.4 4.4 39.1 22.4 74.5 50.1 97.1 17.4 14.2 28.9 36.8 32 62.1zM480 256H256L145.1 172.8A64 64 0 0 0 106.7 160H64C28.6 160 0 188.7 0 224v224c0 35.4 28.6 64 64 64h384c35.4 0 64-28.6 64-64V288c0-17.7-14.3-32-32-32M128 440c0 4.4-3.6 8-8 8h-16c-4.4 0-8-3.6-8-8V328c0-4.4 3.6-8 8-8h16c4.4 0 8 3.6 8 8zm96 0c0 4.4-3.6 8-8 8h-16c-4.4 0-8-3.6-8-8V328c0-4.4 3.6-8 8-8h16c4.4 0 8 3.6 8 8zm96 0c0 4.4-3.6 8-8 8h-16c-4.4 0-8-3.6-8-8V328c0-4.4 3.6-8 8-8h16c4.4 0 8 3.6 8 8zm96 0c0 4.4-3.6 8-8 8h-16c-4.4 0-8-3.6-8-8V328c0-4.4 3.6-8 8-8h16c4.4 0 8 3.6 8 8zM64 128c35.3 0 64-28.7 64-64S99.3 0 64 0 0 28.6 0 64s28.6 64 64 64"/></svg>