<svg height="512" width="512" xmlns="http://www.w3.org/2000/svg"><path d="M488.6 23.4a80 80 0 0 0-113.2 0l-352 352a80 80 0 1 0 113.2 113.2l352-352a80 80 0 0 0 0-113.2m-50 95.2c-19.6 19.6-37.5 22.7-51.9 25.2C373.8 146 364.4 147.6 352 160s-14 21.8-16.2 34.7c-2.5 14.4-5.6 32.3-25.2 51.9s-37.5 22.7-51.9 25.2C245.8 274 236.4 275.6 224 288s-14 21.8-16.2 34.7c-2.5 14.4-5.6 32.3-25.2 51.9s-37.5 22.7-51.9 25.2C117.8 402 108.4 403.6 96 416A16 16 0 0 1 73.4 393.4c19.6-19.6 37.5-22.7 51.9-25.2 13-2.2 22.3-3.8 34.7-16.2s14-21.7 16.2-34.7c2.5-14.4 5.6-32.3 25.2-51.9s37.5-22.7 51.9-25.2c13-2.2 22.3-3.8 34.7-16.2s14-21.7 16.2-34.7c2.5-14.4 5.6-32.3 25.2-51.9s37.5-22.7 51.9-25.2C394.2 110 403.6 108.4 416 96a16 16 0 0 1 22.6 22.6M31.4 322.2 322.2 31.4 310.6 19.9c-25-25-63.8-26.7-86.8-3.7L16.2 223.8c-23 23-21.3 61.8 3.7 86.8zM480.6 189.8 189.8 480.6l11.6 11.5c25 25 63.8 26.7 86.7 3.7L495.8 288.2c23-23 21.3-61.8-3.7-86.8z"/></svg>