<svg height="1000" width="750" xmlns="http://www.w3.org/2000/svg"><path d="M718.8 93.8c0 156.4 -62.4 323.4 -189.9 406.2 127 82.4 189.9 248.9 189.9 406.3h7.8c12.9 0 23.4 10.4 23.4 23.4v46.9c0 12.9 -10.5 23.4 -23.4 23.4H23.4C10.5 1000 0 989.5 0 976.6v-46.9c0 -13 10.5 -23.4 23.4 -23.4h7.9C31.3 749.8 93.6 582.8 221.1 500 94.1 417.6 31.3 251.1 31.3 93.8h-7.9C10.5 93.8 0 83.3 0 70.3V23.4C0 10.5 10.5 0 23.4 0h703.2C739.5 0 750 10.5 750 23.4v46.9c0 13 -10.5 23.5 -23.4 23.5h-7.8zm-593.8 0c0 198.4 111.9 359.3 250 359.3S625 292.2 625 93.8H125zm500 812.5C625 707.8 513.1 546.9 375 546.9S125 707.8 125 906.3h500z"/></svg>