<svg height="1000" width="750" xmlns="http://www.w3.org/2000/svg"><path d="M718.8 93.8h7.8c12.9 0 23.4 -10.5 23.4 -23.5V23.4C750 10.5 739.5 0 726.6 0H23.4C10.5 0 0 10.5 0 23.4v46.9c0 13 10.5 23.5 23.4 23.5h7.9c0 157.3 62.8 323.8 189.8 406.2C93.6 582.8 31.3 749.8 31.3 906.3h-7.9C10.5 906.3 0 916.7 0 929.7v46.9c0 12.9 10.5 23.4 23.4 23.4h703.2c12.9 0 23.4 -10.5 23.4 -23.4v-46.9c0 -13 -10.5 -23.4 -23.4 -23.4h-7.8C718.8 748.9 655.9 582.4 528.9 500 656.4 417.2 718.8 250.2 718.8 93.8zm-593.8 0h500c0 198.4 -111.9 359.3 -250 359.3S125 292.2 125 93.8zm500 812.5H125C125 707.8 236.9 546.9 375 546.9s250 160.9 250 359.4z"/></svg>