<svg height="512" width="576" xmlns="http://www.w3.org/2000/svg"><path d="M570.7 236.3 512 184.4V48A16 16 0 0 0 496 32h-64a16 16 0 0 0-16 16v51.7L314.8 10.3C308.5 4.6 296.5 0 288 0s-20.5 4.6-26.7 10.3l-256 226A18.3 18.3 0 0 0 0 248.2a18.6 18.6 0 0 0 4.1 10.7l21.4 23.8a21.1 21.1 0 0 0 12 5.3 21.7 21.7 0 0 0 10.7-4.1l15.9-14V480a32 32 0 0 0 32 32H480a32 32 0 0 0 32-32V269.9l15.9 14a21.9 21.9 0 0 0 10.7 4.1 20.9 20.9 0 0 0 11.9-5.3l21.4-23.8a21.6 21.6 0 0 0 4.1-10.7 21 21 0 0 0-5.3-11.9M288 176a64 64 0 1 1-64 64 64 64 0 0 1 64-64m112 272H176a16 16 0 0 1-16-16 96 96 0 0 1 96-96h64a96 96 0 0 1 96 96 16 16 0 0 1-16 16"/></svg>