<svg height="512" width="576" xmlns="http://www.w3.org/2000/svg"><path d="M288 115 69.5 307.7c-1.7 1.5-3.7 2.1-5.5 3.4V496c0 8.8 7.2 16 16 16h149.2L192 439.2l104.1-64L236 256l148 136.8-104.1 64 39.9 55.2H496c8.8 0 16-7.2 16-16V311.1c-1.7-1.2-3.7-1.8-5.3-3.2zm282.7 121.3L512 184.4V48c0-8.8-7.2-16-16-16h-64c-8.8 0-16 7.2-16 16v51.7L314.8 10.3C307.1 3.5 297.6 0 288 0s-19.1 3.4-26.7 10.3l-256 226c-6.6 5.9-7.1 16-1.2 22.6l21.4 23.8c5.9 6.6 16 7.1 22.6 1.2L277.4 81.6a16.12 16.12 0 0 1 21.2 0l229.3 202.3c6.6 5.9 16.7 5.4 22.6-1.2l21.4-23.8c5.9-6.6 5.4-16.7-1.2-22.6"/></svg>