<svg height="512" width="384" xmlns="http://www.w3.org/2000/svg"><path d="M368 240c8.8 0 16-7.2 16-16v-32c0-8.8-7.2-16-16-16h-41.9c13.5-28.6 13.8-63.3-4.1-94C303.3 49.8 267.1 32 230 32h-78.9c-24.3 0-47.8 8.5-66.5 24.1l-11.8 9.8c-10.2 8.5-11.5 23.6-3 33.8l20.5 24.6c8.4 10.2 23.6 11.5 33.8 3.1l11.7-9.8c4.3-3.6 9.8-5.6 15.4-5.6h83.6c11.7 0 21.2 9.5 21.2 21.2 0 5.9-2.5 11.6-6.8 15.6L219.7 176H16c-8.8 0-16 7.2-16 16v32c0 8.8 7.2 16 16 16h134.4l-34.7 32H16c-8.8 0-16 7.2-16 16v32c0 8.8 7.2 16 16 16h41.9c-13.4 28.6-13.8 63.3 4.1 94.1 18.7 32 54.9 49.9 92 49.9h78.9c24.3 0 47.8-8.5 66.5-24.1l11.8-9.8c10.1-8.5 11.5-23.6 3-33.8l-20.5-24.6c-8.4-10.2-23.6-11.5-33.8-3.1l-11.7 9.8a24 24 0 0 1-15.4 5.6h-83.6C137.5 400 128 390.5 128 378.8c0-5.9 2.5-11.6 6.8-15.6L164.3 336H368c8.8 0 16-7.2 16-16v-32c0-8.8-7.2-16-16-16H233.6l34.7-32z"/></svg>