<svg height="512" width="512" xmlns="http://www.w3.org/2000/svg"><path d="M116.7 219.3a15.7 15.7 0 0 0 22.6 0l96.8-99.8c28.1-29 26.5-77.1-5-103.9C203.8-7.7 163-3.5 137.9 22.4L128 32.6l-9.8-10.2C93-3.5 52.3-7.7 24.9 15.6c-31.5 26.8-33 74.9-5 103.9zm143.9 100.5h-48l-7.1-14.2a27.4 27.4 0 0 0-25.7-17.8h-71.7a27.4 27.4 0 0 0-25.6 17.8l-7 14.2h-48A27.4 27.4 0 0 0 0 347.3v137.3A27.4 27.4 0 0 0 27.4 512h233.2A27.4 27.4 0 0 0 288 484.6V347.3a27.4 27.4 0 0 0-27.4-27.5M144 468a52 52 0 1 1 52-52 52 52 0 0 1-52 52M499.4 352.1h-60.6l22.4-50.7c2.1-6.7-3.9-13.3-12.2-13.3h-75.6c-6.3 0-11.7 3.9-12.5 9.1l-16.8 107c-1 6.3 4.9 11.9 12.5 11.9h62.3l-24.2 83c-1.9 6.6 4.2 12.9 12.2 12.9a13.3 13.3 0 0 0 11-5.3l92.4-138.9c4.8-6.9-1.2-15.7-10.9-15.7M478.1.3 329.5 23.2C314.9 25.4 304 38.9 304 54.8v106.8a83.3 83.3 0 0 0-16-1.7c-35.3 0-64 21.5-64 48s28.7 48 64 48c35.2 0 63.7-21.3 64-47.7V99.7L464 82.4v47.2a83.3 83.3 0 0 0-16-1.7c-35.4 0-64 21.5-64 48s28.6 48 64 48c35.2 0 63.7-21.3 64-47.6V32C512 12.5 496-2.4 478.1.3"/></svg>