<svg height="1000" width="1125" xmlns="http://www.w3.org/2000/svg"><path d="M1031.3 62.5H93.8C42 62.5 0 104.5 0 156.3v687.5c0 51.7 42 93.7 93.8 93.7h937.5c51.7 0 93.7 -42 93.7 -93.7V156.3c0 -51.8 -42 -93.8 -93.7 -93.8zm0 781.3H592.2c1.7 -8.8 1.6 7 1.6 -43.8C593.8 737.9 535 687.5 462.5 687.5c-21.1 0 -36.5 15.6 -87.5 15.6 -52.5 0 -65.2 -15.6 -87.5 -15.6C215 687.5 156.3 737.9 156.3 800c0 50.8 -.4 35 1.5 43.8h-64V281.3h937.5v562.5zM703.1 687.5h218.8c8.6 0 15.6 -7 15.6 -15.6v-31.3c0 -8.6 -7 -15.6 -15.6 -15.6H703.1c-8.6 0 -15.6 7 -15.6 15.6v31.3c0 8.6 7 15.6 15.6 15.6zm0 -125h218.8c8.6 0 15.6 -7 15.6 -15.6v-31.3c0 -8.6 -7 -15.6 -15.6 -15.6H703.1c-8.6 0 -15.6 7 -15.6 15.6v31.3c0 8.6 7 15.6 15.6 15.6zm0 -125h218.8c8.6 0 15.6 -7 15.6 -15.6v-31.3c0 -8.6 -7 -15.6 -15.6 -15.6H703.1c-8.6 0 -15.6 7 -15.6 15.6v31.3c0 8.6 7 15.6 15.6 15.6zM375 625c68.9 0 125 -56.1 125 -125S443.9 375 375 375 250 431.1 250 500s56.1 125 125 125z"/></svg>