<svg height="1000" width="1125" xmlns="http://www.w3.org/2000/svg"><path d="M1031.3 62.5c51.7 0 93.7 42 93.7 93.8v687.5c0 51.7 -42 93.7 -93.7 93.7H93.8C42 937.5 0 895.5 0 843.8V156.3C0 104.5 42 62.5 93.8 62.5h937.5zm0 781.3V281.3H93.8v562.5h64c-1.9 -8.8 -1.6 7 -1.6 -43.8 0 -62.1 58.8 -112.5 131.3 -112.5 22.3 0 35 15.6 87.5 15.6 51 0 66.4 -15.6 87.5 -15.6 72.5 0 131.2 50.4 131.2 112.5 0 50.8 .2 35 -1.5 43.8h439.1zM703.1 687.5c-8.6 0 -15.6 -7 -15.6 -15.6v-31.3c0 -8.6 7 -15.6 15.6 -15.6h218.8c8.6 0 15.6 7 15.6 15.6v31.3c0 8.6 -7 15.6 -15.6 15.6H703.1zm0 -125c-8.6 0 -15.6 -7 -15.6 -15.6v-31.3c0 -8.6 7 -15.6 15.6 -15.6h218.8c8.6 0 15.6 7 15.6 15.6v31.3c0 8.6 -7 15.6 -15.6 15.6H703.1zm0 -125c-8.6 0 -15.6 -7 -15.6 -15.6v-31.3c0 -8.6 7 -15.6 15.6 -15.6h218.8c8.6 0 15.6 7 15.6 15.6v31.3c0 8.6 -7 15.6 -15.6 15.6H703.1zM375 625C306.1 625 250 568.9 250 500S306.1 375 375 375s125 56.1 125 125S443.9 625 375 625z"/></svg>