<svg height="512" width="576" xmlns="http://www.w3.org/2000/svg"><path d="M528 64H384v96H192V64H48C21.5 64 0 85.5 0 112v352c0 26.5 21.5 48 48 48h480c26.5 0 48-21.5 48-48V112C576 85.5 554.5 64 528 64M288 224c35.3 0 64 28.7 64 64s-28.7 64-64 64-64-28.7-64-64 28.7-64 64-64m93.3 224H194.7c-10.4 0-18.8-10-15.6-19.8C187.4 402.6 211.5 384 240 384h8.2c12.3 5.1 25.7 8 39.8 8s27.6-2.9 39.8-8h8.2c28.4 0 52.5 18.5 60.9 44.2 3.2 9.8-5.2 19.8-15.6 19.8M352 32C352 14.3 337.7 0 320 0h-64c-17.7 0-32 14.3-32 32v96h128z"/></svg>