<svg height="512" width="576" xmlns="http://www.w3.org/2000/svg"><path d="M125.6 165.5a49.1 49.1 0 1 0 49.1 49 49.1 49.1 0 0 0-49.1-49M86.2 425.8h78.9V285.3H86.2zM237.6 214.2c0-20-10-22.5-18.7-22.5h-14.1v45.8h14.1c9.7 0 18.7-2.8 18.7-23.3m201.7 46v-91.3h22.8v68.6h33.6C486.5 113.1 388.6 86.2 299.7 86.2h-94.9V169h14c25.6 0 41.5 17.3 41.5 45.3 0 28.8-15.5 46-41.5 46h-14v165.6h94.9c144.6 0 194.9-67.2 196.7-165.7zm-109.7 0h-56.3V169h54.4v22.7H296v10.6h30V225h-30v12.5h33.5zm74.6 0-5.1-17.6h-29.8l-5.2 17.6h-23.6L368 168.9h32.4l27.5 91.4zM299.6 32H32v448h267.6c161.9 0 251-79.7 251-224.5C550.6 172 518 32 299.6 32m0 426.9H53.1V53.1h246.5c142.2 0 229.9 64.6 229.9 202.4 0 134.1-80.9 203.4-229.9 203.4m83.9-264.8-7.5 25.8h16.4l-7.5-25.8z"/></svg>