<svg height="512" width="576" xmlns="http://www.w3.org/2000/svg"><path d="M320 33.9C309.5 32.7 298.8 32 288 32 188.2 32 100.2 82.8 48.6 160H320zM96 192H30.3C11.1 230.6 0 274 0 320h96zM352 39.4V160h175.4C487.2 99.9 424.8 55.9 352 39.4M480 320h96c0-46-11.1-89.4-30.3-128H480zm-64 64v96h128c17.7 0 32-14.3 32-32v-96H411.5c2.6 10.3 4.5 20.9 4.5 32m32-192H128v128h49.8c22.2-38.1 63-64 110.2-64s88 25.9 110.2 64H448zM0 448c0 17.7 14.3 32 32 32h128v-96c0-11.1 1.9-21.7 4.5-32H0zM288 288c-53 0-96 43-96 96v96h192v-96c0-53-43-96-96-96"/></svg>