<svg height="1000" width="1000" xmlns="http://www.w3.org/2000/svg"><path d="M906.3 125H93.8C42 125 0 167 0 218.8v562.5C0 833 42 875 93.8 875h812.5c51.7 0 93.7 -42 93.7 -93.7V218.8C1000 167 958 125 906.3 125zm-11.8 656.3h-789A11.7 -11.7 0 0 0 93.8 769.5v-539a11.7 -11.7 0 0 0 11.7 -11.7h789a11.7 -11.7 0 0 0 11.8 11.7v539a11.7 -11.7 0 0 0 -11.8 11.8zM250 296.9c-43.1 0 -78.1 35 -78.1 78.1s35 78.1 78.1 78.1 78.1 -35 78.1 -78.1 -35 -78.1 -78.1 -78.1zm-62.5 390.6h625V531.3l-170.9 -171c-9.2 -9.1 -24 -9.1 -33.2 0L375 593.8l-77.2 -77.2c-9.1 -9.2 -24 -9.2 -33.1 0l-77.2 77.2v93.7z"/></svg>