<svg height="1000" width="1000" xmlns="http://www.w3.org/2000/svg"><path d="M906.3 125c51.7 0 93.7 42 93.7 93.8v562.5c0 51.7 -42 93.7 -93.7 93.7H93.8C42 875 0 833 0 781.3V218.8C0 167 42 125 93.8 125h812.5zm-11.8 656.3c6.5 0 11.8 -5.3 11.8 -11.8v-539c0 -6.5 -5.3 -11.7 -11.8 -11.7h-789c-6.5 0 -11.7 5.2 -11.7 11.7v539c0 6.5 5.2 11.8 11.7 11.8h789zM250 296.9c43.1 0 78.1 35 78.1 78.1s-35 78.1 -78.1 78.1 -78.1 -35 -78.1 -78.1 35 -78.1 78.1 -78.1zm-62.5 390.6v-93.7l77.2 -77.2c9.1 -9.2 24 -9.2 33.1 0l77.2 77.2L608.4 360.3c9.2 -9.1 24 -9.1 33.2 0l170.9 170.9v156.3h-625z"/></svg>