<svg height="512" width="576" xmlns="http://www.w3.org/2000/svg"><path d="M480 416v16c0 26.5-21.5 48-48 48H48C21.5 480 0 458.5 0 432V176c0-26.5 21.5-48 48-48h16v48H54a6 6 0 0 0-6 6v244a6 6 0 0 0 6 6h372a6 6 0 0 0 6-6v-10zM522 80H150a6 6 0 0 0-6 6v244a6 6 0 0 0 6 6h372a6 6 0 0 0 6-6V86a6 6 0 0 0-6-6m6-48c26.5 0 48 21.5 48 48v256c0 26.5-21.5 48-48 48H144c-26.5 0-48-21.5-48-48V80c0-26.5 21.5-48 48-48zM264 144c0 22.1-17.9 40-40 40s-40-17.9-40-40 17.9-40 40-40 40 17.9 40 40m-72 96 39.5-39.5a12.01 12.01 0 0 1 17 0L288 240 391.5 136.5a12.01 12.01 0 0 1 17 0L480 208v80H192z"/></svg>