<svg height="1000" width="1125" xmlns="http://www.w3.org/2000/svg"><path d="M937.5 812.5v31.3c0 51.7 -42 93.7 -93.7 93.7h-750C42 937.5 0 895.5 0 843.8v-500C0 292 42 250 93.8 250H125v93.8h-19.5a11.7 -11.7 0 0 1 -11.7 11.7V832a11.7 -11.7 0 0 1 11.7 11.8H832A11.7 -11.7 0 0 1 843.8 832v-19.5h93.7zm82 -656.2H293A11.7 -11.7 0 0 1 281.3 168v476.5a11.7 -11.7 0 0 1 11.7 11.8h726.5a11.7 -11.7 0 0 1 11.8 -11.8V168a11.7 -11.7 0 0 1 -11.8 -11.7zm11.8 -93.8c51.7 0 93.7 42 93.7 93.8v500c0 51.7 -42 93.7 -93.7 93.7h-750c-51.8 0 -93.8 -42 -93.8 -93.7v-500c0 -51.8 42 -93.8 93.8 -93.8h750zM515.6 281.3c0 43.1 -35 78.1 -78.1 78.1s-78.1 -35 -78.1 -78.1 35 -78.2 78.1 -78.2 78.1 35 78.1 78.2zM375 468.8l77.2 -77.2c9.1 -9.2 24 -9.2 33.1 0l77.2 77.2L764.7 266.6c9.1 -9.2 24 -9.2 33.1 0l139.7 139.7v156.2H375v-93.7z"/></svg>