<svg height="512" width="448" xmlns="http://www.w3.org/2000/svg"><path d="M422.6 159.7a27.4 27.4 0 0 0-13.9-23.3 26.4 26.4 0 0 0-26.2.1L73.9 314.6V176.3A12 12 0 0 1 80 165.9L218.1 86.2a12.2 12.2 0 0 1 11.9 0l32.6 18.9-150 86.6v56l247-142.6L241.1 36.7c-11-6.1-22.3-6.3-33.8-.3l-164.6 95C32.1 137.6 26 147.8 25.4 160.6v191.5c.2 10.1 5.1 18.6 13.5 23.4a27 27 0 0 0 26.7-.1l308.5-178v138.3a12 12 0 0 1-6 10.3L230 425.8a12.2 12.2 0 0 1-11.9 0l-32.7-18.9 150-86.6v-56l-247 142.6 118.8 68.6a33.9 33.9 0 0 0 34.2-.3l164.5-95c10.8-6.6 16.7-17.1 16.7-29.5z"/></svg>