<svg height="512" width="448" xmlns="http://www.w3.org/2000/svg"><path d="M224 202.7a53.3 53.3 0 1 0 53.4 53.3A53.4 53.4 0 0 0 224 202.7m124.7-41a54 54 0 0 0-30.4-30.4c-21-8.3-71-6.5-94.3-6.5s-73.3-1.9-94.3 6.5a54 54 0 0 0-30.4 30.4c-8.3 21-6.5 71-6.5 94.3s-1.8 73.3 6.5 94.3a54 54 0 0 0 30.4 30.4c21 8.3 71 6.5 94.3 6.5s73.3 1.9 94.3-6.5a54 54 0 0 0 30.5-30.4c8.3-21 6.4-71 6.4-94.3s1.9-73.3-6.4-94.3zM224 338a82 82 0 1 1 82-82 81.9 81.9 0 0 1-82 82m85.4-148.3a19.1 19.1 0 1 1 19.1-19.1 19.1 19.1 0 0 1-19.1 19.1M400 32H48A48 48 0 0 0 0 80v352a48 48 0 0 0 48 48h352a48 48 0 0 0 48-48V80A48 48 0 0 0 400 32m-17.1 290c-1.3 25.6-7.2 48.3-25.9 67s-41.4 24.6-67 25.9c-26.4 1.4-105.6 1.4-132 0C132.4 413.6 109.8 407.7 91 389S66.4 347.6 65.2 322c-1.5-26.4-1.5-105.6 0-132 1.3-25.6 7-48.3 25.8-67s41.5-24.6 67-25.8c26.4-1.5 105.6-1.5 132 0 25.7 1.3 48.4 7.2 67 25.9s24.7 41.4 25.9 67c1.5 26.3 1.5 105.5 0 131.9"/></svg>