<svg height="512" width="512" xmlns="http://www.w3.org/2000/svg"><path d="M483 159.7c10.9-24.6 21.5-60.4 21.5-87.9 0-72.7-79.7-98.3-209.7-38.5C187.2 26.1 83.6 106.9 57.7 219.7c30.9-34.8 78.3-82.3 122-101.1C125.4 166.8 79.1 228 44 291.7c-20.8 38-44 99.2-44 145 0 98.6 92.9 86.5 180.3 42.1 31.4 15.4 66.5 15.5 101.6 15.5 97.2 0 184.3-54.3 216.9-146H377.9c-52.5 88.6-196.8 53-196.8-47.4h328.8c6.4-43.6-1.7-95.7-26.9-141.2M64.6 346.9c17.7 51.1 53.7 95.8 100.2 123.3C76.1 519.1-8.4 499.3 64.6 346.9M180.5 238c2-55.1 50.3-94.9 104-94.9 53.4 0 102 39.8 104 94.9zM365.1 50.4c21.4-10.3 48.5-22 72.5-22 31.5 0 54.3 21.7 54.3 53.7 0 20-7.4 49-14.6 67.9C451.1 107.7 411.3 68.4 365.1 50.4"/></svg>