<svg height="512" width="640" xmlns="http://www.w3.org/2000/svg"><path d="M616 160h-67.3C511.2 70.7 422.9 8 320 8 183 8 72 119 72 256c0 16.4 1.6 32.5 4.7 48H24C10.7 304 0 314.8 0 328c0 13.3 10.7 24 24 24h67.3c37.5 89.3 125.8 152 228.7 152 137 0 248-111 248-248 0-16.4-1.6-32.5-4.7-48H616c13.3 0 24-10.8 24-24 0-13.3-10.7-24-24-24m-96 96c0 110.5-89.5 200-200 200C244.3 456 178.4 414 144.5 352H424c13.3 0 24-10.8 24-24 0-13.3-10.7-24-24-24H125.8C122 288.6 120 272.6 120 256 120 145.5 209.5 56 320 56c75.7 0 141.6 42 175.5 104H216c-13.3 0-24 10.8-24 24 0 13.3 10.7 24 24 24h298.2c3.8 15.4 5.8 31.4 5.8 48M216 232h208c13.3 0 24 10.7 24 24 0 13.2-10.7 24-24 24H216c-13.3 0-24-10.7-24-24 0-13.2 10.7-24 24-24"/></svg>