<svg height="512" width="512" xmlns="http://www.w3.org/2000/svg"><path d="M71.9 34.8C50.2 47.7 7.4 96.8 7 109.7v21.4c0 27 25.3 50.8 48.3 50.8 27.5 0 50.5-22.8 50.5-50 0 27.1 22.2 50 49.7 50s49-22.8 49-50c0 27.1 23.6 50 51.2 50h.5c27.6 0 51.2-22.8 51.2-50 0 27.1 21.4 50 49 50s49.7-22.8 49.7-50c0 27.1 23 50 50.6 50 23 0 48.2-23.8 48.2-50.8v-21.4c-.4-12.9-43.2-62-64.9-75C372.6 32.4 325.8 32 256 32S91.1 33.1 71.9 34.8m132.3 134.4c-22 38.4-77.9 38.7-99.8.2-13.2 23.2-43.2 32.1-56 27.7-3.9 40.1-13.7 237.1 17.7 269.1 80 18.7 302.1 18.1 379.8 0 31.6-32.3 21.3-232 17.7-269.1-12.9 4.4-42.8-4.6-56-27.7-22 38.5-77.8 38.1-99.8-.2-7.1 12.5-23.1 28.9-51.8 28.9a57.5 57.5 0 0 1-51.7-28.9zm-41.5 53.7c16.4 0 31.1 0 49.2 19.8a437 437 0 0 1 88.2 0C318.2 223 332.9 223 349.3 223c52.3 0 65.2 77.5 83.9 144.4 17.2 62.2-5.5 63.7-34 63.8C357.1 429.6 333.7 399 333.7 368.4c-39.2 6.4-101.9 8.8-155.5 0 0 30.6-23.4 61.2-65.5 62.8-28.4-.1-51.2-1.6-33.9-63.8C97.4 300.4 110.3 223 162.6 223zm93.3 47.9s-44.4 40.8-52.3 55.2l29-1.2v25.3c0 1.6 21.3.2 23.3.2 11.6.6 23.3 1 23.3-.2v-25.2l29 1.1c-8-14.4-52.4-55.2-52.4-55.2z"/></svg>