<svg height="512" width="384" xmlns="http://www.w3.org/2000/svg"><path d="M277.7 312.9c9.8-6.7 23.4-12.5 23.4-12.5s-38.7 7-77.2 10.2c-47.1 3.9-97.7 4.7-123.1 1.3-60.1-8 33-30.1 33-30.1s-36.1-2.4-80.6 19c-52.5 25.4 130 37 224.5 12.1m-85.4-32.1c-19-42.7-83.1-80.2 0-145.8C296 53.2 242.8 0 242.8 0c21.5 84.5-75.6 110.1-110.7 162.6-23.9 35.9 11.7 74.4 60.2 118.2M306.9 104.6c.1 0-175.2 43.8-91.5 140.2 24.7 28.4-6.5 54-6.5 54s62.7-32.4 33.9-72.9c-26.9-37.8-47.5-56.6 64.1-121.3m-6.1 270.5a12.2 12.2 0 0 1-2 2.6C427.1 344 379.9 258.8 318.6 280.4a17.3 17.3 0 0 0-8.2 6.3 70.5 70.5 0 0 1 11-3c31-6.5 75.5 41.5-20.6 91.4m47.2 62.3s14.5 11.9-15.9 21.2c-57.9 17.5-240.8 22.8-291.6.7-18.3-7.9 16-19 26.8-21.3C78.5 435.6 85 436 85 436 64.7 421.7-46.3 464.1 28.6 476.2 232.8 509.4 401 461.3 348 437.4M124.4 396c-78.7 22 47.9 67.4 148.1 24.5a186 186 0 0 1-28.2-13.8c-44.7 8.5-65.4 9.1-106 4.5C104.8 407.4 124.4 396 124.4 396m179.8 97.2C225.5 508 128.4 506.3 70.9 496.8c0-.1 11.8 9.7 72.4 13.6 92.2 5.9 233.8-3.3 237.1-46.9 0 0-6.4 16.5-76.2 29.7M260.6 353c-59.2 11.4-93.5 11.1-136.8 6.6-33.5-3.5-11.6-19.7-11.6-19.7-86.8 28.8 48.2 61.4 169.5 25.9A60.4 60.4 0 0 1 260.6 353"/></svg>