<svg height="512" width="576" xmlns="http://www.w3.org/2000/svg"><path d="M536 352C493.3 446.2 398.3 512 288 512q-6.4 0-12.9-.3C171.2 506.9 81.3 442.2 40 352h39.9L21.3 293.4A265 265 0 0 1 16.2 254a274 274 0 0 1 .5-30h47.2L22.5 182.6a269.8 269.8 0 0 1 108-162.1 16.1 16.1 0 0 1 9.3-3 16.4 16.4 0 0 1 13.5 7.3 16 16 0 0 1 1.6 15.1 138.4 138.4 0 0 0-9.8 51.3c0 45.1 21 86.5 57.7 113.7a16.3 16.3 0 0 1 1.2 25.4c-26.5 24-41.2 56.5-41.2 91.6 0 60 43 110.2 99.9 121.9l2.5-65.3L238.1 397a8.3 8.3 0 0 1-10-.7 8 8 0 0 1-1.4-10l20.1-33.8-42.1-8.7a8 8 0 0 1 0-15.6l42.1-8.8-20.1-33.7A8 8 0 0 1 238 275l30.4 20.6L280 7.7A8 8 0 0 1 288 0a8 8 0 0 1 8 7.7l11.5 287.9L337.9 275a8.1 8.1 0 0 1 10 .8 8 8 0 0 1 1.4 9.9l-20.2 33.7 42.1 8.8a8 8 0 0 1 0 15.6l-42.1 8.7 20.1 33.8a8 8 0 0 1-1.3 9.9 8.3 8.3 0 0 1-10 .8l-27.2-18.5 2.5 65.4c48.5-9.4 87.6-48.2 97.3-96.5A123.5 123.5 0 0 0 372 230.3a16.3 16.3 0 0 1 1.2-25.4c36.6-27.2 57.6-68.6 57.6-113.8A138 138 0 0 0 421 39.8a16 16 0 0 1 1.6-15.1 16.4 16.4 0 0 1 13.5-7.2 16 16 0 0 1 9.2 3 271.3 271.3 0 0 1 108 162.3L512 224h47c.3 5.8 1 11.5 1 17.3a270 270 0 0 1-5.1 51.8L496 352z"/></svg>