<svg height="512" width="640" xmlns="http://www.w3.org/2000/svg"><path d="M444.3 181.1c22.4 15.7 35.7 41.2 35.7 68.6V280c0 4.4 3.6 8 8 8h48c4.4 0 8-3.6 8-8v-30.3c0-43.3-21-83.4-56.3-108.1C463.9 125 448 99.3 448 70.3V8c0-4.4-3.6-8-8-8h-48c-4.4 0-8 3.6-8 8v66.4c0 43.7 24.6 81.6 60.3 106.7M195 359C126 370.1 59.7 394.7 0 432c83.7 52.3 180.3 80 278.9 80h88.6L254.8 380.5C240 363.3 217.3 355.4 195 359M553.3 87.1C547.6 83.3 544 77.1 544 70.3V8c0-4.4-3.6-8-8-8h-48c-4.4 0-8 3.6-8 8v62.3c0 22 10.2 43.4 28.6 55.4 42.2 27.3 67.4 73.8 67.4 124V280c0 4.4 3.6 8 8 8h48c4.4 0 8-3.6 8-8v-30.3C640 184.3 607.6 123.5 553.3 87.1m-192.4 265c-34.4 0-86.8.1-88.2.1l117.8 137.5a64 64 0 0 0 48.6 22.3h88.4L409.6 374.4A64 64 0 0 0 360.9 352zM616 352H432l118 137.6a64 64 0 0 0 48.6 22.4H616c13.3 0 24-10.7 24-24V376c0-13.3-10.7-24-24-24"/></svg>