<svg height="512" width="448" xmlns="http://www.w3.org/2000/svg"><path d="M438.4 377.6c-3.2 12.8-3.2 57.6 0 73.6q9.6 9.6 9.6 19.2v16c0 16-12.8 25.6-25.6 25.6H96C41.6 512 0 470.4 0 416V96C0 41.6 41.6 0 96 0h326.4c16 0 25.6 9.6 25.6 25.6v332.8q0 14.4-9.6 19.2m-57.6 6.4H96c-16 0-32 12.8-32 32s12.8 32 32 32h284.8zM128 176c0 .5.2 1 .2 1.5l37.1 32.5a8 8 0 0 1-5.3 14 9.2 9.2 0 0 1-5.3-2l-23.6-20.6C142.7 251 186.9 288 240 288s97.3-37 108.9-86.6L325.3 222a8 8 0 0 1-5.3 2 9.1 9.1 0 0 1-6-2.7 9.3 9.3 0 0 1-2-5.3 9.1 9.1 0 0 1 2.7-6l37.1-32.5c.1-.5.2-1 .2-1.5 0-11-2.1-21.5-5.1-31.6l-21.2 21.3a8 8 0 0 1-11.4-11.4l26.5-26.4A111.8 111.8 0 0 0 294.4 78.7a63 63 0 0 1-14.1 82.6 55.8 55.8 0 0 1-28.7 93.4l-1.4-34.2 12.7 8.6a4 4 0 0 0 2.2.7 4 4 0 0 0 3.5-6.1L260 209.4l17.9-3.7a4 4 0 0 0 0-7.8L260 194.1l8.6-14.3a4 4 0 0 0-3.5-6 4.7 4.7 0 0 0-2.2.7l-14.2 9.6L244 71.8a4 4 0 0 0-8 0l-4.6 110.8-12-8.1a4 4 0 0 0-5.7 5.3l8.5 14.4-17.9 3.7a4 4 0 0 0 0 7.8l17.9 3.7-8.5 14.3a4.7 4.7 0 0 0-.6 2.1 4.6 4.6 0 0 0 1.3 2.9 4 4 0 0 0 2.7 1.1 4.1 4.1 0 0 0 2.3-.7l10.3-7.1-1.3 32.8a55.9 55.9 0 0 1-28.7-93.5A63 63 0 0 1 185.6 78.7a111.9 111.9 0 0 0-46.4 49.2l26.5 26.4a8 8 0 0 1-11.4 11.4l-21.2-21.3c-3 10.1-5.1 20.6-5.1 31.6"/></svg>