<svg height="512" width="576" xmlns="http://www.w3.org/2000/svg"><path d="M510.6 237.5c-4.7-2.7-5.6-5.8-6.3-10.8-2.4-16.5-3.6-33.6-9.1-49.1C459.3 77.6 341.2 34.2 248.3 85.9c-27.4 15.3-49 36.4-65.5 63.9-3.2-1.5-5.4-2.7-7.8-3.6C144.9 133.7 115.9 136 89.7 155.3 64.1 174.1 53.2 199.9 57 231.7c.3 3.1-2 7.7-4.5 9.6-39.7 30-56.1 78-41.9 124.6 13.8 45.6 57.5 79.8 105.6 81.4 30.3 1.1 60.6.6 90.9.6 84.1-.1 168.1.5 252.2-.5 52.6-.6 96.1-36.9 108.2-87.3C579 312 556.3 262.8 510.6 237.5m21.1 156.8c-18.2 22.5-42.3 35.3-71.2 35.7-56.9.8-113.8.2-170.7.2 0 .7-163 .2-163.7.2C82.2 430 49.3 410.6 30.9 370.4 12 329.1 26.9 279.5 65.1 254.3c9.2-6.1 12.5-11.6 10.1-23.2-5.5-26.3 4.4-47.9 26.4-62.9 23-15.8 47.4-16.2 72-3.1 10.3 5.4 14.6 11.5 22.2-2.6 14.3-26.4 34.6-46.7 60.7-61.2C354 46.9 484.9 108.8 486.8 234c.1 8.1 2.4 12.4 9.8 15.8 57.6 26.9 74.5 96.2 35.1 144.5M444 313.8c-5.9 31.2-34.7 55.1-66.7 55.1-17 0-32.1-6.5-44.1-17.7-27.7-25.7-71.1-74.9-95.9-93.4-20.1-14.8-42-12.3-60.3 3.8-50 44.1 15.9 121.8 67.1 77.2 4.5-3.9 7.8-9.5 12.7-12.8 8.2-5.5 20.8-.9 13.2 10.6-17.4 26.3-49.4 38.2-78.9 29.3-28.9-8.7-48.8-36-48.6-70.2 1.2-22.5 12.3-43 35.4-55.9 22.6-12.7 46.4-13.2 67 2.4 50.8 38.5 75.6 81.8 107.3 101.3 24.5 15.1 54.2 7.3 68.8-17.5 28.8-49.2-34.6-105.1-78.9-63.5-3.9 3.7-6.9 8.9-11.4 11.7-10.9 6.8-17.3-4.1-12.8-10.3 20.7-28.6 50.5-40.5 83.3-28.2 31.4 11.7 49.1 44.3 42.8 78.1"/></svg>