<svg height="512" width="576" xmlns="http://www.w3.org/2000/svg"><path d="M554.1 83.5 318.4 4.9a96 96 0 0 0-60.7 0L21.9 83.5A32 32 0 0 0 0 113.9v49L265 83.4c15-4.5 30.9-4.5 46 0l265 79.5v-49c0-13.8-8.8-26-21.9-30.4M274.2 114 0 196.3v228.4c0 15 10.4 28 25.1 31.2l242.1 53.8a95.9 95.9 0 0 0 41.6 0L551 455.9c14.6-3.2 25-16.2 25-31.2V196.3L301.8 114c-9-2.7-18.6-2.7-27.6 0M128 230.1c0 3.6-2.4 6.8-5.9 7.7l-80 21.9C37 261 32 257.2 32 251.9v-16.5c0-3.7 2.4-6.8 5.9-7.8l80-21.8c5.1-1.4 10.1 2.5 10.1 7.7zm144-39.3c0 3.6-2.4 6.8-5.9 7.8l-96 26.1C165 226.1 160 222.3 160 217v-16.6c0-3.6 2.4-6.7 5.9-7.7l96-26.2c5.1-1.4 10.1 2.5 10.1 7.8zm176 22.7c0-5.2 5-9.1 10.1-7.7l80 21.8c3.5 1 5.9 4.1 5.9 7.7v16.6c0 5.3-5 9.1-10.1 7.8l-80-21.9a8 8 0 0 1-5.9-7.7zM304 174.3c0-5.3 5-9.2 10.1-7.8l96 26.2c3.5 1 5.9 4.1 5.9 7.7V217c0 5.3-5 9.1-10.1 7.7l-96-26.1a8 8 0 0 1-5.9-7.8z"/></svg>