<svg height="512" width="576" xmlns="http://www.w3.org/2000/svg"><path d="M528 64H48C21.5 64 0 85.5 0 112v288c0 26.5 21.5 48 48 48h480c26.5 0 48-21.5 48-48V112C576 85.5 554.5 64 528 64m8 336c0 4.4-3.6 8-8 8H48c-4.4 0-8-3.6-8-8V112c0-4.4 3.6-8 8-8h480c4.4 0 8 3.6 8 8zM170 270v-28c0-6.6-5.4-12-12-12h-28c-6.6 0-12 5.4-12 12v28c0 6.6 5.4 12 12 12h28c6.6 0 12-5.4 12-12m96 0v-28c0-6.6-5.4-12-12-12h-28c-6.6 0-12 5.4-12 12v28c0 6.6 5.4 12 12 12h28c6.6 0 12-5.4 12-12m96 0v-28c0-6.6-5.4-12-12-12h-28c-6.6 0-12 5.4-12 12v28c0 6.6 5.4 12 12 12h28c6.6 0 12-5.4 12-12m96 0v-28c0-6.6-5.4-12-12-12h-28c-6.6 0-12 5.4-12 12v28c0 6.6 5.4 12 12 12h28c6.6 0 12-5.4 12-12m-336 82v-28c0-6.6-5.4-12-12-12H82c-6.6 0-12 5.4-12 12v28c0 6.6 5.4 12 12 12h28c6.6 0 12-5.4 12-12m384 0v-28c0-6.6-5.4-12-12-12h-28c-6.6 0-12 5.4-12 12v28c0 6.6 5.4 12 12 12h28c6.6 0 12-5.4 12-12M122 188v-28c0-6.6-5.4-12-12-12H82c-6.6 0-12 5.4-12 12v28c0 6.6 5.4 12 12 12h28c6.6 0 12-5.4 12-12m96 0v-28c0-6.6-5.4-12-12-12h-28c-6.6 0-12 5.4-12 12v28c0 6.6 5.4 12 12 12h28c6.6 0 12-5.4 12-12m96 0v-28c0-6.6-5.4-12-12-12h-28c-6.6 0-12 5.4-12 12v28c0 6.6 5.4 12 12 12h28c6.6 0 12-5.4 12-12m96 0v-28c0-6.6-5.4-12-12-12h-28c-6.6 0-12 5.4-12 12v28c0 6.6 5.4 12 12 12h28c6.6 0 12-5.4 12-12m96 0v-28c0-6.6-5.4-12-12-12h-28c-6.6 0-12 5.4-12 12v28c0 6.6 5.4 12 12 12h28c6.6 0 12-5.4 12-12m-98 158v-16c0-6.6-5.4-12-12-12H180c-6.6 0-12 5.4-12 12v16c0 6.6 5.4 12 12 12h216c6.6 0 12-5.4 12-12"/></svg>