<svg height="1000" width="1125" xmlns="http://www.w3.org/2000/svg"><path d="M1031.3 125c51.7 0 93.7 42 93.7 93.8v562.5c0 51.7 -42 93.7 -93.7 93.7H93.8C42 875 0 833 0 781.3V218.8C0 167 42 125 93.8 125h937.5zm15.6 656.3V218.8c0 -8.7 -7 -15.7 -15.6 -15.7H93.8c-8.7 0 -15.7 7 -15.7 15.7v562.5c0 8.6 7 15.6 15.7 15.6h937.5c8.6 0 15.6 -7 15.6 -15.6zM332 527.3c0 13 -10.5 23.5 -23.4 23.5h-54.7c-12.9 0 -23.4 -10.5 -23.4 -23.5v-54.6c0 -13 10.5 -23.5 23.4 -23.5h54.7c12.9 0 23.4 10.5 23.4 23.5v54.6zm187.5 0c0 13 -10.5 23.5 -23.4 23.5h-54.7c-12.9 0 -23.4 -10.5 -23.4 -23.5v-54.6c0 -13 10.5 -23.5 23.4 -23.5h54.7c12.9 0 23.4 10.5 23.4 23.5v54.6zm187.5 0c0 13 -10.5 23.5 -23.4 23.5h-54.7c-12.9 0 -23.4 -10.5 -23.4 -23.5v-54.6c0 -13 10.5 -23.5 23.4 -23.5h54.7c12.9 0 23.4 10.5 23.4 23.5v54.6zm187.5 0c0 13 -10.5 23.5 -23.4 23.5h-54.7c-12.9 0 -23.4 -10.5 -23.4 -23.5v-54.6c0 -13 10.5 -23.5 23.4 -23.5h54.7c12.9 0 23.4 10.5 23.4 23.5v54.6zM238.3 687.5c0 12.9 -10.5 23.4 -23.5 23.4h-54.6c-13 0 -23.5 -10.5 -23.5 -23.4v-54.7c0 -12.9 10.5 -23.4 23.5 -23.4h54.6c13 0 23.5 10.5 23.5 23.4v54.7zm750 0c0 12.9 -10.5 23.4 -23.5 23.4h-54.6c-13 0 -23.5 -10.5 -23.5 -23.4v-54.7c0 -12.9 10.5 -23.4 23.5 -23.4h54.6c13 0 23.5 10.5 23.5 23.4v54.7zm-750 -320.3c0 12.9 -10.5 23.4 -23.5 23.4h-54.6c-13 0 -23.5 -10.5 -23.5 -23.4v-54.7c0 -12.9 10.5 -23.4 23.5 -23.4h54.6c13 0 23.5 10.5 23.5 23.4v54.7zm187.5 0c0 12.9 -10.5 23.4 -23.5 23.4h-54.6c-13 0 -23.5 -10.5 -23.5 -23.4v-54.7c0 -12.9 10.5 -23.4 23.5 -23.4h54.6c13 0 23.5 10.5 23.5 23.4v54.7zm187.5 0c0 12.9 -10.5 23.4 -23.5 23.4h-54.6c-13 0 -23.5 -10.5 -23.5 -23.4v-54.7c0 -12.9 10.5 -23.4 23.5 -23.4h54.6c13 0 23.5 10.5 23.5 23.4v54.7zm187.5 0c0 12.9 -10.5 23.4 -23.5 23.4h-54.6c-13 0 -23.5 -10.5 -23.5 -23.4v-54.7c0 -12.9 10.5 -23.4 23.5 -23.4h54.6c13 0 23.5 10.5 23.5 23.4v54.7zm187.5 0c0 12.9 -10.5 23.4 -23.5 23.4h-54.6c-13 0 -23.5 -10.5 -23.5 -23.4v-54.7c0 -12.9 10.5 -23.4 23.5 -23.4h54.6c13 0 23.5 10.5 23.5 23.4v54.7zM796.9 675.8c0 12.9 -10.5 23.4 -23.5 23.4H351.6c-13 0 -23.5 -10.5 -23.5 -23.4v-31.3c0 -12.9 10.5 -23.4 23.5 -23.4h421.8c13 0 23.5 10.5 23.5 23.4v31.3z"/></svg>