<svg height="1000" width="1125" xmlns="http://www.w3.org/2000/svg"><path d="M1031.3 125H93.8C42 125 0 167 0 218.8v562.5C0 833 42 875 93.8 875h937.5c51.7 0 93.7 -42 93.7 -93.7V218.8C1125 167 1083 125 1031.3 125zm15.6 656.3c0 8.6 -7 15.6 -15.6 15.6H93.8c-8.7 0 -15.7 -7 -15.7 -15.6V218.8c0 -8.7 7 -15.7 15.7 -15.7h937.5c8.6 0 15.6 7 15.6 15.7v562.5zM332 527.3v-54.6c0 -13 -10.5 -23.5 -23.4 -23.5h-54.7c-12.9 0 -23.4 10.5 -23.4 23.5v54.6c0 13 10.5 23.5 23.4 23.5h54.7c12.9 0 23.4 -10.5 23.4 -23.5zm187.5 0v-54.6c0 -13 -10.5 -23.5 -23.4 -23.5h-54.7c-12.9 0 -23.4 10.5 -23.4 23.5v54.6c0 13 10.5 23.5 23.4 23.5h54.7c12.9 0 23.4 -10.5 23.4 -23.5zm187.5 0v-54.6c0 -13 -10.5 -23.5 -23.4 -23.5h-54.7c-12.9 0 -23.4 10.5 -23.4 23.5v54.6c0 13 10.5 23.5 23.4 23.5h54.7c12.9 0 23.4 -10.5 23.4 -23.5zm187.5 0v-54.6c0 -13 -10.5 -23.5 -23.4 -23.5h-54.7c-12.9 0 -23.4 10.5 -23.4 23.5v54.6c0 13 10.5 23.5 23.4 23.5h54.7c12.9 0 23.4 -10.5 23.4 -23.5zM238.3 687.5v-54.7c0 -12.9 -10.5 -23.4 -23.5 -23.4h-54.6c-13 0 -23.5 10.5 -23.5 23.4v54.7c0 12.9 10.5 23.4 23.5 23.4h54.6c13 0 23.5 -10.5 23.5 -23.4zm750 0v-54.7c0 -12.9 -10.5 -23.4 -23.5 -23.4h-54.6c-13 0 -23.5 10.5 -23.5 23.4v54.7c0 12.9 10.5 23.4 23.5 23.4h54.6c13 0 23.5 -10.5 23.5 -23.4zm-750 -320.3v-54.7c0 -12.9 -10.5 -23.4 -23.5 -23.4h-54.6c-13 0 -23.5 10.5 -23.5 23.4v54.7c0 12.9 10.5 23.4 23.5 23.4h54.6c13 0 23.5 -10.5 23.5 -23.4zm187.5 0v-54.7c0 -12.9 -10.5 -23.4 -23.5 -23.4h-54.6c-13 0 -23.5 10.5 -23.5 23.4v54.7c0 12.9 10.5 23.4 23.5 23.4h54.6c13 0 23.5 -10.5 23.5 -23.4zm187.5 0v-54.7c0 -12.9 -10.5 -23.4 -23.5 -23.4h-54.6c-13 0 -23.5 10.5 -23.5 23.4v54.7c0 12.9 10.5 23.4 23.5 23.4h54.6c13 0 23.5 -10.5 23.5 -23.4zm187.5 0v-54.7c0 -12.9 -10.5 -23.4 -23.5 -23.4h-54.6c-13 0 -23.5 10.5 -23.5 23.4v54.7c0 12.9 10.5 23.4 23.5 23.4h54.6c13 0 23.5 -10.5 23.5 -23.4zm187.5 0v-54.7c0 -12.9 -10.5 -23.4 -23.5 -23.4h-54.6c-13 0 -23.5 10.5 -23.5 23.4v54.7c0 12.9 10.5 23.4 23.5 23.4h54.6c13 0 23.5 -10.5 23.5 -23.4zM796.9 675.8v-31.3c0 -12.9 -10.5 -23.4 -23.5 -23.4H351.6c-13 0 -23.5 10.5 -23.5 23.4v31.3c0 12.9 10.5 23.4 23.5 23.4h421.8c13 0 23.5 -10.5 23.5 -23.4z"/></svg>