<svg height="512" width="448" xmlns="http://www.w3.org/2000/svg"><path d="M286.2 419a18 18 0 1 0 18 18 18 18 0 0 0-18-18M398.1 271.4c-9.5-14.6-39.4-52.5-87.3-73.7q-9.1-4.1-18.3-7.3A78.4 78.4 0 0 0 244.6 86.3c-12.4-4.1-23.4-6-32.4-5.8-.6-2-1.9-11 9.4-35L198.7 32l-5.5 7.6c-8.7 12-16.9 23.5-24.4 34.9a51 51 0 0 0-8.2-1.3c-41.6-2.4-39-2.3-41.1-2.3-50.6 0-50.8 52.1-50.8 45.9l-2.3 36.6c-1.6 27 19.7 50.2 47.6 51.9l8.9.5a214 214 0 0 0-46.2 35.6C14 304.7 14 374 14 429.8v33.6l23.3-29.8a148.6 148.6 0 0 0 14.6 37.6c5.8 10.1 14.9 9.4 19.6 7.3 4.2-1.9 10-6.9 3.8-20.1A178.3 178.3 0 0 1 59.5 405.3l46.8-59.9-24.6 74.1c58.2-42.4 157.4-61.7 236.2-38.6 34.2 10.1 67.5.7 84.8-23.8.7-1 1.2-2.2 1.8-3.2a156 156 0 0 1 2.8 28.4c0 23.3-3.7 52.9-14.9 81.7-2.5 6.4 1.8 14.5 8.6 15.7 7.5 1.6 15.4-3.1 18.4-11.2C429 443 434 414 434 382.3c0-38.6-13-77.4-35.9-110.9M142.4 128.6l-15.7-.9-1.4 21.7 13.1.8a93 93 0 0 0 .3 19.6l-22.4-1.4a12.3 12.3 0 0 1-11.7-12.7L107 119c1-12.2 13.9-11.3 13.3-11.3l29.1 1.7a144 144 0 0 0-7 19.2m148.4 172.2a10.5 10.5 0 0 1-14.4-1.4l-9.6-11.5-34.5 27a8.1 8.1 0 0 1-11.1-1.1l-15.8-18.6a7.4 7.4 0 0 1 1.4-10.4l34.5-27.2-14.1-16.7-17.1 13.5a7.8 7.8 0 0 1-10.6-1s-3.7-4.5-3.8-4.6a7.4 7.4 0 0 1 1.4-10.3L214 225.2s-18.5-22-18.6-22.1a9.6 9.6 0 0 1 1.7-13.5 10.4 10.4 0 0 1 14.3 1.4l81.1 96.3a9.6 9.6 0 0 1-1.7 13.5M187.4 419a18 18 0 1 0 18 18 18 18 0 0 0-18-18"/></svg>