<svg height="512" width="512" xmlns="http://www.w3.org/2000/svg"><path d="M415.8 66c-6.4-3.5-14.4-2.3-19.4 3a16 16 0 0 0-1.9 19.5c16.5 26.2 25.2 56.4 25.2 87.4-.2 53.3-26.7 102.7-71.2 132.5l-76.7 53.3v-20.1l44.1-36.1c3.9-4.2 5-10.1 2.8-15.3L310.9 273c33.8-19.3 56.9-55.2 56.9-97 0-40.8-22-76.1-54.6-95.7l5.2-11.4c2.4-5.6 1-11.9-3.5-16.1L255.9 0l-59 52.8c-4.5 4.2-5.9 10.5-3.6 16l5.2 11.5C166 99.9 143.9 135.2 143.9 176c0 41.8 23.1 77.7 57 97l-7.9 17.2c-2.2 5.2-1.1 11.1 2.8 15.3l44.1 36.1v19.9l-76.6-53.3C119 278.6 92.4 229.2 92.3 176c0-31.1 8.7-61.3 25.2-87.5 3.8-6.1 2.4-13.7-2.6-19-5-5.4-13.7-6.2-20-2.7C16.3 109.6-22.3 205.3 13.4 296c7 18 17.9 34.4 30.4 49.1l56 65.3c4.9 5.7 13 7.3 19.6 3.7l79.4-42.2 29.2 20.3L180.9 425c-1.6-.4-3.2-1-5-1-13.2 0-24 10.7-24 24s10.8 24 24 24c12.1 0 21.7-9.1 23.3-20.8L239.9 423v29.9c-9.4 5.6-16 15.4-16 27.1 0 17.7 14.3 32 32 32s31.9-14.3 31.9-32c0-11.7-6.6-21.5-16-27.1v-30.1l41 28.4c1.6 11.7 11.2 20.8 23.3 20.8 13.2 0 24-10.7 24-24s-10.8-24-24-24c-1.8 0-3.3.6-5 1L284 392.2l29.2-20.3 79.4 42.2c6.6 3.5 14.7 2 19.6-3.7l52.5-61.3c18.9-22 34-47.5 41.3-75.6C527.6 189.9 489.5 106.2 415.8 66m-96 110c0 22.3-11.5 41.9-28.8 53.4L285.3 217c-8.7-24.6-8.7-51.1 0-75.6l7.9-17.2c16 11.7 26.6 30.5 26.6 51.8m-127.9 0c0-21.3 10.6-40.1 26.6-51.8l7.9 17.2c8.7 24.5 8.7 51.1 0 75.6l-5.7 12.4C203.4 217.9 191.9 198.3 191.9 176"/></svg>