<svg height="1000" width="984.4" xmlns="http://www.w3.org/2000/svg"><path d="M593.8 602.5c0 25.4 -26.2 53.4 -68.6 71.1 42.6 17 68.7 45 68.7 70.3 0 37.5 -56 81.1 -139.6 86h-1c-7.2 0 -13.7 -5.1 -15.2 -12.1 -1.8 -7.4 2.1 -15.1 9.2 -18l33.2 -14.1c25.2 -10.7 40.4 -26.3 40.4 -42s-15.2 -31.2 -40.6 -41.9l-33 -14.1c-11.8 -5.1 -11.2 -24.2 0 -28.9l33.2 -14.1c25.2 -10.7 40.4 -26.3 40.4 -42s-15.2 -31.2 -40.6 -42l-33 -14c-7.1 -2.9 -11 -10.6 -9.2 -18 1.5 -7.4 8.6 -12.9 16 -12.1 83.4 4.9 139.7 48.4 139.7 85.9zm137.6 -163c-28.9 -25.8 -90.2 -25.8 -119.1 0l-18.5 16.6c-4.9 4.4 -15.5 9.1 -26.8 3.1 -8.6 -4.7 -13.5 -14.5 -11.9 -24.2 7.6 -49.3 66.8 -82.3 116.8 -82.3s109 33 116.8 82.3c1.5 9.7 -3.3 19.5 -11.9 24.2 -8.6 4.7 -19.4 3.3 -26.8 -3.1zM265.6 407.2c0 -34.5 28 -62.5 62.5 -62.5s62.5 28 62.5 62.5 -27.9 62.5 -62.5 62.5 -62.5 -27.9 -62.5 -62.5zm713.1 378.9c18 46.7 -8.6 96.5 -55.7 108.8l-162.1 42c-10.5 2.7 -21.3 -3.5 -24.2 -13.9L692 761.7C679.1 714.8 709.2 666.8 758.4 659c43 -6.9 84.2 22.6 95.7 64.4l4.5 16.4 16.4 -4.3c42.2 -10.9 88.1 10 103.7 50.6zm-326.4 66c34.6 125 21.3 77.2 26.2 91.5 -59.6 26.1 -125 40.8 -194.1 40.8C216.8 984.4 0 767.6 0 500S216.8 15.6 484.4 15.6 968.8 232.4 968.6 500c0 62.1 -12.2 121.3 -33.4 175.8 -11.8 -2.9 -23.9 -5.5 -36.4 -5.7 -10.9 -18.9 -26.5 -34.2 -44.1 -46.7C867.8 584.6 875 543.2 875 500 875 284.6 699.8 109.4 484.4 109.4S93.7 284.6 93.7 500s175.2 390.6 390.7 390.6c60.1 0 117 -14 167.9 -38.5z"/></svg>