<svg height="1000" width="984.4" xmlns="http://www.w3.org/2000/svg"><path d="M593.8 602.5c0 -37.5 -56.3 -81 -139.7 -85.9 -7.4 -.8 -14.5 4.7 -16 12.1 -1.8 7.4 2.1 15.1 9.2 18l33 14c25.4 10.8 40.6 26.4 40.6 42s-15.2 31.3 -40.4 42l-33.2 14.1c-11.2 4.7 -11.8 23.8 0 28.9l33 14.1c25.4 10.7 40.6 26.3 40.6 41.9s-15.2 31.3 -40.4 42l-33.2 14.1c-7.1 2.9 -11 10.6 -9.2 18 1.5 7 8 12.1 15.2 12.1h1c83.6 -4.9 139.6 -48.5 139.6 -86 0 -25.3 -26.1 -53.3 -68.7 -70.3 42.4 -17.7 68.6 -45.7 68.6 -71.1zm137.6 -163l18.6 16.6c7.4 6.4 18.2 7.8 26.8 3.1 8.6 -4.7 13.4 -14.5 11.9 -24.2 -7.8 -49.3 -66.8 -82.3 -116.8 -82.3s-109.2 33 -116.8 82.3c-1.6 9.7 3.3 19.5 11.9 24.2 11.3 6 21.9 1.3 26.8 -3.1l18.5 -16.6c28.9 -25.8 90.2 -25.8 119.1 0zM265.6 407.2c0 34.6 28 62.5 62.5 62.5s62.5 -27.9 62.5 -62.5 -27.9 -62.5 -62.5 -62.5 -62.5 28 -62.5 62.5zm713.1 378.9C963.1 745.5 917.2 724.6 875 735.5l-16.4 4.3 -4.5 -16.4C842.6 681.6 801.4 652.1 758.4 659c-49.2 7.8 -79.3 55.8 -66.4 102.7L736.7 923c2.9 10.4 13.7 16.6 24.2 13.9l162.1 -42c47.1 -12.3 73.7 -62.1 55.7 -108.8zm-326.4 66c-50.9 24.5 -107.8 38.5 -167.9 38.5C268.9 890.6 93.8 715.4 93.8 500S268.9 109.4 484.4 109.4 875 284.6 875 500c0 43.2 -7.2 84.6 -20.3 123.4 17.6 12.5 33.2 27.8 44.1 46.7 12.5 .2 24.6 2.8 36.4 5.7C956.4 621.3 968.6 562.1 968.6 500 968.8 232.4 752 15.6 484.4 15.6S0 232.4 0 500s216.8 484.4 484.4 484.4c69.1 0 134.5 -14.7 194.1 -40.8 -4.9 -14.3 8.4 33.5 -26.2 -91.5z"/></svg>