<svg height="1000" width="968.8" xmlns="http://www.w3.org/2000/svg"><path d="M328.1 343.8c-34.5 0 -62.5 27.9 -62.5 62.5s28 62.5 62.5 62.5 62.5 -28 62.5 -62.5 -27.9 -62.5 -62.5 -62.5zm265.7 257.8c0 -37.5 -56.3 -81.1 -139.7 -86 -7.4 -.8 -14.5 4.7 -16 12.1 -1.8 7.5 2.1 15.1 9.2 18l33 14.1c25.4 10.7 40.6 26.3 40.6 42s-15.2 31.2 -40.4 42l-33.2 14c-11.2 4.7 -11.8 23.8 0 28.9l33 14.1c25.4 10.7 40.6 26.3 40.6 42s-15.2 31.2 -40.4 42l-33.2 14c-7.1 3 -11 10.6 -9.2 18 1.5 7 8 12.1 15.2 12.1h1C537.9 824 593.9 780.5 593.9 743c0 -25.4 -26.1 -53.4 -68.7 -70.3 42.4 -17.8 68.6 -45.7 68.6 -71.1zM484.4 15.6C216.8 15.6 0 232.4 0 500s216.8 484.4 484.4 484.4S968.8 767.6 968.8 500 752 15.6 484.4 15.6zm0 875C268.9 890.6 93.8 715.4 93.8 500S268.9 109.4 484.4 109.4 875 284.6 875 500 699.8 890.6 484.4 890.6zM640.6 343.8c-34.5 0 -62.5 27.9 -62.5 62.5s28 62.5 62.5 62.5 62.5 -28 62.5 -62.5 -27.9 -62.5 -62.5 -62.5z"/></svg>