<svg height="1000" width="968.8" xmlns="http://www.w3.org/2000/svg"><path d="M328.1 343.8c34.6 0 62.5 27.9 62.5 62.5s-27.9 62.5 -62.5 62.5 -62.5 -28 -62.5 -62.5 28 -62.5 62.5 -62.5zm265.7 257.8c0 25.4 -26.2 53.3 -68.6 71.1 42.6 16.9 68.7 44.9 68.7 70.3 0 37.5 -56 81 -139.6 85.9h-1c-7.2 0 -13.7 -5.1 -15.2 -12.1 -1.8 -7.4 2.1 -15 9.2 -18l33.2 -14c25.2 -10.8 40.4 -26.4 40.4 -42s-15.2 -31.3 -40.6 -42l-33 -14.1c-11.8 -5.1 -11.2 -24.2 0 -28.9l33.2 -14.1c25.2 -10.7 40.4 -26.3 40.4 -41.9s-15.2 -31.3 -40.6 -42l-33 -14.1c-7.1 -2.9 -11 -10.5 -9.2 -18 1.5 -7.4 8.6 -12.9 16 -12.1 83.4 4.9 139.7 48.5 139.7 86zM484.4 15.6C752 15.6 968.8 232.4 968.8 500S752 984.4 484.4 984.4 0 767.6 0 500 216.8 15.6 484.4 15.6zm0 875C699.8 890.6 875 715.4 875 500S699.8 109.4 484.4 109.4 93.8 284.6 93.8 500s175.1 390.6 390.6 390.6zM640.6 343.8c34.6 0 62.5 27.9 62.5 62.5s-27.9 62.5 -62.5 62.5 -62.5 -28 -62.5 -62.5 28 -62.5 62.5 -62.5z"/></svg>