<svg height="512" width="576" xmlns="http://www.w3.org/2000/svg"><path d="M575.8 218C572.6 157.4 518.3 112 457.6 112h-9.3C395.4 112 344 95.8 300.5 65.8c-42-29-96-41.7-153.2-28.7C129.3 41.1-.1 78.2 0 224c0 70.9 38.7 132.8 96 166v74c0 8.8 7.1 16 16 16h16c8.8 0 16-7.2 16-16v-54.3c15.4 4 31.4 6.3 48 6.3 5.4 0 10.7-.7 16-1.2V464c0 8.8 7.2 16 16 16h16c8.8 0 16-7.2 16-16v-59.4c14.2-5.1 27.9-11.4 40.3-19.5C342.1 355.3 393.9 336 448.5 336c25.4 0 16-.3 23-.8l74.4 136.5c2.9 5.2 8.3 8.3 14.1 8.3 1.3 0 2.6-.2 3.9-.5C571 477.7 576 471.3 576 464c0 0 .1-240.2-.2-246M464 248c-13.3 0-24-10.7-24-24s10.7-24 24-24 24 10.7 24 24-10.8 24-24 24m80 153.3-39.9-73.1c15.1-5.9 28.7-14.6 39.9-26z"/></svg>