<svg height="512" width="640" xmlns="http://www.w3.org/2000/svg"><path d="M255 261.6c6.3 6.3 16.4 6.3 22.7 0L289 250.3c6.2-6.2 6.2-16.3 0-22.6L253.3 192 289 156.3c6.2-6.3 6.2-16.4 0-22.6l-11.4-11.4c-6.2-6.2-16.3-6.2-22.6 0l-58.3 58.4c-6.3 6.2-6.3 16.4 0 22.6zm96-11.3 11.4 11.4c6.2 6.2 16.3 6.2 22.6 0l58.3-58.4c6.3-6.2 6.3-16.4 0-22.6L385 122.3c-6.3-6.2-16.4-6.2-22.6 0L351 133.7c-6.2 6.2-6.2 16.3 0 22.6l35.8 35.7L351 227.7c-6.2 6.3-6.2 16.4 0 22.6M624 416H381.5c-.7 19.8-14.7 32-32.7 32H288c-18.7 0-33-17.5-32.8-32H16c-8.8 0-16 7.2-16 16v16c0 35.2 28.8 64 64 64h512c35.2 0 64-28.8 64-64v-16c0-8.8-7.2-16-16-16M576 48C576 21.6 554.4 0 528 0H112C85.6 0 64 21.6 64 48v336h512zm-64 272H128V64h384z"/></svg>