<svg height="512" width="640" xmlns="http://www.w3.org/2000/svg"><path d="M272 288h-64a16 16 0 0 1-16-16v-64a16 16 0 0 1 16-16h64a16 16 0 0 1 16 16v37.1C299.1 232.2 315 224 332.8 224h136.9l6.7-7.5A16.5 16.5 0 0 0 480 207a16.3 16.3 0 0 0-4.7-10.6L416 144V48A16 16 0 0 0 400 32h-32a16 16 0 0 0-16 16v39.3L263.5 8.9C258 4 247.4 0 240.1 0s-18 4-23.5 8.9L4.8 196.4A16.1 16.1 0 0 0 0 207a16.4 16.4 0 0 0 3.5 9.4l18.8 21.3a16.2 16.2 0 0 0 10.7 4.8 16.5 16.5 0 0 0 9.3-3.5L64 219.9V384a32 32 0 0 0 32 32h176zm357.3 160H592V288c0-17.7-12.9-32-28.8-32H332.8c-15.9 0-28.8 14.3-28.8 32v160h-37.3A10.7 10.7 0 0 0 256 458.7v10.6a42.8 42.8 0 0 0 42.6 42.7h298.8A42.8 42.8 0 0 0 640 469.3v-10.6A10.7 10.7 0 0 0 629.3 448m-85.3 0H352V304h192z"/></svg>