<svg height="512" width="512" xmlns="http://www.w3.org/2000/svg"><path d="M504.4 115.8a6 6 0 0 0-.3-.7 8.5 8.5 0 0 0-.5-1.2 6 6 0 0 0-.5-.7 9 9 0 0 0-.8-.9c-.2-.3-.5-.5-.7-.6a9 9 0 0 0-.9-.7L404.4 55.5a8 8 0 0 0-8 0L300.1 111a8 8 0 0 0-.9.7 8 8 0 0 0-.7.6 8 8 0 0 0-.8.9c-.1.3-.3.5-.5.7a10 10 0 0 0-.5 1.3c-.1.2-.2.4-.3.7a8 8 0 0 0-.3 2v105.3l-80.2 46.2v-206a7.8 7.8 0 0 0-.3-2.1c0-.2-.2-.4-.3-.6a8.3 8.3 0 0 0-.5-1.3c-.1-.2-.3-.4-.5-.7a9 9 0 0 0-.7-.9 10 10 0 0 0-.8-.6 10 10 0 0 0-.9-.7L115.6 1.1a8 8 0 0 0-8 0L11.3 56.5a6.5 6.5 0 0 0-.8.7 8 8 0 0 0-.8.6 8 8 0 0 0-.7.9c-.2.3-.4.5-.6.7a8 8 0 0 0-.5 1.3 7 7 0 0 0-.3.6 8.2 8.2 0 0 0-.3 2.1v329.7a8 8 0 0 0 4 7l192.5 110.8a9 9 0 0 0 1.4.6c.2 0 .4.2.6.2a7.9 7.9 0 0 0 4.1 0c.2 0 .4-.1.5-.2a8.6 8.6 0 0 0 1.4-.6L404.4 400.1a8 8 0 0 0 4-7V287.9l92.2-53.1a8 8 0 0 0 4-7V117.9a8.6 8.6 0 0 0-.2-2.1M111.6 17.3l80.2 46.1-80.2 46.2L31.4 63.4zm88.2 60v201.3l-46.5 26.8-33.7 19.4V123.5l46.6-26.8zm0 412.8L23.4 388.5V77.3l33.7 19.4 46.5 26.8v215.2a7 7 0 0 0 .1.9 8 8 0 0 0 .2 1.2 6 6 0 0 0 .3.9 6.4 6.4 0 0 0 .5 1 9 9 0 0 0 .6.7 8 8 0 0 0 .6.9c.3.2.5.4.8.6a9 9 0 0 0 .8.6l92.2 52.2zm8-106.2-80-45.3 84.1-48.4L304.1 237l80.2 46.2-58.8 33.5zm184.6 4.6L215.9 490.1v-92.3l130.7-74.6 45.8-26.1zm0-119.2L358.7 250l-46.6-26.8v-91.4l33.7 19.4 46.6 26.8zm8-105.3-80.2-46.1 80.2-46.2 80.2 46.2zm8 105.3V178L455 151.2l33.7-19.4v91.4z"/></svg>