<svg height="1000" width="968.8" xmlns="http://www.w3.org/2000/svg"><path d="M484.4 15.6C752 15.6 968.8 232.4 968.8 500S752 984.4 484.4 984.4 0 767.6 0 500 216.8 15.6 484.4 15.6zm276.1 760.6C834.4 702.3 875 604.3 875 500S834.4 297.7 760.5 223.8C686.7 150 588.7 109.4 484.4 109.4S282 150 208.2 223.8C134.4 297.7 93.8 395.7 93.8 500s40.6 202.3 114.4 276.2C282 850 380.1 890.6 484.4 890.6S686.7 850 760.5 776.2zM640.6 437.5c-34.5 0 -62.5 -27.9 -62.5 -62.5s28 -62.5 62.5 -62.5 62.5 27.9 62.5 62.5 -27.9 62.5 -62.5 62.5zm-312.5 0c-34.5 0 -62.5 -27.9 -62.5 -62.5s28 -62.5 62.5 -62.5 62.5 27.9 62.5 62.5 -27.9 62.5 -62.5 62.5zm379.7 125c16 0 28.3 13.7 26.4 29.3C719.5 707.4 619.1 796.9 497.7 796.9h-26.6c-121.5 0 -221.9 -89.5 -236.5 -205.1 -2 -15.6 10.3 -29.3 26.3 -29.3h446.9z"/></svg>