<svg height="1000" width="968.8" xmlns="http://www.w3.org/2000/svg"><path d="M484.4 15.6C216.8 15.6 0 232.4 0 500s216.8 484.4 484.4 484.4S968.8 767.6 968.8 500 752 15.6 484.4 15.6zm276.1 760.6C686.7 850 588.7 890.6 484.4 890.6S282 850 208.2 776.2 93.8 604.3 93.8 500 134.4 297.7 208.2 223.8 380.1 109.4 484.4 109.4 686.7 150 760.5 223.8 875 395.7 875 500 834.4 702.3 760.5 776.2zM640.6 296.9c-46.5 0 -102.9 57.2 -109.3 139.4 -1.4 16.8 21 23.3 29.1 8.8l18.5 -33.2c15 -26.7 37.5 -42.2 61.5 -42.2s46.5 15.5 61.6 42.2l18.5 33.2c8 14.5 30.5 7.8 29.1 -8.8 -6 -82.2 -62.5 -139.4 -109 -139.4zM248 445.1l18.6 -33.2c15 -26.7 37.5 -42.2 61.5 -42.2s46.5 15.5 61.5 42.2l18.6 33.2c8 14.5 30.5 7.8 29.1 -8.8C430.9 354.1 374.4 296.9 327.9 296.9S225 354.1 218.6 436.3c-1.2 16.6 21.2 23.3 29.4 8.8zm459.8 117.4H260.9c-16 0 -28.3 13.7 -26.3 29.3 14.6 115.6 115 205.1 236.5 205.1h26.6c121.4 0 221.8 -89.5 236.5 -205.1 1.9 -15.6 -10.4 -29.3 -26.4 -29.3z"/></svg>