<svg height="1000" width="968.8" xmlns="http://www.w3.org/2000/svg"><path d="M484.4 15.6C216.8 15.6 0 232.4 0 500s216.8 484.4 484.4 484.4S968.8 767.6 968.8 500 752 15.6 484.4 15.6zm276.1 760.6C686.7 850 588.7 890.6 484.4 890.6S282 850 208.2 776.2 93.8 604.3 93.8 500 134.4 297.7 208.2 223.8 380.1 109.4 484.4 109.4 686.7 150 760.5 223.8 875 395.7 875 500 834.4 702.3 760.5 776.2zM671.1 382.8l65.6 -78.7c16.8 -20.1 -7.4 -48.4 -30.1 -35.2l-156.2 93.8c-15.2 9.2 -15.2 31.1 0 40.2l156.2 93.8c22.5 13.3 46.9 -14.9 30.1 -35.2l-65.6 -78.7zm-409 113.9l156.3 -93.8c15.2 -9.1 15.2 -31 0 -40.2L262.1 268.9C239.5 255.5 215.2 284 232 304.1l65.7 78.7L232 461.5c-17 20.3 7.5 48.5 30.1 35.2zm445.7 65.8H260.9c-16 0 -28.3 13.7 -26.3 29.3 14.6 115.6 115 205.1 236.5 205.1h26.6c121.4 0 221.8 -89.5 236.5 -205.1 1.9 -15.6 -10.4 -29.3 -26.4 -29.3z"/></svg>