<svg height="1000" width="968.8" xmlns="http://www.w3.org/2000/svg"><path d="M484.4 15.6C216.8 15.6 0 232.4 0 500s216.8 484.4 484.4 484.4S968.8 767.6 968.8 500 752 15.6 484.4 15.6zm276.1 760.6C686.7 850 588.7 890.6 484.4 890.6S282 850 208.2 776.2C134.4 702.3 93.8 604.3 93.8 500S134.4 297.7 208.2 223.8C282 150 380.1 109.4 484.4 109.4S686.7 150 760.5 223.8C834.4 297.7 875 395.7 875 500S834.4 702.3 760.5 776.2zM640.6 320.3c-50.2 0 -109.2 33 -117 82.2 -3.3 21.9 22.5 35.6 38.7 21.1L580.9 407c28.9 -25.7 90.2 -25.7 119.1 0l18.6 16.6c16.6 14.5 42.1 .6 38.6 -21.1 -7.4 -49.2 -66.4 -82.2 -116.6 -82.2zM328.1 437.5c34.6 0 62.5 -27.9 62.5 -62.5s-27.9 -62.5 -62.5 -62.5 -62.5 27.9 -62.5 62.5 28 62.5 62.5 62.5zm379.7 125H260.9c-16 0 -28.3 13.7 -26.3 29.3 14.6 115.6 115 205.1 236.5 205.1h26.6c121.4 0 221.8 -89.5 236.5 -205.1 1.9 -15.6 -10.4 -29.3 -26.4 -29.3z"/></svg>