<svg height="512" width="512" xmlns="http://www.w3.org/2000/svg"><path d="m12.4 148 232.9 105.7c6.9 3.1 14.5 3.1 21.3 0L499.6 148c16.5-7.5 16.5-32.5 0-40L266.6 2.3a25.6 25.6 0 0 0-21.2 0L12.4 108c-16.5 7.5-16.5 32.5 0 40m487.2 88.3L441.5 210l-161.6 73.2c-7.6 3.5-15.6 5.2-23.9 5.2s-16.3-1.7-23.9-5.2L70.5 210l-58.1 26.3c-16.5 7.5-16.5 32.5 0 40l232.9 105.6c6.9 3.1 14.5 3.1 21.3 0l233-105.6c16.5-7.5 16.5-32.5 0-40m0 127.8-57.9-26.2-161.8 73.3c-7.6 3.5-15.6 5.2-23.9 5.2s-16.3-1.7-23.9-5.2L70.3 337.9l-57.9 26.2c-16.5 7.5-16.5 32.5 0 40l232.9 105.6c6.9 3.1 14.5 3.1 21.3 0l233-105.6c16.5-7.5 16.5-32.5 0-40"/></svg>