<svg height="512" width="576" xmlns="http://www.w3.org/2000/svg"><path d="m386.5 111.5 15.1 248.9-10.9-.2c-36.3-.9-71.7 8.7-102.7 28-31-19.3-66.4-28-102.7-28-45.5 0-82 10.7-123.5 27.7L93.1 129.6c28.6-11.8 61.5-18.1 92.2-18.1 41.2 0 73.9 13.2 102.7 42.5 27.7-28.2 59-41.7 98.5-42.5M569.1 448c-25.6 0-47.5-5.2-70.6-15.6-34.3-15.7-70-25-107.8-25-39 0-75 12.9-102.7 40.6C260.3 420.3 224.3 407.4 185.3 407.4c-37.8 0-73.5 9.3-107.8 25C55.2 442.2 32.7 448 8.3 448H6.9L49.5 98.9C88.7 76.6 136.5 64 181.8 64c37 0 75.2 7.7 106.2 29.1C319 71.7 357.2 64 394.2 64c45.3 0 93.1 12.6 132.3 34.9zm-43.4-44.7L491.7 123c-30.8-14-67.3-21.4-101-21.4-38.5 0-74.4 12.1-102.7 38.7C259.7 113.7 223.8 101.6 185.3 101.6c-33.7 0-70.2 7.4-101 21.4l-34 280.3c47.2-19.5 82.9-33.5 135-33.5 37.6 0 70.9 9.6 102.7 29.6 31.8-20 65.1-29.6 102.7-29.6 52.1 0 87.8 14 135 33.5"/></svg>