<svg height="1000" width="1000" xmlns="http://www.w3.org/2000/svg"><path d="M945.5 54.5c55 54.9 70.2 132.8 37.2 189.5 -45.1 77.3 97.9 319.1 -160.8 577.9C563.5 1080.3 321 937.8 244 982.7c-56.7 33 -134.6 17.8 -189.5 -37.2C-.5 890.6 -15.7 812.7 17.3 756c45 -77.3 -97.9 -319.1 160.8 -577.9C436.5 -80.3 678.9 62.2 756 17.3c56.7 -33 134.6 -17.8 189.5 37.2zm-43.7 142.3C928.2 151.5 847.6 72.4 803.2 98.2 673.1 174 479.6 9.2 244.4 244.4 9.2 479.7 174 673.1 98.2 803.2c-26.4 45.4 54.4 124.4 98.6 98.6 130.1 -75.8 323.6 89 558.8 -146.2C990.8 520.3 826 326.9 901.8 196.8zM570 213.9c2.7 21.4 -12.5 40.9 -33.9 43.6C429 270.9 270.9 429 257.5 536.1c-2.7 21.5 -22.3 36.6 -43.6 33.9C192.5 567.3 177.3 547.8 180 526.4 197.9 383.3 383.4 197.9 526.4 180c21.4 -2.7 40.9 12.5 43.6 33.9z"/></svg>