<svg height="512" width="512" xmlns="http://www.w3.org/2000/svg"><path d="M484.1 27.9c-28.1-28.1-68-36-97-19C347.6 31.8 223.5-41.1 91.2 91.2-41.3 223.7 31.9 347.5 8.9 387.1c-17 29-9.1 68.9 19 97s68 35.9 97 19c39.5-22.9 163.6 50 295.9-82.3C553.3 288.3 480.1 164.5 503.1 124.9c17-29 9.1-68.9-19-97m-22.4 72.9c-38.8 66.6 45.6 165.6-74.8 286.1-120.5 120.4-219.5 36-286.1 74.8-22.7 13.2-64-27.2-50.5-50.5C89.1 344.6 4.7 245.6 125.1 125.1 245.6 4.7 344.6 89.1 411.2 50.3c22.7-13.2 64 27.3 50.5 50.5m-169.9 8.7c1.4 11-6.4 21-17.3 22.3-54.9 6.9-135.8 87.8-142.7 142.7-1.3 11-11.4 18.7-22.3 17.3C98.6 290.5 90.8 280.5 92.2 269.5 101.3 196.2 196.3 101.3 269.5 92.2c11-1.4 21 6.4 22.3 17.3"/></svg>