<svg height="1000" width="1000" xmlns="http://www.w3.org/2000/svg"><path d="M945.5 54.5C890.6 -.5 812.7 -15.7 756 17.3 678.9 62.2 436.5 -80.3 178.1 178.1 -80.6 436.9 62.3 678.7 17.3 756c-33 56.7 -17.8 134.6 37.2 189.5 54.9 55 132.8 70.2 189.5 37.2 77 -44.9 319.5 97.6 577.9 -160.8C1080.6 563.1 937.6 321.3 982.7 244c33 -56.7 17.8 -134.6 -37.2 -189.5zm-43.7 142.3c-75.8 130.1 89 323.5 -146.2 558.8C520.4 990.8 326.9 826 196.8 901.8c-44.2 25.8 -125 -53.2 -98.6 -98.6C174 673.1 9.2 479.7 244.4 244.4 479.6 9.2 673.1 174 803.2 98.2c44.4 -25.8 125 53.3 98.6 98.6zM570 213.9c2.7 21.4 -12.5 40.9 -33.9 43.6C429 270.9 270.9 429 257.5 536.1c-2.7 21.5 -22.3 36.6 -43.6 33.9C192.5 567.3 177.3 547.8 180 526.4 197.9 383.3 383.4 197.9 526.4 180c21.4 -2.7 40.9 12.5 43.6 33.9z"/></svg>