<svg height="512" width="512" xmlns="http://www.w3.org/2000/svg"><path d="M256 504c137 0 248-111 248-248S393 8 256 8 8 119 8 256s111 248 248 248M152.6 427.3 206 373.9c31.8 13.5 68.1 13.5 100 0l53.4 53.4c-63.2 38.3-143.6 38.3-206.8 0M336 256c0 44.1-35.9 80-80 80s-80-35.9-80-80 35.9-80 80-80 80 35.9 80 80m91.3 103.4L373.9 306c13.5-31.8 13.5-68.1 0-100l53.4-53.4c38.3 63.2 38.3 143.6 0 206.8M359.4 84.7 306 138.1c-31.8-13.5-68.1-13.5-100 0L152.6 84.7c63.2-38.3 143.6-38.3 206.8 0M84.7 152.6l53.4 53.4c-13.5 31.8-13.5 68.1 0 100l-53.4 53.4C46.4 296.2 46.4 215.8 84.7 152.6"/></svg>