<svg height="1000" width="1000" xmlns="http://www.w3.org/2000/svg"><path d="M500 984.4C232.5 984.4 15.6 767.5 15.6 500S232.5 15.6 500 15.6 984.4 232.5 984.4 500 767.5 984.4 500 984.4zM298.1 834.5c123.4 74.9 280.4 74.9 403.9 0L597.6 730.2c-62.2 26.4 -133.1 26.4 -195.2 0zM656.3 500C656.3 413.8 586.2 343.8 500 343.8S343.8 413.8 343.8 500s70 156.3 156.2 156.3S656.3 586.2 656.3 500zm178.2 201.9c74.9 -123.4 74.9 -280.4 0 -403.9L730.2 402.4c26.4 62.2 26.4 133.1 0 195.2zM701.9 165.5C578.5 90.6 421.5 90.6 298 165.5l104.4 104.3c62.2 -26.4 133.1 -26.4 195.2 0zM165.5 298.1c-74.9 123.4 -74.9 280.4 0 403.9L269.8 597.6c-26.4 -62.2 -26.4 -133.1 0 -195.2z"/></svg>