<svg height="512" width="512" xmlns="http://www.w3.org/2000/svg"><path d="M256 8C119 8 8 119 8 256s111 248 248 248S504 393 504 256 393 8 256 8m173.7 119.6L366.3 191c-11-18.6-26.7-34.3-45.3-45.3l63.4-63.4a218.4 218.4 0 0 1 45.3 45.3M256 352c-53 0-96-43-96-96s43-96 96-96 96 43 96 96-43 96-96 96M127.6 82.3l63.4 63.4c-18.6 11-34.3 26.7-45.3 45.3L82.3 127.6a218.4 218.4 0 0 1 45.3-45.3M82.3 384.4 145.7 321c11 18.6 26.7 34.3 45.3 45.3l-63.4 63.4A218.4 218.4 0 0 1 82.3 384.4m302.1 45.3L321 366.3c18.6-11 34.3-26.7 45.3-45.3l63.4 63.4a218.4 218.4 0 0 1-45.3 45.3"/></svg>