<svg height="1000" width="1000" xmlns="http://www.w3.org/2000/svg"><path d="M500 984.4c267.5 0 484.4 -216.9 484.4 -484.4S767.5 15.6 500 15.6 15.6 232.5 15.6 500 232.5 984.4 500 984.4zM298.1 834.5L402.4 730.2c62.1 26.4 133 26.4 195.2 0l104.3 104.3c-123.4 74.9 -280.4 74.9 -403.8 0zM656.3 500c0 86.2 -70.1 156.3 -156.3 156.3S343.8 586.2 343.8 500 413.8 343.8 500 343.8s156.3 70 156.3 156.2zm178.2 201.9L730.2 597.6c26.4 -62.1 26.4 -133 0 -195.2L834.5 298.1c74.9 123.4 74.9 280.4 0 403.8zM701.9 165.5L597.6 269.8c-62.1 -26.4 -133 -26.4 -195.2 0L298.1 165.5c123.4 -74.9 280.4 -74.9 403.8 0zM165.5 298.1l104.3 104.3c-26.4 62.1 -26.4 133 0 195.2L165.5 701.9C90.6 578.5 90.6 421.5 165.5 298.1z"/></svg>