<svg height="1000" width="687.5" xmlns="http://www.w3.org/2000/svg"><path d="M343.8 156.3c17.2 0 31.2 13.9 31.2 31.2s-14 31.3 -31.2 31.3c-69 0 -125 56 -125 125 0 17.2 -14 31.2 -31.3 31.2s-31.2 -14 -31.2 -31.2c0 -103.4 84.1 -187.5 187.5 -187.5zM187.6 896.8l-.1 -84.3H500l-.1 84.3c-.1 6.1 -1.9 12.2 -5.3 17.3L446.8 986c-5.8 8.7 -15.6 14 -26.1 14h-154c-10.4 0 -20.2 -5.3 -26 -14l-47.8 -71.9c-3.5 -5.1 -5.3 -11.1 -5.3 -17.3zM343.8 0c189.8 0 343.7 153.9 343.7 343.8 0 86.6 -32.1 165.7 -85.1 226.1C569.9 607 519 684.7 500.1 749.9v.1h-93.8v-.2c0 -9.7 1.6 -19.1 4.3 -27.9 11.1 -35.2 44.9 -126.7 121.3 -213.8 39.9 -45.5 61.9 -103.9 61.9 -164.4 0 -137.8 -112.2 -250 -250 -250 -133.4 0 -250.3 106.2 -250 250 .2 60.6 21.7 118.6 61.8 164.4 76.8 87.7 110.5 179.4 121.4 214.2 2.8 8.9 4.2 18.1 4.2 27.5v.2h-93.7v-.1C168.6 684.7 117.6 607 85.1 569.9 32.1 509.5 0 430.4 0 343.8 0 162.1 144 0 343.8 0z"/></svg>