<svg height="512" width="352" xmlns="http://www.w3.org/2000/svg"><path d="M96.1 454.4c0 6.2 1.8 12.4 5.3 17.6l17.1 25.7a32 32 0 0 0 26.7 14.3h61.7a32 32 0 0 0 26.6-14.3L250.6 472a32 32 0 0 0 5.4-17.6V416H96zM0 176c0 44.4 16.4 84.9 43.6 115.8 16.5 18.8 42.3 58.2 52.2 91.4 0 .3 0 .5.1.8h160.2c.1-.3.1-.5.1-.8 9.9-33.2 35.7-72.6 52.2-91.4C335.6 260.9 352 220.4 352 176 352 78.6 272.9-.3 175.4 0 73.4.3 0 83 0 176M176 96c-44.1 0-80 35.9-80 80 0 8.8-7.2 16-16 16S64 184.8 64 176C64 114.2 114.2 64 176 64c8.8 0 16 7.2 16 16s-7.2 16-16 16"/></svg>