<svg height="1000" width="750" xmlns="http://www.w3.org/2000/svg"><path d="M531.3 835.9v54.7c0 20.4 -13.1 37.8 -31.3 44.2v18.3c0 25.9 -21 46.9 -46.9 46.9H296.9C271 1000 250 979 250 953.1v-18.3C231.8 928.4 218.8 911 218.8 890.6v-54.7c0 -12.9 10.4 -23.4 23.4 -23.4h265.6c13 0 23.5 10.5 23.5 23.4zM250 343.8c0 -69 56.1 -125 125 -125 17.3 0 31.3 -14 31.3 -31.3s-14 -31.2 -31.3 -31.2c-103.4 0 -187.5 84.1 -187.5 187.5 0 17.2 14 31.2 31.3 31.2S250 361 250 343.8zm125 -250c138.2 0 250 111.8 250 250 0 151.5 -73 118.1 -158.2 312.5H283.2C197.9 461.6 125 495.8 125 343.8c0 -138.2 111.8 -250 250 -250M375 0C185.2 0 31.3 153.9 31.3 343.8c0 198.6 100.9 178.7 176.7 376.3 7 18 24.4 29.9 43.7 29.9h246.6c19.3 0 36.7 -11.9 43.7 -29.9C617.8 522.5 718.8 542.4 718.8 343.8 718.8 153.9 564.8 0 375 0z"/></svg>