<svg height="512" width="352" xmlns="http://www.w3.org/2000/svg"><path d="M176 80c-52.9 0-96 43.1-96 96 0 8.8 7.2 16 16 16s16-7.2 16-16c0-35.3 28.7-64 64-64 8.8 0 16-7.2 16-16S184.8 80 176 80M96.1 459.2c0 3.1.9 6.2 2.6 8.8l24.6 36.9c2.9 4.4 7.9 7.1 13.3 7.1h78.8c5.4 0 10.4-2.7 13.3-7.1L253.3 468c1.7-2.6 2.6-5.7 2.6-8.8L256 416H96zM176 0C73.7 0 0 83 0 176c0 44.4 16.4 84.9 43.6 115.8 16.6 19 42.7 58.8 52.4 92.1v.1h48v-.1c0-4.8-.7-9.5-2.2-14.1C136.2 352 119 305 79.7 260.1 59.1 236.7 48.1 207 48.1 176 47.9 102.4 107.7 48 176 48c70.6 0 128 57.4 128 128 0 31-11.2 60.8-31.6 84.1-39.2 44.6-56.5 91.5-62.1 109.5a47.5 47.5 0 0 0-2.3 14.3v.1h48v-.1c9.7-33.3 35.8-73.1 52.5-92.1C335.6 260.9 352 220.4 352 176 352 78.8 273.2 0 176 0"/></svg>