<svg height="512" width="512" xmlns="http://www.w3.org/2000/svg"><path d="M326.6 185.4c59.8 59.8 58.9 155.7.4 214.6-.1.1-.3.2-.4.4l-67.2 67.2c-59.3 59.2-155.7 59.2-214.9 0-59.3-59.3-59.3-155.7 0-215l37.1-37.1c9.8-9.9 26.7-3.3 27.3 10.6.6 17.7 3.8 35.5 9.6 52.7 2 5.8.6 12.3-3.7 16.6l-13.1 13.1c-28.1 28-28.9 73.7-1.2 102 28 28.5 74.1 28.7 102.3.5L270 343.8C298.2 315.6 298.1 270 270 242c-3.7-3.7-7.4-6.6-10.3-8.6a16 16 0 0 1-6.9-12.6c-.4-10.6 3.3-21.5 11.7-29.8l21-21.1c5.5-5.5 14.2-6.2 20.6-1.7a152.5 152.5 0 0 1 20.5 17.2m140.9-141c-59.2-59.2-155.6-59.2-214.9 0l-67.2 67.2c-.1.2-.3.3-.4.4-58.5 58.9-59.4 154.8.4 214.6a152.5 152.5 0 0 0 20.5 17.2c6.4 4.5 15.1 3.8 20.6-1.7l21-21.1c8.4-8.3 12.1-19.2 11.7-29.8a16 16 0 0 0-6.9-12.6c-2.9-2-6.6-4.9-10.3-8.6-28.1-28-28.2-73.6 0-101.8L309.2 101c28.2-28.2 74.3-28.1 102.3.5 27.7 28.3 26.9 74-1.2 102l-13.1 13.1c-4.3 4.3-5.7 10.8-3.7 16.6 5.8 17.2 9 35 9.6 52.7.6 13.9 17.5 20.5 27.3 10.6l37.1-37.1c59.3-59.3 59.3-155.7 0-215"/></svg>