<svg height="512" width="384" xmlns="http://www.w3.org/2000/svg"><path d="M372 256h-48c-6.4 0-12 4.9-12 11.2C312 368 230.2 416 144 416V256.8l134.6-29.9a12 12 0 0 0 9.4-11.7v-41c0-7.7-7.1-13.4-14.6-11.7L144 191.2v-30.4l134.6-29.9a12 12 0 0 0 9.4-11.7v-41c0-7.7-7.1-13.4-14.6-11.7L144 95.2V44c0-6.6-5.4-12-12-12H76c-6.6 0-12 5.4-12 12v69L9.4 125.1A12 12 0 0 0 0 136.8v41c0 7.7 7.1 13.4 14.6 11.7L64 178.6V209L9.4 221.1A12 12 0 0 0 0 232.8v41c0 7.7 7.1 13.4 14.6 11.7L64 274.6V468c0 6.6 5.4 12 12 12h79.6C289.7 480 378.8 402.2 384 268.4c.3-6.8-5.2-12.4-12-12.4"/></svg>