<svg height="1000" width="1000" xmlns="http://www.w3.org/2000/svg"><path d="M906.3 62.5H93.8C42 62.5 0 104.5 0 156.3v687.5c0 51.7 42 93.7 93.8 93.7h812.5c51.7 0 93.7 -42 93.7 -93.7V156.3c0 -51.8 -42 -93.8 -93.7 -93.8zm-11.8 781.3h-789A11.7 -11.7 0 0 0 93.8 832V168a11.7 -11.7 0 0 0 11.7 -11.7h789a11.7 -11.7 0 0 0 11.8 11.7v664a11.7 -11.7 0 0 0 -11.8 11.8zm-82 -179.7v46.8c0 13 -10.5 23.5 -23.4 23.5H398.4c-12.9 0 -23.4 -10.5 -23.4 -23.5v-46.8c0 -13 10.5 -23.5 23.4 -23.5h390.7c12.9 0 23.4 10.5 23.4 23.5zm0 -187.5v46.8c0 13 -10.5 23.5 -23.4 23.5H398.4c-12.9 0 -23.4 -10.5 -23.4 -23.5v-46.8c0 -13 10.5 -23.5 23.4 -23.5h390.7c12.9 0 23.4 10.5 23.4 23.5zm0 -187.5v46.8c0 13 -10.5 23.5 -23.4 23.5H398.4c-12.9 0 -23.4 -10.5 -23.4 -23.5v-46.8c0 -13 10.5 -23.5 23.4 -23.5h390.7c12.9 0 23.4 10.5 23.4 23.5zm-492.2 23.4c0 38.8 -31.5 70.3 -70.3 70.3s-70.3 -31.5 -70.3 -70.3 31.5 -70.3 70.3 -70.3 70.3 31.5 70.3 70.3zm0 187.5c0 38.8 -31.5 70.3 -70.3 70.3S179.7 538.8 179.7 500s31.5 -70.3 70.3 -70.3 70.3 31.5 70.3 70.3zm0 187.5c0 38.8 -31.5 70.3 -70.3 70.3s-70.3 -31.5 -70.3 -70.3 31.5 -70.3 70.3 -70.3 70.3 31.5 70.3 70.3z"/></svg>