<svg height="1000" width="1000" xmlns="http://www.w3.org/2000/svg"><path d="M906.3 62.5c51.7 0 93.7 42 93.7 93.8v687.5c0 51.7 -42 93.7 -93.7 93.7H93.8C42 937.5 0 895.5 0 843.8V156.3C0 104.5 42 62.5 93.8 62.5h812.5zm-11.8 781.3c6.5 0 11.8 -5.3 11.8 -11.8V168c0 -6.5 -5.3 -11.7 -11.8 -11.7h-789c-6.5 0 -11.7 5.2 -11.7 11.7v664c0 6.5 5.2 11.8 11.7 11.8h789zm-82 -179.7v46.8c0 13 -10.5 23.5 -23.4 23.5H398.4c-12.9 0 -23.4 -10.5 -23.4 -23.5v-46.8c0 -13 10.5 -23.5 23.4 -23.5h390.7c12.9 0 23.4 10.5 23.4 23.5zm0 -187.5v46.8c0 13 -10.5 23.5 -23.4 23.5H398.4c-12.9 0 -23.4 -10.5 -23.4 -23.5v-46.8c0 -13 10.5 -23.5 23.4 -23.5h390.7c12.9 0 23.4 10.5 23.4 23.5zm0 -187.5v46.8c0 13 -10.5 23.5 -23.4 23.5H398.4c-12.9 0 -23.4 -10.5 -23.4 -23.5v-46.8c0 -13 10.5 -23.5 23.4 -23.5h390.7c12.9 0 23.4 10.5 23.4 23.5zm-492.2 23.4c0 38.8 -31.5 70.3 -70.3 70.3s-70.3 -31.5 -70.3 -70.3 31.5 -70.3 70.3 -70.3 70.3 31.5 70.3 70.3zm0 187.5c0 38.8 -31.5 70.3 -70.3 70.3S179.7 538.8 179.7 500s31.5 -70.3 70.3 -70.3 70.3 31.5 70.3 70.3zm0 187.5c0 38.8 -31.5 70.3 -70.3 70.3s-70.3 -31.5 -70.3 -70.3 31.5 -70.3 70.3 -70.3 70.3 31.5 70.3 70.3z"/></svg>