<svg height="512" width="512" xmlns="http://www.w3.org/2000/svg"><path d="m61.8 401 17.5-20.1a19.9 19.9 0 0 0 5-14.2v-3.3C84.3 356 80.5 352 73 352H16a8 8 0 0 0-8 8v16a8 8 0 0 0 8 8h22.8a157 157 0 0 0-11 12.3l-5.6 7c-4 5.1-5.2 10.1-2.8 14.9l1.1 1.9c3 5.8 6.3 7.9 12.2 7.9h4.8c10.3 0 15.9 2.4 15.9 9.1 0 4.7-4.2 8.2-14.4 8.2a41.5 41.5 0 0 1-15.4-3.1C17.1 438.3 11.8 438.7 8 445.3l-5.6 9.3c-3.7 6.2-3.2 11.7 2.6 16 7.7 4.7 20.4 9.4 37 9.4 34.2 0 48.5-22.7 48.5-44.1 0-14.4-9.1-29.8-28.7-34.9M496 224H176a16 16 0 0 0-16 16v32a16 16 0 0 0 16 16h320a16 16 0 0 0 16-16v-32a16 16 0 0 0-16-16m0-160H176a16 16 0 0 0-16 16v32a16 16 0 0 0 16 16h320a16 16 0 0 0 16-16V80A16 16 0 0 0 496 64m0 320H176a16 16 0 0 0-16 16v32a16 16 0 0 0 16 16h320a16 16 0 0 0 16-16v-32a16 16 0 0 0-16-16M16 160h64a8 8 0 0 0 8-8v-16a8 8 0 0 0-8-8H64V40a8 8 0 0 0-8-8H32a8 8 0 0 0-7.1 4.4l-8 16A8 8 0 0 0 24 64h8v64H16a8 8 0 0 0-8 8v16a8 8 0 0 0 8 8m-3.9 160H80a8 8 0 0 0 8-8v-16a8 8 0 0 0-8-8H41.3c3.3-10.3 48.4-18.7 48.4-56.4C89.7 202.5 64.7 192 45.2 192c-21.4 0-33.8 10-40.5 18.8-4.3 5.5-3 10.8 2.8 15.3l8.6 6.9c5.6 4.6 11 2.5 16.1-2.4a13.4 13.4 0 0 1 9.5-3.9c3.3 0 9.3 1.6 9.3 8.8 0 12.7-51 21.8-51 69.1v4C0 316 5.1 320 12.1 320"/></svg>