<svg height="512" width="512" xmlns="http://www.w3.org/2000/svg"><path d="M464 480H48C21.5 480 0 458.5 0 432V80C0 53.5 21.5 32 48 32h416c26.5 0 48 21.5 48 48v352c0 26.5-21.5 48-48 48M128 120c-22.1 0-40 17.9-40 40s17.9 40 40 40 40-17.9 40-40-17.9-40-40-40m0 96c-22.1 0-40 17.9-40 40s17.9 40 40 40 40-17.9 40-40-17.9-40-40-40m0 96c-22.1 0-40 17.9-40 40s17.9 40 40 40 40-17.9 40-40-17.9-40-40-40M416 176v-32c0-6.6-5.4-12-12-12H204c-6.6 0-12 5.4-12 12v32c0 6.6 5.4 12 12 12h200c6.6 0 12-5.4 12-12m0 96v-32c0-6.6-5.4-12-12-12H204c-6.6 0-12 5.4-12 12v32c0 6.6 5.4 12 12 12h200c6.6 0 12-5.4 12-12m0 96v-32c0-6.6-5.4-12-12-12H204c-6.6 0-12 5.4-12 12v32c0 6.6 5.4 12 12 12h200c6.6 0 12-5.4 12-12"/></svg>