<svg height="512" width="512" xmlns="http://www.w3.org/2000/svg"><path d="M80 368H16A16 16 0 0 0 0 384v64a16 16 0 0 0 16 16h64a16 16 0 0 0 16-16v-64A16 16 0 0 0 80 368M80 48H16A16 16 0 0 0 0 64v64a16 16 0 0 0 16 16h64a16 16 0 0 0 16-16V64A16 16 0 0 0 80 48m0 160H16A16 16 0 0 0 0 224v64a16 16 0 0 0 16 16h64a16 16 0 0 0 16-16v-64A16 16 0 0 0 80 208m416 176H176a16 16 0 0 0-16 16v32a16 16 0 0 0 16 16h320a16 16 0 0 0 16-16v-32a16 16 0 0 0-16-16m0-320H176a16 16 0 0 0-16 16v32a16 16 0 0 0 16 16h320a16 16 0 0 0 16-16V80A16 16 0 0 0 496 64m0 160H176a16 16 0 0 0-16 16v32a16 16 0 0 0 16 16h320a16 16 0 0 0 16-16v-32a16 16 0 0 0-16-16"/></svg>