<svg height="512" width="576" xmlns="http://www.w3.org/2000/svg"><path d="M569.3 231.6C513 135.9 407.8 72 288 72c-28.5 0-56.1 3.6-82.5 10.4L152.8 10.2C145.2-.6 130.2-3.3 119.4 4.3l-13.2 9.2c-10.8 7.6-13.5 22.6-5.9 33.4l43.2 58.4C89.4 131.7 40.2 174.7 6.7 231.6c0 0 0 0-.1 0-8.7 14.9-8.9 33.6 0 48.8 38.5 65.3 99.8 115.8 172.9 141.3L55.3 244.3a272 272 0 0 1 28.3-35.9L203 379l40.6 58a330 330 0 0 0 79 1.2l-190-271.4a277.6 277.6 0 0 1 38.8-21.6l251.8 356.6c7.6 10.8 22.6 13.5 33.4 5.9l13.2-9.2c10.8-7.6 13.5-22.6 5.9-33.4l-43.2-58.4c57.2-28 104.9-72.1 136.8-126.3a47.9 47.9 0 0 0 0-48.8M390 345.9l-19-27.2c24.6-32.6 27.7-76.3 8.8-111.7v.1c0 23.6-19.2 42.8-42.9 42.8-23.8 0-42.8-19.4-42.8-42.8 0-23.7 19.2-42.9 42.8-42.9h.1C312.2 151 283.4 148.6 257.5 156.6l-19.1-27.3c15.4-6 32.1-9.3 49.6-9.3 75.2 0 136 60.8 136 136 0 34.5-12.8 66-34 89.9"/></svg>