<svg height="512" width="640" xmlns="http://www.w3.org/2000/svg"><path d="M636.1 390.1c-21.7-81.2-56-159.1-102-231C512 124.6 498 96 454.1 96 415.4 96 384 125.4 384 161.7v60.1l-32.9-21.9A16 16 0 0 1 344 186.6V16C344 7.2 336.8 0 328 0h-16c-8.8 0-16 7.2-16 16v170.6c0 5.3-2.7 10.3-7.1 13.3L256 221.8v-60.1C256 125.4 224.6 96 185.9 96c-43.9 0-57.9 28.6-80 63.1-46 71.9-80.3 149.8-102 231C1.3 399.8 0 409.8 0 419.8c0 61.2 62.5 105.4 125.2 88.6l59.5-16C226.9 481.1 256 445 256 403.8v-87.5l-85.8 57.3a8 8 0 0 1-11.1-2.3L150.2 358a8 8 0 0 1 2.2-11.1L320 235.2l167.6 111.7a8 8 0 0 1 2.2 11.1l-8.9 13.3a8 8 0 0 1-11.1 2.3L384 316.3v87.5c0 41.2 29.1 77.3 71.3 88.6l59.5 16C577.5 525.2 640 481 640 419.8c0-10-1.3-20-3.9-29.7"/></svg>