<svg height="512" width="640" xmlns="http://www.w3.org/2000/svg"><path d="M344 150.7V16A16 16 0 0 0 328 0h-16a16 16 0 0 0-16 16v134.7a46.5 46.5 0 0 1 48 0M195.5 444.5a48.1 48.1 0 0 1 0-67.9l8.6-8.6H192a48 48 0 0 1 0-96h12.1l-8.6-8.6a48 48 0 0 1 60.5-74v-27.6C256 125.4 224.6 96 186 96c-44 0-58 28.5-80.1 63.1a819.5 819.5 0 0 0-102 231A113.2 113.2 0 0 0 0 419.8c0 61.2 62.5 105.5 125.3 88.6l59.5-15.9a98.5 98.5 0 0 0 52.5-34.7 46.5 46.5 0 0 1-41.8-13.3m226.3-22.7a16 16 0 0 0 0-22.6l-8.5-8.6C393.1 370.5 407.4 336 435.9 336H448a16 16 0 0 0 0-32h-12.1c-28.5 0-42.8-34.5-22.6-54.6l8.5-8.6a16 16 0 0 0-22.6-22.6l-8.6 8.6C370.5 246.9 336 232.6 336 204.1V192a16 16 0 0 0-32 0v12.1c0 28.5-34.5 42.8-54.6 22.7l-8.6-8.6a16 16 0 0 0-22.6 22.6l8.6 8.6c20.1 20.1 5.8 54.6-22.7 54.6H192a16 16 0 0 0 0 32h12.1c28.5 0 42.8 34.5 22.7 54.6l-8.6 8.6a16 16 0 1 0 22.6 22.6l8.6-8.5c20.1-20.2 54.6-5.9 54.6 22.6V448a16 16 0 0 0 32 0v-12.1c0-28.5 34.5-42.8 54.6-22.6l8.6 8.5a16 16 0 0 0 22.6 0M288 304a16 16 0 1 1 16-16 16 16 0 0 1-16 16m64 64a16 16 0 1 1 16-16 16 16 0 0 1-16 16m284.1 22.1a819.5 819.5 0 0 0-102-231C512 124.5 498 96 454 96c-38.6 0-70 29.4-70 65.8v27.7a48 48 0 0 1 60.5 74l-8.6 8.5H448a48 48 0 0 1 0 96h-12.1l8.6 8.6a47.7 47.7 0 0 1-41.7 81.2 98.5 98.5 0 0 0 52.5 34.7l59.5 15.9C577.5 525.3 640 481 640 419.8a113.2 113.2 0 0 0-3.9-29.7"/></svg>