<svg height="512" width="512" xmlns="http://www.w3.org/2000/svg"><path d="m224 96 16-32 32-16L240 32 224 0l-16 32-32 16 32 16zM80 160l26.7-53.3L160 80 106.7 53.3 80 0 53.3 53.3 0 80l53.3 26.7zm352 128-26.7 53.3L352 368l53.3 26.7L432 448l26.7-53.3L512 368l-53.3-26.7zM502.6 94.2 417.8 9.4C411.5 3.1 403.3 0 395.1 0 387 0 378.8 3.1 372.5 9.4L9.4 372.5c-12.5 12.5-12.5 32.8 0 45.3l84.8 84.8c6.3 6.3 14.5 9.4 22.6 9.4 8.2 0 16.4-3.1 22.7-9.4L502.6 139.5c12.5-12.5 12.5-32.8 0-45.3M359.4 203.5l-50.9-50.9L395.1 66l50.9 50.9z"/></svg>