<svg height="512" width="512" xmlns="http://www.w3.org/2000/svg"><path d="M164.1 148.1H12a12 12 0 0 1-12-12v-80a36 36 0 0 1 36-36h104a36 36 0 0 1 36 36v80a11.9 11.9 0 0 1-11.9 12m347.9-12V56A36 36 0 0 0 476 20H372a36 36 0 0 0-36 36v80a12 12 0 0 0 12 12h152a11.9 11.9 0 0 0 12-11.9m-164 44a12 12 0 0 0-12 12v52c0 128.1-160 127.9-160 0v-52a12 12 0 0 0-12-12H12.1a12 12 0 0 0-12 12.1c.1 21.4.6 40.3 0 53.3 0 150.6 136.2 246.6 256.8 246.6s255-96 255-246.7c-.6-12.8-.2-33 0-53.2a12 12 0 0 0-12-12.1z"/></svg>