<svg height="1000" width="1000" xmlns="http://www.w3.org/2000/svg"><path d="M906.3 125H93.8C42 125 0 167 0 218.8v562.5C0 833 42 875 93.8 875h812.5c51.7 0 93.7 -42 93.7 -93.7V218.8C1000 167 958 125 906.3 125zm0 93.8v79.6c-43.8 35.7 -113.7 91.2 -262.9 208 -32.9 25.9 -98.1 88.1 -143.4 87.3 -45.3 .8 -110.5 -61.4 -143.4 -87.3C207.4 389.6 137.5 334.1 93.8 298.4v-79.6h812.5zM93.8 781.3V418.7c44.7 35.7 108.2 85.7 204.9 161.5 42.7 33.6 117.5 107.7 201.3 107.3 83.4 .4 157.2 -72.7 201.3 -107.3C798 504.4 861.5 454.4 906.3 418.7v362.6H93.8z"/></svg>