<svg height="512" width="576" xmlns="http://www.w3.org/2000/svg"><path d="M160 448c-25.6 0-51.2-22.4-64-32C32 371.2 12.8 355.2 0 345.6V480c0 17.7 14.3 32 32 32h256c17.7 0 32-14.3 32-32V345.6c-12.8 9.6-32 25.6-96 70.4-12.8 9.6-38.4 32-64 32M288 256H32C14.3 256 0 270.3 0 288v16c25.6 19.2 22.4 19.2 115.2 86.4 9.6 6.4 28.8 25.6 44.8 25.6s35.2-19.2 44.8-22.4c92.8-67.2 89.6-67.2 115.2-86.4V288c0-17.7-14.3-32-32-32m256-96H224c-17.7 0-32 14.3-32 32v32h96c33.2 0 60.6 25.4 63.7 57.8l.3-.2V416h192c17.7 0 32-14.3 32-32V192c0-17.7-14.3-32-32-32m-32 128h-64v-64h64zM160 192c0-35.3 28.7-64 64-64h224V32C448 14.3 433.7 0 416 0H96C78.3 0 64 14.3 64 32v192h96z"/></svg>