<svg height="512" width="448" xmlns="http://www.w3.org/2000/svg"><path d="M232.3 511.9c-1-3.3-1.7-15.8-1.4-24.6.5-15.9 1-24.7 1.4-28.7.6-6.2 2.9-20.8 3.3-21.4.6-1 .4-27.9-.3-33.2-.3-2.5-.6-11.9-.7-20.7-.1-16.5-.5-20.1-2.7-24.7-1.1-2.4-1.2-3.9-1-11.5a92 92 0 0 0-.3-12.7c-2-13-3.5-27.7-3.3-33.9s.4-7.1 2.1-9.7c3-4.7 6.5-14 8.6-23.2 2.3-9.9 3.9-17.2 4.6-20.8a109.5 109.5 0 0 1 4.4-15c2.3-6.3 2.5-15.4.4-15.4-.3 0-1.4 1.2-2.4 2.7s-4.8 4.8-8.3 7.4c-8.4 6-11.7 9.4-12.7 12.5s-1 7.3-.1 7.8c.3.2 1.2 2.4 2.1 4.9a28.8 28.8 0 0 1 .7 15.3c-.4 1.8-1 5.5-1.5 8.3s-1 6.4-1.2 8.2a9.8 9.8 0 0 1-1.6 4.3c-1 1-1.1.9-2-.6a14.9 14.9 0 0 1-1.5-4.7c-.2-1.8-1.6-7.1-3-12-3.3-10.9-3.6-16.1-1-21a14.2 14.2 0 0 0 1.6-4.6c0-2.4-2.2-5.3-7.4-9.9-7-6.1-8.6-7.9-10.2-11.3-1.7-3.6-3.1-4-4.6-1.5-1.7 3-2.6 9.1-3 22l-.3 12.2 2 2.2c3.2 3.7 12.1 16.5 13.8 19.9 3.4 6.7 4.3 11.7 4.4 23.5s.9 22.8 2 24.7c.4.7.5 1.4.3 1.6s.4 2.1 1.3 4.2a38 38 0 0 1 2.1 9 91 91 0 0 0 1.7 10.4c2.2 9.6 2.8 14.1 2.4 20.1-.2 3.3-.5 11.1-.7 17.4-1.4 41.7-1.9 58-2 61.2-.2 2-.4 11.5-.6 21-.4 16.3-1.3 27.4-2.5 28.7-.6.7-8-4.9-12.5-9.5-3.7-3.9-4-4.8-2.8-9.9.7-3 2.2-18.3 3.3-32.7.4-4.7.8-10.5 1-12.7.8-9.3 1.7-20.3 2.6-34.8.6-8.4 1.4-16.4 1.7-17.7s.9-9.9 1.2-19.1l.4-16.8-2.3-4.3c-1.7-3.2-4.8-6.9-13.2-15.3-6-6.1-11.8-12.3-12.9-13.9l-1.9-2.8.7-10.9c1.1-15.7 1.1-48.5 0-59l-.9-8.7-3.3-4.5c-5.8-8.1-5.8-7.8-6.2-33.3-.1-6.1-.4-11.5-.6-12.1-.8-1.9-3.1-2.6-8.5-3-8.9-.7-11-1.9-23.9-14.6-6.1-6-12.3-12-13.7-13.2-2.9-2.4-2.8-2-.6-9.6l1.3-4.7-1.6-3a32 32 0 0 0-2.6-4c-1.4-1.5-5.5-10.9-6-13.5a4.2 4.2 0 0 1 .8-3.9c2.3-2.9 3.4-5.7 4.5-10.7 2.3-11.2 7.7-26.1 10.6-29.3 3.2-3.4 7.7-1 9.4 5 1.3 4.8 1.4 9.8.1 18.6a101 101 0 0 0-1 11.1c0 4 .2 4.7 2.2 7.4 3.4 4.4 7.8 7.4 15.2 10.5a18.7 18.7 0 0 1 4.8 2.9c11.1 10.7 18.6 16.1 22.9 16.8 5.2.8 8 4.5 10 13.4 1.3 5.6 4 11.1 5.5 11.1a9.4 9.4 0 0 0 3.3-1.4c2-1.2 2.3-1.7 2.3-4.1a133 133 0 0 0-2-17.9c-.4-1.6-.8-4-1-5.3s-.6-3.9-1-5.7c-2.5-11.2-3.6-15.5-4.1-16-1.5-2-4.1-10.2-4.9-15.9C189.9 92.2 187.5 89 178.6 85.9A43.1 43.1 0 0 1 165.2 78c-1.1-1-4-3.2-6.3-5.1s-4.4-3.5-4.6-3.7a23 23 0 0 0-2.7-2c-6.2-4.2-8.8-7-11.3-12l-2.4-5-.2-13-.2-13 6.9-6.6c3.9-3.7 8.5-7.3 10.6-8.4 3.3-1.7 4.4-1.9 11.3-2 8.6-.2 10.2 0 11.7 1.6s1.4 6.4-.3 8.5a6.7 6.7 0 0 0-1.3 2.3c0 .6-2.6 4.9-5.5 9a30.4 30.4 0 0 0-2.3 6.8c20.4 13.4 21.5 3.8 14 29l11.4 2.5c3.1-8.6 6.5-17.2 8.6-26.2.3-7.6-12-4.2-15.4-8.7-2.3-5.9 3.1-14.2 6.1-19.2 1.6-2.3 6.6-4.7 8.8-4.1.9.2 4.2-.4 7.4-1.3A45.3 45.3 0 0 1 217 5.7a29.6 29.6 0 0 0 6-1.3c3.7-1.1 4.5-1.1 6.4-.4a29.5 29.5 0 0 0 5.8 1.4 18.2 18.2 0 0 1 6 1.9 22.7 22.7 0 0 0 5 2.2c2.5.6 3 .5 7-1.7l4.4-2.4L268.3 5c10.5-.4 10.8-.5 15.3-2.7L288.2 0l2.4 1.4c1.8 1 3.2 2.8 4.9 6 2.3 4.5 2.4 4.6 1.3 7.4-.8 2.4-.8 3.3-.1 6.4a36 36 0 0 0 2.1 5.9 13.6 13.6 0 0 1 1.4 4c.3 4.3 0 5.3-2.5 6.9-2.1 1.5-7 7.9-7 9.4a14.8 14.8 0 0 1-1 3c-5 11.5-6.8 13.5-14.3 17-9.2 4.2-12.3 5.1-16.2 5.1-3.1 0-4 .3-4.5 1.3a18.3 18.3 0 0 1-4.1 3.7 13.6 13.6 0 0 0-4.4 4.8 5.9 5.9 0 0 1-2.5 2.9 6.9 6.9 0 0 0-2.4 1.7 68 68 0 0 1-7 5.4c-3.4 2.3-6.9 5-7.9 6A7.3 7.3 0 0 1 224 100a5.8 5.8 0 0 0-2.1 1.7c-1.3 1.3-1.5 2.1-1.2 4.6a36.5 36.5 0 0 0 1.5 5.8c1.3 3.8 1.3 7.9 0 10.6s-.9 6.6 1.3 9.6c2 2.6 2.2 4.5.7 8.8a33.5 33.5 0 0 0-1 8.9c0 4.9.2 6.3 1.4 8.4s1.8 2.5 3.3 2.3c2-.2 2.3-1 4.7-12.1 2.1-10 3.7-11.9 13.7-17.1 3-1.5 7.5-4 10-5.4s6.8-3.7 9.4-4.9a40.1 40.1 0 0 0 15.2-11.7c7.1-8.8 10-16.2 12.9-33.3a18.4 18.4 0 0 1 2.8-7.7 20.4 20.4 0 0 0 2.9-7.3c1-5.3 2.9-9.1 5.6-11.5 4.7-4.2 6-1.1 4.6 10.8-.5 3.9-1.1 10.4-1.5 14.4l-.6 7.4 4.5 4.1 4.4 4.1.1 8.4c.1 4.6.5 9.5 1 10.9l.8 2.4-6.4 6.3c-8.6 8.3-12.9 13.9-16.8 21.6-1.8 3.5-3.7 7.1-4.4 8-2.2 3.1-6.4 13-8.7 20.3l-2.3 7.2-7 6.5c-3.9 3.6-8 7.2-9.2 8.2-3.1 2.3-4.3 5.1-4.3 10a14.6 14.6 0 0 0 1.6 7.2 42 42 0 0 1 2.1 4.9 9.3 9.3 0 0 0 1.6 2.8c1.4 1.6 1.9 16.2.8 23.3-.7 4.4-3.6 12-4.7 12-1.8 0-4.1 9.2-5.1 20.7-.1 2-.6 5.9-1 8.7s-1 10-1.3 16.1c-.8 12.2-.2 18.7 2 23.1 3.4 6.7.5 12.7-11 22.8l-4 3.5.1 5.2a40.8 40.8 0 0 0 1.1 8.9c4.6 16 4.7 16.9 4.4 37.1-.5 26.4-.3 40.3.6 44.2a61 61 0 0 1 1.1 7c.2 2 .6 5.3 1.1 7.3.4 2.3.7 11 .8 22.8v19l-1.9 2.7c-2.7 3.9-15.1 13.5-15.4 12.3zm29.5-45.1c-.2-.3-.3-6.9-.3-14.6 0-14.1-.9-27.6-2.3-34.5-.4-2-.8-9.7-.9-17-.1-11.9-1.4-24.4-2.6-26.4-.7-1.1-3-17.7-3-21.3 0-4.2 1-6 5.3-9.1s4.8-3.2 5.4-.8c.3 1.2 1.5 5.7 2.6 10 4 15.2 4.2 16.3 4.1 21.8-.1 5.8-.1 6.1-1.8 17.7-1 7.1-1.1 12.4-1 28.5.2 19.3-.6 35.7-2 41.2-.7 2.8-2.8 5.5-3.4 4.5zm-71-37.6a101 101 0 0 1-1.7-10.8 101 101 0 0 0-1.8-10.8 37.5 37.5 0 0 1-1-6.5c-.3-3.2-.9-7.4-1.3-9.5-1-4.7-3.3-19.3-3.4-21 0-.8-.3-4.1-.7-7.4-.7-6.2-.8-27.7-.2-28.3 1-1 6.6 2.8 11.3 7.5l5.3 5.2-.5 6.5c-.2 3.5-.6 10.2-.7 14.8s-.5 9.9-.7 11.7-.6 9.4-1 16.7c-.7 17.4-1.9 31.3-2.6 32a.6.6 0 0 1-1-.1M103.6 162.6c21.1 12.8 17.9 14.2 28.5 17.7 13 4.3 18.9 7.1 23.2 16.8C111.6 233.3 86.3 255 78.5 268c-31 52-6 101.6 62.8 87.2-14.2 29.2-78 28.6-98.7-4.9C17.9 310.4 20.5 232 103.6 162.7zm210.8 179c56.7 6.9 82.3-37.7 46.5-89.2 0 0-26.8-29.4-64.2-68 3-15.5 9.5-32.1 30.5-53.8 89.2 63.5 92 141.6 92.5 149.3 4.3 70.7-78.7 91.2-105.3 61.7"/></svg>