<svg height="512" width="512" xmlns="http://www.w3.org/2000/svg"><path d="M507.3 84.7 464 41.4C458 35.4 449.9 32 441.4 32H288V16C288 7.2 280.8 0 272 0h-32c-8.8 0-16 7.2-16 16v16H56C42.8 32 32 42.8 32 56v80c0 13.3 10.8 24 24 24h385.4c8.5 0 16.6-3.4 22.6-9.4l43.3-43.3c6.3-6.2 6.3-16.4 0-22.6M224 496c0 8.8 7.2 16 16 16h32c8.8 0 16-7.2 16-16V384h-64zM456 224H288v-32h-64v32H70.6c-8.5 0-16.6 3.4-22.6 9.4L4.7 276.7c-6.3 6.2-6.3 16.4 0 22.6L48 342.6c6 6 14.1 9.4 22.6 9.4H456c13.3 0 24-10.7 24-24v-80c0-13.2-10.7-24-24-24"/></svg>