<svg height="1000" width="1125" xmlns="http://www.w3.org/2000/svg"><path d="M1093.8 62.5c-3.8 0 -7.8 .7 -11.7 2.3L750 187.5 414.1 68.9a125.5 -125.5 0 0 1 -39.6 -6.4c-13 0 -26.1 2.1 -38.7 6.1L39.3 171.8A62.5 -62.5 0 0 1 0 229.8v676.4c0 18 14.7 31.3 31.2 31.3 3.9 0 7.8 -.7 11.7 -2.3L375 812.5l335.9 118.6a125 -125 0 0 1 78.3 .3l296.5 -103.2a62.5 -62.5 0 0 1 39.3 -58V93.8c0 -18 -14.7 -31.3 -31.2 -31.3zM437.5 176.6l250 88.3v558.5l-250 -88.3V176.6zM93.8 816.5V252.1l250 -87v559l-1.3 .5L93.8 816.5zm937.5 -68.6l-250 87v-559l1.2 -.5 248.8 -91.9v564.4z"/></svg>