<svg height="1000" width="1125" xmlns="http://www.w3.org/2000/svg"><path d="M1093.8 62.5c16.5 0 31.2 13.3 31.2 31.3v676.4c0 26.3 -16.3 48.8 -39.3 58L789.2 931.4c-12.2 3.9 -25.2 6.1 -38.7 6.1 -13.8 0 -27.1 -2.3 -39.6 -6.4L375 812.5 42.9 935.2c-3.9 1.6 -7.8 2.3 -11.7 2.3C14.7 937.5 0 924.2 0 906.2V229.8c0 -26.3 16.3 -48.8 39.3 -58L335.8 68.6c12.6 -4 25.7 -6.1 38.7 -6.1 13.8 0 27.1 2.3 39.6 6.4L750 187.5 1082.1 64.8c3.9 -1.6 7.9 -2.3 11.7 -2.3zM437.5 176.6v558.5l250 88.3V264.9zM93.8 816.5l248.7 -91.9 1.2 -.5v-559l-250 87v564.4zm937.5 -68.6V183.5l-248.8 91.9 -1.2 .5v559z"/></svg>