<svg height="512" width="576" xmlns="http://www.w3.org/2000/svg"><path d="M288 0C218.4 0 162 56.4 162 126c0 56.3 82.3 158.8 113.9 196 6.4 7.6 17.8 7.6 24.2 0C331.6 284.8 414 182.3 414 126 414 56.4 357.6 0 288 0M20.1 215.9A32 32 0 0 0 0 245.7V496c0 11.3 11.4 19 21.9 14.8L160 448V214.9c-8.8-16-16.1-31.5-21.2-46.4zM288 359.7c-14.1 0-27.4-6.2-36.5-17C231.8 319.5 210.9 293.1 192 266v182l192 64V266c-18.9 27.1-39.8 53.5-59.5 76.7-9.1 10.8-22.4 17-36.5 17M554.1 161.2 416 224v288l139.9-55.9A32 32 0 0 0 576 426.3V176c0-11.3-11.4-19-21.9-14.8"/></svg>