<svg height="512" width="384" xmlns="http://www.w3.org/2000/svg"><path d="M372 64h-79c-10.7 0-16 12.9-8.5 20.5l16.9 16.9-17.5 17.5-14.1-14.1a12.01 12.01 0 0 0-17 0L224.5 133a12.01 12.01 0 0 0 0 17l14.1 14.1-18 18C198.4 168.1 172.1 160 143.9 160 64.5 160 0 224.5 0 304s64.5 144 144 144S288 383.5 288 304c0-28.2-8.1-54.5-22.1-76.7l18-18 14.1 14.1c4.7 4.7 12.3 4.7 17 0l28.3-28.3a12.01 12.01 0 0 0 0-17L329.2 164l17.5-17.5 16.9 16.9c7.6 7.6 20.5 2.2 20.5-8.5V76C384 69.4 378.6 64 372 64M144 384C99.9 384 64 348.1 64 304s35.9-80 80-80 80 35.9 80 80-35.9 80-80 80"/></svg>