<svg height="512" width="512" xmlns="http://www.w3.org/2000/svg"><path d="M340 0h-79c-10.7 0-16 12.9-8.5 20.5l16.9 16.9-48.7 48.7C198.5 72.1 172.2 64 144 64 64.5 64 0 128.5 0 208s64.5 144 144 144S288 287.5 288 208c0-28.2-8.1-54.5-22.1-76.7l48.7-48.7 16.9 16.9c2.4 2.4 5.5 3.5 8.4 3.5 6.2 0 12.1-4.8 12.1-12V12C352 5.4 346.6 0 340 0M144 288C99.9 288 64 252.1 64 208s35.9-80 80-80 80 35.9 80 80-35.9 80-80 80M500 159.9h-79c-10.7 0-16 12.9-8.5 20.5l16.9 16.9L380.7 246c-18.2-11.4-39-18.9-61.5-21.3C317.1 246.5 311 268 300.8 288c1.1 0 2.2-.1 3.2-.1 44.1 0 80 35.9 80 80s-35.9 80-80 80-80-35.9-80-80c0-1.1 0-2.2.1-3.2-20 10.2-41.5 16.4-63.3 18.4C168.4 455.6 229.6 512 304 512c79.5 0 144-64.5 144-144 0-28.2-8.1-54.5-22.1-76.7l48.7-48.7 16.9 16.9c2.4 2.4 5.4 3.5 8.4 3.5 6.2 0 12.1-4.8 12.1-12v-79c0-6.7-5.4-12.1-12-12.1"/></svg>