<svg height="512" width="640" xmlns="http://www.w3.org/2000/svg"><path d="M320.7 64C-121.9 64-36.9 448 162.2 448c39.9 0 77.5-20.7 101.4-55.9l25.8-37.8c15.6-22.9 46.9-22.9 62.6 0l25.7 37.8c24 35.2 61.5 55.9 101.4 55.9C669 448 769.8 64 320.7 64M184 308.4c-41.1 0-67.8-25.7-80.1-41.1-5.2-6.5-5.2-16.1 0-22.6 12.3-15.4 39-41.1 80.1-41.1s67.8 25.7 80.1 41.1c5.2 6.5 5.2 16.1 0 22.6-12.3 15.4-39 41.1-80.1 41.1m272 0c-41.1 0-67.8-25.7-80.1-41.1-5.2-6.5-5.2-16.1 0-22.6 12.3-15.4 39-41.1 80.1-41.1s67.8 25.7 80.1 41.1c5.2 6.5 5.2 16.1 0 22.6-12.3 15.4-39 41.1-80.1 41.1"/></svg>