<svg height="512" width="448" xmlns="http://www.w3.org/2000/svg"><path d="M433 179.1C433 81.9 369.3 53.4 369.3 53.4 306.8 24.7 140.7 25 78.8 53.4c0 0-63.7 28.5-63.7 125.7 0 115.7-6.6 259.4 105.6 289.1 40.5 10.7 75.3 13 103.4 11.4 50.8-2.8 79.3-18.1 79.3-18.1l-1.7-36.9s-36.3 11.4-77.1 10.1c-40.5-1.4-83-4.4-89.7-54a102.5 102.5 0 0 1-.9-13.9c85.7 20.9 158.7 9.1 178.8 6.7 56.1-6.7 105-41.3 111.2-72.9 9.8-49.8 9-121.5 9-121.5m-75.1 125.2h-46.6V190.1c0-49.7-64-51.6-64 6.9v62.5h-46.4V197c0-58.5-64-56.6-64-6.9v114.2H90.2c0-122.1-5.2-147.9 18.4-175 25.9-28.9 79.8-30.8 103.8 6.1l11.6 19.5 11.6-19.5c24.1-37.1 78.2-34.8 103.9-6.1 23.7 27.3 18.4 53 18.4 175"/></svg>