<svg height="512" width="576" xmlns="http://www.w3.org/2000/svg"><path d="M17.4 160.4 7 352h43.9l5.6-79.8L84.4 352h44.7l25.6-77.4 4.8 77.4H205L192.2 160.4h-45.5L106 277.7 63.7 160.4zm281 0h-47.9V352h47.9s95 .8 94.2-95.8c-.8-94.2-94.2-95.8-94.2-95.8m-1.2 146.5V204.8s46 4.3 46.8 50.5-46.8 51.6-46.8 51.6m238.3-74.3a56.2 56.2 0 0 0 8-38.3C538.1 158.6 488.4 160 488.4 160h-51.9v191.6H482s87 4.8 87-63.9c0-43.1-33.5-55-33.5-55zm-51.9-31.9s13.5-1.6 16 9.6c1.4 6.6-4 12-4 12h-12zm-.1 109.4.1-24.9V267s41.6-4.7 41.2 22.4c-.3 25.7-41.3 20.8-41.3 20.8z"/></svg>