<svg height="512" width="512" xmlns="http://www.w3.org/2000/svg"><path d="M223.8 130.8 154.6 15.5A32 32 0 0 0 127.2 0H16C3.1 0-4.5 14.6 2.9 25.2l111.3 158.9c29.7-27.7 67.5-46.8 109.6-53.3M496 0H384.8c-11.2 0-21.6 5.9-27.4 15.5l-69.1 115.3c42 6.5 79.8 25.6 109.5 53.3L509.1 25.2C516.5 14.6 508.9 0 496 0M256 160C158.8 160 80 238.8 80 336s78.8 176 176 176S432 433.2 432 336 353.2 160 256 160m92.5 157.3-37.9 36.9 9 52.2c1.6 9.4-8.3 16.5-16.7 12.1L256 393.9l-46.9 24.6c-8.4 4.5-18.3-2.7-16.7-12.1l9-52.2-37.9-36.9c-6.8-6.7-3.1-18.3 6.3-19.6l52.5-7.7 23.4-47.5c2.1-4.3 6.2-6.4 10.3-6.4s8.2 2.2 10.3 6.4l23.4 47.5 52.5 7.7c9.4 1.3 13.1 12.9 6.3 19.6"/></svg>