<svg height="512" width="512" xmlns="http://www.w3.org/2000/svg"><path d="M96 480h320V128h-32V80C384 53.5 362.5 32 336 32H176c-26.5 0-48 21.5-48 48v48H96zM192 96h128v32H192zm320 80v256c0 26.5-21.5 48-48 48h-16V128h16c26.5 0 48 21.5 48 48M64 480H48C21.5 480 0 458.5 0 432V176c0-26.5 21.5-48 48-48h16zM352 272v32c0 8.8-7.2 16-16 16h-48v48c0 8.8-7.2 16-16 16h-32c-8.8 0-16-7.2-16-16v-48h-48c-8.8 0-16-7.2-16-16v-32c0-8.8 7.2-16 16-16h48v-48c0-8.8 7.2-16 16-16h32c8.8 0 16 7.2 16 16v48h48c8.8 0 16 7.2 16 16"/></svg>