<svg height="512" width="544" xmlns="http://www.w3.org/2000/svg"><path d="M113.7 256c0 121.8 83.9 222.8 193.5 241.1C288.5 501.6 269 504 249 504 111.4 504 0 393 0 256S111.4 8 248.9 8c20.1 0 39.6 2.4 58.2 6.9C197.5 33.2 113.7 134.2 113.7 256m297.4 100.3c-77.7 55.4-179.6 47.5-240.4-14.6 5.5 14.1 12.7 27.7 21.7 40.5 61.6 88.2 182.4 109.3 269.7 47S570.2 244.9 508.6 156.6a193 193 0 0 0-30.5-34.2c37.4 78.8 10.7 178.5-67 233.9m-218.8-244c-1.4 1-2.7 2.1-4 3.1 64.3-17.8 135.9 4 178.9 60.5 35.7 47 42.9 106.6 24.4 158 56.7-56.2 67.6-142.1 22.3-201.8C363.9 66.6 264.8 57.7 192.3 112.3M296 224c-4.4 0-8-3.6-8-8v-40c0-4.4-3.6-8-8-8h-48c-4.4 0-8 3.6-8 8v40c0 4.4-3.6 8-8 8h-40c-4.4 0-8 3.6-8 8v48c0 4.4 3.6 8 8 8h40c4.4 0 8 3.6 8 8v40c0 4.4 3.6 8 8 8h48c4.4 0 8-3.6 8-8v-40c0-4.4 3.6-8 8-8h40c4.4 0 8-3.6 8-8v-48c0-4.4-3.6-8-8-8z"/></svg>