<svg height="1000" width="968.8" xmlns="http://www.w3.org/2000/svg"><path d="M484.4 15.6C216.8 15.6 0 232.4 0 500s216.8 484.4 484.4 484.4S968.8 767.6 968.8 500 752 15.6 484.4 15.6zm0 875C268.9 890.6 93.8 715.4 93.8 500S268.9 109.4 484.4 109.4 875 284.6 875 500 699.8 890.6 484.4 890.6zM656.3 296.9c-77.8 0 -140.7 62.9 -140.7 140.6s62.9 140.6 140.7 140.6S796.9 515.2 796.9 437.5 734 296.9 656.3 296.9zm0 218.7c-43.2 0 -78.2 -34.9 -78.2 -78.1 0 -26.6 14.3 -49 34.6 -63.1 -2 5.1 -3.3 10.4 -3.3 16.2 0 26 20.9 46.9 46.9 46.9s46.8 -20.9 46.8 -46.9c0 -5.6 -1.3 -11.1 -3.3 -16.2 20.3 14.1 34.6 36.5 34.6 63.1 0 43.2 -35 78.1 -78.1 78.1zM453.1 437.5c0 -77.7 -62.9 -140.6 -140.6 -140.6S171.9 359.8 171.9 437.5s62.9 140.6 140.6 140.6S453.1 515.2 453.1 437.5zm-218.7 0c0 -26.6 14.2 -49 34.5 -63.1 -1.9 5.1 -3.3 10.4 -3.3 16.2 0 26 20.9 46.9 46.9 46.9s46.9 -20.9 46.9 -46.9c0 -5.6 -1.4 -11.1 -3.3 -16.2 20.3 14.1 34.5 36.5 34.5 63.1 0 43.2 -34.9 78.1 -78.1 78.1s-78.1 -34.9 -78.1 -78.1zm375 250h-250c-25.8 0 -46.9 21.1 -46.9 46.9s21.1 46.9 46.9 46.9h250c25.8 0 46.9 -21.1 46.9 -46.9s-21.1 -46.9 -46.9 -46.9z"/></svg>