<svg height="1000" width="968.8" xmlns="http://www.w3.org/2000/svg"><path d="M484.4 15.6C752 15.6 968.8 232.4 968.8 500S752 984.4 484.4 984.4 0 767.6 0 500 216.8 15.6 484.4 15.6zm0 875C699.8 890.6 875 715.4 875 500S699.8 109.4 484.4 109.4 93.8 284.6 93.8 500s175.1 390.6 390.6 390.6zM656.3 296.9c77.7 0 140.6 62.9 140.6 140.6S734 578.1 656.3 578.1 515.6 515.2 515.6 437.5 578.5 296.9 656.3 296.9zm0 218.7c43.1 0 78.1 -34.9 78.1 -78.1 0 -26.6 -14.3 -49 -34.6 -63.1 2 5.1 3.3 10.6 3.3 16.2 0 26 -20.9 46.9 -46.8 46.9s-46.9 -20.9 -46.9 -46.9c0 -5.8 1.3 -11.1 3.3 -16.2 -20.3 14.1 -34.6 36.5 -34.6 63.1 0 43.2 35 78.1 78.2 78.1zM453.1 437.5c0 77.7 -62.9 140.6 -140.6 140.6S171.9 515.2 171.9 437.5 234.8 296.9 312.5 296.9s140.6 62.9 140.6 140.6zm-218.7 0c0 43.2 34.9 78.1 78.1 78.1s78.1 -34.9 78.1 -78.1c0 -26.6 -14.2 -49 -34.5 -63.1 1.9 5.1 3.3 10.6 3.3 16.2 0 26 -20.9 46.9 -46.9 46.9s-46.9 -20.9 -46.9 -46.9c0 -5.8 1.4 -11.1 3.3 -16.2 -20.3 14.1 -34.5 36.5 -34.5 63.1zm375 250c25.8 0 46.9 21.1 46.9 46.9s-21.1 46.9 -46.9 46.9h-250c-25.8 0 -46.9 -21.1 -46.9 -46.9s21.1 -46.9 46.9 -46.9h250z"/></svg>