<svg height="512" width="640" xmlns="http://www.w3.org/2000/svg"><path d="M640 130.9V96C640 78.3 625.7 64 608 64H32C14.3 64 0 78.3 0 96v34.9c18.6 6.7 32 24.2 32 45.1S18.6 214.4 0 221.1V320h640v-98.9C621.4 214.4 608 196.9 608 176s13.4-38.4 32-45.1M224 256h-64V128h64zm128 0h-64V128h64zm128 0h-64V128h64zM0 448h64v-26.7c0-8.8 7.2-16 16-16s16 7.2 16 16V448h128v-26.7c0-8.8 7.2-16 16-16s16 7.2 16 16V448h128v-26.7c0-8.8 7.2-16 16-16s16 7.2 16 16V448h128v-26.7c0-8.8 7.2-16 16-16s16 7.2 16 16V448h64v-96H0z"/></svg>