<svg height="512" width="640" xmlns="http://www.w3.org/2000/svg"><path d="M624.6 325.2C612.3 312.8 594.9 306 576.2 308c-43.3-1-49.7-34.9-37.5-98.8C561.5 151.7 523.8 77.7 451.3 78.4c-77.4.7-81.7 82-130.9 82-48.1 0-54-81.3-130.9-82-72.9-.8-110.1 73.3-87.4 130.8 12.2 63.9 5.8 97.8-37.5 98.8-21.2-2.3-37 6.5-53 22.5-19.9 19.7-19.3 94.8 42.6 102.6 47.1 5.9 81.6-42.9 61.2-87.8C68.1 241.6 301.3 239.2 261.9 337.1c-.1.1-.2.2-.3.4-26.8 42.8 6.8 97.4 58.8 95.2 52.1 2.1 85.4-52.6 58.8-95.2-.1-.2-.2-.3-.3-.4-39.4-97.9 193.8-95.5 146.5 8.2-4.6 10-6.7 21.3-5.7 33 4.9 53.4 68.7 74.1 104.9 35.2 17.8-14.8 23.1-65.6 0-88.3M320.7 306.1h-.6c-43.4 0-62.8-37.5-62.8-62.8 0-34.7 28.2-62.8 62.8-62.8h.6c34.7 0 62.8 28.1 62.8 62.8 0 25-19.2 62.8-62.8 62.8"/></svg>