<svg height="512" width="640" xmlns="http://www.w3.org/2000/svg"><path d="M144 128h-32c-8.8 0-16 7.2-16 16v144h64V144c0-8.8-7.2-16-16-16m96 0h-32c-8.8 0-16 7.2-16 16v144h64V144c0-8.8-7.2-16-16-16m192 0h-32c-8.8 0-16 7.2-16 16v144h64V144c0-8.8-7.2-16-16-16m96 0h-32c-8.8 0-16 7.2-16 16v144h64V144c0-8.8-7.2-16-16-16m80-32c17.7 0 32-14.3 32-32S608 0 608 0s-32 46.3-32 64 14.3 32 32 32m-96 0c17.7 0 32-14.3 32-32S512 0 512 0s-32 46.3-32 64 14.3 32 32 32m-96 0c17.7 0 32-14.3 32-32S416 0 416 0s-32 46.3-32 64 14.3 32 32 32m-96 0c17.7 0 32-14.3 32-32S320 0 320 0s-32 46.3-32 64 14.3 32 32 32m-96 0c17.7 0 32-14.3 32-32S224 0 224 0s-32 46.3-32 64 14.3 32 32 32m-96 0c17.7 0 32-14.3 32-32S128 0 128 0 96 46.3 96 64s14.3 32 32 32m-96 0C49.7 96 64 81.7 64 64S32 0 32 0 0 46.3 0 64s14.3 32 32 32m544 192c0 17.7-14.3 32-32 32H352V144c0-8.8-7.2-16-16-16h-32c-8.8 0-16 7.2-16 16v176H96C78.3 320 64 305.7 64 288V144c0-8.8-7.2-16-16-16H16c-8.8 0-16 7.2-16 16v144c0 53 43 96 96 96h192v64H112c-8.8 0-16 7.2-16 16v32c0 8.8 7.2 16 16 16h416c8.8 0 16-7.2 16-16v-32c0-8.8-7.2-16-16-16H352v-64h192c53 0 96-43 96-96V144c0-8.8-7.2-16-16-16h-32c-8.8 0-16 7.2-16 16z"/></svg>