<svg height="512" width="512" xmlns="http://www.w3.org/2000/svg"><path d="M511.3 20.8C499.7 59.5 477 132.5 450 208.5c7 2.1 13.4 4 18.6 5.6a16.1 16.1 0 0 1 9.5 22.9C456 279.3 395.4 389.8 335.7 451.4c-1 1.1-2 2.5-3 3.5A194.8 194.8 0 1 1 57.1 179.4c1-1 2.4-2 3.5-3C122.2 116.5 232.6 56 275 33.9a16.1 16.1 0 0 1 22.9 9.5c1.6 5.1 3.5 11.6 5.6 18.6C379.3 35 452.4 12.3 491.1.7a16.2 16.2 0 0 1 20.2 20.1M320 320A128 128 0 1 0 192 448 128 128 0 0 0 320 320M192 288a32 32 0 1 1-32-32 32 32 0 0 1 32 32m32 80a16 16 0 1 1-16-16 16 16 0 0 1 16 16"/></svg>