<svg height="512" width="512" xmlns="http://www.w3.org/2000/svg"><path d="M160 320h12v16c0 8.8 7.2 16 16 16h40c8.8 0 16-7.2 16-16v-16h12c17.7 0 32-14.3 32-32V64C288 46.3 273.7 32 256 32V16C256 7.2 248.8 0 240 0h-64c-8.8 0-16 7.2-16 16v16c-17.7 0-32 14.3-32 32v224c0 17.7 14.3 32 32 32m304 128h-1.3C493.2 414 512 369.2 512 320 512 214.1 425.9 128 320 128v64c70.6 0 128 57.4 128 128S390.6 448 320 448H48C21.5 448 0 469.5 0 496c0 8.8 7.2 16 16 16h480c8.8 0 16-7.2 16-16 0-26.5-21.5-48-48-48M104 416h208c4.4 0 8-3.6 8-8v-16c0-4.4-3.6-8-8-8H104c-4.4 0-8 3.6-8 8v16c0 4.4 3.6 8 8 8"/></svg>