<svg height="512" width="640" xmlns="http://www.w3.org/2000/svg"><path d="M633.8 458.1 476.3 336.3C488.7 312.2 496 285 496 256v-48c0-8.8-7.2-16-16-16h-16c-8.8 0-16 7.2-16 16v48c0 17.9-4 34.8-10.7 50.2l-26.6-20.5c3.1-9.4 5.3-19.2 5.3-29.7h-43.7l-41.4-32H416v-32h-85.3c-5.9 0-10.7-3.6-10.7-8v-16c0-4.4 4.8-8 10.7-8H416v-32h-85.3c-5.9 0-10.7-3.6-10.7-8v-16c0-4.4 4.8-8 10.7-8H416C416 43 373 0 320 0s-96 43-96 96v45.4L45.5 3.4C38.5-2 28.4-.8 23 6.2L3.4 31.4c-5.4 7-4.2 17.1 2.8 22.5l588.3 454.7c7 5.5 17.1 4.2 22.5-2.8l19.6-25.2c5.4-7 4.2-17.1-2.8-22.5M400 464h-56v-33.8c11.7-1.6 23.1-4.3 34-8.1l-50.4-38.9c-6.7.4-13.5.9-20.4.2C251.4 377.9 208.5 334.8 196 281.5l-52-40.2v6.9c0 89.6 64 169.5 152 181.7V464h-56c-8.8 0-16 7.2-16 16v16c0 8.8 7.2 16 16 16h160c8.8 0 16-7.2 16-16v-16c0-8.8-7.2-16-16-16"/></svg>