<svg height="512" width="352" xmlns="http://www.w3.org/2000/svg"><path d="M336 192h-16c-8.8 0-16 7.2-16 16v48c0 74.8-64.5 134.8-140.8 127.4C96.7 376.9 48 317.1 48 250.3V208c0-8.8-7.2-16-16-16H16c-8.8 0-16 7.2-16 16v40.2c0 89.6 64 169.5 152 181.7V464H96c-8.8 0-16 7.2-16 16v16c0 8.8 7.2 16 16 16h160c8.8 0 16-7.2 16-16v-16c0-8.8-7.2-16-16-16h-56v-33.8C285.7 418.5 352 344.9 352 256v-48c0-8.8-7.2-16-16-16M176 352c53 0 96-43 96-96h-85.3c-5.9 0-10.7-3.6-10.7-8v-16c0-4.4 4.8-8 10.7-8H272v-32h-85.3c-5.9 0-10.7-3.6-10.7-8v-16c0-4.4 4.8-8 10.7-8H272v-32h-85.3c-5.9 0-10.7-3.6-10.7-8v-16c0-4.4 4.8-8 10.7-8H272C272 43 229 0 176 0S80 43 80 96v160c0 53 43 96 96 96"/></svg>