<svg height="512" width="640" xmlns="http://www.w3.org/2000/svg"><path d="M424.4 219.7C416.1 134.7 344.1 68 256.9 68 184.7 68 120.7 114.5 97.7 182.1c-54.5 8-96.6 54.8-96.6 111.6 0 62.3 50.7 112.9 113.2 112.9h289.6c52.4 0 95-42.3 95-94.7 0-45.1-32.1-83-74.5-92.2m-20.5 144.6H114.3c-39 0-70.9-31.6-70.9-70.6s31.9-70.6 70.9-70.6c18.9 0 36.6 7.4 49.9 20.7 19.9 20 50.1-10.2 30.1-30.2-14.6-14.4-32.6-24.3-52-29.3 19.9-44.3 64.8-73.9 114.6-73.9 69.5 0 126 56.4 126 125.7 0 13.5-2.2 26.8-6.4 39.6-8.9 27.5 32.2 38.9 40.2 13.2 2.7-8.3 5-16.8 6.3-25.4 19.4 7.5 33.5 26.3 33.5 48.4 0 28.8-23.5 52.4-52.6 52.4M639 311.9c0 44.1-12.7 86.4-37.1 122.7-4.1 6.1-10.8 9.4-17.7 9.4-16.3 0-27.1-18.8-17.5-32.9 19.4-29.4 29.9-63.7 29.9-99.2s-10.5-69.7-29.9-98.8c-15.6-22.8 19.4-47.3 35.2-23.6 24.4 36 37.1 78.4 37.1 122.4m-70.9 0c0 31.6-9.1 62.1-26.8 88.4-4.2 6-10.8 9.1-17.7 9.1-17.2 0-27.1-19-17.5-33 13-19.1 19.7-41.2 19.7-64.5 0-23-6.7-45.4-19.7-64.5-15.8-23 19-47.1 35.2-23.5 17.7 26 26.8 56.5 26.8 88"/></svg>