<svg height="512" width="640" xmlns="http://www.w3.org/2000/svg"><path d="M0 448c0 17.7 14.3 32 32 32h576c17.7 0 32-14.3 32-32V128H0zM448 240c0-8.8 7.2-16 16-16h96c8.8 0 16 7.2 16 16v32c0 8.8-7.2 16-16 16h-96c-8.8 0-16-7.2-16-16zm0 120c0-4.4 3.6-8 8-8h112c4.4 0 8 3.6 8 8v16c0 4.4-3.6 8-8 8H456c-4.4 0-8-3.6-8-8zM64 264c0-4.4 3.6-8 8-8h304c4.4 0 8 3.6 8 8v16c0 4.4-3.6 8-8 8H72c-4.4 0-8-3.6-8-8zm0 96c0-4.4 3.6-8 8-8h176c4.4 0 8 3.6 8 8v16c0 4.4-3.6 8-8 8H72c-4.4 0-8-3.6-8-8zM624 32H16C7.2 32 0 39.2 0 48v48h640V48c0-8.8-7.2-16-16-16"/></svg>