<svg height="512" width="640" xmlns="http://www.w3.org/2000/svg"><path d="M352 288h-16v-88c0-4.4-3.6-8-8-8h-13.6c-4.7 0-9.3 1.4-13.3 4l-15.3 10.3a8 8 0 0 0-2.2 11l8.8 13.4a8 8 0 0 0 11.1 2.2l.5-.3V288h-16c-4.4 0-8 3.6-8 8v16c0 4.4 3.6 8 8 8h64c4.4 0 8-3.6 8-8v-16c0-4.4-3.6-8-8-8M608 64H32C14.3 64 0 78.3 0 96v320c0 17.7 14.3 32 32 32h576c17.7 0 32-14.3 32-32V96C640 78.3 625.7 64 608 64M48 400v-64c35.3 0 64 28.6 64 64zm0-224v-64h64c0 35.3-28.7 64-64 64m272 192c-53 0-96-50.1-96-112s43-112 96-112 96 50.1 96 112-43 112-96 112m272 32h-64c0-35.4 28.6-64 64-64zm0-224c-35.4 0-64-28.7-64-64h64z"/></svg>