<svg height="512" width="640" xmlns="http://www.w3.org/2000/svg"><path d="M608 32H32C14.3 32 0 46.3 0 64v384c0 17.7 14.3 32 32 32h576c17.7 0 32-14.3 32-32V64C640 46.3 625.7 32 608 32M176 327.9V344c0 4.4-3.6 8-8 8h-16c-4.4 0-8-3.6-8-8v-16.3c-11.3-.6-22.3-4.5-31.4-11.3-3.9-3-4.1-8.8-.5-12.2L123.8 293c2.8-2.6 6.9-2.7 10.1-.7 3.9 2.4 8.3 3.7 12.9 3.7h28.1c6.5 0 11.8-5.9 11.8-13.2 0-5.9-3.6-11.2-8.8-12.7l-45-13.5C114.3 251 101.3 233.2 101.3 213.2c0-24.5 19.1-44.4 42.7-45.1V152c0-4.4 3.6-8 8-8h16c4.4 0 8 3.6 8 8v16.3c11.3.6 22.3 4.5 31.4 11.3 3.9 3 4.1 8.8.5 12.2L196.2 203c-2.8 2.6-6.9 2.7-10.1.7-3.9-2.4-8.3-3.7-12.9-3.7h-28.1c-6.5 0-11.8 5.9-11.8 13.2 0 5.9 3.6 11.2 8.8 12.7l45 13.5c18.6 5.6 31.6 23.4 31.6 43.4 0 24.5-19.1 44.4-42.7 45.1M416 312c0 4.4-3.6 8-8 8H296c-4.4 0-8-3.6-8-8v-16c0-4.4 3.6-8 8-8h112c4.4 0 8 3.6 8 8zm160 0c0 4.4-3.6 8-8 8h-80c-4.4 0-8-3.6-8-8v-16c0-4.4 3.6-8 8-8h80c4.4 0 8 3.6 8 8zm0-96c0 4.4-3.6 8-8 8H296c-4.4 0-8-3.6-8-8v-16c0-4.4 3.6-8 8-8h272c4.4 0 8 3.6 8 8z"/></svg>