<svg height="512" width="640" xmlns="http://www.w3.org/2000/svg"><path d="M621.2 54.5C582.4 38.2 543.5 32 504.8 32 381.6 32 258.4 94.3 135.3 94.3c-30.9 0-61.8-3.9-92.7-13.7C39.1 79.5 35.6 79 32.2 79 15 79 0 92.3 0 110.8v317.3c0 12.6 7.2 24.6 18.8 29.4C57.6 473.8 96.5 480 135.3 480c123.1 0 246.3-62.4 369.5-62.4 30.8 0 61.7 4 92.6 13.8 3.5 1.1 7 1.6 10.4 1.6C625 433 640 419.7 640 401.2V83.9c0-12.6-7.2-24.6-18.8-29.4M48 132.2c20.1 5.1 41.1 7.6 62.7 9C104.8 170.5 79 192.7 48 192.7zm0 285v-47.8c34.4 0 62.2 27.3 63.7 61.4C89.2 429 68.1 424.5 48 417.2M320 352c-44.2 0-80-43-80-96s35.8-96 80-96 80 43 80 96-35.8 96-80 96m272 27.8c-17.5-4.4-35.7-6.9-54.3-8.5 5.8-26 27.5-45.8 54.3-49.2zm0-236.1C561.1 139.8 537.1 114 536.2 82.1c19.5 2.2 38.1 6.2 55.8 12.7z"/></svg>