<svg height="1000" width="1250" xmlns="http://www.w3.org/2000/svg"><path d="M625 281.3c-103.6 0 -187.5 97.9 -187.5 218.7 0 120.8 83.9 218.8 187.5 218.8 103.5 0 187.5 -98 187.5 -218.8C812.5 379.2 728.6 281.3 625 281.3zm78.1 328.1c0 8.6 -7 15.6 -15.6 15.6h-125c-8.6 0 -15.6 -7 -15.6 -15.6v-31.3c0 -8.6 7 -15.6 15.6 -15.6h31.3V454.2l-1 .6a15.6 -15.6 0 0 0 -21.6 -4.3l-17.4 -26a15.6 -15.6 0 0 0 4.4 -21.7l29.9 -19.9a46.9 -46.9 0 0 0 26 -7.9h26.5c8.7 0 15.7 7 15.7 15.6v171.9h31.2c8.6 0 15.6 7 15.6 15.6v31.3zM1187.5 125H62.5C28 125 0 153 0 187.5v625C0 847 28 875 62.5 875h1125c34.5 0 62.5 -28 62.5 -62.5v-625C1250 153 1222 125 1187.5 125zm-31.2 531.3c-69.1 0 -125 55.9 -125 125H218.8c0 -69.1 -56 -125 -125 -125V343.8c69 0 125 -56 125 -125h812.5c0 69 55.9 125 125 125v312.5z"/></svg>