<svg height="1000" width="1250" xmlns="http://www.w3.org/2000/svg"><path d="M625 281.3c103.6 0 187.5 97.9 187.5 218.7 0 120.8 -84 218.8 -187.5 218.8 -103.6 0 -187.5 -98 -187.5 -218.8 0 -120.8 83.9 -218.7 187.5 -218.7zm78.1 328.1v-31.3c0 -8.6 -7 -15.6 -15.6 -15.6h-31.2V390.6c0 -8.6 -7 -15.6 -15.7 -15.6h-26.5c-9.6 0 -18.6 2.9 -26 7.9l-29.9 19.9c-4.2 2.8 -7 7.6 -7 13 0 3.2 1 6.2 2.6 8.7l17.4 26c2.8 4.2 7.6 6.9 13 6.9 3.2 0 6.2 -.9 8.6 -2.6l.9 -.6v108.3h-31.2c-8.6 0 -15.6 7 -15.6 15.6v31.3c0 8.6 7 15.6 15.6 15.6h125c8.6 0 15.6 -7 15.6 -15.6zM1187.5 125c34.5 0 62.5 28 62.5 62.5v625c0 34.5 -28 62.5 -62.5 62.5H62.5C28 875 0 847 0 812.5v-625C0 153 28 125 62.5 125h1125zm-31.2 531.3V343.8c-69.1 0 -125 -56 -125 -125H218.8c0 69 -56 125 -125 125v312.5c69 0 125 55.9 125 125h812.5c0 -69.1 55.9 -125 125 -125z"/></svg>