<svg height="512" width="640" xmlns="http://www.w3.org/2000/svg"><path d="M320 144c-53 0-96 50.1-96 112s43 112 96 112 96-50.1 96-112S373 144 320 144m40 168c0 4.4-3.6 8-8 8h-64c-4.4 0-8-3.6-8-8v-16c0-4.4 3.6-8 8-8h16v-55.4l-.5.3a8 8 0 0 1-11.1-2.2l-8.8-13.4a8 8 0 0 1 2.2-11L301.1 196a24 24 0 0 1 13.3-4H328c4.4 0 8 3.6 8 8v88h16c4.4 0 8 3.6 8 8zM608 64H32C14.3 64 0 78.3 0 96v320c0 17.7 14.3 32 32 32h576c17.7 0 32-14.3 32-32V96C640 78.3 625.7 64 608 64m-16 272c-35.4 0-64 28.6-64 64H112c0-35.4-28.7-64-64-64V176c35.3 0 64-28.7 64-64h416c0 35.3 28.6 64 64 64z"/></svg>