<svg height="1000" width="1000" xmlns="http://www.w3.org/2000/svg"><path d="M545.2 1000c153.8 0 294.9 -69.9 388.4 -185.1 55.2 -68 -5 -167.4 -90.4 -151.2C682.4 694.3 534.1 571.4 534.1 408.3 534.1 313.7 585 228 665.8 182 741.5 139 722.4 24.2 636.5 8.4A503.8 -503.8 0 0 1 545.2 0C269.1 0 45.2 223.8 45.2 500c0 276.1 223.8 500 500 500zm0 -906.2c25.3 0 50.2 2.3 74.2 6.7C512.5 161.4 440.3 276.4 440.3 408.3c0 222.3 202.5 389 420.5 347.5C786.3 847.6 672.6 906.3 545.2 906.3 320.8 906.3 138.9 724.4 138.9 500S320.8 93.8 545.2 93.8z"/></svg>