<svg height="1000" width="1000" xmlns="http://www.w3.org/2000/svg"><path d="M545.2 1000C269 1000 45.2 776.1 45.2 500 45.2 223.8 269.1 0 545.2 0c31.3 0 61.5 2.9 91.3 8.4 85.9 15.8 105 130.6 29.3 173.6C585 228 534.1 313.7 534.1 408.3c0 163.1 148.3 286.1 309.1 255.4 85.4 -16.2 145.6 83.2 90.4 151.2C840.1 930.1 699 1000 545.2 1000zm0 -906.2C320.8 93.8 138.9 275.6 138.9 500s181.9 406.3 406.3 406.3c127.4 0 241.1 -58.7 315.6 -150.5C642.8 797.3 440.3 630.6 440.3 408.3c0 -131.9 72.2 -246.9 179.1 -307.8 -24 -4.4 -48.9 -6.7 -74.2 -6.7z"/></svg>