<svg height="512" width="640" xmlns="http://www.w3.org/2000/svg"><path d="M0 480c0 17.7 14.3 32 32 32h64c17.7 0 32-14.3 32-32V160H0zM579.2 288C597 270.6 608 250.7 608 229.1c0-52.9-41.8-93.8-87.9-122.9C478.1 79.7 439.5 48.4 408.1 10L400 0l-8.1 10c-31.3 38.4-70 69.7-112 96.2-46.1 29.1-87.9 70-87.9 122.9 0 21.6 11 41.5 28.8 58.9zm28.8 32H192c-17.7 0-32 14.3-32 32v128c0 17.7 14.3 32 32 32h32v-64c0-17.7 14.3-32 32-32s32 14.3 32 32v64h64v-72c0-48 48-72 48-72s48 24 48 72v72h64v-64c0-17.7 14.3-32 32-32s32 14.3 32 32v64h32c17.7 0 32-14.3 32-32V352c0-17.7-14.3-32-32-32M64 0S0 32 0 96v32h128V96C128 32 64 0 64 0"/></svg>