<svg height="512" width="512" xmlns="http://www.w3.org/2000/svg"><path d="M127.1 146.5c1.3 7.7 8 13.5 16 13.5h16.5c9.8 0 17.6-8.5 16.3-18C172.1 113.8 159.5 87.8 139.3 67.3 124.9 52.6 115.7 34 112.9 13.8 111.8 5.9 105 0 96.8 0H80.4C70.6 0 63 8.5 64.1 18c3.9 31.9 18 61.3 40.6 84.4 12 12.2 19.7 27.5 22.4 44.1m112 0c1.3 7.7 8 13.5 16 13.5h16.5c9.8 0 17.6-8.5 16.3-18C284.1 113.8 271.5 87.8 251.3 67.3 236.9 52.6 227.7 34 224.9 13.8 223.8 5.9 217 0 208.8 0h-16.4c-9.8 0-17.5 8.5-16.3 18 3.9 31.9 18 61.3 40.6 84.4 12 12.2 19.7 27.5 22.4 44.1M400 192H32C14.3 192 0 206.3 0 224v192c0 53 43 96 96 96h192c53 0 96-43 96-96h16c61.8 0 112-50.2 112-112S461.8 192 400 192m0 160h-16v-96h16c26.5 0 48 21.5 48 48s-21.5 48-48 48"/></svg>