<svg height="512" width="640" xmlns="http://www.w3.org/2000/svg"><path d="M640 264v-16c0-8.8-7.2-16-16-16H344v-40h72c17.7 0 32-14.3 32-32V32C448 14.3 433.7 0 416 0H224c-17.7 0-32 14.3-32 32v128c0 17.7 14.3 32 32 32h72v40H16c-8.8 0-16 7.2-16 16v16c0 8.8 7.2 16 16 16h104v40H64c-17.7 0-32 14.3-32 32v128c0 17.7 14.3 32 32 32h160c17.7 0 32-14.3 32-32V352c0-17.7-14.3-32-32-32h-56v-40h304v40h-56c-17.7 0-32 14.3-32 32v128c0 17.7 14.3 32 32 32h160c17.7 0 32-14.3 32-32V352c0-17.7-14.3-32-32-32h-56v-40h104c8.8 0 16-7.2 16-16M256 128V64h128v64zm-64 320H96v-64h96zm352 0h-96v-64h96z"/></svg>