<svg height="512" width="576" xmlns="http://www.w3.org/2000/svg"><path d="M552 64H88C74.7 64 64 74.7 64 88v8H24C10.7 96 0 106.7 0 120v272c0 30.9 25.1 56 56 56h472c26.5 0 48-21.5 48-48V88C576 74.7 565.3 64 552 64M56 400a8 8 0 0 1-8-8V144h16v248a8 8 0 0 1-8 8m236-16H140c-6.6 0-12-5.4-12-12v-8c0-6.6 5.4-12 12-12h152c6.6 0 12 5.4 12 12v8c0 6.6-5.4 12-12 12m208 0H348c-6.6 0-12-5.4-12-12v-8c0-6.6 5.4-12 12-12h152c6.6 0 12 5.4 12 12v8c0 6.6-5.4 12-12 12M292 288H140c-6.6 0-12-5.4-12-12v-8c0-6.6 5.4-12 12-12h152c6.6 0 12 5.4 12 12v8c0 6.6-5.4 12-12 12m208 0H348c-6.6 0-12-5.4-12-12v-8c0-6.6 5.4-12 12-12h152c6.6 0 12 5.4 12 12v8c0 6.6-5.4 12-12 12m0-96H140c-6.6 0-12-5.4-12-12v-40c0-6.6 5.4-12 12-12h360c6.6 0 12 5.4 12 12v40c0 6.6-5.4 12-12 12"/></svg>