<svg height="512" width="576" xmlns="http://www.w3.org/2000/svg"><path d="M552 64H112C91.1 64 73.4 77.4 66.8 96H24C10.7 96 0 106.7 0 120v272c0 30.9 25.1 56 56 56h496c13.3 0 24-10.7 24-24V88C576 74.7 565.3 64 552 64M48 392V144h16v248c0 4.4-3.6 8-8 8s-8-3.6-8-8m480 8H111.4c.4-2.6.6-5.3.6-8V112h416zM172 280h136c6.6 0 12-5.4 12-12v-96c0-6.6-5.4-12-12-12H172c-6.6 0-12 5.4-12 12v96c0 6.6 5.4 12 12 12m28-80h80v40h-80zm-40 140v-24c0-6.6 5.4-12 12-12h136c6.6 0 12 5.4 12 12v24c0 6.6-5.4 12-12 12H172c-6.6 0-12-5.4-12-12m192 0v-24c0-6.6 5.4-12 12-12h104c6.6 0 12 5.4 12 12v24c0 6.6-5.4 12-12 12H364c-6.6 0-12-5.4-12-12m0-144v-24c0-6.6 5.4-12 12-12h104c6.6 0 12 5.4 12 12v24c0 6.6-5.4 12-12 12H364c-6.6 0-12-5.4-12-12m0 72v-24c0-6.6 5.4-12 12-12h104c6.6 0 12 5.4 12 12v24c0 6.6-5.4 12-12 12H364c-6.6 0-12-5.4-12-12"/></svg>