<svg height="1000" width="1125" xmlns="http://www.w3.org/2000/svg"><path d="M1078.1 125c25.9 0 46.9 21 46.9 46.9v656.2c0 25.9 -21 46.9 -46.9 46.9H109.4C49 875 0 826 0 765.6V234.4c0 -25.9 21 -46.9 46.9 -46.9h83.5C143.3 151.1 178 125 218.8 125h859.3zM93.8 765.6c0 8.6 7 15.7 15.6 15.7S125 774.2 125 765.6V281.3H93.8v484.3zm937.5 15.7V218.8H218.8v546.8c0 5.3 -.4 10.5 -1.2 15.7h813.6zM335.9 546.9c-12.9 0 -23.4 -10.5 -23.4 -23.5V335.9c0 -12.9 10.5 -23.4 23.4 -23.4h265.7c12.9 0 23.4 10.5 23.4 23.4v187.5c0 13 -10.5 23.5 -23.4 23.5H335.9zm54.7 -156.3v78.2h156.3v-78.2H390.6zm-78.1 273.5v-46.9c0 -13 10.5 -23.4 23.4 -23.4h265.7c12.9 0 23.4 10.4 23.4 23.4v46.9c0 12.9 -10.5 23.4 -23.4 23.4H335.9c-12.9 0 -23.4 -10.5 -23.4 -23.4zm375 0v-46.9c0 -13 10.5 -23.4 23.4 -23.4h203.2c12.9 0 23.4 10.4 23.4 23.4v46.9c0 12.9 -10.5 23.4 -23.4 23.4H710.9c-12.9 0 -23.4 -10.5 -23.4 -23.4zm0 -281.3v-46.9c0 -12.9 10.5 -23.4 23.4 -23.4h203.2c12.9 0 23.4 10.5 23.4 23.4v46.9c0 13 -10.5 23.5 -23.4 23.5H710.9c-12.9 0 -23.4 -10.5 -23.4 -23.5zm0 140.6v-46.8c0 -13 10.5 -23.5 23.4 -23.5h203.2c12.9 0 23.4 10.5 23.4 23.5v46.8c0 13 -10.5 23.5 -23.4 23.5H710.9c-12.9 0 -23.4 -10.5 -23.4 -23.5z"/></svg>