<svg height="1000" width="1125" xmlns="http://www.w3.org/2000/svg"><path d="M1078.1 125H218.8c-40.8 0 -75.5 26.1 -88.4 62.5H46.9C21 187.5 0 208.5 0 234.4v531.2C0 826 49 875 109.4 875h968.7c25.9 0 46.9 -21 46.9 -46.9V171.9C1125 146 1104 125 1078.1 125zM93.8 765.6V281.3H125v484.3c0 8.6 -7 15.7 -15.6 15.7S93.8 774.2 93.8 765.6zm937.5 15.7H217.6c.8 -5.2 1.2 -10.4 1.2 -15.7V218.8h812.5v562.5zM335.9 546.9h265.7c12.9 0 23.4 -10.5 23.4 -23.5V335.9c0 -12.9 -10.5 -23.4 -23.4 -23.4H335.9c-12.9 0 -23.4 10.5 -23.4 23.4v187.5c0 13 10.5 23.5 23.4 23.5zm54.7 -156.3h156.3v78.2H390.6v-78.2zm-78.1 273.5v-46.9c0 -13 10.5 -23.4 23.4 -23.4h265.7c12.9 0 23.4 10.4 23.4 23.4v46.9c0 12.9 -10.5 23.4 -23.4 23.4H335.9c-12.9 0 -23.4 -10.5 -23.4 -23.4zm375 0v-46.9c0 -13 10.5 -23.4 23.4 -23.4h203.2c12.9 0 23.4 10.4 23.4 23.4v46.9c0 12.9 -10.5 23.4 -23.4 23.4H710.9c-12.9 0 -23.4 -10.5 -23.4 -23.4zm0 -281.3v-46.9c0 -12.9 10.5 -23.4 23.4 -23.4h203.2c12.9 0 23.4 10.5 23.4 23.4v46.9c0 13 -10.5 23.5 -23.4 23.5H710.9c-12.9 0 -23.4 -10.5 -23.4 -23.5zm0 140.6v-46.8c0 -13 10.5 -23.5 23.4 -23.5h203.2c12.9 0 23.4 10.5 23.4 23.5v46.8c0 13 -10.5 23.5 -23.4 23.5H710.9c-12.9 0 -23.4 -10.5 -23.4 -23.5z"/></svg>