<svg height="512" width="384" xmlns="http://www.w3.org/2000/svg"><path d="M246.6 299.3c15.6 0 27.2 11.5 27.2 27s-11.7 27-27.2 27c-15.7 0-27.2-11.6-27.2-27s11.6-27 27.2-27m-133.6 27c0-15.7 11.7-27 27.2-27s27.1 11.4 27.1 27-11.5 27-27.1 27c-15.5 0-27.2-11.4-27.2-27M191.8 159C157 159 89.5 178.8 59.3 227L14 0v335.5C14 433.1 93.6 512 191.8 512S369.5 433.1 369.5 335.5 290.1 159 191.8 159m0 308.1C118.5 467.1 59.3 408.2 59.3 335.5S118.5 203.9 191.8 203.9s132.5 58.9 132.5 131.6S265 467.1 191.8 467.1"/></svg>