<svg height="512" width="384" xmlns="http://www.w3.org/2000/svg"><path d="M336 64h-80C256 28.7 227.3 0 192 0s-64 28.7-64 64H48C21.5 64 0 85.5 0 112v352c0 26.5 21.5 48 48 48h288c26.5 0 48-21.5 48-48V112C384 85.5 362.5 64 336 64M192 40c13.3 0 24 10.7 24 24s-10.7 24-24 24S168 77.3 168 64s10.7-24 24-24m96 304c0 4.4-3.6 8-8 8h-56v56c0 4.4-3.6 8-8 8h-48c-4.4 0-8-3.6-8-8v-56h-56c-4.4 0-8-3.6-8-8v-48c0-4.4 3.6-8 8-8h56v-56c0-4.4 3.6-8 8-8h48c4.4 0 8 3.6 8 8v56h56c4.4 0 8 3.6 8 8zm0-192c0 4.4-3.6 8-8 8H104c-4.4 0-8-3.6-8-8v-16c0-4.4 3.6-8 8-8h176c4.4 0 8 3.6 8 8z"/></svg>