<svg height="512" width="640" xmlns="http://www.w3.org/2000/svg"><path d="M104.3 269.2h26.1V243h-26.1zM156.8 243l-.1-26.2v-.9a39.3 39.3 0 0 0-78.6.9v.2h26.4v-.2a13 13 0 0 1 25.9 0V243zm52.3 25.8A91.1 91.1 0 0 1 118 359.9h-.6A91.1 91.1 0 0 1 26.3 268.8H0v.2a117.3 117.3 0 0 0 117.4 117.3h.8A117.3 117.3 0 0 0 235.5 268.8v-26h-26.4zm-157.2 0a65.4 65.4 0 0 0 130.7 0h-26.3a39 39 0 0 1-78 0v-25.9H52v-26.6a65.4 65.4 0 0 1 130.8 1.2v25.3h26.3v-25.3a91.8 91.8 0 0 0-183.5 0v25.4h26.3zm418.4-71.1c13.7 0 24.6 6.6 30.1 18.2l.7 1.6L524.3 206l-.6-1.5c-8-19.2-28.5-31.2-53.4-31.2-23.1 0-43.6 11.4-51 28.4-.1 26.9-.1 23.9 0 24.9 4.7 11 14.6 19.3 28.7 24.2a102 102 0 0 0 19.8 4c5.5.7 10.6 1.4 15.9 3.1 6.3 2.1 10.4 5.2 12.8 9.8v9.9c-3.7 7.5-13.8 12.3-25.8 12.3-14.3 0-26-6.9-31.9-19l-.8-1.5-23 11.5.6 1.4c7.9 19.5 29.6 32.1 55.3 32.1 23.6 0 44.6-11.4 52.3-28.5l.1-25.9-.1-.6c-4.9-11-15.3-19.7-29-24.3-7.7-2.7-14.3-3.6-20.7-4.4a84 84 0 0 1-14.8-2.9c-6.3-1.9-10.4-5.1-12.6-9.6v-8.4c3.3-7.4 12.9-12.1 24.2-12.1M287.6 311.3h26v-68.4h-26zM639.8 258c-2.9-6.2-8.3-12-15.4-16.7a38 38 0 0 0 13-15.3l.2-25.3-.2-.7C630 184 610.7 173.3 589.3 173.3S548.5 184 541.1 200l-.2 25.3.2.7a39.6 39.6 0 0 0 13 15.3c-7.2 4.7-12.5 10.5-15.4 16.7l-.2 28.9.2.8c7.5 16 27.9 26.7 50.6 26.7s43-10.7 50.5-26.7l.2-28.9zm-73.2-50.8c3.6-6.3 12.6-10.5 22.6-10.5s19 4.2 22.6 10.5V221c-3.5 6.2-12.5 10.3-22.6 10.3S570.1 227.2 566.6 221zm47.3 72.2c-3.7 6.6-13.3 10.9-24.6 10.9-11.2 0-21-4.4-24.7-10.9v-16.1c3.7-6.4 13.5-10.6 24.7-10.6 11.3 0 20.9 4.2 24.6 10.6zM376.4 266l-59.8-89.8h-29v40.7h26.5v.4l62.5 94h25.7V176.2h-25.9z"/></svg>