<svg height="512" width="400" xmlns="http://www.w3.org/2000/svg"><path d="M88 8.1S221.4-.1 209 112.5c0 0 19.1-74.9 103-40.6 0 0-17.7 74-88 56 0 0 14.6-54.6 66.1-56.6 0 0-39.9-10.3-82.1 48.8 0 0-19.8-94.5-93.6-99.7 0 0 75.2 19.4 77.6 107.5 0 .1-106.4 7-104-119.8m312 315.6c0 48.5-9.7 95.3-32 132.3-42.2 30.9-105 48-168 48C137.1 504 74.2 486.9 32 456 9.7 419 0 372.2 0 323.7 0 275.3 17.7 229 40 192c42.2-30.9 97.1-48.6 160-48.6 63 0 117.8 17.6 160 48.6 22.3 37 40 83.3 40 131.7M120 428c0-15.5-12.5-28-28-28s-28 12.5-28 28 12.5 28 28 28 28-12.5 28-28m0-66.2c0-15.5-12.5-28-28-28s-28 12.5-28 28 12.5 28 28 28 28-12.5 28-28m0-66.2c0-15.5-12.5-28-28-28s-28 12.5-28 28 12.5 28 28 28 28-12.5 28-28M192 428c0-15.5-12.5-28-28-28s-28 12.5-28 28 12.5 28 28 28 28-12.5 28-28m0-66.2c0-15.5-12.5-28-28-28s-28 12.5-28 28 12.5 28 28 28 28-12.5 28-28m0-66.2c0-15.5-12.5-28-28-28s-28 12.5-28 28 12.5 28 28 28 28-12.5 28-28M264 428c0-15.5-12.5-28-28-28s-28 12.5-28 28 12.5 28 28 28 28-12.5 28-28m0-66.2c0-15.5-12.5-28-28-28s-28 12.5-28 28 12.5 28 28 28 28-12.5 28-28m0-66.2c0-15.5-12.5-28-28-28s-28 12.5-28 28 12.5 28 28 28 28-12.5 28-28M336 428c0-15.5-12.5-28-28-28s-28 12.5-28 28 12.5 28 28 28 28-12.5 28-28m0-66.2c0-15.5-12.5-28-28-28s-28 12.5-28 28 12.5 28 28 28 28-12.5 28-28m0-66.2c0-15.5-12.5-28-28-28s-28 12.5-28 28 12.5 28 28 28 28-12.5 28-28M360 256c-4.8-22.3-7.4-36.9-16-56C305.2 180.1 253.5 168 200 168S94.8 180.1 56 200c-8.8 19.5-11.2 33.9-16 56 42.2-7.9 98.7-14.8 160-14.8s117.8 6.9 160 14.8"/></svg>