<svg height="512" width="576" xmlns="http://www.w3.org/2000/svg"><path d="M64 320v26a6 6 0 0 1-6 6H6a6 6 0 0 1-6-6v-52a6 6 0 0 1 6-6h26V96H6A6 6 0 0 1 0 90V38a6 6 0 0 1 6-6h52a6 6 0 0 1 6 6v26h288V38a6 6 0 0 1 6-6h52a6 6 0 0 1 6 6v52a6 6 0 0 1-6 6h-26v192h26a6 6 0 0 1 6 6v52a6 6 0 0 1-6 6h-52a6 6 0 0 1-6-6v-26zm480-64v-32h26a6 6 0 0 0 6-6v-52a6 6 0 0 0-6-6h-52a6 6 0 0 0-6 6v26H408v72h8c13.3 0 24 10.7 24 24v64c0 13.3-10.7 24-24 24h-64c-13.3 0-24-10.7-24-24v-8H192v72h-26a6 6 0 0 0-6 6v52a6 6 0 0 0 6 6h52a6 6 0 0 0 6-6v-26h288v26a6 6 0 0 0 6 6h52a6 6 0 0 0 6-6v-52a6 6 0 0 0-6-6h-26z"/></svg>