<svg height="1000" width="1125" xmlns="http://www.w3.org/2000/svg"><path d="M1101.6 437.5h-23.5V750h23.5c12.9 0 23.4 10.5 23.4 23.4v140.7c0 12.9 -10.5 23.4 -23.4 23.4H960.9c-12.9 0 -23.4 -10.5 -23.4 -23.4v-23.5H500v23.5c0 12.9 -10.5 23.4 -23.4 23.4H335.9c-12.9 0 -23.4 -10.5 -23.4 -23.4V773.4c0 -12.9 10.5 -23.4 23.4 -23.4h23.5v-46.9H187.5v23.5c0 12.9 -10.5 23.4 -23.4 23.4H23.4C10.5 750 0 739.5 0 726.6V585.9C0 573 10.5 562.5 23.4 562.5h23.5V250H23.4C10.5 250 0 239.5 0 226.6V85.9C0 73 10.5 62.5 23.4 62.5h140.7c12.9 0 23.4 10.5 23.4 23.4v23.5H625V85.9C625 73 635.5 62.5 648.4 62.5h140.7c12.9 0 23.4 10.5 23.4 23.4v140.7c0 12.9 -10.5 23.4 -23.4 23.4h-23.5v46.9h171.9v-23.5c0 -12.9 10.5 -23.4 23.4 -23.4h140.7c12.9 0 23.4 10.5 23.4 23.4v140.7c0 12.9 -10.5 23.4 -23.4 23.4zM687.5 125v62.5H750V125h-62.5zm0 500v62.5H750V625h-62.5zM125 687.5V625H62.5v62.5H125zm0 -500V125H62.5v62.5H125zm62.5 421.9H625v-23.5c0 -12.9 10.5 -23.4 23.4 -23.4h23.5V250h-23.5C635.5 250 625 239.5 625 226.6v-23.5H187.5v23.5c0 12.9 -10.5 23.4 -23.4 23.4h-23.5v312.5h23.5c12.9 0 23.4 10.5 23.4 23.4v23.5zm250 265.6v-62.5H375V875h62.5zM984.4 750V437.5h-23.5c-12.9 0 -23.4 -10.5 -23.4 -23.4v-23.5H765.6v171.9h23.5c12.9 0 23.4 10.5 23.4 23.4v140.7c0 12.9 -10.5 23.4 -23.4 23.4H648.4C635.5 750 625 739.5 625 726.6v-23.5H453.1V750h23.5c12.9 0 23.4 10.5 23.4 23.4v23.5h437.5v-23.5c0 -12.9 10.5 -23.4 23.4 -23.4h23.5zm78.1 125v-62.5H1000V875h62.5zm0 -500v-62.5H1000V375h62.5z"/></svg>