<svg height="512" width="512" xmlns="http://www.w3.org/2000/svg"><path d="M480 128V96h20c6.6 0 12-5.4 12-12V44c0-6.6-5.4-12-12-12h-40c-6.6 0-12 5.4-12 12v20H64V44C64 37.4 58.6 32 52 32H12C5.4 32 0 37.4 0 44v40c0 6.6 5.4 12 12 12h20v320H12c-6.6 0-12 5.4-12 12v40c0 6.6 5.4 12 12 12h40c6.6 0 12-5.4 12-12v-20h384v20c0 6.6 5.4 12 12 12h40c6.6 0 12-5.4 12-12v-40c0-6.6-5.4-12-12-12h-20zM96 276V140c0-6.6 5.4-12 12-12h168c6.6 0 12 5.4 12 12v136c0 6.6-5.4 12-12 12H108c-6.6 0-12-5.4-12-12m320 96c0 6.6-5.4 12-12 12H236c-6.6 0-12-5.4-12-12v-52h72c13.3 0 24-10.7 24-24v-72h84c6.6 0 12 5.4 12 12z"/></svg>