<svg height="1000" width="1000" xmlns="http://www.w3.org/2000/svg"><path d="M976.6 250c12.9 0 23.4 -10.5 23.4 -23.4V85.9C1000 73 989.5 62.5 976.6 62.5H835.9C823 62.5 812.5 73 812.5 85.9v23.5h-625V85.9C187.5 73 177 62.5 164.1 62.5H23.4C10.5 62.5 0 73 0 85.9v140.7C0 239.5 10.5 250 23.4 250h23.5v500H23.4C10.5 750 0 760.5 0 773.4v140.7c0 12.9 10.5 23.4 23.4 23.4h140.7c12.9 0 23.4 -10.5 23.4 -23.4v-23.5h625v23.5c0 12.9 10.5 23.4 23.4 23.4h140.7c12.9 0 23.4 -10.5 23.4 -23.4V773.4C1000 760.5 989.5 750 976.6 750h-23.5V250h23.5zM875 125h62.5v62.5H875V125zm-812.5 0H125v62.5H62.5V125zM125 875H62.5v-62.5H125V875zm812.5 0H875v-62.5h62.5V875zM859.4 750h-23.5c-12.9 0 -23.4 10.5 -23.4 23.4v23.5h-625v-23.5C187.5 760.5 177 750 164.1 750h-23.5V250h23.5c12.9 0 23.4 -10.5 23.4 -23.4v-23.5h625v23.5c0 12.9 10.5 23.4 23.4 23.4h23.5v500zM789.1 375H625V273.4C625 260.5 614.5 250 601.6 250H210.9c-12.9 0 -23.4 10.5 -23.4 23.4v328.2c0 12.9 10.5 23.4 23.4 23.4H375v101.6c0 12.9 10.5 23.4 23.4 23.4h390.7c12.9 0 23.4 -10.5 23.4 -23.4V398.4C812.5 385.5 802 375 789.1 375zM265.6 328.1h281.3v218.8H265.6V328.1zm468.8 343.8H453.1V625h148.5c12.9 0 23.4 -10.5 23.4 -23.4V453.1h109.4v218.8z"/></svg>