<svg height="1000" width="1125" xmlns="http://www.w3.org/2000/svg"><path d="M1101.6 437.5c12.9 0 23.4 -10.5 23.4 -23.4V273.4c0 -12.9 -10.5 -23.4 -23.4 -23.4H960.9c-12.9 0 -23.4 10.5 -23.4 23.4v23.5H765.6V250h23.5c12.9 0 23.4 -10.5 23.4 -23.4V85.9C812.5 73 802 62.5 789.1 62.5H648.4C635.5 62.5 625 73 625 85.9v23.5H187.5V85.9C187.5 73 177 62.5 164.1 62.5H23.4C10.5 62.5 0 73 0 85.9v140.7C0 239.5 10.5 250 23.4 250h23.5v312.5H23.4C10.5 562.5 0 573 0 585.9v140.7C0 739.5 10.5 750 23.4 750h140.7c12.9 0 23.4 -10.5 23.4 -23.4v-23.5h171.9V750h-23.5c-12.9 0 -23.4 10.5 -23.4 23.4v140.7c0 12.9 10.5 23.4 23.4 23.4h140.7c12.9 0 23.4 -10.5 23.4 -23.4v-23.5h437.5v23.5c0 12.9 10.5 23.4 23.4 23.4h140.7c12.9 0 23.4 -10.5 23.4 -23.4V773.4c0 -12.9 -10.5 -23.4 -23.4 -23.4h-23.5V437.5h23.5zM687.5 125H750v62.5h-62.5V125zm0 500H750v62.5h-62.5V625zM125 687.5H62.5V625H125v62.5zm0 -500H62.5V125H125v62.5zm62.5 421.9v-23.5c0 -12.9 -10.5 -23.4 -23.4 -23.4h-23.5V250h23.5c12.9 0 23.4 -10.5 23.4 -23.4v-23.5H625v23.5c0 12.9 10.5 23.4 23.4 23.4h23.5v312.5h-23.5c-12.9 0 -23.4 10.5 -23.4 23.4v23.5H187.5zm250 265.6H375v-62.5h62.5V875zM984.4 750h-23.5c-12.9 0 -23.4 10.5 -23.4 23.4v23.5H500v-23.5C500 760.5 489.5 750 476.6 750h-23.5v-46.9H625v23.5c0 12.9 10.5 23.4 23.4 23.4h140.7c12.9 0 23.4 -10.5 23.4 -23.4V585.9c0 -12.9 -10.5 -23.4 -23.4 -23.4h-23.5V390.6h171.9v23.5c0 12.9 10.5 23.4 23.4 23.4h23.5V750zm78.1 125H1000v-62.5h62.5V875zm0 -500H1000v-62.5h62.5V375z"/></svg>