<svg height="1000" width="1000" xmlns="http://www.w3.org/2000/svg"><path d="M976.6 250h-23.5v500h23.5c12.9 0 23.4 10.5 23.4 23.4v140.7c0 12.9 -10.5 23.4 -23.4 23.4H835.9c-12.9 0 -23.4 -10.5 -23.4 -23.4v-23.5h-625v23.5c0 12.9 -10.5 23.4 -23.4 23.4H23.4C10.5 937.5 0 927 0 914.1V773.4C0 760.5 10.5 750 23.4 750h23.5V250H23.4C10.5 250 0 239.5 0 226.6V85.9C0 73 10.5 62.5 23.4 62.5h140.7c12.9 0 23.4 10.5 23.4 23.4v23.5h625V85.9C812.5 73 823 62.5 835.9 62.5h140.7c12.9 0 23.4 10.5 23.4 23.4v140.7c0 12.9 -10.5 23.4 -23.4 23.4zM875 125v62.5h62.5V125H875zm-812.5 0v62.5H125V125H62.5zM125 875v-62.5H62.5V875H125zm812.5 0v-62.5H875V875h62.5zM859.4 750V250h-23.5c-12.9 0 -23.4 -10.5 -23.4 -23.4v-23.5h-625v23.5c0 12.9 -10.5 23.4 -23.4 23.4h-23.5v500h23.5c12.9 0 23.4 10.5 23.4 23.4v23.5h625v-23.5c0 -12.9 10.5 -23.4 23.4 -23.4h23.5zM789.1 375c12.9 0 23.4 10.5 23.4 23.4v328.2c0 12.9 -10.5 23.4 -23.4 23.4H398.4C385.5 750 375 739.5 375 726.6V625H210.9c-12.9 0 -23.4 -10.5 -23.4 -23.4V273.4c0 -12.9 10.5 -23.4 23.4 -23.4h390.7c12.9 0 23.4 10.5 23.4 23.4V375h164.1zM265.6 328.1v218.8h281.3V328.1H265.6zm468.8 343.8V453.1H625v148.5c0 12.9 -10.5 23.4 -23.4 23.4H453.1v46.9h281.3z"/></svg>