<svg height="512" width="512" xmlns="http://www.w3.org/2000/svg"><path d="M500 128c6.6 0 12-5.4 12-12V44c0-6.6-5.4-12-12-12h-72c-6.6 0-12 5.4-12 12v12H96V44C96 37.4 90.6 32 84 32H12C5.4 32 0 37.4 0 44v72c0 6.6 5.4 12 12 12h12v256H12c-6.6 0-12 5.4-12 12v72c0 6.6 5.4 12 12 12h72c6.6 0 12-5.4 12-12v-12h320v12c0 6.6 5.4 12 12 12h72c6.6 0 12-5.4 12-12v-72c0-6.6-5.4-12-12-12h-12V128zM448 64h32v32h-32zM32 64h32v32H32zm32 384H32v-32h32zm416 0h-32v-32h32zm-40-64h-12c-6.6 0-12 5.4-12 12v12H96v-12c0-6.6-5.4-12-12-12H72V128h12c6.6 0 12-5.4 12-12v-12h320v12c0 6.6 5.4 12 12 12h12zM404 192h-84v-52c0-6.6-5.4-12-12-12H108c-6.6 0-12 5.4-12 12v168c0 6.6 5.4 12 12 12h84v52c0 6.6 5.4 12 12 12h200c6.6 0 12-5.4 12-12V204c0-6.6-5.4-12-12-12M136 168h144v112H136zm240 176H232v-24h76c6.6 0 12-5.4 12-12v-76h56z"/></svg>