<svg height="512" width="512" xmlns="http://www.w3.org/2000/svg"><path d="M455.6 349.2C409.7 310.1 418.9 271.3 439.5 221.1 475.2 134 416 34.1 329.9 8.3 237-19.6 134.3 24.3 99.7 117.1a180.9 180.9 0 0 0-11 73.6c1.7 29.5 14.7 53 24.1 80.3C130 321.2 84.7 363.7 46.1 388.6-.7 418.8 9.8 428.4 37.7 430.4c23.4 1.7 44.5-4.5 65.3-15 9.2-4.7 40.6-18.9 45.1-28.6-12.2 26.6-37 72.7-21.5 102.1 19.1 36.2 67.1-31.8 76.7-45.8 8.6-12.6 43-81.3 63.7-46.9 18.8 31.3 8.6 76.4 35.7 104.6 32.8 34.2 51.2-18.3 51.4-44.2.2-16.4-6.1-95.9 29.9-60 21.4 21.4 52.9 71.2 88.6 67 38.7-4.5-22.2-67.9-28.3-78.7 5.4 4.3 53.7 34.2 53.8 9.6.1-18.8-30.1-34.7-42.5-45.3"/></svg>