<svg height="512" width="320" xmlns="http://www.w3.org/2000/svg"><path d="M275.1 334c-27.4 17.4-65.1 24.3-90 26.9l20.9 20.6 76.3 76.3c27.9 28.6-17.5 73.3-45.7 45.7-19.1-19.4-47.1-47.4-76.3-76.6L84 503.4C55.8 530.9 10.4 485.8 38.6 457.7 58 438.3 85.7 410.3 114.9 381.4l20.6-20.6c-24.6-2.6-62.9-9.1-90.6-26.9C12.3 312.9-2 300.6 10.6 274.9 18 260.3 38.3 248 65.2 269.2c0 0 36.3 28.9 94.9 28.9S255 269.2 255 269.2c26.9-21.1 47.1-8.9 54.6 5.7 12.4 25.7-1.9 38-34.5 59.1M30.3 129.7C30.3 58 88.6 0 160 0s129.7 58 129.7 129.7c0 71.4-58.3 129.4-129.7 129.4S30.3 201.1 30.3 129.7m66 0c0 35.1 28.6 63.7 63.7 63.7s63.7-28.6 63.7-63.7c0-35.4-28.6-64-63.7-64s-63.7 28.6-63.7 64"/></svg>