<svg height="512" width="640" xmlns="http://www.w3.org/2000/svg"><path d="M629.8 160.3 416 224l-50.5-25.2A64.1 64.1 0 0 0 336.9 192H280v-48h56c8.8 0 16-7.2 16-16v-16c0-8.8-7.2-16-16-16H176c-8.8 0-16 7.2-16 16v16c0 8.8 7.2 16 16 16h56v48h-56L37.7 166.9a32 32 0 0 0-5.8-.6C14.7 166.3 0 180.4 0 198.3v95c0 15.5 11.1 28.7 26.3 31.5L96 337.5V384c0 17.7 14.3 32 32 32h274.6c8.6 0 16.8-3.4 22.8-9.5L637.6 191.7c1.5-1.5 2.4-3.5 2.4-5.6V168c0-5.3-5.1-9.2-10.2-7.7M96 288.7l-48-8.8v-62.4l48 8.7zm453.3 84.6c0 23.6 19.1 42.7 42.7 42.7s42.7-19.1 42.7-42.7S592 288 592 288s-42.7 61.8-42.7 85.3"/></svg>