<svg height="512" width="496" xmlns="http://www.w3.org/2000/svg"><path d="M235.8 10.2c7.5-.3 15-.2 22.5-.1 3.6.2 7.2.4 10.8.8 4.9.2 9.7 1 14.6 1.6 3 .4 5.9 1 8.8 1.5 7.9 1.3 15.6 3.2 23.4 5.4 12.2 3.4 24.2 7.9 35.7 13.2 26.6 12.2 51 29.2 71.7 49.8 20 20.1 36.7 43.6 48.8 69.2 1.2 2.6 2.5 5.1 3.5 7.8 2.8 6.4 5.4 12.9 7.6 19.6 4.1 12.3 7.3 25 9.4 37.8.6 3.2 1.1 6.3 1.4 9.5.6 3.8.9 7.7 1.2 11.6.8 8.3.8 16.7.8 25.1-.1 4.9-.3 9.9-.8 14.8-.2 3.4-.5 6.8-1 10.2-.4 2.7-.6 5.4-1.1 8.1-.9 5.2-1.7 10.3-2.9 15.5-4.1 18.5-10.3 36.5-18.5 53.6C456 398 432.9 427.4 404.6 450.3a246.5 246.5 0 0 1-56.9 34.9c-6.2 2.6-12.5 5.2-18.9 7.4-3.5 1.1-7 2.4-10.5 3.4-6.7 1.8-13.3 3.6-20.1 5-4.6.9-9.3 1.7-14 2.4-5.3.7-10.5 1.5-15.8 1.8-6.7.6-13.4.8-20.1.8-6.8 0-13.7-.1-20.5-.8-3.3-.2-6.5-.5-9.8-.9-2.7-.4-5.5-.7-8.2-1.2-4.1-.7-8.2-1.3-12.3-2.2-4.3-.9-8.5-1.9-12.7-3-8.6-2.2-17.1-5-25.4-8.1-10.5-4.1-20.8-8.8-30.7-14.3-2.1-1.1-4.2-2.3-6.3-3.5A244 244 0 0 1 90.5 449.6C55.8 421.2 29.1 383.2 14.1 340.9Q9.45 327.85 6.3 314.2C4.8 308.1 3.8 301.8 2.7 295.6c-.4-2.4-.6-4.8-.9-7.1-.6-4-.8-8-1.2-12-.8-9.4-.7-18.9-.5-28.4.2-3.6.4-7.1.7-10.6.3-3.1.5-6.3.9-9.5.4-2.8.7-5.6 1.2-8.4.7-4 1.3-7.9 2.1-11.8C8.4 191.2 13.5 175 20.3 159.6c1.1-2.9 2.6-5.7 3.8-8.6C32.2 134.3 42 118.4 53.6 103.9c20-25.3 45.1-46.6 73.3-62.4 7.5-4.2 15.2-8.1 23.1-11.4 15.8-6.9 32.4-12 49.3-15.4 3.5-.7 7-1.2 10.5-1.8 2.7-.5 5.3-.7 7.9-1.1 3.6-.5 7.1-.7 10.7-1.1 2.5-.2 4.9-.3 7.4-.5m8.6 24.4c-9.2.1-18.4 1-27.6 2.3-7.3 1.1-14.5 2.6-21.7 4.3-13.9 3.5-27.5 8.3-40.4 14.4-10.5 5-20.6 10.7-30.2 17.2-4.2 2.9-8.4 5.8-12.4 9-5 4-9.9 8.2-14.6 12.6-2.6 2.3-4.9 4.7-7.3 7.1C62 130.3 41.8 166.9 32.7 206.2c-2 8.4-3.5 17-4.4 25.6-1.1 8.9-1.4 17.9-1.4 26.8.1 7.2.4 14.3 1.2 21.4.6 7.1 1.9 14.2 3.2 21.2 1.1 4.6 2 9.3 3.3 13.9 6.3 23.4 16.5 45.7 30.1 65.7 8.6 13 18.8 25 30 35.8 16.3 15.8 35 29.1 55.3 39.2 7.3 3.6 14.7 6.9 22.3 9.7 5 1.7 10.1 3.5 15.2 4.9 11.3 3.3 22.8 5.6 34.4 7.1q4.35.45 8.7.9c13.8 1.1 27.8 1 41.6-.4 4.4-.6 8.9-1 13.3-1.8 3.6-.7 7.3-1.3 10.9-2.1 4.1-1 8.3-1.9 12.4-3.1 26.5-7.3 51.5-19.7 73.5-36.2 15.8-11.8 30-25.7 42.1-41.3 3.3-4 6.2-8.3 9.2-12.5 3.4-5.1 6.6-10.3 9.6-15.5q3.6-6.75 6.9-13.5c5.7-12 10.3-24.6 13.8-37.5 2.6-10 4.7-20.1 5.9-30.4 1.7-13.5 1.9-27.1 1.3-40.7-.3-3.9-.7-7.8-1-11.6-2.3-19.1-6.8-38-13.8-55.8-6-15.2-13.6-29.7-22.7-43.2C420.9 114 405.4 97.1 387.7 83 362.6 63 333.2 48.4 302 40.9 294.2 39 286.3 37.6 278.4 36.5c-3.9-.6-7.9-.9-11.8-1.3q-11.1-.75-22.2-.6M139.3 83.5c13.3-8.9 28-15.3 43.3-20.1-3.2 1.7-6.5 3.3-9.6 5.2-11.2 6.7-21.5 14.9-30.3 24.5-6.9 7.5-12.8 15.8-17.1 24.9-3.3 6.9-5.6 14.2-6.8 21.7-1 4.9-1.3 9.8-1.2 14.8.1 13.6 4.4 27.1 11.3 38.8 5.9 10.2 13.6 19.3 22.4 27.3 4.8 4.3 10.2 8 14.9 12.6 2.3 2.1 4.5 4.4 6.4 6.9 2.7 3.3 4.9 7 6 11.1.9 3 .7 6.2.7 9.3q0 6.15 0 12.3c.2 3.5 0 7.1.2 10.6 0 2.4 0 4.8 0 7.1.2 5.8.1 11.6.2 17.3.1 3 0 5.9.1 8.8 0 1.6.1 3.3 0 4.9-.9.1-1.9.2-2.8.2-11 0-21.8-2.7-31.9-7-6-2.7-11.8-5.9-17.1-9.8a97.7 97.7 0 0 1-15.8-14.3c-6.5-7.2-12-15.4-16.6-24-1.1-2-2.3-4-3.2-6.1-1.2-2.6-2.6-5.1-3.7-7.8-4-9.7-6.5-19.9-8-30.3C80.2 218 79.6 213.5 79.5 209c-.7-15.7.8-31.5 4.6-46.8 2.1-8.1 4.8-16.2 8.3-23.8 6.4-14.2 15.4-27.2 26.3-38.2C125 94 131.9 88.4 139.3 83.5M314.6 63.4c2.8.7 5.4 1.7 8.1 2.7 6.4 2.3 12.7 4.8 18.7 7.9 13.1 6.5 25.3 14.9 35.8 25 10.2 10 18.8 21.6 25.2 34.4 1.3 2.7 2.6 5.4 3.8 8.2 6.3 15.1 10 31.3 11.2 47.6.4 4.5.5 9.1.5 13.6 0 11.7-1.5 23.3-4.3 34.6-2 7.2-4.4 14.4-7.9 21.1-3.2 6.7-6.7 13.2-10.8 19.3-7 10.5-15.6 19.8-25.8 27.2-10.5 7.6-22.7 13-35.4 15.4-3.6.7-7.1 1.1-10.7 1.2-1.9 0-3.7.2-5.6-.1-.2-2.2 0-4.3 0-6.5 0-3.7.2-7.4.1-11.1.2-7.1 0-14.1.2-21.1.1-2.4 0-4.8.1-7.2.1-5-.1-10.1.1-15.2.1-3-.2-6 .5-8.9.7-2.5 1.8-4.9 3.1-7.1 4.5-7.3 11.1-13 17.7-18.3 5.4-4.1 10.5-8.7 15-13.8 7.7-8.4 14.2-17.9 18.8-28.3 2.5-5.9 4.5-12.1 5.5-18.4.9-4.4 1.1-8.9 1-13.3 0-7.9-1.4-15.7-3.6-23.2-1.7-5.7-4.3-11.2-7.1-16.4-3.9-7-8.6-13.3-13.9-19.2-10-10.9-21.8-20-34.6-27.1-1.9-1-3.9-1.8-5.7-3m-100.8 58.5c1-1.2 2-2.4 3.1-3.4-.6.9-1.2 1.8-1.9 2.7-3.1 3.8-5.5 8.3-7 13-.9 3.3-1.7 6.6-1.8 10 0 2.5 0 5.1.4 7.6 1.1 7.6 4.3 14.8 8.7 21.1 2 2.7 4.3 5.3 7 7.3 1.6 1.3 3.5 2.1 5.3 3.1 3.1 1.7 6.3 3.2 9.1 5.5 2.6 2.1 4.5 5.3 4.4 8.8 0 73.6 0 147.3 0 221 0 1.3-.1 2.7 0 4 .1 1.5.8 2.9 1.5 4.2.8 1.6 1.7 3.3 3.1 4.6.9.8 2 1.4 3.2 1.2 1.5-.2 2.7-1.3 3.4-2.5 1-1.5 1.7-3.2 2.3-4.9.8-2.1.5-4.4.6-6.6.1-4-.1-8.1.1-12.1 0-5.9 0-11.8.1-17.7.1-3.6 0-7.2.1-10.8.1-4.1-.1-8.1.1-12.1 0-6 0-12 .1-18 .1-3.6 0-7.2.1-10.8.1-4 0-7.9.1-11.8.1-6 .1-12 .1-18 .1-3.9 0-7.9.2-11.8.3 1.4.1 2.9.2 4.4.2 3.6.4 7.2.8 10.8.3 3.4.4 6.9.8 10.3.4 3.1.5 6.2 1 9.3.5 4.1.8 8.2 1.5 12.3 1.5 9.1 2.8 18.1 5.1 27 1.1 4.8 2.4 9.6 4 14.3 2.5 7.9 5.7 15.7 10.3 22.6 1.7 2.7 3.9 5 6.1 7.2.3.3.6.6.9.8.6.2 1.3-.1 1.7-.6.7-.9 1.2-2 1.7-2.9 4-7.8 8.2-15.6 12.3-23.4.7-1.3 1.5-2.6 2.6-3.6 1.7-1.5 3.8-2.7 6-3.6 2.9-1.2 5.9-2.2 9-2.4 6.6-.6 13.1.7 19.6 1.8 3.6.6 7.4 1.2 11.1 1.4 3.7.1 7.5.1 11.2-.2 8.5-1 17-3 24.9-6.3 5.3-2.2 10.5-4.8 15.3-7.9 11.5-7.2 21.5-16.6 30.1-27 1.2-1.4 2.2-2.9 3.4-4.3-1.2 3.2-2.6 6.4-4.1 9.5-1.3 2.9-2.9 5.6-4.3 8.4-5.1 9.6-11 18.9-17.7 27.5-4.1 5.2-8.6 10.1-13.4 14.6-6.6 6-14 11.4-22.4 14.7-8.2 3.4-17.3 4.7-26.1 3.3-3.5-.5-7-1.7-10.4-2.8-2.8-1-5.4-2.4-8-3.7-3.5-1.7-6.7-3.8-9.7-6.1 2.7 3 5.7 5.8 8.7 8.6 4.2 3.8 8.7 7.3 13.6 10.2 4 2.5 8.3 4.4 12.8 5.5 1.5.4 3 .5 4.5.6-1.3 1.1-2.6 2.1-4 3-9.6 6.6-20 11.9-30.7 16.4-20.9 8.7-43.2 14-65.7 15.4-4.7.2-9.4.3-14 .3-5-.1-10-.1-14.9-.6-11.2-.8-22.3-2.7-33.2-5.4-10.4-2.7-20.6-6.2-30.3-10.6-8.7-3.8-17.1-8.4-25-13.8-1.8-1.3-3.7-2.5-5.4-4.1 6.6-1.1 13.1-3.3 19-6.4 5.8-2.9 11-6.7 15.7-11.1 2.2-2.2 4.2-4.6 6.1-7.1-3.4 2.1-6.9 4.2-10.6 5.8-4.4 2.1-9 3.8-13.8 5-5.7 1.5-11.7 1.7-17.6 1.1-8.1-.9-15.9-4.2-22.5-8.9-4.3-3-8.2-6.5-12-10.1C90.5 384.5 82.2 372.9 74.8 360.8c-4-6.2-7.6-12.7-11.1-19.2-1.1-2-2.2-4-3.2-6.1 2.8 2.9 5.5 6 8.4 8.9 9 9 18.6 17.4 29.2 24.5 7.5 4.9 15.6 9.2 24.5 11 3.1.7 6.3.5 9.5.8 2.8.3 5.6.2 8.3.3 5.1.1 10.1.1 15.2-.1 3.6-.2 7.3-.7 10.9-1.1 2.1-.3 4.1-.7 6.1-1.2 3.9-1 8.1-1 11.9.6 4.7 1.8 8.4 5.6 11.3 9.7q3.3 4.5 5.7 9.6c1.2 2.4 2.5 4.8 3.5 7.2 1 2.3 2.2 4.5 3.5 6.6.6 1 1.4 2.1 2.6 2.5 1-.7 1.7-1.9 2.3-3 2.1-4.2 3.4-8.7 4.9-13.1 2-6.6 3.7-13.2 5.1-20 2.3-9.2 3.3-18.7 4.6-28.1.5-4 .8-8 1.3-12 .9-10.6 1.9-21.3 2.2-31.9.1-1.9.3-3.7.3-5.6 0-4.4.2-8.7.2-13q0-3.6 0-7.2c.1-5-.2-10.1-.2-15.2-.2-6.6-.7-13.2-1.3-19.8-.7-5.8-1.6-11.7-3.1-17.5-2.1-7.7-5.6-15-9.8-21.8-3.2-5.1-6.8-9.9-11.1-14-3.9-3.9-8.6-7.1-14-8.5-1.5-.4-3-.4-4.5-.6 0-3 .7-5.9 1.2-8.9 1.6-7.7 3.8-15.3 6.8-22.6 1.5-4 3.4-7.9 5.4-11.7 3.4-6.5 7.6-12.8 12.4-18.4m31.3 1.7c.3-.1.7-.2 1.1-.2.2 1.8.1 3.6.1 5.3v38.2c0 1.7.1 3.5-.2 5.2-.3 0-.7-.1-1-.1-1-3.7-1.8-7.5-2.7-11.3-.3-1.5-.5-3.1-1-4.6-1.7-.2-3.5-.1-5.2-.2-5 0-10.1 0-15.2 0-1.6 0-3.3.1-5 0 0-.4-.2-.9.2-1.2 1.3-.6 2.7-.9 4.1-1.3 3.4-1.2 6.8-2.2 10.3-3.3 1.4-.5 2.9-.8 4.1-1.6.1-.5.1-1.1 0-1.7-1.2-.5-2.5-.8-3.8-1.2-3.2-1.1-6.3-2-9.4-3.1-1.8-.6-3.7-1-5.4-1.7-.1-.4-.1-.8-.2-1.1 5.1-.2 10.2 0 15.3-.2 3.4-.1 6.8.1 10.1 0 .2-.4.3-.8.4-1.2 1.1-4.9 2.3-9.8 3.4-14.7m6-.2c.3 0 .7.1 1.1.2.9 3.8 1.7 7.7 2.7 11.6.3 1.4.5 2.9 1 4.2 2.5.2 5.1 0 7.6.1 5.2.1 10.3.1 15.5.1.8 0 1.5 0 2.3 0-.1.4-.1.8-.1 1.1-1.9.9-3.8 1.3-5.7 1.9-3.7 1.2-7.5 2.4-11.2 3.6-.6.2-1.1.4-1.7.6-.1.6-.2 1.1-.1 1.7.9.5 1.8.8 2.8 1.1 4.8 1.5 9.7 3.1 14.6 4.6.4.1.8.3 1.1.5.4.3.2.8.2 1.2-1.7.1-3.3 0-5 0-5.2 0-10.3 0-15.5 0-1.6.1-3.2 0-4.8.2-.5 1.7-.7 3.5-1.2 5.1-.9 3.6-1.5 7.3-2.5 10.8-.4 0-.7 0-1.1.1-.3-1.7-.1-3.5-.1-5.2v-38.2c0-1.7-.1-3.5.1-5.3M65 168.3c1.2-2.1 2.1-4.4 3.4-6.4-1.8 7.5-2.9 15.2-3.6 23-.8 7.7-.9 15.5-.5 23.2 1 19.9 5.5 39.8 14.2 57.9 3 6 6.3 11.8 10.5 17.1 6.1 7.5 12.5 14.8 19.8 21.1 4.8 4.1 10 7.8 15.6 10.8 3.2 1.6 6.5 3.4 9.9 4.7 5 2 10.2 3.6 15.4 4.9 3.9 1 7.8 1.4 11.6 2.7 5 1.6 9.4 4.6 13 8.4 4.9 5.3 8.1 11.9 10.2 18.7 1 2.9 1.6 5.9 2.1 8.9.2.8.3 1.6.2 2.3-6.5 2.8-13.3 5.1-20.3 6.2-4.1.8-8.2 1-12.4 1.1-10.3.2-20.5-1.8-30.1-5.1-3.8-1.5-7.5-2.9-11.1-4.8-8-3.8-15.6-8.7-22.4-14.4-2.9-2.6-5.9-5.1-8.4-8C72.9 330.7 65.8 319.1 60.3 306.9c-2.4-5.5-4.6-11.2-6.4-17C52.7 286 51.6 282.1 50.7 278c-.8-2.9-1.3-5.9-1.9-8.9-.5-2.1-.7-4.3-1-6.5-.9-5.4-1.3-10.9-1.4-16.4.1-6.2.3-12.4 1.1-18.5.4-2.9.7-5.7 1.1-8.6 1-5.7 2.2-11.4 3.8-16.9 3-11.7 7.4-23 12.6-33.9m363.8-6.4c1.1 1.7 1.9 3.5 2.8 5.3 2.1 4.4 4.2 8.9 6 13.4 7.6 18.8 12.3 38.8 13 59.1 0 1.7.1 3.5.1 5.3.2 9.5-1.2 19.1-3.1 28.4-.8 3.6-1.6 7.2-2.6 10.7-4.1 14.7-10 29-18.4 41.8-8.2 12.6-19 23.5-31.9 31.4-5.7 3.6-11.8 6.6-18 9.2-5.8 2.2-11.7 4-17.8 5.1-6.4 1.1-12.9 1.5-19.4 1.2-7.9-.4-15.8-2-23.2-4.8-2-.8-4-1.5-5.9-2.3-.2-1.5.3-3 .6-4.5 1.1-5.7 3-11.4 5.7-16.6 2.3-4.5 5.5-8.6 9.4-11.9 2.4-2 5.3-3.6 8.2-4.8 3.6-1.5 7.4-2 11.2-2.8 7.2-1.7 14.4-4 21.2-7 10.3-4.7 19.7-11.4 27.6-19.5 1.6-1.6 3.2-3.2 4.8-4.9 3.3-3.7 6.7-7.5 9.8-11.5 7.5-10.1 12.8-21.6 16.7-33.5 1.6-5.3 3.2-10.6 4.2-16q.9-4.35 1.5-8.7c.9-6.1 1.6-12.2 1.7-18.4.1-6.6.2-13.3-.5-19.9-.7-8-1.9-16-3.7-23.8"/></svg>