<svg height="512" width="512" xmlns="http://www.w3.org/2000/svg"><path d="M360.6 60.9a10.4 10.4 0 0 0 14.8 0l21.5-21.5a10.4 10.4 0 0 0 0-14.8L375.4 3.1a10.44 10.44 0 0 0-14.8 0L339 24.6a10.4 10.4 0 0 0 0 14.8zM412.1 192c-26.7 0-51.8 10.4-70.6 29.3l-24.3 24.2c-6.8 6.8-15.8 10.5-25.4 10.5H245c10.5-22.1 14.2-48.1 7.7-75.2C242.6 138.2 206.4 104.7 163.2 97.6c-36.1-6-70.9 5-96 28.8-7.4 6.9-7 18.8 1.1 24.9l26.2 19.6c5.7 4.3 13.6 4.3 19.2-.2 8.4-6.9 19-10.7 30.2-10.7 26.5 0 48 21.5 48 48s-21.5 48-48 48H112c-11.9 0-19.7 12.6-14.4 23.3l16.1 32.1c2.6 5.1 7.6 8.2 13.2 8.6h33c35.3 0 64 28.7 64 64s-28.7 64-64 64C63.9 448 37.6 394 14.8 356 10.3 348.4 0 352.4 0 361.2-.1 416 41.1 512 159.9 512 230.5 512 288 454.6 288 384c0-23.4-6.8-45.1-17.8-64h21.6c26.7 0 51.8-10.4 70.7-29.2l24.2-24.3c6.8-6.8 15.8-10.5 25.4-10.5 19.8 0 35.9 16.1 35.9 35.9V392c0 13.2-18.8 24-32 24-39.4 0-66.7-24.2-81.8-42.9-4.8-5.9-14.2-2.5-14.2 5V416s0 64 96 64c48.5 0 96-39.5 96-88V291.9C512 236.8 467.2 192 412.1 192M454.3 67.3c-85.6 65.1-169.1 2.7-172.6 0-6-4.6-14.4-4.4-20.1.6-5.8 4.9-7.3 13.1-3.7 19.8 1.6 2.9 40.4 72.3 118.8 72.3 79.9 0 98.8-31.4 101.8-37.7 1-2.1 1.5-4.4 1.5-6.8V80C480 66.8 464.9 59.3 454.3 67.3"/></svg>