<svg height="512" width="496" xmlns="http://www.w3.org/2000/svg"><path d="M313.9 32.7C143.7 32.7 61.3 256.5 166.4 387.8c36.5 45.4 88.6 75.6 147.5 75.6 36.3 0 70.3-11.1 99.4-30.4C369.5 472.2 311.4 496 248 496c-3.9 0-8 0-11.9-.3C104.6 489.6 0 381.1 0 248 0 111 111 0 248 0h.8c63.1.3 120.7 24.1 164.4 63.1C384.2 43.7 350.1 32.7 313.9 32.7m101.8 397.7c-40.9 24.7-90.7 23.6-132-5.8C339.9 404.1 381.4 333 381.4 248 381.4 163.3 340.2 92.2 284 71.4c41.8-29.2 91.2-30.3 132.9-5 105.9 98.7 105.5 265.7-1.2 364"/></svg>