<svg height="512" width="640" xmlns="http://www.w3.org/2000/svg"><path d="M608 32h-32L562.8 18.8A64 64 0 0 0 517.5 0H497c-11.1 0-22.1 2.9-31.7 8.4L312 96h-56C150 96 64 182 64 288v1.6c0 32.8-16 62.2-39.6 84.9C6.2 392.1-3.7 418.2 1.2 446.3 8 485.1 44.1 512 83.5 512H192c17.7 0 32-14.3 32-32s-14.3-32-32-32H80c-8.8 0-16-7.2-16-16s7.2-16 16-16h224c8.8 0 16-7.2 16-16v-16c0-17.7-14.3-32-32-32h-64l149.5-80.5L448 416h80c8.8 0 16-7.2 16-16v-16c0-17.7-14.3-32-32-32h-28.2L428.7 241.8 521.1 192H544c53 0 96-43 96-96V64C640 46.3 625.7 32 608 32m-96 16c8.8 0 16 7.2 16 16s-7.2 16-16 16S496 72.8 496 64s7.2-16 16-16m32 96h-35l-101.8 54.8-13.8-27.5L512 112h77c-6.6 18.6-24.2 32-45 32"/></svg>