<svg height="512" width="448" xmlns="http://www.w3.org/2000/svg"><path d="M100.7 363.3c10 10 27.3 2.9 27.3-11.3V160c0-14.3-17.3-21.3-27.3-11.3l-96 96a16 16 0 0 0 0 22.6zM432 416H16A16 16 0 0 0 0 432v32a16 16 0 0 0 16 16h416a16 16 0 0 0 16-16v-32a16 16 0 0 0-16-16m3.2-128H204.8A12.8 12.8 0 0 0 192 300.8v38.4a12.8 12.8 0 0 0 12.8 12.8h230.4A12.8 12.8 0 0 0 448 339.2v-38.4A12.8 12.8 0 0 0 435.2 288m0-128H204.8A12.8 12.8 0 0 0 192 172.8v38.4a12.8 12.8 0 0 0 12.8 12.8h230.4A12.8 12.8 0 0 0 448 211.2v-38.4A12.8 12.8 0 0 0 435.2 160M432 32H16A16 16 0 0 0 0 48v32a16 16 0 0 0 16 16h416a16 16 0 0 0 16-16V48A16 16 0 0 0 432 32"/></svg>