<svg height="512" width="448" xmlns="http://www.w3.org/2000/svg"><path d="M43.2 466.1C-15.2 405.9-14.1 308.6 44.6 248.6L254.4 34c44.3-45.3 116.3-45.3 160.7 0 43.9 44.9 43.9 117.3 0 162.3L232.2 383.1c-29.8 30.6-78.6 30.1-108-1C96 352.2 96.9 304.7 125.7 275.2L269.4 128.3c6.2-6.3 16.3-6.4 22.7-.2l22.8 22.4c6.3 6.2 6.4 16.3.3 22.6L171.4 319.9c-4.9 5.1-5.2 13.5-.6 18.3 4.4 4.7 11.2 4.7 15.7.2L369.3 151.5c19.6-20 19.6-52.7 0-72.8-19.2-19.6-50-19.6-69.1 0L90.4 293.3c-34.8 35.6-35.3 93.1-1.2 128.3 34 35.1 89 35.1 123.1.3l172-176c6.2-6.3 16.3-6.4 22.6-.3l22.9 22.4c6.3 6.2 6.5 16.3.3 22.6L258 466.6c-59.6 61-155.9 60.2-214.8-.5"/></svg>