<svg height="512" width="448" xmlns="http://www.w3.org/2000/svg"><path d="M129.6 176h39.1c1.5-27 6.6-51.3 14.2-70.4-27.7 13.2-48 39.2-53.3 70.4m0 32c5.3 31.2 25.6 57.2 53.3 70.4C175.2 259.3 170.2 235 168.7 208zm94.4 78.7c7.7-7.5 20.8-34.4 23.4-78.7h-46.8c2.6 44.3 15.7 71.2 23.4 78.7M200.6 176h46.8C244.8 131.7 231.7 104.8 224 97.3c-7.7 7.5-20.8 34.4-23.4 78.7m64.5 102.4c27.7-13.2 48-39.2 53.3-70.4h-39.1c-1.5 27-6.5 51.3-14.2 70.4M416 0H64C28.6 0 0 28.6 0 64v384c0 35.4 28.6 64 64 64h352c17.7 0 32-14.3 32-32V32C448 14.3 433.7 0 416 0m-80 416H112c-8.8 0-16-7.2-16-16s7.2-16 16-16h224c8.8 0 16 7.2 16 16s-7.2 16-16 16M224 320C153.3 320 96 262.7 96 192S153.3 64 224 64s128 57.3 128 128S294.7 320 224 320m41.1-214.4c7.7 19.1 12.7 43.4 14.2 70.4h39.1c-5.3-31.2-25.6-57.2-53.3-70.4"/></svg>