<svg height="512" width="640" xmlns="http://www.w3.org/2000/svg"><path d="M624.5 347.7c-32.7-12.5-57.3 4.2-75.3 16.4-17.1 11.5-23.3 14.4-31.4 11.4-8.2-3.1-10.9-9.4-15.9-29.4-3.4-13.1-7.5-29.3-18-42.6 2.3-3 4.5-5.8 6.4-8.6 10.2 9.5 23.4 17.1 41.7 17.1 34 0 50.9-25.8 62.1-42.8C604.6 253 609.1 248 616 248c13.3 0 24-10.7 24-24s-10.7-24-24-24c-34 0-50.9 25.8-62.1 42.8C543.3 259 538.9 264 532 264c-17.3 0-37.5-61.4-97.3-101.9L452 127.6C485.4 125.5 512 98 512 64 512 28.6 483.4 0 448 0s-64 28.6-64 64c0 13 3.9 25.1 10.6 35.2l-18.1 36.3C359.5 130.9 340.9 128 320 128s-39.5 2.9-56.4 7.5L245.4 99.2A63.46 63.46 0 0 0 256 64C256 28.6 227.3 0 192 0s-64 28.6-64 64c0 34 26.6 61.5 60 63.6l17.3 34.5C145.7 202.4 125.2 264 108 264c-6.9 0-11.3-5-21.9-21.2C74.9 225.8 58 200 24 200 10.8 200 0 210.8 0 224s10.8 24 24 24c6.9 0 11.3 5 21.9 21.2C57.1 286.2 74 312 108 312c18.3 0 31.5-7.6 41.7-17.1 1.9 2.8 4.1 5.7 6.4 8.6-10.5 13.3-14.6 29.5-18 42.6-5 20-7.7 26.3-15.9 29.4-8.1 3-14.3.2-31.4-11.4C72.8 351.9 48.1 335.2 15.5 347.7 3.1 352.4-3.1 366.3 1.6 378.6c4.7 12.5 18.6 18.7 31 13.9 8.1-3.1 14.3-.2 31.3 11.4 13.6 9.2 30.9 20.9 52.5 20.8 7.1 0 14.8-1.3 22.9-4.4 32.7-12.4 40-41.3 45.4-62.4 2.2-8.7 4-14.5 5.9-18.9 16.6 13.6 37 25.9 61.7 34.2-10 37-32.2 90.8-60.3 90.8-13.2 0-24 10.8-24 24s10.8 24 24 24c66.7 0 97.1-88.6 107.4-129.1 6.7.6 13.4 1.1 20.6 1.1s13.9-.5 20.6-1.1C350.9 423.4 381.3 512 448 512c13.3 0 24-10.7 24-24s-10.7-24-24-24c-27.9 0-50.2-53.8-60.2-90.8 24.7-8.3 45-20.6 61.6-34.2 2 4.4 3.7 10.2 5.9 18.9 5.4 21.1 12.7 50 45.4 62.4 8.1 3.1 15.8 4.4 22.9 4.4 21.6 0 38.9-11.7 52.5-20.8 17-11.6 23.2-14.5 31.4-11.4 12.3 4.8 26.2-1.4 30.9-13.9 4.7-12.3-1.5-26.2-13.9-30.9M448 48c8.8 0 16 7.2 16 16s-7.2 16-16 16S432 72.8 432 64s7.2-16 16-16m-256 0c8.8 0 16 7.2 16 16s-7.2 16-16 16S176 72.8 176 64s7.2-16 16-16"/></svg>