<svg height="512" width="448" xmlns="http://www.w3.org/2000/svg"><path d="M128 184c0-30.9 25.1-56 56-56h136V56C320 42.7 309.3 32 296 32h-80.6C204.3 12.9 183.6 0 160 0s-44.3 12.9-55.4 32H24C10.7 32 0 42.7 0 56v336c0 13.3 10.7 24 24 24h104zM160 40c13.3 0 24 10.7 24 24s-10.7 24-24 24S136 77.3 136 64s10.7-24 24-24m184 248h104v200c0 13.3-10.7 24-24 24H184c-13.3 0-24-10.7-24-24V184c0-13.3 10.7-24 24-24h136v104c0 13.2 10.8 24 24 24m104-38.1v6.1h-96v-96h6.1a24 24 0 0 1 16.9 7l66 66a24 24 0 0 1 7 16.9"/></svg>