<svg height="1000" width="1000" xmlns="http://www.w3.org/2000/svg"><path d="M500 15.6c267.6 0 484.4 216.8 484.4 484.4S767.6 984.4 500 984.4 15.6 767.6 15.6 500 232.4 15.6 500 15.6zm0 875c215.8 0 390.6 -174.8 390.6 -390.6S715.8 109.4 500 109.4 109.4 284.2 109.4 500 284.2 890.6 500 890.6zM687.5 343.8v312.5c0 17.1 -14.1 31.2 -31.2 31.2h-93.8c-17.2 0 -31.2 -14.1 -31.2 -31.2V343.8c0 -17.2 14 -31.3 31.2 -31.3h93.8c17.1 0 31.2 14.1 31.2 31.3zm-218.7 0v312.5c0 17.1 -14.1 31.2 -31.3 31.2h-93.7c-17.2 0 -31.3 -14.1 -31.3 -31.2V343.8c0 -17.2 14.1 -31.3 31.3 -31.3h93.7c17.2 0 31.3 14.1 31.3 31.3z"/></svg>