<svg height="512" width="512" xmlns="http://www.w3.org/2000/svg"><path d="M256 224C176.6 224 64 346.8 64 424.3c0 34.8 26.8 55.7 71.7 55.7 48.9 0 81.1-25.1 120.3-25.1 39.5 0 71.9 25.1 120.3 25.1 44.9 0 71.7-20.9 71.7-55.7C448 346.8 335.4 224 256 224M108.7 211.4C98.3 176.7 66.3 154.3 37.2 161.3 8 168.2-7.1 201.9 3.3 236.6s42.4 57.1 71.5 50.1c29.2-6.9 44.3-40.7 33.9-75.3m84.7-20.8c31-8.1 46.5-49.9 34.6-93.4s-46.5-72-77.4-63.8S104.1 83.3 116 126.7c11.8 43.5 46.5 72.1 77.4 63.9m281.4-29.3c-29.1-7-61.1 15.4-71.5 50.1-10.4 34.6 4.7 68.4 33.9 75.3 29.1 7 61.1-15.4 71.5-50.1 10.4-34.6-4.8-68.4-33.9-75.3m-156.2 29.3c30.9 8.2 65.6-20.4 77.4-63.9C407.9 83.3 392.4 41.5 361.4 33.4S295.8 53.8 284 97.2c-11.9 43.5 3.6 85.3 34.6 93.4"/></svg>