<svg height="512" width="512" xmlns="http://www.w3.org/2000/svg"><path d="M109.5 244 244 109.5 199.9 65.4 138.2 127a7.9 7.9 0 0 1-11.2 0l-11.2-11.2a7.907 7.907 0 0 1 0-11.2l61.7-61.7L143.9 9.3C131.5-3.1 111.4-3.1 99 9.3L9.3 99c-12.4 12.4-12.4 32.5 0 44.9zM497.9 127.2c18.8-18.7 18.8-49.1 0-67.9L452.7 14.1c-18.8-18.8-49.2-18.8-68 0l-46 46 113.2 113.2zM316.1 82.7l-297 297L.3 487.1c-2.5 14.5 10.1 27.1 24.6 24.6l107.5-18.9L429.3 195.9zm186.6 285.4-33.6-33.6-61.7 61.7c-3.1 3.1-8.1 3.1-11.2 0L385 385a7.907 7.907 0 0 1 0-11.2l61.7-61.7-44.2-44.2L267.9 402.5l100.2 100.2c12.4 12.4 32.5 12.4 44.9 0L502.7 413c12.4-12.4 12.4-32.5 0-44.9"/></svg>