<svg height="512" width="640" xmlns="http://www.w3.org/2000/svg"><path d="M421.9 164.3c-4.5 19.4-1.4 6-15.1 65.3l39.7-10.7c-22.3-49.6-17.2-38.4-24.6-54.6m-206.1 51.1c-20.2 5.4-11.3 3-39.6 10.6l4.5 46.1c28.1-7.5 20.6-5.5 34.8-9.3 42.3-9.8 32.8-56.4.3-47.4M542 189.2 496.5 90C490.8 77.6 477.1 71.1 463.9 74.7 393.6 93.4 425.2 85 328.3 110.9a27.6 27.6 0 0 0-18.9 17.4C144.3 113.3 0 153.8 0 226.7c0 33.5 30.7 67.1 80.9 95.3l1.7 17.9a27.9 27.9 0 0 0-17.7 28.7l4.3 44.5c1.4 14.3 13.4 25.2 27.8 25.2 5.2 0-3 1.7 122.5-31.8 12.6-3.4 21.1-15 20.6-28 216.6 45.5 402-6 399.9-84.8 0-28.2-22.2-66.6-98-104.5M255.1 298.3l-21.9 5.9-48.4 12.9 2.5 23.5 20.5-5.5 4.5 44.5L97 410.4l-4.3-44.5 20-5.3L101.6 245.9l-20.1 5.4-4.4-44.5c178.2-47.5 170.2-46.4 186.2-46.6C320 159 327.5 232 305.9 264.6a86.7 86.7 0 0 1-50.8 33.7m199.2 16.6-3.9-39.5 14.9-4-6.6-14.6L401 272.2l-4.1 17.5 19.2-5.1 4 39.6-112.8 30-4.5-44.4 21-5.6 33.1-126.5-17.2 4.6-4.2-44.5c93.4-25 65-17.4 135.6-36.2L537.8 247l20.8-5.5 4.3 44.5z"/></svg>