<svg height="512" width="576" xmlns="http://www.w3.org/2000/svg"><path d="M96 128A64 64 0 1 0 32 64a64 64 0 0 0 64 64m0 176.1a44.1 44.1 0 0 1 13.6-32L181.8 204c1.6-1.6 3.7-2.3 5.6-3.6A63.9 63.9 0 0 0 128 160H64A64 64 0 0 0 0 224v96a32 32 0 0 0 32 32v128a32 32 0 0 0 32 32h64a32 32 0 0 0 32-32v-96.4l-50.4-47.5A44.1 44.1 0 0 1 96 304.1M480 128A64 64 0 1 0 416 64a64 64 0 0 0 64 64m32 32h-64a63.9 63.9 0 0 0-59.4 40.4c1.9 1.3 4 2 5.6 3.6l72.2 68.1a44.4 44.4 0 0 1 0 64L416 383.6V480a32 32 0 0 0 32 32h64a32 32 0 0 0 32-32V352a32 32 0 0 0 32-32v-96a64 64 0 0 0-64-64m-67.6 135.3-72.1-68A12 12 0 0 0 352 236v36H224v-36a12 12 0 0 0-20.3-8.7l-72.1 68a12.4 12.4 0 0 0 0 17.5l72.1 68.1a12 12 0 0 0 20.3-8.8V336h128v36.1a12 12 0 0 0 20.3 8.8l72.1-68.1a12.4 12.4 0 0 0 0-17.5"/></svg>