<svg height="512" width="448" xmlns="http://www.w3.org/2000/svg"><path d="M305.3 284.6h-58.7v98.7h58.7q24.4 0 38.2-13.8t13.8-36.1q0-21.8-14.1-35.3t-37.9-13.5M149.4 128.7H90.7v98.7h58.7q24.5 0 38.2-13.7t13.8-36.2q0-21.8-14-35.3t-38-13.5M366.6 32H81.4A81.4 81.4 0 0 0 0 113.4v285.2A81.4 81.4 0 0 0 81.4 480h285.2A81.4 81.4 0 0 0 448 398.6V113.4A81.4 81.4 0 0 0 366.6 32m63.7 366.6a63.7 63.7 0 0 1-63.7 63.7H81.4A63.7 63.7 0 0 1 17.7 398.6V113.4A63.7 63.7 0 0 1 81.4 49.7h285.2a63.7 63.7 0 0 1 63.7 63.7zm-125-269.9h-58.7v98.7h58.7q24.4 0 38.2-13.7t13.8-36.2q0-21.8-14.1-35.3t-37.9-13.5"/></svg>