<svg height="512" width="448" xmlns="http://www.w3.org/2000/svg"><path d="M112 224c61.9 0 112-50.1 112-112S173.9 0 112 0 0 50.1 0 112s50.1 112 112 112m0-160c26.5 0 48 21.5 48 48s-21.5 48-48 48S64 138.5 64 112 85.5 64 112 64m224 224c-61.9 0-112 50.1-112 112s50.1 112 112 112S448 461.9 448 400 397.9 288 336 288m0 160c-26.5 0-48-21.5-48-48s21.5-48 48-48 48 21.5 48 48-21.5 48-48 48M392.3.2l31.6-.1c19.4-.1 30.9 21.8 19.7 37.8L77.4 501.6a23.9 23.9 0 0 1-19.6 10.2l-33.4.1C4.9 511.9-6.5 490 4.7 474.1l368-463.7A23.95 23.95 0 0 1 392.3.2"/></svg>