<svg height="512" width="448" xmlns="http://www.w3.org/2000/svg"><path d="M370 63.6C331.4 22.6 280.5 0 226.6 0 111.9 0 18.5 96.2 18.5 214.4c0 75.1 57.8 159.8 82.7 192.7C137.8 455.5 192.6 512 226.6 512c41.6 0 112.9-94.2 120.9-105 24.6-33.1 82-118.3 82-192.6C429.5 157.9 408.4 104.3 370 63.6M226.6 493.9c-42.5 0-190-167.3-190-279.4 0-107.4 83.9-196.3 190-196.3 100.8 0 184.7 89 184.7 196.3.1 112.1-147.4 279.4-184.7 279.4M338 206.8c0 59.1-51.1 109.7-110.8 109.7C126.6 316.5 76.5 208.3 134.3 134.7v.4c0 24.5 20.1 44.4 44.8 44.4s44.8-19.9 44.8-44.4c0-18.2-11.1-33.8-26.9-40.7 76.6-19.2 141 39.3 141 112.4"/></svg>