<svg height="512" width="512" xmlns="http://www.w3.org/2000/svg"><path d="M96 63.4C142.5 27.3 201.6 7.3 260.5 8.8c29.6-.4 59.1 5.4 86.9 15.3-24.1-4.6-49-6.3-73.4-2.4C231.2 27 191 48.8 162.2 80.9c5.7-1 10.8-3.7 16-5.9 18.2-7.9 37.5-13.2 57.2-14.8 19.8-2.1 39.7-.4 59.3 1.9-14.4 2.8-29.1 4.6-43 9.6-34.4 11.1-65.2 33.2-86.3 62.6-13.8 19.7-23.6 42.9-24.6 67.2-.4 16.4 5.2 34.8 19.8 44a53.3 53.3 0 0 0 37.5 6.7c15.4-2.5 30.1-8.6 43.6-16.3 11.5-6.9 22.7-14.6 32-24.3 3.8-3.2 2.5-8.4 2.6-12.8-2.1-.3-4.4-1.1-6.3.3a203 203 0 0 1-35.8 15.4c-20 6.2-42.2 8.5-62.1.8 12.8 1.7 26.1.3 37.7-5.5 20.3-9.7 36.9-25.2 54.5-38.7a526.6 526.6 0 0 1 88.9-55.3c25.7-12 52.9-22.8 81.5-24.2C419.1 105.4 402.6 118.2 388 133c-14.5 14-27.5 29.5-40.1 45.2-3.6 4.6-9 6.9-13.6 10.2a150.7 150.7 0 0 0-51.9 60.1c-9.3 19.6-14.5 41.8-11.8 63.6 2 13.7 8.7 27.6 20.9 34.9 12.9 8 29.1 8.1 43.5 5.1 32.8-7.4 61.4-28.9 81-55.8 20.4-27.5 30.5-62.2 29.2-96.4-.6-7.5-1.6-15-1.7-22.5 8 19.5 14.8 39.7 16.6 60.9 2 14.2.8 28.7-1.6 42.9-1.9 11-5.6 21.5-7.8 32.4a165 165 0 0 0 39.4-81.1A183.6 183.6 0 0 0 475.9 127.9c20.8 32 32.3 69.6 35.7 107.5.5 12.7.5 25.5 0 38.2A243.2 243.2 0 0 1 482 371.3c-26.1 47.4-68 85.7-117.2 108-78.3 36.3-174.7 31.4-248-14.6A248.3 248.3 0 0 1 25.4 366 238.3 238.3 0 0 1 0 273.1v-31.4C3.9 172 40.9 105.8 96 63.4m222 80.3a79 79 0 0 0 16-4.5c5-1.7 9.2-5.9 10.3-11.2-8.9 5-18 9.9-26.3 15.7"/></svg>