<svg height="512" width="640" xmlns="http://www.w3.org/2000/svg"><path d="m268.2 381.4-49.6-60.6c-6.8-8.3-18.2-11.1-28-6.9l-112 48C67.9 366.5 62.1 378 64.7 389.4l24 104c2.5 10.8 12.1 18.6 23.4 18.6 100.7 0 193.7-32.4 269.7-86.9l-80-61.8c-10.9 6.5-22.1 12.7-33.6 18.1m365.6 76.7L475.1 335.5C537.9 256.4 576 156.9 576 48c0-11.2-7.7-20.9-18.6-23.4l-104-24C442.1-2 430.5 3.9 425.9 14.5l-48 112c-4.2 9.8-1.4 21.3 6.9 28l60.6 49.6c-12.2 26.1-27.9 50.3-46 72.8L45.5 3.4C38.5-2 28.5-.8 23 6.2L3.4 31.4c-5.4 7-4.2 17 2.8 22.4l588.4 454.7c7 5.4 17 4.2 22.5-2.8l19.6-25.3c5.4-6.8 4.1-16.9-2.9-22.3"/></svg>