<svg height="512" width="448" xmlns="http://www.w3.org/2000/svg"><path d="M400 32H48A48 48 0 0 0 0 80v352a48 48 0 0 0 48 48h352a48 48 0 0 0 48-48V80A48 48 0 0 0 400 32m-16.4 307.4-15 65A15 15 0 0 1 354 416C194 416 64 286.3 64 126a15.7 15.7 0 0 1 11.6-14.6l65-15A18 18 0 0 1 144 96a16.3 16.3 0 0 1 13.8 9.1l30 70a17.9 17.9 0 0 1 1.2 5.9 17 17 0 0 1-5.5 11.6l-37.9 31a231.9 231.9 0 0 0 110.8 110.8l31-37.9A17 17 0 0 1 299 291a17.9 17.9 0 0 1 5.9 1.2l70 30A16.3 16.3 0 0 1 384 336a17.4 17.4 0 0 1-.4 3.4"/></svg>