<svg height="512" width="384" xmlns="http://www.w3.org/2000/svg"><path d="M97.3 507C-32.5 377.1-32.3 166.7 97.3 37c5.7-5.7 14.6-6.6 21.3-2.4l64.8 40.5a17.2 17.2 0 0 1 6.9 21l-32.4 81a17.2 17.2 0 0 1-17.7 10.7l-55.8-5.6c-21.1 58.3-20.6 122.5 0 179.6l55.8-5.6a17.2 17.2 0 0 1 17.7 10.7l32.4 81a17.2 17.2 0 0 1-6.9 21l-64.8 40.5A17.2 17.2 0 0 1 97.3 507M247.1 95.5c11.9 20 11.9 45 0 65-3.9 6.7-13.1 8-18.7 2.6l-6-5.7c-3.9-3.8-4.8-9.6-2.2-14.4a32.1 32.1 0 0 0 0-30c-2.6-4.8-1.7-10.6 2.2-14.4l6-5.7c5.6-5.4 14.8-4.1 18.7 2.6M338.9 4.3c60.2 71.6 60.1 175.9 0 247.4-4.5 5.3-12.5 5.8-17.5.9l-5.8-5.5c-4.6-4.4-5-11.5-1-16.4 49.7-59.5 49.7-145.9 0-205.4-4-4.9-3.6-12 1-16.4l5.8-5.5c5-4.9 13-4.4 17.5.9m-46 44.9c36.1 46.3 36.1 111.2 0 157.6-4.3 5.6-12.7 6.2-17.8 1.3l-5.8-5.6c-4.4-4.2-5-11.1-1.3-15.9C294.5 152 294.5 104 268 69.4c-3.7-4.8-3.1-11.7 1.3-15.9l5.8-5.6c5.1-4.9 13.5-4.3 17.8 1.3"/></svg>