<svg height="512" width="480" xmlns="http://www.w3.org/2000/svg"><path d="M455.9 23.2C429.2 30 387.8 51.7 341.4 90.7A206 206 0 0 0 240 64C125.1 64 32 157.1 32 272s93.1 208 208 208S448 386.9 448 272A207.3 207.3 0 0 0 389.3 127.2a155.3 155.3 0 0 0-17 27.4A176.2 176.2 0 0 1 417.1 272c0 97.7-79.4 177.1-177.1 177.1a175.8 175.8 0 0 1-87.6-23.4C235.3 318.4 303.2 387.9 336.7 199.1c5.8-32.7 28-94.3 126.2-160.2 8.1-5.4 2.5-18.1-7-15.7M125 406.4A176.7 176.7 0 0 1 62.9 272C62.9 174.3 142.3 94.9 240 94.9a174 174 0 0 1 76.6 17.8C250.6 174.8 189.8 265.5 125 406.4"/></svg>