<svg height="512" width="576" xmlns="http://www.w3.org/2000/svg"><path d="M560 224h-29.5c-8.8-20-21.6-37.7-37.4-52.5L512 96h-32c-29.4 0-55.4 13.5-73 34.3-7.6-1.1-15.1-2.3-23-2.3H256c-77.4 0-141.9 55-156.8 128H56C41.2 256 29.5 242.5 32.5 227.2 34.7 215.8 45.4 208 57 208h1c3.3 0 6-2.7 6-6v-20c0-3.3-2.7-6-6-6C29.5 176 4.1 196.4.5 224.6-3.9 258.8 22.7 288 56 288h40c0 52.2 25.4 98.1 64 127.3V496c0 8.8 7.2 16 16 16h64c8.8 0 16-7.2 16-16v-48h128v48c0 8.8 7.2 16 16 16h64c8.8 0 16-7.2 16-16v-80.7c11.8-8.9 22.3-19.4 31.3-31.3H560c8.8 0 16-7.2 16-16V240c0-8.8-7.2-16-16-16m-128 64c-8.8 0-16-7.2-16-16s7.2-16 16-16 16 7.2 16 16-7.2 16-16 16M256 96h128c5.4 0 10.7.4 15.9.8 0-.3.1-.5.1-.8C400 43 357 0 304 0s-96 43-96 96c0 2.1.5 4.1.6 6.2C223.8 98.3 239.6 96 256 96"/></svg>