<svg height="512" width="448" xmlns="http://www.w3.org/2000/svg"><path d="M448 80v352c0 26.5-21.5 48-48 48H154.4c9.8-16.4 22.4-40 27.4-59.3 3-11.5 15.3-58.4 15.3-58.4 8 15.3 31.4 28.2 56.3 28.2 74.1 0 127.4-68.1 127.4-152.7C380.8 156.7 314.6 96 229.4 96 123.4 96 67.2 167.1 67.2 244.6c0 36 19.2 80.8 49.8 95.1 4.7 2.2 7.1 1.2 8.2-3.3.8-3.4 5-20.1 6.8-27.8.6-2.5.3-4.6-1.7-7C120.2 289.3 112 266.7 112 245.6 112 191.4 153 139 222.9 139c60.3 0 102.6 41.1 102.6 99.9 0 66.4-33.5 112.4-77.2 112.4-24.1 0-42.1-19.9-36.4-44.4 6.9-29.2 20.3-60.7 20.3-81.8 0-53-75.5-45.7-75.5 25 0 21.7 7.3 36.5 7.3 36.5-31.4 132.8-36.1 134.5-29.6 192.6l2.2.8H48C21.5 480 0 458.5 0 432V80C0 53.5 21.5 32 48 32h352c26.5 0 48 21.5 48 48"/></svg>