<svg height="512" width="640" xmlns="http://www.w3.org/2000/svg"><path d="M624 448H16c-8.8 0-16 7.2-16 16v32c0 8.8 7.2 16 16 16h608c8.8 0 16-7.2 16-16v-32c0-8.8-7.2-16-16-16M44.8 205.7l88.8 80a62.6 62.6 0 0 0 25.4 13.9l287.6 78.3c26.5 7.2 54.6 8.8 81 1.4 29.7-8.3 43.5-21.2 47.3-35.7s-1.8-32.7-23.4-55c-19.3-19.8-44.4-32.8-70.8-40l-97.5-26.5L282.8 30.2c-1.5-5.8-5.9-10.3-11.7-11.9L206.1.6C195.5-2.3 185.2 5.9 185.3 17l48 164.2L131.1 153.4 103.5 85.5c-2-4.9-6-8.6-11-9.9L52.7 64.8C42.4 61.9 32.2 69.8 32 80.6l.2 101.8c.2 8.9 6.1 17.4 12.6 23.3"/></svg>