<svg height="512" width="640" xmlns="http://www.w3.org/2000/svg"><path d="M624 448H16c-8.8 0-16 7.2-16 16v32c0 8.8 7.2 16 16 16h608c8.8 0 16-7.2 16-16v-32c0-8.8-7.2-16-16-16M80.5 341.3c6.3 6.8 15.1 10.7 24.4 10.7l130.5-.2a65.6 65.6 0 0 0 29.7-7.1L556 197c26.8-13.5 50.7-32.9 67-58.3 18.3-28.5 20.3-49.1 13.1-63.6C628.9 60.5 611.4 49.8 577.9 47.6 548 45.7 518.3 53.5 491.6 67.1l-98.5 50L174.4 35a17.8 17.8 0 0 0-18-1.1L90.6 67.3C80 72.7 77.4 86.9 85.5 95.8l156.2 98.1-103.2 52.4L66.1 209.8a17.8 17.8 0 0 0-16.1.1L9.9 230.2c-10.4 5.3-13.2 19.1-5.6 28.1z"/></svg>