<svg height="512" width="640" xmlns="http://www.w3.org/2000/svg"><path d="M32.5 147.9 64 256 32.5 364.1A16 16 0 0 0 48 384h40a16 16 0 0 0 12.8-6.4L144 320h102.8l-49 171.6a16 16 0 0 0 15.4 20.4h65.5a16 16 0 0 0 13.9-8.1l66.6-116.5L34.4 136.3a15.5 15.5 0 0 0-1.9 11.6m601.3 310.2L455.1 320H512c35.3 0 96-28.7 96-64s-60.7-64-96-64H397.7L292.6 8.1C290.1 3.6 283.8 0 278.7 0h-65.5a16 16 0 0 0-15.4 20.4l37 129.3L45.5 3.4A16 16 0 0 0 23 6.2L3.4 31.4a16 16 0 0 0 2.8 22.5l588.3 454.7a16 16 0 0 0 22.5-2.8l19.6-25.2a16 16 0 0 0-2.8-22.5"/></svg>