<svg height="1000" width="875" xmlns="http://www.w3.org/2000/svg"><path d="M687.5 468.8v62.5c0 12.8 -10.5 23.4 -23.4 23.4H492.2v171.9c0 12.9 -10.6 23.4 -23.4 23.4h-62.5c-12.9 0 -23.5 -10.5 -23.5 -23.4V554.7H210.9c-12.9 0 -23.4 -10.6 -23.4 -23.4v-62.5c0 -12.9 10.5 -23.5 23.4 -23.5h171.9V273.4c0 -12.9 10.6 -23.4 23.5 -23.4h62.5c12.8 0 23.4 10.5 23.4 23.4v171.9h171.9c12.9 0 23.4 10.6 23.4 23.5zM875 156.3v687.5c0 51.7 -42 93.7 -93.7 93.7H93.8C42 937.5 0 895.5 0 843.8V156.3C0 104.5 42 62.5 93.8 62.5h687.5c51.7 0 93.7 42 93.7 93.8zM781.3 832V168c0 -6.5 -5.3 -11.7 -11.8 -11.7h-664c-6.5 0 -11.7 5.2 -11.7 11.7v664c0 6.5 5.2 11.8 11.7 11.8h664c6.5 0 11.8 -5.3 11.8 -11.8z"/></svg>