<svg height="512" width="448" xmlns="http://www.w3.org/2000/svg"><path d="M267.4 488.6c-5.1 19-24.5 23.4-43.4 23.4s-38.3-4.4-43.4-23.4C172.9 460.1 160 388.9 160 355.8c0-35.2 31.1-43.8 64-43.8s64 8.6 64 43.8c0 32.9-12.9 104.1-20.6 132.8m-110.5-200c-18.7-18.4-30-44.2-28.8-72.6 2-49.8 42.4-90 92.1-91.9C274.9 122 320 165.8 320 220c0 26.8-11.1 51.1-28.9 68.6-2.6 2.6-2.4 6.9.7 9.1 9.3 6.8 16.4 15.4 21.2 25.4 1.7 3.7 6.5 4.7 9.4 1.9C351.3 298 369 259.2 368 216.4 366.1 140.2 304.4 78.2 228.2 76.1 146.9 73.8 80 139.2 80 220c0 41.4 17.5 78.7 45.5 105 3 2.8 7.8 1.8 9.5-1.9 4.8-10 11.9-18.6 21.2-25.4 3.1-2.2 3.3-6.5.7-9.1M224 0C100.2 0 0 100.2 0 224c0 90 52.6 165.6 125.7 201.4 4.4 2.1 9.3-1.5 8.6-6.3-2.4-15.5-4.4-30.9-5.4-44.3-.2-1.9-1.2-3.5-2.7-4.6C78.8 338.4 47.6 284.2 48 222.9 48.6 126.7 127.3 48.3 223.5 48 320.8 47.7 400 126.8 400 224c0 61.9-32.2 116.5-80.6 147.9-1 14-3.1 30.6-5.7 47.2-.7 4.8 4.2 8.4 8.6 6.3C395.2 389.7 448 314.2 448 224 448 100.2 347.8 0 224 0m0 160c-35.3 0-64 28.7-64 64s28.7 64 64 64 64-28.7 64-64-28.7-64-64-64"/></svg>