<svg height="512" width="640" xmlns="http://www.w3.org/2000/svg"><path d="M272 191.9c-17.6 0-32 14.4-32 32v80c0 8.8-7.2 16-16 16s-16-7.2-16-16v-76.5c0-17.4 4.7-34.5 13.7-49.4L299.4 48.4c9.1-15.2 4.2-34.8-10.9-43.9C274-4.2 255.7.2 246.2 13.7c-.2.2-.7.2-.8.5L128.1 190.1C117.6 205.9 112 224.3 112 243.3v80.2l-90.1 30.1A32 32 0 0 0 0 383.9v96c0 10.8 8.5 32 32 32 2.7 0 5.4-.3 8.1-1l179.2-46.6C269.2 450 304 403.8 304 351.9v-128c0-17.6-14.4-32-32-32m346.1 161.7-90.1-30v-80.2c0-19-5.6-37.4-16.1-53.3L394.6 14.3c-.2-.3-.6-.3-.8-.5C384.3.3 366-4.1 351.5 4.6c-15.1 9-20 28.7-10.9 43.9l77.7 129.6c9 14.9 13.7 32 13.7 49.3V304c0 8.8-7.2 16-16 16s-16-7.2-16-16v-80c0-17.6-14.4-32-32-32s-32 14.4-32 32v128c0 51.9 34.8 98.1 84.7 112.3L599.9 511c2.7.7 5.4 1 8.1 1 23.5 0 32-21.2 32-32v-96c0-13.8-8.8-26-21.9-30.4"/></svg>