<svg height="512" width="640" xmlns="http://www.w3.org/2000/svg"><path d="M528 224H272c-8.8 0-16 7.2-16 16v144H64V144c0-8.8-7.2-16-16-16H16c-8.8 0-16 7.2-16 16v352c0 8.8 7.2 16 16 16h32c8.8 0 16-7.2 16-16v-48h512v48c0 8.8 7.2 16 16 16h32c8.8 0 16-7.2 16-16V336C640 274.1 589.9 224 528 224M136 96h126.1l27.6 55.2c5.9 11.8 22.7 11.8 28.6 0L368 51.8 390.1 96H512c8.8 0 16-7.2 16-16S520.8 64 512 64H409.9L382.3 8.8C376.4-3 359.6-3 353.7 8.8L304 108.2 284.1 68.4C282.7 65.7 280 64 276.9 64H136c-4.4 0-8 3.6-8 8v16c0 4.4 3.6 8 8 8m24 256c35.3 0 64-28.7 64-64s-28.7-64-64-64-64 28.7-64 64 28.7 64 64 64"/></svg>