<svg height="512" width="384" xmlns="http://www.w3.org/2000/svg"><path d="M235.5 159.8H84.2A64 64 0 0 0 20.5 218L.1 442a64 64 0 0 0 63.8 69.8h192A64 64 0 0 0 319.6 442L299.2 218a64 64 0 0 0-63.7-58.2m4.4 173.3a13.3 13.3 0 0 1-13.4 13.4h-40v40a13.3 13.3 0 0 1-13.3 13.3h-26.7a13.3 13.3 0 0 1-13.3-13.3v-40h-40A13.3 13.3 0 0 1 79.9 333.1v-26.6a13.3 13.3 0 0 1 13.3-13.3h40v-40a13.3 13.3 0 0 1 13.3-13.4h26.7a13.3 13.3 0 0 1 13.3 13.4v40h40a13.3 13.3 0 0 1 13.4 13.3zM379.2 93.9 335.9 50.6A64 64 0 0 0 290.6 31.8h-66.7a32 32 0 0 0-32-32h-64a32 32 0 0 0-32 32v96h128v-32h66.7l43.3 43.3a16 16 0 0 0 22.7 0l22.6-22.6a16 16 0 0 0 0-22.6"/></svg>