<svg height="512" width="576" xmlns="http://www.w3.org/2000/svg"><path d="M519.4 288.7c-41.5 0-59.5 31.5-82 31.5C377.4 320.2 432 144 432 144s-196.3 80-196.3-3.3c0-35.8 36.3-46.2 36.3-86C272 19.2 243.9 0 210.5 0c-34.6 0-66.3 18.9-66.3 56.3 0 41.4 31.7 59.3 31.7 81.8C175.9 207.7 0 166.8 0 166.8V500s178.6 41 178.6-28.7c0-22.4-40-40.1-40-81.4 0-37.5 29.3-56.4 63.6-56.4 33.7 0 61.8 19.2 61.8 54.7 0 39.8-36.3 50.2-36.3 86 0 60.8 129.7 25.7 181.2 25.7 0 0-34.7-120.1 25.9-120.1 35.9 0 46.4 36.2 86.3 36.2 35.6 0 54.9-28 54.9-61.6 0-34.2-19-65.7-56.6-65.7"/></svg>