<svg height="512" width="512" xmlns="http://www.w3.org/2000/svg"><path d="M256 8C119 8 8 119.1 8 256c0 137 111 248 248 248S504 393 504 256C504 119.1 393 8 256 8m0 448C145.5 456 56 366.6 56 256 56 145.5 145.5 56 256 56s200 89.5 200 200S366.6 456 256 456M363.2 200.8c0 67.1-72.4 68.1-72.4 92.9v6.3c0 6.6-5.3 12-12 12h-45.6c-6.7 0-12-5.4-12-12v-8.7c0-35.7 27.1-50 47.6-61.5 17.5-9.8 28.3-16.5 28.3-29.6 0-17.2-22-28.6-39.8-28.6-23.2 0-33.9 10.9-48.9 29.9-4.1 5.1-11.5 6.1-16.7 2.1l-27.8-21.1c-5.1-3.8-6.3-11-2.7-16.3C184.8 131.5 214.9 112 261.8 112c49.1 0 101.4 38.3 101.4 88.8M298 368c0 23.2-18.8 42-42 42s-42-18.8-42-42 18.8-42 42-42 42 18.8 42 42"/></svg>