<svg height="1000" width="1000" xmlns="http://www.w3.org/2000/svg"><path d="M500 15.6c267.5 0 484.4 217 484.4 484.4 0 267.6 -216.9 484.4 -484.4 484.4S15.6 767.6 15.6 500C15.6 232.6 232.5 15.6 500 15.6zm0 875c216 0 390.6 -174.7 390.6 -390.6C890.6 284.1 715.8 109.4 500 109.4 284.1 109.4 109.4 284.2 109.4 500c0 216 174.7 390.6 390.6 390.6zM709.5 392.2c0 130.9 -141.5 133 -141.5 181.4v12.3c0 13 -10.5 23.5 -23.4 23.5h-89.2c-12.9 0 -23.4 -10.5 -23.4 -23.5V569c0 -69.8 52.9 -97.7 92.9 -120.1 34.3 -19.3 55.3 -32.3 55.3 -57.8 0 -33.7 -42.9 -56 -77.7 -56 -45.3 0 -66.2 21.4 -95.6 58.5 -7.9 10 -22.3 11.9 -32.5 4.1L320 356.5c-9.9 -7.5 -12.2 -21.6 -5.1 -31.9C361 256.8 419.8 218.8 511.3 218.8c95.9 0 198.2 74.8 198.2 173.4zM582 718.8c0 45.2 -36.8 82 -82 82s-82 -36.8 -82 -82 36.8 -82.1 82 -82.1 82 36.8 82 82.1z"/></svg>