<svg height="512" width="512" xmlns="http://www.w3.org/2000/svg"><path d="M504 256c0 137-111 248-248 248S8 393 8 256C8 119.1 119 8 256 8s248 111.1 248 248M262.7 90c-54.5 0-89.3 23-116.6 63.8-3.5 5.2-2.3 12.4 2.7 16.2l34.7 26.3c5.2 4 12.6 3 16.7-2.1 17.8-22.7 30.1-35.8 57.3-35.8 20.4 0 45.7 13.2 45.7 33 0 14.9-12.4 22.6-32.5 33.9C247.1 238.5 216 254.9 216 296v4c0 6.6 5.4 12 12 12h56c6.6 0 12-5.4 12-12v-1.3C296 270.2 379.2 269 379.2 192 379.2 134 319 90 262.7 90M256 338c-25.4 0-46 20.6-46 46s20.6 46 46 46 46-20.6 46-46-20.6-46-46-46"/></svg>