<svg height="512" width="448" xmlns="http://www.w3.org/2000/svg"><path d="M448 358.4V25.6C448 9.6 438.4 0 422.4 0H96C41.6 0 0 41.6 0 96v320c0 54.4 41.6 96 96 96h326.4c12.8 0 25.6-9.6 25.6-25.6v-16q0-9.6-9.6-19.2c-3.2-16-3.2-60.8 0-73.6q9.6-4.8 9.6-19.2M301.1 145.8c.6-1.2 1.7-1.8 2.9-1.8s2.3.6 2.9 1.8l11.2 22.7 25 3.6c2.7.4 3.7 3.7 1.8 5.6l-18.1 17.6 4.3 24.9c.4 2.1-1.3 3.8-3.2 3.8-.5 0-1-.1-1.5-.4L304 211.9l-22.4 11.7c-.5.3-1 .4-1.5.4-1.9 0-3.5-1.7-3.2-3.8l4.3-24.9-18.1-17.6c-1.9-1.9-.9-5.2 1.8-5.6l25-3.6zm-57.9-69c13.7 0 27.2 2.5 40.4 7.4a6.8 6.8 0 1 1-2.4 13.1c-.7 0-3.1-.2-4.1-.2-52.3 0-94.9 42.6-94.9 94.9s42.6 94.9 94.9 94.9c1 0 3.4-.3 4.1-.3 3.9 0 6.8 3.2 6.8 6.8 0 3-1.9 5.5-4.6 6.4-13.1 4.9-26.6 7.4-40.2 7.4C179.7 307.2 128 255.5 128 192S179.7 76.8 243.2 76.8M380.8 448H96C76.8 448 64 435.2 64 416s16-32 32-32h284.8z"/></svg>