<svg height="512" width="581" xmlns="http://www.w3.org/2000/svg"><path d="M581 226.6C581 119.1 450.9 32 290.5 32S0 119.1 0 226.6C0 322.4 103.3 402 239.4 418.1V480h99.1v-61.5c24.3-2.7 47.6-7.4 69.4-13.9L448 480h112L492.6 366.3C547.1 330.9 581 281.4 581 226.6m-466.8 14.5c0-73.5 98.9-133 220.8-133s211.9 40.7 211.9 133c0 50.1-26.5 85-70.3 106.4-2.4-1.6-4.7-2.9-6.4-3.7C460 338.6 442.4 333.3 442.4 333.3S529 326.9 529 240.6s-90.6-87.9-90.6-87.9h-199V361C165.3 339.5 114.2 293.9 114.2 241.1m225.1 38.3v-55.6c57.8 0 87.8-6.8 87.8 27.3 0 36.5-38.2 28.3-87.8 28.3m-.9 72.5H365c10.8 0 18.9 11.7 24 19.2-16.1 1.9-33 2.8-50.6 2.9z"/></svg>