<svg height="512" width="512" xmlns="http://www.w3.org/2000/svg"><path d="M505 359c9.3 9.4 9.3 24.6 0 34l-80 80c-15 15-41 4.4-41-17v-40h-58.8a12 12 0 0 1-8.8-3.8l-70.5-75.6 53.3-57.2L352 336h32v-40c0-21.4 25.9-32 41-17zM12 176h84l52.8 56.6 53.3-57.2L131.6 99.8A12 12 0 0 0 122.8 96H12C5.4 96 0 101.4 0 108v56c0 6.6 5.4 12 12 12m372 0v40c0 21.4 26 32 41 17l80-80c9.3-9.4 9.3-24.6 0-34L425 39C409.9 24 384 34.6 384 56v40h-58.8a12 12 0 0 0-8.8 3.8L96 336H12c-6.6 0-12 5.4-12 12v56c0 6.6 5.4 12 12 12h110.8c3.3 0 6.5-1.4 8.8-3.8L352 176z"/></svg>