<svg height="512" width="512" xmlns="http://www.w3.org/2000/svg"><path d="M498.3 234.2c-1.3-10.3-1.7-20.8-3.8-31a310 310 0 0 0-9.6-36.6A184.1 184.1 0 0 0 454 109.1 251 251 0 0 0 435.2 87.4 237.4 237.4 0 0 0 388.1 51.3 240.8 240.8 0 0 0 331.4 26.6C320.3 23.5 309.1 21.2 297.8 19c-6.7-1.3-13.7-1.6-20.6-2.4-.3-.1-.6-.4-.9-.6q-16.1 0-32.3 0c-2.4.4-4.8.9-7.2 1.2a179.3 179.3 0 0 0-34.3 7.1 221.5 221.5 0 0 0-39.7 16.3 281.4 281.4 0 0 0-38.1 24.2c-6.2 4.6-12.3 9.3-18 14.5C96.5 88.5 86.3 97.7 76.8 107.6a244 244 0 0 0-33.7 43.9 206.5 206.5 0 0 0-20.5 44.6A198 198 0 0 0 15 230.9a201 201 0 0 0-1.6 35.5 300 300 0 0 0 4.4 40.2 227 227 0 0 0 16.8 53.3 210.5 210.5 0 0 0 24 39.6 213.6 213.6 0 0 0 26.3 28.4 251.3 251.3 0 0 0 41.8 30.6 287.8 287.8 0 0 0 55.9 25.2 269.5 269.5 0 0 0 40.6 9.9c6.1 1 12.3 1.2 18.5 1.8a4.1 4.1 0 0 1 1.1.6h32.3c2.5-.4 5-.9 7.6-1.1 16.3-1.4 32.1-5.4 47.4-10.8a220 220 0 0 0 49-23.8c9.7-6.4 19.4-13.1 28.7-20.1 5.8-4.3 11-9.5 16.3-14.4 4-3.7 7.8-7.6 11.5-11.5a232.2 232.2 0 0 0 31.5-41.7c9.5-16 17.3-32.9 22.3-50.9 2.8-10.4 4.9-21 7-31.7 1-5.2 1.2-10.7 1.9-16 0-.4.3-.6.5-.9V236a10 10 0 0 1-.5-1.8m-161.2-1.1s-16.5-3-28.4-3c-27.2 0-33.6 14.9-33.6 37v93.7h-73.5V170.1h73.5V202c8.9-26.8 26.8-36.2 62-36.2z"/></svg>