<svg height="512" width="512" xmlns="http://www.w3.org/2000/svg"><path d="M256.5 504C117.2 504 9 387.8 13.2 249.9 16 170.7 56.4 97.7 129.7 49.5c.3 0 1.9-.6 1.1.8C125 55.8 19.5 180.1 116.7 276.7c49.8 49.5 90 2.5 90 2.5 38.5-50.1-.6-125.9-.6-125.9-10-24.9-45.7-40.1-45.7-40.1l28.8-31.8c24.4 10.5 43.2 38.7 43.2 38.7.8-29.6-21.9-61.4-21.9-61.4L255.1 8l44.3 50.1c-20.5 28.8-21.9 62.6-21.9 62.6C291.3 97.7 321 81.4 321 81.4l28.5 31.8c-27.4 8.9-45.4 39.9-45.4 39.9-15.8 28.5-27.1 89.4.6 127.3 32.4 44.6 87.7-2.8 87.7-2.8 102.7-91.9-10.5-225-10.5-225-6.1-5.5.8-2.8.8-2.8 50.1 36.5 114.6 84.4 116.2 204.8C500.9 400.2 399 504 256.5 504"/></svg>