<svg height="512" width="512" xmlns="http://www.w3.org/2000/svg"><path d="M184.6 261.9c3.2 14-12.2 24.6-24.1 17.2l-40.7-25.5L68.9 335C55.6 356.3 71 384 96 384h52c6.6 0 12 5.4 12 12v40c0 6.6-5.4 12-12 12H96.1C20.8 448-25.2 365 14.7 301.1l50.8-81.4L24.8 194.3c-12.1-7.6-9-26 4.9-29.2l110.2-25.4c8.6-2 17.2 3.4 19.2 12zM283.1 79l41.3 66.1-40.7 25.4c-12.1 7.5-9 26 4.9 29.2l110.2 25.4c8.7 2 17.2-3.4 19.2-12l25.4-110.2c3.2-13.8-12-24.7-24-17.2l-40.7 25.5L337.4 45.1C299.9-15 212.2-15.1 174.6 45.1l-18 28.7c-3.5 5.7-1.8 13.1 3.8 16.6l34 21.2c5.6 3.5 13 1.8 16.5-3.8l18-28.8c12.7-20.3 41.9-19.7 54.2 0m214.2 222.1-27.5-44c-3.5-5.7-10.9-7.4-16.6-3.9l-33.8 21.2c-5.6 3.5-7.4 10.9-3.8 16.5l27.5 44.1c13.3 21.3-2 49-27.1 49h-96v-48c0-14.2-17.2-21.4-27.3-11.3l-80 80c-6.3 6.2-6.3 16.4 0 22.6l80 80c10 10 27.3 3 27.3-11.3v-48h95.9c75.3 0 121.3-83 81.4-146.9"/></svg>