<svg height="512" width="512" xmlns="http://www.w3.org/2000/svg"><path d="M341.5 285.6c33.7 0 82.4-7 82.4-47 .2-6.8.8-1.9-20.9-96.3-4.6-19.1-8.7-27.8-42.3-44.6C334.6 84.3 277.8 62.3 260.9 62.3c-15.6 0-20.2 20.2-38.8 20.2-18 0-31.3-15.1-48.2-15.1-16.1 0-26.6 11-34.7 33.6-27.5 77.6-26.3 74.3-26.2 78.3 0 24.8 97.7 106.1 228.5 106.1M429 254.8c4.6 22 4.6 24.4 4.6 27.3 0 37.7-42.3 58.6-98 58.6C209.9 340.7 99.7 267 99.7 218.3a49.5 49.5 0 0 1 4.1-19.7C58.6 200.9 0 208.9 0 260.6c0 84.7 200.6 189 359.5 189 121.8 0 152.5-55 152.5-98.5 0-34.3-29.6-73.1-82.9-96.3"/></svg>