<svg height="512" width="512" xmlns="http://www.w3.org/2000/svg"><path d="M256 8C119 8 8 119 8 256s111 248 248 248S504 393 504 256 393 8 256 8m0 448C145.5 456 56 366.5 56 256S145.5 56 256 56s200 89.5 200 200S366.5 456 256 456m110.4-81.8c-53-96.3-50.2-91.5-53.2-96.1 24.2-13.9 39.5-41.5 39.5-73.2 0-52.5-30.3-85.2-101.5-85.2h-78.7c-6.6 0-12 5.4-12 12V380c0 6.6 5.4 12 12 12h38.6c6.6 0 12-5.4 12-12v-83.7H255l47.5 89.3a12 12 0 0 0 10.6 6.4h42.8c9.2 0 14.9-9.8 10.5-17.8M256.9 239.9h-33.8v-64.1h27.3c32.5 0 39 12.1 39 31.7 0 20.9-11.6 32.4-32.5 32.4"/></svg>