<svg height="1000" width="1000" xmlns="http://www.w3.org/2000/svg"><path d="M500 15.6c267.5 0 484.4 216.9 484.4 484.4S767.5 984.4 500 984.4 15.6 767.5 15.6 500 232.5 15.6 500 15.6zm0 875c215.9 0 390.6 -174.7 390.6 -390.6C890.6 284.1 715.9 109.4 500 109.4 284.1 109.4 109.4 284.1 109.4 500c0 215.9 174.7 390.6 390.6 390.6zM715.7 730.9c8.6 15.6 -2.7 34.7 -20.5 34.7h-83.6c-9 0 -16.8 -5 -20.7 -12.4L498.1 578.8h-62.4v163.4c0 12.9 -10.6 23.4 -23.5 23.4h-75.3c-12.9 0 -23.4 -10.5 -23.4 -23.4v-485c0 -12.9 10.5 -23.4 23.4 -23.4h153.6c139.2 0 198.3 63.9 198.3 166.5 0 61.7 -29.7 115.8 -77.1 142.9 5.9 9 .4 -.4 104 187.7zM501.8 468.6c40.9 0 63.4 -22.5 63.4 -63.4 0 -38.2 -12.8 -61.9 -76.1 -61.9h-53.4v125.3h66.1z"/></svg>