<svg height="1000" width="1000" xmlns="http://www.w3.org/2000/svg"><path d="M500 15.6C232.5 15.6 15.6 232.5 15.6 500S232.5 984.4 500 984.4 984.4 767.5 984.4 500 767.5 15.6 500 15.6zm0 875C284.1 890.6 109.4 715.9 109.4 500 109.4 284.1 284.1 109.4 500 109.4c215.9 0 390.6 174.7 390.6 390.6 0 215.9 -174.7 390.6 -390.6 390.6zM715.7 730.9C612.1 542.8 617.6 552.2 611.7 543.2c47.4 -27.1 77.1 -81.2 77.1 -142.9 0 -102.6 -59.1 -166.5 -198.3 -166.5H336.9c-12.9 0 -23.4 10.5 -23.4 23.4v485c0 12.9 10.5 23.4 23.4 23.4h75.3c12.9 0 23.5 -10.5 23.5 -23.4V578.8h62.4l92.8 174.4a23.4 -23.4 0 0 1 20.7 12.4h83.6c17.8 0 29.1 -19.1 20.5 -34.7zM501.8 468.6h-66.1V343.3h53.4c63.3 0 76.1 23.7 76.1 61.9 0 40.9 -22.5 63.4 -63.4 63.4z"/></svg>