<svg height="512" width="576" xmlns="http://www.w3.org/2000/svg"><path d="m136.3 189.8 176-151.9C327.7 24.5 352 35.3 352 56v82.8C481.2 149 576 191 576 322.3c0 61.5-39.6 122.3-83.3 154.2-13.7 9.9-33.1-2.6-28.1-18.7C503.1 334.7 460.7 288.3 352 275.8V360c0 20.7-24.3 31.4-39.7 18.2l-176-152c-11.1-9.6-11.1-26.8 0-36.4m-128 36.4 176 151.9c15.4 13.3 39.7 2.6 39.7-18.1v-15.8L115.4 250.4A56 56 0 0 1 96 208a56 56 0 0 1 19.4-42.4L224 71.8V56C224 35.3 199.7 24.5 184.3 37.9L8.3 189.8c-11.1 9.6-11.1 26.8 0 36.4"/></svg>