<svg height="512" width="640" xmlns="http://www.w3.org/2000/svg"><path d="M629.7 343.6 529 444.3c-9.4 9.4-24.6 9.4-34 0L394.3 343.6c-9.3-9.4-9.3-24.6 0-33.9l10.9-10.9c9.5-9.5 25.1-9.3 34.4.5l40.4 42.8V160H292.5a24 24 0 0 1-17-7l-16-16c-15.1-15.1-4.4-41 17-41H520c13.3 0 24 10.7 24 24v222.1l40.4-42.8c9.3-9.8 24.9-10 34.4-.5l10.9 10.9c9.3 9.3 9.3 24.5 0 33.9M364.5 359a24 24 0 0 0-17-7H160V169.9l40.4 42.8c9.3 9.8 24.9 10 34.4.5l10.9-10.9c9.3-9.3 9.3-24.5 0-33.9L145 67.7c-9.4-9.4-24.6-9.4-34 0L10.3 168.4C1 177.8 1 193 10.3 202.3l10.9 10.9c9.5 9.5 25.1 9.3 34.4-.5L96 169.9V392c0 13.3 10.7 24 24 24h243.5c21.4 0 32.1-25.9 17-41z"/></svg>