<svg height="1000" width="1000" xmlns="http://www.w3.org/2000/svg"><path d="M837.5 268.8H669.2a225.6 -225.6 0 0 1 4.2 -43.8C673.4 131.4 604.9 62.5 493.7 62.5c-88.5 0 -111.3 94.8 -147.8 153.9 -15.1 24.2 -33.2 45.5 -50.5 64.9l-.3 .3 -.2 .3c-29.9 34.1 -45.4 46.2 -59 46.2h-5.2c-11.2 -9.6 -26.4 -15.6 -43.2 -15.6h-125C28 312.5 0 337.7 0 368.8v450c0 31 28 56.2 62.5 56.2h125c16.8 0 32 -6 43.2 -15.6h5.2c56.1 0 131.2 78.1 248.5 78.1H526c122.1 0 192.9 -75.5 195.2 -178 24.3 -34.8 36.1 -79.7 31.2 -122.7a181.9 -181.9 0 0 1 15.5 -43h69.6c88.7 0 162.5 -73.5 162.5 -162.5 0 -88.1 -74.4 -162.5 -162.5 -162.5zm0 231.2H659.7c25.1 28.7 28.2 83.6 -9.7 119.2 22 38.4 3.3 89.1 -25.2 104.8 12.7 76.4 -19.7 119.8 -98.8 119.8h-41.6c-88.9 0 -150.8 -70.2 -234.4 -77.5V421c49.3 -5.8 83.9 -41.4 115.4 -77.3 22 -24.7 42.4 -49.4 60.1 -77.9 28.3 -45.7 51.1 -109.5 68.3 -109.5 45.6 0 85.9 17.1 85.9 68.7 0 68.7 -51.6 103.7 -51.6 137.5h309.4c36 0 68.8 32.2 68.8 68.8 0 37 -31.7 68.7 -68.8 68.7zM171.9 750c0 25.9 -21 46.9 -46.9 46.9S78.1 775.9 78.1 750s21 -46.9 46.9 -46.9 46.9 21 46.9 46.9z"/></svg>