<svg height="512" width="576" xmlns="http://www.w3.org/2000/svg"><path d="M573.2 402.7 433.4 82.7C428.4 71.3 417.6 64 405.7 64h-97.6l2.4 23.2c.5 4.7-3.2 8.8-7.9 8.8h-29.2c-4.7 0-8.4-4.1-7.9-8.8L267.9 64h-97.6c-11.9 0-22.7 7.3-27.7 18.7L2.8 402.7C-6.5 423.9 8.3 448 30.5 448h196.9l10.3-97.7c.9-8.1 7.7-14.3 15.9-14.3h68.8c8.2 0 15 6.2 15.9 14.3l10.3 97.7h196.9c22.2 0 37-24.1 27.7-45.3M260.4 135.2a8 8 0 0 1 8-7.2h39.2c4.1 0 7.6 3.1 8 7.2l4.6 43.5c.8 7.1-4.8 13.3-11.9 13.3h-40.6c-7.1 0-12.6-6.2-11.9-13.3zM315.6 304h-55.3c-9.5 0-16.9-8.2-15.9-17.7l5.1-48c.9-8.1 7.7-14.3 15.9-14.3h45.2c8.2 0 15 6.2 15.9 14.3l5 48c1 9.5-6.4 17.7-15.9 17.7"/></svg>