<svg height="512" width="576" xmlns="http://www.w3.org/2000/svg"><path d="M284 224.8a34.1 34.1 0 1 0 34.4 34.1A34.2 34.2 0 0 0 284 224.8m-110.4 0a34.1 34.1 0 1 0 34.3 34.1 34.2 34.2 0 0 0-34.3-34.1m220.9 0a34.1 34.1 0 1 0 34.3 34.1 34.2 34.2 0 0 0-34.3-34.1m153.8-55.3C532.8 145.3 511 123.9 483.6 105.9 430.8 71 361.3 51.9 288 51.9a406 406 0 0 0-72.1 6.3A238.5 238.5 0 0 0 166.4 21.6C99.7-11.7 40.9.7 11.1 11.4A14.3 14.3 0 0 0 5.6 34.8c20.9 21.7 55.6 64.5 47.1 103.5C19.6 172.2 1.6 213 1.6 255.6c0 43.4 18 84.2 51.1 118.1 8.5 39-26.2 81.9-47.1 103.5a14.3 14.3 0 0 0 5.5 23.4c29.8 10.7 88.6 23.1 155.4-10.2A238.7 238.7 0 0 0 216 453.8a406 406 0 0 0 72 6.3c73.3 0 142.8-19.1 195.7-53.9 27.3-18.1 49.1-39.5 64.6-63.7 17.4-26.9 26.1-55.9 26.1-86.1 0-31-8.8-60-26.1-86.9M285 409.9a345.6 345.6 0 0 1-89.5-11.5l-20.1 19.4a184.4 184.4 0 0 1-37.1 27.6 145.8 145.8 0 0 1-52.5 14.8c.9-1.7 1.8-3.5 2.8-5.3q30.3-55.7 16.3-100.1C71.9 328.9 52.1 295.6 52.1 259.4 52.1 176.3 156.4 108.9 285 108.9s232.9 67.4 232.9 150.5S413.6 409.9 285 409.9"/></svg>