<svg height="512" width="512" xmlns="http://www.w3.org/2000/svg"><path d="M505.1 19.1c-1.2-5.5-6.6-11-12.2-12.2C460.7 0 435.5 0 410.4 0 307.2 0 245.3 55.2 199.1 128H94.8C78.5 128 59.3 139.9 52 154.5L2.5 253.3A28.4 28.4 0 0 0 0 264a24 24 0 0 0 24 24h103.8l-22.5 22.5c-11.3 11.3-13 32.2 0 45.2l50.9 50.9c11.2 11.2 32.2 13.2 45.3 0L224 384.2V488a24 24 0 0 0 24 24 28.6 28.6 0 0 0 10.7-2.5l98.7-49.4c14.7-7.3 26.5-26.5 26.5-42.9V312.8C456.5 266.5 512 204.4 512 101.7c.1-25.2.1-50.4-6.9-82.6M384 168a40 40 0 1 1 40.1-40A40 40 0 0 1 384 168"/></svg>