<svg height="512" width="512" xmlns="http://www.w3.org/2000/svg"><path d="M416 320h-96c-17.6 0-32-14.4-32-32s14.4-32 32-32h96S512 149 512 96 469 0 416 0s-96 43-96 96c0 25.5 22.2 63.4 45.3 96H320c-52.9 0-96 43.1-96 96s43.1 96 96 96h96c17.6 0 32 14.4 32 32s-14.4 32-32 32H185.5c-16 24.8-33.8 47.7-47.3 64H416c52.9 0 96-43.1 96-96s-43.1-96-96-96m0-256c17.7 0 32 14.3 32 32s-14.3 32-32 32S384 113.7 384 96s14.3-32 32-32M96 256C43 256 0 299 0 352s96 160 96 160 96-107 96-160S149 256 96 256m0 128C78.3 384 64 369.7 64 352s14.3-32 32-32 32 14.3 32 32-14.3 32-32 32"/></svg>