<svg height="512" width="448" xmlns="http://www.w3.org/2000/svg"><path d="M400 32H48C21.5 32 0 53.5 0 80v352c0 26.5 21.5 48 48 48h352c26.5 0 48-21.5 48-48V80C448 53.5 426.5 32 400 32M112 416C85.5 416 64 394.5 64 368s21.5-48 48-48 48 21.5 48 48-21.5 48-48 48m157.5 0h-34.3c-6 0-11.1-4.6-11.4-10.6C218.5 325.3 154.5 261.4 74.6 256.2 68.6 255.9 64 250.8 64 244.8v-34.3c0-6.6 5.5-11.8 12-11.5 110.5 6 199 94.6 205 205 .3 6.5-4.9 12-11.5 12m103.1 0h-34.4c-6.1 0-11.1-4.9-11.4-11C321.2 268.4 211.6 158.8 75 153.2c-6.1-.3-11-5.3-11-11.4v-34.4C64 101 69.3 95.8 75.8 96 243.6 102 378 237.2 384 404.2c.2 6.5-5 11.8-11.4 11.8"/></svg>