<svg height="512" width="448" xmlns="http://www.w3.org/2000/svg"><path d="M128.1 416c0 35.3-28.7 64-64.1 64S0 451.3 0 416s28.7-64.1 64-64.1 64.1 28.7 64.1 64.1m175.6 47.2C295.4 308.6 171.6 184.6 16.8 176.3 7.7 175.8 0 183.1 0 192.3v48c0 8.4 6.5 15.5 14.9 16 111.8 7.3 201.5 96.7 208.8 208.8.5 8.4 7.6 14.9 16 14.9h48c9.2 0 16.5-7.7 16-16.8m144.3.3C439.6 229.7 251.5 40.4 16.5 32 7.5 31.7 0 39 0 48v48.1c0 8.6 6.8 15.6 15.5 16 191.1 7.8 344.6 161.3 352.4 352.4.4 8.7 7.4 15.5 16 15.5H432c9 0 16.3-7.5 16-16.5"/></svg>