<svg height="512" width="512" xmlns="http://www.w3.org/2000/svg"><path d="M160 288h-56c-4.4 0-8-3.6-8-8v-16c0-4.4 3.6-8 8-8h56v-64h-56c-4.4 0-8-3.6-8-8v-16c0-4.4 3.6-8 8-8h56V96h-56c-4.4 0-8-3.6-8-8V72c0-4.4 3.6-8 8-8h56V32C160 14.3 145.7 0 128 0H32C14.3 0 0 14.3 0 32v448c0 2.8.9 5.2 1.6 7.8L160 329.4zm320 64h-32v56c0 4.4-3.6 8-8 8h-16c-4.4 0-8-3.6-8-8v-56h-64v56c0 4.4-3.6 8-8 8h-16c-4.4 0-8-3.6-8-8v-56h-64v56c0 4.4-3.6 8-8 8h-16c-4.4 0-8-3.6-8-8v-56h-41.4L24.2 510.4c2.6.7 5 1.6 7.8 1.6h448c17.7 0 32-14.3 32-32v-96c0-17.7-14.3-32-32-32"/></svg>