<svg height="512" width="416" xmlns="http://www.w3.org/2000/svg"><path d="M272 96c26.5 0 48-21.5 48-48S298.5 0 272 0s-48 21.5-48 48 21.5 48 48 48M113.7 317.5 98.9 352H32C14.3 352 0 366.3 0 384s14.3 32 32 32h77.5c19.2 0 36.5-11.4 44.1-29.1l8.7-20.5-10.6-6.3c-17.3-10.2-30.1-25.4-38-42.6M384 224h-44l-26.1-53.3c-12.5-25.5-35.4-44.2-61.8-50.9l-71-21.1c-28.3-6.8-57.8-.6-80.9 17.1l-39.7 30.4C46.5 157 43.9 177 54.6 191.1s30.9 16.6 44.9 5.9l39.7-30.4c7.6-5.9 17.4-8 25.2-6.2l14.7 4.4-37.4 87.4c-12.6 29.5-1.3 64 26.3 80.3l85 50.2-27.5 87.7c-5.3 16.9 4.1 34.8 21 40.1 3.2 1 6.4 1.5 9.5 1.5 13.7 0 26.3-8.8 30.6-22.5l31.6-101c5.9-20.8-2.9-43.1-21.6-54.4l-61.3-36.2 31.3-78.2 20.3 41.4c8 16.3 24.9 26.9 43.1 26.9h54c17.7 0 32-14.3 32-32s-14.3-32-32-32"/></svg>