<svg height="512" width="320" xmlns="http://www.w3.org/2000/svg"><path d="M308 96c6.6 0 12-5.4 12-12V44c0-6.6-5.4-12-12-12H12C5.4 32 0 37.4 0 44v44.7c0 6.7 5.4 12 12 12h85.3c27.3 0 48.2 10 61 27.3H12c-6.6 0-12 5.4-12 12v40c0 6.6 5.4 12 12 12h158.8c-6.3 36.1-33 58.6-74.8 58.6H12c-6.6 0-12 5.4-12 12v53c0 3.4 1.4 6.6 3.9 8.9l165 152.3a12 12 0 0 0 8.2 3.2h82.5c10.9 0 16.2-13.4 8.2-20.8L116.9 319.9C193.4 317.6 248 266.5 255.2 192H308c6.6 0 12-5.4 12-12v-40c0-6.6-5.4-12-12-12h-58.7C245.8 116.5 241 105.8 235.1 96z"/></svg>