<svg height="512" width="512" xmlns="http://www.w3.org/2000/svg"><path d="m508.5 249.8-21.8-13.6c-.2-2-.3-3.9-.6-5.8l18.8-17.5a7.3 7.3 0 0 0-2.5-12.3l-24-9c-.5-1.9-1-3.8-1.6-5.6l15-20.9A7.3 7.3 0 0 0 487 153.6l-25.5-4.1c-.9-1.8-1.7-3.5-2.7-5.2l10.7-23.4a7.3 7.3 0 0 0-7-10.4l-25.8.9q-1.8-2.2-3.6-4.4L439 81.8A7.4 7.4 0 0 0 430.2 73L405 78.9q-2.2-1.8-4.4-3.6l.9-25.8a7.3 7.3 0 0 0-10.4-7l-23.4 10.7q-2.55-1.35-5.1-2.7l-4.2-25.4a7.3 7.3 0 0 0-11.5-4.8l-20.9 15c-1.9-.6-3.7-1.2-5.6-1.7l-9-24A7.3 7.3 0 0 0 299.1 7.1l-17.5 18.8c-1.9-.2-3.9-.4-5.9-.6L262.3 3.5a7.3 7.3 0 0 0-12.5 0l-13.6 21.8c-2 .2-3.9.3-5.8.6L212.9 7.1a7.3 7.3 0 0 0-12.3 2.5l-9 24c-1.9.5-3.8 1-5.6 1.7l-20.9-15A7.3 7.3 0 0 0 153.6 25l-4.2 25.5c-1.7.9-3.4 1.7-5.1 2.7L120.9 42.5a7.3 7.3 0 0 0-10.4 7l.9 25.9c-1.5 1.1-3 2.4-4.4 3.6L81.8 73A7.4 7.4 0 0 0 73 81.8l5.9 25.2c-1.2 1.5-2.4 2.9-3.6 4.4l-25.8-.9a7.4 7.4 0 0 0-6.4 3.3 7.3 7.3 0 0 0-.5 7.1l10.6 23.4c-.9 1.7-1.8 3.4-2.7 5.2l-25.4 4.1a7.3 7.3 0 0 0-4.8 11.5l15 20.9c-.6 1.8-1.1 3.7-1.7 5.6l-24 9a7.3 7.3 0 0 0-2.4 12.3l18.7 17.5c-.2 1.9-.4 3.9-.6 5.8L3.5 249.8a7.3 7.3 0 0 0 0 12.5l21.8 13.5c.2 2 .3 3.9.6 5.8L7.1 299.1a7.3 7.3 0 0 0 2.5 12.3l24 9c.5 1.9 1 3.8 1.7 5.6l-15 20.9a7.3 7.3 0 0 0 4.7 11.5l25.5 4.1c.9 1.8 1.8 3.5 2.7 5.2l-10.6 23.4a7.3 7.3 0 0 0 .5 7.2 7.1 7.1 0 0 0 6.4 3.2l25.8-.9q1.8 2.2 3.6 4.4L73 430.2a7.4 7.4 0 0 0 8.8 8.8l25.2-5.9q2.2 1.8 4.4 3.6l-.9 25.8a7.3 7.3 0 0 0 10.4 6.9l23.4-10.6q2.55 1.35 5.1 2.7l4.2 25.4a7.3 7.3 0 0 0 11.5 4.8l20.9-15c1.8.6 3.7 1.1 5.6 1.7l9 24a7.4 7.4 0 0 0 12.3 2.4l17.5-18.7c1.9.2 3.9.4 5.8.6l13.6 21.8a7.3 7.3 0 0 0 12.5 0l13.5-21.8c2-.2 3.9-.4 5.8-.6l17.5 18.7a7.4 7.4 0 0 0 12.3-2.4l9-24c1.9-.6 3.8-1.1 5.6-1.7l20.9 15a7.3 7.3 0 0 0 11.5-4.8l4.2-25.4q2.55-1.35 5.1-2.7l23.4 10.7a7.3 7.3 0 0 0 10.4-7l-.9-25.8q2.2-1.8 4.4-3.6l25.2 5.9a7.4 7.4 0 0 0 8.8-8.8L433.1 405q1.8-2.2 3.6-4.4l25.8.9a7.2 7.2 0 0 0 6.4-3.2 7.3 7.3 0 0 0 .5-7.2l-10.6-23.4q1.35-2.55 2.7-5.1l25.4-4.2a7.3 7.3 0 0 0 4.8-11.5l-15-20.9c.6-1.8 1.1-3.7 1.7-5.6l24-9a7.3 7.3 0 0 0 2.4-12.3l-18.7-17.5c.2-1.9.4-3.9.6-5.8l21.8-13.5a7.3 7.3 0 0 0 0-12.5m-151 129A13.9 13.9 0 0 0 341 389.5l-7.6 35.7A187.5 187.5 0 0 1 177 424.4l-7.6-35.6a13.9 13.9 0 0 0-16.5-10.7l-31.5 6.8a187 187 0 0 1-16.3-19.3h153.2c1.7 0 2.9-.2 2.9-1.9v-54.1c0-1.6-1.2-2-2.9-2h-44.8v-34.3H262c4.4 0 23.7 1.3 29.8 25.9 1.9 7.5 6.2 32.1 9.1 40 2.8 8.8 14.6 26.4 27.1 26.4h79a187 187 0 0 1-17.3 20.1zm25.8 34.5A15.2 15.2 0 1 1 368 398.1h.4a15.2 15.2 0 0 1 14.8 15.2zm-225.6-.7a15.2 15.2 0 1 1-15.3-15.2h.5a15.3 15.3 0 0 1 14.7 15.2zM69.6 234.2l32.8-14.6a13.9 13.9 0 0 0 7.1-18.4L102.7 186h26.6v119.7H75.7a187.7 187.7 0 0 1-6.1-71.5M58.3 198.1a15.2 15.2 0 0 1 15.2-15.3h.5a15.2 15.2 0 1 1-15.7 15.3m155.2 24.5v-35.3h63.3c3.3 0 23.1 3.7 23.1 18.6 0 12.3-15.2 16.7-27.7 16.7zM399 306.7c-9.8 1.1-20.6-4.1-22-10.1-5.8-32.5-15.4-39.4-30.6-51.4 18.9-11.9 38.5-29.6 38.5-53.2 0-25.6-17.5-41.6-29.4-49.5-16.8-11-35.3-13.2-40.3-13.2H116.3A187.5 187.5 0 0 1 221.2 70.1l23.5 24.6a13.8 13.8 0 0 0 19.6.4l26.2-25a187.5 187.5 0 0 1 128.4 91.4l-18 40.6a14 14 0 0 0 7.1 18.3l34.6 15.4a187 187 0 0 1 .4 32.5h-19.3c-1.9 0-2.7 1.3-2.7 3.1v8.9c0 20.7-11.7 25.3-22 26.4M240 60.2A15.2 15.2 0 0 1 255.2 45h.5A15.2 15.2 0 1 1 240 60.2M436.8 214a15.2 15.2 0 1 1 0-30.5h.5a15.2 15.2 0 0 1-.5 30.5"/></svg>