<svg height="1000" width="968.8" xmlns="http://www.w3.org/2000/svg"><path d="M484.4 15.6C752 15.6 968.8 232.4 968.8 500S752 984.4 484.4 984.4 0 767.6 0 500 216.8 15.6 484.4 15.6zm0 875C699.8 890.6 875 715.4 875 500S699.8 109.4 484.4 109.4 93.8 284.6 93.8 500s175.1 390.6 390.6 390.6zM500 593.8c74.4 0 144.5 32.8 192.4 90 16.6 19.9 13.8 49.4 -6.1 66 -20.7 17.2 -50.2 13.1 -66 -6.1C590.4 708 546.5 687.5 500 687.5c-25.8 0 -46.9 -21.1 -46.9 -46.9s21.1 -46.8 46.9 -46.8zm-171.9 -125c-34.5 0 -62.5 -28 -62.5 -62.5s28 -62.5 62.5 -62.5 62.5 27.9 62.5 62.5 -27.9 62.5 -62.5 62.5zm312.5 -125c34.6 0 62.5 27.9 62.5 62.5s-27.9 62.5 -62.5 62.5 -62.5 -28 -62.5 -62.5 28 -62.5 62.5 -62.5zM317.2 536.7c5.5 -7.2 16.4 -7.2 21.9 0 22.2 29.9 71.1 98.8 71.1 133 0 44.4 -36.8 80.3 -82.1 80.3s-82 -35.9 -82 -80.3c0 -34.2 48.8 -103.1 71.1 -133z"/></svg>