<svg height="1000" width="968.8" xmlns="http://www.w3.org/2000/svg"><path d="M484.4 15.6C752 15.6 968.8 232.4 968.8 500S752 984.4 484.4 984.4 0 767.6 0 500 216.8 15.6 484.4 15.6zm281.2 754.7C833.2 700.2 875 604.9 875 500 875 284.6 699.8 109.4 484.4 109.4S93.8 284.6 93.8 500c0 104.9 41.7 200 109.3 270.3V546.9c0 -25.8 21.1 -46.9 46.9 -46.9s46.9 21.1 46.9 46.9v295.7c55.6 30.4 119.5 48 187.5 48s131.8 -17.6 187.5 -48V546.9c0 -25.8 21.1 -46.9 46.9 -46.9s46.8 21.1 46.8 46.9v223.4zM402 458c-11.4 6.3 -21.9 1.4 -26.8 -3.1l-18.6 -16.6c-28.9 -25.8 -90.2 -25.8 -119.1 0l-18.6 16.6c-7.4 6.6 -18.1 7.8 -26.7 3.1 -8.6 -4.7 -13.5 -14.4 -11.9 -24.2 7.6 -49.2 66.8 -82.2 116.8 -82.2s109 33 116.8 82.2c1.5 9.8 -3.4 19.5 -11.9 24.2zM671.9 351.6c50.2 0 109.2 33 116.8 82.2 1.5 9.8 -3.3 19.5 -11.9 24.2 -11.2 6.1 -21.9 1.2 -26.8 -3.1l-18.6 -16.6c-28.9 -25.8 -90.2 -25.8 -119.1 0l-18.6 16.6c-7.4 6.6 -17.9 7.8 -26.7 3.1 -8.6 -4.7 -13.5 -14.4 -11.9 -24.2 7.6 -49.2 66.6 -82.2 116.8 -82.2zM484.4 531.3c60.3 0 109.4 56 109.4 125s-49.1 125 -109.4 125S375 725.2 375 656.3s49 -125 109.4 -125z"/></svg>