<svg height="512" width="496" xmlns="http://www.w3.org/2000/svg"><path d="M248 8C111 8 0 119 0 256s111 248 248 248S496 393 496 256 385 8 248 8m144 386.4V280c0-13.2-10.8-24-24-24s-24 10.8-24 24v151.4C315.5 447 282.8 456 248 456s-67.5-9-96-24.6V280c0-13.2-10.8-24-24-24s-24 10.8-24 24v114.4C69.4 358.4 48 309.7 48 256 48 145.7 137.7 56 248 56s200 89.7 200 200c0 53.7-21.4 102.5-56 138.4M205.8 234.5c4.4-2.4 6.9-7.4 6.1-12.4C207.9 196.9 177.7 180 152.1 180s-55.9 16.9-59.8 42.1c-.8 5 1.7 10 6.1 12.4s9.9 1.8 13.7-1.6l9.5-8.5c14.8-13.2 46.2-13.2 61 0l9.5 8.5c2.5 2.3 7.9 4.8 13.7 1.6M344 180c-25.7 0-55.9 16.9-59.8 42.1-.8 5 1.7 10 6.1 12.4 4.5 2.4 9.9 1.8 13.7-1.6l9.5-8.5c14.8-13.2 46.2-13.2 61 0l9.5 8.5c2.5 2.2 8 4.7 13.7 1.6 4.4-2.4 6.9-7.4 6.1-12.4C399.9 196.9 369.7 180 344 180m-96 92c-30.9 0-56 28.7-56 64s25.1 64 56 64 56-28.7 56-64-25.1-64-56-64"/></svg>