<svg height="1000" width="968.8" xmlns="http://www.w3.org/2000/svg"><path d="M484.4 15.6C216.8 15.6 0 232.4 0 500s216.8 484.4 484.4 484.4S968.8 767.6 968.8 500 752 15.6 484.4 15.6zm0 875C268.9 890.6 93.8 715.4 93.8 500S268.9 109.4 484.4 109.4 875 284.6 875 500 699.8 890.6 484.4 890.6zM500 593.8c-25.8 0 -46.9 21 -46.9 46.8s21.1 46.9 46.9 46.9c46.5 0 90.4 20.5 120.3 56.3 15.8 19.1 45.3 23.2 66 6 20 -16.6 22.7 -46.1 6.1 -66 -47.9 -57.2 -118 -90 -192.4 -90zm-171.9 -125c34.6 0 62.5 -28 62.5 -62.5s-27.9 -62.5 -62.5 -62.5 -62.5 27.9 -62.5 62.5 28 62.5 62.5 62.5zm312.5 -125c-34.5 0 -62.5 27.9 -62.5 62.5s28 62.5 62.5 62.5 62.5 -28 62.5 -62.5 -27.9 -62.5 -62.5 -62.5zM317.2 536.7c-22.3 29.9 -71.1 98.8 -71.1 133 0 44.4 36.7 80.3 82 80.3s82.1 -35.9 82.1 -80.3c0 -34.2 -48.9 -103.1 -71.1 -133 -5.5 -7.2 -16.4 -7.2 -21.9 0z"/></svg>