<svg height="1000" width="968.8" xmlns="http://www.w3.org/2000/svg"><path d="M484.4 15.6C216.8 15.6 0 232.4 0 500s216.8 484.4 484.4 484.4S968.8 767.6 968.8 500 752 15.6 484.4 15.6zm281.2 754.7V546.9c0 -25.8 -21.1 -46.9 -46.8 -46.9s-46.9 21.1 -46.9 46.9v295.7c-55.7 30.4 -119.6 48 -187.5 48S352.5 873 296.9 842.6V546.9C296.9 521.1 275.8 500 250 500s-46.9 21.1 -46.9 46.9v223.4C135.5 700 93.8 604.9 93.8 500c0 -215.4 175.1 -390.6 390.6 -390.6S875 284.6 875 500c0 104.9 -41.8 200.2 -109.4 270.3zM402 458c8.5 -4.7 13.4 -14.4 11.9 -24.2 -7.8 -49.2 -66.8 -82.2 -116.8 -82.2s-109.2 33 -116.8 82.2c-1.6 9.8 3.3 19.5 11.9 24.2 8.6 4.7 19.3 3.5 26.7 -3.1l18.6 -16.6c28.9 -25.8 90.2 -25.8 119.1 0l18.6 16.6c4.9 4.5 15.4 9.4 26.8 3.1zM671.9 351.6c-50.2 0 -109.2 33 -116.8 82.2 -1.6 9.8 3.3 19.5 11.9 24.2 8.8 4.7 19.3 3.5 26.8 -3.1l18.5 -16.6c28.9 -25.8 90.2 -25.8 119.1 0l18.6 16.6c4.9 4.3 15.6 9.2 26.8 3.1 8.6 -4.7 13.4 -14.4 11.9 -24.2 -7.6 -49.2 -66.6 -82.2 -116.8 -82.2zM484.4 531.3c-60.4 0 -109.4 56 -109.4 125s49 125 109.4 125 109.4 -56.1 109.4 -125 -49.1 -125 -109.4 -125z"/></svg>