<svg height="512" width="512" xmlns="http://www.w3.org/2000/svg"><path d="m274.7 274.7-37.4-37.4L166 346zM256 8C119 8 8 119 8 256s111 248 248 248S504 393 504 256 393 8 256 8m155.9 174.8 14.7-6.1a8 8 0 0 1 10.5 4.3 8 8 0 0 1-4.3 10.5l-14.8 6.1a8 8 0 0 1-10.4-4.4 8 8 0 0 1 4.3-10.4M314.4 94l6.2-14.8A8 8 0 0 1 331 74.9a8 8 0 0 1 4.3 10.5l-6.1 14.8a8 8 0 0 1-10.4 4.3A8 8 0 0 1 314.4 94M256 60a8 8 0 0 1 8 8v16a8 8 0 0 1-8 8 8 8 0 0 1-8-8V68a8 8 0 0 1 8-8m-75 14.9a8 8 0 0 1 10.5 4.4l6.1 14.7a8 8 0 1 1-14.8 6.1l-6.1-14.8A8 8 0 0 1 181 74.9m-63.6 42.5a8 8 0 0 1 11.3 0l11.3 11.3a8 8 0 0 1 0 11.3 8 8 0 0 1-11.3 0l-11.3-11.3a8 8 0 0 1 0-11.3M60 256a8 8 0 0 1 8-8h16a8 8 0 0 1 8 8 8 8 0 0 1-8 8H68a8 8 0 0 1-8-8m40.2 73.2-14.8 6.1A8 8 0 0 1 74.9 331a8 8 0 0 1 4.4-10.5L94 314.4a8 8 0 0 1 10.5 4.4 8 8 0 0 1-4.3 10.4m4.3-136A8 8 0 0 1 94 197.6l-14.8-6.2A8 8 0 0 1 74.9 181a8 8 0 0 1 10.5-4.3l14.8 6.1a8 8 0 0 1 4.3 10.4M197.6 418l-6.2 14.8a8 8 0 0 1-14.7-6.1l6.1-14.8a8 8 0 1 1 14.8 6.1m66.4 26a8 8 0 0 1-8 8 8 8 0 0 1-8-8v-16a8 8 0 0 1 8-8 8 8 0 0 1 8 8zm67-6.9a8 8 0 0 1-10.5-4.3L314.4 418a8 8 0 0 1 4.4-10.4 8 8 0 0 1 10.4 4.3l6.1 14.8a8 8 0 0 1-4.3 10.4m63.6-42.5a8 8 0 0 1-11.3 0L372 383.3a8 8 0 0 1 0-11.3 8 8 0 0 1 11.3 0l11.3 11.3a8 8 0 0 1 0 11.3M286.3 286.3l-176 115.4L225.8 225.8 401.7 110.3zM437.1 331a8 8 0 0 1-10.5 4.3l-14.7-6.1a8 8 0 0 1-4.4-10.4 8 8 0 0 1 10.5-4.4l14.8 6.2a8 8 0 0 1 4.3 10.4m6.9-67h-16a8 8 0 0 1-8-8 8 8 0 0 1 8-8h16a8 8 0 0 1 8 8 8 8 0 0 1-8 8"/></svg>