<svg height="512" width="512" xmlns="http://www.w3.org/2000/svg"><path d="m502.6 310-96.7 96.8a31.9 31.9 0 0 1-45 0l-80.3-80.5-9.9 9.9a190.6 190.6 0 0 1-5.4 168.6c-4.5 8.5-16.4 9.6-23.2 2.8L134.5 400.1l-17.8 17.8c.8 2.6 1.7 5 1.7 7.8a32 32 0 1 1-32-32.1c2.7 0 5.1 1 7.7 1.7l17.8-17.8L4.4 269.9c-6.8-6.8-5.7-18.6 2.8-23.2a190.6 190.6 0 0 1 168.6-5.4l9.8-9.8-80.4-80.4a32 32 0 0 1 0-45.1L202 9.3A31.6 31.6 0 0 1 224.5 0a32 32 0 0 1 22.6 9.3l80.3 80.3 47.8-47.9a33.6 33.6 0 0 1 47.5 0l47.5 47.5a33.6 33.6 0 0 1 0 47.5l-47.8 47.9 80.3 80.4a31.8 31.8 0 0 1-.1 45m-283-112.6 73.8-73.8L224.5 54.7l-73.8 73.8zm237.7 90.1-68.9-68.9-73.8 73.8 68.9 68.9z"/></svg>