<svg height="512" width="512" xmlns="http://www.w3.org/2000/svg"><path d="M305.4 462.6c7.4 7.3 6.2 20.1-3 25C224.7 529.4 125.7 517.5 60.1 451.9S-17.4 287.4 24.4 209.6c4.9-9.1 17.7-10.3 25-3l116.8 116.8L193.6 296c-.7-2.6-1.6-5-1.6-7.8a32 32 0 1 1 32 32c-2.8 0-5.2-.9-7.8-1.6L188.8 346zM512 303.1a16.1 16.1 0 0 1-16 17h-32.1a16 16 0 0 1-15.9-15C440.5 175.5 336.5 70.5 207 63.5A15.8 15.8 0 0 1 192 47.6V16A16.1 16.1 0 0 1 209 0c163.3 8.6 294.5 139.8 303 303.1m-96-.3a16.2 16.2 0 0 1-16.1 17.3h-32.3a16.1 16.1 0 0 1-15.8-14.7c-7-77-68.2-138.9-145-145.3A15.9 15.9 0 0 1 192 144.2v-32.1A16.1 16.1 0 0 1 209.3 96c110.2 8.5 198.3 96.6 206.7 206.8"/></svg>