<svg height="1000" width="875" xmlns="http://www.w3.org/2000/svg"><path d="M847.5 253.8c17 17 27.5 40.4 27.5 66.3v523.6c0 51.8 -42 93.8 -93.8 93.8H93.7C42 937.5 0 895.5 0 843.7V156.2C0 104.5 42 62.5 93.7 62.5h523.7c25.9 0 49.3 10.5 66.3 27.5zM531.3 156.3h-250v156.2h250V156.3zm238.2 687.5c6.5 0 11.8 -5.3 11.8 -11.8V324.9c0 -3.2 -1.4 -6.1 -3.5 -8.2L625 163.8v195.6c0 25.9 -21 46.8 -46.9 46.8H234.4c-25.9 0 -46.9 -20.9 -46.9 -46.8V156.2h-82c-6.5 0 -11.8 5.3 -11.8 11.8v664c0 6.5 5.3 11.7 11.8 11.7h664zm-332 -390.7c94.8 0 171.9 77.1 171.9 171.9S532.3 796.9 437.5 796.9 265.6 719.8 265.6 625 342.7 453.1 437.5 453.1zm0 250c43.1 0 78.1 -35 78.1 -78.1s-35 -78.1 -78.1 -78.1 -78.1 35 -78.1 78.1 35 78.1 78.1 78.1z"/></svg>