<svg height="512" width="448" xmlns="http://www.w3.org/2000/svg"><path d="M433.9 129.9 350.1 46.1A48 48 0 0 0 316.1 32H48C21.5 32 0 53.5 0 80v352c0 26.5 21.5 48 48 48h352c26.5 0 48-21.5 48-48V163.9a48 48 0 0 0-14.1-34M272 80v80H144V80zm122 352H54a6 6 0 0 1-6-6V86a6 6 0 0 1 6-6h42v104c0 13.3 10.7 24 24 24h176c13.3 0 24-10.7 24-24V83.9l78.2 78.2a6 6 0 0 1 1.8 4.3V426a6 6 0 0 1-6 6M224 232c-48.5 0-88 39.5-88 88s39.5 88 88 88 88-39.5 88-88-39.5-88-88-88m0 128c-22.1 0-40-17.9-40-40s17.9-40 40-40 40 17.9 40 40-17.9 40-40 40"/></svg>