<svg height="512" width="640" xmlns="http://www.w3.org/2000/svg"><path d="M0 224v272c0 8.8 7.2 16 16 16h80V192H32C14.3 192 0 206.3 0 224m360-48h-24v-40c0-4.4-3.6-8-8-8h-16c-4.4 0-8 3.6-8 8v64c0 4.4 3.6 8 8 8h48c4.4 0 8-3.6 8-8v-16c0-4.4-3.6-8-8-8m137.8-64L337.8 5.4a32 32 0 0 0-35.5 0L142.3 112A32 32 0 0 0 128 138.7V512h128V368c0-8.8 7.2-16 16-16h96c8.8 0 16 7.2 16 16v144h128V138.7C512 128 506.6 118 497.8 112M320 256c-44.2 0-80-35.8-80-80s35.8-80 80-80 80 35.8 80 80-35.8 80-80 80m288-64h-64v320h80c8.8 0 16-7.2 16-16V224c0-17.7-14.3-32-32-32"/></svg>