<svg height="512" width="384" xmlns="http://www.w3.org/2000/svg"><path d="M42.3 252.7C26.2 233.7 17.6 206.8 17.5 172.8 17.5 72.4 92.7 19.7 184.7 19.7c98.6-1.6 156.8 49 184.3 70.6l-50.5 72.1-37.3-24.6 26.9-38.6c-36.5-24-79.4-36.5-123-35.8C134.4 62.6 73.4 90.6 73.4 139.6c0 18.7 11.2 20.7 28.6 15.6 23.3-5.3 41.9.6 55.8 14 26.4 24.3 23.2 67.6-.7 91.9-29.2 29.5-85.2 27.3-114.8-8.4m317.7 5.9C344.5 239.8 321.1 229.2 296.8 230c-38.1-2-71.1 28-70.5 67.2-.7 16.8 6 33 18.4 44.3 14.1 13.9 33 19.7 56.3 14.4 17.4-5.1 28.6-3.1 28.6 15.6 0 4.3-.5 8.5-1.4 12.7-16.7 40.9-59.5 64.4-121.4 64.4-51.9.2-102.4-16.4-144.1-47.3l33.7-39.4L60.8 334.5 0 406.3l15.4 13.8c52.5 46.8 120.4 72.5 190.7 72.2 51.4 0 94.4-10.5 133.6-44.1C396.8 396.8 393.9 299 360 258.6"/></svg>