<svg height="512" width="512" xmlns="http://www.w3.org/2000/svg"><path d="M505 442.7 405.3 343c-4.5-4.5-10.6-7-17-7H372c27.6-35.3 44-79.7 44-128C416 93.1 322.9 0 208 0S0 93.1 0 208s93.1 208 208 208c48.3 0 92.7-16.4 128-44v16.3c0 6.4 2.5 12.5 7 17l99.7 99.6c9.4 9.5 24.6 9.5 33.9 0l28.3-28.3c9.4-9.3 9.4-24.5.1-33.9M208 352C128.5 352 64 287.6 64 208 64 128.5 128.4 64 208 64s144 64.3 144 144c0 79.5-64.3 144-144 144m0-240c-40.7 0-73.8 33.1-73.8 73.8 0 33 48.3 93.1 66.8 114.9a9.2 9.2 0 0 0 14.1 0c18.5-21.8 66.8-81.9 66.8-114.9C281.9 145.1 248.8 112 208 112m0 96c-13.2 0-24-10.7-24-24s10.8-24 24-24 24 10.7 24 24-10.7 24-24 24"/></svg>