<svg height="512" width="512" xmlns="http://www.w3.org/2000/svg"><path d="M505 442.7 405.3 343c-4.5-4.5-10.6-7-17-7H372c27.6-35.3 44-79.7 44-128C416 93.1 322.9 0 208 0S0 93.1 0 208s93.1 208 208 208c48.3 0 92.7-16.4 128-44v16.3c0 6.4 2.5 12.5 7 17l99.7 99.6c9.4 9.5 24.6 9.5 33.9 0l28.3-28.3c9.4-9.3 9.4-24.5.1-33.9M208 352C128.5 352 64 287.6 64 208 64 128.5 128.4 64 208 64s144 64.3 144 144c0 79.5-64.3 144-144 144m27.1-152.6-45-13.5c-5.1-1.5-8.7-6.8-8.7-12.7 0-7.3 5.3-13.2 11.8-13.2h28.1c4.5 0 8.9 1.3 12.8 3.7 3.2 2.1 7.3 1.9 10.1-.7L256 151.8c3.5-3.4 3.3-9.2-.6-12.2-9.1-6.8-20.1-10.7-31.4-11.3V112c0-4.4-3.6-8-8-8h-16c-4.4 0-8 3.6-8 8v16.1c-23.6.7-42.7 20.6-42.7 45.1 0 20 13 37.8 31.6 43.4l45 13.5c5.2 1.5 8.8 6.8 8.8 12.7 0 7.3-5.3 13.2-11.8 13.2h-28.1c-4.6 0-9-1.3-12.8-3.7-3.3-2.1-7.4-1.9-10.1.7l-11.8 11.2c-3.5 3.4-3.3 9.2.6 12.2 9.1 6.8 20.1 10.7 31.3 11.3V304c0 4.4 3.6 8 8 8h16c4.5 0 8-3.6 8-8v-16.1c23.7-.6 42.7-20.6 42.7-45.1 0-20-13-37.8-31.6-43.4"/></svg>