<svg height="512" width="640" xmlns="http://www.w3.org/2000/svg"><path d="M539.7 237.3c3.1-12.2 4.3-24.8 4.3-37.4C544 107.4 468.6 32 376.1 32c-77.2 0-144.7 53-163 127.8-15.4-13.2-35-20.5-55.2-20.5-46.3 0-84 37.6-84 83.9 0 7.4 1 15 3.1 22.4C34.1 265.8 6.2 309.3 6.2 356.8c0 68 55.5 123.2 123.2 123.2h381.2c67.7 0 123.2-55.2 123.2-123.2 0-56.4-38.9-106-94.1-119.5M199.9 401.6c0 8.2-7.1 15.3-15.3 15.3h-31c-8.3 0-15.3-7.1-15.3-15.3v-111c0-8.2 7-15.3 15.3-15.3h31c8.2 0 15.3 7.1 15.3 15.3zm89.5 0c0 8.2-7.1 15.3-15.4 15.3h-30.9c-8.3 0-15.3-7.1-15.3-15.3V270.1c0-8.3 7-15.3 15.3-15.3H274c8.3 0 15.4 7 15.4 15.3zm89.4 0c0 8.2-7 15.3-15.3 15.3h-30.9c-8.3 0-15.4-7.1-15.4-15.3V238.8c0-8.2 7.1-15.3 15.4-15.3h30.9c8.3 0 15.3 7.1 15.3 15.3zm87.1 0c0 8.2-7.1 15.3-15.4 15.3H422c-8.2 0-15.3-7.1-15.3-15.3V176.9c0-8.5 7.1-15.6 15.3-15.6h28.5c8.3 0 15.4 7.1 15.4 15.6z"/></svg>