<svg height="512" width="512" xmlns="http://www.w3.org/2000/svg"><path d="M480 160H32C14.3 160 0 145.7 0 128V64C0 46.3 14.3 32 32 32h448c17.7 0 32 14.3 32 32v64c0 17.7-14.3 32-32 32M432 72c-13.3 0-24 10.7-24 24s10.7 24 24 24 24-10.7 24-24S445.3 72 432 72m-64 0c-13.3 0-24 10.7-24 24s10.7 24 24 24 24-10.7 24-24S381.3 72 368 72m112 248H32C14.3 320 0 305.7 0 288v-64c0-17.7 14.3-32 32-32h448c17.7 0 32 14.3 32 32v64c0 17.7-14.3 32-32 32m-48-88c-13.3 0-24 10.7-24 24s10.7 24 24 24 24-10.7 24-24-10.7-24-24-24m-64 0c-13.3 0-24 10.7-24 24s10.7 24 24 24 24-10.7 24-24-10.7-24-24-24m112 248H32C14.3 480 0 465.7 0 448v-64c0-17.7 14.3-32 32-32h448c17.7 0 32 14.3 32 32v64c0 17.7-14.3 32-32 32m-48-88c-13.3 0-24 10.7-24 24s10.7 24 24 24 24-10.7 24-24-10.7-24-24-24m-64 0c-13.3 0-24 10.7-24 24s10.7 24 24 24 24-10.7 24-24-10.7-24-24-24"/></svg>