<svg height="1000" width="1125" xmlns="http://www.w3.org/2000/svg"><path d="M1097.5 308.7c36.7 36.6 36.7 96 0 132.6L816.3 722.5c-58.6 58.6 -160.1 17.7 -160.1 -66.2V551.2C458.5 566.5 461.7 613 492 705c27.8 84.2 -65.4 154.8 -138.7 108.9C252.3 750.8 187.5 651.6 187.5 531.1c0 -76.8 23.9 -142 71 -193.9 38.7 -42.7 93.2 -75.1 161.9 -96.5 71.7 -22.4 152.9 -31.5 235.8 -35.2V93.8C656.2 10 757.7 -31.1 816.3 27.5zM750 656.3L1031.3 375 750 93.8v203.3c-216.5 1.7 -468.7 20.5 -468.7 234 0 101.9 64 167.2 121.6 203.3C325.2 498.7 498.6 457.2 750 453.4v202.9zm48.3 165c14.5 -4.2 28.4 -10.4 41 -18.2 15.6 -9.7 35.7 1.6 35.7 20v83.2c0 51.7 -42 93.7 -93.8 93.7H93.7C42 1000 0 958 0 906.3V218.8C0 167 42 125 93.7 125h257.9c12.9 0 23.4 10.5 23.4 23.4v8.8c0 9.6 -5.8 18.3 -14.8 21.8 -26.7 10.4 -51.5 22.5 -74.3 36.3 -3.6 2.2 -7.8 3.4 -12.3 3.5H105.5c-6.5 0 -11.8 5.2 -11.8 11.7v664c0 6.5 5.3 11.8 11.8 11.8h664c6.5 0 11.7 -5.3 11.7 -11.8v-50.7c0 -10.5 7 -19.6 17.1 -22.5z"/></svg>