<svg height="512" width="576" xmlns="http://www.w3.org/2000/svg"><path d="m561.9 158.1-144-144C387.9-15.9 336 5.1 336 48v57.2c-42.4 1.9-84 6.6-120.8 18-35.1 11-63 27.6-82.9 49.4C108.2 199.2 96 232.6 96 271.9c0 61.7 33.2 112.5 84.9 144.8 37.5 23.5 85.2-12.7 71-55.7C236.4 313.8 234.7 290 336 282.2V336c0 43 52 63.9 81.9 33.9l144-144c18.8-18.7 18.8-49.1 0-67.8M384 336V232.2C255.3 234.1 166.5 255.3 206.3 376 176.8 357.6 144 324.1 144 271.9 144 162.6 273.1 153 384 152.1V48l144 144zm24.7 84.5a82.7 82.7 0 0 0 21-9.3c8-5 18.3.8 18.3 10.2V464c0 26.5-21.5 48-48 48H48C21.5 512 0 490.5 0 464V112C0 85.5 21.5 64 48 64h132c6.6 0 12 5.4 12 12v4.5c0 4.9-3 9.4-7.6 11.1-13.7 5.4-26.4 11.6-38 18.6a12.1 12.1 0 0 1-6.3 1.8H54a6 6 0 0 0-6 6v340a6 6 0 0 0 6 6h340a6 6 0 0 0 6-6v-26c0-5.3 3.6-10 8.7-11.5"/></svg>