<svg height="512" width="576" xmlns="http://www.w3.org/2000/svg"><path d="m568.5 177.4-144 136C409.3 327.8 384 317.1 384 296v-72c-144.6 1-205.6 35.1-164.8 171.4 4.5 14.9-12.8 26.5-25 17.3C155.3 383.1 120 326.5 120 269.3 120 125.4 237.6 96.8 384 96V24C384 2.8 409.3-7.8 424.5 6.6l144 136c10 9.4 10 25.4 0 34.8M384 379.1V448H64V128h50.9a12 12 0 0 0 8.7-3.7c14.9-15.6 32.2-27.9 51-37.7C185.7 80.8 181.6 64 169 64H48C21.5 64 0 85.5 0 112v352c0 26.5 21.5 48 48 48h352c26.5 0 48-21.5 48-48v-88.8c0-8.3-8.2-14.1-16-11.3a71.8 71.8 0 0 1-34.2 3.4c-7.3-1.1-13.8 4.5-13.8 11.8"/></svg>