<svg height="512" width="448" xmlns="http://www.w3.org/2000/svg"><path d="M448 80v352c0 26.5-21.5 48-48 48H48C21.5 480 0 458.5 0 432V80C0 53.5 21.5 32 48 32h352c26.5 0 48 21.5 48 48M304 296c-14.6 0-27.8 5.6-37.8 14.7l-67.9-40.8a56.3 56.3 0 0 0 0-27.8l67.9-40.8c10 9.1 23.2 14.7 37.8 14.7 30.9 0 56-25.1 56-56s-25.1-56-56-56-56 25.1-56 56c0 4.8.6 9.5 1.7 13.9l-67.9 40.8C171.8 205.6 158.6 200 144 200c-30.9 0-56 25.1-56 56s25.1 56 56 56c14.6 0 27.8-5.6 37.8-14.7l67.9 40.8A56 56 0 0 0 248 352c0 30.9 25.1 56 56 56s56-25.1 56-56-25.1-56-56-56"/></svg>