<svg height="1000" width="1125" xmlns="http://www.w3.org/2000/svg"><path d="M1097.5 308.7L816.3 27.5C757.7 -31.1 656.3 10 656.3 93.8v111.7c-83 3.7 -164.2 12.8 -235.9 35.2 -68.7 21.4 -123.2 53.8 -161.9 96.5 -47.1 51.9 -71 117.1 -71 193.9 0 120.5 64.8 219.7 165.8 282.8C426.6 859.8 519.8 789.2 492 705 461.7 613 458.5 566.5 656.3 551.2v105.1c0 83.9 101.5 124.8 160 66.2l281.2 -281.2c36.7 -36.6 36.7 -96 0 -132.6zM750 656.3V453.4c-251.3 3.8 -424.8 45.3 -347.1 281C345.3 698.3 281.3 633 281.3 531.1c0 -213.5 252.2 -232.3 468.7 -234V93.8L1031.3 375 750 656.3zm48.3 165a161.4 -161.4 0 0 1 41 -18.2c15.6 -9.7 35.7 1.6 35.7 20v83.2c0 51.7 -42 93.7 -93.7 93.7H93.8C42 1000 0 958 0 906.3V218.8C0 167 42 125 93.8 125h257.8c12.9 0 23.4 10.5 23.4 23.4v8.8c0 9.6 -5.8 18.3 -14.8 21.8 -26.7 10.4 -51.5 22.5 -74.3 36.3a23.7 -23.7 0 0 0 -12.3 3.5H105.5a11.7 -11.7 0 0 1 -11.7 11.7v664a11.7 -11.7 0 0 1 11.7 11.8h664a11.7 -11.7 0 0 1 11.8 -11.8v-50.7c0 -10.5 6.9 -19.6 17 -22.5z"/></svg>