<svg height="512" width="512" xmlns="http://www.w3.org/2000/svg"><path d="M224 192a16 16 0 1 0 16 16 16 16 0 0 0-16-16M466.5 83.7l-192-80A57.4 57.4 0 0 0 256.1 0a57.4 57.4 0 0 0-18.5 3.7l-192 80A47.9 47.9 0 0 0 16 128c0 198.5 114.5 335.7 221.5 380.3a48.1 48.1 0 0 0 36.9 0C360.1 472.6 496 349.3 496 128A48 48 0 0 0 466.5 83.7M384 256h-12.1c-28.5 0-42.8 34.5-22.6 54.6l8.5 8.6a16 16 0 1 1-22.6 22.6l-8.6-8.5C306.5 313.1 272 327.4 272 355.9V368a16 16 0 0 1-32 0v-12.1c0-28.5-34.5-42.8-54.6-22.6l-8.6 8.5a16 16 0 0 1-22.6-22.6l8.6-8.6C182.9 290.5 168.6 256 140.1 256H128a16 16 0 0 1 0-32h12.1c28.5 0 42.8-34.5 22.7-54.6l-8.6-8.6a16 16 0 0 1 22.6-22.6l8.6 8.6c20.1 20.1 54.6 5.8 54.6-22.7V112a16 16 0 0 1 32 0v12.1c0 28.5 34.5 42.8 54.6 22.7l8.6-8.6a16 16 0 0 1 22.6 22.6l-8.5 8.6c-20.2 20.1-5.9 54.6 22.6 54.6H384a16 16 0 0 1 0 32m-96 0a16 16 0 1 0 16 16 16 16 0 0 0-16-16"/></svg>