<svg height="512" width="640" xmlns="http://www.w3.org/2000/svg"><path d="m496.6 372.6 70-70c16.9-16.9 10-45.7-12.8-53.1L512 236.1V96C512 78.3 497.7 64 480 64h-64V24C416 10.7 405.3 0 392 0H248c-13.3 0-24 10.7-24 24v40h-64c-17.7 0-32 14.3-32 32v140.1l-41.8 13.4c-22.7 7.3-29.7 36.2-12.8 53.1l70 70C125.8 416.3 85.6 448 24 448 10.7 448 0 458.7 0 472v16c0 13.3 10.7 24 24 24 61 0 107.5-20.6 143.3-59.4C181.7 487.4 216 512 256 512h128c40 0 74.3-24.6 88.7-59.4C508.5 491.4 555 512 616 512c13.3 0 24-10.7 24-24v-16c0-13.3-10.7-24-24-24-60.8 0-101.5-31-119.4-75.4M192 128h256v87.5l-118.2-38a32 32 0 0 0-19.6 0l-118.2 38z"/></svg>