<svg height="512" width="640" xmlns="http://www.w3.org/2000/svg"><path d="M192 160h32V32h-32c-35.3 0-64 28.6-64 64s28.7 64 64 64M0 416c0 35.4 28.6 64 64 64h32V352H64C28.6 352 0 380.6 0 416M337.5 288c-35 0-76.2 13.1-104.8 32-24.8 16.4-44.5 32-104.7 32v128l57.5 16c26.2 7.3 53 13.1 80.3 15 32.7 2.3 65.6.7 97.6-6.2C472.9 481.3 512 429.2 512 384c0-64-84.2-96-174.5-96M491.4 7.2C459.4.3 426.5-1.3 393.8 1c-27.3 1.9-54.1 7.8-80.3 15L256 32v128c60.2 0 79.9 15.6 104.7 32 28.6 18.9 69.9 32 104.8 32C555.8 224 640 192 640 128 640 82.8 600.9 30.7 491.4 7.2"/></svg>