<svg height="512" width="512" xmlns="http://www.w3.org/2000/svg"><path d="M403.5 455.4A246.2 246.2 0 0 1 256 504C118.8 504 8 393 8 256 8 118.8 119 8 256 8a247.4 247.4 0 0 1 165.7 63.5 3.6 3.6 0 0 1-2.9 6.2A419 419 0 0 0 362.1 74C232.8 74 139.7 127.5 139.7 229.3c0 109.1 92.2 145.9 176.9 178.8 33.6 13 65.4 25.3 87 41.6a3.6 3.6 0 0 1 0 5.7zM503 233.1a3.6 3.6 0 0 0-1.3-2.4C450 187.7 408.1 170.2 357.3 170.2c-84.2 0-80.3 52.1-80.3 53.6 0 42.6 52.1 62 112.3 84.5 31.1 11.6 63.2 23.6 92.7 39.9a3.6 3.6 0 0 0 5-1.8 249 249 0 0 0 16-113.3"/></svg>