<svg height="512" width="576" xmlns="http://www.w3.org/2000/svg"><path d="M576 216v16c0 13.3-10.7 24-24 24h-8l-26.1 182.8c-3.4 23.6-23.6 41.2-47.5 41.2H105.6C81.7 480 61.5 462.4 58.1 438.8L32 256h-8C10.7 256 0 245.3 0 232v-16c0-13.3 10.7-24 24-24h67.3L198.1 45.2c10.4-14.3 30.4-17.5 44.7-7.1s17.5 30.4 7.1 44.7L170.5 192h235L326.1 82.8c-10.4-14.3-7.2-34.3 7.1-44.7s34.3-7.2 44.7 7.1L484.7 192H552c13.3 0 24 10.7 24 24M312 392V280c0-13.3-10.7-24-24-24s-24 10.7-24 24v112c0 13.3 10.7 24 24 24s24-10.7 24-24m112 0V280c0-13.3-10.7-24-24-24s-24 10.7-24 24v112c0 13.3 10.7 24 24 24s24-10.7 24-24m-224 0V280c0-13.3-10.7-24-24-24s-24 10.7-24 24v112c0 13.3 10.7 24 24 24s24-10.7 24-24"/></svg>