<svg height="512" width="512" xmlns="http://www.w3.org/2000/svg"><path d="M304 320a16 16 0 1 0 16 16 16 16 0 0 0-16-16m32-96a16 16 0 1 0 16 16 16 16 0 0 0-16-16m32 64a16 16 0 1 0-16-16 16 16 0 0 0 16 16m-32 32a16 16 0 1 0-16-16 16 16 0 0 0 16 16m-32-64a16 16 0 1 0 16 16 16 16 0 0 0-16-16m128-32a16 16 0 1 0-16-16 16 16 0 0 0 16 16m-48 16a16 16 0 1 0 16-16 16 16 0 0 0-16 16m-16-48a16 16 0 1 0 16 16 16 16 0 0 0-16-16m96 32a16 16 0 1 0 16 16 16 16 0 0 0-16-16m32-32a16 16 0 1 0 16 16 16 16 0 0 0-16-16m-64 64a16 16 0 1 0 16 16 16 16 0 0 0-16-16m-32 32a16 16 0 1 0 16 16 16 16 0 0 0-16-16m-64 64a16 16 0 1 0 16 16 16 16 0 0 0-16-16m-32 32a16 16 0 1 0 16 16 16 16 0 0 0-16-16m64-64a16 16 0 1 0 16 16 16 16 0 0 0-16-16m21.6-218.3L378.3 90.3a16 16 0 0 0-22.6 0l-5.6 5.7A111.2 111.2 0 0 0 272 64c-19.2 0-37.1 5.3-52.9 13.8l-10-10A121.7 121.7 0 0 0 123.4 32C55.5 31.5 0 92.9 0 160.8V464a16 16 0 0 0 16 16h32a16 16 0 0 0 16-16V158.4c0-30.1 21-58.2 51-61.9a58.4 58.4 0 0 1 48.9 16.6l10 10C165.3 138.9 160 156.8 160 176a111.2 111.2 0 0 0 32 78.1l-5.7 5.6a16 16 0 0 0 0 22.6l11.3 11.4a16 16 0 0 0 22.7 0L389.6 124.3a16 16 0 0 0 0-22.6"/></svg>