<svg height="512" width="448" xmlns="http://www.w3.org/2000/svg"><path d="M91.4 484c-.3-16 13.1-29.1 29.2-29.1h62.3v-5.8H57C41 449.1 27.6 436 27.9 420c.3-15.5 12.9-28 28.5-28h126.5v-5.7H29.1C13.1 386.3-.3 373.2 0 357.2c.3-15.6 13-28.1 28.6-28.1h154.3v-5.7H57.7c-16 0-29.4-13.1-29.1-29.1.3-15.5 13-28 28.5-28h168.6l-31.1-22.6c-12.7-9.3-15.6-27.2-6.3-39.9 9.3-12.8 27.2-15.6 39.9-6.3l123.4 89.7a34.3 34.3 0 0 1 14.1 27.7V456c0 16-10.9 29.8-26.4 33.4l-80.5 19a137.2 137.2 0 0 1-31.4 3.6H120c-15.6 0-28.3-12.5-28.6-28m73.3-225.7h36.4l-11.2-8.1c-18.6-13.6-20.3-40.9-3.2-56.6l-13-16.7c-9.8-12.6-28.4-15.2-40.8-5.1-12.1 9.8-14.2 27.5-4.6 39.8zM448 256.2l-5-152.5C442.5 88 429.3 75.6 413.5 76.1s-28.2 13.7-27.6 29.5l1.2 38.4L283.6 11C274-1.3 256.3-3.6 243.9 5.7c-12.8 9.6-14.9 28.2-5.1 40.9l76.9 98.7-4.5 3.5L216.4 27.1C206.8 14.8 189.2 12.5 176.8 21.8c-12.9 9.6-15 28.2-5.1 40.8l94.4 121.3-4.5 3.5L183.9 87.7C174.4 75.4 156.7 73.1 144.3 82.4c-12.8 9.6-14.9 28.2-5.1 40.8l52 66.9c12.5-8.3 29.1-8.3 41.7.9l123.4 89.7c10.9 7.9 17.4 20.7 17.4 34.2v17l61.1-47.5A34.3 34.3 0 0 0 448 256.2"/></svg>