<svg height="512" width="640" xmlns="http://www.w3.org/2000/svg"><path d="M216 288h-48c-8.8 0-16 7.2-16 16v192c0 8.8 7.2 16 16 16h48c8.8 0 16-7.2 16-16V304c0-8.8-7.2-16-16-16M88 384H40c-8.8 0-16 7.2-16 16v96c0 8.8 7.2 16 16 16h48c8.8 0 16-7.2 16-16v-96c0-8.8-7.2-16-16-16M344 192h-48c-8.8 0-16 7.2-16 16v288c0 8.8 7.2 16 16 16h48c8.8 0 16-7.2 16-16V208c0-8.8-7.2-16-16-16M472 96h-48c-8.8 0-16 7.2-16 16v384c0 8.8 7.2 16 16 16h48c8.8 0 16-7.2 16-16V112c0-8.8-7.2-16-16-16M600 0h-48c-8.8 0-16 7.2-16 16v480c0 8.8 7.2 16 16 16h48c8.8 0 16-7.2 16-16V16C616 7.2 608.8 0 600 0"/></svg>