<svg height="512" width="512" xmlns="http://www.w3.org/2000/svg"><path d="M32 416a96 96 0 0 0 96 96h256a96 96 0 0 0 96-96v-32H32zM496 288h-96v-32h64a16 16 0 0 0 16-16v-16a16 16 0 0 0-16-16h-80a32 32 0 0 0-32 32v48h-64V96a32 32 0 0 1 64 0v16a16 16 0 0 0 16 16h32a16 16 0 0 0 16-16V96A96.2 96.2 0 0 0 300.9 1.9C255.3 10.7 224 53.4 224 99.8V288h-64v-48a32 32 0 0 0-32-32H48a16 16 0 0 0-16 16v16a16 16 0 0 0 16 16h64v32H16A16 16 0 0 0 0 304v32a16 16 0 0 0 16 16h480a16 16 0 0 0 16-16v-32a16 16 0 0 0-16-16"/></svg>