<svg height="512" width="448" xmlns="http://www.w3.org/2000/svg"><path d="m0 32 69.7 118.8L10.8 139.2l69.9 91.1a146.7 146.7 0 0 0 0 51.4l-69.9 91 58.9-11.5L0 480l118.8-69.7-11.6 58.9 91.1-69.9c17 3.1 34.4 3.1 51.4 0l91.1 69.9-11.5-58.9L448 480 378.3 361.2l58.9 11.5-69.9-91c3-17 3.1-34.4 0-51.4l69.9-91.1-58.9 11.6L448 32l-118.7 69.7 11.5-58.9-91.1 69.9c-8.5-1.5-17.1-2.3-25.7-2.3s-17.2.8-25.7 2.3L107.2 42.8l11.5 58.9zm224 99.8c31.8 0 63.6 12.1 87.9 36.4 48.5 48.5 48.4 127.2 0 175.7s-127.2 48.4-175.7-.1-48.5-127.2 0-175.7c24.2-24.2 56-36.3 87.8-36.3m0 36.6c-22.4 0-44.8 8.6-61.9 25.7-34.2 34.1-34.2 89.6 0 123.8s89.6 34.2 123.8 0 34.2-89.7 0-123.8C268.8 177 246.4 168.4 224 168.4"/></svg>