<svg height="512" width="448" xmlns="http://www.w3.org/2000/svg"><path d="M439.1 453.1 297.2 384l142-69.1c7.9-3.9 11.1-13.5 7.1-21.4L432 264.9c-3.9-7.9-13.6-11.2-21.5-7.2L224 348.4 37.5 257.7c-7.9-4-17.5-.8-21.5 7.2L1.7 293.5c-4 7.9-.8 17.5 7.1 21.4l142 69.1-142 69.1C.9 457-2.3 466.6 1.7 474.5L16 503.2c4 7.9 13.6 11.1 21.5 7.1L224 419.6l186.5 90.7c7.9 4 17.5.8 21.5-7.1l14.3-28.7c4-7.9.8-17.5-7.2-21.4M150 237.3l-5.5 25.8c-2.6 12.7 5.4 24.9 16.5 24.9h126.1c11 0 19.1-12.2 16.4-24.9L298 237.3c41.8-22.4 70-62.8 70-109.3C368 57.3 303.5 0 224 0S80 57.3 80 128c0 46.5 28.2 86.9 70 109.3M280 112c17.6 0 32 14.3 32 32s-14.4 32-32 32-32-14.3-32-32 14.4-32 32-32m-112 0c17.7 0 32 14.3 32 32s-14.3 32-32 32-32-14.3-32-32 14.3-32 32-32"/></svg>