<svg height="512" width="640" xmlns="http://www.w3.org/2000/svg"><path d="M640 329.3c0 65.9-52.5 114.4-117.5 114.4C356.6 443.7 325.9 194 162.8 194c-146.9 0-147.1 212.2 5.6 212.2 42.5 0 90.9-17.8 125.3-42.5 5.6-4.1 16.9-16.3 22.8-16.3s10.9 5 10.9 10.9c0 7.8-13.1 19.1-18.7 24.1C267.8 418 208.4 443.6 154 443.6 70.6 443.7 0 384.6 0 298.7S67.5 149.6 152.8 149.6c185.3 0 222.5 245.9 361.9 245.9 99.9 0 94.8-139.7 3.4-139.7-17.5 0-35 11.6-46.9 11.6-8.4 0-15.9-7.2-15.9-15.6 0-11.6 5.3-23.7 5.3-36.3 0-66.6-50.9-114.7-116.9-114.7-53.1 0-80 36.9-88.8 36.9-6.2 0-11.2-5-11.2-11.2 0-5.6 4.1-10.3 7.8-14.4C276.8 83.3 316.2 68.4 354.3 68.4c79.4 0 139.1 58.4 139.1 137.8 0 6.9-.3 13.7-1.2 20.6 11.9-3.1 24.1-4.7 35.9-4.7 60.7 0 111.9 45.3 111.9 107.2"/></svg>