<svg height="512" width="448" xmlns="http://www.w3.org/2000/svg"><path d="M94.1 315.1c0 25.9-21.1 47.1-47 47.1S0 341 0 315.1 21.2 268 47.1 268h47zm23.7 0c0-25.9 21.2-47.1 47.1-47.1s47.1 21.2 47.1 47.1v117.8c0 25.9-21.2 47.1-47.1 47.1s-47.1-21.2-47.1-47.1zm47.1-189c-25.9 0-47.1-21.1-47.1-47S139 32 164.9 32 212 53.2 212 79.1v47zm0 23.7c25.9 0 47.1 21.2 47.1 47.1S190.8 244 164.9 244H47.1C21.2 244 0 222.8 0 196.9s21.2-47.1 47.1-47.1zm189 47.1c0-25.9 21.1-47.1 47-47.1S448 171 448 196.9 426.8 244 400.9 244h-47zm-23.7 0c0 25.9-21.2 47.1-47.1 47.1S236 222.8 236 196.9V79.1C236 53.2 257.2 32 283.1 32s47.1 21.2 47.1 47.1zm-47.1 189c25.9 0 47.1 21.1 47.1 47S309 480 283.1 480 236 458.8 236 432.9v-47zm0-23.7C257.2 362.2 236 341 236 315.1S257.2 268 283.1 268h117.8c25.9 0 47.1 21.2 47.1 47.1s-21.2 47.1-47.1 47.1z"/></svg>