<svg height="1000" width="968.8" xmlns="http://www.w3.org/2000/svg"><path d="M484.4 15.6C752 15.6 968.8 232.4 968.8 500S752 984.4 484.4 984.4 0 767.6 0 500 216.8 15.6 484.4 15.6zm0 875C699.8 890.6 875 715.4 875 500S699.8 109.4 484.4 109.4 93.8 284.6 93.8 500s175.1 390.6 390.6 390.6zM714.5 604.7c19.9 16.6 22.6 46.1 6 66C661.9 741 575.8 781.3 484.4 781.3S306.8 741 248.2 670.7c-16.4 -19.9 -13.8 -49.4 6.1 -66 19.7 -16.4 49.4 -13.9 66 6 40.6 49.1 100.6 77 164.1 77s123.4 -28.1 164 -77c16.6 -19.9 46.1 -22.6 66.1 -6zM328.1 468.8c-34.5 0 -62.5 -28 -62.5 -62.5s28 -62.5 62.5 -62.5 62.5 27.9 62.5 62.5 -27.9 62.5 -62.5 62.5zM640.6 351.6c50.2 0 109.2 33 116.6 82.2 3.5 21.7 -22 35.5 -38.6 21.1L700 438.3c-28.9 -25.8 -90.2 -25.8 -119.1 0l-18.6 16.6c-16.2 14.4 -42 .8 -38.7 -21.1 7.8 -49.2 66.8 -82.2 117 -82.2z"/></svg>