<svg height="1000" width="968.8" xmlns="http://www.w3.org/2000/svg"><path d="M484.4 15.6C752 15.6 968.8 232.4 968.8 500S752 984.4 484.4 984.4 0 767.6 0 500 216.8 15.6 484.4 15.6zm0 875C699.8 890.6 875 715.4 875 500S699.8 109.4 484.4 109.4 93.8 284.6 93.8 500s175.1 390.6 390.6 390.6zM328.1 468.8c-34.5 0 -62.5 -28 -62.5 -62.5s28 -62.5 62.5 -62.5 62.5 27.9 62.5 62.5 -27.9 62.5 -62.5 62.5zm312.5 0c-34.5 0 -62.5 -28 -62.5 -62.5s28 -62.5 62.5 -62.5 62.5 27.9 62.5 62.5 -27.9 62.5 -62.5 62.5zm7.8 141.7c16.6 -19.9 46.3 -22.4 66.1 -6 19.9 16.6 22.6 46.1 6 66C661.9 740.8 575.8 781.1 484.4 781.1S306.8 740.8 248.2 670.5c-16.4 -19.9 -13.8 -49.4 6.1 -66 19.7 -16.4 49.4 -13.9 66 6 40.6 49.1 100.6 77 164.1 77s123.4 -28.1 164 -77z"/></svg>