<svg height="1000" width="968.8" xmlns="http://www.w3.org/2000/svg"><path d="M484.4 15.6C752 15.6 968.8 232.4 968.8 500S752 984.4 484.4 984.4 0 767.6 0 500 216.8 15.6 484.4 15.6zm0 875C699.8 890.6 875 715.4 875 500S699.8 109.4 484.4 109.4 93.8 284.6 93.8 500s175.1 390.6 390.6 390.6zm164 -280.1c16.6 -19.9 46.1 -22.4 66.1 -6 19.9 16.6 22.6 46.1 6 66C661.9 740.8 575.8 781.1 484.4 781.1S306.8 740.8 248.2 670.5c-16.4 -19.9 -13.8 -49.4 6.1 -66 19.9 -16.4 49.4 -13.9 66 6 40.6 49.1 100.6 77 164.1 77s123.4 -28.1 164 -77zM266.6 412.1L248 445.3c-3.7 6.3 -11.5 9.4 -18.1 7.2 -7 -2.1 -11.7 -8.9 -11.1 -16.2 6.4 -82.2 62.8 -139.4 109.3 -139.4s103 57.2 109.4 139.4c.6 7.5 -4.1 14.1 -11.1 16.2 -6.1 2 -14.1 0 -18.2 -7.2l-18.6 -33.2c-15 -26.7 -37.5 -42.2 -61.5 -42.2s-46.5 15.5 -61.5 42.2zm374 -115.2c46.5 0 103 57.2 109.4 139.4 .6 7.5 -4.1 14.1 -11.1 16.2 -6.1 2 -14.1 0 -18.2 -7.2l-18.6 -33.2c-15 -26.7 -37.5 -42.2 -61.5 -42.2s-46.5 15.5 -61.5 42.2l-18.6 33.2c-3.7 6.3 -11.3 9.4 -18.1 7.2 -7 -2.1 -11.7 -8.9 -11.1 -16.2 6.4 -82.2 62.8 -139.4 109.3 -139.4z"/></svg>