<svg height="1000" width="968.8" xmlns="http://www.w3.org/2000/svg"><path d="M484.4 15.6C216.8 15.6 0 232.4 0 500s216.8 484.4 484.4 484.4S968.8 767.6 968.8 500 752 15.6 484.4 15.6zm0 875C268.9 890.6 93.8 715.4 93.8 500S268.9 109.4 484.4 109.4 875 284.6 875 500 699.8 890.6 484.4 890.6zm164 -280.1c-40.6 48.9 -100.5 77 -164 77s-123.5 -27.9 -164.1 -77c-16.6 -19.9 -46.1 -22.4 -66 -6 -19.9 16.6 -22.5 46.1 -6.1 66 58.6 70.3 144.8 110.6 236.2 110.6S661.9 740.8 720.5 670.5c16.6 -19.9 13.9 -49.4 -6 -66 -20 -16.4 -49.5 -13.9 -66.1 6zM266.6 412.1c15 -26.7 37.5 -42.2 61.5 -42.2s46.5 15.5 61.5 42.2l18.6 33.2c4.1 7.2 12.1 9.2 18.2 7.2 7 -2.1 11.7 -8.7 11.1 -16.2C431.1 354.1 374.6 296.9 328.1 296.9S225.2 354.1 218.8 436.3c-.6 7.3 4.1 14.1 11.1 16.2 6.6 2.2 14.4 -.9 18.1 -7.2l18.6 -33.2zm374 -115.2c-46.5 0 -102.9 57.2 -109.3 139.4 -.6 7.3 4.1 14.1 11.1 16.2 6.8 2.2 14.4 -.9 18.1 -7.2l18.6 -33.2c15 -26.7 37.5 -42.2 61.5 -42.2s46.5 15.5 61.5 42.2l18.6 33.2c4.1 7.2 12.1 9.2 18.2 7.2 7 -2.1 11.7 -8.7 11.1 -16.2C743.6 354.1 687.1 296.9 640.6 296.9z"/></svg>