<svg height="1000" width="968.8" xmlns="http://www.w3.org/2000/svg"><path d="M484.4 15.6C216.8 15.6 0 232.4 0 500s216.8 484.4 484.4 484.4S968.8 767.6 968.8 500 752 15.6 484.4 15.6zm0 875C268.9 890.6 93.8 715.4 93.8 500S268.9 109.4 484.4 109.4 875 284.6 875 500 699.8 890.6 484.4 890.6zM328.1 468.8c34.6 0 62.5 -28 62.5 -62.5s-27.9 -62.5 -62.5 -62.5 -62.5 27.9 -62.5 62.5 28 62.5 62.5 62.5zm312.5 0c34.6 0 62.5 -28 62.5 -62.5s-27.9 -62.5 -62.5 -62.5 -62.5 27.9 -62.5 62.5 28 62.5 62.5 62.5zm7.8 141.7c-40.6 48.9 -100.5 77 -164 77s-123.5 -27.9 -164.1 -77c-16.6 -19.9 -46.3 -22.4 -66 -6 -19.9 16.6 -22.5 46.1 -6.1 66 58.6 70.3 144.8 110.6 236.2 110.6S661.9 740.8 720.5 670.5c16.6 -19.9 13.9 -49.4 -6 -66 -19.8 -16.4 -49.5 -13.9 -66.1 6z"/></svg>