<svg height="512" width="512" xmlns="http://www.w3.org/2000/svg"><path d="M96 304c0 8.8 7.2 16 16 16h117.5l-96-96H112c-8.8 0-16 7.2-16 16zM256 0C114.6 0 0 114.6 0 256s114.6 256 256 256S512 397.4 512 256 397.4 0 256 0m0 448C150.1 448 64 361.9 64 256c0-41.4 13.3-79.7 35.7-111.1l267.4 267.4C335.7 434.7 297.4 448 256 448m45.2-192H384v32h-50.8zm111.1 111.1L365.2 320H400c8.8 0 16-7.2 16-16v-64c0-8.8-7.2-16-16-16H269.2L144.9 99.7C176.3 77.3 214.6 64 256 64c105.9 0 192 86.1 192 192 0 41.4-13.3 79.7-35.7 111.1M320.6 128C305 128 292 116.8 289.2 102.1c-.7-3.6-4-6.1-7.7-6.1h-16.2c-5 0-8.7 4.5-8 9.4 4.6 30.9 31.2 54.6 63.3 54.6 15.6 0 28.6 11.2 31.4 25.9.7 3.6 4 6.1 7.7 6.1h16.2c5 0 8.7-4.5 8-9.4C379.3 151.7 352.7 128 320.6 128"/></svg>