<svg height="512" width="512" xmlns="http://www.w3.org/2000/svg"><path d="M510.8 392.7c-5.2 12.1-27.2 21.1-67.3 27.3-2.1 2.8-3.8 14.7-6.5 23.9-1.6 5.6-5.6 8.9-12.1 8.9h-.3c-9.4 0-19.2-4.3-38.9-4.3-26.5 0-35.7 6-56.3 20.6-21.8 15.4-42.7 28.7-74 27.4-31.6 2.3-58-16.9-72.8-27.4-20.8-14.7-29.9-20.6-56.3-20.6-18.9 0-30.7 4.7-38.8 4.7s-11.3-4.9-12.5-9C72.3 435 70.6 422.9 68.5 420 47.8 416.8 1.2 408.7 0 387.9a10.6 10.6 0 0 1 8.9-11.1c69.6-11.4 100.9-82.9 102.2-85.9.1-.2.2-.4.3-.5 3.7-7.6 4.5-13.9 2.4-18.8-5-11.9-26.9-16.1-36-19.8-23.7-9.3-27-20.1-25.6-27.5 2.4-12.8 21.7-20.7 33-15.4 8.9 4.1 16.8 6.3 23.5 6.3 5 0 8.2-1.2 10-2.2-2.1-35.9-7.1-87.3 5.6-116C158.1 21.3 229.7 15.4 250.8 15.4c1 0 9.2-.1 10.1-.1 52.2 0 102.3 26.8 126.8 81.7 12.7 28.6 7.7 79.8 5.7 116 1.5.9 4.3 1.9 8.6 2.1 6.3-.3 13.8-2.4 22-6.2 6.1-2.9 14.4-2.5 20.5 0 9.5 3.4 15.5 10.2 15.6 17.9.2 9.8-8.5 18.2-25.9 25-2.1.9-4.7 1.7-7.4 2.5-9.8 3.2-24.6 7.9-28.6 17.3-2.1 4.9-1.3 11.2 2.5 18.8 0 .1.1.3.2.5 1.3 3 32.6 74.4 102.2 85.9 6.4 1.1 11.2 7.9 7.7 15.9"/></svg>