<svg height="1000" width="875" xmlns="http://www.w3.org/2000/svg"><path d="M855.9 695.2l-130 -75.3L842 599.7c11.4 -2.7 20.7 -10.1 26.3 -19.8 4.8 -8.4 6.8 -18.5 4.9 -28.6 -4.1 -21.7 -24.7 -35.2 -46.1 -30.2l-166.8 60.8L499.8 500l160.5 -81.9 166.8 60.8c21.4 5 42 -8.5 46.1 -30.2C877.4 427 863.4 405.3 842 400.3L725.9 380.1l130 -75.3C874.6 294 880.6 269.5 869.3 250c-11.2 -19.5 -35.4 -26.6 -54 -15.8l-130 75.3 40.6 -110.9c6.3 -21.1 -5.4 -44 -26.2 -51.3 -20.8 -7.3 -42.8 3.9 -49.2 24.9l-30.9 175.3 -141.4 81.9V265.6L614.1 151.1c15 -16 13.6 -40.7 -3.1 -55.1C594.3 81.5 568.6 82.8 553.6 98.9l-75.4 90.7V39.1C478.2 17.5 460 0 437.5 0s-40.7 17.5 -40.7 39.1v150.5L321.4 98.9C306.4 82.8 280.7 81.5 264 96c-16.7 14.4 -18.1 39.1 -3.1 55.1l135.9 114.5v163.8L255.4 347.5 224.5 172.2c-6.4 -21 -28.4 -32.2 -49.2 -24.9 -20.8 7.3 -32.5 30.2 -26.2 51.3l40.6 110.9 -130 -75.3C41.1 223.4 16.9 230.5 5.7 250s-5.3 44 13.4 54.8l130 75.3L33 400.3c-21.4 5 -35.3 26.7 -31.2 48.4 4.1 21.7 24.7 35.2 46.1 30.2l166.8 -60.8L375.2 500l-160.5 81.9L47.9 521.1c-21.4 -5 -42 8.5 -46.1 30.2 -4.2 21.7 9.8 43.4 31.2 48.4l116.1 20.2 -130 75.3C.4 706 -5.6 730.5 5.7 750s35.4 26.6 54 15.8l130 -75.3 -40.6 110.9c-3.4 11.3 -1.6 23.1 4 32.7 4.8 8.4 12.5 15.2 22.2 18.6 20.8 7.3 42.8 -3.9 49.2 -24.9l30.9 -175.3 141.4 -81.9v163.8L260.9 848.9c-15 16 -13.6 40.7 3.1 55.1 16.7 14.5 42.4 13.2 57.4 -2.9l75.4 -90.7v150.5c0 21.6 18.2 39.1 40.7 39.1s40.7 -17.5 40.7 -39.1V810.4l75.4 90.7c8.1 8.6 19.1 13 30.3 13 9.6 0 19.4 -3.3 27.1 -10.1 16.7 -14.4 18.1 -39.1 3.1 -55.1L478.2 734.4V570.6l141.4 81.9 30.9 175.3c6.4 21 28.4 32.2 49.2 24.9 20.8 -7.3 32.5 -30.2 26.2 -51.3L685.3 690.5l130 75.3c18.6 10.8 42.8 3.7 54 -15.8 11.3 -19.5 5.3 -44 -13.4 -54.8z"/></svg>