<svg height="512" width="512" xmlns="http://www.w3.org/2000/svg"><path d="M510.9 152.3 505 137.8c-3.3-8-12.6-11.9-20.8-8.7L456 140.6v-29C456 103 448.8 96 440 96h-16c-8.8 0-16 7-16 15.6v46.9c0 .5.3 1 .3 1.5l-56.4 23c-5.9-10-13.3-18.9-22-26.6 13.6-16.6 22-37.4 22-60.5 0-53-43-96-96-96s-96 43-96 96c0 23.1 8.5 43.9 22 60.5-8.7 7.7-16 16.6-22 26.6l-56.4-23c.1-.5.3-1 .3-1.5v-46.9C104 103 96.8 96 88 96H72c-8.8 0-16 7-16 15.6v29L27.9 129.1c-8.2-3.2-17.5.7-20.8 8.7l-5.9 14.5c-3.3 8 .7 17.1 8.9 20.3l135.2 55.2c-.4 4-1.2 8-1.2 12.2 0 10.1 1.7 19.6 4.2 28.9C120.9 296.4 104 334.2 104 376c0 54 28.4 100.9 70.8 127.8 9.3 5.9 20.3 8.2 31.3 8.2h99.2c13.3 0 26.3-4.1 37.2-11.7C389 468 416.9 410.9 405.4 347.7c-5.5-30.2-20.5-57.6-41.6-79C366.3 259.5 368 250 368 240c0-4.2-.8-8.1-1.2-12.2L502 172.6c8.1-3.1 12.1-12.2 8.9-20.3M224 96c-8.8 0-16-7.2-16-16s7.2-16 16-16 16 7.2 16 16-7.2 16-16 16m32 272c-8.8 0-16-7.2-16-16s7.2-16 16-16 16 7.2 16 16-7.2 16-16 16m0-64c-8.8 0-16-7.2-16-16s7.2-16 16-16 16 7.2 16 16-7.2 16-16 16m0-64c-8.8 0-16-7.2-16-16s7.2-16 16-16 16 7.2 16 16-7.2 16-16 16m0-88s-16-23.2-16-32 7.2-16 16-16 16 7.2 16 16-16 32-16 32m32-56c-8.8 0-16-7.2-16-16s7.2-16 16-16 16 7.2 16 16-7.2 16-16 16"/></svg>