<svg height="1000" width="968.8" xmlns="http://www.w3.org/2000/svg"><path d="M944.9 350.4C878.5 145.7 688.7 15.6 484.6 15.6c-49.6 0 -100 7.6 -149.8 23.9C80.5 122.1 -58.8 395.3 23.8 649.6c66.4 204.7 256.3 334.8 460.4 334.8 49.6 0 100 -7.6 149.8 -23.9C888.3 877.9 1027.5 604.7 944.9 350.4zM799.4 728.7l-101.9 12.5L612.1 622.3l47.7 -146.9 138.8 -43.2 76 71.1c-.4 60 -14.4 119.4 -42.4 174.2 -9.2 18.2 -20.9 34.8 -32.8 51.2zm0 -459.8l-20.3 103.8L641 415.6 515.6 324.8V180.7l92.6 -51.2c76.6 25.4 143.4 74.2 191.2 139.4zM361.1 129.7l92 51v144.1l-125.4 90.8L189.8 372.7 170.1 270.1c47.5 -65.2 113.1 -114.4 191 -140.4zm-89.6 611.5L167.8 728.5C139.6 689.3 94.9 612.1 93.9 503.3l76.2 -71.1L309 475.6l47.4 145.1 -84.9 120.5zm94.1 130.9l-43.7 -94L407 657.6h153.5l86.6 120.5 -43.8 94c-12.1 3.5 -112.5 39.8 -237.7 0z"/></svg>