<svg height="512" width="512" xmlns="http://www.w3.org/2000/svg"><path d="M214.7 311 288 256V96H128v176l-86.7 64.6C1.9 366.2-12.5 421 12.1 463.7c18.3 31.6 51.2 48.3 84 48.3 20 0 40.2-6.2 57.5-19.2l21.9-16.4C145.6 421 161.9 350.6 214.7 311M288 32c0-11.1 3.1-21.3 8-30.4C293.4.9 290.9 0 288 0H160c-17.7 0-32 14.3-32 32v32h160zM480 0H352c-17.7 0-32 14.3-32 32v32h192V32C512 14.3 497.7 0 480 0M320 272l-86.1 64.6C194.5 366.2 180 421 204.7 463.7c18.2 31.6 50.6 48.3 83.4 48.3 20 0 40.2-6.2 57.5-19.2l115.2-86.4A128 128 0 0 0 512 304V96H320z"/></svg>