<svg height="512" width="640" xmlns="http://www.w3.org/2000/svg"><path d="m432 448-48 .1V416H256v32.2l-48 .1c-8.8 0-15.9 7.1-15.9 16L192 496c0 8.8 7.2 16 16 16l224-.3c8.8 0 16-7.1 16-15.9V464c0-8.8-7.2-16-16-16M585.2 26.7C582.6 11.3 569 0 553.1 0H86.9C71 0 57.4 11.3 54.8 26.7-3.3 369.2 0 348.1 0 352c0 17.3 14.3 32 32.6 32h574.8c18.2 0 32.5-14.6 32.6-31.8 0-4.1 3.3 17-54.8-325.5M259.8 64h120.4l9.7 96H250.1zm-75.1 256H71.1l19-112h106zm16.2-160H98.2l16.3-96h96.2zm32.9 160 11.4-112h149.6l11.4 112zM429.3 64h96.2l16.3 96H439zm26 256L443.9 208h106l19 112z"/></svg>