<svg height="512" width="448" xmlns="http://www.w3.org/2000/svg"><path d="M304 96h16v64h-16a16 16 0 0 0-16 16v32a16 16 0 0 0 16 16h96a16 16 0 0 0 16-16v-32a16 16 0 0 0-16-16h-16V48A16 16 0 0 0 368 32h-48a16 16 0 0 0-14.3 8.8l-16 32A16 16 0 0 0 304 96m26.1 162.9a79 79 0 0 0-55 54.2c-14.2 51 21.3 97.7 68.9 102.5a84.1 84.1 0 0 1-20.9 12.9c-7.5 3.4-10.8 12.5-8.1 20.4l9.9 20c2.8 8.6 12.5 13.5 20.9 9.9 58-24.8 86.2-61.6 86.2-132V336c0-51.2-48.4-91.3-101.8-77.1zM352 356a20 20 0 1 1 20-20 20 20 0 0 1-20 20m-176-4h-48V48A16 16 0 0 0 112 32H80A16 16 0 0 0 64 48v304H16C1.8 352-5.4 369.2 4.7 379.3l80 96a16 16 0 0 0 22.6 0l80-96c10-10 2.9-27.3-11.3-27.3"/></svg>