<svg height="512" width="448" xmlns="http://www.w3.org/2000/svg"><path d="M176 352h-48V48A16 16 0 0 0 112 32H80A16 16 0 0 0 64 48v304H16C1.8 352-5.4 369.2 4.7 379.3l80 96a16 16 0 0 0 22.6 0l80-96c10-10 2.9-27.3-11.3-27.3m240-64H288a16 16 0 0 0-16 16v32a16 16 0 0 0 16 16h56l-61.3 70.4a32 32 0 0 0-10.7 24V464a16 16 0 0 0 16 16h128a16 16 0 0 0 16-16v-32a16 16 0 0 0-16-16h-56l61.3-70.4a32 32 0 0 0 10.7-24V304a16 16 0 0 0-16-16m31.1-85.4-59.3-160A16 16 0 0 0 372.7 32h-41.4a16 16 0 0 0-15.1 10.6l-59.3 160A16 16 0 0 0 272 224h24.8a16 16 0 0 0 15.3-11.1l4.4-12.9h71l4.4 12.9a16 16 0 0 0 15.3 11.1H432a16 16 0 0 0 15.1-21.4M335.6 144 352 96l16.4 48z"/></svg>