<svg height="512" width="512" xmlns="http://www.w3.org/2000/svg"><path d="M240 96h64a16 16 0 0 0 16-16V48A16 16 0 0 0 304 32h-64a16 16 0 0 0-16 16v32a16 16 0 0 0 16 16m0 128h128a16 16 0 0 0 16-16v-32a16 16 0 0 0-16-16H240a16 16 0 0 0-16 16v32a16 16 0 0 0 16 16m256 192H240a16 16 0 0 0-16 16v32a16 16 0 0 0 16 16h256a16 16 0 0 0 16-16v-32a16 16 0 0 0-16-16M240 352h192a16 16 0 0 0 16-16v-32a16 16 0 0 0-16-16H240a16 16 0 0 0-16 16v32a16 16 0 0 0 16 16m-64 0h-48V48A16 16 0 0 0 112 32H80A16 16 0 0 0 64 48v304H16C1.8 352-5.4 369.2 4.7 379.3l80 96a16 16 0 0 0 22.6 0l80-96c10-10 2.9-27.3-11.3-27.3"/></svg>