<svg height="512" width="512" xmlns="http://www.w3.org/2000/svg"><path d="M240 96h64a16 16 0 0 0 16-16V48A16 16 0 0 0 304 32h-64a16 16 0 0 0-16 16v32a16 16 0 0 0 16 16m0 128h128a16 16 0 0 0 16-16v-32a16 16 0 0 0-16-16H240a16 16 0 0 0-16 16v32a16 16 0 0 0 16 16m256 192H240a16 16 0 0 0-16 16v32a16 16 0 0 0 16 16h256a16 16 0 0 0 16-16v-32a16 16 0 0 0-16-16M240 352h192a16 16 0 0 0 16-16v-32a16 16 0 0 0-16-16H240a16 16 0 0 0-16 16v32a16 16 0 0 0 16 16M16 160h48v304a16 16 0 0 0 16 16h32a16 16 0 0 0 16-16V160h48c14.2 0 21.4-17.2 11.3-27.3l-80-96a16 16 0 0 0-22.6 0l-80 96C-5.3 142.7 1.8 160 16 160"/></svg>