<svg height="512" width="448" xmlns="http://www.w3.org/2000/svg"><path d="M107.3 36.7a16 16 0 0 0-22.6 0l-80 96C-5.3 142.7 1.8 160 16 160h48v304a16 16 0 0 0 16 16h32a16 16 0 0 0 16-16V160h48c14.2 0 21.4-17.2 11.3-27.3zM400 416h-16V304a16 16 0 0 0-16-16h-48a16 16 0 0 0-14.3 8.8l-16 32A16 16 0 0 0 304 352h16v64h-16a16 16 0 0 0-16 16v32a16 16 0 0 0 16 16h96a16 16 0 0 0 16-16v-32a16 16 0 0 0-16-16M330.2 34.9a79 79 0 0 0-55 54.2c-14.3 51 21.2 97.7 68.8 102.5a84.1 84.1 0 0 1-20.9 12.9c-7.5 3.4-10.8 12.5-8.1 20.4l9.9 20c2.8 8.6 12.5 13.5 20.9 9.9 58-24.8 86.2-61.6 86.2-132V112C432 60.8 383.6 20.7 330.2 34.9M352 132a20 20 0 1 1 20-20 20 20 0 0 1-20 20"/></svg>