<svg height="512" width="576" xmlns="http://www.w3.org/2000/svg"><path d="M568.3 192c-29.1.1-135.1 6.2-213.9 83C321.3 304.6 301 338.3 288 369.9 274.9 338.3 254.7 304.6 221.6 275 142.8 198.2 36.8 192.1 7.8 192 3.3 192 0 195.4 0 199.8.2 227.7 7.1 326 88.8 399.1 172.8 480.9 256 480 288 480s115.2.9 199.2-80.9C568.9 325.9 575.8 227.7 576 199.8c0-4.4-3.3-7.8-7.7-7.8M288 302.6c12.8-18.8 27.6-35.8 44.1-50.5 19.1-18.6 39.6-33.3 60.2-45.2C375.9 136.4 340.6 73.8 295.6 34.7c-4.1-3.6-11-3.6-15.1 0-45 39.1-80.3 101.6-96.8 172.1 20.4 11.6 40.5 26.1 59.2 44.3a282.8 282.8 0 0 1 45.1 51.5"/></svg>