<svg height="512" width="640" xmlns="http://www.w3.org/2000/svg"><path d="M592.6 208.2C559.7 192.8 515.8 184 472 184H186.3c-4.9-6.6-10.6-12-16.7-16H376C229.2 137.7 219.4 32 96 32v128H80V32C53.5 32 32 60.7 32 96v64C8.8 160 0 170 0 184v40c0 14 8.8 24 32 24v16C8.8 264 0 274 0 288v40c0 14 8.8 24 32 24v64c0 35.3 21.5 64 48 64V352h16v128c123.4 0 133.2-105.7 280-136H169.6c6.1-4 11.8-9.4 16.7-16H472c43.8 0 87.7-8.8 120.6-24.2C622.3 289.8 640 272 640 256s-17.7-33.8-47.4-47.8M488 296a8 8 0 0 1-8-8v-64a8 8 0 0 1 8-8c31.9 0 31.9 80 0 80"/></svg>