<svg height="512" width="448" xmlns="http://www.w3.org/2000/svg"><path d="M64 391.8C-15.4 303.6-8 167.4 80.6 87.6s224.8-73 304.2 15.3 72 224.3-16.6 304.1c-18.7 16.9 64 43.1 42 52.3C328.1 493.5 156.3 494.3 64 391.8M277.3 180.2l38.5-40.9c-9.6-8.9-32-26.8-76.2-27.6-52.3-.9-95.8 28.3-96.7 80-.2 11.4.3 36.7 29.4 54.9 34.5 21.4 86.5 21.5 86 52.2-.4 21.3-26.4 25.8-38.6 25.6-3 0-30.2-.4-47.6-24.6l-40 42.6c28.2 27 59 32.6 83.5 33.1 10.2.1 96.4.3 97.8-81 .3-15.9-2-39.8-28.8-56.6-34.4-21.7-85-19.5-84.5-49.8.4-23.2 31-25.4 37.6-25.2.4 0 26.6.2 39.6 17.3"/></svg>