<svg height="512" width="576" xmlns="http://www.w3.org/2000/svg"><path d="m151.2 167.3 25.9 8.7h4.7l5.2-26.1c.7-3.6 1.8-7.6 3.2-11.8L169.9 97.5l23.8-71.4C196.5 17.7 192 8.7 183.6 5.9L168.4.8C160-2 151 2.5 148.2 10.9l-25.9 77.7a32 32 0 0 0 1.7 24.5l27.2 54.3zm422.1 182.1-52.7-79.1A32 32 0 0 0 493.9 256H416l69-24.4A32 32 0 0 0 501.5 219l53.6-80.4c4.9-7.3 2.9-17.3-4.4-22.2l-13.3-8.8c-7.4-4.9-17.3-3-22.2 4.4l-50.6 75.8L404.1 208H368l-10.4-51.8C355.4 145.2 340.3 96 288 96s-67.4 49.2-69.6 60.2L208 208h-36.1l-60.5-20.2L60.8 112C55.9 104.7 46 102.7 38.7 107.6l-13.4 8.8c-7.3 4.9-9.3 14.9-4.4 22.2L74.5 219A32 32 0 0 0 91 231.6l69 24.4H82.1a32 32 0 0 0-26.7 14.3L2.7 349.4c-4.9 7.3-2.9 17.3 4.4 22.2l13.3 8.8c7.4 4.9 17.3 3 22.2-4.4l48-72h47.1l-60.8 97.3a32 32 0 0 0-4.9 17V496c0 8.8 7.2 16 16 16h16c8.8 0 16-7.2 16-16v-73.1l74.1-118.5c-1 14-2.1 28.1-2.1 42.2 0 53 40.8 101.4 96 101.4s96-48.4 96-101.4c0-14.1-1.1-28.2-2.1-42.2L456 422.9V496c0 8.8 7.2 16 16 16h16c8.8 0 16-7.2 16-16v-77.7c0-6-1.7-11.9-4.9-17L438.3 304h47.1l48 72c4.9 7.4 14.8 9.3 22.2 4.4l13.3-8.8c7.3-4.9 9.3-14.9 4.4-22.2M406.1 97.5l-20.3 40.6c1.4 4.2 2.5 8.2 3.2 11.8l5.2 26.1h4.7l25.9-8.7L452 113a32 32 0 0 0 1.7-24.4L427.8 10.9C425 2.6 416-2 407.6.8l-15.2 5.1C384 8.7 379.5 17.7 382.3 26.1z"/></svg>