<svg height="512" width="512" xmlns="http://www.w3.org/2000/svg"><path d="M304 48c0 26.5-21.5 48-48 48S208 74.5 208 48 229.5 0 256 0s48 21.5 48 48m-48 368c-26.5 0-48 21.5-48 48s21.5 48 48 48 48-21.5 48-48-21.5-48-48-48M464 208c-26.5 0-48 21.5-48 48s21.5 48 48 48 48-21.5 48-48-21.5-48-48-48M96 256C96 229.5 74.5 208 48 208S0 229.5 0 256s21.5 48 48 48 48-21.5 48-48m12.9 99.1c-26.5 0-48 21.5-48 48s21.5 48 48 48 48-21.5 48-48-21.5-48-48-48m294.2 0c-26.5 0-48 21.5-48 48s21.5 48 48 48 48-21.5 48-48-21.5-48-48-48M108.9 60.9c-26.5 0-48 21.5-48 48s21.5 48 48 48 48-21.5 48-48-21.5-48-48-48"/></svg>