<svg height="512" width="512" xmlns="http://www.w3.org/2000/svg"><path d="M224 32C224 14.3 209.7 0 192 0h-64C110.3 0 96 14.3 96 32v96h128zm256 96c-17.7 0-32 14.3-32 32s14.3 32 32 32 32-14.3 32-32-14.3-32-32-32m-256 32H96C43 160 0 203 0 256v224c0 17.7 14.3 32 32 32h256c17.7 0 32-14.3 32-32V256c0-53-43-96-96-96m-64 256c-44.2 0-80-35.8-80-80s35.8-80 80-80 80 35.8 80 80-35.8 80-80 80M480 96c17.7 0 32-14.3 32-32S497.7 32 480 32s-32 14.3-32 32 14.3 32 32 32m-96 32c-17.7 0-32 14.3-32 32s14.3 32 32 32 32-14.3 32-32-14.3-32-32-32M288 32c-17.7 0-32 14.3-32 32s14.3 32 32 32 32-14.3 32-32S305.7 32 288 32m96 0c-17.7 0-32 14.3-32 32s14.3 32 32 32 32-14.3 32-32S401.7 32 384 32m96 192c-17.7 0-32 14.3-32 32s14.3 32 32 32 32-14.3 32-32-14.3-32-32-32"/></svg>