<svg height="512" width="512" xmlns="http://www.w3.org/2000/svg"><path d="M186.1 343.3c-9.6 9.7-9.6 25.3 0 35 9.7 9.6 25.3 9.6 35 0L378.2 221.1c19.3-19.3 50.6-19.3 69.9 0s19.3 50.6 0 69.9L293.9 445.1c19.3 19.3 50.6 19.3 69.9 0L483.1 325.9c38.5-38.6 38.5-101.2 0-139.8-38.6-38.5-101.2-38.5-139.8 0zM430.6 238.5c-9.6-9.6-25.2-9.6-34.9 0L238.5 395.7C219.2 415 188 415 168.7 395.8l-.1-.1c-9.6-9.6-25.2-9.6-34.9 0-9.6 9.7-9.6 25.3 0 34.9v.1c38.6 38.5 101.2 38.5 139.7 0L430.6 273.5c9.7-9.7 9.7-25.3 0-35m-261.9 87.4L325.8 168.7c9.7-9.7 9.7-25.3 0-35-9.6-9.6-25.2-9.6-34.9 0L133.7 290.9c-19.3 19.3-50.5 19.3-69.8 0s-19.3-50.5-.1-69.8h.1L218 66.9c-19.2-19.3-50.5-19.3-69.8 0L28.9 186.1c-38.5 38.6-38.5 101.2 0 139.8 38.6 38.6 101.2 38.6 139.8 0M81.3 273.5c9.7 9.6 25.3 9.6 34.9 0L273.4 116.3C292.7 97 324 97 343.3 116.3c9.7 9.6 25.3 9.6 34.9 0 9.7-9.7 9.7-25.3 0-35C339.6 42.8 277.1 42.8 238.5 81.3L81.3 238.5c-9.6 9.7-9.6 25.3 0 35"/></svg>