<svg height="512" width="576" xmlns="http://www.w3.org/2000/svg"><path d="m571.3 251.3-22.6-22.6c-6.3-6.3-16.4-6.3-22.6 0L480 274.8l-46.1-46.1c-6.2-6.3-16.3-6.3-22.6 0l-22.6 22.6c-6.3 6.3-6.3 16.4 0 22.6l46.1 46.1-46.1 46.1c-6.3 6.2-6.3 16.3 0 22.6l22.6 22.6c6.3 6.3 16.4 6.3 22.6 0l46.1-46 46.1 46c6.2 6.3 16.3 6.3 22.6 0l22.6-22.6c6.3-6.3 6.3-16.4 0-22.6l-46-46.1 46-46.1c6.3-6.2 6.3-16.3 0-22.6M552 0H307.6c-14.5 0-27.2 9.8-30.9 23.9l-84.8 322.8L133.5 240.6a32 32 0 0 0-28-16.6H24C10.8 224 0 234.7 0 248v48c0 13.3 10.8 24 24 24h43.6l88.9 163.7c12.5 19.8 29.8 28.3 48.4 28.3 17.3 0 44.5-9 54.3-41.5L357 96h195c13.3 0 24-10.7 24-24V24C576 10.7 565.3 0 552 0"/></svg>