<svg height="512" width="448" xmlns="http://www.w3.org/2000/svg"><path d="M244.6 232.4c0 8.5-4.3 20.5-21.3 20.5h-19.7v-41.5h19.7c17.1 0 21.3 12.4 21.3 21M448 32v448H0V32zM151.3 287.8c0-21.2-12.1-34.5-46.7-44.8-20.6-7.4-26-10.9-26-18.6s7-14.6 20.4-14.6c14.1 0 20.8 8.4 20.8 18.3h30.7l.2-.6c.5-19.5-15.1-41.6-51.2-41.6C76.2 185.9 47 196.6 47 224.2c0 19.4 9.2 31.3 50.7 44.3 17.3 6.2 21.9 10.4 21.9 19.5 0 15.2-19.1 14.3-19.4 14.3-20.4 0-25.7-9.2-25.7-21.9H43.7l-.2.5c-.6 31.3 28.4 45.2 56.7 45.2 30 0 51.1-13.5 51.1-38.3m125.4-55.6c0-25.3-18.4-45.5-53.4-45.5h-51.8v138.2h32.1v-47.3h19.7c30.2 0 53.4-16 53.4-45.4m21.2 92.8L347 186.8h-31.1L268 325zM404.5 186.8h-31.1L325.5 325h29.9z"/></svg>