<svg height="512" width="536" xmlns="http://www.w3.org/2000/svg"><path d="M508.6 171.5 362.2 150.2 296.8 17.8C290.9 6 279.4 0 267.9 0c-11.3 0-22.7 5.9-28.6 17.8l-65.5 132.4L27.4 171.5C1.2 175.3-9.3 207.6 9.7 226.1l105.9 103L90.5 474.5C87 495.3 103.6 512 122.2 512c4.9 0 10-1.2 14.8-3.7l131-68.7 130.9 68.7c4.9 2.5 9.9 3.7 14.8 3.7 18.6 0 35.3-16.6 31.7-37.4l-25-145.5 105.9-103c19-18.5 8.5-50.8-17.8-54.6zM386.8 294.7l-18.1 17.6 4.3 24.9 19.5 113.5L290.4 397.1 268 385.3V68.1l51 103.3 11.2 22.7 25 3.6 114.3 16.6z"/></svg>