<svg height="512" width="464" xmlns="http://www.w3.org/2000/svg"><path d="m405.7 256 53.2-89.4c14.4-24.2-3.4-54.6-32-54.6H320L264 18C256.9 6 244.4 0 232 0s-24.9 6-32 18l-56 94H37.1c-28.6 0-46.4 30.4-32 54.6L58.3 256 5.1 345.4c-14.4 24.2 3.4 54.6 32 54.6H144l56 94c7.1 12 19.6 18 32 18s24.9-6 32-18l56-94h106.9c28.6 0 46.4-30.4 32-54.6zm-12.8-88-19.8 33.3L353.3 168zm-52.4 88-52.4 88H175.9l-52.4-88 52.4-88h112.2zM232 73.7l22.8 38.3h-45.6zM71.1 168h39.6l-19.8 33.3zm0 176 19.8-33.3 19.8 33.3zM232 438.3 209.2 400h45.6zM353.3 344l19.8-33.3 19.8 33.3z"/></svg>