<svg height="512" width="512" xmlns="http://www.w3.org/2000/svg"><path d="M340.5 466.4c-1.5 0-6.9.4-9.2.4C215 466.8 120.5 372.3 120.5 256S215 45.2 331.3 45.2c2.3 0 7.7.4 9.2.4 7.1 0 13.3-5 14.7-12 1.5-7.3-2.5-14.5-9.4-17.1C316.6 5.5 286.4 0 256 0 114.8 0 0 114.8 0 256s114.8 256 256 256c30.2 0 60.3-5.5 89.3-16.3 6-2 10.3-7.7 10.3-14.3 0-8.1-6.4-15-15.1-15m163-252.5-76.4-11.1-34.2-69.2c-1.8-3.7-5.4-5.6-8.9-5.6s-7.1 1.8-8.9 5.6l-34.2 69.2-76.4 11.1c-8.1 1.1-11.4 11.2-5.5 16.9l55.3 53.9-13.1 76.1c-1.1 6.4 4 11.6 9.8 11.6 1.6 0 3.1-.3 4.7-1.1L384 335.4l68.3 35.9c1.5.8 3.1 1.1 4.6 1.1 5.9 0 11-5.2 9.9-11.6l-13.1-76.1L509 230.8c5.9-5.7 2.6-15.8-5.5-16.9"/></svg>