<svg height="512" width="480" xmlns="http://www.w3.org/2000/svg"><path d="M472 334.4 336.1 256 472 177.6c7.7-4.4 10.3-14.2 5.9-21.9l-32.1-55.4C441.4 92.6 431.6 90 424 94.4l-136 78.4V16C288 7.2 280.9 0 272 0h-64c-8.9 0-16 7.2-16 16v156.9L56 94.4C48.4 90 38.6 92.6 34.2 100.3L2.1 155.7c-4.4 7.7-1.8 17.5 5.9 21.9L143.9 256 8 334.4c-7.7 4.5-10.3 14.2-5.9 21.9l32.1 55.4c4.4 7.7 14.2 10.3 21.8 5.9l136-78.4V496c0 8.8 7.1 16 16 16h64c8.9 0 16-7.2 16-16V339.1l136 78.5c7.6 4.4 17.4 1.8 21.8-5.9l32.1-55.4c4.4-7.7 1.8-17.5-5.9-21.9"/></svg>