<svg height="512" width="448" xmlns="http://www.w3.org/2000/svg"><path d="m398.5 190.9.6-.6 26.6-26.6a16 16 0 0 0 0-22.6L403 118.4a16 16 0 0 0-22.6 0l-24.7 24.7A206.7 206.7 0 0 0 256 98.5V64h32a16 16 0 0 0 16-16V16A16 16 0 0 0 288 0H160a16.1 16.1 0 0 0-16 16v32a16.1 16.1 0 0 0 16 16h32v34.5A207.9 207.9 0 0 0 16.1 297.6C12.6 411.5 106.8 510.2 220.7 512 337.1 513.8 432 420 432 304A206 206 0 0 0 398.5 190.9M204.4 377.6a8.2 8.2 0 0 1 8.3 8v22.3a8.2 8.2 0 0 1-8.3 8.1h-82.9a16.5 16.5 0 0 1-16.6-17.6c2.8-35.2 14.7-57.4 38.5-91.4 20.4-29.2 27.1-37.3 27.1-62.3 0-16.9-1.8-24.3-12.2-24.3-9.4 0-12.7 7.4-12.7 22.7v5.2a8.2 8.2 0 0 1-8.4 8.1h-24.9a8.2 8.2 0 0 1-8.3-8.1v-4.1c0-27.3 8.5-60.2 56.4-60.2 43 0 55.6 25.8 55.6 61 0 35.6-12.4 51.2-34.4 81.3-11.5 15-24.6 35.6-26.4 51.2zM344 352.3c0 35.2-12.3 63.7-57.2 63.7C243.2 416 232 386.5 232 352.6V247.2c0-40.7 19.6-63.2 56.2-63.2 36.8 0 55.8 22.6 55.8 61.3zM287.9 221.7c-9.4 0-13.3 7.5-13.3 20v116c0 13.1 3.6 20.6 13.3 20.6s13-8 13-21.3V241.1c0-11.3-3-19.4-13-19.4"/></svg>