<svg height="512" width="640" xmlns="http://www.w3.org/2000/svg"><path d="M121.5 384v-99.8a119.4 119.4 0 0 1-28 3.8 123.5 123.5 0 0 1-17.1-1.2 115 115 0 0 1-15.6-3.6V480c0 17.7 13.6 32 30.4 32h414.6L348.4 384zm-28-128.1c25.1 0 47.3-10.7 64-27.2L24 120c-30.5 53.4-2.4 126.6 56.5 135.1a96 96 0 0 0 13 .8m508.6 202.2-54.9-44.7V283.2a93.5 93.5 0 0 1-15.6 3.6 127 127 0 0 1-17.3 1.2 115 115 0 0 1-28-3.8v79.7L348.5 251.8a88.1 88.1 0 0 0 25.4 4.1c28.1 0 53-13 70.1-33.1 17.2 20.1 42.1 33.1 70.1 33.1a94 94 0 0 0 13-.9c59.7-8.4 88-82.8 56.1-136.4L521.5 15A30.1 30.1 0 0 0 495.8 0H112A30.1 30.1 0 0 0 86.3 15l-9.4 15.8L43.2 3.4A14.7 14.7 0 0 0 21.9 6.2L3.2 31.4a16.6 16.6 0 0 0 2.7 22.5l558.9 454.7a14.7 14.7 0 0 0 21.3-2.8l18.7-25.2a16.6 16.6 0 0 0-2.7-22.5"/></svg>