<svg height="512" width="512" xmlns="http://www.w3.org/2000/svg"><path d="M367.9 329.8c-4.6 5.3-9.8 10.1-15.9 13.6v22.9c66.5 9.4 112 28.1 112 49.7 0 30.9-93.1 56-208 56S48 446.9 48 416c0-21.6 45.5-40.3 112-49.6v-23c-6.1-3.5-11.3-8.3-15.9-13.6C58.9 345.3 0 378.1 0 416c0 53 114.6 96 256 96s256-43 256-96c0-37.9-58.9-70.7-144.1-86.2M256 128c35.4 0 64-28.7 64-64S291.4 0 256 0s-64 28.6-64 64 28.7 64 64 64m-64 192v96c0 17.7 14.3 32 32 32h64c17.7 0 32-14.3 32-32v-96c17.7 0 32-14.3 32-32v-96c0-26.5-21.5-48-48-48h-11.8c-11.1 5-23.3 8-36.2 8s-25.1-3-36.2-8H208c-26.5 0-48 21.5-48 48v96c0 17.7 14.3 32 32 32"/></svg>