<svg height="512" width="512" xmlns="http://www.w3.org/2000/svg"><path d="M496 224H293.9l-87.2-26.8A43.5 43.5 0 0 1 219.6 112h66.7a49.9 49.9 0 0 1 44.7 27.6 16 16 0 0 0 21.5 7.1l42.9-21.4a16 16 0 0 0 7.2-21.5l-.6-1A128 128 0 0 0 287.5 32h-68a123.7 123.7 0 0 0-123 135.6c2 20.9 10.1 39.9 21.8 56.4H16A16 16 0 0 0 0 240v32a16 16 0 0 0 16 16h480a16 16 0 0 0 16-16v-32a16 16 0 0 0-16-16m-180.2 96a43 43 0 0 1 20.2 36.4A43.6 43.6 0 0 1 292.4 400h-66.7A49.9 49.9 0 0 1 181 372.4a16 16 0 0 0-21.5-7.1l-42.9 21.4a16 16 0 0 0-7.2 21.5l.6 1A128 128 0 0 0 224.5 480h68a123.7 123.7 0 0 0 123-135.6A114.3 114.3 0 0 0 410.2 320z"/></svg>