<svg height="512" width="512" xmlns="http://www.w3.org/2000/svg"><path d="M188.1 210.7 142.9 256l45.2 45.3L233.4 256zm113.2-22.6L256 142.9l-45.2 45.2 45.2 45.3zm-90.5 135.8 45.2 45.2 45.3-45.2L256 278.6zM256 0C114.6 0 0 114.6 0 256s114.6 256 256 256S512 397.4 512 256 397.4 0 256 0m186.7 295.6-11.3 11.3c-3.1 3.1-8.2 3.1-11.3 0l-28.3-28.3-45.3 45.3 34 33.9 16.9-17c3.1-3.1 8.2-3.1 11.3 0l11.3 11.4c3.2 3.1 3.2 8.1 0 11.3l-16.9 16.9 16.9 17c3.2 3.1 3.2 8.2 0 11.3L408.7 420c-3.1 3.1-8.2 3.1-11.3 0l-16.9-16.9-17 16.9c-3.1 3.1-8.2 3.1-11.3 0l-11.3-11.3a7.85 7.85 0 0 1 0-11.3l16.9-17-33.9-33.9-45.3 45.3 28.3 28.2c3.1 3.2 3.1 8.2 0 11.4l-11.3 11.3c-3.1 3.1-8.2 3.1-11.3 0L256 414.4l-28.3 28.3c-3.1 3.1-8.2 3.1-11.3 0l-11.3-11.3c-3.1-3.1-3.1-8.2 0-11.3l28.3-28.3-45.3-45.3-33.9 33.9 17 17c3.1 3.1 3.1 8.2 0 11.3L159.8 420c-3.1 3.2-8.1 3.2-11.3 0l-16.9-16.9-17 16.9a7.85 7.85 0 0 1-11.3 0L92 408.7c-3.1-3.1-3.1-8.2 0-11.3l16.9-17L92 363.5c-3.1-3.1-3.1-8.2 0-11.3l11.3-11.3a7.85 7.85 0 0 1 11.3 0l17 16.9 33.9-33.9-45.2-45.3L92 306.9c-3.2 3.1-8.2 3.1-11.3 0L69.3 295.6c-3.1-3.1-3.1-8.2 0-11.3L97.6 256 69.3 227.7c-3.1-3.1-3.1-8.2 0-11.3l11.3-11.3c3.2-3.1 8.2-3.1 11.3 0l28.3 28.3 45.3-45.3-34-33.9-16.9 17c-3.2 3.1-8.2 3.1-11.3 0L91.9 159.8c-3.1-3.1-3.1-8.1 0-11.3l17-16.9-17-17c-3.1-3.1-3.1-8.2 0-11.3L103.3 92c3.1-3.2 8.1-3.2 11.3 0l16.9 16.9 17-16.9a7.85 7.85 0 0 1 11.3 0l11.3 11.3c3.2 3.1 3.2 8.2 0 11.3l-16.9 17 33.9 33.9 45.3-45.2L205.1 92c-3.2-3.2-3.2-8.2 0-11.3l11.3-11.4c3.1-3.1 8.2-3.1 11.3 0L256 97.6l28.3-28.3c3.1-3.1 8.2-3.1 11.3 0l11.3 11.3c3.1 3.2 3.1 8.2 0 11.3l-28.3 28.3 45.3 45.3 33.9-34-16.9-16.9c-3.2-3.2-3.2-8.2 0-11.3l11.3-11.4c3.1-3.1 8.2-3.1 11.3 0l16.9 17 17-17c3.1-3.1 8.2-3.1 11.3 0l11.3 11.4c3.2 3.1 3.2 8.1 0 11.3l-16.9 16.9 16.9 17c3.2 3.1 3.2 8.2 0 11.3l-11.3 11.3a7.85 7.85 0 0 1-11.3 0l-17-16.9-33.9 33.9 45.3 45.3L420 205.1c3.2-3.2 8.2-3.2 11.4 0l11.3 11.3c3.1 3.1 3.1 8.2 0 11.3L414.4 256l28.3 28.3a8 8 0 0 1 0 11.3M278.6 256l45.3 45.3L369.1 256l-45.2-45.3z"/></svg>