<svg height="512" width="512" xmlns="http://www.w3.org/2000/svg"><path d="M496 448h-16V304a16 16 0 0 0-16-16h-48a16 16 0 0 0-14.3 8.8l-16 32A16 16 0 0 0 400 352h16v96h-16a16 16 0 0 0-16 16v32a16 16 0 0 0 16 16h96a16 16 0 0 0 16-16v-32a16 16 0 0 0-16-16M336 64h-67a16 16 0 0 0-13.1 6.9l-79.9 115L96.1 70.9A16 16 0 0 0 83 64H16A16 16 0 0 0 0 80v48a16 16 0 0 0 16 16h33.5l77.8 112L49.5 368H16A16 16 0 0 0 0 384v48a16 16 0 0 0 16 16h67a16 16 0 0 0 13.1-6.9l79.9-115 79.9 115A16 16 0 0 0 269 448h67a16 16 0 0 0 16-16v-48a16 16 0 0 0-16-16h-33.5L224.7 256l77.8-112H336a16 16 0 0 0 16-16V80A16 16 0 0 0 336 64"/></svg>