<svg height="512" width="448" xmlns="http://www.w3.org/2000/svg"><path d="M448 96v256c0 51.8-61.6 96-130 96l63 49.7c5.9 4.7 2.6 14.3-5 14.3H72c-7.6 0-10.9-9.6-5-14.3L130 448C61.8 448 0 404 0 352V96C0 43 64 0 128 0h192c65 0 128 43 128 96M200 232V120c0-13.3-10.7-24-24-24H72c-13.3 0-24 10.7-24 24v112c0 13.3 10.7 24 24 24h104c13.3 0 24-10.7 24-24m200 0V120c0-13.3-10.7-24-24-24H272c-13.3 0-24 10.7-24 24v112c0 13.3 10.7 24 24 24h104c13.3 0 24-10.7 24-24m-48 56c-26.5 0-48 21.5-48 48s21.5 48 48 48 48-21.5 48-48-21.5-48-48-48m-256 0c-26.5 0-48 21.5-48 48s21.5 48 48 48 48-21.5 48-48S122.5 288 96 288"/></svg>