<svg height="512" width="384" xmlns="http://www.w3.org/2000/svg"><path d="M336 160H48C21.5 160 0 181.5 0 208v224c0 26.5 21.5 48 48 48h16v16c0 8.8 7.2 16 16 16h32c8.8 0 16-7.2 16-16v-16h128v16c0 8.8 7.2 16 16 16h32c8.8 0 16-7.2 16-16v-16h16c26.5 0 48-21.5 48-48V208c0-26.5-21.5-48-48-48m-16 216c0 4.4-3.6 8-8 8H72c-4.4 0-8-3.6-8-8v-16c0-4.4 3.6-8 8-8h240c4.4 0 8 3.6 8 8zm0-96c0 4.4-3.6 8-8 8H72c-4.4 0-8-3.6-8-8v-16c0-4.4 3.6-8 8-8h240c4.4 0 8 3.6 8 8zM144 48h96v80h48V48C288 21.5 266.5 0 240 0h-96C117.5 0 96 21.5 96 48v80h48z"/></svg>