<svg height="512" width="512" xmlns="http://www.w3.org/2000/svg"><path d="M256 160c-52.9 0-96 43.1-96 96s43.1 96 96 96 96-43.1 96-96-43.1-96-96-96m246.4 80.5-94.7-47.3L441.2 92.8c4.5-13.6-8.4-26.5-21.9-21.9l-100.4 33.5L271.5 9.6c-6.4-12.8-24.6-12.8-31 0l-47.3 94.7L92.7 70.8C79.1 66.3 66.2 79.2 70.8 92.7l33.5 100.4L9.6 240.5c-12.8 6.4-12.8 24.6 0 31l94.7 47.3L70.8 419.3c-4.5 13.6 8.4 26.5 21.9 21.9l100.4-33.5 47.3 94.7c6.4 12.8 24.6 12.8 31 0l47.3-94.7 100.4 33.5c13.6 4.5 26.5-8.4 21.9-21.9L407.5 318.9l94.7-47.3c13-6.5 13-24.7.2-31.1m-155.9 106c-49.9 49.9-131.1 49.9-181 0s-49.9-131.1 0-181 131.1-49.9 181 0 49.9 131.1 0 181"/></svg>