<svg height="512" width="512" xmlns="http://www.w3.org/2000/svg"><path d="m494.2 221.9-59.8-40.5 13.7-71C450.7 97.2 446.5 83.6 437 74 427.4 64.5 413.8 60.3 400.8 62.9l-70.9 13.7L289.5 16.7c-15.1-22.3-51.9-22.3-67 0l-40.4 59.9L111.3 62.9C98 60.4 84.5 64.5 75 74.1S61.3 97.2 63.9 110.4l13.7 71-59.8 40.5C6.6 229.5 0 242 0 255.5s6.7 26 17.8 33.5l59.8 40.5-13.7 71c-2.6 13.2 1.6 26.8 11.1 36.3s22.9 13.7 36.3 11.1l70.8-13.7 40.4 59.9C230 505.3 242.6 512 256 512s26-6.7 33.5-17.8l40.4-59.9 70.9 13.7c13.4 2.7 26.8-1.6 36.3-11.1s13.6-23.1 11.1-36.3l-13.7-71 59.8-40.5c11.1-7.5 17.8-20.1 17.8-33.5C512 242 505.4 229.5 494.2 221.9m-112.9 85.6 17.6 91.2-91-17.6L256 458l-51.9-77-90.9 17.6 17.6-91.2L54 255.4l76.8-52-17.6-91.2 91 17.6L256 53l51.9 76.9 91-17.6-17.6 91.1 76.8 52zM256 152c-57.3 0-104 46.7-104 104s46.7 104 104 104S360 313.3 360 256 313.3 152 256 152m0 160c-30.9 0-56-25.1-56-56s25.1-56 56-56 56 25.1 56 56-25.1 56-56 56"/></svg>