<svg height="1000" width="1000" xmlns="http://www.w3.org/2000/svg"><path d="M429.9 953l-39.5 -96.5a7.8 -7.8 0 0 1 -11.3 -3.7l-88.7 54.9C232.9 943.3 160.9 891 177 825.3L201.8 724a7.8 -7.8 0 0 1 -7 -9.7l-104 -7.7c-67.5 -5 -95 -89.5 -43.3 -133.3L127.1 506a7.8 -7.8 0 0 1 0 -12L47.5 426.7C-4.2 382.9 23.3 298.4 90.8 293.4l104 -7.8a7.8 -7.8 0 0 1 7 -9.6L177 174.7C160.9 109 232.8 56.7 290.4 92.3l88.7 54.9a7.8 -7.8 0 0 1 11.3 -3.7L429.9 47c25.6 -62.7 114.5 -62.7 140.2 0l39.4 96.5a7.8 -7.8 0 0 1 11.4 3.7l88.7 -54.9c57.5 -35.6 129.5 16.6 113.4 82.4L798.1 276a7.8 -7.8 0 0 1 7.1 9.6l104 7.8c67.5 5 95 89.5 43.3 133.3L872.9 494a7.8 -7.8 0 0 1 0 12l79.6 67.3c51.8 43.9 24 128.3 -43.3 133.3l-104 7.7a7.8 -7.8 0 0 1 -7 9.7L823 825.3c16 65.7 -55.9 118 -113.4 82.4l-88.7 -54.9a7.8 -7.8 0 0 1 -11.4 3.7L570.1 953c-25.7 62.8 -114.6 62.5 -140.2 0zm32.9 -126.1l37.2 91 37.2 -91c20.2 -49.2 79.7 -68.5 124.8 -40.6l83.6 51.8 -23.3 -95.5c-12.7 -51.7 24.1 -102.3 77.1 -106.2l98.1 -7.3 -75.1 -63.5c-40.6 -34.4 -40.5 -96.9 0 -131.2l75.1 -63.6 -98.1 -7.2c-53 -4 -89.8 -54.6 -77.1 -106.2l23.4 -95.5L662 213.6c-45.2 28 -104.7 8.6 -124.8 -40.5L500 82l-37.2 91.1c-20.2 49.2 -79.7 68.5 -124.8 40.5l-83.7 -51.7 23.4 95.5c12.7 51.7 -24.2 102.2 -77.1 106.2l-98.1 7.2 75.1 63.6c40.6 34.3 40.5 96.9 0 131.2l-75.1 63.5 98.1 7.3c53 4 89.7 54.6 77.1 106.2l-23.4 95.5L338 786.3c45.3 -28 104.7 -8.5 124.8 40.6zM500 750C362.1 750 250 637.8 250 500 250 362.1 362.1 250 500 250c137.8 0 250 112.1 250 250 0 137.8 -112.2 250 -250 250zm0 -406.2c-86.2 0 -156.2 70 -156.2 156.2s70 156.3 156.2 156.3S656.3 586.2 656.3 500 586.2 343.8 500 343.8z"/></svg>