<svg height="1000" width="1000" xmlns="http://www.w3.org/2000/svg"><path d="M965.2 433.4c21.9 14.8 34.8 39.3 35 65.8 0 26.2 -13.1 50.8 -34.8 65.4l-116.8 79.1 26.8 138.7c4.9 25.8 -3.1 52.4 -21.7 70.9s-44.7 27 -70.9 21.7L644.3 848.2l-78.9 117C550.8 986.9 526.2 1000 500 1000s-50.8 -13.1 -65.4 -35L355.7 848l-138.3 26.8c-26.2 5.1 -52.4 -3.1 -70.9 -21.7S119.7 808 124.8 782.2l26.8 -138.6L34.8 564.5C13.1 549.8 0 525.4 0 499s12.9 -50.8 34.8 -65.6l116.8 -79.1L124.8 215.6c-5.1 -25.8 3.1 -52.1 21.7 -70.9C165 126 191.4 118 217.4 122.9l138.3 26.7 78.9 -117c29.5 -43.5 101.3 -43.5 130.8 0l78.9 117 138.5 -26.7c25.4 -5.1 52 3.1 70.7 21.6 18.6 18.8 26.8 45.3 21.7 71.1l-26.8 138.7zM744.7 600.6l150 -101.8 -150 -101.5 34.4 -178 -177.7 34.4L500 103.5l-101.2 150L221.1 219.1l34.4 178.2 -150 101.5 150 101.6 -34.4 178.1 177.5 -34.4L500 894.5 601.4 744.3l177.7 34.4zM500 296.9c111.9 0 203.1 91.2 203.1 203.1S611.9 703.1 500 703.1 296.9 611.9 296.9 500 388.1 296.9 500 296.9zm0 312.5c60.4 0 109.4 -49 109.4 -109.4S560.4 390.6 500 390.6 390.6 439.6 390.6 500s49 109.4 109.4 109.4z"/></svg>