<svg height="512" width="640" xmlns="http://www.w3.org/2000/svg"><path d="M471.1 102.7s-.3 18.3-.3 20.3C461.7 120 396.4 98.9 335.1 96.7 283.2 94.9 212.3 92.4 112.1 154 92.7 166.4 38.2 200.1 12.5 263.7 7 277-.1 307 7 335.1a111 111 0 0 0 16.5 35.7c17.4 25 46.6 41.6 78.1 44.4 44.4 3.9 78.1-16 90-53.3 8.2-25.8 0-63.6-31.5-82.9-25.6-15.7-53.3-12.1-69.2-1.6C77 286.6 69.1 300.9 69.3 316.6c.3 27.8 24.3 42.6 41.5 42.6a49 49 0 0 0 15.8-2.7c6.5-1.8 13.3-6.5 13.3-14.9 0-12.1-11.6-14.8-16.8-13.9-2.9.5-4.5 2-11.8 2.4-2-.2-12-3.1-12-14v-.1c.2-12.3 13.2-18 25.5-16.9 32.3 2.8 47.7 40.7 28.5 65.7C135 388.5 76.7 388 53.6 344.4c-26-49.2 12.7-111.2 87-98.4 33.2 5.7 83.6 35.5 102.4 104.3h45.9C283.2 332.7 280 282 331.6 282c56.7 0 63.9 39.9 79.8 68.3H460C447.2 332 438.3 311.6 441.1 294.5c5.6-33.8 39.7-18.4 82.4-17.4 66.5.4 102.1-27 103.1-28 3.7-3.1 6.5-15.8 7-17.7 1.3-5.1-3.2-2.4-3.2-2.4-8.7 5.2-30.5 15.2-50.9 15.6-25.3.5-76.2-25.4-81.6-28.2-.3-.4.1 1.2-11-25.5 88.4 58.3 118.3 40.5 145.2 21.7.8-.6 4.3-2.9 3.6-5.7-13.8-48.1-22.4-62.7-34.5-69.6C564.2 115.7 476.2 102.6 472 102c.1-.1-.9-.3-.9.7m60.4 72.8a37.5 37.5 0 0 1 38.9-36.3c33.4 1.2 48.8 42.3 24.4 65.2-24.2 22.7-64.4 4.6-63.3-28.9m38.6-25.3a26.3 26.3 0 1 0 25.4 27.2 26.2 26.2 0 0 0-25.4-27.2m4.3 28.8c-15.4 0-15.4-15.6 0-15.6s15.4 15.6 0 15.6"/></svg>