<svg height="512" width="448" xmlns="http://www.w3.org/2000/svg"><path d="M448 156.1c0-4.5-.1-9-.2-13.5a196 196 0 0 0-2.6-29.5 99.6 99.6 0 0 0-9.2-28A94.1 94.1 0 0 0 394.8 44a99.2 99.2 0 0 0-28-9.2 195 195 0 0 0-29.4-2.6c-4.5-.1-9-.2-13.5-.2H124.1c-4.5 0-9 .1-13.5.2-2.4.1-4.9.1-7.3.3a172 172 0 0 0-22.1 2.3A103 103 0 0 0 60 40.9q-3.5 1.4-6.8 3.1A94.7 94.7 0 0 0 34.8 56.3c-1.9 1.6-3.7 3.3-5.5 5A93.9 93.9 0 0 0 12 85.2a99.5 99.5 0 0 0-9.2 28A196 196 0 0 0 .2 142.6c-.1 4.5-.1 9-.2 13.5v199.8c0 4.5.1 9 .2 13.5a196 196 0 0 0 2.6 29.5 99.3 99.3 0 0 0 9.2 28A94.3 94.3 0 0 0 53.2 468a99.5 99.5 0 0 0 28 9.2 195 195 0 0 0 29.4 2.6c4.5.1 9 .2 13.5.2h199.8c4.5 0 9-.1 13.5-.2a196.6 196.6 0 0 0 29.5-2.6 99.6 99.6 0 0 0 28-9.2A94.2 94.2 0 0 0 436 426.8a99.3 99.3 0 0 0 9.2-28 195 195 0 0 0 2.6-29.4c.1-4.5.2-9 .2-13.5V172.1c0-5.3 0-10.7 0-16m-69.9 241c-20-38.9-57.2-29.3-76.3-19.5-1.7 1-3.5 2-5.2 3l-.5.3c-39.5 21-92.5 22.5-145.8-.4A234.6 234.6 0 0 1 45 290.1a230.6 230.6 0 0 0 39.2 23.4c56.3 26.4 113 24.5 153 0C180.2 269.6 132.6 212.5 96.1 166.3A197 197 0 0 1 77.3 140.4c43.7 40 112.7 90.2 137.5 104.1C162.2 189 115.9 120.6 118.1 122.8c82.8 83.4 159.1 130.5 159.1 130.5 2.9 1.6 5 2.9 6.8 4a127 127 0 0 0 4.1-12.4C301.4 196.5 286.5 141.3 252.8 95.7c76.8 46.1 122.2 133.6 103.6 207.7-.4 1.8-1 3.4-1.4 5.1 38.5 47.4 28 98.2 23.1 88.6"/></svg>