<svg height="512" width="640" xmlns="http://www.w3.org/2000/svg"><path d="M189.6 310.6c3.6 3.2 15.3 9.4 34.4 9.4s30.9-6.2 34.4-9.4c16-14.8 34.5-22.6 53.4-22.6h16.3c19 0 37.5 7.8 53.5 22.6 3.5 3.2 15.3 9.4 34.4 9.4s30.9-6.2 34.4-9.4c14.8-13.7 31.9-21.1 49.4-22.2L386.9 207.8l18-12.8c3.7-2.6 8.3-3.6 12.7-2.7l100.3 21.6c25.9 5.5 51.4-11 57-36.9S564 125.6 538 120L437.7 98.5c-30.8-6.6-63 .1-88.6 18.3l-80 57.2c-10.4 7.4-19.4 16.5-26.7 27l-68.6 98c5.4 3.2 10.8 6.9 15.8 11.6M624 352h-16c-26 0-45.8-8.4-56.1-17.9C543 325.9 532.3 320 520.1 320h-16.3c-12.1 0-22.8 5.9-31.7 14.1C461.8 343.6 442 352 416 352s-45.8-8.4-56.1-17.9C351 325.9 340.2 320 328.1 320h-16.3c-12.1 0-22.8 5.9-31.7 14.1C269.8 343.6 250 352 224 352s-45.8-8.4-56.1-17.9C159 325.9 148.3 320 136.1 320h-16.3c-12.1 0-22.8 5.9-31.7 14.1C77.8 343.6 58 352 32 352H16c-8.8 0-16 7.2-16 16v32c0 8.8 7.2 16 16 16h16c38.6 0 72.7-12.2 96-31.8 23.3 19.6 57.4 31.8 96 31.8s72.7-12.2 96-31.8c23.3 19.6 57.4 31.8 96 31.8s72.7-12.2 96-31.8c23.3 19.6 57.4 31.8 96 31.8h16c8.8 0 16-7.2 16-16v-32c0-8.8-7.2-16-16-16M112 256c44.2 0 80-35.8 80-80S156.2 96 112 96s-80 35.8-80 80 35.8 80 80 80"/></svg>