<svg height="512" width="640" xmlns="http://www.w3.org/2000/svg"><path d="M624 416h-16c-26 0-45.8-8.4-56.1-17.9C543 389.9 532.3 384 520.1 384h-16.3c-12.1 0-22.8 5.9-31.7 14.1C461.8 407.6 442 416 416 416s-45.8-8.4-56.1-17.9C351 389.9 340.2 384 328.1 384h-16.3c-12.1 0-22.8 5.9-31.7 14.1C269.8 407.6 250 416 224 416s-45.8-8.4-56.1-17.9C159 389.9 148.3 384 136.1 384h-16.3c-12.1 0-22.8 5.9-31.7 14.1C77.8 407.6 58 416 32 416H16c-8.8 0-16 7.2-16 16v32c0 8.8 7.2 16 16 16h16c38.6 0 72.7-12.2 96-31.8 23.3 19.6 57.4 31.8 96 31.8s72.7-12.2 96-31.8c23.3 19.6 57.4 31.8 96 31.8s72.7-12.2 96-31.8c23.3 19.6 57.4 31.8 96 31.8h16c8.8 0 16-7.2 16-16v-32c0-8.8-7.2-16-16-16M224 384v-96h192v96c19.1 0 30.9-6.2 34.4-9.4 9.2-8.5 19.2-14.4 29.6-18.1V128c0-17.6 14.4-32 32-32s32 14.4 32 32v16c0 8.8 7.2 16 16 16h32c8.8 0 16-7.2 16-16v-16C608 75.1 564.9 32 512 32s-96 43.1-96 96v96H224v-96c0-17.6 14.4-32 32-32s32 14.4 32 32v16c0 8.8 7.2 16 16 16h32c8.8 0 16-7.2 16-16v-16C352 75.1 308.9 32 256 32s-96 43.1-96 96v228.5c10.4 3.7 20.4 9.6 29.6 18.1 3.5 3.2 15.3 9.4 34.4 9.4"/></svg>