<svg height="512" width="512" xmlns="http://www.w3.org/2000/svg"><path d="M256 8C119 8 8 119 8 256s111 248 248 248S504 393 504 256 393 8 256 8m133.7 143.5c-11.4.4-19.4-6.4-19.7-16.8-.3-9.2 6.7-13.5 6.5-18.9-.2-6.5-10.2-6.8-12.9-6.7-39.7 1.3-48.6 57-58.9 113.9 21.5 3.2 36.7-.7 45.2-6.2 12-7.8-3.4-15.7-1.4-24.6 4-18.1 32.5-19 32 5.3-.4 17.9-26 41.8-77.6 35.7-10.8 59.5-18.4 115-58.2 161.7-29 34.5-58.4 39.9-71.6 40.3-24.7.9-41-12.3-41.6-29.8-.6-17 14.5-26.3 24.3-26.6 21.9-.8 30.1 25.6 14.9 34-12.1 9.7.1 12.6 2 12.5 10.5-.3 17.4-5.5 22.2-9 24-20 33.3-54.8 45.4-118.3 8.2-49.7 17-78 18.2-82-16.9-12.8-27.1-28.6-49.8-34.7-15.7-4.3-25.2-.7-31.9 7.8-7.9 10-5.2 23 2.4 30.7l12.6 14c15.6 17.9 24 31.9 20.8 50.6-5 29.9-40.7 52.9-82.8 39.9C93.8 313.2 87.1 287.8 91.4 273.7c7.5-24.1 42.3-11.7 34.6 13.6-2.8 8.6-4.9 8.7-6.3 13.1-4.5 14.8 41.9 28.4 51-1.4 4.5-14.5-5.3-21.7-22.2-39.8-28.5-31.8-16-65.5 2.9-79.7C204.2 140.1 251.9 197 262 205.3 299.2 96.3 362.5 99.8 364.4 99.8c25.2-.9 44.2 10.5 44.9 28.6.2 7.7-4.2 22.6-19.6 23.1"/></svg>