<svg height="512" width="640" xmlns="http://www.w3.org/2000/svg"><path d="M70 196.5 6.7 268.3A26.6 26.6 0 0 0 0 285.9V512h128V239.6L90 196.5c-5.3-6-14.7-6-20 0m563.3 71.8L570 196.5c-5.3-6-14.7-6-20 0l-38 43.1V512h128V285.9c0-6.5-2.4-12.7-6.7-17.6M340 7c-11.7-9.3-28.3-9.3-40 0L172 109.4a32 32 0 0 0-12 25V512h96v-92.6c0-31.8 21.8-61.4 53.3-66.5 40-6.5 74.7 24.2 74.7 63.1v96h96V134.4c0-9.7-4.4-18.9-12-25zm52.1 215.6c1.9 3.1-.3 7.2-4 7.2h-39l-25.1 40c-1.9 2.9-6.1 2.9-8 0l-25.1-40h-39c-3.7 0-5.9-4.1-4-7.2L267.1 192l-19.2-30.5c-1.9-3.2.3-7.3 4-7.3h39l25.1-40c1.9-2.9 6.1-2.9 8 0l25.1 40h39c3.7 0 6 4.1 4 7.2L372.9 192z"/></svg>