<svg height="512" width="512" xmlns="http://www.w3.org/2000/svg"><path d="m440.6 12.6 4 82.7A247.2 247.2 0 0 0 255.8 8C134.7 8 33.9 94.9 12.3 209.8A12 12 0 0 0 24.1 224h49a12 12 0 0 0 11.7-9.3 175.9 175.9 0 0 1 317-56.9l-101.4-4.9a12 12 0 0 0-12.6 12v47.4a12 12 0 0 0 12 12H500a12 12 0 0 0 12-12V12A12 12 0 0 0 500 0h-47.4a12 12 0 0 0-12 12.6M255.8 432a175.6 175.6 0 0 1-146-77.8l101.8 4.9a12 12 0 0 0 12.6-12v-47.4a12 12 0 0 0-12-12H12a12 12 0 0 0-12 12V500a12 12 0 0 0 12 12h47.4a12 12 0 0 0 11.9-12.6l-4.1-82.6A247.2 247.2 0 0 0 255.8 504c121.1 0 222-86.9 243.6-201.8A12 12 0 0 0 487.6 288h-49.1a12 12 0 0 0-11.6 9.3A175.9 175.9 0 0 1 255.8 432"/></svg>