<svg height="512" width="512" xmlns="http://www.w3.org/2000/svg"><path d="M370.7 133.3C339.5 104 298.9 88 255.8 88c-77.4.1-144.3 53.2-162.7 126.8-1.4 5.4-6.2 9.2-11.7 9.2H24.1c-7.5 0-13.2-6.8-11.8-14.2C33.9 94.9 134.8 8 256 8c66.4 0 126.8 26.1 171.3 68.7L463 41c15.1-15.1 41-4.4 41 16.9V192c0 13.3-10.7 24-24 24H345.9c-21.3 0-32-25.9-16.9-41zM32 296h134.1c21.3 0 32 25.9 16.9 41l-41.7 41.7C172.5 408 213.1 424 256.2 424c77.4-.1 144.3-53.1 162.7-126.8 1.4-5.4 6.2-9.2 11.7-9.2h57.3c7.5 0 13.2 6.8 11.8 14.2C478.1 417.1 377.2 504 256 504 189.6 504 129.2 477.9 84.7 435.3L49 471C33.9 486.1 8 475.4 8 454.1V320c0-13.3 10.7-24 24-24"/></svg>