<svg height="512" width="640" xmlns="http://www.w3.org/2000/svg"><path d="M160 192C78.9 192 12.5 250.5.1 326.7c-.8 4.8 3.3 9.3 8.3 9.3h303.3c5 0 9.1-4.5 8.3-9.3C307.5 250.5 241.1 192 160 192m151.6 176H8.4c-5 0-9.1 4.5-8.3 9.3C12.5 453.5 78.9 512 160 512S307.5 453.5 319.9 377.3c.8-4.8-3.3-9.3-8.3-9.3M593.4 46.6C536.9-9.9 449.2-14.8 386.5 30.6c-4 2.9-4.3 8.9-.8 12.3L597 254.3c3.5 3.5 9.5 3.2 12.3-.8C654.8 190.8 649.9 103.1 593.4 46.6M363 65.7c-3.5-3.5-9.5-3.2-12.3.8-45.4 62.7-40.5 150.4 15.9 206.9 56.5 56.5 144.2 61.4 206.9 15.9 4-2.9 4.3-8.9.8-12.3z"/></svg>