<svg height="512" width="576" xmlns="http://www.w3.org/2000/svg"><path d="M288 32C128.9 32 0 160.9 0 320c0 52.8 14.3 102.3 39.1 144.8 5.6 9.6 16.3 15.2 27.4 15.2h443c11.1 0 21.8-5.6 27.4-15.2C561.8 422.3 576 372.8 576 320 576 160.9 447.1 32 288 32m0 64c14.7 0 26.6 10.1 30.3 23.7-1.1 2.2-2.6 4.2-3.4 6.6l-9.3 27.7c-5.1 3.5-10.9 6-17.6 6-17.7 0-32-14.3-32-32s14.3-32 32-32M96 384C78.3 384 64 369.7 64 352s14.3-32 32-32 32 14.3 32 32-14.3 32-32 32m48-160c-17.7 0-32-14.3-32-32s14.3-32 32-32 32 14.3 32 32-14.3 32-32 32m246.8-72.4-61.4 184c13.7 11.7 22.6 28.9 22.6 48.4 0 11.7-3.4 22.6-8.9 32H232.9c-5.5-9.4-8.9-20.3-8.9-32 0-33.9 26.5-61.4 59.9-63.6l61.3-184c4.2-12.6 17.8-19.5 30.4-15.2 12.6 4.2 19.4 17.8 15.2 30.4m14.6 57.2 15.5-46.6c3.5-1.2 7.2-2.2 11.1-2.2 17.7 0 32 14.3 32 32s-14.3 32-32 32c-11.4 0-20.9-6.3-26.6-15.2M480 384c-17.7 0-32-14.3-32-32s14.3-32 32-32 32 14.3 32 32-14.3 32-32 32"/></svg>