<svg height="512" width="640" xmlns="http://www.w3.org/2000/svg"><path d="M497.9 225.9 286.1 14.1A48 48 0 0 0 252.1 0H48C21.5 0 0 21.5 0 48v204.1a48 48 0 0 0 14.1 34l211.8 211.8c18.8 18.8 49.2 18.8 67.9 0L497.9 293.8c18.8-18.7 18.8-49.1 0-67.9M112 160C85.5 160 64 138.5 64 112S85.5 64 112 64s48 21.5 48 48-21.5 48-48 48m513.9 133.8L421.8 497.9c-18.7 18.8-49.1 18.8-67.9 0l-.3-.3 174-174.1c17-17 26.4-39.6 26.4-63.6s-9.4-46.7-26.4-63.7L331.4 0h48.7a48 48 0 0 1 34 14.1l211.8 211.8c18.8 18.8 18.8 49.2 0 67.9"/></svg>