<svg height="512" width="512" xmlns="http://www.w3.org/2000/svg"><path d="m462 241.6-22-84.8C430.4 121.6 398.4 96 363.2 96H352V64C352 46.3 337.7 32 320 32H192c-17.7 0-32 14.3-32 32v32h-11.2C113.6 96 81.6 121.6 72 156.8l-22 84.8C21.4 248 0 273.5 0 304v48c0 23.6 12.9 44 32 55.1V448c0 17.7 14.3 32 32 32h32c17.7 0 32-14.3 32-32v-32h256v32c0 17.7 14.3 32 32 32h32c17.7 0 32-14.3 32-32v-40.9C499.1 396 512 375.6 512 352v-48c0-30.5-21.4-56-50-62.4M96 352C78.3 352 64 337.7 64 320s14.3-32 32-32 32 14.3 32 32-14.3 32-32 32m20.5-112 17.3-66.4c2.2-8.1 9.5-13.6 15-13.6h214.4c5.5 0 12.8 5.5 14.9 12.9l17.3 67.1H116.6zM416 352c-17.7 0-32-14.3-32-32s14.3-32 32-32 32 14.3 32 32-14.3 32-32 32"/></svg>