<svg height="512" width="640" xmlns="http://www.w3.org/2000/svg"><path d="M544 0H96C43 0 0 43 0 96v320c0 53 43 96 96 96h448c53 0 96-43 96-96V96C640 43 597 0 544 0M160 368c0 26.5-21.5 48-48 48S64 394.5 64 368v-64c0-8.8 7.2-16 16-16h64c8.8 0 16 7.2 16 16zm0-128c0 8.8-7.2 16-16 16H80c-8.8 0-16-7.2-16-16v-64c0-26.5 21.5-48 48-48s48 21.5 48 48zm144 120c0 30.9-25.1 56-56 56s-56-25.1-56-56v-56c0-8.8 7.2-16 16-16h80c8.8 0 16 7.2 16 16zm0-120c0 8.8-7.2 16-16 16h-80c-8.8 0-16-7.2-16-16v-88c0-30.9 25.1-56 56-56s56 25.1 56 56zm144 120c0 30.9-25.1 56-56 56s-56-25.1-56-56v-56c0-8.8 7.2-16 16-16h80c8.8 0 16 7.2 16 16zm0-120c0 8.8-7.2 16-16 16h-80c-8.8 0-16-7.2-16-16v-88c0-30.9 25.1-56 56-56s56 25.1 56 56zm128 128c0 26.5-21.5 48-48 48s-48-21.5-48-48v-64c0-8.8 7.2-16 16-16h64c8.8 0 16 7.2 16 16zm0-128c0 8.8-7.2 16-16 16h-64c-8.8 0-16-7.2-16-16v-64c0-26.5 21.5-48 48-48s48 21.5 48 48z"/></svg>