<svg height="512" width="640" xmlns="http://www.w3.org/2000/svg"><path d="M544 0H96C43 0 0 43 0 96v64c0 35.3 28.7 64 64 64h512c35.3 0 64-28.7 64-64V96C640 43 597 0 544 0M160 176c0 8.8-7.2 16-16 16H80c-8.8 0-16-7.2-16-16v-32c0-26.5 21.5-48 48-48s48 21.5 48 48zm144 0c0 8.8-7.2 16-16 16h-80c-8.8 0-16-7.2-16-16v-56c0-30.9 25.1-56 56-56s56 25.1 56 56zm144 0c0 8.8-7.2 16-16 16h-80c-8.8 0-16-7.2-16-16v-56c0-30.9 25.1-56 56-56s56 25.1 56 56zm128 0c0 8.8-7.2 16-16 16h-64c-8.8 0-16-7.2-16-16v-32c0-26.5 21.5-48 48-48s48 21.5 48 48zm0 144H64C28.7 320 0 348.6 0 384v32c0 53 43 96 96 96h448c53 0 96-43 96-96v-32c0-35.4-28.7-64-64-64m-416 80c0 26.5-21.5 48-48 48S64 426.5 64 400v-32c0-8.8 7.2-16 16-16h64c8.8 0 16 7.2 16 16zm144-8c0 30.9-25.1 56-56 56s-56-25.1-56-56v-24c0-8.8 7.2-16 16-16h80c8.8 0 16 7.2 16 16zm144 0c0 30.9-25.1 56-56 56s-56-25.1-56-56v-24c0-8.8 7.2-16 16-16h80c8.8 0 16 7.2 16 16zm128 8c0 26.5-21.5 48-48 48s-48-21.5-48-48v-32c0-8.8 7.2-16 16-16h64c8.8 0 16 7.2 16 16z"/></svg>