<svg height="512" width="448" xmlns="http://www.w3.org/2000/svg"><path d="M432 32H16A16 16 0 0 0 0 48v80a16 16 0 0 0 16 16h32a16 16 0 0 0 16-16v-16h120v112h-24a16 16 0 0 0-16 16v32a16 16 0 0 0 16 16h128a16 16 0 0 0 16-16v-32a16 16 0 0 0-16-16h-24V112h120v16a16 16 0 0 0 16 16h32a16 16 0 0 0 16-16V48A16 16 0 0 0 432 32m-68.7 260.7C354 283.4 336 288.4 336 304v48H112v-48c0-14.3-17.3-21.3-27.3-11.3l-80 80a16 16 0 0 0 0 22.6l80 80C94 484.6 112 479.6 112 464v-48h224v48c0 14.3 17.3 21.3 27.3 11.3l80-80a16 16 0 0 0 0-22.6z"/></svg>