<svg height="512" width="512" xmlns="http://www.w3.org/2000/svg"><path d="M149.3 216v80c0 13.3-10.7 24-24 24H24C10.7 320 0 309.3 0 296v-80c0-13.3 10.7-24 24-24h101.3c13.3 0 24 10.7 24 24M0 376v80c0 13.3 10.7 24 24 24h101.3c13.3 0 24-10.7 24-24v-80c0-13.3-10.7-24-24-24H24C10.7 352 0 362.7 0 376M125.3 32H24C10.7 32 0 42.7 0 56v80c0 13.3 10.7 24 24 24h101.3c13.3 0 24-10.7 24-24V56c0-13.3-10.7-24-24-24m80 448H488c13.3 0 24-10.7 24-24v-80c0-13.3-10.7-24-24-24H205.3c-13.2 0-24 10.7-24 24v80c0 13.3 10.8 24 24 24m-24-424v80c0 13.3 10.8 24 24 24H488c13.3 0 24-10.7 24-24V56C512 42.7 501.3 32 488 32H205.3c-13.2 0-24 10.7-24 24m24 264H488c13.3 0 24-10.7 24-24v-80c0-13.3-10.7-24-24-24H205.3c-13.2 0-24 10.7-24 24v80c0 13.3 10.8 24 24 24"/></svg>