<svg height="512" width="512" xmlns="http://www.w3.org/2000/svg"><path d="M296 32h192c13.3 0 24 10.7 24 24v160c0 13.3-10.7 24-24 24H296c-13.3 0-24-10.7-24-24V56c0-13.3 10.7-24 24-24m-80 0H24C10.7 32 0 42.7 0 56v160c0 13.3 10.7 24 24 24h192c13.3 0 24-10.7 24-24V56C240 42.7 229.3 32 216 32M0 296v160c0 13.3 10.7 24 24 24h192c13.3 0 24-10.7 24-24V296c0-13.3-10.7-24-24-24H24C10.7 272 0 282.7 0 296m296 184h192c13.3 0 24-10.7 24-24V296c0-13.3-10.7-24-24-24H296c-13.3 0-24 10.7-24 24v160c0 13.3 10.7 24 24 24"/></svg>