<svg height="512" width="512" xmlns="http://www.w3.org/2000/svg"><path d="M149.3 56v80c0 13.3-10.7 24-24 24H24C10.7 160 0 149.3 0 136V56C0 42.7 10.7 32 24 32h101.3c13.3 0 24 10.7 24 24m181.4 240v-80c0-13.3-10.8-24-24-24H205.3c-13.2 0-24 10.7-24 24v80c0 13.3 10.8 24 24 24h101.4c13.2 0 24-10.7 24-24m32-240v80c0 13.3 10.7 24 24 24H488c13.3 0 24-10.7 24-24V56C512 42.7 501.3 32 488 32H386.7c-13.3 0-24 10.7-24 24m-32 80V56c0-13.3-10.8-24-24-24H205.3c-13.2 0-24 10.7-24 24v80c0 13.3 10.8 24 24 24h101.4c13.2 0 24-10.7 24-24m-205.4 56H24C10.7 192 0 202.7 0 216v80c0 13.3 10.7 24 24 24h101.3c13.3 0 24-10.7 24-24v-80c0-13.3-10.7-24-24-24M0 376v80c0 13.3 10.7 24 24 24h101.3c13.3 0 24-10.7 24-24v-80c0-13.3-10.7-24-24-24H24C10.7 352 0 362.7 0 376m386.7-56H488c13.3 0 24-10.7 24-24v-80c0-13.3-10.7-24-24-24H386.7c-13.3 0-24 10.7-24 24v80c0 13.3 10.7 24 24 24m0 160H488c13.3 0 24-10.7 24-24v-80c0-13.3-10.7-24-24-24H386.7c-13.3 0-24 10.7-24 24v80c0 13.3 10.7 24 24 24M181.3 376v80c0 13.3 10.8 24 24 24h101.4c13.2 0 24-10.7 24-24v-80c0-13.3-10.8-24-24-24H205.3c-13.2 0-24 10.7-24 24"/></svg>