<svg height="512" width="640" xmlns="http://www.w3.org/2000/svg"><path d="M206.9 245.2c-35.9 10.4-60 41.2-57.6 74.1 11.4-12.8 28.8-23.7 49.9-31l7.7-43.2zM95.8 295 64.1 115.5c-.3-1.6.3-2.6.2-2.7 57.8-32 123.1-49 189-49 1.6 0 3.3.2 4.9.2 13.9-13.5 31.7-22.8 51.6-26 18.9-3 38-4.5 57.1-5.3C357 18.7 342.5 8.5 325.2 5.7 301.3 1.9 277.2 0 253.3 0 176.7 0 101 19.4 33.2 57.1 9 70.5-3.9 98.5 1.1 126.6l31.7 179.5C47 386.6 169.1 448.2 237.2 448.2c3.6 0 6.8-.5 10-.8-13.5-17.1-28.9-40.5-39.5-67.6C160.1 366.8 101.7 328.2 95.8 295m97.6-137.5c-.8-4.1-2.3-7.8-4.1-11.4C181 155 168.6 161.9 154 164.5c-14.7 2.5-28.7.4-39.5-5.2-.5 3.9-.6 8 .1 12.1 3.8 21.7 24.6 36.2 46.3 32.4 21.8-3.9 36.3-24.6 32.5-46.3m413.4-36.6C517.8 71.5 415.4 53.5 314.8 69.6c-27.3 4.3-49.1 26.2-54 54.3L229 303.4c-15.3 87.1 95.3 196.3 158.4 207.4 63 11.1 204.4-53.8 219.8-140.9l31.7-179.5c5-28.1-7.9-56.1-32.1-69.5m-273.2 96.8c3.8-21.7 24.5-36.2 46.3-32.4 21.8 3.9 36.3 24.6 32.4 46.3-.7 4.1-2.2 7.8-4 11.4C400 234 387.6 227.2 373 224.6c-14.7-2.5-28.7-.4-39.5 5.2-.6-3.9-.7-8 .1-12.1M404 416.5c-55.7-9.8-93.5-59.3-89-112.9 20.6 25.5 56.2 46.1 99.5 53.7s83.8.4 111.9-16.6c-14.2 52-66.7 85.5-122.4 75.8M534.3 265.1c-8.2-8.9-20.7-15.7-35.3-18.3-14.7-2.6-28.7-.4-39.5 5.2-.5-4-.6-8 .1-12.1 3.8-21.7 24.6-36.2 46.3-32.4 21.8 3.8 36.3 24.5 32.5 46.2-.7 4.2-2.2 7.9-4.1 11.4"/></svg>