<svg height="512" width="448" xmlns="http://www.w3.org/2000/svg"><path d="M202.9 8.4c9.9-5.7 26-5.8 36-.2L430 115.8c10 5.6 18 19.5 18 30.9V364c0 11.4-8.1 25.3-18 31L238.8 503.7c-9.9 5.7-26 5.6-35.8-.2L17.9 395.1C8 389.3 0 375.4 0 364V146.7c0-11.4 8-25.3 17.9-31.1zm-77.4 199.9c-15.9 0-31.9.1-47.8.1v101.5h19.1V280h28.7c49.7 0 49.6-71.7 0-71.7m140.1 100.3-30.7-34.7c37-7.5 34.8-65.2-10.9-65.5-16.1 0-32.1-.1-48.2-.1v101.6h19.1v-34h18.4l29.6 34h22.7zM224 226.2c23.4 0 23.3 32.5 0 32.5h-29.1v-32.5zm-95.5-1.6c21.2 0 21.1 38.9 0 38.9H96.2v-38.9zm192.6-18.2c-68.4 0-71 105.8 0 105.8 69.5 0 69.4-105.8 0-105.8m0 17.4c44.2 0 44.8 70.8 0 70.8s-44.4-70.8 0-70.8"/></svg>