<svg height="512" width="512" xmlns="http://www.w3.org/2000/svg"><path d="M208 88.3c0-10 6.3-21.7 17.7-21.7 11.2 0 17.7 11.7 17.7 21.7 0 10.3-6.5 21.7-17.7 21.7C214.3 110 208 98.6 208 88.3m304 160c0 36-11.4 102.3-36.3 129.7-22.8 24.9-87.4 61.1-120.8 70.6l-1.2.3v32.5c0 16.3-12.6 30.6-29.1 30.6-10 0-19.5-5.7-24.6-14.3-5.4 8.6-14.9 14.3-24.9 14.3s-19.4-5.7-24.8-14.3c-5.2 8.6-14.6 14.3-24.6 14.3-10.3 0-19.4-5.7-24.8-14.3-5.2 8.6-14.6 14.3-24.6 14.3-18.9 0-29.4-15.7-29.4-32.9-16.3 12.3-35.8 19.5-56.6 19.5-22 0-43.4-8.3-60.3-22.9 10.3-.3 20.6-2.3 30.3-5.7C39.4 464.3 20.9 451.1 8.3 433.7c21.4 4.7 46.2 1.7 67.1-11.1-22-22-56.5-58.9-68.5-87.5C1.1 321.7 0 303.7 0 289.4c0-49.7 20.3-160 86.3-160 10.6 0 18.8 4.9 23.1 14.9a159 159 0 0 1 12-15.4c2-2.6 5.7-5.5 7.2-8.3 8-12.6 11.7-21.2 21.7-34C182.6 45.4 232 17.1 285.1 17.1c6 0 12 .3 17.8 1.2C313.7 6.6 328.9 0 344.6 0c14.5 0 29.7 6 40 16.3.8.8 1.4 2.3 1.4 3.4 0 3.7-10.3 13.4-12.9 16.3 4.3 1.4 15.8 6.9 15.8 12 0 2.9-2.9 5.1-4.6 7.1 31.4 27.8 49.4 67.2 56.3 108 4.3-5.1 10.3-8.5 17.1-8.5 10.6 0 20.9 7.1 28.6 14 20.8 18.5 25.7 53.1 25.7 79.7M188 89.4c0 18.3 12.6 37.2 32.3 37.2s32.3-18.9 32.3-37.2c0-18-12.6-36.8-32.3-36.8S188 71.4 188 89.4M237.7 194c0-19.7 3.7-39.1 8.6-58.3-52.1 79.5-13.5 184.6 68.8 184.6 21.5 0 42.6-7.7 60-20 2-7.4 3.8-14.9 3.8-22.6 0-14.3-6.3-21.4-20.6-21.4-4.6 0-9.2.8-13.4 1.7-63.4 12.7-107.2 3.7-107.2-64m-41.1 254.9c0-11.2-8.9-20.9-20.3-20.9s-20 9.7-20 20.9v32.5c0 11.2 8.6 21.2 20 21.2s20.3-9.7 20.3-21.2zm49.1 0c0-11.2-8.6-20.9-20-20.9s-20.3 9.7-20.3 20.9v32.5c0 11.2 8.9 21.2 20.3 21.2s20-10 20-21.2zm49.7 0c0-11.2-8.8-20.9-20.3-20.9-11.4 0-20.2 9.7-20.2 20.9v32.5c0 11.2 8.8 21.2 20.2 21.2 11.5 0 20.3-9.7 20.3-21.2zm49.7 0c0-11.2-8.8-20.9-20.2-20.9-11.5 0-20.3 9.7-20.3 20.9v32.5c0 11.2 8.8 21.2 20.3 21.2 11.4 0 20.2-10 20.2-21.2zM421.7 286c-30.8 59.1-90.3 102.6-158.6 102.6C166.6 388.6 102.6 304 102.6 212c0-16.9 2-33.4 6-49.7C88.6 196 78.9 234.9 78.9 273.7c0 60.3 24.8 121.7 71.4 160.9 5.1-9.7 14.8-16.3 26-16.3 10 0 19.4 5.7 24.6 14.3 5.4-8.6 14.5-14.3 24.8-14.3 10 0 19.4 5.7 24.6 14.3 5.4-8.6 14.8-14.3 24.8-14.3s19.5 5.7 24.9 14.3c5.1-8.6 14.6-14.3 24.6-14.3 10.8 0 20.8 6.6 25.7 16 43.4-36.3 68.6-92 71.4-148.3m10.6-99.7c0-53.7-34.6-105.7-92.6-105.7-30.3 0-58.6 15.1-78.8 36.8-20 66.4-27.5 136.6 41.4 136.6 28.8 0 97.3-28.5 84.3 36.9 28.8-26 45.7-65.8 45.7-104.6"/></svg>