<svg height="512" width="256" xmlns="http://www.w3.org/2000/svg"><path d="M192 384c0 35.3-28.7 64-64 64S64 419.3 64 384c0-23.7 12.9-44.3 32-55.4V288c0-17.7 14.3-32 32-32s32 14.3 32 32v40.6c19.1 11.1 32 31.7 32 55.4m32-84.7c19.9 22.6 32 52.2 32 84.7 0 70.7-57.3 128-128 128q-.45 0-.9 0C56.8 511.5-.4 453.6 0 383.3c.2-32.2 12.2-61.5 32-84V96C32 43 75 0 128 0s96 43 96 96zM208 384c0-34.3-19.4-52.2-32-66.5V96C176 69.5 154.5 48 128 48S80 69.5 80 96v221.5c-12.7 14.4-31.8 32.1-32 66.1-.2 43.9 35.6 80.1 79.4 80.4h.6c44.1 0 80-35.9 80-80"/></svg>