<svg height="512" width="256" xmlns="http://www.w3.org/2000/svg"><path d="M224 96C224 43 181 0 128 0S32 43 32 96v203.3C12.2 321.8.2 351.1 0 383.3-.4 453.6 56.8 511.5 127.1 512q.45 0 .9 0c70.7 0 128-57.3 128-128 0-32.5-12.1-62.1-32-84.7zm-96 368h-.6C83.6 463.7 47.8 427.5 48 383.6c.2-34 19.3-51.7 32-66.1V96c0-26.5 21.5-48 48-48s48 21.5 48 48v221.5c12.6 14.3 32 32.2 32 66.5 0 44.1-35.9 80-80 80m64-80c0 35.3-28.7 64-64 64S64 419.3 64 384c0-23.7 12.9-44.3 32-55.4V96c0-17.7 14.3-32 32-32s32 14.3 32 32v232.6c19.1 11.1 32 31.7 32 55.4"/></svg>