<svg height="512" width="512" xmlns="http://www.w3.org/2000/svg"><path d="M476.8 20.4C439.3-10.3 381.3-5.9 344.9 30.6l-45.7 46 50.5 50.5c3.1 3.1 3.1 8.2 0 11.3l-11.3 11.3c-3.1 3.1-8.2 3.1-11.3 0L276.7 99.2l-45.1 45.4 50.3 50.4c3.1 3.1 3.1 8.2 0 11.3l-11.3 11.3c-3.1 3.1-8.2 3.1-11.3 0L209 167.4l-45.1 45.4L214 263c3.1 3.1 3.1 8.2 0 11.3l-11.3 11.3c-3.1 3.1-8.2 3.1-11.3 0l-50.1-50.2L96 281.1V382L7 471c-9.4 9.4-9.4 24.6 0 33.9 9.4 9.4 24.6 9.4 33.9 0l89-89h99.9L484 162.6C518.9 127.7 526.2 61.1 476.8 20.4"/></svg>