<svg height="512" width="512" xmlns="http://www.w3.org/2000/svg"><path d="M0 56v240c0 13.3 10.7 24 24 24h80c13.3 0 24-10.7 24-24V56C128 42.7 117.3 32 104 32H24C10.7 32 0 42.7 0 56m40 200c0-13.3 10.7-24 24-24s24 10.7 24 24-10.7 24-24 24S40 269.3 40 256m272 256c-20.2 0-29.5-39.3-33.9-57.8-5.2-21.7-10.6-44.1-25.4-58.9-32.5-32.5-49.5-74-89.1-113.1a12 12 0 0 1-3.6-8.5V59.9c0-6.5 5.2-11.9 11.8-12 15.8-.3 36.7-9.1 52.6-16.2C256.2 17.6 295.7 0 344 0h2.8c42.8 0 93.4.4 113.8 29.7 8.4 12.1 10.5 27.1 6.2 44.7 16.3 17 25 48.8 16.3 74.7 17.6 23.5 19.2 56.2 9.4 79.5l.1.1c11.9 12 19.5 31.3 19.4 49.2-.2 30.4-26.2 58.1-59.6 58.1H350.7c7.3 28.3 33.3 52.1 33.3 94.5C384 504 336 512 312 512"/></svg>