<svg height="512" width="512" xmlns="http://www.w3.org/2000/svg"><path d="M466.3 225.3c4.6-22.6.8-44.5-9-63 2.9-23.8-4-48.5-17.4-67C439 39.4 404.1 0 327 0c-7 0-15 0-22.2 0C201.2 0 169 40 128 40h-10.8C111.5 35 104.1 32 96 32H32C14.3 32 0 46.3 0 64v240c0 17.7 14.3 32 32 32h64c11.8 0 22.2-6.4 27.7-16h7.1c19.1 17 46 60.7 68.7 83.4 13.7 13.7 10.2 108.6 71.8 108.6 57.6 0 95.2-31.9 95.2-104.7 0-18.4-3.9-33.8-8.8-46.6h36.5c48.6 0 85.8-41.5 85.8-85.6 0-19.1-5-34.9-13.7-49.8M64 296C50.7 296 40 285.3 40 272s10.7-24 24-24 24 10.7 24 24-10.7 24-24 24m330.2 16.7h-104c0 37.9 28.4 55.4 28.4 94.6 0 23.7 0 56.7-47.3 56.7-18.9-18.9-9.5-66.2-37.8-94.5C206.9 342.9 167.3 272 138.9 272H128V85.8C181.6 85.8 228 48 299.6 48h37.9c35.5 0 60.8 17.1 53.1 65.9 15.2 8.2 26.5 36.4 13.9 57.6 21.6 20.4 18.7 51 5.2 65.6 9.5 0 22.4 18.9 22.3 37.8s-16.7 37.8-37.8 37.8"/></svg>