<svg height="512" width="512" xmlns="http://www.w3.org/2000/svg"><path d="M104 224H24C10.7 224 0 234.7 0 248v240c0 13.3 10.7 24 24 24h80c13.3 0 24-10.7 24-24V248c0-13.3-10.7-24-24-24M64 472C50.7 472 40 461.3 40 448s10.7-24 24-24 24 10.7 24 24-10.7 24-24 24M384 81.5c0 42.4-26 66.2-33.3 94.5h101.7c33.4 0 59.4 27.7 59.6 58.1.1 17.9-7.5 37.2-19.4 49.2l-.2.1c9.9 23.3 8.3 56-9.3 79.5 8.7 25.9 0 57.7-16.3 74.7 4.3 17.6 2.2 32.6-6.2 44.7-20.4 29.3-71 29.7-113.8 29.7H344c-48.3 0-87.8-17.6-119.6-31.7-15.9-7.1-36.8-15.9-52.6-16.2-6.6-.1-11.8-5.5-11.8-12V238.3c0-3.2 1.3-6.2 3.6-8.5 39.6-39.1 56.6-80.6 89.1-113.1 14.8-14.8 20.2-37.2 25.4-58.9C282.5 39.3 291.8 0 312 0c24 0 72 8 72 81.5"/></svg>