<svg height="1000" width="1000" xmlns="http://www.w3.org/2000/svg"><path d="M910.7 440.1c17.1 29 26.8 59.9 26.8 97.3 0 86 -72.7 167.2 -167.6 167.2h-71.3c9.6 25 17.3 54.9 17.3 90.8 0 142.2 -73.6 204.6 -186.1 204.6C409.5 1000 416.4 814.6 389.7 787.9 345.3 743.5 292.8 658.1 255.4 625h-13.8c-10.8 18.7 -31 31.2 -54.1 31.2h-125C28 656.2 0 628.3 0 593.7V125C0 90.5 28 62.5 62.5 62.5h125c15.8 0 30.3 5.9 41.3 15.6H250C330.1 78.1 393 0 595.3 0c14.1 0 29.7 0 43.4 0 150.6 0 218.7 77 220.6 186.2 26 36 39.6 84.2 33.8 130.8 19.3 36.1 26.7 78.8 17.6 123.1zM125 578.1c25.9 0 46.9 -21 46.9 -46.8s-21 -46.9 -46.9 -46.9 -46.9 21 -46.9 46.9 21 46.8 46.9 46.8zm644.9 32.7c41.2 0 73.7 -36.9 73.9 -73.9 .1 -36.9 -25.1 -73.8 -43.5 -73.8 26.3 -28.4 31.9 -88.4 -10.2 -128.2 24.5 -41.2 2.4 -96.5 -27.2 -112.4C777.9 127.2 728.5 93.8 659.1 93.8h-73.9c-139.9 0 -230.5 73.8 -335.2 73.8v363.6h21.3c55.4 0 132.8 138.5 184.7 190.4 55.4 55.4 36.9 147.7 73.8 184.6 92.4 0 92.4 -64.4 92.4 -110.8 0 -76.5 -55.4 -110.7 -55.4 -184.6h203.1z"/></svg>