<svg height="512" width="512" xmlns="http://www.w3.org/2000/svg"><path d="M466.3 286.7C475 271.8 480 256 480 236.8c0-44-37.2-85.5-85.8-85.5h-36.5c4.9-12.8 8.9-28.2 8.9-46.6C366.6 31.9 328.9 0 271.3 0c-61.6 0-58.1 94.9-71.8 108.6C176.8 131.3 149.9 175 130.8 192H32C14.3 192 0 206.3 0 224v240c0 17.7 14.3 32 32 32h64c14.9 0 27.4-10.2 31-23.9 44.5 1 75 39.9 177.8 39.9 7.2 0 15.2 0 22.2 0 77.1 0 112-39.4 112.9-95.3 13.4-18.5 20.3-43.2 17.4-67 9.8-18.5 13.6-40.4 9-63m-61.8 53.8c12.6 21.1 1.3 49.4-13.9 57.6C398.3 446.9 373 464 337.5 464h-37.9C228 464 181.6 426.2 128 426.2V240h10.9c28.4 0 68-70.9 94.6-97.5C261.8 114.2 252.4 66.9 271.3 48c47.2 0 47.2 33 47.2 56.7 0 39.2-28.3 56.8-28.3 94.6h104c21.1 0 37.7 18.9 37.8 37.8s-12.8 37.8-22.3 37.8c13.5 14.6 16.4 45.2-5.2 65.6M88 432c0 13.3-10.7 24-24 24S40 445.3 40 432s10.7-24 24-24 24 10.7 24 24"/></svg>