<svg height="1000" width="1000" xmlns="http://www.w3.org/2000/svg"><path d="M910.7 440.1c9.1 -44.3 1.7 -87 -17.6 -123.1 5.8 -46.6 -7.8 -94.8 -33.8 -130.8C857.4 77 789.3 0 638.7 0 625 0 609.4 0 595.3 0 393 0 330.1 78.1 250 78.1h-21.2c-11 -9.7 -25.5 -15.6 -41.3 -15.6h-125C28 62.5 0 90.5 0 125v468.8c0 34.5 28 62.5 62.5 62.5h125c23.1 0 43.3 -12.6 54.1 -31.3h13.8c37.4 33.1 89.9 118.5 134.3 162.9 26.7 26.7 19.8 212.1 140.1 212.1 112.5 0 186.1 -62.4 186.1 -204.6 0 -35.9 -7.7 -65.8 -17.3 -90.8h71.3c94.9 0 167.6 -81.2 167.6 -167.2 0 -37.4 -9.7 -68.3 -26.8 -97.3zM125 578.1c-25.9 0 -46.9 -21 -46.9 -46.8s21 -46.9 46.9 -46.9 46.9 21 46.9 46.9 -21 46.8 -46.9 46.8zm644.9 32.7H566.8c0 73.9 55.4 108.1 55.4 184.6 0 46.4 0 110.9 -92.4 110.9C492.9 869.3 511.4 777 456 721.6 404.1 669.7 326.7 531.3 271.3 531.3H250V167.6c104.7 0 195.3 -73.8 335.2 -73.8h73.9c69.4 0 118.8 33.4 103.8 128.7 29.6 15.9 51.7 71.2 27.2 112.4 42.1 39.8 36.5 99.8 10.2 128.2 18.4 0 43.6 36.9 43.5 73.8 -.2 37 -32.7 73.9 -73.9 73.9z"/></svg>