<svg height="1000" width="1000" xmlns="http://www.w3.org/2000/svg"><path d="M910.7 559.9c9.1 44.3 1.7 87 -17.6 123.1 5.8 46.6 -7.8 94.8 -33.8 130.8C857.4 923 789.3 1000 638.7 1000c-13.7 0 -29.3 0 -43.4 0C394.6 1000 334.9 923.9 248 922c-7 26.9 -31.4 46.7 -60.5 46.7h-125C28 968.7 0 940.8 0 906.2V437.5C0 403 28 375 62.5 375h192.9c37.4 -33.1 89.9 -118.5 134.3 -162.9C416.4 185.4 409.5 0 529.8 0c112.5 0 186.1 62.4 186.1 204.5 0 36 -7.7 65.9 -17.3 90.9h71.3c94.9 0 167.6 81.2 167.6 167.2 0 37.4 -9.7 68.3 -26.8 97.3zM790.1 665.1c42.1 -39.8 36.5 -99.8 10.2 -128.2 18.4 0 43.6 -36.9 43.5 -73.8 -.2 -37 -32.7 -73.9 -73.9 -73.9H566.8c0 -73.9 55.4 -108.1 55.4 -184.6 0 -46.4 0 -110.8 -92.4 -110.8C492.9 130.7 511.4 223 456 278.4 404.1 330.3 326.7 468.8 271.3 468.8H250v363.6c104.7 0 195.3 73.8 335.2 73.8h73.9c69.4 0 118.8 -33.4 103.8 -128.7 29.6 -15.9 51.7 -71.2 27.2 -112.4zM171.9 843.8c0 -25.9 -21 -46.9 -46.9 -46.9s-46.9 21 -46.9 46.9 21 46.8 46.9 46.8 46.9 -21 46.9 -46.8z"/></svg>