<svg height="1000" width="1000" xmlns="http://www.w3.org/2000/svg"><path d="M910.7 559.9c17.1 -29 26.8 -59.9 26.8 -97.3 0 -86 -72.7 -167.2 -167.6 -167.2h-71.3c9.6 -25 17.3 -54.9 17.3 -90.8C715.9 62.4 642.3 0 529.8 0 409.5 0 416.4 185.4 389.7 212.1 345.3 256.5 292.8 341.9 255.4 375H62.5C28 375 0 403 0 437.5v468.8c0 34.5 28 62.5 62.5 62.5h125c29.1 0 53.5 -19.9 60.5 -46.8 86.9 1.9 146.6 78 347.3 78 14.1 0 29.7 0 43.4 0 150.6 0 218.7 -77 220.6 -186.2 26 -36 39.6 -84.2 33.8 -130.8 19.3 -36.1 26.7 -78.8 17.6 -123.1zM790.1 665.1c24.5 41.2 2.4 96.5 -27.2 112.4 15 95.3 -34.4 128.7 -103.8 128.7h-73.9C445.3 906.2 354.7 832.4 250 832.4V468.8h21.3c55.4 0 132.8 -138.5 184.7 -190.4C511.4 223 492.9 130.7 529.8 93.8c92.4 0 92.4 64.4 92.4 110.8 0 76.5 -55.4 110.7 -55.4 184.6h203.1c41.2 0 73.7 36.9 73.9 73.9 .1 36.9 -25.1 73.8 -43.5 73.8 26.3 28.4 31.9 88.4 -10.2 128.2zM171.9 843.8c0 25.8 -21 46.8 -46.9 46.8s-46.9 -21 -46.9 -46.8 21 -46.9 46.9 -46.9 46.9 21 46.9 46.9z"/></svg>