<svg height="512" width="512" xmlns="http://www.w3.org/2000/svg"><path d="M256 8C119 8 8 119 8 256s111 248 248 248S504 393 504 256 393 8 256 8m0 448C145.5 456 56 366.5 56 256S145.5 56 256 56s200 89.5 200 200S366.5 456 256 456M357.8 193.8 295.6 256l62.2 62.2c4.7 4.7 4.7 12.3 0 17l-22.6 22.6a12.01 12.01 0 0 1-17 0L256 295.6l-62.2 62.2a12.01 12.01 0 0 1-17 0l-22.6-22.6a12.01 12.01 0 0 1 0-17L216.4 256l-62.2-62.2a12.01 12.01 0 0 1 0-17l22.6-22.6a12.01 12.01 0 0 1 17 0l62.2 62.2 62.2-62.2a12.01 12.01 0 0 1 17 0l22.6 22.6c4.7 4.7 4.7 12.3 0 17"/></svg>