<svg height="1000" width="968.8" xmlns="http://www.w3.org/2000/svg"><path d="M484.4 15.6C216.8 15.6 0 232.4 0 500s216.8 484.4 484.4 484.4S968.8 767.6 968.8 500 752 15.6 484.4 15.6zm0 875C268.9 890.6 93.8 715.4 93.8 500S268.9 109.4 484.4 109.4 875 284.6 875 500 699.8 890.6 484.4 890.6zM736.5 297.3c-7.4 -8.6 -20.1 -10.6 -29.9 -4.9l-156.2 93.7c-7 4.3 -11.3 11.9 -11.3 20.2s4.3 15.8 11.3 20.1l156.2 93.7c10.6 6.3 23.1 3.1 29.9 -4.9 7.4 -8.8 7.6 -21.4 .2 -30.2l-65.6 -78.7 65.6 -78.8c7.4 -8.7 7.2 -21.6 -.2 -30.2zm-306.8 109c0 -8.3 -4.3 -15.9 -11.3 -20.2L262.1 292.4c-9.8 -5.9 -22.5 -3.7 -29.9 4.9 -7.4 8.8 -7.6 21.5 -.2 30.2l65.7 78.8L232 485c-7.4 8.8 -7.2 21.4 .2 30.2 6.9 8 19.4 11.2 29.9 4.9l156.3 -93.7c7 -4.3 11.3 -11.9 11.3 -20.1zm54.7 125c-88.7 0 -197.1 74.8 -210.6 182.2 -2.9 23 13.5 42.2 30.3 34.9 44.3 -18.9 110 -29.6 180.3 -29.6s135.9 10.7 180.2 29.6c16.7 7.3 33.3 -11.7 30.3 -34.9C681.4 606.1 573 531.3 484.4 531.3z"/></svg>