<svg height="1000" width="968.8" xmlns="http://www.w3.org/2000/svg"><path d="M484.4 15.6C752 15.6 968.8 232.4 968.8 500S752 984.4 484.4 984.4 0 767.6 0 500 216.8 15.6 484.4 15.6zm0 875C699.8 890.6 875 715.4 875 500S699.8 109.4 484.4 109.4 93.8 284.6 93.8 500s175.1 390.6 390.6 390.6zM736.5 297.3c7.4 8.6 7.6 21.5 .2 30.2l-65.6 78.7 65.6 78.8c7.4 8.7 7.2 21.4 -.2 30.2 -6.8 8 -19.3 11.2 -29.9 4.9L550.4 426.4c-7 -4.3 -11.3 -11.9 -11.3 -20.2s4.3 -15.8 11.3 -20.1l156.2 -93.7c9.8 -5.7 22.5 -3.7 29.9 4.9zm-306.8 109c0 8.2 -4.3 15.8 -11.3 20.1l-156.3 93.7c-10.5 6.3 -23 3.1 -29.9 -4.9 -7.4 -8.8 -7.6 -21.5 -.2 -30.2l65.7 -78.7L232 327.5c-7.4 -8.7 -7.2 -21.4 .2 -30.2 7.4 -8.6 20.1 -10.8 29.9 -4.9l156.3 93.7c7 4.3 11.3 11.9 11.3 20.2zm54.7 125c88.6 0 197 74.8 210.5 182.2 3 23.2 -13.6 42.2 -30.3 34.9C620.3 729.5 554.7 718.8 484.4 718.8s-136 10.7 -180.3 29.6c-16.8 7.3 -33.2 -11.9 -30.3 -34.9C287.3 606.1 395.7 531.3 484.4 531.3z"/></svg>