<svg height="512" width="640" xmlns="http://www.w3.org/2000/svg"><path d="M64 192v172.1c0 41.2-9.7 62.8-31.1 126.9A16 16 0 0 0 48 512h280.9a31.9 31.9 0 0 0 30.3-21.9c9.4-27.8 18-53.3 22.2-85.5L65.4 160.3C64.5 170.7 64 181.2 64 192m569.8 266.1-102-78.8C575.3 360.9 608 284.3 608 192 608 86 565 0 512 0s-96 86-96 192c0 42 7 80.4 18.4 112L384 265v-73C384 108.4 407.6 38.5 444.5 0H160C136.7 0 115.4 16.8 98.7 44.5L45.5 3.4A16 16 0 0 0 23 6.2L3.4 31.4a16 16 0 0 0 2.8 22.5l588.3 454.7a16 16 0 0 0 22.5-2.8l19.6-25.2a16 16 0 0 0-2.8-22.5M512 256c-17.6 0-32-28.6-32-64s14.4-64 32-64 32 28.6 32 64-14.4 64-32 64"/></svg>