<svg height="512" width="576" xmlns="http://www.w3.org/2000/svg"><path d="M128 0C75 0 32 86 32 192v172.1c0 41.1-9.8 62.7-31.2 126.8C-2.6 501.3 5.1 512 16 512h280.9c13.8 0 26-8.8 30.4-21.9 12.8-38.5 24.7-72.4 24.7-126V192C352 108.4 375.7 38.5 412.4 0zM96 224c-8.8 0-16-7.2-16-16s7.2-16 16-16 16 7.2 16 16-7.2 16-16 16m64 0c-8.8 0-16-7.2-16-16s7.2-16 16-16 16 7.2 16 16-7.2 16-16 16m64 0c-8.8 0-16-7.2-16-16s7.2-16 16-16 16 7.2 16 16-7.2 16-16 16m64 0c-8.8 0-16-7.2-16-16s7.2-16 16-16 16 7.2 16 16-7.2 16-16 16M480 0c-53 0-96 86-96 192s43 192 96 192 96-86 96-192S533 0 480 0m0 256c-17.7 0-32-28.7-32-64s14.3-64 32-64 32 28.7 32 64-14.3 64-32 64"/></svg>