<svg height="512" width="384" xmlns="http://www.w3.org/2000/svg"><path d="M368 48c8.8 0 16-7.2 16-16V16C384 7.2 376.8 0 368 0H16C7.2 0 0 7.2 0 16v16c0 8.8 7.2 16 16 16h16v156.7C11.8 214.8 0 226.9 0 240c0 67.2 34.6 126.2 86.8 160.5l-21.4 70.2C59.1 491.2 74.5 512 96 512h192c21.5 0 36.9-20.8 30.6-41.3l-21.4-70.2C349.4 366.2 384 307.2 384 240c0-13.1-11.8-25.2-32-35.3V48zM80 72c0-4.4 3.6-8 8-8h48c4.4 0 8 3.6 8 8v16c0 4.4-3.6 8-8 8H88c-4.4 0-8-3.6-8-8zm112 200C114.9 272 52.4 257.7 52.4 240S114.9 208 192 208s139.6 14.3 139.6 32S269.1 272 192 272"/></svg>