<svg height="512" width="512" xmlns="http://www.w3.org/2000/svg"><path d="m502.6 214.6-45.2-45.2c-6-6-14.2-9.4-22.6-9.4H384V80C384 53.5 362.5 32 336 32H176c-26.5 0-48 21.5-48 48v80H77.3c-8.5 0-16.7 3.4-22.7 9.4L9.4 214.6c-6 6-9.4 14.2-9.4 22.7V320h128v-16c0-8.8 7.2-16 16-16h32c8.8 0 16 7.2 16 16v16h128v-16c0-8.8 7.2-16 16-16h32c8.8 0 16 7.2 16 16v16h128v-82.7c0-8.5-3.4-16.7-9.4-22.7M320 160H192V96h128zm64 208c0 8.8-7.2 16-16 16h-32c-8.8 0-16-7.2-16-16v-16H192v16c0 8.8-7.2 16-16 16h-32c-8.8 0-16-7.2-16-16v-16H0v96c0 17.7 14.3 32 32 32h448c17.7 0 32-14.3 32-32v-96H384z"/></svg>