<svg height="512" width="448" xmlns="http://www.w3.org/2000/svg"><path d="M444 96.3C433 51 396.9 14.2 352 2.5c-32.2-8.3-63 5.1-89.2 24.4-3.2 2.4-6.9 3.7-10.5 5.4l28.4 18.3c7.4 4.7 9.5 14.6 4.8 22.1-4.5 6.9-14.3 9.8-22.2 4.8L162.8 12.8C142.1 2 119.5-3.6 96 2.5 51.1 14.2 15 51 4 96.3c-10.1 41.6-.4 80.8 21.5 110.4 23.4 31.6 32.7 68.6 36.3 107.3 4.4 47.2 10.3 94.2 20.9 140.3l7.8 34c3.2 13.9 15.5 23.7 29.7 23.7 14 0 26.2-9.6 29.6-23.2l34.4-138.4c4.6-18.3 21-31.1 39.8-31.1s35.2 12.8 39.7 31.1l34.5 138.4c3.4 13.6 15.6 23.2 29.6 23.2 14.1 0 26.4-9.8 29.6-23.7l7.8-34c10.6-46.1 16.6-93.1 21-140.3 3.6-38.7 12.9-75.8 36.3-107.3C444.4 177.1 454.1 137.9 444 96.2z"/></svg>