<svg height="512" width="640" xmlns="http://www.w3.org/2000/svg"><path d="m320.1 366.5 17.7-29.7h-35.5zm99.2-166h-36.9l18.5 30.8zM48 0C21.5 0 0 14.3 0 32v448c0 17.7 21.5 32 48 32s48-14.3 48-32V32C96 14.3 74.5 0 48 0m172.7 311.5h36.9l-18.5-30.8zm161.8 0h36.8l-18.4-30.8zM128 464h384V48H128zm66.8-278.1a21.2 21.2 0 0 1 18.4-10.7h59.5l29.1-48.8A21.1 21.1 0 0 1 320 116.1a20.8 20.8 0 0 1 18 10.2l29.3 48.9h59.5a21.1 21.1 0 0 1 18.1 32L415.6 256l29.4 49a20.7 20.7 0 0 1 .2 21.1 21.3 21.3 0 0 1-18.4 10.7h-59.5l-29.1 48.7A21.1 21.1 0 0 1 320 395.9a20.8 20.8 0 0 1-18-10.2l-29.3-48.9h-59.5a21.1 21.1 0 0 1-18.1-32L224.4 256 195 207a20.7 20.7 0 0 1-.2-21.1M592 0c-26.5 0-48 14.3-48 32v448c0 17.7 21.5 32 48 32s48-14.3 48-32V32C640 14.3 618.5 0 592 0M320 145.5l-17.8 29.7h35.5zm-62.4 55h-36.9l18.5 30.8zm29.5 111h65.8L386.1 256l-33.2-55.5h-65.8L253.9 256z"/></svg>