<svg height="512" width="640" xmlns="http://www.w3.org/2000/svg"><path d="M528 336c-48.6 0-88 39.4-88 88s39.4 88 88 88 88-39.4 88-88-39.4-88-88-88m0 112c-13.2 0-24-10.8-24-24s10.8-24 24-24 24 10.8 24 24-10.8 24-24 24m80-288h-64v-40.2C544 105.7 548.7 92 557.1 81c4.5-5.8 3.6-14.1-1.3-19.5L534.2 37.3c-6.7-7.5-18.3-6.9-24.7.8C490.6 60.9 480 89.8 480 119.8V160H377.7L321.6 29.1A47.9 47.9 0 0 0 277.4 0H144C117.5 0 96 21.5 96 48v146.5c-8.6-6.7-21-6.4-28.9 1.5L36 227.1c-8.6 8.6-8.6 22.5 0 31.1l5.1 5.1c-5 9.2-9 18.8-11.9 28.7H22C9.8 292 0 301.8 0 314v44c0 12.1 9.8 22 22 22h7.1c3 9.9 7 19.4 11.9 28.7l-5 5.1c-8.6 8.6-8.6 22.5 0 31.1L67.1 476c8.6 8.6 22.5 8.6 31.1 0l5.1-5.1c9.2 5 18.8 9 28.7 12v7.1c0 12.1 9.8 22 22 22h44c12.1 0 22-9.9 22-22v-7.1c9.9-3 19.5-7 28.7-12l5.1 5.1c8.6 8.6 22.5 8.6 31.1 0L316 444.9c8.6-8.6 8.6-22.5 0-31.1l-5.1-5.1c5-9.2 9-18.8 11.9-28.7h7.2c12.1 0 22-9.8 22-22v-6h80.5c22-29 56.4-48 95.5-48 18.6 0 36.1 4.6 51.8 12.2l50.8-50.8c6-6 9.4-14.1 9.4-22.6V192c0-17.7-14.3-32-32-32M176 416c-44.2 0-80-35.8-80-80s35.8-80 80-80 80 35.8 80 80-35.8 80-80 80m22-256h-38V64h106.9l41.1 96z"/></svg>