<svg height="512" width="496" xmlns="http://www.w3.org/2000/svg"><path d="M248 8.8C111 8.8 0 119.8 0 256.8s111 248 248 248 248-111 248-248S385 8.8 248 8.8m0 482.8C118.3 491.6 13.2 386.5 13.2 256.8S118.3 22 248 22s234.8 105.1 234.8 234.8S377.7 491.6 248 491.6M403.1 163.1v-46.8H209.3V198H54.2l36.7 46h117.7v196.8h48.8V245h83.3v-47h-83.3v-34.8h145.7zm-73.3 45.1v23.9h-82.9v197.4h-26.8V232.1H96.3L76.2 208.2h143.9v-80.6h171.8V152h-145v56.2zm-161.3-69-12.4-20.7 2.1 23.8-23.5 5.4 23.3 5.4-2.1 24 12.3-20.5 22.2 9.5L174.7 148l15.8-18.1zm-29.6-19.7 9.3-11.5-12.7 5.9-8-12.4 1.7 13.9-14.3 3.8 13.7 2.7-.8 14.7 6.8-12.2 13.8 5.3zm165.4 145.2-13.1 5.6-7.3-12.2 1.3 14.2-13.9 3.2 13.9 3.2-1.2 14.2 7.3-12.2 13.1 5.5L295 275.5zm106.9-77.2-20.9 9.1-12-19.6 2.2 22.7-22.3 5.4 22.2 4.9-1.8 22.9 11.5-19.6 21.2 8.8-15.1-17zM248 29.9C122.7 29.9 21.1 131.5 21.1 256.8S122.7 483.7 248 483.7 474.9 382.1 474.9 256.8 373.3 29.9 248 29.9M342.6 196v51h-83.3v195.7h-52.7V245.9H89.9L49.9 196h157.4v-81.6h197.8v50.7H259.4V196zM248 43.2c60.3 0 114.8 25 153.6 65.2H202.5V190H45.1C73.1 104.8 153.4 43.2 248 43.2m0 427.1C130.1 470.3 34.4 374.7 34.4 256.8c0-21.2 3.1-41.8 8.9-61.1L87.1 252h114.7v196.8h64.6V253h83.3v-62.7h-83.2v-19.2h145.6v-50.8c30.8 37 49.3 84.6 49.3 136.5.1 117.9-95.5 213.5-213.4 213.5M178.8 275l-11-21.4 1.7 24.5-23.7 3.9 23.8 5.9-3.7 23.8 13-20.9 21.5 10.8-15.8-18.8 16.9-17.1z"/></svg>