<svg height="512" width="384" xmlns="http://www.w3.org/2000/svg"><path d="M384 192h-64v-37.9c37.2-13.2 64-48.4 64-90.1h-64V32C320 14.3 305.7 0 288 0H96C78.3 0 64 14.3 64 32v32H0c0 41.7 26.8 76.9 64 90.1V192H0c0 41.7 26.8 76.9 64 90.1V320H0c0 42.8 28.3 78.7 67 91.1C79.4 468.7 130.6 512 192 512S304.6 468.7 317 411.1c38.8-12.4 67-48.3 67-91.1h-64v-37.9c37.2-13.2 64-48.4 64-90.1M192 416c-26.5 0-48-21.5-48-48s21.5-48 48-48 48 21.5 48 48-21.5 48-48 48m0-128c-26.5 0-48-21.5-48-48s21.5-48 48-48 48 21.5 48 48-21.5 48-48 48m0-128c-26.5 0-48-21.5-48-48s21.5-48 48-48 48 21.5 48 48-21.5 48-48 48"/></svg>