<svg height="512" width="640" xmlns="http://www.w3.org/2000/svg"><path d="M624 320h-80V80A16 16 0 0 0 528 64H16A16 16 0 0 0 0 80v288a16 16 0 0 0 16 16h49.6c7.8-54.2 54-96 110.4-96s102.6 41.8 110.4 96H624a16 16 0 0 0 16-16v-32a16 16 0 0 0-16-16M96 243.7a176.3 176.3 0 0 0-32 20.7V136a8 8 0 0 1 8-8h16a8 8 0 0 1 8 8zm96-18.6c-5.3-.4-10.6-1.1-16-1.1s-10.7.7-16 1.1V136a8 8 0 0 1 8-8h16a8 8 0 0 1 8 8zm96 39.3a176.3 176.3 0 0 0-32-20.7V136a8 8 0 0 1 8-8h16a8 8 0 0 1 8 8zm96 55.6h-32V136a8 8 0 0 1 8-8h16a8 8 0 0 1 8 8zm96 0h-32V136a8 8 0 0 1 8-8h16a8 8 0 0 1 8 8zm-304 0a80 80 0 1 0 80 80 80 80 0 0 0-80-80m0 112a32 32 0 1 1 32-32 32 32 0 0 1-32 32"/></svg>