<svg height="512" width="480" xmlns="http://www.w3.org/2000/svg"><path d="M468 0h-79c-10.7 0-16 12.9-8.5 20.5l16.9 16.9-80.7 80.7C294.5 104.1 268.2 96 240 96s-54.5 8.1-76.7 22.1l-16.5-16.5 19.8-19.8a12.01 12.01 0 0 0 0-17L138.3 36.5a12.01 12.01 0 0 0-17 0l-19.8 19.8-19-19L99.4 20.4C107.1 12.9 101.7 0 91 0H12C5.4 0 0 5.4 0 12v79c0 10.7 12.9 16 20.5 8.5L37.4 82.6l19 19-19.8 19.8a12.01 12.01 0 0 0 0 17l28.3 28.3c4.7 4.7 12.3 4.7 17 0l19.8-19.8 16.5 16.5C104.1 185.5 96 211.8 96 240c0 68.5 47.9 125.9 112 140.4V408h-36c-6.6 0-12 5.4-12 12v40c0 6.6 5.4 12 12 12h36v28c0 6.6 5.4 12 12 12h40c6.6 0 12-5.4 12-12v-28h36c6.6 0 12-5.4 12-12v-40c0-6.6-5.4-12-12-12h-36v-27.6C336.1 365.8 384 308.5 384 240c0-28.2-8.1-54.5-22.1-76.7l80.7-80.7 16.9 16.9c7.6 7.6 20.5 2.2 20.5-8.5V12C480 5.4 474.6 0 468 0M240 320c-44.1 0-80-35.9-80-80s35.9-80 80-80 80 35.9 80 80-35.9 80-80 80"/></svg>