<svg height="1000" width="875" xmlns="http://www.w3.org/2000/svg"><path d="M375 367.2v421.9c0 12.9 -10.5 23.4 -23.4 23.4h-46.9c-13 0 -23.4 -10.5 -23.4 -23.4V367.2c0 -13 10.4 -23.4 23.4 -23.4h46.9c12.9 0 23.4 10.4 23.4 23.4zm195.3 -23.4h-46.9c-12.9 0 -23.4 10.4 -23.4 23.4v421.9c0 12.9 10.5 23.4 23.4 23.4h46.9c13 0 23.5 -10.5 23.5 -23.4V367.2c0 -13 -10.5 -23.4 -23.5 -23.4zM828.1 156.3c25.9 0 46.9 20.9 46.9 46.8v23.5c0 12.9 -10.5 23.4 -23.4 23.4h-39.1v656.3c0 51.7 -42 93.7 -93.7 93.7H156.3c-51.8 0 -93.8 -42 -93.8 -93.7V250H23.4C10.5 250 0 239.5 0 226.6v-23.5c0 -25.9 21 -46.8 46.9 -46.8h145.3L258.7 45.5A93.8 -93.8 0 0 0 339 0h197a93.8 -93.8 0 0 0 80.4 45.5l66.4 110.8h145.3zm-526.6 0h272L539.4 99.4a11.7 -11.7 0 0 1 -10.1 -5.6H345.7a11.7 -11.7 0 0 1 -10.1 5.6l-34.1 56.9zM718.8 250H156.3v644.5a11.7 -11.7 0 0 1 11.7 11.8h539a11.7 -11.7 0 0 1 11.8 -11.8V250z"/></svg>