<svg height="1000" width="875" xmlns="http://www.w3.org/2000/svg"><path d="M523.4 812.5C510.5 812.5 500 802 500 789.1V367.2c0 -12.9 10.5 -23.4 23.4 -23.4h46.9c12.9 0 23.5 10.5 23.5 23.4v421.9c0 12.9 -10.6 23.4 -23.5 23.4h-46.9zM843.8 156.3c17.2 0 31.2 14 31.2 31.2v31.3C875 236 861 250 843.8 250h-31.3v656.3c0 51.7 -42 93.7 -93.7 93.7H156.3c-51.8 0 -93.8 -42 -93.8 -93.7V250H31.3C14 250 0 236 0 218.8v-31.3c0 -17.2 14 -31.2 31.3 -31.2h160.9L258.7 45.5C275 18.2 304.9 0 339 0h197s-.1 -.1 -.1 -.1c34.2 0 64.1 18.3 80.5 45.6l66.4 110.8h160.9zM335.6 99.4l-34.1 56.8h272L539.4 99.4c-2.1 -3.4 -5.8 -5.7 -10.1 -5.7H345.7c-4.3 0 -8 2.3 -10.1 5.7zm383.2 806.9V250H156.3v656.3h562.5zM304.7 812.5c-12.9 0 -23.4 -10.5 -23.4 -23.4V367.2c0 -12.9 10.5 -23.4 23.4 -23.4h46.9c12.9 0 23.4 10.5 23.4 23.4v421.9c0 12.9 -10.5 23.4 -23.4 23.4h-46.9z"/></svg>