<svg height="512" width="384" xmlns="http://www.w3.org/2000/svg"><path d="M378.3 378.5 298.4 288h30.7c9 0 16.9-5 20.7-13.1 3.8-8 2.6-17.2-3.2-24L268.4 160h28.9c9.1 0 17.3-5.3 20.9-13.6 3.5-8.1 1.8-17.6-4.3-24.1L203.7 4.8c-6.1-6.4-17.3-6.4-23.4 0L70.1 122.3c-6.1 6.5-7.8 16-4.3 24.1 3.6 8.3 11.8 13.6 20.9 13.6h28.9l-78.2 90.9c-5.8 6.8-7 16-3.2 24C38 283 45.9 288 55 288h30.6L5.7 378.5c-6 6.8-7.4 16.1-3.6 24.3 3.8 8 12 13.2 21 13.2H160v24.4l-30.3 48.4c-5.3 10.7 2.4 23.2 14.3 23.2h96c11.9 0 19.6-12.5 14.3-23.2L224 440.4V416h136.9c9 0 17.2-5.2 21-13.2 3.8-8.2 2.4-17.5-3.6-24.3"/></svg>