<svg height="512" width="640" xmlns="http://www.w3.org/2000/svg"><path d="M624 288h-16v-64c0-17.7-14.3-32-32-32h-48L419.2 56a64 64 0 0 0-50-24H256c-17.7 0-32 14.3-32 32v128H64c-17.7 0-32 14.3-32 32v64H16c-8.8 0-16 7.2-16 16v32c0 8.8 7.2 16 16 16h49.6c-.8 5.3-1.6 10.5-1.6 16 0 61.9 50.1 112 112 112S288 429.9 288 368c0-5.5-.9-10.7-1.6-16h67.2c-.7 5.3-1.6 10.5-1.6 16 0 61.9 50.1 112 112 112S576 429.9 576 368c0-5.5-.8-10.7-1.6-16H624c8.8 0 16-7.2 16-16v-32c0-8.8-7.2-16-16-16M288 96h81.2l76.8 96H288zM176 416c-26.5 0-48-21.5-48-48s21.5-48 48-48 48 21.5 48 48-21.5 48-48 48m288 0c-26.5 0-48-21.5-48-48s21.5-48 48-48 48 21.5 48 48-21.5 48-48 48"/></svg>