<svg height="512" width="640" xmlns="http://www.w3.org/2000/svg"><path d="M624 224h-16v-64c0-17.7-14.3-32-32-32h-73.6L419.2 24a64 64 0 0 0-50-24H256c-17.7 0-32 14.3-32 32v96H48c-8.8 0-16 7.2-16 16v80H16c-8.8 0-16 7.2-16 16v32c0 8.8 7.2 16 16 16h16.7C61.9 249.3 107.8 224 160 224s98.1 25.3 127.3 64h65.4c29.2-38.7 75.1-64 127.3-64s98.1 25.3 127.3 64H624c8.8 0 16-7.2 16-16v-32c0-8.8-7.2-16-16-16M288 128V64h81.2l51.2 64zm304 224h-5.2c-2.2-7.3-5.1-14.3-8.7-20.9l3.7-3.7c6.3-6.2 6.3-16.3 0-22.6l-22.6-22.6c-6.3-6.3-16.4-6.3-22.6 0l-3.7 3.7A110.8 110.8 0 0 0 512 277.2V272c0-8.8-7.2-16-16-16h-32c-8.8 0-16 7.2-16 16v5.2c-7.3 2.2-14.3 5.1-20.9 8.6l-3.7-3.6c-6.2-6.3-16.3-6.3-22.6 0l-22.6 22.6c-6.3 6.3-6.3 16.4 0 22.6l3.7 3.7a110.8 110.8 0 0 0-8.7 20.9H368c-8.8 0-16 7.2-16 16v32c0 8.8 7.2 16 16 16h5.2c2.2 7.3 5.1 14.3 8.6 20.9l-3.6 3.7c-6.3 6.2-6.3 16.3 0 22.6l22.6 22.6c6.3 6.3 16.4 6.3 22.6 0l3.7-3.7c6.6 3.6 13.6 6.5 20.9 8.7v5.2c0 8.8 7.2 16 16 16h32c8.8 0 16-7.2 16-16v-5.2c7.3-2.2 14.3-5.1 20.9-8.7l3.7 3.7c6.2 6.3 16.4 6.3 22.6 0l22.6-22.6c6.3-6.3 6.3-16.4 0-22.6l-3.6-3.7a110.8 110.8 0 0 0 8.6-20.9h5.2c8.9 0 16-7.2 16-16v-32c0-8.8-7.2-16-16-16m-112 80c-26.5 0-48-21.5-48-48s21.5-48 48-48 48 21.5 48 48-21.5 48-48 48M272 352h-5.2c-2.2-7.3-5.1-14.3-8.6-20.9l3.6-3.7c6.3-6.2 6.3-16.3 0-22.6l-22.6-22.6c-6.3-6.3-16.4-6.3-22.6 0l-3.7 3.7A110.8 110.8 0 0 0 192 277.2V272c0-8.8-7.2-16-16-16h-32c-8.8 0-16 7.2-16 16v5.2c-7.3 2.2-14.3 5.1-20.9 8.6l-3.7-3.6c-6.2-6.3-16.3-6.3-22.6 0l-22.6 22.6c-6.3 6.3-6.3 16.4 0 22.6l3.7 3.7A110.8 110.8 0 0 0 53.2 352H48c-8.8 0-16 7.2-16 16v32c0 8.8 7.2 16 16 16h5.2c2.2 7.3 5.1 14.3 8.7 20.9l-3.7 3.7c-6.3 6.2-6.3 16.3 0 22.6l22.6 22.6c6.3 6.3 16.4 6.3 22.6 0l3.7-3.7c6.6 3.6 13.6 6.5 20.9 8.7v5.2c0 8.8 7.2 16 16 16h32c8.8 0 16-7.2 16-16v-5.2c7.3-2.2 14.3-5.1 20.9-8.7l3.7 3.7c6.2 6.3 16.4 6.3 22.6 0l22.6-22.6c6.3-6.3 6.3-16.4 0-22.6l-3.6-3.7a110.8 110.8 0 0 0 8.6-20.9h5.2c8.9 0 16-7.2 16-16v-32c0-8.8-7.2-16-16-16m-112 80c-26.5 0-48-21.5-48-48s21.5-48 48-48 48 21.5 48 48-21.5 48-48 48"/></svg>