<svg height="512" width="512" xmlns="http://www.w3.org/2000/svg"><path d="M5.4 103.8c138.5-138.5 362.9-138.3 501.2 0 6.1 6.1 7.1 15.5 2.6 22.7L466 195.6a18.3 18.3 0 0 1-22.4 7.3l-86.4-34.5a18.3 18.3 0 0 1-11.4-18.9L351.7 90C289.6 67.5 221.1 68 160.3 90l5.9 59.5a18.3 18.3 0 0 1-11.4 18.9l-86.4 34.5A18.3 18.3 0 0 1 46 195.6L2.8 126.5a18.3 18.3 0 0 1 2.6-22.7M96 308v-40c0-6.6-5.4-12-12-12H44c-6.6 0-12 5.4-12 12v40c0 6.6 5.4 12 12 12h40c6.6 0 12-5.4 12-12m96 0v-40c0-6.6-5.4-12-12-12h-40c-6.6 0-12 5.4-12 12v40c0 6.6 5.4 12 12 12h40c6.6 0 12-5.4 12-12m96 0v-40c0-6.6-5.4-12-12-12h-40c-6.6 0-12 5.4-12 12v40c0 6.6 5.4 12 12 12h40c6.6 0 12-5.4 12-12m96 0v-40c0-6.6-5.4-12-12-12h-40c-6.6 0-12 5.4-12 12v40c0 6.6 5.4 12 12 12h40c6.6 0 12-5.4 12-12m96 0v-40c0-6.6-5.4-12-12-12h-40c-6.6 0-12 5.4-12 12v40c0 6.6 5.4 12 12 12h40c6.6 0 12-5.4 12-12m-336 96v-40c0-6.6-5.4-12-12-12H92c-6.6 0-12 5.4-12 12v40c0 6.6 5.4 12 12 12h40c6.6 0 12-5.4 12-12m96 0v-40c0-6.6-5.4-12-12-12h-40c-6.6 0-12 5.4-12 12v40c0 6.6 5.4 12 12 12h40c6.6 0 12-5.4 12-12m96 0v-40c0-6.6-5.4-12-12-12h-40c-6.6 0-12 5.4-12 12v40c0 6.6 5.4 12 12 12h40c6.6 0 12-5.4 12-12m96 0v-40c0-6.6-5.4-12-12-12h-40c-6.6 0-12 5.4-12 12v40c0 6.6 5.4 12 12 12h40c6.6 0 12-5.4 12-12M96 500v-40c0-6.6-5.4-12-12-12H44c-6.6 0-12 5.4-12 12v40c0 6.6 5.4 12 12 12h40c6.6 0 12-5.4 12-12m288 0v-40c0-6.6-5.4-12-12-12H140c-6.6 0-12 5.4-12 12v40c0 6.6 5.4 12 12 12h232c6.6 0 12-5.4 12-12m96 0v-40c0-6.6-5.4-12-12-12h-40c-6.6 0-12 5.4-12 12v40c0 6.6 5.4 12 12 12h40c6.6 0 12-5.4 12-12"/></svg>