<svg height="512" width="512" xmlns="http://www.w3.org/2000/svg"><path d="M459.4 151.7c.3 4.6.3 9.1.3 13.7 0 138.7-105.6 298.5-298.6 298.5C101.7 463.9 46.5 446.7 0 416.8c8.4 1 16.6 1.3 25.3 1.3 49.1 0 94.3-16.6 130.3-44.8-46.1-1-84.8-31.2-98.1-72.8 6.5 1 13 1.6 19.8 1.6 9.4 0 18.9-1.3 27.6-3.5-48-9.8-84.1-52-84.1-103v-1.3c14 7.8 30.2 12.6 47.4 13.3C40 188.8 21.4 156.6 21.4 120.2c0-19.5 5.2-37.4 14.3-53C87.4 130.9 165 172.5 252.1 177.1c-1.6-7.8-2.6-16-2.6-24.1 0-57.8 46.8-104.9 104.9-104.9 30.2 0 57.5 12.7 76.7 33.1 23.7-4.5 46.5-13.3 66.6-25.3-7.8 24.3-24.4 44.8-46.1 57.8 21.1-2.3 41.6-8.1 60.4-16.2-14.3 20.8-32.2 39.3-52.6 54.2"/></svg>