<svg height="512" width="576" xmlns="http://www.w3.org/2000/svg"><path d="M575.7 280.8C547.1 144.5 437.3 62.6 320 49.9V32C320 14.3 305.7 0 288 0s-32 14.3-32 32v17.9C138.3 62.6 29.5 144.5.3 280.8c-2.2 10.1 8.5 21.3 18.7 11.4 52-55 107.7-52.4 158.6 37 5.3 9.5 14.9 8.6 19.7 0C217.5 293.8 242.2 256 288 256c58.5 0 88.2 68.8 90.7 73.2 4.8 8.6 14.4 9.5 19.7 0 51-89.5 107.1-91.4 158.6-37 10.3 10 20.9-1.3 18.7-11.4M256 301.7V432c0 8.8-7.2 16-16 16-7.8 0-13.2-5.3-15.1-10.7C219 420.6 200.8 411.9 184.1 417.8s-25.4 24.2-19.5 40.8c11.2 31.9 41.6 53.3 75.4 53.3 44.1 0 80-35.9 80-80V301.6C310.9 293.7 300.2 288 288 288c-12.3.1-22.4 4.8-32 13.7"/></svg>