<svg height="512" width="640" xmlns="http://www.w3.org/2000/svg"><path d="m115.4 136.9 102.1 37.2C252.7 92.5 303.7 29.8 356.5.4 260.6-4.5 167.7 37.3 108 112.2c-6.7 8.4-2.7 21 7.4 24.7m132.2 48.2 238.5 86.8C521.9 150.5 504.8 40.2 443.5 17.9c-7.4-2.7-15.1-4-23.1-4-58 0-128.3 69.2-172.8 171.2M521.5 60.5c6.2 16.3 10.8 34.6 13.2 55.2 5.7 49.9-1.4 108.2-19 167L618.4 320c10 3.7 21.3-3.4 21.5-14.1C642.2 210.2 598 118.4 521.5 60.5M560 448H321.1L386 269.5l-60.1-21.9L253 448H16c-8.8 0-16 7.1-16 16v32c0 8.8 7.2 16 16 16h544c8.8 0 16-7.2 16-16v-32c0-8.9-7.2-16-16-16"/></svg>