<svg height="512" width="510" xmlns="http://www.w3.org/2000/svg"><path d="M255.3 8C118.4 7.8 7.1 118.7 7 255.7S118 503.9 255 504c136.9 0 247.8-110.7 248-247.7S392.3 8.2 255.3 8m145.1 266q-1.2 40.7-14 65t-43.6 35q-30.6 10.7-85.4 10.5h-4.6Q198 384.7 167.4 374t-43.6-35q-12.8-24.4-14-65a225 225 0 0 1 0-30.7 418 418 0 0 1 3.6-43.9c1.9-13.4 3.6-22.6 5.4-32 1-4.9 1.3-6.4 1.9-8.4a5.1 5.1 0 0 1 4.9-3.9h.6l32 5a5.1 5.1 0 0 1 4.2 5 5 5 0 0 1 0 .7l-1.7 8.8q-2.4 13.3-4.8 33.7a381 381 0 0 0-2.7 42.2q-.3 40.4 8.2 59.8a43.9 43.9 0 0 0 31.3 25.2 243 243 0 0 0 57.3 5.1h10.3a242.6 242.6 0 0 0 57.2-5.2 43.9 43.9 0 0 0 31.2-25.2q8.5-19.4 8.1-59.8a388 388 0 0 0-2.6-42.1q-2.5-20.4-4.9-33.7l-1.7-8.8a5 5 0 0 1 0-.8 5 5 0 0 1 4.2-5l32-5h.8a5 5 0 0 1 4.9 3.9c.6 2.1.8 3.6 1.9 8.5 1.8 9.6 3.5 18.8 5.4 32a416 416 0 0 1 3.6 43.9 228 228 0 0 1-.1 30.7z"/></svg>