<svg height="512" width="448" xmlns="http://www.w3.org/2000/svg"><path d="M171.7 232.8a5.4 5.4 0 0 0 5-3.3 48.1 48.1 0 0 1 14.9-25.3c1.2-.8 1.7-2.4 1.7-4.1a4.2 4.2 0 0 0-2.1-3.3L74.4 128.5 149 85a9.9 9.9 0 0 0 4.9-8.3A9.1 9.1 0 0 0 149 68.4L126.6 55.6a9.7 9.7 0 0 0-9.5 0l-100.2 58a9.9 9.9 0 0 0-5 8.2V237a9.1 9.1 0 0 0 5 8.2l22.3 12.9a8.8 8.8 0 0 0 5 1.2 9.4 9.4 0 0 0 6.6-2.5 10.8 10.8 0 0 0 2.9-7v-85.3l116 67.9a4.5 4.5 0 0 0 2 .4m151.6 144.9a12.5 12.5 0 0 0-5 1.3l-74.5 43V287.9c0-2.9-2.9-5.8-6.2-4.6a53 53 0 0 1-29 .4 4.9 4.9 0 0 0-6.2 4.6v133.3l-74.6-43a8.8 8.8 0 0 0-4.9-1.3 9.6 9.6 0 0 0-9.6 9.5v26.1a9.1 9.1 0 0 0 5 8.3l100.2 57.6a8.8 8.8 0 0 0 5 1.2 11 11 0 0 0 5-1.2l100.2-57.6a9.9 9.9 0 0 0 4.9-8.3v-26.1c-.8-4.5-5.4-9.1-10.3-9.1M286 78A23 23 0 1 0 263 55a23 23 0 0 0 23 23m63.6-10.1a23 23 0 1 0 23 23 23 23 0 0 0-23-23m63.2 83.7a23 23 0 1 0-23-23 23 23 0 0 0 23 23m-63.2-9.2a23 23 0 1 0 23 23 23 23 0 0 0-23-23M286 225.6a23 23 0 1 0-23-23 23 23 0 0 0 23 23M223.9 262a23 23 0 1 0-23-23 23 23 0 0 0 23 23m188.9-82.4a23 23 0 1 0 23 23 23 23 0 0 0-23-23m0 72.3a23 23 0 1 0 23 23 23 23 0 0 0-23-23"/></svg>