<svg height="512" width="512" xmlns="http://www.w3.org/2000/svg"><path d="M256 48c115 0 208 93 208 208S371 464 256 464 48 371 48 256 141 48 256 48m0-40C119 8 8 119 8 256s111 248 248 248S504 393 504 256 393 8 256 8m0 56C150 64 64 150 64 256s86 192 192 192S448 362 448 256 362 64 256 64m0 44c19.9 0 36 16.1 36 36s-16.1 36-36 36-36-16.1-36-36 16.1-36 36-36m117.7 98c-28.7 6.8-55.5 12.8-82.1 15.8.9 101.1 12.3 123.1 25 155.7 3.7 9.2-.9 19.6-10.2 23.3-9.2 3.6-19.7-1-23.3-10.3C274.4 368.2 266 349.9 260.8 312h-9.6c-5.2 37.9-13.6 56.2-22.3 78.5-3.6 9.3-14.1 13.9-23.3 10.3-9.3-3.7-13.9-14.1-10.2-23.3 12.7-32.6 24.1-54.6 25-155.7-26.6-3-53.4-9-82.1-15.8-8.6-2-14-10.6-11.9-19.2s10.6-14 19.2-11.9c96.7 22.8 124.3 22.8 220.8 0 8.6-2.1 17.2 3.3 19.2 11.9 2.1 8.6-3.3 17.2-11.9 19.2"/></svg>