<svg height="512" width="512" xmlns="http://www.w3.org/2000/svg"><path d="M304.1 405.9c4.7 4.7 4.7 12.3 0 17l-44.7 44.7c-59.3 59.2-155.7 59.2-215 0-59.2-59.3-59.2-155.7 0-215l44.7-44.7a12.01 12.01 0 0 1 17 0l39.6 39.6c4.7 4.7 4.7 12.3 0 17L101 309.2c-28.1 28-28.1 73.7 0 101.8s73.8 28.1 101.8 0l44.7-44.7a12.01 12.01 0 0 1 17 0zM247.5 145.7c4.7 4.7 12.3 4.7 17 0L309.2 101c28-28.1 73.7-28.1 101.8 0s28.1 73.8 0 101.8l-44.7 44.7a12.01 12.01 0 0 0 0 17l39.6 39.6c4.7 4.7 12.3 4.7 17 0l44.7-44.7c59.2-59.3 59.2-155.7 0-215-59.3-59.2-155.7-59.2-215 0l-44.7 44.7a12.01 12.01 0 0 0 0 17zM482.3 505 505 482.3c9.3-9.3 9.3-24.5 0-33.9L63.6 7C54.2-2.3 39-2.3 29.7 7L7 29.7C-2.3 39-2.3 54.2 7 63.6L448.4 505c9.4 9.3 24.6 9.3 33.9 0"/></svg>