<svg height="512" width="512" xmlns="http://www.w3.org/2000/svg"><path d="M296 384h-80c-13.3 0-24-10.7-24-24V192h-87.7C86.5 192 77.6 170.5 90.2 157.9L242.3 5.7c7.5-7.5 19.8-7.5 27.3 0l152.2 152.2c12.6 12.6 3.7 34.1-14.1 34.1H320v168c0 13.3-10.7 24-24 24m216-8v112c0 13.3-10.7 24-24 24H24C10.7 512 0 501.3 0 488V376c0-13.3 10.7-24 24-24h136v8c0 30.9 25.1 56 56 56h80c30.9 0 56-25.1 56-56v-8h136c13.3 0 24 10.7 24 24m-124 88c0-11-9-20-20-20s-20 9-20 20 9 20 20 20 20-9 20-20m64 0c0-11-9-20-20-20s-20 9-20 20 9 20 20 20 20-9 20-20"/></svg>