<svg height="1000" width="875" xmlns="http://www.w3.org/2000/svg"><path d="M612.5 593.8c-56.1 0 -83 31.2 -175 31.2s-118.7 -31.2 -175 -31.2C117.6 593.8 0 711.3 0 856.3v50C0 958 42 1000 93.8 1000h687.5c51.7 0 93.7 -42 93.7 -93.7v-50C875 711.3 757.4 593.8 612.5 593.8zm168.8 312.5H93.8v-50c0 -93 75.7 -168.8 168.7 -168.8 28.5 0 74.8 31.3 175 31.3 101 0 146.3 -31.3 175 -31.3 93 0 168.8 75.8 168.8 168.8v50zM437.5 562.5c155.3 0 281.3 -126 281.3 -281.2S592.8 0 437.5 0 156.3 126 156.3 281.3s125.9 281.2 281.2 281.2zm0 -468.7c103.3 0 187.5 84.1 187.5 187.5S540.8 468.8 437.5 468.8 250 384.6 250 281.3 334.2 93.8 437.5 93.8z"/></svg>