<svg height="512" width="448" xmlns="http://www.w3.org/2000/svg"><path d="M319.4 320 224 415.4 128.6 320C57.1 323.1 0 381.6 0 453.8A58.2 58.2 0 0 0 58.2 512h331.6A58.2 58.2 0 0 0 448 453.8C448 381.6 390.9 323.1 319.4 320M224 304A128 128 0 0 0 352 176V65.8a32 32 0 0 0-20.8-30L246.5 4.1a64 64 0 0 0-45 0l-84.7 31.8A32 32 0 0 0 96 65.8V176a128 128 0 0 0 128 128M184 71.7a5 5 0 0 1 5-5h21.7V45a5 5 0 0 1 5-5h16.6a5 5 0 0 1 5 5v21.7H259a5 5 0 0 1 5 5v16.6a5 5 0 0 1-5 5h-21.7V115a5 5 0 0 1-5 5h-16.6a5 5 0 0 1-5-5V93.3H189a5 5 0 0 1-5-5zM144 160h160v16a80 80 0 0 1-160 0z"/></svg>