<svg height="512" width="640" xmlns="http://www.w3.org/2000/svg"><path d="M224 256A128 128 0 1 0 96 128a128 128 0 0 0 128 128m96 64a63.1 63.1 0 0 1 8.1-30.5c-4.8-.5-9.5-1.5-14.5-1.5h-16.7a174.1 174.1 0 0 1-145.8 0h-16.7A134.4 134.4 0 0 0 0 422.4V464a48 48 0 0 0 48 48h280.9A63.5 63.5 0 0 1 320 480zm288-32h-32v-80a80 80 0 0 0-160 0v80h-32a32 32 0 0 0-32 32v160a32 32 0 0 0 32 32h224a32 32 0 0 0 32-32V320a32 32 0 0 0-32-32M496 432a32 32 0 1 1 32-32 32 32 0 0 1-32 32m32-144h-64v-80a32 32 0 0 1 64 0z"/></svg>