<svg height="512" width="640" xmlns="http://www.w3.org/2000/svg"><path d="M496 224c-79.6 0-144 64.4-144 144s64.4 144 144 144S640 447.6 640 368 575.6 224 496 224m64 150.3c0 5.3-4.4 9.7-9.7 9.7h-60.6c-5.3 0-9.7-4.4-9.7-9.7v-76.6c0-5.3 4.4-9.7 9.7-9.7h12.6c5.3 0 9.7 4.4 9.7 9.7V352h38.3c5.3 0 9.7 4.4 9.7 9.7zM320 368c0-27.8 6.7-54.1 18.2-77.5C330.2 289 322 288 313.6 288h-16.7C274.7 298.2 250 304 224 304s-50.6-5.8-72.9-16h-16.7C60.2 288 0 348.2 0 422.4V464c0 26.5 21.5 48 48 48h347.1C349.8 480.1 320 427.5 320 368M224 256c70.7 0 128-57.3 128-128S294.7 0 224 0 96 57.3 96 128s57.3 128 128 128"/></svg>