<svg height="512" width="640" xmlns="http://www.w3.org/2000/svg"><path d="M224 256c70.7 0 128-57.3 128-128S294.7 0 224 0 96 57.3 96 128s57.3 128 128 128m89.6 32h-16.7C274.7 298.2 250 304 224 304s-50.6-5.8-72.9-16h-16.7C60.2 288 0 348.2 0 422.4V464c0 26.5 21.5 48 48 48h274.9c-2.4-6.8-3.4-14-2.6-21.3l6.8-60.9 1.2-11.1 7.9-7.9 77.3-77.3C389 305.8 353.5 288 313.6 288m45.3 145.3-6.8 61c-1.1 10.2 7.5 18.8 17.6 17.6l60.9-6.8L568.5 367.2l-71.7-71.7zM633 268.9 595.1 231c-9.3-9.3-24.5-9.3-33.8 0l-37.8 37.8-4.1 4.1 71.8 71.7L633 302.8c9.3-9.4 9.3-24.5 0-33.9"/></svg>