<svg height="1000" width="875" xmlns="http://www.w3.org/2000/svg"><path d="M612.5 593.8c144.9 0 262.5 117.5 262.5 262.5v49.9c0 51.8 -42 93.8 -93.7 93.8H93.8C42 1000 0 958 0 906.2v-49.9C0 711.3 117.6 593.8 262.5 593.8c56.2 0 83 31.2 175 31.2s118.9 -31.2 175 -31.2zm168.8 312.5v-50c0 -93 -75.8 -168.8 -168.8 -168.8 -28.7 0 -74 31.3 -175 31.3 -100.2 0 -146.5 -31.3 -175 -31.3 -93 0 -168.7 75.8 -168.7 168.8v50h687.5zM437.5 562.5c-155.3 0 -281.2 -126 -281.2 -281.2S282.2 0 437.5 0s281.3 126 281.3 281.3 -126 281.2 -281.3 281.2zm0 -468.7C334.2 93.8 250 177.9 250 281.3s84.2 187.5 187.5 187.5S625 384.6 625 281.3 540.8 93.8 437.5 93.8z"/></svg>