<svg height="512" width="640" xmlns="http://www.w3.org/2000/svg"><path d="M132.7 212.3 36.2 137.8A63.4 63.4 0 0 0 32 160a63.8 63.8 0 0 0 100.7 52.3m40.4 62.3A63.8 63.8 0 0 0 128 256H64A64.1 64.1 0 0 0 0 320v32a32 32 0 0 0 32 32h65.9a146.6 146.6 0 0 1 75.2-109.4M544 224a64 64 0 1 0-64-64 64.1 64.1 0 0 0 64 64m-43.4 131.1a114.2 114.2 0 0 0-84.5-65.3L361 247.2c41.5-16.3 71-55.9 71-103.2A111.9 111.9 0 0 0 320 32c-57.1 0-103.7 42.8-110.6 98.1L45.5 3.4A16 16 0 0 0 23 6.2L3.4 31.5a16 16 0 0 0 2.8 22.4l588.3 454.7a16 16 0 0 0 22.5-2.8l19.6-25.2a16 16 0 0 0-2.8-22.5zM128 403.2V432a48 48 0 0 0 48 48h288a47.5 47.5 0 0 0 12.6-1.9L232 289.1c-58.3 5.7-104 54.3-104 114.1M576 256h-64a63.8 63.8 0 0 0-45.1 18.6A146.3 146.3 0 0 1 542 384h66a32 32 0 0 0 32-32v-32a64.1 64.1 0 0 0-64-64"/></svg>