<svg height="1000" width="968.8" xmlns="http://www.w3.org/2000/svg"><path d="M484.4 203.1c103.5 0 187.5 84 187.5 187.5s-84 187.5 -187.5 187.5S296.9 494.1 296.9 390.6s84 -187.5 187.5 -187.5zm0 281.3c51.7 0 93.7 -42 93.7 -93.8s-42 -93.7 -93.7 -93.7 -93.8 42 -93.8 93.7 42 93.8 93.8 93.8zm0 -468.8C752 15.6 968.8 232.4 968.8 500S752 984.4 484.4 984.4 0 767.6 0 500 216.8 15.6 484.4 15.6zm0 875c97 0 185.7 -35.7 254.1 -94.5 -29.1 -44.9 -78.9 -75.2 -136 -77.2 -40.6 12.7 -79.3 18.8 -118.1 18.8s-77.6 -6.3 -118.2 -18.8c-57 1.8 -106.8 32.3 -135.9 77.2 68.3 58.8 157 94.5 254.1 94.5zM802.1 726.4C847.9 662.5 875 584.4 875 500 875 284.6 699.8 109.4 484.4 109.4S93.7 284.6 93.7 500c0 84.4 27.2 162.5 72.9 226.4C214.5 665 288.1 625 371.9 625c19.9 0 51 18.7 112.5 18.7 61.7 0 92.6 -18.7 112.5 -18.7 84 0 157.6 40 205.2 101.4z"/></svg>