<svg height="512" width="448" xmlns="http://www.w3.org/2000/svg"><path d="M277.4 12C261.1 4.5 243.1 0 224 0 170.3 0 124.5 33.1 105.5 80h81.2zm65.1 68C334.6 60.5 321.8 43.8 306 30.5L240 80zM224 256c70.7 0 128-57.3 128-128 0-5.5-.9-10.7-1.6-16H97.6c-.7 5.3-1.6 10.5-1.6 16 0 70.7 57.3 128 128 128M80 299.7V512h128.3L109.8 290.5A132.8 132.8 0 0 0 80 299.7M0 464c0 26.5 21.5 48 48 48V320.2C18.9 344.9 0 381.3 0 422.4zm256-48h-55.4l42.7 96H256c26.5 0 48-21.5 48-48s-21.5-48-48-48m57.6-128h-16.7C274.7 298.2 250 304 224 304s-50.6-5.8-72.9-16h-7.4l42.7 96H256c44.1 0 80 35.9 80 80 0 18.1-6.3 34.6-16.4 48H400c26.5 0 48-21.5 48-48v-41.6C448 348.2 387.8 288 313.6 288"/></svg>