<svg height="1000" width="968.8" xmlns="http://www.w3.org/2000/svg"><path d="M484.4 203.1c-103.5 0 -187.5 84 -187.5 187.5s84 187.5 187.5 187.5 187.5 -84 187.5 -187.5S587.9 203.1 484.4 203.1zm0 281.3c-51.8 0 -93.8 -42 -93.8 -93.8s42 -93.7 93.8 -93.7 93.7 42 93.7 93.7 -42 93.8 -93.7 93.8zm0 -468.8C216.8 15.6 0 232.4 0 500s216.8 484.4 484.4 484.4S968.8 767.6 968.8 500 752 15.6 484.4 15.6zm0 875c-97.1 0 -185.8 -35.7 -254.1 -94.5 29.1 -44.9 78.9 -75.4 135.9 -77.2 40.6 12.5 79.3 18.8 118.2 18.8s77.5 -6.1 118.1 -18.8c57.1 2 106.9 32.3 136 77.2 -68.4 58.8 -157.1 94.5 -254.1 94.5zM802.1 726.4C754.5 665 680.9 625 596.9 625c-19.9 0 -50.8 18.8 -112.5 18.8C422.9 643.8 391.8 625 371.9 625c-83.8 0 -157.4 40 -205.3 101.4C120.9 662.5 93.8 584.4 93.8 500c0 -215.4 175.1 -390.6 390.6 -390.6S875 284.6 875 500c0 84.4 -27.1 162.5 -72.9 226.4z"/></svg>