<svg height="512" width="640" xmlns="http://www.w3.org/2000/svg"><path d="m622.3 271.1-115.2-45c-4.1-1.6-12.6-3.7-22.2 0l-115.2 45C359 275.3 352 285.1 352 296c0 111.6 68.7 188.8 132.9 213.9 9.6 3.7 18 1.6 22.2 0C558.4 489.9 640 420.5 640 296c0-10.9-7-20.7-17.7-24.9M496 462.4V273.3l95.5 37.3C585.9 397.7 530.6 446 496 462.4M224 256c70.7 0 128-57.3 128-128S294.7 0 224 0 96 57.3 96 128s57.3 128 128 128m96 40c0-2.5.8-4.8 1.1-7.2-2.5-.1-4.9-.8-7.5-.8h-16.7C274.7 298.2 250 304 224 304s-50.6-5.8-72.9-16h-16.7C60.2 288 0 348.2 0 422.4V464c0 26.5 21.5 48 48 48h352c6.8 0 13.3-1.5 19.2-4C365.2 465.1 320 391.3 320 296"/></svg>