<svg height="512" width="496" xmlns="http://www.w3.org/2000/svg"><path d="M248 104c-53 0-96 43-96 96s43 96 96 96 96-43 96-96-43-96-96-96m0 144c-26.5 0-48-21.5-48-48s21.5-48 48-48 48 21.5 48 48-21.5 48-48 48M248 8C111 8 0 119 0 256s111 248 248 248S496 393 496 256 385 8 248 8m0 448c-49.7 0-95.1-18.3-130.1-48.4 14.9-23 40.4-38.6 69.6-39.5 20.8 6.4 40.6 9.6 60.5 9.6s39.7-3.1 60.5-9.6c29.2 1 54.7 16.5 69.6 39.5C343.1 437.7 297.7 456 248 456m162.7-84.1C386.3 340.5 348.6 320 305.6 320c-10.2 0-26 9.6-57.6 9.6-31.5 0-47.4-9.6-57.6-9.6-42.9 0-80.6 20.5-105.1 51.9C61.9 339.2 48 299.2 48 256 48 145.7 137.7 56 248 56s200 89.7 200 200c0 43.2-13.9 83.2-37.3 115.9"/></svg>