<svg height="512" width="416" xmlns="http://www.w3.org/2000/svg"><path d="M207.9 15.2c.8 4.7 16.1 94.5 16.1 128.8 0 52.3-27.8 89.6-68.9 104.6L168 486.7c.7 13.7-10.2 25.3-24 25.3H80C66.3 512 55.3 500.5 56 486.7L68.9 248.6C27.7 233.6 0 196.2 0 144 0 109.6 15.3 19.9 16.1 15.2 19.3-5.1 61.4-5.4 64 16.3v141.2c1.3 3.4 15.1 3.2 16 0C81.4 132.2 87.9 18.3 88 15.7c3.3-20.8 44.7-20.8 47.9 0 .2 2.7 6.6 116.5 8 141.8.9 3.2 14.8 3.4 16 0V16.3c2.6-21.6 44.8-21.4 48-1.1m119.2 285.7-15 185.1c-1.2 14 9.9 26 23.9 26h56c13.3 0 24-10.7 24-24V24C416 10.8 405.3 0 392 0 309.5 0 170.6 178.5 327.1 300.9"/></svg>