<svg height="512" width="448" xmlns="http://www.w3.org/2000/svg"><path d="M224.5 140.7C226 123.1 229.4 88 274.3 88h98.6C393.6 88 405 80.2 405 66.4V54.1C405 41.9 414.3 32 426.5 32S448 41.9 448 54.1v36.5c0 42.9-21.5 62-66.8 62H280.7c-30.1 0-33 14.7-33 27.1 0 1.3-.1 2.5-.2 3.7-.7 12.3-10.9 22.2-23.4 22.2s-22.7-9.8-23.4-22.2c-.1-1.2-.2-2.4-.2-3.7 0-12.3-3-27.1-33-27.1H66.8C21.5 152.6 0 133.5 0 90.6V54.1C0 41.9 9.4 32 21.6 32s21.5 9.9 21.5 22.1v12.3C43.1 80.2 54.5 88 75.2 88h98.6c44.8 0 48.3 35.1 49.8 52.7zM224 456c11.5 0 21.4-7 25.7-16.3 1.1-1.8 97.1-169.6 98.2-171.4C359.8 248.7 344.7 224 320.7 224c-13.9 0-23.3 6.4-29.8 20.3L224 362 157.1 244.3C150.7 230.4 141.2 224 127.3 224c-24 0-39.1 24.6-27.2 44.3 1.1 1.9 97.1 169.6 98.2 171.4 4.3 9.3 14.2 16.3 25.7 16.3"/></svg>