<svg height="512" width="512" xmlns="http://www.w3.org/2000/svg"><path d="M512 128V32C512 14.3 497.7 0 480 0h-96c-17.7 0-32 14.3-32 32H160C160 14.3 145.7 0 128 0H32C14.3 0 0 14.3 0 32v96c0 17.7 14.3 32 32 32v192C14.3 352 0 366.3 0 384v96c0 17.7 14.3 32 32 32h96c17.7 0 32-14.3 32-32h192c0 17.7 14.3 32 32 32h96c17.7 0 32-14.3 32-32v-96c0-17.7-14.3-32-32-32V160c17.7 0 32-14.3 32-32M416 64h32v32h-32zM64 64h32v32H64zm32 384H64v-32h32zm352 0h-32v-32h32zm-32-96h-32c-17.7 0-32 14.3-32 32v32H160v-32c0-17.7-14.3-32-32-32H96V160h32c17.7 0 32-14.3 32-32V96h192v32c0 17.7 14.3 32 32 32h32z"/></svg>