<svg height="512" width="512" xmlns="http://www.w3.org/2000/svg"><path d="M288 176C288 96.5 223.5 32 144 32S0 96.5 0 176c0 68.5 47.9 125.9 112 140.4V368H76c-6.6 0-12 5.4-12 12v40c0 6.6 5.4 12 12 12h36v36c0 6.6 5.4 12 12 12h40c6.6 0 12-5.4 12-12v-36h36c6.6 0 12-5.4 12-12v-40c0-6.6-5.4-12-12-12h-36v-51.6C240.1 301.9 288 244.5 288 176m-224 0c0-44.1 35.9-80 80-80s80 35.9 80 80-35.9 80-80 80S64 220.1 64 176m336 140.4V368h36c6.6 0 12 5.4 12 12v40c0 6.6-5.4 12-12 12h-36v36c0 6.6-5.4 12-12 12h-40c-6.6 0-12-5.4-12-12v-36h-36c-6.6 0-12-5.4-12-12v-40c0-6.6 5.4-12 12-12h36v-51.6c-21.2-4.8-40.6-14.3-57.2-27.3 14-16.7 25-36 32.1-57.1 14.5 14.8 34.7 24 57.1 24 44.1 0 80-35.9 80-80S412.1 96 368 96c-22.3 0-42.6 9.2-57.1 24-7.1-21.1-18-40.4-32.1-57.1C303.4 43.6 334.3 32 368 32c79.5 0 144 64.5 144 144 0 68.5-47.9 125.9-112 140.4"/></svg>