<svg height="512" width="448" xmlns="http://www.w3.org/2000/svg"><path d="M437.3 239.9 384 160V32A32 32 0 0 0 352 0h-32a24 24 0 0 0-13.3 4l-25 16.7a103.8 103.8 0 0 1-115.4 0L141.3 4A24 24 0 0 0 128 0H96A32 32 0 0 0 64 32v128l-53.3 79.9A64 64 0 0 0 0 275.4V480a32 32 0 0 0 32 32h160V288a32 32 0 0 1 1.6-10.1l13.5-40.5L150.2 66.6A151.5 151.5 0 0 0 224 86.2a151.6 151.6 0 0 0 73.8-19.6L224 288v224h192a32 32 0 0 0 32-32V275.4a64 64 0 0 0-10.7-35.5m-306 131.4-48 48A16 16 0 0 1 60.7 396.7l48-48a16 16 0 0 1 22.6 22.6m256 48a16 16 0 0 1-22.6 0l-48-48a16 16 0 0 1 22.6-22.6l48 48a16 16 0 0 1 0 22.6"/></svg>