<svg height="512" width="448" xmlns="http://www.w3.org/2000/svg"><path d="M437.3 239.9 384 160V32A32 32 0 0 0 352 0h-32a24 24 0 0 0-13.3 4l-25 16.7a103.8 103.8 0 0 1-115.4 0L141.3 4A24 24 0 0 0 128 0H96A32 32 0 0 0 64 32v128l-53.3 79.9A64 64 0 0 0 0 275.4V480a32 32 0 0 0 32 32h160V288a32 32 0 0 1 1.6-10.1l13.5-40.5L150.2 66.6A151.6 151.6 0 0 0 224 86.2a151.6 151.6 0 0 0 73.8-19.6L224 288v224h192a32 32 0 0 0 32-32V275.4a64 64 0 0 0-10.7-35.5M63.5 272.5a12 12 0 0 1 17-17L96 271l15.5-15.5a12 12 0 0 1 17 17L113 288l15.5 15.5a12 12 0 0 1-17 17L96 305l-15.5 15.5a12 12 0 0 1-17-17L79 288zM96 456a40 40 0 1 1 40-40 40 40 0 0 1-40 40M359.2 335.8l-48.5.2a6.7 6.7 0 0 1-6.7-6.7l.2-48.6a25 25 0 0 1 27.2-24.6c12.8 1.2 22.2 12.6 22.1 25.4l-.1 5.1 5.1-.1c12.8 0 24.2 9.3 25.4 22.1a24.9 24.9 0 0 1-24.7 27.2"/></svg>