<svg height="512" width="640" xmlns="http://www.w3.org/2000/svg"><path d="M632.9 400.7 544 352v-64l55.2-17.7c11.7-5.9 11.7-22.7 0-28.6L480 192v-64l27.3-16.3C515 104 512.9 91 503.1 86.1L320 0 136.8 86.1c-9.7 4.8-11.8 17.9-4.1 25.6L160 128v64L40.8 241.7c-11.7 5.9-11.7 22.7 0 28.6L96 288v64L7.1 400.7c-5.4 3.6-7.7 9.6-7 15.3.6 5 3.6 9.8 8.7 12.3L64 448v48c0 8.8 7.2 16 16 16h32c8.8 0 16-7.2 16-16v-48h160v48c0 8.8 7.2 16 16 16h32c8.8 0 16-7.2 16-16v-48h160v48c0 8.8 7.2 16 16 16h32c8.8 0 16-7.2 16-16v-48l55.1-19.7c5.2-2.5 8.2-7.3 8.8-12.3.7-5.7-1.6-11.7-7-15.3M224 128h192v64H224zm-64 224v-64h320v64z"/></svg>