<svg height="512" width="448" xmlns="http://www.w3.org/2000/svg"><path d="M400 32H48C21.5 32 0 53.5 0 80v352c0 26.5 21.5 48 48 48h352c26.5 0 48-21.5 48-48V80C448 53.5 426.5 32 400 32m-16.2 149.6c-1.4 31.1-23.2 73.8-65.3 127.9C275 366 238.2 394.3 208.1 394.3c-18.7 0-34.4-17.2-47.3-51.6C135.6 250.4 124.9 196.3 104.1 196.3c-2.4 0-10.8 5-25.1 15.1L64 192c36.9-32.4 72.1-68.4 94.1-70.4 24.9-2.4 40.2 14.6 46 51.1 20.5 129.6 29.6 149.2 66.8 90.5C284.3 242 291.5 226 292.4 214.9c3.4-32.8-25.6-30.6-45.2-22.2 15.7-51.5 45.8-76.5 90.1-75.1 32.9 1 48.4 22.4 46.5 64"/></svg>