<svg height="512" width="384" xmlns="http://www.w3.org/2000/svg"><path d="M384 254.7v52.1c-18.4 4.2-36.9 6.1-52.1 6.1C295 390.3 228.9 456.7 206.8 469.1c-14 7.9-27.1 8.4-42.7-.8C137 452 34.2 367.7 0 102.7h74.5C93.2 261.8 139 343.4 189.3 404.5c27.9-27.9 54.8-65.1 75.6-106.9C215.1 272.3 184.8 216.7 184.8 152 184.8 86.4 222.5 36.9 287 36.9c114.9 0 106.2 127.9 81.6 181.5 0 0-46.4 9.2-63.5-20.5 3.4-11.3 8.2-30.8 8.2-48.5 0-31.3-11.3-46.6-28.4-46.6-18.2 0-30.8 17.1-30.8 50 .1 79.2 59.4 118.7 129.9 101.9"/></svg>