<svg height="512" width="640" xmlns="http://www.w3.org/2000/svg"><path d="M624 352h-12.1c-28.5 0-42.8-34.5-22.6-54.6l8.5-8.6a16 16 0 1 0-22.6-22.6l-8.6 8.6C546.5 294.9 512 280.6 512 252.1V240a16 16 0 0 0-32 0v12.1c0 28.5-34.5 42.8-54.6 22.7l-8.6-8.6a16 16 0 0 0-22.6 22.6l8.6 8.6c20.1 20.1 5.8 54.6-22.7 54.6H368a16 16 0 0 0 0 32h12.1c28.5 0 42.8 34.5 22.7 54.6l-8.6 8.6a16 16 0 1 0 22.6 22.6l8.6-8.5c20.1-20.2 54.6-5.9 54.6 22.6V496a16 16 0 0 0 32 0v-12.1c0-28.5 34.5-42.8 54.6-22.6l8.6 8.5a16 16 0 1 0 22.6-22.6l-8.5-8.6C569.1 418.5 583.4 384 611.9 384H624a16 16 0 0 0 0-32m-144 32a32 32 0 1 1 32-32 32 32 0 0 1-32 32M346.5 213.3h16.2a21.3 21.3 0 0 0 0-42.6h-16.2c-38 0-57-46-30.2-72.9l11.5-11.4A21.3 21.3 0 0 0 297.6 56.2l-11.4 11.5c-26.9 26.8-72.9 7.8-72.9-30.2V21.3a21.3 21.3 0 0 0-42.6 0v16.2c0 38-46 57-72.9 30.2L86.4 56.2A21.3 21.3 0 0 0 56.2 86.4l11.5 11.4c26.8 26.9 7.8 72.9-30.2 72.9H21.3a21.3 21.3 0 0 0 0 42.6h16.2c38 0 57 46 30.2 72.9l-11.5 11.4a21.3 21.3 0 1 0 30.2 30.2l11.4-11.5c26.9-26.8 72.9-7.8 72.9 30.2v16.2a21.3 21.3 0 0 0 42.6 0v-16.2c0-38 46-57 72.9-30.2l11.4 11.5a21.3 21.3 0 0 0 30.2-30.2l-11.5-11.4c-26.8-26.9-7.8-72.9 30.2-72.9M160 192a32 32 0 1 1 32-32 32 32 0 0 1-32 32m80 32a16 16 0 1 1 16-16 16 16 0 0 1-16 16"/></svg>