<svg height="512" width="512" xmlns="http://www.w3.org/2000/svg"><path d="M483.6 227.6H462c-50.7 0-76.1-61.3-40.2-97.2L437 115.2A28.4 28.4 0 0 0 396.8 75l-15.2 15.2C345.7 126 284.4 100.7 284.4 50V28.4a28.4 28.4 0 0 0-56.9 0V50c0 50.7-61.2 76.1-97.1 40.2L115.2 75A28.4 28.4 0 0 0 75 115.2l15.3 15.2c35.8 35.9 10.4 97.2-40.3 97.2H28.4a28.4 28.4 0 1 0 0 56.8H50c50.7 0 76.1 61.3 40.2 97.2L75 396.8a28.4 28.4 0 0 0 40.2 40.2l15.2-15.2c35.9-35.9 97.2-10.5 97.2 40.2v21.5a28.4 28.4 0 0 0 56.8 0V462c0-50.7 61.3-76.1 97.2-40.2l15.2 15.2A28.4 28.4 0 0 0 437 396.8l-15.2-15.2C385.9 345.7 411.3 284.4 462 284.4h21.5a28.4 28.4 0 1 0 0-56.8zM224 272a48 48 0 1 1 48-48 48 48 0 0 1-48 48m80 56a24 24 0 1 1 24-24 24 24 0 0 1-24 24"/></svg>