<svg height="512" width="512" xmlns="http://www.w3.org/2000/svg"><path d="M231.4 243.5A285.6 285.6 0 0 0 208.7 137.8C117.9 180.2 51.2 260.2 28.4 354.6a249 249 0 0 0 56.9 81.1A333.9 333.9 0 0 1 231.4 243.5M194.5 109.1A284.2 284.2 0 0 0 137.1 38.4C46.1 88.2-7.7 191.3 12.1 300.6c33.4-83.1 98.4-152 182.4-191.5m187.6 165.1C390.7 174.4 354.8 76.7 284.6 9.8 269.9 8.1 233 4.3 185.7 18.3A333.9 333.9 0 0 1 279.2 241a285 285 0 0 0 102.9 33.2m-124.7 9.5a286.3 286.3 0 0 0-80.2 72.6c82 57.3 184.5 75.1 277.5 47.8a247.2 247.2 0 0 0 42.2-89.9A336 336 0 0 1 416 324.6c-54.6-.1-108.9-14.1-158.6-40.9m-98.3 99.7c-15.2 26-25.7 54.4-32.1 84.2a247.1 247.1 0 0 0 289-22.1C303.1 461.6 212.7 420.7 159.1 383.4M339.4 22.8C394.7 93.2 421.9 184 414 276.4a286.6 286.6 0 0 0 89.7-14.2c0-2 .3-4 .3-6C504 148.4 435.3 57.1 339.4 22.8"/></svg>