<svg height="512" width="576" xmlns="http://www.w3.org/2000/svg"><path d="m215 71-88.9 89H24C10.7 160 0 170.7 0 184v144c0 13.3 10.7 24 24 24h102.1l88.9 88.9c15.1 15.1 41 4.5 41-16.9V88C256 66.6 230 56 215 71M448.4 20c-11.2-7.4-26.2-4.3-33.6 6.9-7.3 11.2-4.2 26.2 7 33.5C488.1 103.9 527.6 177 527.6 256S488.1 408.1 421.8 451.6c-11.2 7.3-14.3 22.3-7 33.5 7.1 10.7 22 14.6 33.6 6.9C528.3 439.6 576 351.3 576 256S528.3 72.4 448.4 20M480 256C480 192.5 447.9 134.1 394.2 99.8c-11.2-7.2-26-3.9-33.1 7.4s-3.8 26.2 7.4 33.4C408.3 166 432 209.1 432 256s-23.7 90-63.5 115.4c-11.2 7.2-14.5 22.1-7.4 33.4 6.5 10.3 21.1 15.1 33.1 7.4C447.9 377.9 480 319.5 480 256M338.2 179.1c-11.5-6.3-26.2-2.1-32.6 9.5s-2.1 26.2 9.5 32.6C328 228.3 336 241.6 336 256s-8 27.7-20.9 34.8c-11.6 6.4-15.9 21-9.5 32.6 6.5 11.7 21.1 15.8 32.6 9.5C366.5 317.3 384 287.9 384 256s-17.5-61.3-45.8-76.9"/></svg>