<svg height="512" width="512" xmlns="http://www.w3.org/2000/svg"><path d="m215 71-88.9 89H24C10.7 160 0 170.7 0 184v144c0 13.3 10.7 24 24 24h102.1l88.9 88.9c15.1 15.1 41 4.5 41-16.9V88C256 66.6 230 56 215 71m246.6 185 45.7-45.6c6.3-6.3 6.3-16.6 0-22.9l-22.8-22.8c-6.3-6.3-16.6-6.3-22.9 0L416 210.4l-45.6-45.7c-6.3-6.3-16.6-6.3-22.9 0l-22.8 22.8c-6.3 6.3-6.3 16.6 0 22.9l45.7 45.6-45.7 45.6c-6.3 6.3-6.3 16.5 0 22.8l22.9 22.9c6.3 6.3 16.5 6.3 22.8 0L416 301.6l45.6 45.7c6.3 6.3 16.6 6.3 22.9 0l22.8-22.8c6.3-6.3 6.3-16.6 0-22.9z"/></svg>