<svg height="512" width="640" xmlns="http://www.w3.org/2000/svg"><path d="M608 320h-64v64h22.4c5.3 0 9.6 3.6 9.6 8v16c0 4.4-4.3 8-9.6 8H73.6c-5.3 0-9.6-3.6-9.6-8v-16c0-4.4 4.3-8 9.6-8H96v-64H32C14.3 320 0 334.3 0 352v96c0 17.7 14.3 32 32 32h576c17.7 0 32-14.3 32-32v-96c0-17.7-14.3-32-32-32m-96 64V64.3C512 46.4 497.5 32 479.7 32H160.4C142.5 32 128 46.5 128 64.3V384zM211.2 202l25.5-25.3c4.2-4.2 11-4.2 15.2.1l41.3 41.6L388.4 124c4.2-4.2 11-4.2 15.2.1l25.3 25.5c4.2 4.2 4.2 11-.1 15.2L300.5 292c-4.2 4.2-11 4.2-15.2-.1l-74.1-74.7c-4.3-4.2-4.2-11 0-15.2"/></svg>