<svg height="512" width="512" xmlns="http://www.w3.org/2000/svg"><path d="M256 16C123.5 16 16 123.5 16 256s107.5 240 240 240S496 388.5 496 256 388.5 16 256 16M121.7 429.1C70.1 389 36.7 326.3 36.7 256a218.5 218.5 0 0 1 9.6-64.1L149.2 174l-.1 10.9-13.9 2.1s-.2 12.5-.2 19.5a12.8 12.8 0 0 0 4.9 10.4l9.5 7.4zM227.4 145.9l8.5-7.7s6.9-5.3-.2-9.3c-7.2-4-39.5-34.5-39.5-34.5-5.4-5.5-8.3-7.4-15.5 0 0 0-32.3 30.5-39.5 34.5-7.1 4-.1 9.3-.1 9.3l8.4 7.7v4.3L76 131C115.6 74.1 181.5 36.7 256 36.7a218.8 218.8 0 0 1 164.9 75.1l-193.5 37.7zm34 329.2L227.5 224.3l9.5-7.4a12.8 12.8 0 0 0 4.9-10.4c0-7-.1-19.5-.1-19.5l-14-2-.1-10.5 241.7 31.4a219 219 0 0 1 5.9 50.1c0 119.1-95.5 216.2-213.9 219.1"/></svg>