<svg height="512" width="576" xmlns="http://www.w3.org/2000/svg"><path d="M562.1 383.9C540.6 381.5 520 373.4 504.2 361 490.1 349.9 470 349.7 456 361c-37.9 30.4-107.2 30.4-145.7-1.5-13.5-11.2-33-9.1-46.7 1.8-38 30.1-106.9 30-145.2-1.7-13.5-11.2-33.3-8.9-47.1 2-15.5 12.2-36 20.1-57.7 22.4C5.7 384.8 0 391.8 0 399.7v32.2c0 9.1 7.6 16.8 16.7 16C45.5 445.4 72.8 436.5 96.1 422c56.5 34.6 137 34.1 192 0 56.5 34.6 137 34.1 192 0 23.3 14.2 50.9 23.3 79.1 25.8 9.1.8 16.7-6.9 16.7-16v-31.6c.1-8-5.7-15.4-13.8-16.3m0-144C540.6 237.5 520 229.4 504.2 217 490.1 205.9 470 205.7 456 217c-37.9 30.4-107.2 30.4-145.7-1.5-13.5-11.2-33-9.1-46.7 1.8-38 30.1-106.9 30-145.2-1.7-13.5-11.2-33.3-8.9-47.1 2-15.5 12.2-36 20.1-57.7 22.4C5.7 240.8 0 247.8 0 255.7v32.2c0 9.1 7.6 16.8 16.7 16C45.5 301.4 72.8 292.5 96.1 278c56.5 34.6 137 34.1 192 0 56.5 34.6 137 34.1 192 0 23.3 14.2 50.9 23.3 79.1 25.8 9.1.8 16.7-6.9 16.7-16v-31.6c.1-8-5.7-15.4-13.8-16.3m0-144C540.6 93.4 520 85.4 504.2 73 490.1 61.9 470 61.7 456 73c-37.9 30.4-107.2 30.4-145.7-1.5-13.5-11.2-33-9.1-46.7 1.8-38 30.1-106.9 30-145.2-1.7-13.5-11.2-33.3-8.9-47.1 2C55.8 85.8 35.3 93.7 13.6 96 5.7 96.8 0 103.8 0 111.7v32.2c0 9.1 7.6 16.8 16.7 16C45.5 157.4 72.8 148.5 96.1 134c56.5 34.6 137 34.1 192 0 56.5 34.6 137 34.1 192 0 23.3 14.2 50.9 23.3 79.1 25.8 9.1.8 16.7-6.9 16.7-16v-31.6c.1-8-5.7-15.4-13.8-16.3"/></svg>