<svg height="512" width="512" xmlns="http://www.w3.org/2000/svg"><path d="M502.2 201.7c14.5 85.8-31 167.9-113.2 208.1 13 34.1-12.4 70.2-48.3 70.2a51.7 51.7 0 0 1-51.6-49c-6.4.2-64.2 0-76.3-.6A51.7 51.7 0 0 1 159 479.9C125.1 478.6 101 445.1 112 412 74.8 398.9 39.5 377.1 12.4 341.2c-13-17.3-.5-41.8 20.8-41.8 46.3 0 32.2-54.2 43.2-110.3C94.8 95.2 193.1 32 288.1 32c102.5 0 197.1 70.7 214.1 169.7M373.5 388.3c42-19.2 81.3-56.7 96.3-102.2C510.3 163 405.6 58.1 288.1 58.1c-83.5 0-170.3 55.5-186.1 136-9.5 48.9 5 131.4-68.7 131.4 24.9 33.1 58.3 52.6 93.7 64 24.7-21.8 63.9-15.4 79.8 14.4 14.2 1 79.2 1.2 87.9.8a51.7 51.7 0 0 1 78.8-16.4M205.1 187.1c0-34.7 50.9-34.7 50.9 0s-50.9 34.8-50.9 0m116.6 0c0-34.7 50.9-34.7 50.9 0s-50.9 34.8-50.9 0m-122.6 70.7c-3.5-16.9 22.2-22.2 25.6-5.2l.1.3c4.1 21.4 29.8 44 64.1 43.1 35.7-1 59.2-22.2 64.1-42.8 4.4-16.1 28.6-10.4 25.5 6-5.3 22.2-31.2 62-91.5 62.9-42.5 0-80.9-27.9-87.9-64.3"/></svg>