<svg height="512" width="512" xmlns="http://www.w3.org/2000/svg"><path d="M425.1 65.8c-39.9 0-73.3 25.8-83.7 64.4C323.3 72.1 275.9 65.8 256.5 65.8c-19.8 0-66.8 6.3-85.3 64.4C160.8 91.6 127.7 65.8 87.5 65.8 38.6 65.8 0 99.7 0 143c0 29 4.2 33.3 77.2 233.5 22.3 60.6 67.7 69.4 92.7 69.4 39.2 0 70-19.5 85.9-54 15.9 34.8 46.7 54.3 86 54.3 24.9 0 70.3-9.1 92.7-69.7C511.1 167.8 512 170.9 512 149.3 512.6 101 476 65.8 425.1 65.8m26.3 114.8-65.5 176.5c-8 21.5-21.3 37.2-46.3 37.2-23.4 0-37.4-12.4-44-33.9L256.3 243h-.9l-39.3 117.4c-7 21.5-20.9 33.6-44 33.6-25.1 0-38.4-15.7-46.3-37.2L60.9 181.6C55.5 166.7 53 157.6 53 147.1c0-16.4 15.8-29.4 38.3-29.4 18.7 0 32 11.8 36.1 29l44 139.9h1L217 149.8c6.1-19.7 16.5-32.1 39-32.1s32.9 12.1 39 32.1l44.6 136.8h1l44-139.9c4.1-17.2 17.4-29 36.1-29 22.2 0 38.3 13.3 38.3 35.7-.3 7.9-4.1 16-7.6 27.2"/></svg>