<svg height="512" width="512" xmlns="http://www.w3.org/2000/svg"><path d="M448 64h-26c16.4 28.3 26 61 26 96 0 105.9-86.1 192-192 192S64 265.9 64 160c0-35 9.6-67.7 26-96H64C28.7 64 0 92.7 0 128v320c0 35.3 28.7 64 64 64h384c35.3 0 64-28.7 64-64V128C512 92.7 483.3 64 448 64M256 320c88.4 0 160-71.6 160-160S344.4 0 256 0 96 71.6 96 160s71.6 160 160 160m-.3-151.9 33.6-78.4c3.5-8.2 12.9-11.9 21-8.4s11.9 12.9 8.4 21L285 180.8c6.7 7.2 11 16.6 11 27.2 0 22.1-17.9 40-40 40s-40-17.9-40-40c0-22 17.8-39.8 39.7-39.9"/></svg>