<svg height="512" width="512" xmlns="http://www.w3.org/2000/svg"><path d="m496.1 385.7 14.2 28.6c4 7.9.7 17.5-7.2 21.5l-65.5 32.9c-16 7.9-35.5 1.2-43.1-15.1L331.7 320H192c-15.9 0-29.4-11.7-31.7-27.5C126.4 55.3 128.4 70 128 64 128 27.6 158.3-1.6 195.1.1c33.2 1.5 60 28.9 60.9 62.2.8 32.9-23.2 60.4-54.6 65L206 160h130c8.8 0 16 7.2 16 16v32c0 8.8-7.2 16-16 16H215.2l4.6 32H352a32 32 0 0 1 29 18.4l57.5 122.4 36.2-18.3c7.9-4 17.5-.7 21.4 7.2M311.4 352h-24.5c-7.8 54.2-54.6 96-110.9 96C114.2 448 64 397.8 64 336c0-41.5 22.7-77.8 56.3-97.2-3.7-25.9-6.8-47.8-9.5-66.3C46 198.5 0 262 0 336c0 97 79 176 176 176 71.9 0 133.8-43.3 161.1-105.2z"/></svg>