<svg height="512" width="640" xmlns="http://www.w3.org/2000/svg"><path d="M634.9 154.9C457.7-9 182.2-8.9 5.1 154.9c-6.7 6.1-6.8 16.6-.4 23L39 211.8c6.1 6.1 16 6.3 22.4.4 145.9-133.7 371.3-133.7 517.2 0 6.4 5.9 16.3 5.7 22.4-.4l34.3-33.9c6.4-6.4 6.3-16.9-.4-23M320 352c-35.4 0-64 28.6-64 64s28.6 64 64 64 64-28.6 64-64-28.6-64-64-64m202.7-83.6C407.4 166.5 232.5 166.6 117.3 268.4c-6.9 6.1-7.1 16.7-.5 23.2l34.4 33.9c6 6 15.7 6.4 22.1.8 83.9-72.5 209.7-72.4 293.4 0 6.4 5.6 16.1 5.2 22.1-.8l34.4-33.9c6.6-6.5 6.4-17.1-.5-23.2"/></svg>