<svg height="512" width="640" xmlns="http://www.w3.org/2000/svg"><path d="m640 51.2-.3 12.2c-28.1.8-45 15.8-55.8 40.3-25 57.8-103.3 240-155.3 358.6H415L333.1 269.2c-32.5 63.6-68.3 130-99.2 193.1-.3.3-15 0-15-.3C172 352.3 122.8 243.4 75.8 133.4 64.4 106.7 26.4 63.4.2 63.7c0-3.1-.3-10-.3-14.2h161.9v13.9C142.6 64.5 109 76.7 118.5 97.6c21.9 49.7 103.6 240.3 125.6 288.6 15-29.7 57.8-109.2 75.3-142.8C305.5 215.1 260.8 109.5 246.6 83.4 236.9 65.6 210.5 64 190.8 63.7V49.8l142.5.3v13.1c-19.4.6-38.1 7.8-29.4 26.1 18.9 40 30.6 68.1 48.1 104.7 5.6-10.8 34.7-69.4 48.1-100.8C409 72.6 396.2 64.6 361.5 63.8c.3-3.6 0-10.3.3-13.6 44.4-.3 111.1-.3 123.1-.6v13.6C462.4 64 439.1 76 426.8 94.9l-59.2 122.8c6.4 16.1 63.3 142.8 69.2 156.7L559.2 91.8C550.6 68.7 522.8 63.7 512 63.5V49.6l127.8 1.1z"/></svg>