<svg height="1000" width="1000" xmlns="http://www.w3.org/2000/svg"><path d="M906.3 62.5H93.8C42 62.5 0 104.5 0 156.3v687.5c0 51.7 42 93.7 93.8 93.7h812.5c51.7 0 93.7 -42 93.7 -93.7V156.3c0 -51.8 -42 -93.8 -93.7 -93.8zm0 769.5c0 6.5 -5.3 11.8 -11.8 11.8h-789C99 843.8 93.8 838.5 93.8 832V168c0 -6.5 5.2 -11.7 11.7 -11.7h789c6.5 0 11.8 5.2 11.8 11.7v664zm-210 -451.9L576.4 500l119.9 119.9c9 9 9 23.7 0 32.8l-43.6 43.6c-8.9 9 -23.6 9 -32.8 0L500 576.4 380.1 696.3c-9 9 -23.7 9 -32.8 0l-43.6 -43.6c-9 -8.9 -9 -23.6 0 -32.8L423.6 500 303.7 380.1c-9 -9 -9 -23.7 0 -32.8l43.6 -43.6c9 -9 23.6 -9 32.8 0L500 423.6 619.9 303.7c9 -9 23.7 -9 32.8 0l43.6 43.6c9.2 8.9 9.2 23.6 0 32.8z"/></svg>