<svg height="512" width="640" xmlns="http://www.w3.org/2000/svg"><path d="M393.4 131.7c0 13 2.1 32.7-28.7 43.8-9.5 3.5-15.9 9.7-15.9 9.7 0-31 4.7-42.2 17.3-48.9 9.8-5.1 27.3-4.6 27.3-4.6m-115.8 35.5-34.3 132.7L214.9 191.3c-7.7-32-20.9-48.5-48.5-48.5-27.3 0-40.6 16.2-48.4 48.5L89.5 299.9 55.3 167.2C49.7 140.5 23.9 129 0 132l65.6 247.9s21.6 1.5 32.4-4c14.3-7.2 21-12.8 29.6-46.5 7.7-30.1 29.1-118.4 31.1-124.7 4.8-15 11.1-13.8 15.4 0 2 6.3 23.5 94.6 31.2 124.7 8.6 33.7 15.3 39.3 29.6 46.5 10.8 5.5 32.4 4 32.4 4L332.9 132c-24.4-3.1-49.8 8.9-55.3 35.2m115.8 5.2s-4.1 6.4-13.5 11.6c-6 3.4-11.8 5.6-18 8.6-15.1 7.3-13.1 14-13.1 35.2v152.1s16.5 2.1 27.3-3.4c14-7.1 17.2-14 17.3-44.8V172.4m163.4 84.1L640 132.8s-35.1-6-52.5 9.8c-13.3 12.1-24.4 29.6-54.2 72.5-.4.7-6.2 10.5-13 0C491 172.9 479.4 154.8 466.1 142.6c-17.4-15.8-52.5-9.8-52.5-9.8l83.2 123.7-83 123.4s36.6 4.6 53.9-11.2c11.5-10.5 17.6-20.4 52.6-70.7 6.8-10.6 12.5-.8 13 0 29.4 42.3 39.3 58 53.2 70.7 17.4 15.8 53.3 11.2 53.3 11.2z"/></svg>