<svg height="512" width="640" xmlns="http://www.w3.org/2000/svg"><path d="M219.2 345.7c-1.9 1.4-11.1 8.4-.3 23.6 4.7 6.4 14.1 12.8 21.8 6.5 6.5-4.9 7.3-12.9.2-23-5.5-7.8-14.3-12.9-21.7-7.1m336.7 75.9c-.3 1.7-.5 1.7.8 0 2.1-4.2 4.2-10.2 5-19.9 3.2-38.5-40.3-71.5-101.3-78-54.8-6-124.4 9.2-188.8 60.5l-.3 1.6c2.6 4.9 5 10.7 3.4 21.2l.8.2C339.4 348.8 406.7 330 459.9 333.4c58.4 3.7 100 34 100 68.1 0 9.9-2.6 15.7-4 20.1M392.3 240.4c.8 7.1 4.2 10.2 9.1 10.5 5.5.2 9.5-2.6 10.5-6.6.8-3.4 2.1-29.8 2.1-29.8S402.8 221 399.1 225c-3.7 3.6-7.3 8.3-6.8 15.4m-50-151.1C137.8 89.3 13.1 226.8.8 241.2c-1.1.5-1.3.8.8 1.3 60.5 16.5 155.8 81.2 196.1 202.2l1.1.2c55.2-69.9 140.8-128 237-128 80.9 0 130.1 42.1 130.1 80.4 0 18.3-6.5 33.5-22.3 46.3 0 1-.2.8.8.8 14.7-10.7 27.5-28.8 27.5-48.2 0-22.8-12-38.2-12-38.2 7.1 7.1 10.7 16.2 10.7 16.2 5.8-40.8 27-62.3 27-62.3-2.4-9.7-6.8-17.8-6.8-17.8 7.6 8.1 14.4 27.5 14.4 41.4 0 10.4-3.4 22.8-12.6 31.9l.3.5C601 363 609.4 351.2 609.4 330c0-15.7-4.7-25.9-4.7-25.9 5.7-5.3 11.2-9.2 15.9-11.8.8 3.4 2.1 9.7 2.4 14.9 0 1.1.8 1.8 1 0 .8-5.8-.2-16.2-.2-16.5 6-3.1 9.7-4.4 9.7-4.4C617.7 176 489.4 89.3 342.3 89.3M243 378.9c-11 9-24.2 4.1-30.6-4.1-7.5-9.6-6.8-24.1 4.2-32.5 14.8-11.4 27-.5 31.1 5.5.3.4 12.2 16.5-4.7 31.1m2.1-136.4 9.4-17.8 11.8 71-12.5 6-24.7-28.8 14.2-26.7 3.6 4.4zm18.6 117.6-.3-.3c2.1-4.1-2.5-6.6-17.5-31.7-1.3-2.3-3.1-2.8-4.4-2.6l-.3-.5c7.9-5.8 15.4-10.2 25.4-15.7l.5.3c1.3 1.8 2.1 2.8 3.4 4.7l-.2.5c-1.1-.3-2.4-.8-5.3.2-2.1.8-7.9 3.7-12.3 7.6v1.3c1.6 2.4 3.9 6.6 5.8 9.7h.2c10.1-6.3 7.6-4.5 11.5-7.8h.3c.5 1.8.5 1.8 1.8 5.5l-.2.2c-3.1.6-4.7.4-11.6 5.5v.3c9.5 17 11.1 16.7 12.6 16l.3.2c-2.4 1.6-6.3 4.2-9.7 6.6M319 327.6c-3.2 1.6-6.1 2.9-10 5l-.2-.3c1.2-2.5 1.1-2.7-11.8-32.4l-.3-.3c-.1 0-8.9 3.7-9.9 7.3h-.6l-1-5.7.3-.5c7.2-4.6 25.5-11.7 27.7-12.6l.5.3 3.2 4.9-.3.6c-3.5-1.8-7.3.7-12.3 2.6v.2c12.3 32 12.7 30.7 14.7 30.7zm44.7-16.5c-4.2 1.1-5.2 1.3-9.7 2.9l-.2-.3.5-4.4c-1.1-3.4-3.1-11.5-3.7-13.6l-.2-.3c-3.4.8-8.9 2.6-12.9 3.9l-.2.3c.8 2.6 3.1 10 4.2 13.9.8 2.3 1.8 2.9 2.8 3.1v.5c-3.6 1.1-7 2.7-10.2 4l-.2-.3c1-1.3 1-2.9.2-5-1-3.1-8.1-23.8-9.1-27.2-.6-1.8-1.6-3.1-2.7-3.1v-.6c3.2-1 6.1-2 10.8-3.4l.2.3-.2 4.7c1.3 3.9 2.3 7.6 3.1 9.7h.3c3.9-1.3 9.4-2.9 12.8-3.9l.3-.3-2.6-9.4c-.6-1.8-1.1-3.4-2.7-4v-.2c4.5-1.1 7.4-1.8 10.8-2.4l.2.3c-1 1.3-1 2.9-.5 4.4 1.6 6.3 4.7 20.5 6.3 26.5.5 2.6 1.8 3.4 2.6 3.9m32.2-6.8-.2.3c-4.7.5-14.2 2.3-22.5 4.2l-.3-.3.8-4.2c-1.6-7.9-3.4-18.6-5-26.2-.3-1.8-.8-2.9-2.6-3.7l.8-.5c9.2-1.5 20.1-2.3 24.9-2.6l.2.3c.5 2.3.8 3.1 1.6 5.5l-.3.2c-1.1-1.1-3.3-3.2-16.2-.8l-.3.3c.3 1.6 1.1 6.5 1.6 9.9l.3.3c9.5-1.7 4.7-.1 10.7-2.4h.3c0 1.6-.3 1.9-.3 5.3h-.3c-4.8-1-2.1-.9-10.2 0l-.2.2c.2 2.1 1.5 9.5 2.1 12.6l.2.3c1.2.4 14.2-.7 16.3-4.7h.2c-.5 2.3-1 4.2-1.6 6m10.8-44.5c-4.5 2.4-8.1 2.9-11 2.9-.3 0-11.4 1.1-17.6-10-6.7-10.8-.9-25.2 5.5-31.7 8.8-8.1 23.4-10.1 28.6-17 8-10.3-13.1-22.3-29.6-5.7l-2.6-2.9 5.2-16.3c25.6-1.5 45.2-3 50 16.3.8 3.1 0 9.4-.2 12 0 2.7-1.9 18.9-2.1 23.1-.5 4.2-.8 18.3-.8 20.7.2 2.3.5 4.2 1.6 5.5 1.5 1.8 5.7 1.8 5.7 1.8l-.8 4.7c-11.8-1.1-10.3-.6-20.4-1.1C415 257 416 258.9 414 254.3c0 0-4.2 3.9-7.3 5.5m37.2 21.2c-6.4-10.6-19.9-7.2-21.8 5.5-2.6 17.1 14.3 19.8 20.7 10.2l.3.3c-.5 1.8-1.9 6-1.9 6.3l-.5.5c-10.3 6.8-28.5-2.5-25.6-18.6 1.9-10.9 14.4-18.9 28.8-10l.2.6c0 1-.2 3.4-.2 5.2m5.7-87.7v-6.6c.7 0 19.7 3.3 27.8 7.4l-1.6 17.5s10.2-9.4 15.5-10.7c5.2-1.6 14.9 7.3 14.9 7.3l-11.3 11.2c-12-6.3-19.6 0-20.7.8-5.2 38.8-8.6 42.2 4.5 46.1l-.5 4.7c-17.6-4.3-18.6-4.5-36.9-7.3l.7-4.7c7.3 0 7.5-5.3 7.6-6.8 0 0 5-53.2 5-55.3 0-2.8-5-3.6-5-3.6m11 114.4c-8.1-2.1-14.1-11-10.7-20.7 3.1-9.4 12.3-12.3 18.8-10.2 9.2 2.6 12.9 11.8 10.8 19.4-2.6 8.9-9.5 13.9-18.9 11.5m42.2 9.7c-2.4-.5-7.1-2.4-8.7-2.9v-.2l1.6-1.9c.6-8.2.6-7.2.3-7.5-4.9-1.9-6.7-2.4-7.1-2.4-1.3 1.8-2.9 4.4-3.7 5.5l-.8 3.4v.2c-1.3-.2-3.9-1.3-6-1.5v-.3L481 308c3.4-4.7 10-14.1 13.9-20.2v-2.1l.5-.2c2.1.8 5.5 2.1 7.6 2.9.5.4.2-1.9-1 25.1-.3 1.8 0 2.6.8 3.9m-4.7-89.8c11.2-18.3 30.7-16.2 34-3.4l7.6-26.2c2.3-6.2-2.8-9.9-4.4-11.3l1.8-3.6c12.2 10.3 16.4 13.9 22.5 20.4-25.9 73.1-30.8 80.8-24.6 84.3l-1.9 4.5c-6.3-3.4-8.8-4.4-17.8-8.7l2.1-6.8c-.2-.2-3.9 4-9.7 3.7-19-1.3-22.8-31.8-9.6-52.9m29.3 79.3c0-5.7-6.3-7.9-7.9-5.2-1.3 2.1 1.1 5 2.9 8.4 1.6 2.6 2.6 6.2 1.1 9.4-2.7 6.3-12.4 5.3-15.5-.8 0-.7-.3.1 1.8-4.7l.8-.3c-.5 5.7 6.1 9.6 8.4 5 1.1-2.1-.5-5.5-2.1-8.4-1.5-2.6-3.6-6.2-1.8-9.7 2.7-5 11.2-4.4 14.7 2.4v.5zm21.2 13.4c-2-3.3-.9-2.2-4.4-4.7h-.3c-2.4 4.2-5.8 10.5-8.6 16.2-1.3 2.4-1.1 3.4-.8 4l-.3.2-5.7-4.4.2-.3 2.1-1.3c3.1-5.8 6.6-12.1 9.2-17v-.3c-2.7-2-1.2-1.5-6-1.8v-.3l3.1-3.4h.3c3.6 2.4 9.9 6.8 12.3 8.9l.2.3zM575.8 276l-2.8-2.9c.8-2.3 1.8-4.9 2.1-7.5.7-9.8-11.6-11.9-11.6-5 0 5 7.9 19.4 7.9 27.7 0 10.2-5.8 15.7-13.9 16.5-8.4.8-20.1-10.4-20.1-10.4l4.9-14.4 2.9 2.1c-3 17.8 17.7 20.3 13.4 5.2-1.1-4-18.8-34.2 2.1-38.2 13.6-2.4 23 16.5 23 16.5zm35.7-10.2C600.5 235.4 551 138.3 419.5 136.2c-53.4-1.1-94.3 15.4-132.7 38l85.6-9.2L281 185.7l25.1 19.6-3.9-16.5c7.5-1.7 39.2-8.4 66.8-8.9l-22.3 80.4c13.6-.7 19-9 19.7-22.8l4.9-1 .3 26.7c-22.5 3.2-37.3 6.7-49.5 9.9l13.1-43.2-61.6-36.6 2.4 8.1 10.2 5c6.3 18.6 19.4 56.5 20.4 58.6 2 4.3 3.2 5.8 12.1 4.5l1.1 5c-16.1 4.8-23.7 7.6-39.1 14.4l-2.3-4.7c4.4-3 8.7-4 5.5-12.9-23.7-62.5-21.5-58.1-22.8-59.4l2.4-4.5 33.5 67.3c-3.9-11.8 1.7 1.7-33-78.8l-41.9 88.5 4.7-13.8-35.9-42.2 27.8 93.5-11.8 8.4C95 228.6 101 231.9 93.2 231.5c-5.5-.2-13.6 5.5-13.6 5.5l-5-6c30.6-23.5 31.7-24.3 58.4-42.7l4.2 7.1s-5.7 4.2-7.8 7.1c-5.9 9.2 1.6 13.2 61.8 75.6l-18.9-58.9L212.1 209l25.7 30.6 4.4-12.3-5-24.6 13.1-3.4.5 3.2 3.7-10.5-94.3 29.3 11.3-5-13.6-42.4 17.3-9.2 30.1 36.2 28.5-13.1c-1.4-7.5-2.5-14.5-4.7-19.6l17.3 13.8 4.7-2.1-59.2-42.6 23.1 11.5c19-6.1 25.2-7.5 32.2-9.7l2.6 11c-12.5 12.5 1.5 16.8 6.6 19.4l-13.6-61.1 12 28.3c4.2-1.3 7.3-2.1 7.3-2.1l2.7 8.7s-3.2 1-6.3 2.1l8.9 20.9 33.8-65.7-20.7 61c42.4-24.1 81.4-36.7 131.9-35.9 67.1 1.1 167.4 40.9 199.8 139.8.8 2.1 0 2.7-.7.3m-408-113.4s1.8-.5 4.2-1.3l9.4 7.6c-.4 0-3.4-.2-11.3 2.4zm143.7 38.5c-1.5-.6-26.4-4.8-33.2 20.7l21.7 17zM318.4 67.1c-58.4 0-106 12-114.9 14.4v.8c8.4 2.1 14.4 4.2 21.2 11.7l1.6.3c6.5-1.8 48.9-13.9 110.2-13.9 180.1 0 301.7 116.8 301.7 223.4v9.9c0 1.4.8 2.7 1 .6.5-2.1.8-8.7.8-19.7C640.3 210.8 543.4 67.1 318.4 67.1m211.1 169.7c1.3-5.8 0-12.4-7.3-13.1-9.7-1.2-16.2 23.7-17.1 33.5-.8 5.5-1.3 14.9 6.1 14.9 4.6 0 9.7-.9 18.3-35.3M468 279.7c-2.7-.8-9.5-.8-12.6 10.5-1.8 6.8.5 13.3 6 14.6 3.7 1.1 8.9.6 11.8-10.7 2.6-9.9-1.8-13.6-5.2-14.4m23 20.9c1.8.6 3.1 1.1 5.8 1.9 0-1.9.5-8.4.8-12.1-1.1 1.3-5.5 8.1-6.6 10z"/></svg>