<svg height="512" width="640" xmlns="http://www.w3.org/2000/svg"><path d="M178.4 339.7h-37.3L112.2 223.5h-.5L83.2 339.7h-38L0 168.9h37.5l27.1 116.3h.5L94.7 168.9h35.2L159 286.6h.5l28-117.7h36.8zm93-127c39 0 64.1 25.8 64.1 65.3 0 39.2-25.1 65.1-64.1 65.1-38.7 0-63.9-25.9-63.9-65.1 0-39.5 25.2-65.3 63.9-65.3m0 104.8c23.2 0 30.1-19.9 30.1-39.5 0-19.8-6.9-39.7-30.1-39.7-27.7 0-29.9 19.9-29.9 39.7 0 19.6 6.9 39.5 29.9 39.5m163.7 6.4h-.5c-7.9 13.4-21.8 19.2-37.5 19.2-37.4 0-55.5-32.1-55.5-66.3 0-33.2 18.4-64.1 54.7-64.1 14.6 0 29 6.2 36.9 18.4h.2v-62.2h34v170.8h-32.3zm-29.7-85.6c-22.2 0-29.9 19.1-29.9 39.5 0 19.3 8.9 39.7 29.9 39.7 22.5 0 29.2-19.6 29.2-40 0-20.1-7.2-39.2-29.2-39.2M593 339.7h-32.3v-17.2h-.7c-8.7 13.9-23.5 20.6-37.8 20.6-36.1 0-45.2-20.4-45.2-51v-76h33.9v69.8c0 20.3 6 30.4 21.8 30.4 18.4 0 26.3-10.3 26.3-35.4v-64.8h34zm9.5-36.8H640v36.8h-37.5z"/></svg>