<svg height="512" width="512" xmlns="http://www.w3.org/2000/svg"><path d="m267.7 471.5 10.6 15.9 5.3-12.4 5.2 7v30c21.1-7.9 21.2-66.9 25.6-97.2 4.6-31.9-.9-92.8 81.3-149.1-8.9-23.6-12-49.4-2.6-80.1 27.9 3.4 53.9 10.6 63.3 54.1l-30.3 8.4c11.1 23 17 46.7 13.2 72.1l-27.3-7-6.2 33.4-18.4-7-8.8 33.4-19.4-7 26.4 21.1 8.8-28.1 24.6 5.2 7-35.6 26.4 14.5c.2-20 7-58.1-8.8-84.5l26.4 5.3c4-22.1-2.4-39.2-7.9-56.7l22.4 9.7c-.5-25.1-30-56.8-61.6-58.5-20.2-1.1-56.7-25.2-54.1-51.9 2-19.9 17.5-42.7 43.1-49.7-44 36.5-9.7 67.3 5.3 73.4 4.4-11.4 17.5-69.1 0-130.2C376.8 22.9 327.5 65.1 324 147.8l-58 38.7-3.5 93.3L369.8 220l7 7-17.6 3.5-44 38.7L299.4 264l-28.1 49.2-3.6 119.6 21.1 15.9-32.5 15.8-32.6-15.8 21.2-15.9-3.6-119.6-28.1-49.3-15.9 5.3-44-38.7L135.8 227l7-7 107.3 59.8-3.5-93.2-58.1-38.7C185 65.1 135.8 22.9 95.3 0c-17.5 61.1-4.4 118.8 0 130.2 15-6.2 49.3-37 5.3-73.5 25.6 7.1 41.1 29.9 43.1 49.7 2.6 26.8-33.9 50.9-54.1 51.9C57.9 160.1 28.4 191.8 28 216.8l22.4-9.6c-5.5 17.5-11.9 34.6-7.9 56.7l26.4-5.3c-15.8 26.4-9 64.5-8.8 84.5l26.4-14.5 7 35.6 24.6-5.3 8.8 28.2L153.3 366l-19.3 7-8.8-33.4-18.5 7-6.1-33.5-27.3 7C69.5 294.8 75.3 271 86.5 248l-30.3-8.4c9.4-43.5 35.4-50.7 63.3-54.1 9.4 30.7 6.2 56.5-2.6 80.1 82.2 56.3 76.7 117.2 81.3 149.1 4.4 30.4 4.5 89.3 25.5 97.2v-29.8l5.3-7 5.3 12.3 10.6-15.8 11.4 21.1 11.4-21.1zm79.2-95L331.1 366c7.4-4.4 13.7-8.4 19.3-12.3-.6 7.2-.3 13.8-3.5 22.8m28.2-49.2c-.4 10.9-.9 21.6-1.8 31.6-7.9-1.8-15.6-3.8-21.1-7 8.2-7.9 15.5-16.3 22.9-24.6m24.6 5.2c0-13.4-2.1-24.2-5.3-33.4a235 235 0 0 1-18.5 27.3zm3.5-80.9c19.4 12.8 27.8 33.7 29.9 56.3-12.3-4.5-24.6-9.3-36.9-10.6 5-12 6.6-28.1 7-45.7m-1.8-45.7c.9 14.3 1.9 28.8 1.8 42.2 19.2-8.1 29.8-9.7 44-14.1C436.6 215.1 420 208.5 401.4 205.9M165.7 376.5 181.5 366c-7.4-4.4-13.7-8.4-19.3-12.3.6 7.2.2 13.9 3.5 22.9zm-28.2-49.2c.4 10.9.9 21.6 1.8 31.6 7.8-1.8 15.6-3.8 21.1-7-8.2-7.9-15.6-16.3-22.9-24.6m-24.6 5.2c0-13.4 2-24.2 5.3-33.4a235 235 0 0 0 18.4 27.3zm-3.5-80.9c-19.5 12.8-27.8 33.7-29.9 56.3 12.3-4.5 24.6-9.3 37-10.6-5-12-6.7-28.1-7-45.7zm1.7-45.7c-.8 14.3-1.8 28.8-1.7 42.2C90.2 240 79.6 238.4 65.4 234 76 215.1 92.6 208.5 111.1 205.9"/></svg>