<svg height="512" width="496" xmlns="http://www.w3.org/2000/svg"><path d="M248 8C111 8 0 119 0 256s111 248 248 248S496 393 496 256 385 8 248 8m171.3 158.6q-22.65 51.75-45.6 103.5c-2.4 5.5-6.9 8.2-13 8.2-23 0-46 .1-69 0-5.1 0-8.3 1.9-10.4 6.7-10.1 23.6-20.6 47-30.9 70.5-1.5 3.5-4.1 5.3-7.9 5.3-46 0-91.9 0-137.8 0-3.2 0-5.7-1.1-7.8-3.4C85.7 345 74.5 332.7 63.3 320.4c-2.7-2.9-2.8-6.2-1.2-9.7C70.7 291.1 79.3 271.6 87.9 252c13-29.3 25.9-58.7 38.8-88.1 1.7-3.8 4.3-5.6 8.5-5.6 14.3.1 28.5 0 42.8 0 6.2.1 9.2 4.9 6.6 10.6-13.6 30.8-27.2 61.6-40.7 92.4q-8.55 19.5-17.1 39c-3.9 8.9 7.1 11.9 10.9 5.6.3-.4-1.4 4.1 30-67.7 1.4-3.1 3.5-4.4 6.8-4.4 15.2.1 30.4 0 45.7 0 5.5 0 7.9 3.7 5.6 8.8-8.3 18.9-16.7 37.9-25 56.9-4.9 11.4 8.1 12.5 11.3 5.3.1-.1 27.9-63.3 32.2-73.2 2-4.6 5.4-6.5 10.4-6.5 26.4.1 52.8 0 79.2.1 12.5 0 14-13.7 3.9-13.7-25.2.1-50.5.1-75.7.1-6.3 0-7.9-2.5-5.3-8.3 5.8-13.1 11.6-26.1 17.3-39.2 1.7-4 4.5-5.8 8.8-5.8 23.1.1 26 0 130.8 0 6.1 0 8 2.8 5.6 8.3"/></svg>