<svg height="512" width="512" xmlns="http://www.w3.org/2000/svg"><path d="M369.9 318.2c44.3 54.3 64.7 98.8 54.4 118.7-7.9 15.1-56.7 44.6-92.6 55.9-29.6 9.3-68.4 13.3-100.4 10.2-38.2-3.7-76.9-17.4-110.1-39C93.3 445.8 87 438.3 87 423.4c0-29.9 32.9-82.3 89.2-142.1 32-33.9 76.5-73.7 81.4-72.6 9.4 2.1 84.3 75.1 112.3 109.5M188.6 143.8C158.9 116.9 130.5 89.9 102.2 80.4 87 75.3 85.9 75.6 73.5 88.5 44.3 118.9 20 168.2 13.2 210.9 7.8 245.1 7.1 254.7 9 271.4c5.6 50.5 17.3 85.4 40.5 120.9 9.5 14.6 12.1 17.3 9.3 9.9-4.2-11-.3-37.5 9.5-64 14.3-39 53.9-112.9 120.3-194.4m311.6 63.5C483.3 127.3 432.7 77 425.6 77c-7.3 0-24.2 6.5-36 13.9-23.3 14.5-41 31.4-64.3 52.8C367.7 197 427.5 283.1 448.2 346c6.8 20.7 9.7 41.1 7.4 52.3-1.7 8.5-1.7 8.5 1.4 4.6 6.1-7.7 19.9-31.3 25.4-43.5 7.4-16.2 15-40.2 18.6-58.7 4.3-22.5 3.9-70.8-.8-93.4M141.3 43C189 40.5 251 77.5 255.6 78.4c.7.1 10.4-4.2 21.6-9.7 63.9-31.1 94-25.8 107.4-25.2C320.7 4.2 231.9-6.5 150.7 31.8c-23.4 11.1-24 11.9-9.4 11.2"/></svg>