<svg height="512" width="512" xmlns="http://www.w3.org/2000/svg"><path d="M421.8 152.2A23.1 23.1 0 0 0 400.9 112c-.8.4-1.7.9-2.6 1.4C383 121.8 279.9 194 291.6 202.2s82-23.6 130.2-50m0 217.1C373.6 343 303.1 311.2 291.6 319.3s91.4 80.4 106.7 88.8c.9.5 1.8 1 2.6 1.4a23.1 23.1 0 0 0 20.9-40.2M464.2 237c-.9 0-1.9-.1-3-.1-17.4 0-142.5 13.8-136.2 26.5s83.3 18.8 138.2 18.8a23 23 0 0 0 1-45.2M31 96.7A24.9 24.9 0 0 1 77.1 78.3l81 205h1.2l77-203.5A23.5 23.5 0 0 1 280.8 95L171.2 368.4C152.7 415.7 134.1 448 77.9 448a139.7 139.7 0 0 1-23.8-1.9A21.3 21.3 0 0 1 61 404.3c.7 0 10.9.6 13.9.6 30.4 0 43.7-18.9 58-59.4z"/></svg>