<svg height="512" width="384" xmlns="http://www.w3.org/2000/svg"><path d="m42.9 240.3 99.6 48.6c19.2 9.4 16.2 37.5-4.5 42.7L30.5 358.4A22.8 22.8 0 0 1 2.3 338.8a197.2 197.2 0 0 1 9-85.3 22.8 22.8 0 0 1 31.6-13.2m44 239.3a199.4 199.4 0 0 0 79.4 32.1A22.8 22.8 0 0 0 192.9 490l3.9-110.8c.7-21.3-25.5-31.9-39.8-16.1l-74.2 82.4a22.8 22.8 0 0 0 4.1 34.1m145.3-110 58.9 94a22.9 22.9 0 0 0 34 5.5 198.4 198.4 0 0 0 52.7-67.6A23 23 0 0 0 364.2 370L258.8 335.7c-20.4-6.5-37.9 15.8-26.6 33.9M380.6 237.4a197.4 197.4 0 0 0-50.4-69.3 22.9 22.9 0 0 0-34 4.4l-62 91.9c-11.9 17.7 4.7 40.6 25.2 34.7L366 268.6a23 23 0 0 0 14.6-31.2M62.1 30.2a22.9 22.9 0 0 0-9.9 32l104.1 180.4c11.7 20.2 42.6 11.9 42.6-11.4V22.9A22.7 22.7 0 0 0 174.4.1 320.4 320.4 0 0 0 62.1 30.2"/></svg>