<svg height="512" width="384" xmlns="http://www.w3.org/2000/svg"><path d="M351.2 32h-65.3c-4.6 0-8.8 2.6-10.8 6.7l-55.4 113.2c-14.5 34.7-27.1 71.9-27.1 71.9h-1.3s-12.6-37.2-27.1-71.9L108.8 38.7C106.8 34.6 102.6 32 98 32H32.8C23.7 32 18 41.7 22.2 49.6L102.3 200H44c-6.6 0-12 5.4-12 12v32c0 6.6 5.4 12 12 12h88.2l19.8 37.2V320H44c-6.6 0-12 5.4-12 12v32c0 6.6 5.4 12 12 12h108v92c0 6.6 5.4 12 12 12h56c6.6 0 12-5.4 12-12v-92h108c6.6 0 12-5.4 12-12v-32c0-6.6-5.4-12-12-12H232v-26.8L251.8 256H340c6.6 0 12-5.4 12-12v-32c0-6.6-5.4-12-12-12h-58.3L361.8 49.6C366.1 41.7 360.3 32 351.2 32"/></svg>