<svg height="512" width="448" xmlns="http://www.w3.org/2000/svg"><path d="m186.8 202.1 95.2 54.1-95.2 54.1zM448 80v352c0 26.5-21.5 48-48 48H48C21.5 480 0 458.5 0 432V80C0 53.5 21.5 32 48 32h352c26.5 0 48 21.5 48 48m-42 176.3s0-59.6-7.6-88.2c-4.2-15.8-16.5-28.2-32.2-32.4C337.9 128 224 128 224 128s-113.9 0-142.2 7.7c-15.7 4.2-28 16.6-32.2 32.4C42 196.6 42 256.3 42 256.3s0 59.6 7.6 88.2c4.2 15.8 16.5 27.7 32.2 31.9C110.1 384 224 384 224 384s113.9 0 142.2-7.7c15.7-4.2 28-16.1 32.2-31.9 7.6-28.5 7.6-88.1 7.6-88.1"/></svg>