<svg height="512" width="640" xmlns="http://www.w3.org/2000/svg"><path d="M170.5 148.1v217.6H194l7.7 26.3 42-26.3h49.5V148.1zm97.8 194h-28l-27.9 17.5-5-17.5h-11.9V171.8h72.8zM149.8 247.7H97.5c1.7-27.1 2.2-51.6 2.2-73.5h51.2s1.9-22.5-8.6-22.3H53.8c3.5-13.1 7.8-26.7 13.1-40.7 0 0-24.1 0-32.3 21.6-3.4 8.9-13.2 43.1-30.7 78.1 5.9-.6 25.4-1.2 36.9-22.2 2.1-5.9 2.5-6.6 5.1-14.5h28.9c0 10.5-1.2 66.9-1.7 73.4H20.8c-11.7 0-15.5 23.6-15.5 23.6h65.5C66.5 321.1 42.8 363.1 0 396.3c20.5 5.9 40.9-.9 51-9.9 0 0 23-20.9 35.6-69.2l54 64.9s7.9-26.9-1.3-40c-7.6-8.9-28-33-36.8-41.8l-14.6 11.6c4.4-13.9 7-27.5 7.9-40.6h61.6s-.1-23.6-7.6-23.6m412-1.6c20.9-25.7 45-58.6 45-58.6s-18.6-14.8-27.4-4.1c-6 8.2-36.8 48.2-36.8 48.2zM411.8 187c-9.1-8.3-26 2.1-26 2.1s39.6 55.1 41.2 57.5l19.4-13.8S420.8 195.2 411.8 187M640 258.4c-19.8 0-130.9.9-131.1.9v-101c4.9 0 12.5-.4 22.9-1.2 40.9-2.4 70.1-4 87.8-4.8 0 0 12.2-27.2-.6-33.5-3.1-1.1-23.2 4.6-23.2 4.6s-165.2 16.5-232.4 18.1c1.6 8.8 7.7 17 15.8 19.5 13.3 3.5 22.7 1.7 49.2.9 24.8-1.6 43.6-2.4 56.5-2.4v99.8H351.4s2.8 22.3 25.5 22.8h108v71c0 13.9-11.2 21.9-24.5 21.1-14.1.1-26.1-1.2-41.7-1.8 2 3.9 6.3 14.4 19.3 21.8 9.9 4.8 16.2 6.6 26 6.6 29.6 0 45.7-17.3 44.9-45.3v-73.4h122.4c9.6 0 8.7-23.7 8.7-23.7"/></svg>